<svg xmlns="http://www.w3.org/2000/svg" viewBox="0 0 1440 900" width="1440" height="900">
  <defs>
    <style>
      .bg-header { fill: #000E9C; }
      .bg-main { fill: #F6F6F9; }
      .bg-white { fill: #FFFFFF; }
      .bg-primary { fill: #0050D7; }
      .bg-success { fill: #DEF7EC; }
      .bg-info { fill: #DBEAFE; }
      .border { stroke: #E5E7EB; stroke-width: 1; fill: none; }
      .text-white { fill: #FFFFFF; font-family: 'Source Sans Pro', sans-serif; }
      .text-dark { fill: #1F2937; font-family: 'Source Sans Pro', sans-serif; }
      .text-muted { fill: #6B7280; font-family: 'Source Sans Pro', sans-serif; }
      .text-primary { fill: #0050D7; font-family: 'Source Sans Pro', sans-serif; }
      .text-success { fill: #059669; font-family: 'Source Sans Pro', sans-serif; }
      .row-selected { fill: #E8F0FE; }
      .btn-outline { stroke: #0050D7; stroke-width: 1; fill: #FFFFFF; }
      .btn-primary { fill: #0050D7; }
      .dropzone { stroke: #0050D7; stroke-width: 2; stroke-dasharray: 8 4; fill: #F9FAFB; }
    </style>
  </defs>

  <rect width="1440" height="900" class="bg-main"/>

  <!-- NAV1 -->
  <rect width="1440" height="50" class="bg-header"/>
  <text x="40" y="32" class="text-white" font-size="14" opacity="0.7">Accueil</text>
  <text x="110" y="32" class="text-white" font-size="14" opacity="0.7">Public Cloud</text>
  <text x="210" y="32" class="text-white" font-size="14" opacity="0.7">Hosted Private Cloud</text>
  <text x="370" y="32" class="text-white" font-size="14" opacity="0.7">Bare Metal Cloud</text>
  <text x="510" y="32" class="text-white" font-size="14" font-weight="600">Web Cloud</text>
  <rect x="505" y="46" width="75" height="3" fill="#FFFFFF"/>
  <text x="620" y="32" class="text-white" font-size="14" opacity="0.7">Network</text>
  <text x="700" y="32" class="text-white" font-size="14" opacity="0.7">IAM / Securite</text>
  <text x="810" y="32" class="text-white" font-size="14" opacity="0.7">Licences</text>

  <!-- NAV2 -->
  <rect x="0" y="50" width="1440" height="40" class="bg-white"/>
  <line x1="0" y1="89" x2="1440" y2="89" stroke="#E5E7EB"/>
  <text x="40" y="75" class="text-muted" font-size="14">Accueil</text>
  <text x="110" y="75" class="text-muted" font-size="14">Domaines</text>
  <text x="200" y="75" class="text-muted" font-size="14">Hebergement</text>
  <text x="310" y="75" class="text-muted" font-size="14">Emails</text>
  <text x="380" y="75" class="text-primary" font-size="14" font-weight="600">VoIP</text>
  <rect x="375" y="85" width="40" height="3" fill="#0050D7"/>

  <!-- MAIN -->
  <g transform="translate(0, 90)">
    <g transform="translate(24, 15)">

      <!-- LEFT PANEL -->
      <rect x="0" y="0" width="280" height="780" rx="8" class="bg-white"/>
      <rect x="0" y="0" width="280" height="780" rx="8" class="border"/>

      <!-- NAV3 -->
      <text x="35" y="20" class="text-muted" font-size="10" text-anchor="middle">Lignes</text>
      <text x="105" y="20" class="text-muted" font-size="10" text-anchor="middle">Numéros</text>
      <rect x="140" y="0" width="50" height="32" rx="8" fill="#0050D7"/>
      <text x="165" y="20" class="text-white" font-size="10" text-anchor="middle">Fax</text>
      <text x="230" y="20" class="text-muted" font-size="10" text-anchor="middle">Abrégés</text>

      <rect x="12" y="44" width="256" height="34" rx="4" fill="#F9FAFB" stroke="#E5E7EB"/>
      <text x="26" y="66" class="text-muted" font-size="12">Rechercher...</text>

      <!-- Fax sélectionné -->
      <rect x="6" y="108" width="268" height="52" rx="6" class="row-selected"/>
      <circle cx="28" cy="134" r="12" fill="#DC2626"/>
      <text x="28" y="138" class="text-white" font-size="9" text-anchor="middle">F</text>
      <text x="50" y="128" class="text-dark" font-size="12" font-weight="500">0033972101234</text>
      <text x="50" y="144" class="text-muted" font-size="10">Fax principal</text>

      <!-- RIGHT PANEL -->
      <rect x="296" y="0" width="1096" height="780" rx="8" class="bg-white"/>
      <rect x="296" y="0" width="1096" height="780" rx="8" class="border"/>

      <g transform="translate(316, 20)">
        <text x="0" y="0" class="text-primary" font-size="11">← Groupe Principal</text>
        <text x="0" y="30" class="text-dark" font-size="18" font-weight="600">0033972101234</text>
        <text x="160" y="30" class="text-muted" font-size="12">Logo et en-tête</text>

        <!-- NAV4 Tabs -->
        <g transform="translate(0, 50)">
          <rect x="0" y="0" width="80" height="32" rx="4" fill="#0050D7"/>
          <text x="40" y="21" class="text-white" font-size="11" text-anchor="middle">Général</text>
          <text x="110" y="21" class="text-muted" font-size="11">Envoi</text>
          <text x="180" y="21" class="text-muted" font-size="11">Campagnes</text>
          <text x="270" y="21" class="text-muted" font-size="11">Reçus</text>
          <text x="340" y="21" class="text-muted" font-size="11">Envoyés</text>
          <text x="420" y="21" class="text-muted" font-size="11">Conso</text>
          <text x="500" y="21" class="text-muted" font-size="11">Messagerie</text>
          <text x="600" y="21" class="text-muted" font-size="11">Filtrage</text>
        </g>

        <!-- NAV5 Sub-tabs -->
        <g transform="translate(0, 95)">
          <text x="20" y="14" class="text-muted" font-size="10">Informations</text>
          <text x="110" y="14" class="text-muted" font-size="10">Paramètres</text>
          <rect x="190" y="0" width="50" height="24" rx="4" fill="#E8F0FE"/>
          <text x="215" y="16" class="text-primary" font-size="10" text-anchor="middle">Logo</text>
          <text x="270" y="14" class="text-muted" font-size="10">Notifications</text>
        </g>

        <!-- Contenu Logo -->
        <g transform="translate(0, 140)">

          <!-- Info banner -->
          <rect x="0" y="0" width="1040" height="45" rx="6" class="bg-info"/>
          <text x="20" y="18" class="text-info" font-size="12" font-weight="600">🖼️ Logo et en-tête de fax</text>
          <text x="20" y="35" class="text-info" font-size="11">Le logo apparaîtra en haut de chaque fax envoyé. Format recommandé: PNG ou JPEG, max 200x50 pixels.</text>

          <!-- Logo actuel -->
          <g transform="translate(0, 65)">
            <text x="0" y="0" class="text-dark" font-size="14" font-weight="600">Logo actuel</text>
            <line x1="0" y1="15" x2="1040" y2="15" stroke="#E5E7EB"/>

            <g transform="translate(0, 30)">
              <rect x="0" y="0" width="500" height="150" rx="6" fill="#FFFFFF" stroke="#E5E7EB"/>

              <!-- Preview logo -->
              <rect x="20" y="20" width="200" height="50" rx="4" fill="#F3F4F6"/>
              <text x="120" y="50" class="text-muted" font-size="11" text-anchor="middle">LOGO ENTREPRISE</text>

              <text x="20" y="100" class="text-muted" font-size="10">Fichier: logo-entreprise.png</text>
              <text x="20" y="118" class="text-muted" font-size="10">Dimensions: 180x45 pixels</text>
              <text x="20" y="136" class="text-muted" font-size="10">Taille: 12 Ko</text>

              <rect x="380" y="100" width="100" height="30" rx="4" fill="#FFFFFF" stroke="#DC2626"/>
              <text x="430" y="120" fill="#DC2626" font-size="10" text-anchor="middle">Supprimer</text>
            </g>

            <!-- Aperçu fax -->
            <g transform="translate(520, 30)">
              <rect x="0" y="0" width="500" height="150" rx="6" fill="#FFFFFF" stroke="#E5E7EB"/>
              <text x="20" y="25" class="text-dark" font-size="12" font-weight="500">Aperçu en-tête fax</text>

              <!-- Mini fax preview -->
              <rect x="20" y="40" width="300" height="100" fill="#FFFFFF" stroke="#E5E7EB"/>
              <rect x="30" y="50" width="100" height="25" rx="2" fill="#F3F4F6"/>
              <text x="80" y="67" class="text-muted" font-size="8" text-anchor="middle">LOGO</text>
              <line x1="30" y1="85" x2="310" y2="85" stroke="#E5E7EB"/>
              <text x="30" y="100" class="text-muted" font-size="7">De: Entreprise SARL</text>
              <text x="30" y="112" class="text-muted" font-size="7">Fax: 0033972101234</text>
              <text x="30" y="124" class="text-muted" font-size="7">Date: 28/12/2024</text>
              <text x="200" y="100" class="text-muted" font-size="7">À: Destinataire</text>
              <text x="200" y="112" class="text-muted" font-size="7">Pages: 2</text>
            </g>
          </g>

          <!-- Upload nouveau logo -->
          <g transform="translate(0, 270)">
            <text x="0" y="0" class="text-dark" font-size="14" font-weight="600">Changer le logo</text>
            <line x1="0" y1="15" x2="1040" y2="15" stroke="#E5E7EB"/>

            <!-- Dropzone -->
            <g transform="translate(0, 30)">
              <rect x="0" y="0" width="1040" height="140" rx="6" class="dropzone"/>
              <text x="520" y="50" class="text-primary" font-size="14" text-anchor="middle" font-weight="500">Glissez-déposez votre logo ici</text>
              <text x="520" y="75" class="text-muted" font-size="11" text-anchor="middle">ou</text>
              <rect x="445" y="90" width="150" height="32" rx="4" class="btn-primary"/>
              <text x="520" y="111" class="text-white" font-size="11" text-anchor="middle">Parcourir...</text>
            </g>
          </g>

          <!-- Spécifications -->
          <g transform="translate(0, 460)">
            <text x="0" y="0" class="text-dark" font-size="14" font-weight="600">Spécifications</text>
            <line x1="0" y1="15" x2="1040" y2="15" stroke="#E5E7EB"/>

            <rect x="0" y="30" width="1040" height="80" rx="6" fill="#F9FAFB" stroke="#E5E7EB"/>
            <g transform="translate(20, 50)">
              <text x="0" y="0" class="text-muted" font-size="11">• Formats acceptés: PNG, JPEG, GIF</text>
              <text x="300" y="0" class="text-muted" font-size="11">• Dimensions max: 200x50 pixels</text>
              <text x="600" y="0" class="text-muted" font-size="11">• Taille max: 100 Ko</text>
              <text x="0" y="25" class="text-muted" font-size="11">• Fond transparent recommandé (PNG)</text>
              <text x="300" y="25" class="text-muted" font-size="11">• Contraste élevé pour impression fax</text>
            </g>
          </g>

        </g>
      </g>
    </g>
  </g>
</svg>
