<svg xmlns="http://www.w3.org/2000/svg" viewBox="0 0 1440 900" width="1440" height="900">
  <defs>
    <style>
      .bg-header { fill: #000E9C; }
      .bg-main { fill: #F6F6F9; }
      .bg-white { fill: #FFFFFF; }
      .bg-primary { fill: #0050D7; }
      .bg-success { fill: #DEF7EC; }
      .border { stroke: #E5E7EB; stroke-width: 1; fill: none; }
      .btn-outline { stroke: #0050D7; stroke-width: 1; fill: #FFFFFF; }
      .btn-primary { fill: #0050D7; }
      .row-selected { fill: #E8F0FE; }
      .text-white { fill: #FFFFFF; font-family: 'Source Sans Pro', sans-serif; }
      .text-dark { fill: #1F2937; font-family: 'Source Sans Pro', sans-serif; }
      .text-muted { fill: #6B7280; font-family: 'Source Sans Pro', sans-serif; }
      .text-primary { fill: #0050D7; font-family: 'Source Sans Pro', sans-serif; }
      .text-success { fill: #059669; font-family: 'Source Sans Pro', sans-serif; }
    </style>
  </defs>

  <rect width="1440" height="900" class="bg-main"/>
  <rect width="1440" height="50" class="bg-header"/>
  <text x="510" y="32" class="text-white" font-size="14" font-weight="600">Web Cloud</text>
  <rect x="505" y="46" width="75" height="3" fill="#FFFFFF"/>
  <rect x="0" y="50" width="1440" height="40" class="bg-white"/>
  <line x1="0" y1="89" x2="1440" y2="89" stroke="#E5E7EB"/>
  <text x="500" y="75" class="text-primary" font-size="14" font-weight="600">VoIP</text>
  <rect x="495" y="85" width="35" height="3" fill="#0050D7"/>

  <g transform="translate(0, 90)">
    <g transform="translate(24, 15)">
      <rect x="0" y="0" width="120" height="36" rx="6" fill="#F3F4F6" stroke="#E5E7EB"/>
      <text x="60" y="23" fill="#6B7280" font-size="13" text-anchor="middle">Lignes  3</text>
      <rect x="128" y="0" width="130" height="36" rx="6" fill="#F3F4F6" stroke="#E5E7EB"/>
      <text x="193" y="23" fill="#6B7280" font-size="13" text-anchor="middle">Numeros  5</text>
      <rect x="266" y="0" width="100" height="36" rx="6" fill="#0050D7"/>
      <text x="316" y="23" class="text-white" font-size="13" text-anchor="middle" font-weight="500">Fax  1</text>
      <rect x="374" y="0" width="100" height="36" rx="6" fill="#F3F4F6" stroke="#E5E7EB"/>
      <text x="424" y="23" fill="#6B7280" font-size="13" text-anchor="middle">Abreges</text>
    </g>

    <g transform="translate(24, 65)">
      <rect x="0" y="0" width="280" height="720" rx="8" class="bg-white"/>
      <rect x="0" y="0" width="280" height="720" rx="8" class="border"/>
      <text x="16" y="30" class="text-dark" font-size="15" font-weight="700">Fax</text>
      <g transform="translate(6, 50)">
        <rect x="0" y="0" width="268" height="72" rx="6" class="row-selected"/>
        <text x="12" y="22" class="text-dark" font-size="13" font-weight="500">0033972107777</text>
        <text x="12" y="40" class="text-muted" font-size="11">Fax principal</text>
        <circle cx="250" cy="36" r="5" fill="#10B981"/>
      </g>

      <rect x="296" y="0" width="1096" height="720" rx="8" class="bg-white"/>
      <rect x="296" y="0" width="1096" height="720" rx="8" class="border"/>

      <g transform="translate(316, 0)">
        <text x="0" y="28" class="text-dark" font-size="18" font-weight="600">0033972107777</text>
        <text x="180" y="28" class="text-muted" font-size="12">Fax principal</text>

        <g transform="translate(0, 45)">
          <rect x="0" y="0" width="60" height="26" rx="4" class="btn-outline"/>
          <text x="30" y="17" class="text-primary" font-size="11" text-anchor="middle">General</text>
          <rect x="64" y="0" width="90" height="26" rx="4" class="btn-outline"/>
          <text x="109" y="17" class="text-primary" font-size="11" text-anchor="middle">Parametres</text>
          <rect x="158" y="0" width="80" height="26" rx="4" class="bg-primary"/>
          <text x="198" y="17" class="text-white" font-size="11" text-anchor="middle">Notifications</text>
          <rect x="242" y="0" width="50" height="26" rx="4" class="btn-outline"/>
          <text x="267" y="17" class="text-primary" font-size="11" text-anchor="middle">Logo</text>
          <rect x="296" y="0" width="90" height="26" rx="4" class="btn-outline"/>
          <text x="341" y="17" class="text-primary" font-size="11" text-anchor="middle">Fax envoyes</text>
          <rect x="390" y="0" width="80" height="26" rx="4" class="btn-outline"/>
          <text x="430" y="17" class="text-primary" font-size="11" text-anchor="middle">Fax recus</text>
          <rect x="474" y="0" width="95" height="26" rx="4" class="btn-outline"/>
          <text x="521" y="17" class="text-primary" font-size="11" text-anchor="middle">Consommation</text>
          <rect x="573" y="0" width="80" height="26" rx="4" class="btn-outline"/>
          <text x="613" y="17" class="text-primary" font-size="11" text-anchor="middle">Campagnes</text>
        </g>

        <g transform="translate(0, 90)">
          <!-- Email notifications -->
          <rect x="0" y="0" width="520" height="280" rx="8" fill="#FFFFFF" stroke="#E5E7EB"/>
          <text x="20" y="30" class="text-dark" font-size="13" font-weight="600">Notifications email</text>

          <text x="20" y="65" class="text-muted" font-size="10" font-weight="600">FAX RECUS</text>
          <rect x="20" y="75" width="40" height="22" rx="11" fill="#0050D7"/>
          <circle cx="50" cy="86" r="8" fill="#FFFFFF"/>
          <text x="80" y="90" class="text-muted" font-size="10">Notifier par email a reception</text>

          <text x="20" y="125" class="text-muted" font-size="10" font-weight="600">FAX ENVOYES</text>
          <rect x="20" y="135" width="40" height="22" rx="11" fill="#0050D7"/>
          <circle cx="50" cy="146" r="8" fill="#FFFFFF"/>
          <text x="80" y="150" class="text-muted" font-size="10">Notifier confirmation d'envoi</text>

          <text x="20" y="185" class="text-muted" font-size="10" font-weight="600">FAX EN ECHEC</text>
          <rect x="20" y="195" width="40" height="22" rx="11" fill="#0050D7"/>
          <circle cx="50" cy="206" r="8" fill="#FFFFFF"/>
          <text x="80" y="210" class="text-muted" font-size="10">Notifier les echecs d'envoi</text>

          <text x="20" y="250" class="text-muted" font-size="10" font-weight="600">EMAIL DE NOTIFICATION</text>
          <rect x="20" y="260" width="300" height="32" rx="4" fill="#F9FAFB" stroke="#E5E7EB"/>
          <text x="36" y="281" class="text-dark" font-size="11">fax@mondomaine.fr</text>

          <!-- PDF options -->
          <rect x="536" y="0" width="520" height="280" rx="8" fill="#FFFFFF" stroke="#E5E7EB"/>
          <text x="556" y="30" class="text-dark" font-size="13" font-weight="600">Options PDF</text>

          <text x="556" y="65" class="text-muted" font-size="10" font-weight="600">INCLURE PDF EN PIECE JOINTE</text>
          <rect x="556" y="75" width="40" height="22" rx="11" fill="#0050D7"/>
          <circle cx="586" cy="86" r="8" fill="#FFFFFF"/>
          <text x="620" y="90" class="text-muted" font-size="10">Joindre le fax recu au mail</text>

          <text x="556" y="125" class="text-muted" font-size="10" font-weight="600">QUALITE PDF</text>
          <rect x="556" y="135" width="200" height="32" rx="4" fill="#F9FAFB" stroke="#E5E7EB"/>
          <text x="572" y="156" class="text-dark" font-size="11">Standard (150 DPI)</text>
          <text x="735" y="156" class="text-muted" font-size="11">▼</text>

          <text x="556" y="190" class="text-muted" font-size="10" font-weight="600">FORMAT PDF</text>
          <rect x="556" y="200" width="200" height="32" rx="4" fill="#F9FAFB" stroke="#E5E7EB"/>
          <text x="572" y="221" class="text-dark" font-size="11">PDF/A (archivage)</text>
          <text x="735" y="221" class="text-muted" font-size="11">▼</text>

          <!-- Additional recipients -->
          <rect x="0" y="300" width="1056" height="200" rx="8" fill="#FFFFFF" stroke="#E5E7EB"/>
          <text x="20" y="330" class="text-dark" font-size="13" font-weight="600">Destinataires supplementaires</text>
          <text x="900" y="330" class="text-primary" font-size="11">+ Ajouter email</text>

          <rect x="20" y="350" width="500" height="40" rx="4" fill="#F9FAFB"/>
          <text x="40" y="375" class="text-dark" font-size="11">secretariat@mondomaine.fr</text>
          <text x="350" y="375" class="text-muted" font-size="10">Recus + Envoyes</text>
          <text x="480" y="375" class="text-error" font-size="10">Suppr.</text>

          <rect x="20" y="400" width="500" height="40" rx="4" fill="#F9FAFB"/>
          <text x="40" y="425" class="text-dark" font-size="11">comptabilite@mondomaine.fr</text>
          <text x="350" y="425" class="text-muted" font-size="10">Recus uniquement</text>
          <text x="480" y="425" class="text-error" font-size="10">Suppr.</text>

          <text x="20" y="480" class="text-muted" font-size="10">Ajoutez des adresses email supplementaires pour recevoir les notifications.</text>

          <!-- Save button -->
          <rect x="900" y="520" width="156" height="36" rx="4" class="btn-primary"/>
          <text x="978" y="543" class="text-white" font-size="12" text-anchor="middle">Enregistrer</text>
        </g>
      </g>
    </g>
  </g>
</svg>
