<svg xmlns="http://www.w3.org/2000/svg" viewBox="0 0 1440 900" width="1440" height="900">
  <defs>
    <style>
      .bg-header { fill: #000E9C; }
      .bg-main { fill: #F6F6F9; }
      .bg-white { fill: #FFFFFF; }
      .bg-primary { fill: #0050D7; }
      .bg-success { fill: #DEF7EC; }
      .border { stroke: #E5E7EB; stroke-width: 1; fill: none; }
      .btn-outline { stroke: #0050D7; stroke-width: 1; fill: #FFFFFF; }
      .btn-primary { fill: #0050D7; }
      .text-white { fill: #FFFFFF; font-family: 'Source Sans Pro', sans-serif; }
      .text-dark { fill: #1F2937; font-family: 'Source Sans Pro', sans-serif; }
      .text-muted { fill: #6B7280; font-family: 'Source Sans Pro', sans-serif; }
      .text-primary { fill: #0050D7; font-family: 'Source Sans Pro', sans-serif; }
    </style>
  </defs>

  <!-- Background -->
  <rect width="1440" height="900" class="bg-main"/>

  <!-- NAV1 -->
  <rect width="1440" height="50" class="bg-header"/>
  <text x="40" y="32" class="text-white" font-size="14" opacity="0.7">Accueil</text>
  <text x="110" y="32" class="text-white" font-size="14" opacity="0.7">Public Cloud</text>
  <text x="210" y="32" class="text-white" font-size="14" opacity="0.7">Hosted Private Cloud</text>
  <text x="370" y="32" class="text-white" font-size="14" opacity="0.7">Bare Metal Cloud</text>
  <text x="510" y="32" class="text-white" font-size="14" font-weight="600">Web Cloud</text>
  <rect x="505" y="46" width="75" height="3" fill="#FFFFFF"/>
  <text x="620" y="32" class="text-white" font-size="14" opacity="0.7">Network</text>
  <text x="700" y="32" class="text-white" font-size="14" opacity="0.7">IAM / Securite</text>
  <text x="810" y="32" class="text-white" font-size="14" opacity="0.7">Licences</text>
  <rect x="1280" y="12" width="140" height="26" rx="13" fill="rgba(255,255,255,0.2)"/>
  <text x="1320" y="29" class="text-white" font-size="12">{nicHandle}</text>

  <!-- NAV2 -->
  <rect x="0" y="50" width="1440" height="40" fill="#FFFFFF"/>
  <line x1="0" y1="89" x2="1440" y2="89" stroke="#E5E7EB"/>
  <text x="40" y="75" class="text-muted" font-size="14">Accueil</text>
  <text x="110" y="75" class="text-muted" font-size="14">Domaines et DNS</text>
  <text x="240" y="75" class="text-muted" font-size="14">Hébergement</text>
  <text x="345" y="75" class="text-muted" font-size="14">Wordpress</text>
  <text x="430" y="75" class="text-muted" font-size="14">Emails</text>
  <text x="500" y="75" class="text-primary" font-size="14" font-weight="600">VoIP</text>
  <rect x="495" y="85" width="35" height="3" fill="#0050D7"/>
  <text x="550" y="75" class="text-muted" font-size="14">Accès</text>
  <text x="1350" y="75" class="text-primary" font-size="13">Guides</text>

  <!-- CONTENT AREA -->
  <g transform="translate(0, 105)">
    <g transform="translate(24, 0)">
      <!-- LEFT PANEL -->
      <rect x="0" y="0" width="280" height="765" rx="8" class="bg-white"/>
      <rect x="0" y="0" width="280" height="765" rx="8" class="border"/>
      <rect x="12" y="12" width="256" height="34" rx="4" fill="#F9FAFB" stroke="#E5E7EB"/>
      <text x="26" y="34" class="text-muted" font-size="12">Rechercher...</text>

      <g transform="translate(6, 80)">
        <rect x="0" y="0" width="268" height="65" rx="6" fill="#E8F0FE"/>
        <text x="12" y="22" class="text-dark" font-size="13" font-weight="500">📠 0033972999888</text>
        <text x="12" y="40" class="text-muted" font-size="11">Fax Bureau</text>
        <text x="12" y="56" class="text-muted" font-size="10">Fax Pro</text>
      </g>
    </g>

    <g transform="translate(320, 0)">
      <!-- RIGHT PANEL -->
      <rect x="0" y="0" width="1096" height="765" rx="8" class="bg-white"/>
      <rect x="0" y="0" width="1096" height="765" rx="8" class="border"/>

      <g transform="translate(20, 0)">
        <!-- HEADER -->
        <text x="0" y="28" class="text-dark" font-size="18" font-weight="600">0033972999888</text>
        <text x="180" y="28" class="text-muted" font-size="14">Fax Bureau / Paramètres</text>

        <!-- NAV3 TABS - Paramètres actif -->
        <g transform="translate(0, 50)">
          <rect x="0" y="0" width="60" height="26" rx="4" fill="#FFFFFF" stroke="#0050D7"/>
          <text x="30" y="17" class="text-primary" font-size="11" text-anchor="middle">Général</text>

          <rect x="64" y="0" width="75" height="26" rx="4" fill="#0050D7"/>
          <text x="101" y="17" class="text-white" font-size="11" text-anchor="middle">Paramètres</text>

          <rect x="143" y="0" width="75" height="26" rx="4" fill="#FFFFFF" stroke="#0050D7"/>
          <text x="180" y="17" class="text-primary" font-size="11" text-anchor="middle">Campagnes</text>

          <rect x="222" y="0" width="95" height="26" rx="4" fill="#FFFFFF" stroke="#0050D7"/>
          <text x="269" y="17" class="text-primary" font-size="11" text-anchor="middle">Consommation</text>

          <rect x="321" y="0" width="55" height="26" rx="4" fill="#FFFFFF" stroke="#0050D7"/>
          <text x="348" y="17" class="text-primary" font-size="11" text-anchor="middle">Filtrage</text>

          <rect x="380" y="0" width="60" height="26" rx="4" fill="#FFFFFF" stroke="#0050D7"/>
          <text x="410" y="17" class="text-primary" font-size="11" text-anchor="middle">Logo</text>

          <rect x="444" y="0" width="85" height="26" rx="4" fill="#FFFFFF" stroke="#0050D7"/>
          <text x="486" y="17" class="text-primary" font-size="11" text-anchor="middle">Notifications</text>
        </g>

        <!-- CONTENU PARAMÈTRES -->
        <g transform="translate(0, 95)">

          <!-- Section Envoi -->
          <text x="0" y="0" class="text-dark" font-size="15" font-weight="700">📤 Paramètres d'envoi</text>

          <rect x="0" y="20" width="1036" height="180" rx="6" fill="#FFFFFF" stroke="#E5E7EB"/>

          <text x="20" y="55" class="text-muted" font-size="12">Qualité d'envoi</text>
          <rect x="200" y="38" width="200" height="32" rx="4" fill="#F9FAFB" stroke="#E5E7EB"/>
          <text x="220" y="60" class="text-dark" font-size="11">Normale</text>
          <text x="370" y="60" class="text-muted" font-size="11">▼</text>

          <text x="550" y="55" class="text-muted" font-size="12">Tentatives d'envoi</text>
          <rect x="700" y="38" width="80" height="32" rx="4" fill="#F9FAFB" stroke="#E5E7EB"/>
          <text x="720" y="60" class="text-dark" font-size="11">3</text>
          <text x="760" y="60" class="text-muted" font-size="11">▼</text>

          <text x="20" y="110" class="text-muted" font-size="12">En-tête du fax</text>
          <rect x="200" y="93" width="580" height="32" rx="4" fill="#F9FAFB" stroke="#E5E7EB"/>
          <text x="220" y="115" class="text-dark" font-size="11">Mon Entreprise - 0033972999888</text>

          <text x="20" y="165" class="text-muted" font-size="12">Délai entre tentatives</text>
          <rect x="200" y="148" width="100" height="32" rx="4" fill="#F9FAFB" stroke="#E5E7EB"/>
          <text x="220" y="170" class="text-dark" font-size="11">5 min</text>
          <text x="270" y="170" class="text-muted" font-size="11">▼</text>

          <!-- Section Réception -->
          <text x="0" y="230" class="text-dark" font-size="15" font-weight="700">📥 Paramètres de réception</text>

          <rect x="0" y="250" width="1036" height="130" rx="6" fill="#FFFFFF" stroke="#E5E7EB"/>

          <text x="20" y="285" class="text-muted" font-size="12">Format des pièces jointes</text>
          <rect x="200" y="268" width="200" height="32" rx="4" fill="#F9FAFB" stroke="#E5E7EB"/>
          <text x="220" y="290" class="text-dark" font-size="11">PDF</text>
          <text x="370" y="290" class="text-muted" font-size="11">▼</text>

          <text x="550" y="285" class="text-muted" font-size="12">Taille max fichier</text>
          <rect x="700" y="268" width="100" height="32" rx="4" fill="#F9FAFB" stroke="#E5E7EB"/>
          <text x="720" y="290" class="text-dark" font-size="11">10 Mo</text>

          <text x="20" y="340" class="text-muted" font-size="12">Email de réception</text>
          <rect x="200" y="323" width="400" height="32" rx="4" fill="#F9FAFB" stroke="#E5E7EB"/>
          <text x="220" y="345" class="text-dark" font-size="11">contact@entreprise.fr</text>

          <!-- Section Sécurité -->
          <text x="0" y="410" class="text-dark" font-size="15" font-weight="700">🔐 Sécurité</text>

          <rect x="0" y="430" width="1036" height="80" rx="6" fill="#FFFFFF" stroke="#E5E7EB"/>

          <text x="20" y="465" class="text-muted" font-size="12">Mot de passe fax</text>
          <text x="200" y="465" class="text-dark" font-size="12">••••••••</text>
          <rect x="300" y="448" width="140" height="32" rx="4" class="btn-outline"/>
          <text x="370" y="469" class="text-primary" font-size="11" text-anchor="middle">Modifier</text>

          <text x="550" y="465" class="text-muted" font-size="12">Domaines autorisés</text>
          <text x="700" y="465" class="text-dark" font-size="12">entreprise.fr, *.ovh.net</text>
          <text x="900" y="465" class="text-primary" font-size="11">Gérer →</text>

          <!-- Boutons -->
          <rect x="0" y="535" width="140" height="36" rx="4" class="btn-primary"/>
          <text x="70" y="558" class="text-white" font-size="12" text-anchor="middle">Enregistrer</text>

          <rect x="160" y="535" width="100" height="36" rx="4" class="btn-outline"/>
          <text x="210" y="558" class="text-primary" font-size="12" text-anchor="middle">Annuler</text>

        </g>
      </g>
    </g>
  </g>
</svg>
