<?xml version="1.0" encoding="UTF-8"?>
<svg width="500" height="380" viewBox="0 0 500 380" fill="none" xmlns="http://www.w3.org/2000/svg">
  <title>Licence - Terminate SQL Server Licence Modal</title>
  <rect width="500" height="380" fill="black" fill-opacity="0.5"/>
  <rect x="50" y="40" width="400" height="300" rx="8" fill="white"/>
  <g transform="translate(50, 40)"><rect x="0" y="0" width="400" height="55" rx="8" fill="#FEE2E2"/><text x="25" y="35" fill="#DC2626" font-family="system-ui, sans-serif" font-size="16" font-weight="600">Résilier la licence SQL Server</text><text x="370" y="35" fill="#DC2626" font-family="system-ui, sans-serif" font-size="18" cursor="pointer">×</text></g>
  <g transform="translate(75, 115)">
    <text x="0" y="0" fill="#1F2937" font-family="system-ui, sans-serif" font-size="14">Résilier cette licence SQL Server ?</text>
    <g transform="translate(0, 25)">
      <rect x="0" y="0" width="350" height="55" rx="4" fill="#F9FAFB"/>
      <text x="15" y="22" fill="#1F2937" font-family="system-ui, sans-serif" font-size="13" font-weight="500">SQL Server 2022 Standard</text>
      <text x="15" y="42" fill="#6B7280" font-family="monospace" font-size="11">sql-11111 • 54.38.xxx.xxx</text>
    </g>
    <g transform="translate(0, 95)">
      <rect x="0" y="0" width="350" height="65" rx="4" fill="#FEE2E2"/>
      <text x="15" y="20" fill="#DC2626" font-family="system-ui, sans-serif" font-size="11">⚠️ ATTENTION : Licence Microsoft</text>
      <text x="15" y="38" fill="#DC2626" font-family="system-ui, sans-serif" font-size="11">La clé de produit sera révoquée immédiatement.</text>
      <text x="15" y="54" fill="#DC2626" font-family="system-ui, sans-serif" font-size="11">Vos bases de données resteront accessibles en lecture.</text>
    </g>
  </g>
  <g transform="translate(75, 305)"><rect x="0" y="0" width="100" height="36" rx="4" fill="white" stroke="#E5E7EB"/><text x="25" y="24" fill="#6B7280" font-family="system-ui, sans-serif" font-size="13">Annuler</text><rect x="250" y="0" width="100" height="36" rx="4" fill="#DC2626"/><text x="275" y="24" fill="white" font-family="system-ui, sans-serif" font-size="13">Résilier</text></g>
</svg>
