<svg xmlns="http://www.w3.org/2000/svg" viewBox="0 0 1440 900" width="1440" height="900">
  <defs>
    <style>
      .bg-header { fill: #000E9C; }
      .bg-main { fill: #F6F6F9; }
      .bg-white { fill: #FFFFFF; }
      .bg-primary { fill: #0050D7; }
      .border { stroke: #E5E7EB; stroke-width: 1; fill: none; }
      .btn-outline { stroke: #0050D7; stroke-width: 1; fill: #FFFFFF; }
      .row-selected { fill: #E8F0FE; }
      .table-header { fill: #F9FAFB; }
      .text-white { fill: #FFFFFF; font-family: 'Source Sans Pro', sans-serif; }
      .text-dark { fill: #1F2937; font-family: 'Source Sans Pro', sans-serif; }
      .text-muted { fill: #6B7280; font-family: 'Source Sans Pro', sans-serif; }
      .text-primary { fill: #0050D7; font-family: 'Source Sans Pro', sans-serif; }
    </style>
  </defs>

  <rect width="1440" height="900" class="bg-main"/>

  <!-- NAV1 -->
  <rect width="1440" height="50" class="bg-header"/>
  <text x="510" y="32" class="text-white" font-size="14" font-weight="600">Web Cloud</text>
  <rect x="505" y="46" width="75" height="3" fill="#FFFFFF"/>

  <!-- NAV2 -->
  <rect x="0" y="50" width="1440" height="40" class="bg-white"/>
  <line x1="0" y1="89" x2="1440" y2="89" stroke="#E5E7EB"/>
  <text x="240" y="75" class="text-primary" font-size="14" font-weight="600">Hebergement</text>
  <rect x="235" y="85" width="85" height="3" fill="#0050D7"/>

  <!-- CONTENT -->
  <g transform="translate(0, 105)">
    <g transform="translate(24, 0)">
      <!-- LEFT PANEL -->
      <rect x="0" y="0" width="280" height="765" rx="8" class="bg-white"/>
      <rect x="0" y="0" width="280" height="765" rx="8" class="border"/>
      <rect x="6" y="80" width="268" height="56" rx="6" class="row-selected"/>
      <text x="52" y="100" class="text-dark" font-size="13" font-weight="500">mywebsite.com</text>
      <text x="52" y="116" class="text-muted" font-size="11">Performance 1</text>
    </g>
    <g transform="translate(320, 0)">
      <!-- RIGHT PANEL -->
      <rect x="0" y="0" width="1096" height="765" rx="8" class="bg-white"/>
      <rect x="0" y="0" width="1096" height="765" rx="8" class="border"/>
      <g transform="translate(20, 0)">
        <text x="0" y="24" class="text-dark" font-size="18" font-weight="600">mywebsite.com</text>
        <!-- NAV3 TABS - Cron actif -->
        <g transform="translate(0, 38)">
          <rect x="0" y="0" width="50" height="26" rx="4" class="btn-outline"/>
          <text x="25" y="17" class="text-primary" font-size="11" text-anchor="middle">Home</text>
          <rect x="54" y="0" width="70" height="26" rx="4" class="btn-outline"/>
          <text x="89" y="17" class="text-primary" font-size="11" text-anchor="middle">Multisite</text>
          <rect x="690" y="0" width="45" height="26" rx="4" class="bg-primary"/>
          <text x="712" y="17" class="text-white" font-size="11" text-anchor="middle">Cron</text>
        </g>
        <!-- TOOLBAR -->
        <g transform="translate(0, 80)">
          <rect x="0" y="0" width="170" height="32" rx="4" class="bg-primary"/>
          <text x="85" y="21" class="text-white" font-size="11" text-anchor="middle">+ Ajouter planification</text>
        </g>
        <!-- TABLE -->
        <g transform="translate(0, 130)">
          <rect x="0" y="0" width="1056" height="350" rx="8" class="bg-white"/>
          <rect x="0" y="0" width="1056" height="350" rx="8" class="border"/>
          <!-- Header -->
          <rect x="0" y="0" width="1056" height="40" rx="8" class="table-header"/>
          <text x="20" y="26" class="text-dark" font-size="11" font-weight="600">Commande</text>
          <text x="220" y="26" class="text-dark" font-size="11" font-weight="600">Langage</text>
          <text x="320" y="26" class="text-dark" font-size="11" font-weight="600">Frequence</text>
          <text x="450" y="26" class="text-dark" font-size="11" font-weight="600">E-mail</text>
          <text x="650" y="26" class="text-dark" font-size="11" font-weight="600">Etat</text>
          <text x="780" y="26" class="text-dark" font-size="11" font-weight="600">Description</text>
          <text x="1000" y="26" class="text-dark" font-size="11" font-weight="600"></text>
          <!-- Row 1 -->
          <rect x="0" y="40" width="1056" height="45" fill="#FFFFFF"/>
          <line x1="0" y1="85" x2="1056" y2="85" stroke="#E5E7EB"/>
          <text x="20" y="68" class="text-dark" font-size="11" font-family="monospace">cron/backup.php</text>
          <text x="220" y="68" class="text-muted" font-size="11">PHP 8.2</text>
          <text x="320" y="68" class="text-muted" font-size="11">0 2 * * *</text>
          <text x="450" y="68" class="text-muted" font-size="11">admin@mywebsite.com</text>
          <rect x="640" y="55" width="46" height="18" rx="9" fill="#DEF7EC"/>
          <text x="663" y="68" fill="#03543F" font-size="10" text-anchor="middle">Actif</text>
          <text x="780" y="68" class="text-muted" font-size="11">Backup quotidien</text>
          <text x="1000" y="68" class="text-muted" font-size="16">...</text>
          <!-- Row 2 -->
          <rect x="0" y="85" width="1056" height="45" fill="#FFFFFF"/>
          <line x1="0" y1="130" x2="1056" y2="130" stroke="#E5E7EB"/>
          <text x="20" y="113" class="text-dark" font-size="11" font-family="monospace">scripts/cleanup.php</text>
          <text x="220" y="113" class="text-muted" font-size="11">PHP 8.2</text>
          <text x="320" y="113" class="text-muted" font-size="11">*/15 * * * *</text>
          <text x="450" y="113" class="text-muted" font-size="11">Non</text>
          <rect x="640" y="100" width="46" height="18" rx="9" fill="#DEF7EC"/>
          <text x="663" y="113" fill="#03543F" font-size="10" text-anchor="middle">Actif</text>
          <text x="780" y="113" class="text-muted" font-size="11">Nettoyage cache</text>
          <text x="1000" y="113" class="text-muted" font-size="16">...</text>
          <!-- Row 3 -->
          <rect x="0" y="130" width="1056" height="45" fill="#FFFFFF"/>
          <line x1="0" y1="175" x2="1056" y2="175" stroke="#E5E7EB"/>
          <text x="20" y="158" class="text-dark" font-size="11" font-family="monospace">cron/newsletter.php</text>
          <text x="220" y="158" class="text-muted" font-size="11">PHP 8.2</text>
          <text x="320" y="158" class="text-muted" font-size="11">0 8 * * 1</text>
          <text x="450" y="158" class="text-muted" font-size="11">marketing@mywebsite.com</text>
          <rect x="640" y="145" width="60" height="18" rx="9" fill="#F3F4F6"/>
          <text x="670" y="158" fill="#6B7280" font-size="10" text-anchor="middle">Inactif</text>
          <text x="780" y="158" class="text-muted" font-size="11">Newsletter hebdo</text>
          <text x="1000" y="158" class="text-muted" font-size="16">...</text>
          <!-- Row 4 -->
          <rect x="0" y="175" width="1056" height="45" fill="#FFFFFF"/>
          <line x1="0" y1="220" x2="1056" y2="220" stroke="#E5E7EB"/>
          <text x="20" y="203" class="text-dark" font-size="11" font-family="monospace">bin/sitemap.sh</text>
          <text x="220" y="203" class="text-muted" font-size="11">Autre</text>
          <text x="320" y="203" class="text-muted" font-size="11">0 4 * * *</text>
          <text x="450" y="203" class="text-muted" font-size="11">Non</text>
          <rect x="640" y="190" width="46" height="18" rx="9" fill="#DEF7EC"/>
          <text x="663" y="203" fill="#03543F" font-size="10" text-anchor="middle">Actif</text>
          <text x="780" y="203" class="text-muted" font-size="11">Generation sitemap</text>
          <text x="1000" y="203" class="text-muted" font-size="16">...</text>
        </g>
        <!-- HELP LINK -->
        <g transform="translate(0, 510)">
          <text x="0" y="0" class="text-primary" font-size="11">Besoin d'aide pour configurer vos taches planifiees ?</text>
          <text x="0" y="20" class="text-muted" font-size="11">Consultez nos guides en ligne.</text>
        </g>
      </g>
    </g>
  </g>
</svg>
