<svg xmlns="http://www.w3.org/2000/svg" viewBox="0 0 1440 900" width="1440" height="900">
  <defs>
    <style>
      .bg-white { fill: #FFFFFF; }
      .bg-muted { fill: #F9FAFB; }
      .bg-header { fill: #000E9C; }
      .bg-sidebar { fill: #1E3A5F; }
      .text-heading { font-family: 'Source Sans Pro', sans-serif; font-size: 28px; font-weight: 600; fill: #1F2937; }
      .text-subheading { font-family: 'Source Sans Pro', sans-serif; font-size: 16px; font-weight: 600; fill: #1F2937; }
      .text-body { font-family: 'Source Sans Pro', sans-serif; font-size: 14px; fill: #1F2937; }
      .text-muted { font-family: 'Source Sans Pro', sans-serif; font-size: 14px; fill: #6B7280; }
      .text-white { font-family: 'Source Sans Pro', sans-serif; font-size: 14px; fill: #FFFFFF; }
      .text-link { font-family: 'Source Sans Pro', sans-serif; font-size: 14px; fill: #0050D7; }
      .text-sidebar { font-family: 'Source Sans Pro', sans-serif; font-size: 13px; fill: #94A3B8; }
      .text-sidebar-active { font-family: 'Source Sans Pro', sans-serif; font-size: 13px; fill: #FFFFFF; }
      .border { stroke: #E5E7EB; stroke-width: 1; fill: none; }
      .card { fill: #FFFFFF; }
      .table-header { fill: #F9FAFB; }
      .table-row-hover { fill: #F3F4F6; }
      .btn-primary { fill: #0050D7; }
      .btn-text { font-family: 'Source Sans Pro', sans-serif; font-size: 14px; font-weight: 600; fill: #FFFFFF; }
      .badge-system { fill: #E0E7FF; }
      .badge-system-text { font-family: 'Source Sans Pro', sans-serif; font-size: 11px; fill: #4338CA; }
      .badge-custom { fill: #DEF7EC; }
      .badge-custom-text { font-family: 'Source Sans Pro', sans-serif; font-size: 11px; fill: #03543F; }
      .badge-count { fill: #F3F4F6; }
      .badge-count-text { font-family: 'Source Sans Pro', sans-serif; font-size: 11px; fill: #374151; }
    </style>
  </defs>
  
  <!-- Background -->
  <rect width="1440" height="900" class="bg-muted"/>
  
  <!-- Header OVHcloud -->
  <rect width="1440" height="60" class="bg-header"/>
  <text x="24" y="38" class="text-white" style="font-size: 20px; font-weight: 700;">OVHcloud</text>
  
  <!-- Sidebar -->
  <rect x="0" y="60" width="240" height="840" class="bg-sidebar"/>
  
  <!-- Sidebar navigation -->
  <g transform="translate(16, 80)">
    <text x="0" y="0" class="text-sidebar">Accueil</text>
    <text x="0" y="35" class="text-sidebar">Bare Metal Cloud</text>
    <text x="0" y="70" class="text-sidebar">Hosted Private Cloud</text>
    <text x="0" y="105" class="text-sidebar">Public Cloud</text>
    <text x="0" y="140" class="text-sidebar">Web Cloud</text>
    <rect x="-16" y="160" width="240" height="32" fill="#2D4A6F"/>
    <text x="0" y="182" class="text-sidebar-active" style="font-weight: 600;">Gestion des identités (IAM)</text>
  </g>
  
  <!-- Breadcrumb -->
  <g transform="translate(280, 85)">
    <text x="0" y="0" class="text-muted">Accueil</text>
    <text x="50" y="0" class="text-muted">/</text>
    <text x="65" y="0" class="text-muted">IAM</text>
    <text x="95" y="0" class="text-muted">/</text>
    <text x="110" y="0" class="text-body">Politiques</text>
  </g>
  
  <!-- Main content -->
  <g transform="translate(280, 120)">
    <!-- Title + Add button -->
    <text x="0" y="0" class="text-heading">Politiques</text>
    <rect x="950" y="-25" width="160" height="40" rx="4" class="btn-primary"/>
    <text x="1030" y="0" text-anchor="middle" class="btn-text">+ Créer une politique</text>
    
    <!-- Card container -->
    <g transform="translate(0, 40)">
      <rect x="0" y="0" width="1120" height="650" rx="8" class="card"/>
      <rect x="0" y="0" width="1120" height="650" rx="8" class="border"/>
      
      <!-- Search and filters -->
      <g transform="translate(24, 16)">
        <rect x="0" y="0" width="300" height="36" rx="4" stroke="#D1D5DB" stroke-width="1" fill="#FFFFFF"/>
        <text x="16" y="23" class="text-muted" style="font-size: 13px;">🔍 Rechercher une politique...</text>
        
        <rect x="320" y="0" width="140" height="36" rx="4" stroke="#D1D5DB" stroke-width="1" fill="#FFFFFF"/>
        <text x="336" y="23" class="text-body" style="font-size: 13px;">Type: Tous</text>
        <path d="M440 15 L448 23 L456 15" stroke="#6B7280" stroke-width="2" fill="none"/>
      </g>
      
      <!-- Table header -->
      <g transform="translate(0, 68)">
        <rect x="0" y="0" width="1120" height="44" fill="#F9FAFB"/>
        <text x="24" y="28" class="text-subheading" style="font-size: 13px;">Nom de la politique</text>
        <text x="350" y="28" class="text-subheading" style="font-size: 13px;">Type</text>
        <text x="480" y="28" class="text-subheading" style="font-size: 13px;">Description</text>
        <text x="800" y="28" class="text-subheading" style="font-size: 13px;">Identités</text>
        <text x="920" y="28" class="text-subheading" style="font-size: 13px;">Créé le</text>
        <text x="1070" y="28" class="text-subheading" style="font-size: 13px;">⋮</text>
      </g>
      
      <!-- Table rows -->
      <!-- Row 1 - System policy -->
      <g transform="translate(0, 112)">
        <rect x="0" y="0" width="1120" height="56" fill="#FFFFFF"/>
        <rect x="0" y="55" width="1120" height="1" fill="#E5E7EB"/>
        <text x="24" y="33" class="text-link" style="font-weight: 500;">admin-full-access</text>
        <rect x="350" y="18" width="70" height="22" rx="4" class="badge-system"/>
        <text x="385" y="33" text-anchor="middle" class="badge-system-text">Système</text>
        <text x="480" y="33" class="text-muted">Accès complet à toutes les ressources</text>
        <rect x="800" y="18" width="36" height="22" rx="4" class="badge-count"/>
        <text x="818" y="33" text-anchor="middle" class="badge-count-text">2</text>
        <text x="920" y="33" class="text-muted">-</text>
        <text x="1070" y="33" class="text-body">⋮</text>
      </g>
      
      <!-- Row 2 - Custom policy (hover) -->
      <g transform="translate(0, 168)">
        <rect x="0" y="0" width="1120" height="56" class="table-row-hover"/>
        <rect x="0" y="55" width="1120" height="1" fill="#E5E7EB"/>
        <text x="24" y="33" class="text-link" style="font-weight: 500;">compute-admin</text>
        <rect x="350" y="18" width="80" height="22" rx="4" class="badge-custom"/>
        <text x="390" y="33" text-anchor="middle" class="badge-custom-text">Personnalisé</text>
        <text x="480" y="33" class="text-muted">Administration des instances compute</text>
        <rect x="800" y="18" width="36" height="22" rx="4" class="badge-count"/>
        <text x="818" y="33" text-anchor="middle" class="badge-count-text">5</text>
        <text x="920" y="33" class="text-muted">15 déc. 2025</text>
        <text x="1070" y="33" class="text-body">⋮</text>
      </g>
      
      <!-- Row 3 -->
      <g transform="translate(0, 224)">
        <rect x="0" y="0" width="1120" height="56" fill="#FFFFFF"/>
        <rect x="0" y="55" width="1120" height="1" fill="#E5E7EB"/>
        <text x="24" y="33" class="text-link" style="font-weight: 500;">storage-read-only</text>
        <rect x="350" y="18" width="80" height="22" rx="4" class="badge-custom"/>
        <text x="390" y="33" text-anchor="middle" class="badge-custom-text">Personnalisé</text>
        <text x="480" y="33" class="text-muted">Lecture seule sur le stockage objet</text>
        <rect x="800" y="18" width="36" height="22" rx="4" class="badge-count"/>
        <text x="818" y="33" text-anchor="middle" class="badge-count-text">8</text>
        <text x="920" y="33" class="text-muted">10 déc. 2025</text>
        <text x="1070" y="33" class="text-body">⋮</text>
      </g>
      
      <!-- Row 4 -->
      <g transform="translate(0, 280)">
        <rect x="0" y="0" width="1120" height="56" fill="#FFFFFF"/>
        <rect x="0" y="55" width="1120" height="1" fill="#E5E7EB"/>
        <text x="24" y="33" class="text-link" style="font-weight: 500;">billing-viewer</text>
        <rect x="350" y="18" width="70" height="22" rx="4" class="badge-system"/>
        <text x="385" y="33" text-anchor="middle" class="badge-system-text">Système</text>
        <text x="480" y="33" class="text-muted">Consultation des factures et paiements</text>
        <rect x="800" y="18" width="36" height="22" rx="4" class="badge-count"/>
        <text x="818" y="33" text-anchor="middle" class="badge-count-text">3</text>
        <text x="920" y="33" class="text-muted">-</text>
        <text x="1070" y="33" class="text-body">⋮</text>
      </g>
      
      <!-- Row 5 -->
      <g transform="translate(0, 336)">
        <rect x="0" y="0" width="1120" height="56" fill="#FFFFFF"/>
        <rect x="0" y="55" width="1120" height="1" fill="#E5E7EB"/>
        <text x="24" y="33" class="text-link" style="font-weight: 500;">network-manager</text>
        <rect x="350" y="18" width="80" height="22" rx="4" class="badge-custom"/>
        <text x="390" y="33" text-anchor="middle" class="badge-custom-text">Personnalisé</text>
        <text x="480" y="33" class="text-muted">Gestion des réseaux et vRack</text>
        <rect x="800" y="18" width="36" height="22" rx="4" class="badge-count"/>
        <text x="818" y="33" text-anchor="middle" class="badge-count-text">4</text>
        <text x="920" y="33" class="text-muted">5 déc. 2025</text>
        <text x="1070" y="33" class="text-body">⋮</text>
      </g>
      
      <!-- Pagination -->
      <g transform="translate(24, 600)">
        <text x="0" y="0" class="text-muted" style="font-size: 13px;">Affichés 1 - 5 sur 12 politiques</text>
        
        <!-- Pagination controls -->
        <g transform="translate(950, -12)">
          <rect x="0" y="0" width="32" height="32" rx="4" stroke="#D1D5DB" stroke-width="1" fill="#FFFFFF"/>
          <text x="16" y="21" text-anchor="middle" class="text-muted">‹</text>
          <rect x="40" y="0" width="32" height="32" rx="4" fill="#0050D7"/>
          <text x="56" y="21" text-anchor="middle" class="text-white">1</text>
          <rect x="80" y="0" width="32" height="32" rx="4" stroke="#D1D5DB" stroke-width="1" fill="#FFFFFF"/>
          <text x="96" y="21" text-anchor="middle" class="text-body">2</text>
          <rect x="120" y="0" width="32" height="32" rx="4" stroke="#D1D5DB" stroke-width="1" fill="#FFFFFF"/>
          <text x="136" y="21" text-anchor="middle" class="text-body">3</text>
          <rect x="160" y="0" width="32" height="32" rx="4" stroke="#D1D5DB" stroke-width="1" fill="#FFFFFF"/>
          <text x="176" y="21" text-anchor="middle" class="text-muted">›</text>
        </g>
      </g>
    </g>
  </g>
</svg>
