<?xml version="1.0" encoding="UTF-8"?>
<svg width="1100" height="500" viewBox="0 0 1100 500" fill="none" xmlns="http://www.w3.org/2000/svg">
  <title>IAM - Service Accounts</title>
  <rect width="1100" height="500" fill="#F9FAFB"/>
  <g transform="translate(30, 30)"><text x="0" y="0" fill="#1F2937" font-family="system-ui, sans-serif" font-size="22" font-weight="600">Comptes de service</text><text x="0" y="30" fill="#6B7280" font-family="system-ui, sans-serif" font-size="13">Identités pour les applications et automatisations.</text></g>
  <g transform="translate(30, 90)"><rect x="0" y="0" width="200" height="40" rx="4" fill="#0050D7"/><text x="25" y="26" fill="white" font-family="system-ui, sans-serif" font-size="13">+ Créer compte de service</text></g>
  <g transform="translate(30, 160)">
    <rect x="0" y="0" width="1040" height="300" rx="8" fill="white" stroke="#E5E7EB"/>
    <g transform="translate(0, 0)"><rect x="0" y="0" width="1040" height="45" rx="8" fill="#F9FAFB"/><text x="20" y="28" fill="#6B7280" font-family="system-ui, sans-serif" font-size="12" font-weight="500">Nom</text><text x="220" y="28" fill="#6B7280" font-family="system-ui, sans-serif" font-size="12" font-weight="500">ID</text><text x="420" y="28" fill="#6B7280" font-family="system-ui, sans-serif" font-size="12" font-weight="500">Politiques</text><text x="600" y="28" fill="#6B7280" font-family="system-ui, sans-serif" font-size="12" font-weight="500">Dernière utilisation</text><text x="780" y="28" fill="#6B7280" font-family="system-ui, sans-serif" font-size="12" font-weight="500">Créé le</text><text x="910" y="28" fill="#6B7280" font-family="system-ui, sans-serif" font-size="12" font-weight="500">État</text><text x="1000" y="28" fill="#6B7280" font-family="system-ui, sans-serif" font-size="12" font-weight="500">⋮</text></g>
    <g transform="translate(0, 50)"><line x1="0" y1="0" x2="1040" y2="0" stroke="#E5E7EB"/><g transform="translate(20, 10)"><rect x="0" y="0" width="32" height="32" rx="6" fill="#0050D7"/><text x="16" y="21" fill="white" font-family="system-ui, sans-serif" font-size="14" text-anchor="middle">🤖</text></g><text x="60" y="30" fill="#1F2937" font-family="system-ui, sans-serif" font-size="13" font-weight="500">terraform-prod</text><text x="220" y="30" fill="#1F2937" font-family="monospace" font-size="11">sa-abc123def456</text><text x="420" y="30" fill="#1F2937" font-family="system-ui, sans-serif" font-size="13">3 politiques</text><text x="600" y="30" fill="#1F2937" font-family="system-ui, sans-serif" font-size="13">29/12/2024 15:00</text><text x="780" y="30" fill="#1F2937" font-family="system-ui, sans-serif" font-size="13">01/10/2024</text><g transform="translate(910, 13)"><circle cx="6" cy="6" r="6" fill="#16A34A"/><text x="18" y="10" fill="#16A34A" font-family="system-ui, sans-serif" font-size="11">Actif</text></g><g transform="translate(990, 10)"><rect x="0" y="0" width="30" height="30" rx="4" fill="#F9FAFB" stroke="#E5E7EB"/><text x="11" y="22" fill="#6B7280" font-family="system-ui, sans-serif" font-size="14">⋮</text></g></g>
    <g transform="translate(0, 110)"><line x1="0" y1="0" x2="1040" y2="0" stroke="#E5E7EB"/><g transform="translate(20, 10)"><rect x="0" y="0" width="32" height="32" rx="6" fill="#7C3AED"/><text x="16" y="21" fill="white" font-family="system-ui, sans-serif" font-size="14" text-anchor="middle">🤖</text></g><text x="60" y="30" fill="#1F2937" font-family="system-ui, sans-serif" font-size="13" font-weight="500">github-actions</text><text x="220" y="30" fill="#1F2937" font-family="monospace" font-size="11">sa-xyz789ghi012</text><text x="420" y="30" fill="#1F2937" font-family="system-ui, sans-serif" font-size="13">2 politiques</text><text x="600" y="30" fill="#1F2937" font-family="system-ui, sans-serif" font-size="13">29/12/2024 14:30</text><text x="780" y="30" fill="#1F2937" font-family="system-ui, sans-serif" font-size="13">15/11/2024</text><g transform="translate(910, 13)"><circle cx="6" cy="6" r="6" fill="#16A34A"/><text x="18" y="10" fill="#16A34A" font-family="system-ui, sans-serif" font-size="11">Actif</text></g><g transform="translate(990, 10)"><rect x="0" y="0" width="30" height="30" rx="4" fill="#F9FAFB" stroke="#E5E7EB"/><text x="11" y="22" fill="#6B7280" font-family="system-ui, sans-serif" font-size="14">⋮</text></g></g>
    <g transform="translate(0, 170)"><line x1="0" y1="0" x2="1040" y2="0" stroke="#E5E7EB"/><g transform="translate(20, 10)"><rect x="0" y="0" width="32" height="32" rx="6" fill="#F59E0B"/><text x="16" y="21" fill="white" font-family="system-ui, sans-serif" font-size="14" text-anchor="middle">🤖</text></g><text x="60" y="30" fill="#1F2937" font-family="system-ui, sans-serif" font-size="13" font-weight="500">monitoring-agent</text><text x="220" y="30" fill="#1F2937" font-family="monospace" font-size="11">sa-mon456jkl789</text><text x="420" y="30" fill="#1F2937" font-family="system-ui, sans-serif" font-size="13">1 politique</text><text x="600" y="30" fill="#1F2937" font-family="system-ui, sans-serif" font-size="13">29/12/2024 15:45</text><text x="780" y="30" fill="#1F2937" font-family="system-ui, sans-serif" font-size="13">20/09/2024</text><g transform="translate(910, 13)"><circle cx="6" cy="6" r="6" fill="#16A34A"/><text x="18" y="10" fill="#16A34A" font-family="system-ui, sans-serif" font-size="11">Actif</text></g><g transform="translate(990, 10)"><rect x="0" y="0" width="30" height="30" rx="4" fill="#F9FAFB" stroke="#E5E7EB"/><text x="11" y="22" fill="#6B7280" font-family="system-ui, sans-serif" font-size="14">⋮</text></g></g>
  </g>
</svg>
