<svg xmlns="http://www.w3.org/2000/svg" viewBox="0 0 1440 900" width="1440" height="900">
  <defs>
    <style>
      .bg-header { fill: #000E9C; }
      .bg-sidebar { fill: #FFFFFF; }
      .bg-muted { fill: #F9FAFB; }
      .bg-white { fill: #FFFFFF; }
      .bg-primary { fill: #0050D7; }
      .bg-primary-light { fill: #E8F0FE; }
      .bg-neutral-100 { fill: #F3F4F6; }
      .bg-success { fill: #DEF7EC; }
      .bg-info { fill: #DBEAFE; }
      .bg-error { fill: #FEE2E2; }
      .border { stroke: #E5E7EB; stroke-width: 1; fill: none; }
      .text-white { fill: #FFFFFF; font-family: 'Source Sans Pro', sans-serif; }
      .text-body { fill: #1F2937; font-family: 'Source Sans Pro', sans-serif; font-size: 14px; }
      .text-muted { fill: #6B7280; font-family: 'Source Sans Pro', sans-serif; font-size: 14px; }
      .text-primary { fill: #0050D7; font-family: 'Source Sans Pro', sans-serif; font-size: 14px; }
      .text-title { fill: #1F2937; font-family: 'Source Sans Pro', sans-serif; font-size: 24px; font-weight: 600; }
      .text-subtitle { fill: #1F2937; font-family: 'Source Sans Pro', sans-serif; font-size: 16px; font-weight: 600; }
      .text-small { fill: #6B7280; font-family: 'Source Sans Pro', sans-serif; font-size: 12px; }
      .text-success { fill: #03543F; font-family: 'Source Sans Pro', sans-serif; font-size: 12px; }
      .text-info { fill: #1E40AF; font-family: 'Source Sans Pro', sans-serif; font-size: 12px; }
      .text-error { fill: #991B1B; font-family: 'Source Sans Pro', sans-serif; font-size: 12px; }
    </style>
  </defs>
  
  <!-- Background -->
  <rect width="1440" height="900" class="bg-muted"/>
  
  <!-- Header -->
  <rect width="1440" height="60" class="bg-header"/>
  <text x="80" y="38" class="text-white" font-size="18" font-weight="600">OVHcloud</text>
  
  <!-- Sidebar -->
  <rect x="0" y="60" width="240" height="840" class="bg-sidebar"/>
  <rect x="0" y="60" width="240" height="840" class="border"/>
  <text x="20" y="100" class="text-muted" font-size="12">EMAILS</text>
  <rect x="0" y="190" width="240" height="40" class="bg-primary-light"/>
  <rect x="0" y="190" width="4" height="40" class="bg-primary"/>
  <text x="50" y="215" class="text-primary" font-weight="600">MX Plan</text>
  
  <!-- Main Content -->
  <g transform="translate(280, 100)">
    <!-- Breadcrumb -->
    <text x="0" y="0" class="text-muted" font-size="13">Web Cloud › Emails › MX Plan › mondomaine.fr</text>
    
    <!-- Title -->
    <text x="0" y="50" class="text-title">MX Plan - mondomaine.fr</text>
    
    <!-- Service Card -->
    <rect x="0" y="80" width="1100" height="100" rx="8" class="bg-white"/>
    <rect x="0" y="80" width="1100" height="100" rx="8" class="border"/>
    <text x="30" y="115" class="text-subtitle">mondomaine.fr</text>
    <text x="30" y="145" class="text-muted">Offre: MX Plan (inclus avec hébergement)</text>
    
    <!-- Tabs -->
    <rect x="0" y="210" width="1100" height="50" class="bg-white"/>
    <rect x="0" y="210" width="1100" height="50" class="border"/>
    
    <text x="30" y="242" class="text-muted">Comptes email</text>
    <text x="170" y="242" class="text-muted">Redirections</text>
    <text x="300" y="242" class="text-muted">Listes de diffusion</text>
    <text x="460" y="242" class="text-muted">Filtres</text>
    <text x="540" y="242" class="text-muted">Répondeurs</text>
    <text x="660" y="242" class="text-primary" font-weight="600">Tâches</text>
    <rect x="660" y="255" width="50" height="3" class="bg-primary"/>
    
    <!-- Table Header -->
    <rect x="0" y="280" width="1100" height="50" class="bg-neutral-100"/>
    <rect x="0" y="280" width="1100" height="50" class="border"/>
    
    <text x="30" y="310" class="text-body" font-weight="600">ID</text>
    <text x="150" y="310" class="text-body" font-weight="600">Type d'opération</text>
    <text x="400" y="310" class="text-body" font-weight="600">Détail</text>
    <text x="650" y="310" class="text-body" font-weight="600">Date</text>
    <text x="850" y="310" class="text-body" font-weight="600">Statut</text>
    <text x="1000" y="310" class="text-body" font-weight="600">Actions</text>
    
    <!-- Row 1 -->
    <rect x="0" y="330" width="1100" height="60" class="bg-white"/>
    <rect x="0" y="330" width="1100" height="60" class="border"/>
    <text x="30" y="365" class="text-body">#12458</text>
    <text x="150" y="365" class="text-body">Création compte</text>
    <text x="400" y="365" class="text-body">nouveau@mondomaine.fr</text>
    <text x="650" y="365" class="text-body">28/12/2024 15:30</text>
    <rect x="850" y="350" width="80" height="24" rx="12" class="bg-success"/>
    <text x="865" y="367" class="text-success">Terminée</text>
    <text x="1015" y="365" class="text-primary">Voir</text>
    
    <!-- Row 2 -->
    <rect x="0" y="390" width="1100" height="60" class="bg-white"/>
    <rect x="0" y="390" width="1100" height="60" class="border"/>
    <text x="30" y="425" class="text-body">#12457</text>
    <text x="150" y="425" class="text-body">Modification quota</text>
    <text x="400" y="425" class="text-body">contact@mondomaine.fr (5Go → 10Go)</text>
    <text x="650" y="425" class="text-body">28/12/2024 14:15</text>
    <rect x="850" y="410" width="80" height="24" rx="12" class="bg-info"/>
    <text x="865" y="427" class="text-info">En cours</text>
    <text x="1015" y="425" class="text-primary">Voir</text>
    
    <!-- Row 3 -->
    <rect x="0" y="450" width="1100" height="60" class="bg-white"/>
    <rect x="0" y="450" width="1100" height="60" class="border"/>
    <text x="30" y="485" class="text-body">#12456</text>
    <text x="150" y="485" class="text-body">Suppression compte</text>
    <text x="400" y="485" class="text-body">ancien@mondomaine.fr</text>
    <text x="650" y="485" class="text-body">27/12/2024 10:00</text>
    <rect x="850" y="470" width="80" height="24" rx="12" class="bg-success"/>
    <text x="865" y="487" class="text-success">Terminée</text>
    <text x="1015" y="485" class="text-primary">Voir</text>
    
    <!-- Row 4 -->
    <rect x="0" y="510" width="1100" height="60" class="bg-white"/>
    <rect x="0" y="510" width="1100" height="60" class="border"/>
    <text x="30" y="545" class="text-body">#12455</text>
    <text x="150" y="545" class="text-body">Création redirection</text>
    <text x="400" y="545" class="text-body">support → external@help.com</text>
    <text x="650" y="545" class="text-body">26/12/2024 16:45</text>
    <rect x="850" y="530" width="80" height="24" rx="12" class="bg-error"/>
    <text x="865" y="547" class="text-error">Erreur</text>
    <text x="1015" y="545" class="text-primary">Voir</text>
    
    <!-- Pagination -->
    <text x="0" y="610" class="text-muted">Affichage 1-4 sur 15 tâches</text>
  </g>
</svg>
