<?xml version="1.0" encoding="UTF-8"?>
<svg width="1100" height="550" viewBox="0 0 1100 550" fill="none" xmlns="http://www.w3.org/2000/svg">
  <title>Web Cloud - SSL Certificate Detail</title>
  <rect width="1100" height="550" fill="#F9FAFB"/>
  <g transform="translate(30, 30)">
    <text x="0" y="0" fill="#6B7280" font-family="system-ui, sans-serif" font-size="12">← Retour aux certificats SSL</text>
  </g>
  <g transform="translate(30, 60)">
    <text x="0" y="0" fill="#1F2937" font-family="system-ui, sans-serif" font-size="22" font-weight="600">🔒 example.com</text>
    <rect x="200" y="-10" width="40" height="22" rx="4" fill="#DCFCE7"/><text x="212" y="6" fill="#16A34A" font-family="system-ui, sans-serif" font-size="10">DV</text>
    <rect x="250" y="-10" width="85" height="22" rx="4" fill="#DCFCE7"/><text x="260" y="6" fill="#16A34A" font-family="system-ui, sans-serif" font-size="10">Let's Encrypt</text>
  </g>
  <g transform="translate(850, 55)">
    <rect x="0" y="0" width="100" height="36" rx="4" fill="white" stroke="#E5E7EB"/><text x="20" y="24" fill="#6B7280" font-family="system-ui, sans-serif" font-size="12">Révoquer</text>
    <rect x="110" y="0" width="110" height="36" rx="4" fill="#0050D7"/><text x="125" y="24" fill="white" font-family="system-ui, sans-serif" font-size="12">Régénérer</text>
  </g>
  <g transform="translate(30, 110)">
    <rect x="0" y="0" width="520" height="220" rx="8" fill="white" stroke="#E5E7EB"/>
    <text x="20" y="30" fill="#1F2937" font-family="system-ui, sans-serif" font-size="14" font-weight="600">Informations du certificat</text>
    <g transform="translate(20, 60)">
      <text x="0" y="0" fill="#6B7280" font-family="system-ui, sans-serif" font-size="11">Domaine principal</text>
      <text x="0" y="18" fill="#1F2937" font-family="system-ui, sans-serif" font-size="13">example.com</text>
    </g>
    <g transform="translate(250, 60)">
      <text x="0" y="0" fill="#6B7280" font-family="system-ui, sans-serif" font-size="11">Type</text>
      <text x="0" y="18" fill="#1F2937" font-family="system-ui, sans-serif" font-size="13">Domain Validation (DV)</text>
    </g>
    <g transform="translate(20, 110)">
      <text x="0" y="0" fill="#6B7280" font-family="system-ui, sans-serif" font-size="11">Date d'émission</text>
      <text x="0" y="18" fill="#1F2937" font-family="system-ui, sans-serif" font-size="13">15 décembre 2024</text>
    </g>
    <g transform="translate(250, 110)">
      <text x="0" y="0" fill="#6B7280" font-family="system-ui, sans-serif" font-size="11">Date d'expiration</text>
      <text x="0" y="18" fill="#1F2937" font-family="system-ui, sans-serif" font-size="13">15 mars 2025</text>
    </g>
    <g transform="translate(20, 160)">
      <text x="0" y="0" fill="#6B7280" font-family="system-ui, sans-serif" font-size="11">Fournisseur</text>
      <text x="0" y="18" fill="#1F2937" font-family="system-ui, sans-serif" font-size="13">Let's Encrypt Authority X3</text>
    </g>
    <g transform="translate(250, 160)">
      <text x="0" y="0" fill="#6B7280" font-family="system-ui, sans-serif" font-size="11">Renouvellement</text>
      <rect x="0" y="8" width="85" height="22" rx="4" fill="#DCFCE7"/><text x="10" y="24" fill="#16A34A" font-family="system-ui, sans-serif" font-size="10">Automatique</text>
    </g>
  </g>
  <g transform="translate(570, 110)">
    <rect x="0" y="0" width="500" height="220" rx="8" fill="white" stroke="#E5E7EB"/>
    <text x="20" y="30" fill="#1F2937" font-family="system-ui, sans-serif" font-size="14" font-weight="600">Domaines couverts (SAN)</text>
    <g transform="translate(20, 55)">
      <rect x="0" y="0" width="460" height="36" rx="4" fill="#DCFCE7"/>
      <text x="15" y="24" fill="#16A34A" font-family="system-ui, sans-serif" font-size="12">✓ example.com</text>
    </g>
    <g transform="translate(20, 100)">
      <rect x="0" y="0" width="460" height="36" rx="4" fill="#DCFCE7"/>
      <text x="15" y="24" fill="#16A34A" font-family="system-ui, sans-serif" font-size="12">✓ www.example.com</text>
    </g>
    <g transform="translate(20, 145)">
      <rect x="0" y="0" width="460" height="36" rx="4" fill="#DCFCE7"/>
      <text x="15" y="24" fill="#16A34A" font-family="system-ui, sans-serif" font-size="12">✓ blog.example.com</text>
    </g>
  </g>
  <g transform="translate(30, 350)">
    <rect x="0" y="0" width="1040" height="180" rx="8" fill="white" stroke="#E5E7EB"/>
    <text x="20" y="30" fill="#1F2937" font-family="system-ui, sans-serif" font-size="14" font-weight="600">Détails techniques</text>
    <g transform="translate(20, 60)">
      <text x="0" y="0" fill="#6B7280" font-family="system-ui, sans-serif" font-size="11">Empreinte SHA-256</text>
      <rect x="0" y="10" width="700" height="36" rx="4" fill="#1F2937"/>
      <text x="15" y="34" fill="#F9FAFB" font-family="monospace" font-size="10">A1:B2:C3:D4:E5:F6:G7:H8:I9:J0:K1:L2:M3:N4:O5:P6:Q7:R8:S9:T0:U1:V2:W3:X4</text>
      <rect x="620" y="13" width="65" height="24" rx="4" fill="#374151"/><text x="635" y="30" fill="white" font-family="system-ui, sans-serif" font-size="10">Copier</text>
    </g>
    <g transform="translate(20, 120)">
      <text x="0" y="0" fill="#6B7280" font-family="system-ui, sans-serif" font-size="11">Algorithme</text>
      <text x="0" y="18" fill="#1F2937" font-family="system-ui, sans-serif" font-size="13">RSA 2048 bits</text>
    </g>
    <g transform="translate(200, 120)">
      <text x="0" y="0" fill="#6B7280" font-family="system-ui, sans-serif" font-size="11">Signature</text>
      <text x="0" y="18" fill="#1F2937" font-family="system-ui, sans-serif" font-size="13">SHA-256 with RSA</text>
    </g>
    <g transform="translate(400, 120)">
      <rect x="0" y="-5" width="150" height="32" rx="4" fill="white" stroke="#0050D7"/><text x="15" y="16" fill="#0050D7" font-family="system-ui, sans-serif" font-size="11">Télécharger certificat</text>
    </g>
    <g transform="translate(560, 120)">
      <rect x="0" y="-5" width="150" height="32" rx="4" fill="white" stroke="#E5E7EB"/><text x="15" y="16" fill="#6B7280" font-family="system-ui, sans-serif" font-size="11">Télécharger chaîne</text>
    </g>
  </g>
</svg>
