<svg xmlns="http://www.w3.org/2000/svg" viewBox="0 0 1440 900" width="1440" height="900">
  <defs>
    <style>
      .bg-muted { fill: #F9FAFB; }
      .bg-white { fill: #FFFFFF; }
      .bg-header { fill: #000E9C; }
      .bg-primary { fill: #0050D7; }
      .text-body { font-family: 'Source Sans Pro', sans-serif; font-size: 14px; fill: #1F2937; }
      .text-muted { font-family: 'Source Sans Pro', sans-serif; font-size: 14px; fill: #6B7280; }
      .text-white { font-family: 'Source Sans Pro', sans-serif; fill: #FFFFFF; }
      .text-title { font-family: 'Source Sans Pro', sans-serif; font-size: 24px; font-weight: 600; fill: #1F2937; }
      .text-h3 { font-family: 'Source Sans Pro', sans-serif; font-size: 16px; font-weight: 600; fill: #1F2937; }
      .border { stroke: #E5E7EB; stroke-width: 1; fill: none; }
      .bar-bg { fill: #E5E7EB; }
      .bar-green { fill: #22C55E; }
      .bar-yellow { fill: #F59E0B; }
      .bar-red { fill: #EF4444; }
    </style>
  </defs>
  <rect width="1440" height="900" class="bg-muted"/>
  <rect width="1440" height="60" class="bg-header"/>
  <text x="80" y="38" class="text-white" style="font-size: 20px; font-weight: 600;">OVHcloud</text>
  <rect x="0" y="60" width="240" height="840" class="bg-white"/>
  <g transform="translate(280, 100)">
    <text x="0" y="0" class="text-muted">Public Cloud > Mon Projet Prod</text>
    <text x="0" y="40" class="text-title">Mon Projet Prod</text>
    <g transform="translate(0, 80)">
      <text x="0" y="0" class="text-muted">Instances</text>
      <text x="80" y="0" class="text-muted">Volumes</text>
      <text x="160" y="0" class="text-muted">Snapshots</text>
      <text x="260" y="0" class="text-muted">Object Storage</text>
      <text x="390" y="0" class="text-muted">Reseaux</text>
      <text x="470" y="0" class="text-muted">Cles SSH</text>
      <text x="550" y="0" style="fill: #0050D7; font-weight: 600;">Quota</text>
      <rect x="550" y="8" width="45" height="2" class="bg-primary"/>
    </g>
    <g transform="translate(0, 130)">
      <text x="0" y="0" class="text-h3">Quotas</text>
      <text x="0" y="25" class="text-muted">Utilisation des ressources par region</text>
      <g transform="translate(0, 60)">
        <rect x="0" y="0" width="520" height="260" rx="8" class="bg-white"/>
        <rect x="0" y="0" width="520" height="260" rx="8" class="border"/>
        <text x="20" y="35" class="text-h3">GRA11</text>
        <text x="20" y="70" class="text-body" style="font-weight: 600;">Instances</text>
        <text x="20" y="95" class="text-muted" style="font-size: 12px;">Nombre</text>
        <text x="440" y="95" class="text-body" style="font-size: 12px;">2 / 20</text>
        <rect x="20" y="103" width="480" height="8" rx="4" class="bar-bg"/>
        <rect x="20" y="103" width="48" height="8" rx="4" class="bar-green"/>
        <text x="20" y="135" class="text-muted" style="font-size: 12px;">Coeurs</text>
        <text x="440" y="135" class="text-body" style="font-size: 12px;">8 / 40</text>
        <rect x="20" y="143" width="480" height="8" rx="4" class="bar-bg"/>
        <rect x="20" y="143" width="96" height="8" rx="4" class="bar-green"/>
        <text x="20" y="175" class="text-muted" style="font-size: 12px;">RAM (GB)</text>
        <text x="440" y="175" class="text-body" style="font-size: 12px;">32 / 128</text>
        <rect x="20" y="183" width="480" height="8" rx="4" class="bar-bg"/>
        <rect x="20" y="183" width="120" height="8" rx="4" class="bar-green"/>
        <text x="20" y="215" class="text-body" style="font-weight: 600;">Volumes</text>
        <text x="20" y="240" class="text-muted" style="font-size: 12px;">Nombre</text>
        <text x="440" y="240" class="text-body" style="font-size: 12px;">3 / 50</text>
        <rect x="20" y="248" width="480" height="8" rx="4" class="bar-bg"/>
        <rect x="20" y="248" width="29" height="8" rx="4" class="bar-green"/>
      </g>
      <g transform="translate(540, 60)">
        <rect x="0" y="0" width="520" height="260" rx="8" class="bg-white"/>
        <rect x="0" y="0" width="520" height="260" rx="8" class="border"/>
        <text x="20" y="35" class="text-h3">SBG5</text>
        <text x="20" y="70" class="text-body" style="font-weight: 600;">Instances</text>
        <text x="20" y="95" class="text-muted" style="font-size: 12px;">Nombre</text>
        <text x="440" y="95" class="text-body" style="font-size: 12px;">1 / 20</text>
        <rect x="20" y="103" width="480" height="8" rx="4" class="bar-bg"/>
        <rect x="20" y="103" width="24" height="8" rx="4" class="bar-green"/>
        <text x="20" y="135" class="text-muted" style="font-size: 12px;">Coeurs</text>
        <text x="440" y="135" class="text-body" style="font-size: 12px;">4 / 40</text>
        <rect x="20" y="143" width="480" height="8" rx="4" class="bar-bg"/>
        <rect x="20" y="143" width="48" height="8" rx="4" class="bar-green"/>
        <text x="20" y="175" class="text-muted" style="font-size: 12px;">RAM (GB)</text>
        <text x="440" y="175" class="text-body" style="font-size: 12px;">100 / 128</text>
        <rect x="20" y="183" width="480" height="8" rx="4" class="bar-bg"/>
        <rect x="20" y="183" width="375" height="8" rx="4" class="bar-yellow"/>
        <text x="20" y="215" class="text-body" style="font-weight: 600;">Volumes</text>
        <text x="20" y="240" class="text-muted" style="font-size: 12px;">Stockage (GB)</text>
        <text x="440" y="240" class="text-body" style="font-size: 12px;">480 / 500</text>
        <rect x="20" y="248" width="480" height="8" rx="4" class="bar-bg"/>
        <rect x="20" y="248" width="460" height="8" rx="4" class="bar-red"/>
      </g>
    </g>
  </g>
</svg>
