<svg xmlns="http://www.w3.org/2000/svg" viewBox="0 0 1440 900" width="1440" height="900">
  <defs>
    <style>
      .bg-header { fill: #000E9C; }
      .bg-main { fill: #F6F6F9; }
      .bg-white { fill: #FFFFFF; }
      .bg-primary { fill: #0050D7; }
      .bg-success { fill: #DEF7EC; }
      .bg-warning { fill: #FEF3C7; }
      .bg-error { fill: #FEE2E2; }
      .border { stroke: #E5E7EB; stroke-width: 1; fill: none; }
      .btn-outline { stroke: #0050D7; stroke-width: 1; fill: #FFFFFF; }
      .text-white { fill: #FFFFFF; font-family: 'Source Sans Pro', sans-serif; }
      .text-dark { fill: #1F2937; font-family: 'Source Sans Pro', sans-serif; }
      .text-muted { fill: #6B7280; font-family: 'Source Sans Pro', sans-serif; }
      .text-primary { fill: #0050D7; font-family: 'Source Sans Pro', sans-serif; }
      .text-success { fill: #059669; font-family: 'Source Sans Pro', sans-serif; }
      .text-warning { fill: #D97706; font-family: 'Source Sans Pro', sans-serif; }
      .text-error { fill: #DC2626; font-family: 'Source Sans Pro', sans-serif; }
    </style>
  </defs>

  <!-- Background + NAV -->
  <rect width="1440" height="900" class="bg-main"/>
  <rect width="1440" height="50" class="bg-header"/>
  <text x="510" y="32" class="text-white" font-size="14" font-weight="600">Web Cloud</text>
  <rect x="505" y="46" width="75" height="3" fill="#FFFFFF"/>
  <rect x="0" y="50" width="1440" height="40" fill="#FFFFFF"/>
  <line x1="0" y1="89" x2="1440" y2="89" stroke="#E5E7EB"/>
  <text x="500" y="75" class="text-primary" font-size="14" font-weight="600">VoIP</text>
  <rect x="495" y="85" width="35" height="3" fill="#0050D7"/>

  <!-- CONTENT AREA -->
  <g transform="translate(0, 105)">
    <g transform="translate(24, 0)">
      <!-- LEFT PANEL -->
      <rect x="0" y="0" width="280" height="765" rx="8" class="bg-white"/>
      <rect x="0" y="0" width="280" height="765" rx="8" class="border"/>
      <text x="12" y="34" class="text-muted" font-size="12">Rechercher...</text>
      <text x="12" y="68" class="text-muted" font-size="11">2 comptes SMS</text>

      <g transform="translate(6, 80)">
        <rect x="0" y="0" width="268" height="65" rx="6" fill="#E8F0FE"/>
        <text x="12" y="22" class="text-dark" font-size="13" font-weight="500">💬 sms-ab12345</text>
        <text x="12" y="40" class="text-muted" font-size="11">Compte principal</text>
        <text x="12" y="56" class="text-muted" font-size="10">500 crédits</text>
      </g>
    </g>

    <g transform="translate(320, 0)">
      <!-- RIGHT PANEL -->
      <rect x="0" y="0" width="1096" height="765" rx="8" class="bg-white"/>
      <rect x="0" y="0" width="1096" height="765" rx="8" class="border"/>

      <g transform="translate(20, 0)">
        <!-- HEADER -->
        <text x="0" y="28" class="text-dark" font-size="18" font-weight="600">sms-ab12345</text>
        <text x="150" y="28" class="text-muted" font-size="14">Compte principal</text>
        <rect x="300" y="12" width="80" height="18" rx="9" fill="#DEF7EC"/>
        <text x="340" y="25" fill="#03543F" font-size="10" text-anchor="middle">500 crédits</text>

        <!-- NAV3 TABS - Outgoing actif -->
        <g transform="translate(0, 50)">
          <rect x="0" y="0" width="60" height="26" rx="4" fill="#FFFFFF" stroke="#0050D7"/>
          <text x="30" y="17" class="text-primary" font-size="11" text-anchor="middle">Général</text>

          <rect x="64" y="0" width="55" height="26" rx="4" fill="#FFFFFF" stroke="#0050D7"/>
          <text x="91" y="17" class="text-primary" font-size="11" text-anchor="middle">Envoyer</text>

          <rect x="123" y="0" width="80" height="26" rx="4" fill="#FFFFFF" stroke="#0050D7"/>
          <text x="163" y="17" class="text-primary" font-size="11" text-anchor="middle">Campagnes</text>

          <rect x="207" y="0" width="60" height="26" rx="4" fill="#FFFFFF" stroke="#0050D7"/>
          <text x="237" y="17" class="text-primary" font-size="11" text-anchor="middle">Entrants</text>

          <rect x="271" y="0" width="60" height="26" rx="4" fill="#0050D7"/>
          <text x="301" y="17" class="text-white" font-size="11" text-anchor="middle">Sortants</text>

          <rect x="335" y="0" width="80" height="26" rx="4" fill="#FFFFFF" stroke="#0050D7"/>
          <text x="375" y="17" class="text-primary" font-size="11" text-anchor="middle">Expéditeurs</text>

          <rect x="419" y="0" width="70" height="26" rx="4" fill="#FFFFFF" stroke="#0050D7"/>
          <text x="454" y="17" class="text-primary" font-size="11" text-anchor="middle">Templates</text>
        </g>

        <!-- OUTGOING CONTENT -->
        <g transform="translate(0, 90)">

          <!-- Toolbar -->
          <g transform="translate(0, 0)">
            <rect x="0" y="0" width="130" height="32" rx="4" class="btn-outline"/>
            <text x="65" y="21" class="text-primary" font-size="11" text-anchor="middle">↻ Rafraîchir</text>

            <rect x="140" y="0" width="140" height="32" rx="4" class="btn-outline"/>
            <text x="210" y="21" class="text-primary" font-size="11" text-anchor="middle">📥 Exporter CSV</text>

            <!-- Filtres -->
            <rect x="400" y="0" width="120" height="32" rx="4" fill="#F9FAFB" stroke="#E5E7EB"/>
            <text x="420" y="21" class="text-muted" font-size="11">Du: 01/12/2024</text>

            <rect x="530" y="0" width="120" height="32" rx="4" fill="#F9FAFB" stroke="#E5E7EB"/>
            <text x="550" y="21" class="text-muted" font-size="11">Au: 31/12/2024</text>

            <rect x="660" y="0" width="100" height="32" rx="4" fill="#F9FAFB" stroke="#E5E7EB"/>
            <text x="680" y="21" class="text-muted" font-size="11">Statut: Tous ▾</text>
          </g>

          <!-- Stats summary -->
          <g transform="translate(0, 50)">
            <rect x="0" y="0" width="200" height="60" rx="6" fill="#F9FAFB"/>
            <text x="15" y="25" class="text-muted" font-size="11">SMS envoyés</text>
            <text x="15" y="48" class="text-dark" font-size="18" font-weight="700">1,234</text>

            <rect x="220" y="0" width="200" height="60" rx="6" fill="#DEF7EC"/>
            <text x="235" y="25" fill="#03543F" font-size="11">Délivrés</text>
            <text x="235" y="48" fill="#03543F" font-size="18" font-weight="700">1,198 (97%)</text>

            <rect x="440" y="0" width="200" height="60" rx="6" fill="#FEF3C7"/>
            <text x="455" y="25" class="text-warning" font-size="11">En attente</text>
            <text x="455" y="48" class="text-warning" font-size="18" font-weight="700">24 (2%)</text>

            <rect x="660" y="0" width="200" height="60" rx="6" fill="#FEE2E2"/>
            <text x="675" y="25" class="text-error" font-size="11">Échoués</text>
            <text x="675" y="48" class="text-error" font-size="18" font-weight="700">12 (1%)</text>
          </g>

          <!-- Table -->
          <g transform="translate(0, 130)">
            <rect x="0" y="0" width="1030" height="400" rx="6" fill="#FFFFFF" stroke="#E5E7EB"/>

            <!-- Header -->
            <rect x="0" y="0" width="1030" height="40" rx="6" fill="#F9FAFB"/>
            <text x="20" y="26" class="text-muted" font-size="10" font-weight="600">DATE</text>
            <text x="130" y="26" class="text-muted" font-size="10" font-weight="600">DESTINATAIRE</text>
            <text x="280" y="26" class="text-muted" font-size="10" font-weight="600">EXPÉDITEUR</text>
            <text x="420" y="26" class="text-muted" font-size="10" font-weight="600">MESSAGE</text>
            <text x="750" y="26" class="text-muted" font-size="10" font-weight="600">CRÉDITS</text>
            <text x="830" y="26" class="text-muted" font-size="10" font-weight="600">STATUT</text>
            <text x="940" y="26" class="text-muted" font-size="10" font-weight="600">ACTIONS</text>

            <!-- Row 1 -->
            <text x="20" y="70" class="text-dark" font-size="11">31/12 14:32</text>
            <text x="130" y="70" class="text-dark" font-size="11">+33 6 12 34 56 78</text>
            <text x="280" y="70" class="text-dark" font-size="11">MonEntreprise</text>
            <text x="420" y="70" class="text-dark" font-size="11">Votre RDV est confirmé pour demain...</text>
            <text x="750" y="70" class="text-dark" font-size="11">1</text>
            <rect x="830" y="55" width="60" height="20" rx="10" fill="#DEF7EC"/>
            <text x="860" y="69" fill="#03543F" font-size="9" text-anchor="middle">Délivré</text>
            <text x="940" y="70" class="text-primary" font-size="11">👁 Détails</text>

            <!-- Row 2 -->
            <line x1="20" y1="85" x2="1010" y2="85" stroke="#F3F4F6"/>
            <text x="20" y="110" class="text-dark" font-size="11">31/12 14:15</text>
            <text x="130" y="110" class="text-dark" font-size="11">+33 7 98 76 54 32</text>
            <text x="280" y="110" class="text-dark" font-size="11">MonEntreprise</text>
            <text x="420" y="110" class="text-dark" font-size="11">Code de vérification: 847291</text>
            <text x="750" y="110" class="text-dark" font-size="11">1</text>
            <rect x="830" y="95" width="60" height="20" rx="10" fill="#DEF7EC"/>
            <text x="860" y="109" fill="#03543F" font-size="9" text-anchor="middle">Délivré</text>
            <text x="940" y="110" class="text-primary" font-size="11">👁 Détails</text>

            <!-- Row 3 -->
            <line x1="20" y1="125" x2="1010" y2="125" stroke="#F3F4F6"/>
            <text x="20" y="150" class="text-dark" font-size="11">31/12 13:45</text>
            <text x="130" y="150" class="text-dark" font-size="11">+33 6 55 44 33 22</text>
            <text x="280" y="150" class="text-dark" font-size="11">Alerte</text>
            <text x="420" y="150" class="text-dark" font-size="11">Nouvelle commande #12345 reçue</text>
            <text x="750" y="150" class="text-dark" font-size="11">1</text>
            <rect x="830" y="135" width="60" height="20" rx="10" fill="#FEF3C7"/>
            <text x="860" y="149" fill="#D97706" font-size="9" text-anchor="middle">En attente</text>
            <text x="940" y="150" class="text-primary" font-size="11">👁 Détails</text>

            <!-- Row 4 -->
            <line x1="20" y1="165" x2="1010" y2="165" stroke="#F3F4F6"/>
            <text x="20" y="190" class="text-dark" font-size="11">31/12 11:20</text>
            <text x="130" y="190" class="text-dark" font-size="11">+33 6 11 22 33 44</text>
            <text x="280" y="190" class="text-dark" font-size="11">MonEntreprise</text>
            <text x="420" y="190" class="text-dark" font-size="11">Merci pour votre achat !</text>
            <text x="750" y="190" class="text-dark" font-size="11">1</text>
            <rect x="830" y="175" width="60" height="20" rx="10" fill="#FEE2E2"/>
            <text x="860" y="189" fill="#DC2626" font-size="9" text-anchor="middle">Échoué</text>
            <text x="940" y="190" class="text-primary" font-size="11">👁 Détails</text>

            <!-- Pagination -->
            <text x="20" y="380" class="text-muted" font-size="11">Affichage 1-20 sur 1,234 SMS</text>
            <g transform="translate(850, 360)">
              <rect x="0" y="0" width="30" height="28" rx="4" fill="#F9FAFB" stroke="#E5E7EB"/>
              <text x="15" y="19" class="text-muted" font-size="11" text-anchor="middle">‹</text>
              <rect x="35" y="0" width="30" height="28" rx="4" fill="#0050D7"/>
              <text x="50" y="19" class="text-white" font-size="11" text-anchor="middle">1</text>
              <rect x="70" y="0" width="30" height="28" rx="4" fill="#F9FAFB" stroke="#E5E7EB"/>
              <text x="85" y="19" class="text-muted" font-size="11" text-anchor="middle">2</text>
              <text x="115" y="19" class="text-muted" font-size="11">...</text>
              <rect x="130" y="0" width="30" height="28" rx="4" fill="#F9FAFB" stroke="#E5E7EB"/>
              <text x="145" y="19" class="text-muted" font-size="11" text-anchor="middle">›</text>
            </g>
          </g>

        </g>
      </g>
    </g>
  </g>
</svg>
