<svg xmlns="http://www.w3.org/2000/svg" viewBox="0 0 1440 900" width="1440" height="900">
  <defs>
    <style>
      .bg-header { fill: #000E9C; }
      .bg-main { fill: #F6F6F9; }
      .bg-white { fill: #FFFFFF; }
      .bg-primary { fill: #0050D7; }
      .bg-success { fill: #DEF7EC; }
      .bg-info { fill: #DBEAFE; }
      .bg-warning { fill: #FEF3C7; }
      .bg-error { fill: #FEE2E2; }
      .border { stroke: #E5E7EB; stroke-width: 1; fill: none; }
      .text-white { fill: #FFFFFF; font-family: 'Source Sans Pro', sans-serif; }
      .text-dark { fill: #1F2937; font-family: 'Source Sans Pro', sans-serif; }
      .text-muted { fill: #6B7280; font-family: 'Source Sans Pro', sans-serif; }
      .text-primary { fill: #0050D7; font-family: 'Source Sans Pro', sans-serif; }
      .text-success { fill: #059669; font-family: 'Source Sans Pro', sans-serif; }
      .text-warning { fill: #D97706; font-family: 'Source Sans Pro', sans-serif; }
      .text-error { fill: #DC2626; font-family: 'Source Sans Pro', sans-serif; }
      .row-selected { fill: #E8F0FE; }
      .btn-outline { stroke: #0050D7; stroke-width: 1; fill: #FFFFFF; }
      .btn-primary { fill: #0050D7; }
    </style>
  </defs>

  <rect width="1440" height="900" class="bg-main"/>

  <!-- NAV1 -->
  <rect width="1440" height="50" class="bg-header"/>
  <text x="40" y="32" class="text-white" font-size="14" opacity="0.7">Accueil</text>
  <text x="110" y="32" class="text-white" font-size="14" opacity="0.7">Public Cloud</text>
  <text x="210" y="32" class="text-white" font-size="14" opacity="0.7">Hosted Private Cloud</text>
  <text x="370" y="32" class="text-white" font-size="14" opacity="0.7">Bare Metal Cloud</text>
  <text x="510" y="32" class="text-white" font-size="14" font-weight="600">Web Cloud</text>
  <rect x="505" y="46" width="75" height="3" fill="#FFFFFF"/>
  <text x="620" y="32" class="text-white" font-size="14" opacity="0.7">Network</text>
  <text x="700" y="32" class="text-white" font-size="14" opacity="0.7">IAM / Securite</text>
  <text x="810" y="32" class="text-white" font-size="14" opacity="0.7">Licences</text>

  <!-- NAV2 -->
  <rect x="0" y="50" width="1440" height="40" class="bg-white"/>
  <line x1="0" y1="89" x2="1440" y2="89" stroke="#E5E7EB"/>
  <text x="40" y="75" class="text-muted" font-size="14">Accueil</text>
  <text x="110" y="75" class="text-muted" font-size="14">Domaines</text>
  <text x="200" y="75" class="text-muted" font-size="14">Hebergement</text>
  <text x="310" y="75" class="text-muted" font-size="14">Emails</text>
  <text x="380" y="75" class="text-primary" font-size="14" font-weight="600">VoIP</text>
  <rect x="375" y="85" width="40" height="3" fill="#0050D7"/>

  <!-- MAIN -->
  <g transform="translate(0, 90)">
    <g transform="translate(24, 15)">

      <!-- LEFT PANEL -->
      <rect x="0" y="0" width="280" height="780" rx="8" class="bg-white"/>
      <rect x="0" y="0" width="280" height="780" rx="8" class="border"/>

      <rect x="12" y="12" width="256" height="34" rx="4" fill="#F9FAFB" stroke="#E5E7EB"/>
      <text x="26" y="34" class="text-muted" font-size="12">Rechercher un compte...</text>

      <!-- Compte sélectionné -->
      <rect x="6" y="58" width="268" height="52" rx="6" class="row-selected"/>
      <circle cx="28" cy="84" r="12" fill="#10B981"/>
      <text x="28" y="88" class="text-white" font-size="9" text-anchor="middle">S</text>
      <text x="50" y="78" class="text-dark" font-size="12" font-weight="500">sms-abc123-1</text>
      <text x="50" y="94" class="text-muted" font-size="10">12 450 crédits</text>

      <!-- RIGHT PANEL -->
      <rect x="296" y="0" width="1096" height="780" rx="8" class="bg-white"/>
      <rect x="296" y="0" width="1096" height="780" rx="8" class="border"/>

      <g transform="translate(316, 20)">
        <text x="0" y="20" class="text-dark" font-size="18" font-weight="600">sms-abc123-1</text>
        <text x="150" y="20" class="text-muted" font-size="12">Campagnes SMS</text>

        <!-- NAV3 Tabs -->
        <g transform="translate(0, 40)">
          <text x="20" y="21" class="text-muted" font-size="11">Général</text>
          <text x="95" y="21" class="text-muted" font-size="11">Envoyer</text>
          <rect x="155" y="0" width="95" height="32" rx="4" fill="#0050D7"/>
          <text x="202" y="21" class="text-white" font-size="11" text-anchor="middle">Campagnes</text>
          <text x="280" y="21" class="text-muted" font-size="11">Reçus</text>
          <text x="345" y="21" class="text-muted" font-size="11">Modèles</text>
        </g>

        <!-- Contenu Campagnes -->
        <g transform="translate(0, 90)">

          <!-- Toolbar -->
          <g transform="translate(0, 0)">
            <rect x="0" y="0" width="32" height="32" rx="4" class="btn-outline"/>
            <text x="16" y="22" class="text-primary" font-size="14" text-anchor="middle">↻</text>

            <rect x="50" y="0" width="200" height="32" rx="4" fill="#F9FAFB" stroke="#E5E7EB"/>
            <text x="65" y="21" class="text-muted" font-size="11">Rechercher une campagne...</text>

            <rect x="270" y="0" width="150" height="32" rx="4" fill="#F9FAFB" stroke="#E5E7EB"/>
            <text x="285" y="21" class="text-dark" font-size="11">Tous les statuts ▼</text>

            <rect x="850" y="0" width="190" height="32" rx="4" class="btn-primary"/>
            <text x="945" y="21" class="text-white" font-size="11" text-anchor="middle">+ Nouvelle campagne</text>
          </g>

          <!-- Stats résumé -->
          <g transform="translate(0, 55)">
            <rect x="0" y="0" width="250" height="70" rx="6" fill="#FFFFFF" stroke="#E5E7EB"/>
            <text x="20" y="25" class="text-muted" font-size="10">Total campagnes</text>
            <text x="20" y="50" class="text-dark" font-size="20" font-weight="600">12</text>

            <rect x="265" y="0" width="250" height="70" rx="6" class="bg-success"/>
            <text x="285" y="25" class="text-success" font-size="10">Actives</text>
            <text x="285" y="50" class="text-success" font-size="20" font-weight="600">3</text>

            <rect x="530" y="0" width="250" height="70" rx="6" class="bg-warning"/>
            <text x="550" y="25" class="text-warning" font-size="10">Planifiées</text>
            <text x="550" y="50" class="text-warning" font-size="20" font-weight="600">2</text>

            <rect x="795" y="0" width="250" height="70" rx="6" fill="#F3F4F6"/>
            <text x="815" y="25" class="text-muted" font-size="10">Terminées</text>
            <text x="815" y="50" class="text-dark" font-size="20" font-weight="600">7</text>
          </g>

          <!-- Table Campagnes -->
          <g transform="translate(0, 145)">
            <text x="0" y="0" class="text-dark" font-size="14" font-weight="600">Liste des campagnes</text>
            <line x1="0" y1="15" x2="1040" y2="15" stroke="#E5E7EB"/>

            <!-- Table header -->
            <rect x="0" y="25" width="1040" height="32" rx="4" fill="#F9FAFB"/>
            <text x="20" y="46" class="text-muted" font-size="10" font-weight="600">NOM</text>
            <text x="230" y="46" class="text-muted" font-size="10" font-weight="600">DESTINATAIRES</text>
            <text x="350" y="46" class="text-muted" font-size="10" font-weight="600">DÉLIVRÉS</text>
            <text x="450" y="46" class="text-muted" font-size="10" font-weight="600">TAUX</text>
            <text x="530" y="46" class="text-muted" font-size="10" font-weight="600">DATE ENVOI</text>
            <text x="680" y="46" class="text-muted" font-size="10" font-weight="600">CRÉDITS</text>
            <text x="780" y="46" class="text-muted" font-size="10" font-weight="600">STATUT</text>
            <text x="900" y="46" class="text-muted" font-size="10" font-weight="600">ACTIONS</text>

            <!-- Row 1 - Active -->
            <rect x="0" y="57" width="1040" height="55" fill="#FFFFFF"/>
            <line x1="0" y1="112" x2="1040" y2="112" stroke="#E5E7EB"/>
            <text x="20" y="80" class="text-dark" font-size="12" font-weight="500">Promo Noël 2025</text>
            <text x="20" y="98" class="text-muted" font-size="10">Créée le 20/12</text>
            <text x="230" y="88" class="text-dark" font-size="12">5 420</text>
            <text x="350" y="88" class="text-dark" font-size="12">5 312</text>
            <text x="450" y="88" class="text-success" font-size="12" font-weight="500">98.0%</text>
            <text x="530" y="88" class="text-dark" font-size="11">25/12 09:00</text>
            <text x="680" y="88" class="text-dark" font-size="12">5 420</text>
            <rect x="780" y="75" width="70" height="22" rx="11" fill="#DEF7EC"/>
            <text x="815" y="90" fill="#03543F" font-size="10" text-anchor="middle">En cours</text>
            <text x="900" y="88" class="text-primary" font-size="11">📊</text>
            <text x="930" y="88" class="text-primary" font-size="11">⏸</text>
            <text x="960" y="88" class="text-error" font-size="11">✕</text>

            <!-- Row 2 - Planifiée -->
            <rect x="0" y="112" width="1040" height="55" fill="#FFFFFF"/>
            <line x1="0" y1="167" x2="1040" y2="167" stroke="#E5E7EB"/>
            <text x="20" y="135" class="text-dark" font-size="12" font-weight="500">Voeux 2026</text>
            <text x="20" y="153" class="text-muted" font-size="10">Créée le 26/12</text>
            <text x="230" y="143" class="text-dark" font-size="12">8 200</text>
            <text x="350" y="143" class="text-muted" font-size="12">-</text>
            <text x="450" y="143" class="text-muted" font-size="12">-</text>
            <text x="530" y="143" class="text-dark" font-size="11">01/01 00:01</text>
            <text x="680" y="143" class="text-dark" font-size="12">8 200</text>
            <rect x="780" y="130" width="70" height="22" rx="11" fill="#FEF3C7"/>
            <text x="815" y="145" fill="#D97706" font-size="10" text-anchor="middle">Planifiée</text>
            <text x="900" y="143" class="text-primary" font-size="11">✎</text>
            <text x="930" y="143" class="text-error" font-size="11">✕</text>

            <!-- Row 3 - Terminée -->
            <rect x="0" y="167" width="1040" height="55" fill="#FFFFFF"/>
            <line x1="0" y1="222" x2="1040" y2="222" stroke="#E5E7EB"/>
            <text x="20" y="190" class="text-dark" font-size="12" font-weight="500">Black Friday</text>
            <text x="20" y="208" class="text-muted" font-size="10">Créée le 25/11</text>
            <text x="230" y="198" class="text-dark" font-size="12">12 350</text>
            <text x="350" y="198" class="text-dark" font-size="12">12 180</text>
            <text x="450" y="198" class="text-success" font-size="12" font-weight="500">98.6%</text>
            <text x="530" y="198" class="text-dark" font-size="11">29/11 08:00</text>
            <text x="680" y="198" class="text-dark" font-size="12">12 350</text>
            <rect x="780" y="185" width="70" height="22" rx="11" fill="#F3F4F6"/>
            <text x="815" y="200" fill="#6B7280" font-size="10" text-anchor="middle">Terminée</text>
            <text x="900" y="198" class="text-primary" font-size="11">📊</text>
            <text x="930" y="198" class="text-primary" font-size="11">📋</text>

            <!-- Row 4 - Échec partiel -->
            <rect x="0" y="222" width="1040" height="55" fill="#FFFFFF"/>
            <line x1="0" y1="277" x2="1040" y2="277" stroke="#E5E7EB"/>
            <text x="20" y="245" class="text-dark" font-size="12" font-weight="500">Relance clients</text>
            <text x="20" y="263" class="text-muted" font-size="10">Créée le 15/11</text>
            <text x="230" y="253" class="text-dark" font-size="12">3 450</text>
            <text x="350" y="253" class="text-dark" font-size="12">3 105</text>
            <text x="450" y="253" class="text-warning" font-size="12" font-weight="500">90.0%</text>
            <text x="530" y="253" class="text-dark" font-size="11">18/11 10:30</text>
            <text x="680" y="253" class="text-dark" font-size="12">3 450</text>
            <rect x="780" y="240" width="70" height="22" rx="11" fill="#F3F4F6"/>
            <text x="815" y="255" fill="#6B7280" font-size="10" text-anchor="middle">Terminée</text>
            <text x="900" y="253" class="text-primary" font-size="11">📊</text>
            <text x="930" y="253" class="text-primary" font-size="11">📋</text>

            <!-- Row 5 -->
            <rect x="0" y="277" width="1040" height="55" fill="#FFFFFF"/>
            <line x1="0" y1="332" x2="1040" y2="332" stroke="#E5E7EB"/>
            <text x="20" y="300" class="text-dark" font-size="12" font-weight="500">Soldes été</text>
            <text x="20" y="318" class="text-muted" font-size="10">Créée le 01/07</text>
            <text x="230" y="308" class="text-dark" font-size="12">15 000</text>
            <text x="350" y="308" class="text-dark" font-size="12">14 820</text>
            <text x="450" y="308" class="text-success" font-size="12" font-weight="500">98.8%</text>
            <text x="530" y="308" class="text-dark" font-size="11">01/07 06:00</text>
            <text x="680" y="308" class="text-dark" font-size="12">15 000</text>
            <rect x="780" y="295" width="70" height="22" rx="11" fill="#F3F4F6"/>
            <text x="815" y="310" fill="#6B7280" font-size="10" text-anchor="middle">Terminée</text>
            <text x="900" y="308" class="text-primary" font-size="11">📊</text>
            <text x="930" y="308" class="text-primary" font-size="11">📋</text>
          </g>

          <!-- Pagination -->
          <g transform="translate(0, 510)">
            <text x="0" y="15" class="text-muted" font-size="11">Affichage 1-5 sur 12 campagnes</text>
            <g transform="translate(900, 0)">
              <rect x="0" y="0" width="32" height="28" rx="4" class="btn-outline"/>
              <text x="16" y="18" class="text-primary" font-size="11" text-anchor="middle">‹</text>
              <rect x="40" y="0" width="32" height="28" rx="4" fill="#0050D7"/>
              <text x="56" y="18" class="text-white" font-size="11" text-anchor="middle">1</text>
              <rect x="80" y="0" width="32" height="28" rx="4" class="btn-outline"/>
              <text x="96" y="18" class="text-primary" font-size="11" text-anchor="middle">2</text>
              <rect x="120" y="0" width="32" height="28" rx="4" class="btn-outline"/>
              <text x="136" y="18" class="text-primary" font-size="11" text-anchor="middle">›</text>
            </g>
          </g>

        </g>
      </g>
    </g>
  </g>
</svg>
