<svg xmlns="http://www.w3.org/2000/svg" viewBox="0 0 1440 900" width="1440" height="900">
  <defs>
    <style>
      .bg-header { fill: #000E9C; }
      .bg-main { fill: #F6F6F9; }
      .bg-white { fill: #FFFFFF; }
      .bg-primary { fill: #0050D7; }
      .bg-info { fill: #DBEAFE; }
      .bg-success { fill: #DEF7EC; }
      .bg-error { fill: #FEE2E2; }
      .border { stroke: #E5E7EB; stroke-width: 1; fill: none; }
      .btn-outline { stroke: #0050D7; stroke-width: 1; fill: #FFFFFF; }
      .btn-primary { fill: #0050D7; }
      .table-header { fill: #F9FAFB; }
      .row-selected { fill: #E8F0FE; }
      .text-white { fill: #FFFFFF; font-family: 'Source Sans Pro', sans-serif; }
      .text-dark { fill: #1F2937; font-family: 'Source Sans Pro', sans-serif; }
      .text-muted { fill: #6B7280; font-family: 'Source Sans Pro', sans-serif; }
      .text-primary { fill: #0050D7; font-family: 'Source Sans Pro', sans-serif; }
      .text-success { fill: #059669; font-family: 'Source Sans Pro', sans-serif; }
      .text-error { fill: #DC2626; font-family: 'Source Sans Pro', sans-serif; }
      .text-info { fill: #1E40AF; font-family: 'Source Sans Pro', sans-serif; }
    </style>
  </defs>

  <rect width="1440" height="900" class="bg-main"/>

  <!-- NAV1 -->
  <rect width="1440" height="50" class="bg-header"/>
  <text x="510" y="32" class="text-white" font-size="14" font-weight="600">Web Cloud</text>
  <rect x="505" y="46" width="75" height="3" fill="#FFFFFF"/>

  <!-- NAV2 -->
  <rect x="0" y="50" width="1440" height="40" class="bg-white"/>
  <line x1="0" y1="89" x2="1440" y2="89" stroke="#E5E7EB"/>
  <text x="500" y="75" class="text-primary" font-size="14" font-weight="600">VoIP</text>
  <rect x="495" y="85" width="35" height="3" fill="#0050D7"/>

  <!-- MAIN CONTENT -->
  <g transform="translate(0, 105)">
    <g transform="translate(24, 0)">
      <!-- LEFT PANEL -->
      <rect x="0" y="0" width="280" height="765" rx="8" class="bg-white"/>
      <rect x="0" y="0" width="280" height="765" rx="8" class="border"/>
      <text x="16" y="30" class="text-dark" font-size="15" font-weight="700">Fax</text>

      <g transform="translate(6, 50)">
        <rect x="0" y="0" width="268" height="65" rx="6" class="row-selected"/>
        <text x="12" y="18" class="text-dark" font-size="12" font-weight="500">📠 0033972107777</text>
        <text x="12" y="36" class="text-muted" font-size="11">Fax comptabilité</text>
        <text x="12" y="52" class="text-muted" font-size="10">Fax Pro</text>
      </g>
    </g>

    <g transform="translate(320, 0)">
      <!-- RIGHT PANEL -->
      <rect x="0" y="0" width="1096" height="765" rx="8" class="bg-white"/>
      <rect x="0" y="0" width="1096" height="765" rx="8" class="border"/>

      <g transform="translate(20, 0)">
        <!-- Header -->
        <text x="0" y="28" class="text-dark" font-size="18" font-weight="600">Filtrage des fax</text>

        <!-- NAV3 Tabs -->
        <g transform="translate(0, 45)">
          <rect x="0" y="0" width="65" height="26" rx="4" class="btn-outline"/>
          <text x="32" y="17" class="text-primary" font-size="11" text-anchor="middle">Général</text>
          <rect x="73" y="0" width="55" height="26" rx="4" class="btn-outline"/>
          <text x="100" y="17" class="text-primary" font-size="11" text-anchor="middle">Envoi</text>
          <rect x="136" y="0" width="85" height="26" rx="4" class="btn-outline"/>
          <text x="178" y="17" class="text-primary" font-size="11" text-anchor="middle">Campagnes</text>
          <rect x="473" y="0" width="65" height="26" rx="4" class="bg-primary"/>
          <text x="505" y="17" class="text-white" font-size="11" text-anchor="middle">Filtrage</text>
        </g>

        <!-- CONTENT -->
        <g transform="translate(0, 90)">

          <!-- Toolbar -->
          <g transform="translate(0, 0)">
            <rect x="0" y="0" width="32" height="32" rx="4" class="btn-outline"/>
            <text x="16" y="22" class="text-primary" font-size="14" text-anchor="middle">↻</text>

            <rect x="850" y="0" width="200" height="32" rx="4" class="btn-primary"/>
            <text x="950" y="21" class="text-white" font-size="11" text-anchor="middle">+ Ajouter une règle</text>
          </g>

          <!-- Info banner -->
          <rect x="0" y="50" width="1056" height="40" rx="6" class="bg-info"/>
          <text x="20" y="30" class="text-info" font-size="11">ℹ️ Le filtrage permet de bloquer ou autoriser certains numéros à envoyer des fax vers ce service.</text>

          <!-- Table -->
          <g transform="translate(0, 110)">
            <rect x="0" y="0" width="1056" height="35" rx="0" class="table-header"/>
            <text x="20" y="23" class="text-muted" font-size="11" font-weight="600">Type</text>
            <text x="150" y="23" class="text-muted" font-size="11" font-weight="600">Numéro / Préfixe</text>
            <text x="400" y="23" class="text-muted" font-size="11" font-weight="600">Description</text>
            <text x="650" y="23" class="text-muted" font-size="11" font-weight="600">Statut</text>
            <text x="950" y="23" class="text-muted" font-size="11" font-weight="600">Actions</text>

            <!-- Ligne 1 - Bloqué -->
            <line x1="0" y1="35" x2="1056" y2="35" stroke="#E5E7EB"/>
            <rect x="20" y="45" width="60" height="20" rx="10" class="bg-error"/>
            <text x="50" y="59" class="text-error" font-size="10" text-anchor="middle">Bloqué</text>
            <text x="150" y="60" class="text-dark" font-size="11">+33899*</text>
            <text x="400" y="60" class="text-muted" font-size="11">Numéros surtaxés</text>
            <rect x="650" y="45" width="46" height="18" rx="9" class="bg-success"/>
            <text x="673" y="58" fill="#03543F" font-size="10" text-anchor="middle">Actif</text>
            <text x="950" y="60" class="text-primary" font-size="11">✎ Modifier</text>
            <text x="1020" y="60" class="text-error" font-size="11">×</text>

            <!-- Ligne 2 - Bloqué -->
            <line x1="0" y1="75" x2="1056" y2="75" stroke="#E5E7EB"/>
            <rect x="20" y="85" width="60" height="20" rx="10" class="bg-error"/>
            <text x="50" y="99" class="text-error" font-size="10" text-anchor="middle">Bloqué</text>
            <text x="150" y="100" class="text-dark" font-size="11">+33145000000</text>
            <text x="400" y="100" class="text-muted" font-size="11">Spam identifié</text>
            <rect x="650" y="85" width="46" height="18" rx="9" class="bg-success"/>
            <text x="673" y="98" fill="#03543F" font-size="10" text-anchor="middle">Actif</text>
            <text x="950" y="100" class="text-primary" font-size="11">✎ Modifier</text>
            <text x="1020" y="100" class="text-error" font-size="11">×</text>

            <!-- Ligne 3 - Autorisé -->
            <line x1="0" y1="115" x2="1056" y2="115" stroke="#E5E7EB"/>
            <rect x="20" y="125" width="70" height="20" rx="10" class="bg-success"/>
            <text x="55" y="139" fill="#03543F" font-size="10" text-anchor="middle">Autorisé</text>
            <text x="150" y="140" class="text-dark" font-size="11">+3314*</text>
            <text x="400" y="140" class="text-muted" font-size="11">Partenaires région parisienne</text>
            <rect x="650" y="125" width="46" height="18" rx="9" class="bg-success"/>
            <text x="673" y="138" fill="#03543F" font-size="10" text-anchor="middle">Actif</text>
            <text x="950" y="140" class="text-primary" font-size="11">✎ Modifier</text>
            <text x="1020" y="140" class="text-error" font-size="11">×</text>

            <!-- Ligne 4 -->
            <line x1="0" y1="155" x2="1056" y2="155" stroke="#E5E7EB"/>
            <rect x="20" y="165" width="60" height="20" rx="10" class="bg-error"/>
            <text x="50" y="179" class="text-error" font-size="10" text-anchor="middle">Bloqué</text>
            <text x="150" y="180" class="text-dark" font-size="11">Anonyme</text>
            <text x="400" y="180" class="text-muted" font-size="11">Bloquer tous les appels anonymes</text>
            <rect x="650" y="165" width="46" height="18" rx="9" class="bg-success"/>
            <text x="673" y="178" fill="#03543F" font-size="10" text-anchor="middle">Actif</text>
            <text x="950" y="180" class="text-primary" font-size="11">✎ Modifier</text>
            <text x="1020" y="180" class="text-error" font-size="11">×</text>
          </g>

          <!-- Pagination -->
          <g transform="translate(0, 350)">
            <text x="0" y="16" class="text-muted" font-size="11">Affichage 1-4 sur 4</text>
          </g>

          <!-- Mode par défaut -->
          <g transform="translate(0, 420)">
            <rect x="0" y="0" width="520" height="150" rx="8" fill="#FFFFFF" stroke="#E5E7EB"/>
            <text x="20" y="30" class="text-dark" font-size="14" font-weight="600">Mode par défaut</text>
            <line x1="20" y1="45" x2="500" y2="45" stroke="#E5E7EB"/>

            <g transform="translate(20, 65)">
              <rect x="0" y="0" width="20" height="20" rx="10" fill="#0050D7"/>
              <text x="10" y="15" class="text-white" font-size="10" text-anchor="middle">●</text>
              <text x="30" y="15" class="text-dark" font-size="11">Tout accepter sauf liste noire</text>

              <rect x="0" y="35" width="20" height="20" rx="10" fill="#FFFFFF" stroke="#D1D5DB"/>
              <text x="30" y="50" class="text-muted" font-size="11">Tout refuser sauf liste blanche</text>
            </g>
          </g>

          <!-- Stats -->
          <g transform="translate(540, 420)">
            <rect x="0" y="0" width="516" height="150" rx="8" fill="#FFFFFF" stroke="#E5E7EB"/>
            <text x="20" y="30" class="text-dark" font-size="14" font-weight="600">Statistiques de filtrage</text>
            <line x1="20" y1="45" x2="496" y2="45" stroke="#E5E7EB"/>

            <g transform="translate(20, 65)">
              <text x="0" y="15" class="text-muted" font-size="11">Fax bloqués ce mois</text>
              <text x="200" y="15" class="text-dark" font-size="11" font-weight="600">12</text>

              <text x="0" y="45" class="text-muted" font-size="11">Dernière tentative bloquée</text>
              <text x="200" y="45" class="text-dark" font-size="11">29/12/2024 08:30</text>

              <text x="0" y="75" class="text-muted" font-size="11">Règles actives</text>
              <text x="200" y="75" class="text-dark" font-size="11">4</text>
            </g>
          </g>
        </g>
      </g>
    </g>
  </g>
</svg>
