<?xml version="1.0" encoding="UTF-8"?>
<svg width="1100" height="550" viewBox="0 0 1100 550" fill="none" xmlns="http://www.w3.org/2000/svg">
  <title>Licence - SQL Server Licence History</title>
  <rect width="1100" height="550" fill="#F9FAFB"/>
  <g transform="translate(30, 30)">
    <text x="0" y="0" fill="#6B7280" font-family="system-ui, sans-serif" font-size="12">← Retour au détail de la licence</text>
  </g>
  <g transform="translate(30, 60)">
    <text x="0" y="0" fill="#1F2937" font-family="system-ui, sans-serif" font-size="22" font-weight="600">Historique SQL Server</text>
    <text x="0" y="28" fill="#6B7280" font-family="monospace" font-size="13">sql-11111</text>
  </g>
  <g transform="translate(30, 120)">
    <rect x="0" y="0" width="1040" height="410" rx="8" fill="white" stroke="#E5E7EB"/>
    <text x="20" y="30" fill="#1F2937" font-family="system-ui, sans-serif" font-size="14" font-weight="600">Historique des événements</text>
    <g transform="translate(20, 50)">
      <text x="0" y="0" fill="#6B7280" font-family="system-ui, sans-serif" font-size="11" font-weight="500">DATE</text>
      <text x="180" y="0" fill="#6B7280" font-family="system-ui, sans-serif" font-size="11" font-weight="500">ÉVÉNEMENT</text>
      <text x="400" y="0" fill="#6B7280" font-family="system-ui, sans-serif" font-size="11" font-weight="500">DÉTAILS</text>
      <text x="750" y="0" fill="#6B7280" font-family="system-ui, sans-serif" font-size="11" font-weight="500">MONTANT</text>
    </g>
    <line x1="20" y1="65" x2="1020" y2="65" stroke="#E5E7EB"/>
    <g transform="translate(20, 85)">
      <text x="0" y="0" fill="#1F2937" font-family="system-ui, sans-serif" font-size="12">01 déc. 2024 00:00</text>
      <rect x="180" y="-12" width="90" height="22" rx="4" fill="#DCFCE7"/><text x="192" y="4" fill="#16A34A" font-family="system-ui, sans-serif" font-size="10">Renouvellement</text>
      <text x="400" y="0" fill="#1F2937" font-family="system-ui, sans-serif" font-size="12">Facturation mensuelle automatique</text>
      <text x="750" y="0" fill="#1F2937" font-family="system-ui, sans-serif" font-size="12">€ 150.00</text>
    </g>
    <line x1="20" y1="110" x2="1020" y2="110" stroke="#F3F4F6"/>
    <g transform="translate(20, 130)">
      <text x="0" y="0" fill="#1F2937" font-family="system-ui, sans-serif" font-size="12">15 nov. 2024 10:30</text>
      <rect x="180" y="-12" width="100" height="22" rx="4" fill="#F3E8FF"/><text x="192" y="4" fill="#7C3AED" font-family="system-ui, sans-serif" font-size="10">Ajout de cores</text>
      <text x="400" y="0" fill="#1F2937" font-family="system-ui, sans-serif" font-size="12">4 cores → 8 cores (prorata)</text>
      <text x="750" y="0" fill="#1F2937" font-family="system-ui, sans-serif" font-size="12">€ 75.00</text>
    </g>
    <line x1="20" y1="155" x2="1020" y2="155" stroke="#F3F4F6"/>
    <g transform="translate(20, 175)">
      <text x="0" y="0" fill="#1F2937" font-family="system-ui, sans-serif" font-size="12">01 nov. 2024 00:00</text>
      <rect x="180" y="-12" width="90" height="22" rx="4" fill="#DCFCE7"/><text x="192" y="4" fill="#16A34A" font-family="system-ui, sans-serif" font-size="10">Renouvellement</text>
      <text x="400" y="0" fill="#1F2937" font-family="system-ui, sans-serif" font-size="12">Facturation mensuelle automatique</text>
      <text x="750" y="0" fill="#1F2937" font-family="system-ui, sans-serif" font-size="12">€ 150.00</text>
    </g>
    <line x1="20" y1="200" x2="1020" y2="200" stroke="#F3F4F6"/>
    <g transform="translate(20, 220)">
      <text x="0" y="0" fill="#1F2937" font-family="system-ui, sans-serif" font-size="12">20 oct. 2024 14:22</text>
      <rect x="180" y="-12" width="95" height="22" rx="4" fill="#EFF6FF"/><text x="192" y="4" fill="#0050D7" font-family="system-ui, sans-serif" font-size="10">Régénération clé</text>
      <text x="400" y="0" fill="#1F2937" font-family="system-ui, sans-serif" font-size="12">Nouvelle clé de produit générée</text>
      <text x="750" y="0" fill="#6B7280" font-family="system-ui, sans-serif" font-size="12">-</text>
    </g>
    <line x1="20" y1="245" x2="1020" y2="245" stroke="#F3F4F6"/>
    <g transform="translate(20, 265)">
      <text x="0" y="0" fill="#1F2937" font-family="system-ui, sans-serif" font-size="12">01 oct. 2024 00:00</text>
      <rect x="180" y="-12" width="90" height="22" rx="4" fill="#DCFCE7"/><text x="192" y="4" fill="#16A34A" font-family="system-ui, sans-serif" font-size="10">Renouvellement</text>
      <text x="400" y="0" fill="#1F2937" font-family="system-ui, sans-serif" font-size="12">Facturation mensuelle automatique</text>
      <text x="750" y="0" fill="#1F2937" font-family="system-ui, sans-serif" font-size="12">€ 150.00</text>
    </g>
    <line x1="20" y1="290" x2="1020" y2="290" stroke="#F3F4F6"/>
    <g transform="translate(20, 310)">
      <text x="0" y="0" fill="#1F2937" font-family="system-ui, sans-serif" font-size="12">01 avr. 2024 08:00</text>
      <rect x="180" y="-12" width="70" height="22" rx="4" fill="#0050D7"/><text x="192" y="4" fill="white" font-family="system-ui, sans-serif" font-size="10">Création</text>
      <text x="400" y="0" fill="#1F2937" font-family="system-ui, sans-serif" font-size="12">SQL Server 2022 Standard - 4 cores</text>
      <text x="750" y="0" fill="#1F2937" font-family="system-ui, sans-serif" font-size="12">€ 150.00</text>
    </g>
    <g transform="translate(20, 370)">
      <rect x="0" y="0" width="250" height="30" rx="4" fill="#F9FAFB"/>
      <text x="15" y="20" fill="#1F2937" font-family="system-ui, sans-serif" font-size="12" font-weight="500">Total facturé : € 675.00 HT</text>
    </g>
  </g>
</svg>
