<svg xmlns="http://www.w3.org/2000/svg" viewBox="0 0 1440 900" width="1440" height="900">
  <defs>
    <style>
      .bg-header { fill: #000E9C; }
      .bg-white { fill: #FFFFFF; }
      .bg-muted { fill: #F9FAFB; }
      .bg-row-alt { fill: #F3F4F6; }
      .text-dark { font-family: 'Source Sans Pro', sans-serif; font-size: 14px; fill: #1F2937; }
      .text-muted { font-family: 'Source Sans Pro', sans-serif; font-size: 13px; fill: #6B7280; }
      .text-white { font-family: 'Source Sans Pro', sans-serif; fill: #FFFFFF; }
      .text-title { font-family: 'Source Sans Pro', sans-serif; font-size: 24px; font-weight: 600; fill: #1F2937; }
      .text-section { font-family: 'Source Sans Pro', sans-serif; font-size: 18px; font-weight: 600; fill: #1F2937; }
      .text-label { font-family: 'Source Sans Pro', sans-serif; font-size: 14px; font-weight: 500; fill: #374151; }
      .text-link { font-family: 'Source Sans Pro', sans-serif; font-size: 14px; fill: #0050D7; }
      .border { stroke: #E5E7EB; stroke-width: 1; fill: none; }
      .btn-primary { fill: #0050D7; }
      .btn-default { fill: #FFFFFF; stroke: #D1D5DB; stroke-width: 1; }
      .checkbox-checked { fill: #0050D7; }
      .checkbox-empty { fill: #FFFFFF; stroke: #D1D5DB; stroke-width: 2; }
    </style>
  </defs>

  <!-- Background -->
  <rect width="1440" height="900" class="bg-muted"/>

  <!-- Header -->
  <rect width="1440" height="60" class="bg-header"/>
  <text x="80" y="38" class="text-white" font-size="18" font-weight="600">OVHcloud</text>
  <text x="200" y="38" class="text-white" font-size="14">Télécom</text>

  <!-- Sidebar -->
  <rect x="0" y="60" width="240" height="840" class="bg-white"/>
  <rect x="240" y="60" width="1" height="840" class="border"/>

  <!-- Sidebar items -->
  <text x="20" y="100" class="text-dark" font-weight="600">Téléphonie</text>
  <rect x="0" y="115" width="240" height="36" fill="#E8F0FE"/>
  <text x="20" y="138" class="text-dark">Mon groupe VoIP</text>
  <text x="20" y="170" class="text-muted">Administration</text>
  <text x="30" y="195" class="text-muted">Options du groupe</text>
  <text x="30" y="220" class="text-link">Lignes du groupe</text>

  <!-- Main content -->
  <g transform="translate(280, 80)">
    <!-- Back link -->
    <text x="0" y="0" class="text-link" font-size="14">← Retour à l'administration</text>

    <!-- Title -->
    <text x="0" y="45" class="text-title">Lignes du groupe</text>

    <!-- Info section -->
    <g transform="translate(0, 80)">
      <rect x="0" y="0" width="750" height="80" rx="8" class="bg-white border"/>
      <text x="24" y="35" class="text-section">Informations</text>
      <text x="24" y="60" class="text-dark">Ce groupe contient 5 lignes et 3 numéros alias.</text>
    </g>

    <!-- Group selection -->
    <g transform="translate(0, 180)">
      <rect x="0" y="0" width="750" height="480" rx="8" class="bg-white border"/>
      <text x="24" y="35" class="text-section">Sélectionner un groupe source</text>
      <text x="24" y="60" class="text-dark">Choisissez le groupe depuis lequel vous souhaitez attacher des services.</text>

      <!-- Table -->
      <g transform="translate(0, 80)">
        <rect x="0" y="0" width="750" height="40" fill="#F9FAFB"/>
        <line x1="0" y1="40" x2="750" y2="40" stroke="#E5E7EB"/>
        <text x="24" y="26" class="text-label">Groupe de téléphonie</text>
        <text x="400" y="26" class="text-label">Identifiant</text>

        <!-- Row 1 -->
        <g transform="translate(0, 40)">
          <rect x="0" y="0" width="750" height="50" class="bg-white"/>
          <line x1="0" y1="50" x2="750" y2="50" stroke="#E5E7EB"/>
          <text x="24" y="32" class="text-link">Autre groupe VoIP</text>
          <text x="400" y="32" class="text-muted">GP67890</text>
        </g>

        <!-- Row 2 -->
        <g transform="translate(0, 90)">
          <rect x="0" y="0" width="750" height="50" class="bg-row-alt"/>
          <line x1="0" y1="50" x2="750" y2="50" stroke="#E5E7EB"/>
          <text x="24" y="32" class="text-link">Groupe secondaire</text>
          <text x="400" y="32" class="text-muted">GP11111</text>
        </g>

        <!-- Row 3 (disabled - current group) -->
        <g transform="translate(0, 140)">
          <rect x="0" y="0" width="750" height="50" class="bg-white"/>
          <line x1="0" y1="50" x2="750" y2="50" stroke="#E5E7EB"/>
          <text x="24" y="32" class="text-muted">Mon groupe VoIP (groupe actuel)</text>
          <text x="400" y="32" class="text-muted">GP12345</text>
        </g>
      </g>

      <!-- Selected group services -->
      <g transform="translate(24, 310)">
        <text x="0" y="0" class="text-section">Services à attacher depuis "Autre groupe VoIP"</text>
        <text x="0" y="30" class="text-dark">Sélectionnez les services que vous souhaitez attacher à ce groupe.</text>

        <!-- Lignes -->
        <text x="0" y="65" class="text-label">Lignes</text>
        <g transform="translate(0, 80)">
          <rect x="0" y="0" width="18" height="18" rx="3" class="checkbox-checked"/>
          <text x="5" y="14" class="text-white" font-size="12">✓</text>
          <text x="30" y="14" class="text-dark">+33 1 23 45 67 99</text>
          <text x="180" y="14" class="text-muted">Ligne bureau</text>
        </g>

        <g transform="translate(0, 105)">
          <rect x="0" y="0" width="18" height="18" rx="3" class="checkbox-empty"/>
          <text x="30" y="14" class="text-dark">+33 1 23 45 67 98</text>
          <text x="180" y="14" class="text-muted">Ligne accueil</text>
        </g>
      </g>

      <!-- Buttons -->
      <g transform="translate(24, 440)">
        <rect x="0" y="0" width="120" height="36" rx="4" class="btn-primary"/>
        <text x="30" y="23" class="text-white">Attacher</text>

        <rect x="140" y="0" width="160" height="36" rx="4" class="btn-default"/>
        <text x="155" y="23" class="text-dark">Choisir un autre</text>
      </g>
    </g>
  </g>
</svg>
