<svg xmlns="http://www.w3.org/2000/svg" viewBox="0 0 1440 900" width="1440" height="900">
  <defs>
    <style>
      .bg-header { fill: #000E9C; }
      .bg-muted { fill: #F9FAFB; }
      .bg-white { fill: #FFFFFF; }
      .text-white { font-family: 'Source Sans Pro', sans-serif; fill: #FFFFFF; }
      .text-body { font-family: 'Source Sans Pro', sans-serif; font-size: 14px; fill: #1F2937; }
      .text-muted { font-family: 'Source Sans Pro', sans-serif; font-size: 14px; fill: #6B7280; }
      .text-primary { font-family: 'Source Sans Pro', sans-serif; fill: #0050D7; }
      .text-title { font-family: 'Source Sans Pro', sans-serif; font-size: 24px; font-weight: 600; fill: #1F2937; }
      .text-tile-title { font-family: 'Source Sans Pro', sans-serif; font-size: 16px; font-weight: 600; fill: #1F2937; }
      .border { stroke: #E5E7EB; stroke-width: 1; fill: none; }
      .text-danger { fill: #DC2626; }
    </style>
  </defs>
  
  <!-- Background -->
  <rect width="1440" height="900" class="bg-muted"/>
  
  <!-- Header OVH -->
  <rect width="1440" height="60" class="bg-header"/>
  <text x="80" y="38" class="text-white" font-size="20" font-weight="bold">OVHcloud</text>
  <text x="700" y="38" class="text-white" font-size="14" font-weight="600">Telecom</text>
  
  <!-- Sidebar -->
  <rect x="0" y="60" width="240" height="840" class="bg-white"/>
  <rect x="240" y="60" width="1" height="840" fill="#E5E7EB"/>
  <rect x="0" y="120" width="240" height="40" fill="#E8F0FE"/>
  <text x="20" y="146" class="text-primary" font-size="14" font-weight="600">Téléphonie</text>
  
  <!-- Main Content -->
  <g transform="translate(280, 100)">
    <!-- Breadcrumb -->
    <text class="text-muted" font-size="13">Telecom / VoIP / group-abc123456 /</text>
    <text x="260" class="text-body" font-size="13" font-weight="500">Administration</text>
    
    <!-- Title -->
    <text y="55" class="text-title">Ma Téléphonie "Téléphonie Siège"</text>
    
    <!-- Tabs -->
    <g transform="translate(0, 90)">
      <text x="0" y="0" class="text-muted" font-size="13">Dashboard</text>
      <text x="90" y="0" class="text-muted" font-size="13">Facturation</text>
      <rect x="175" y="-18" width="115" height="28" rx="4" fill="#E8F0FE"/>
      <text x="185" y="0" class="text-primary" font-size="13" font-weight="500">Administration</text>
      <text x="330" y="0" class="text-muted" font-size="13">Carnet contacts</text>
      <text x="470" y="0" class="text-muted" font-size="13">Commander</text>
    </g>
    <line x1="0" y1="105" x2="1100" y2="105" stroke="#E5E7EB"/>
    
    <!-- Sub-navigation -->
    <text y="140" class="text-primary" font-size="13">← Retour à l'administration de groupe</text>
    
    <!-- Actions Grid -->
    <g transform="translate(0, 170)">
      <!-- Row 1 -->
      <rect width="340" height="130" rx="8" class="bg-white"/>
      <rect width="340" height="130" rx="8" class="border"/>
      <text x="20" y="40" class="text-tile-title">Options du groupe</text>
      <text x="20" y="70" class="text-muted" font-size="13">Configurez les options générales</text>
      <text x="20" y="90" class="text-muted" font-size="13">de votre groupe de facturation.</text>
      <text x="280" y="110" class="text-primary" font-size="14">→</text>
      
      <rect x="360" width="340" height="130" rx="8" class="bg-white"/>
      <rect x="360" width="340" height="130" rx="8" class="border"/>
      <text x="380" y="40" class="text-tile-title">Regroupement de lignes</text>
      <text x="380" y="70" class="text-muted" font-size="13">Déplacez des lignes entre vos</text>
      <text x="380" y="90" class="text-muted" font-size="13">différents groupes de facturation.</text>
      <text x="640" y="110" class="text-primary" font-size="14">→</text>
      
      <rect x="720" width="340" height="130" rx="8" class="bg-white"/>
      <rect x="720" width="340" height="130" rx="8" class="border"/>
      <text x="740" y="40" class="text-tile-title">Portabilités en cours</text>
      <text x="740" y="70" class="text-muted" font-size="13">Consultez et gérez vos demandes</text>
      <text x="740" y="90" class="text-muted" font-size="13">de portabilité de numéros.</text>
      <text x="1000" y="110" class="text-primary" font-size="14">→</text>
      
      <!-- Row 2 -->
      <rect y="150" width="340" height="130" rx="8" class="bg-white"/>
      <rect y="150" width="340" height="130" rx="8" class="border"/>
      <text x="20" y="190" class="text-tile-title">Ajouter un groupe</text>
      <text x="20" y="220" class="text-muted" font-size="13">Créez un nouveau groupe</text>
      <text x="20" y="240" class="text-muted" font-size="13">de facturation téléphonie.</text>
      <text x="280" y="260" class="text-primary" font-size="14">→</text>
      
      <rect x="360" y="150" width="340" height="130" rx="8" class="bg-white"/>
      <rect x="360" y="150" width="340" height="130" rx="8" class="border"/>
      <text x="380" y="190" class="text-tile-title">Manager marque blanche</text>
      <text x="380" y="220" class="text-muted" font-size="13">Gérez l'interface marque blanche</text>
      <text x="380" y="240" class="text-muted" font-size="13">pour vos clients.</text>
      <text x="640" y="260" class="text-primary" font-size="14">→</text>
      
      <rect x="720" y="150" width="340" height="130" rx="8" class="bg-white"/>
      <rect x="720" y="150" width="340" height="130" rx="8" class="border"/>
      <text x="740" y="190" class="text-tile-title">Supprimer le groupe</text>
      <text x="740" y="220" class="text-muted" font-size="13">Supprimez définitivement ce</text>
      <text x="740" y="240" class="text-muted" font-size="13">groupe de facturation.</text>
      <text x="1000" y="260" class="text-danger" font-size="14">→</text>
    </g>
    
    <!-- Portabilities Preview -->
    <rect y="470" width="1060" height="220" rx="8" class="bg-white"/>
    <rect y="470" width="1060" height="220" rx="8" class="border"/>
    <text x="20" y="510" class="text-tile-title">Portabilités en cours</text>
    
    <!-- Table Header -->
    <rect x="1" y="530" width="1058" height="40" fill="#F3F4F6"/>
    <text x="20" y="557" class="text-body" font-weight="600">Numéro</text>
    <text x="250" y="557" class="text-body" font-weight="600">Type</text>
    <text x="400" y="557" class="text-body" font-weight="600">Date demande</text>
    <text x="600" y="557" class="text-body" font-weight="600">Date prévue</text>
    <text x="800" y="557" class="text-body" font-weight="600">Statut</text>
    
    <!-- Row 1 -->
    <text x="20" y="600" class="text-body">+33 1 23 45 67 89</text>
    <text x="250" y="600" class="text-body">Portabilité entrante</text>
    <text x="400" y="600" class="text-body">15/12/2025</text>
    <text x="600" y="600" class="text-body">02/01/2026</text>
    <rect x="800" y="585" width="80" height="22" rx="11" fill="#FEF3C7"/>
    <text x="815" y="600" font-family="Source Sans Pro" font-size="12" fill="#92400E">En cours</text>
    
    <!-- Row 2 -->
    <line x1="1" y1="620" x2="1059" y2="620" stroke="#E5E7EB"/>
    <rect x="1" y="621" width="1058" height="50" fill="#F9FAFB"/>
    <text x="20" y="655" class="text-body">+33 9 87 65 43 21</text>
    <text x="250" y="655" class="text-body">Portabilité entrante</text>
    <text x="400" y="655" class="text-body">20/12/2025</text>
    <text x="600" y="655" class="text-body">05/01/2026</text>
    <rect x="800" y="640" width="80" height="22" rx="11" fill="#DBEAFE"/>
    <text x="815" y="655" font-family="Source Sans Pro" font-size="12" fill="#1E40AF">Validée</text>
  </g>
</svg>
