<svg xmlns="http://www.w3.org/2000/svg" viewBox="0 0 1440 900" width="1440" height="900">
  <defs>
    <style>
      .bg-header { fill: #000E9C; }
      .bg-main { fill: #F6F6F9; }
      .bg-white { fill: #FFFFFF; }
      .bg-primary { fill: #0050D7; }
      .bg-success { fill: #DEF7EC; }
      .border { stroke: #E5E7EB; stroke-width: 1; fill: none; }
      .table-header { fill: #F9FAFB; }
      .text-white { fill: #FFFFFF; font-family: 'Source Sans Pro', sans-serif; }
      .text-dark { fill: #1F2937; font-family: 'Source Sans Pro', sans-serif; }
      .text-muted { fill: #6B7280; font-family: 'Source Sans Pro', sans-serif; }
      .text-primary { fill: #0050D7; font-family: 'Source Sans Pro', sans-serif; }
    </style>
  </defs>

  <rect width="1440" height="900" class="bg-main"/>

  <!-- NAV1 -->
  <rect width="1440" height="50" fill="#000E9C"/>
  <text x="40" y="32" fill="#FFFFFF" font-family="Source Sans Pro" font-size="14" opacity="0.7">Accueil</text>
  <text x="110" y="32" fill="#FFFFFF" font-family="Source Sans Pro" font-size="14" opacity="0.7">Public Cloud</text>
  <text x="210" y="32" fill="#FFFFFF" font-family="Source Sans Pro" font-size="14" opacity="0.7">Hosted Private Cloud</text>
  <text x="370" y="32" fill="#FFFFFF" font-family="Source Sans Pro" font-size="14" opacity="0.7">Bare Metal Cloud</text>
  <text x="510" y="32" fill="#FFFFFF" font-family="Source Sans Pro" font-size="14" font-weight="600">Web Cloud</text>
  <rect x="505" y="46" width="75" height="3" fill="#FFFFFF"/>
  <text x="620" y="32" fill="#FFFFFF" font-family="Source Sans Pro" font-size="14" opacity="0.7">Network</text>
  <text x="700" y="32" fill="#FFFFFF" font-family="Source Sans Pro" font-size="14" opacity="0.7">IAM / Securite</text>
  <text x="810" y="32" fill="#FFFFFF" font-family="Source Sans Pro" font-size="14" opacity="0.7">Licences</text>
  <rect x="1280" y="12" width="140" height="26" rx="13" fill="rgba(255,255,255,0.2)"/>
  <rect x="1285" y="15" width="26" height="20" rx="10" fill="#DEF7EC"/>
  <text x="1292" y="29" fill="#03543F" font-size="10" font-weight="600">OK</text>
  <text x="1320" y="29" fill="#FFFFFF" font-size="12">ab12345-ovh</text>

  <!-- NAV2 -->
  <rect x="0" y="50" width="1440" height="40" fill="#FFFFFF"/>
  <line x1="0" y1="89" x2="1440" y2="89" stroke="#E5E7EB"/>
  <text x="40" y="75" fill="#6B7280" font-family="Source Sans Pro" font-size="14">Accueil</text>
  <text x="110" y="75" fill="#6B7280" font-family="Source Sans Pro" font-size="14">Domaines et DNS</text>
  <text x="240" y="75" fill="#6B7280" font-family="Source Sans Pro" font-size="14">Hébergement</text>
  <text x="345" y="75" fill="#6B7280" font-family="Source Sans Pro" font-size="14">Wordpress</text>
  <text x="430" y="75" fill="#6B7280" font-family="Source Sans Pro" font-size="14">Emails</text>
  <text x="500" y="75" fill="#0050D7" font-family="Source Sans Pro" font-size="14" font-weight="600">VoIP</text>
  <rect x="495" y="85" width="35" height="3" fill="#0050D7"/>
  <text x="550" y="75" fill="#6B7280" font-family="Source Sans Pro" font-size="14">Accès</text>
  <text x="1350" y="75" fill="#0050D7" font-family="Source Sans Pro" font-size="13">Guides</text>

  <g transform="translate(0, 105)">
    <g transform="translate(24, 0)">
      <!-- LEFT PANEL -->
      <rect x="0" y="0" width="280" height="765" rx="8" class="bg-white"/>
      <rect x="0" y="0" width="280" height="765" rx="8" class="border"/>
      <rect x="12" y="12" width="256" height="34" rx="4" fill="#F9FAFB" stroke="#E5E7EB"/>
      <text x="40" y="34" class="text-muted" font-size="12">Rechercher un groupe...</text>
      <text x="26" y="34" class="text-muted" font-size="14">🔍</text>
      <text x="12" y="68" class="text-muted" font-size="11">2 groupes</text>

      <g transform="translate(6, 80)">
        <rect x="0" y="0" width="268" height="72" rx="6" fill="#E8F0FE"/>
        <circle cx="28" cy="36" r="18" fill="#0050D7"/>
        <text x="28" y="41" fill="#FFFFFF" font-size="10" text-anchor="middle">VoIP</text>
        <text x="56" y="26" class="text-dark" font-size="12" font-weight="500">Compte principal entreprise</text>
        <text x="56" y="44" class="text-muted" font-size="11">am12345-ovh</text>
        <text x="56" y="60" class="text-muted" font-size="10">☎️ 18 · 🔢 6 · 📠 2</text>
        <rect x="200" y="20" width="46" height="18" rx="9" fill="#DEF7EC"/>
        <text x="223" y="33" fill="#03543F" font-size="10" text-anchor="middle">Actif</text>
      </g>
    </g>

    <g transform="translate(320, 0)">
      <!-- RIGHT PANEL -->
      <rect x="0" y="0" width="1096" height="765" rx="8" class="bg-white"/>
      <rect x="0" y="0" width="1096" height="765" rx="8" class="border"/>

      <g transform="translate(20, 0)">
        <text x="0" y="24" class="text-dark" font-size="18" font-weight="600">Compte principal entreprise</text>

        <!-- NAV3 TABS -->
        <g transform="translate(0, 38)">
          <rect x="0" y="0" width="80" height="26" rx="4" fill="#FFFFFF" stroke="#0050D7"/>
          <text x="40" y="17" fill="#0050D7" font-size="11" text-anchor="middle">Dashboard</text>

          <rect x="84" y="0" width="65" height="26" rx="4" fill="#0050D7"/>
          <text x="116" y="17" fill="#FFFFFF" font-size="11" text-anchor="middle">Services</text>

          <rect x="153" y="0" width="75" height="26" rx="4" fill="#FFFFFF" stroke="#0050D7"/>
          <text x="190" y="17" fill="#0050D7" font-size="11" text-anchor="middle">Répertoire</text>

          <rect x="232" y="0" width="80" height="26" rx="4" fill="#FFFFFF" stroke="#0050D7"/>
          <text x="272" y="17" fill="#0050D7" font-size="11" text-anchor="middle">Facturation</text>

          <rect x="316" y="0" width="100" height="26" rx="4" fill="#FFFFFF" stroke="#0050D7"/>
          <text x="366" y="17" fill="#0050D7" font-size="11" text-anchor="middle">Administration</text>
        </g>

        <!-- CONTENU Services -->
        <g transform="translate(0, 80)">
          <!-- Search + filters -->
          <rect x="0" y="0" width="250" height="32" rx="4" fill="#F9FAFB" stroke="#E5E7EB"/>
          <text x="12" y="21" class="text-muted" font-size="11">Rechercher un service...</text>

          <rect x="270" y="0" width="150" height="32" rx="4" fill="#FFFFFF" stroke="#E5E7EB"/>
          <text x="282" y="21" class="text-dark" font-size="11">Type de service</text>
          <text x="395" y="21" class="text-muted" font-size="10">▼</text>

          <!-- Table -->
          <g transform="translate(0, 50)">
            <rect x="0" y="0" width="1036" height="40" rx="4" fill="#F9FAFB"/>
            <text x="20" y="26" class="text-dark" font-size="11" font-weight="600">Numéro</text>
            <text x="220" y="26" class="text-dark" font-size="11" font-weight="600">Description</text>
            <text x="450" y="26" class="text-dark" font-size="11" font-weight="600">Type</text>
            <text x="600" y="26" class="text-dark" font-size="11" font-weight="600">Configuration</text>
            <text x="800" y="26" class="text-dark" font-size="11" font-weight="600">Statut</text>
            <text x="950" y="26" class="text-dark" font-size="11" font-weight="600">Actions</text>

            <!-- Row 1 -->
            <g transform="translate(0, 50)">
              <text x="20" y="18" class="text-primary" font-size="11">0033 9 72 10 12 34</text>
              <text x="220" y="18" class="text-dark" font-size="11">Ligne principale accueil</text>
              <text x="450" y="18" class="text-dark" font-size="11">Ligne</text>
              <text x="600" y="18" class="text-dark" font-size="11">SIP</text>
              <rect x="800" y="4" width="46" height="18" rx="9" fill="#DEF7EC"/>
              <text x="823" y="17" fill="#03543F" font-size="10" text-anchor="middle">Actif</text>
              <text x="960" y="18" class="text-muted" font-size="14">...</text>
              <line x1="0" y1="35" x2="1036" y2="35" stroke="#E5E7EB"/>
            </g>

            <!-- Row 2 -->
            <g transform="translate(0, 95)">
              <text x="20" y="18" class="text-primary" font-size="11">0033 9 72 10 12 35</text>
              <text x="220" y="18" class="text-dark" font-size="11">Poste direction</text>
              <text x="450" y="18" class="text-dark" font-size="11">Ligne</text>
              <text x="600" y="18" class="text-dark" font-size="11">SIP + Voicemail</text>
              <rect x="800" y="4" width="46" height="18" rx="9" fill="#DEF7EC"/>
              <text x="823" y="17" fill="#03543F" font-size="10" text-anchor="middle">Actif</text>
              <text x="960" y="18" class="text-muted" font-size="14">...</text>
              <line x1="0" y1="35" x2="1036" y2="35" stroke="#E5E7EB"/>
            </g>

            <!-- Row 3 -->
            <g transform="translate(0, 140)">
              <text x="20" y="18" class="text-primary" font-size="11">0033 8 00 12 34 56</text>
              <text x="220" y="18" class="text-dark" font-size="11">Numéro vert support</text>
              <text x="450" y="18" class="text-dark" font-size="11">Numéro</text>
              <text x="600" y="18" class="text-dark" font-size="11">File d'attente</text>
              <rect x="800" y="4" width="46" height="18" rx="9" fill="#DEF7EC"/>
              <text x="823" y="17" fill="#03543F" font-size="10" text-anchor="middle">Actif</text>
              <text x="960" y="18" class="text-muted" font-size="14">...</text>
              <line x1="0" y1="35" x2="1036" y2="35" stroke="#E5E7EB"/>
            </g>

            <!-- Row 4 -->
            <g transform="translate(0, 185)">
              <text x="20" y="18" class="text-primary" font-size="11">0033 9 72 10 77 77</text>
              <text x="220" y="18" class="text-dark" font-size="11">Fax entreprise</text>
              <text x="450" y="18" class="text-dark" font-size="11">Fax</text>
              <text x="600" y="18" class="text-dark" font-size="11">Fax virtuel</text>
              <rect x="800" y="4" width="46" height="18" rx="9" fill="#DEF7EC"/>
              <text x="823" y="17" fill="#03543F" font-size="10" text-anchor="middle">Actif</text>
              <text x="960" y="18" class="text-muted" font-size="14">...</text>
              <line x1="0" y1="35" x2="1036" y2="35" stroke="#E5E7EB"/>
            </g>

            <!-- Row 5 -->
            <g transform="translate(0, 230)">
              <text x="20" y="18" class="text-primary" font-size="11">0033 9 72 10 80 00</text>
              <text x="220" y="18" class="text-dark" font-size="11">Salle de conférence</text>
              <text x="450" y="18" class="text-dark" font-size="11">Numéro</text>
              <text x="600" y="18" class="text-dark" font-size="11">Conférence</text>
              <rect x="800" y="4" width="46" height="18" rx="9" fill="#DEF7EC"/>
              <text x="823" y="17" fill="#03543F" font-size="10" text-anchor="middle">Actif</text>
              <text x="960" y="18" class="text-muted" font-size="14">...</text>
            </g>
          </g>

          <!-- Pagination -->
          <g transform="translate(0, 360)">
            <text x="0" y="16" class="text-muted" font-size="11">Affichage 1-5 sur 26 services</text>
            <g transform="translate(880, 0)">
              <rect x="0" y="0" width="28" height="26" rx="4" fill="#E5E7EB"/>
              <text x="14" y="17" class="text-muted" font-size="12" text-anchor="middle">‹</text>
              <rect x="34" y="0" width="28" height="26" rx="4" fill="#0050D7"/>
              <text x="48" y="17" fill="#FFFFFF" font-size="11" text-anchor="middle">1</text>
              <rect x="68" y="0" width="28" height="26" rx="4" fill="#FFFFFF" stroke="#0050D7"/>
              <text x="82" y="17" fill="#0050D7" font-size="11" text-anchor="middle">2</text>
              <rect x="102" y="0" width="28" height="26" rx="4" fill="#FFFFFF" stroke="#0050D7"/>
              <text x="116" y="17" fill="#0050D7" font-size="11" text-anchor="middle">3</text>
              <rect x="136" y="0" width="28" height="26" rx="4" fill="#FFFFFF" stroke="#0050D7"/>
              <text x="150" y="17" fill="#0050D7" font-size="12" text-anchor="middle">›</text>
            </g>
          </g>
        </g>
      </g>
    </g>
  </g>
</svg>
