<svg xmlns="http://www.w3.org/2000/svg" viewBox="0 0 1440 900" width="1440" height="900">
  <defs><style>.bg-muted{fill:#F9FAFB}.bg-white{fill:#FFF}.bg-header{fill:#000E9C}.bg-overlay{fill:rgba(0,0,0,0.5)}.text-body{font-family:'Source Sans Pro',sans-serif;font-size:14px;fill:#1F2937}.text-muted{font-family:'Source Sans Pro',sans-serif;font-size:14px;fill:#6B7280}.text-white{font-family:'Source Sans Pro',sans-serif;fill:#FFF}.text-title{font-family:'Source Sans Pro',sans-serif;font-size:20px;font-weight:600;fill:#1F2937}.modal-shadow{filter:drop-shadow(0 10px 25px rgba(0,0,0,0.2))}</style></defs>
  <rect width="1440" height="900" class="bg-muted"/>
  <g id="header"><rect width="1440" height="60" class="bg-header"/><text x="20" y="38" class="text-white" font-size="20" font-weight="bold">OVHcloud</text></g>
  <g id="sidebar" transform="translate(0,60)"><rect width="240" height="840" class="bg-white" opacity="0.5"/></g>
  <g id="content" transform="translate(240,60)" opacity="0.3"><rect width="1200" height="840" class="bg-muted"/></g>
  <rect width="1440" height="900" fill="rgba(0,0,0,0.5)"/>
  <g class="modal-shadow" transform="translate(420,200)">
    <rect x="0" y="0" width="600" height="400" rx="12" fill="#FFF"/>
    <g transform="translate(0,0)">
      <rect x="0" y="0" width="600" height="60" rx="12 12 0 0" fill="#F3F4F6"/>
      <text x="24" y="38" class="text-title">Régler mon solde</text>
      <text x="560" y="38" class="text-muted" font-size="20" style="cursor:pointer">×</text>
    </g>
    <g transform="translate(24,80)">
      <text class="text-body">Vous êtes sur le point de régler votre solde impayé.</text>
      <g transform="translate(0,40)">
        <rect x="0" y="0" width="552" height="80" rx="6" fill="#FEF3C7" stroke="#F59E0B"/>
        <text x="20" y="30" class="text-body" font-weight="600" fill="#92400E">Montant à régler</text>
        <text x="20" y="60" class="text-body" font-size="24" font-weight="600" fill="#92400E">99,90 €</text>
      </g>
      <g transform="translate(0,140)">
        <text class="text-body" font-weight="600">Moyen de paiement</text>
        <g transform="translate(0,25)">
          <rect x="0" y="0" width="552" height="50" rx="4" fill="#FFF" stroke="#D1D5DB"/>
          <text x="20" y="32" class="text-body">💳 Carte bancaire •••• 4532 (par défaut)</text>
          <text x="520" y="32" class="text-muted">▼</text>
        </g>
      </g>
      <g transform="translate(0,230)">
        <rect x="0" y="0" width="16" height="16" rx="2" fill="#0050D7" stroke="#0050D7"/>
        <text x="26" y="13" class="text-body" font-size="13">J'accepte les conditions générales de vente</text>
      </g>
    </g>
    <g transform="translate(24,340)">
      <line x1="0" y1="0" x2="552" y2="0" stroke="#E5E7EB"/>
      <g transform="translate(280,20)">
        <rect x="0" y="0" width="130" height="40" rx="4" fill="#FFF" stroke="#D1D5DB"/><text x="40" y="26" class="text-body">Annuler</text>
      </g>
      <g transform="translate(420,20)">
        <rect x="0" y="0" width="130" height="40" rx="4" fill="#0050D7"/><text x="25" y="26" fill="#FFF" font-size="14">Payer 99,90 €</text>
      </g>
    </g>
  </g>
</svg>
