<svg xmlns="http://www.w3.org/2000/svg" viewBox="0 0 1440 900" width="1440" height="900">
  <defs>
    <style>
      .bg-main { fill: #F6F6F9; }
      .bg-header { fill: #000E9C; }
      .bg-white { fill: #FFFFFF; }
      .border { stroke: #E5E7EB; stroke-width: 1; fill: none; }
      .text-white { fill: #FFFFFF; font-family: 'Source Sans Pro', sans-serif; }
      .text-dark { fill: #1F2937; font-family: 'Source Sans Pro', sans-serif; }
      .text-muted { fill: #6B7280; font-family: 'Source Sans Pro', sans-serif; }
      .text-primary { fill: #0050D7; font-family: 'Source Sans Pro', sans-serif; }
    </style>
  </defs>

  <!-- Background -->
  <rect width="1440" height="900" class="bg-main"/>

  <!-- NAV1 - Header OVH -->
  <rect width="1440" height="50" class="bg-header"/>
  <text x="40" y="32" class="text-white" font-size="14" opacity="0.7">Accueil</text>
  <text x="700" y="32" class="text-white" font-size="14" font-weight="600">Espace client</text>
  <rect x="695" y="46" width="90" height="3" fill="#FFFFFF"/>

  <!-- NAV2 -->
  <rect x="0" y="50" width="1440" height="40" class="bg-white"/>
  <line x1="0" y1="89" x2="1440" y2="89" stroke="#E5E7EB"/>
  <text x="40" y="75" class="text-primary" font-size="14" font-weight="600">Serveur dédié</text>
  <rect x="35" y="85" width="100" height="3" fill="#0050D7"/>

  <!-- Main Content Area -->
  <g transform="translate(100, 120)">
    <!-- Page Title -->
    <text x="0" y="0" class="text-dark" font-size="18" font-weight="600">ns12345.ovh.net</text>

    <!-- Subscription Tile Component -->
    <g transform="translate(0, 40)">
      <rect x="0" y="0" width="450" height="350" rx="8" fill="#FFFFFF" stroke="#E5E7EB"/>

      <!-- Tile Header -->
      <rect x="0" y="0" width="450" height="45" rx="8" fill="#F9FAFB"/>
      <text x="20" y="28" class="text-dark" font-size="14" font-weight="600">Abonnement</text>

      <!-- Creation Date -->
      <g transform="translate(20, 65)">
        <text x="0" y="0" class="text-muted" font-size="11">Date de création</text>
        <text x="0" y="20" class="text-dark" font-size="12">15 juin 2024</text>
      </g>

      <!-- Status -->
      <g transform="translate(20, 115)">
        <text x="0" y="0" class="text-muted" font-size="11">Statut</text>
        <g transform="translate(0, 12)">
          <rect x="0" y="0" width="60" height="20" rx="10" fill="#DEF7EC"/>
          <text x="30" y="14" fill="#059669" font-size="10" text-anchor="middle">Actif</text>
        </g>
      </g>

      <!-- Engagement -->
      <g transform="translate(20, 165)">
        <text x="0" y="0" class="text-muted" font-size="11">Engagement</text>
        <text x="0" y="20" class="text-dark" font-size="12">Engagé jusqu'au 15/06/2026</text>
        <text x="0" y="40" class="text-primary" font-size="11">Gérer l'engagement →</text>
      </g>

      <!-- Auto-renew -->
      <g transform="translate(20, 225)">
        <text x="0" y="0" class="text-muted" font-size="11">Renouvellement automatique</text>
        <text x="0" y="20" class="text-primary" font-size="11">Configurer le renouvellement →</text>
      </g>

      <!-- Next billing date -->
      <g transform="translate(20, 270)">
        <text x="0" y="0" class="text-muted" font-size="11">Prochaine échéance</text>
        <text x="0" y="20" class="text-dark" font-size="12">02 février 2026</text>
      </g>

      <!-- Resiliate Link -->
      <g transform="translate(20, 315)">
        <text x="0" y="0" fill="#DC2626" font-size="11">Résilier mon engagement →</text>
      </g>
    </g>

    <!-- Other Service Details (next to subscription tile) -->
    <g transform="translate(480, 40)">
      <rect x="0" y="0" width="450" height="350" rx="8" fill="#FFFFFF" stroke="#E5E7EB"/>

      <!-- Tile Header -->
      <rect x="0" y="0" width="450" height="45" rx="8" fill="#F9FAFB"/>
      <text x="20" y="28" class="text-dark" font-size="14" font-weight="600">Informations générales</text>

      <!-- Server Name -->
      <g transform="translate(20, 65)">
        <text x="0" y="0" class="text-muted" font-size="11">Nom du serveur</text>
        <text x="0" y="20" class="text-dark" font-size="12">ns12345.ovh.net</text>
      </g>

      <!-- IP -->
      <g transform="translate(20, 115)">
        <text x="0" y="0" class="text-muted" font-size="11">Adresse IP principale</text>
        <text x="0" y="20" class="text-dark" font-size="12">192.168.1.100</text>
      </g>

      <!-- Datacenter -->
      <g transform="translate(20, 165)">
        <text x="0" y="0" class="text-muted" font-size="11">Datacenter</text>
        <text x="0" y="20" class="text-dark" font-size="12">Roubaix (RBX)</text>
      </g>

      <!-- Commercial Name -->
      <g transform="translate(20, 215)">
        <text x="0" y="0" class="text-muted" font-size="11">Offre commerciale</text>
        <text x="0" y="20" class="text-dark" font-size="12">Advance-1 Gen2</text>
      </g>

      <!-- OS -->
      <g transform="translate(20, 265)">
        <text x="0" y="0" class="text-muted" font-size="11">Système d'exploitation</text>
        <text x="0" y="20" class="text-dark" font-size="12">Ubuntu 22.04 LTS</text>
      </g>
    </g>

    <!-- Discount Banner -->
    <g transform="translate(0, 420)">
      <rect x="0" y="0" width="930" height="60" rx="8" fill="#DEF7EC"/>
      <text x="20" y="25" fill="#059669" font-size="12" font-weight="600">🎉 Offre spéciale : Économisez 20% en prolongeant votre engagement !</text>
      <text x="20" y="45" class="text-primary" font-size="11">S'engager avec réduction →</text>
    </g>
  </g>
</svg>
