<svg xmlns="http://www.w3.org/2000/svg" viewBox="0 0 1440 850" width="1440" height="850">
  <defs>
    <style>
      .bg-header { fill: #000E9C; }
      .bg-muted { fill: #F9FAFB; }
      .bg-white { fill: #FFFFFF; }
      .bg-neutral { fill: #F3F4F6; }
      .text-body { font-family: 'Source Sans Pro', sans-serif; font-size: 14px; fill: #1F2937; }
      .text-title { font-family: 'Source Sans Pro', sans-serif; font-size: 24px; font-weight: 600; fill: #1F2937; }
      .text-muted { font-family: 'Source Sans Pro', sans-serif; font-size: 14px; fill: #6B7280; }
      .text-white { font-family: 'Source Sans Pro', sans-serif; font-size: 14px; fill: #FFFFFF; }
      .text-link { font-family: 'Source Sans Pro', sans-serif; font-size: 14px; fill: #0050D7; }
      .text-header { font-family: 'Source Sans Pro', sans-serif; font-size: 13px; font-weight: 600; fill: #374151; }
      .border { stroke: #E5E7EB; stroke-width: 1; fill: none; }
      .btn-primary { fill: #0050D7; }
      .btn-text { font-family: 'Source Sans Pro', sans-serif; font-size: 14px; fill: #FFFFFF; }
      .badge-success { fill: #DEF7EC; }
      .badge-success-text { font-family: 'Source Sans Pro', sans-serif; font-size: 12px; fill: #03543F; }
      .tile { fill: #FFFFFF; stroke: #E5E7EB; }
    </style>
  </defs>
  <rect width="1440" height="850" class="bg-muted"/>
  <rect width="1440" height="60" class="bg-header"/>
  <text x="80" y="38" class="text-white" font-size="18" font-weight="bold">OVHcloud</text>
  <rect x="0" y="60" width="240" height="790" class="bg-white"/>
  <rect x="240" y="60" width="1" height="790" class="border"/>
  <text x="20" y="100" class="text-muted" font-size="12">FACTURATION</text>
  <text x="20" y="140" class="text-body">Tableau de bord</text>
  <rect x="0" y="155" width="240" height="40" fill="#E8F0FE"/>
  <text x="20" y="180" class="text-link" font-weight="600">Mes factures</text>
  <g transform="translate(280, 100)">
    <text x="0" y="0" class="text-link">← Retour aux factures</text>
    <text x="0" y="45" class="text-title">Facture FR-2025-12-001234</text>
    <g transform="translate(350, 30)">
      <rect x="0" y="0" width="50" height="22" rx="11" class="badge-success"/>
      <text x="8" y="15" class="badge-success-text">Payée</text>
    </g>
    <g transform="translate(900, 25)">
      <rect x="0" y="0" width="200" height="40" rx="4" class="btn-primary"/>
      <text x="40" y="26" class="btn-text">Télécharger PDF</text>
    </g>
    <g transform="translate(0, 90)">
      <g>
        <rect x="0" y="0" width="350" height="200" rx="8" class="tile"/>
        <text x="20" y="35" class="text-body" font-weight="600">Informations facture</text>
        <line x1="0" y1="55" x2="350" y2="55" stroke="#E5E7EB"/>
        <text x="20" y="85" class="text-muted">N° Facture</text>
        <text x="180" y="85" class="text-body">FR-2025-12-001234</text>
        <text x="20" y="115" class="text-muted">Date d'émission</text>
        <text x="180" y="115" class="text-body">26/12/2025</text>
        <text x="20" y="145" class="text-muted">Période</text>
        <text x="180" y="145" class="text-body">01/12 - 31/12/2025</text>
        <text x="20" y="175" class="text-muted">Mode de paiement</text>
        <text x="180" y="175" class="text-body">Carte •••• 4242</text>
      </g>
      <g transform="translate(370, 0)">
        <rect x="0" y="0" width="350" height="200" rx="8" class="tile"/>
        <text x="20" y="35" class="text-body" font-weight="600">Adresse de facturation</text>
        <line x1="0" y1="55" x2="350" y2="55" stroke="#E5E7EB"/>
        <text x="20" y="85" class="text-body">Mon Entreprise SARL</text>
        <text x="20" y="110" class="text-muted">123 Rue de la Paix</text>
        <text x="20" y="135" class="text-muted">75000 Paris</text>
        <text x="20" y="160" class="text-muted">France</text>
        <text x="20" y="185" class="text-muted">TVA: FR12345678901</text>
      </g>
      <g transform="translate(740, 0)">
        <rect x="0" y="0" width="350" height="200" rx="8" class="tile"/>
        <text x="20" y="35" class="text-body" font-weight="600">Récapitulatif</text>
        <line x1="0" y1="55" x2="350" y2="55" stroke="#E5E7EB"/>
        <text x="20" y="85" class="text-muted">Sous-total HT</text>
        <text x="250" y="85" class="text-body">106,25 €</text>
        <text x="20" y="115" class="text-muted">TVA (20%)</text>
        <text x="250" y="115" class="text-body">21,25 €</text>
        <line x1="20" y1="135" x2="330" y2="135" stroke="#E5E7EB"/>
        <text x="20" y="165" class="text-body" font-weight="600">Total TTC</text>
        <text x="250" y="165" class="text-body" font-weight="600">127,50 €</text>
      </g>
    </g>
    <g transform="translate(0, 320)">
      <rect x="0" y="0" width="1100" height="350" rx="8" class="tile"/>
      <text x="20" y="35" class="text-body" font-weight="600">Détail des services</text>
      <line x1="0" y1="55" x2="1100" y2="55" stroke="#E5E7EB"/>
      <g transform="translate(0, 70)">
        <rect x="0" y="0" width="1100" height="35" class="bg-neutral"/>
        <text x="20" y="24" class="text-header">Service</text>
        <text x="400" y="24" class="text-header">Période</text>
        <text x="600" y="24" class="text-header">Quantité</text>
        <text x="750" y="24" class="text-header">Prix unitaire HT</text>
        <text x="950" y="24" class="text-header">Total HT</text>
      </g>
      <g transform="translate(0, 105)">
        <text x="20" y="24" class="text-body">Hébergement Web Pro - hosting123456</text>
        <text x="400" y="24" class="text-muted">01/12 - 31/12</text>
        <text x="600" y="24" class="text-body">1 mois</text>
        <text x="750" y="24" class="text-body">9,99 €</text>
        <text x="950" y="24" class="text-body">9,99 €</text>
      </g>
      <line x1="20" y1="145" x2="1080" y2="145" stroke="#E5E7EB"/>
      <g transform="translate(0, 160)">
        <text x="20" y="24" class="text-body">VPS Starter - vps-abc123</text>
        <text x="400" y="24" class="text-muted">01/12 - 31/12</text>
        <text x="600" y="24" class="text-body">1 mois</text>
        <text x="750" y="24" class="text-body">6,99 €</text>
        <text x="950" y="24" class="text-body">6,99 €</text>
      </g>
      <line x1="20" y1="200" x2="1080" y2="200" stroke="#E5E7EB"/>
      <g transform="translate(0, 215)">
        <text x="20" y="24" class="text-body">Hosted Exchange - 10 comptes</text>
        <text x="400" y="24" class="text-muted">01/12 - 31/12</text>
        <text x="600" y="24" class="text-body">10</text>
        <text x="750" y="24" class="text-body">4,99 €</text>
        <text x="950" y="24" class="text-body">49,90 €</text>
      </g>
      <line x1="20" y1="255" x2="1080" y2="255" stroke="#E5E7EB"/>
      <g transform="translate(0, 270)">
        <text x="20" y="24" class="text-body">Domaines (.fr, .com) - 3 domaines</text>
        <text x="400" y="24" class="text-muted">Renouvellement</text>
        <text x="600" y="24" class="text-body">3</text>
        <text x="750" y="24" class="text-body">12,99 €</text>
        <text x="950" y="24" class="text-body">38,97 €</text>
      </g>
    </g>
  </g>
</svg>
