<svg xmlns="http://www.w3.org/2000/svg" viewBox="0 0 1440 900" width="1440" height="900">
  <defs>
    <style>
      .bg-main { fill: #F6F6F9; }
      .bg-header { fill: #000E9C; }
      .bg-white { fill: #FFFFFF; }
      .border { stroke: #E5E7EB; stroke-width: 1; fill: none; }
      .btn-primary { fill: #0050D7; }
      .btn-secondary { fill: #FFFFFF; stroke: #E5E7EB; stroke-width: 1; }
      .text-white { fill: #FFFFFF; font-family: 'Source Sans Pro', sans-serif; }
      .text-dark { fill: #1F2937; font-family: 'Source Sans Pro', sans-serif; }
      .text-muted { fill: #6B7280; font-family: 'Source Sans Pro', sans-serif; }
      .text-primary { fill: #0050D7; font-family: 'Source Sans Pro', sans-serif; }
    </style>
  </defs>

  <!-- Background -->
  <rect width="1440" height="900" class="bg-main"/>

  <!-- NAV1 - Header OVH -->
  <rect width="1440" height="50" class="bg-header"/>
  <text x="40" y="32" class="text-white" font-size="14" opacity="0.7">Accueil</text>
  <text x="700" y="32" class="text-white" font-size="14" font-weight="600">Espace client</text>
  <rect x="695" y="46" width="90" height="3" fill="#FFFFFF"/>

  <!-- NAV2 -->
  <rect x="0" y="50" width="1440" height="40" class="bg-white"/>
  <line x1="0" y1="89" x2="1440" y2="89" stroke="#E5E7EB"/>
  <text x="40" y="75" class="text-primary" font-size="14" font-weight="600">Facturation</text>
  <rect x="35" y="85" width="75" height="3" fill="#0050D7"/>

  <!-- Content Area -->
  <g transform="translate(24, 105)">
    <!-- LEFT PANEL -->
    <rect x="0" y="0" width="280" height="765" rx="8" class="bg-white"/>
    <rect x="0" y="0" width="280" height="765" rx="8" class="border"/>

    <rect x="12" y="12" width="256" height="34" rx="4" fill="#F9FAFB" stroke="#E5E7EB"/>
    <text x="26" y="34" class="text-muted" font-size="12">🔍 Rechercher...</text>

    <text x="16" y="75" class="text-dark" font-size="13" font-weight="600">Facturation</text>
    <text x="16" y="100" class="text-muted" font-size="12">Historique des factures</text>
    <rect x="0" y="107" width="280" height="32" fill="#E8F0FE"/>
    <text x="16" y="128" class="text-primary" font-size="12">Régler mon solde</text>

    <!-- RIGHT PANEL -->
    <g transform="translate(296, 0)">
      <rect x="0" y="0" width="1096" height="765" rx="8" class="bg-white"/>
      <rect x="0" y="0" width="1096" height="765" rx="8" class="border"/>

      <g transform="translate(24, 24)">
        <!-- Back Button -->
        <text x="0" y="0" class="text-primary" font-size="12">← Régler mon solde</text>

        <!-- Balance Due Info -->
        <g transform="translate(0, 40)">
          <rect x="0" y="0" width="1048" height="80" rx="8" fill="#FEE2E2"/>
          <text x="20" y="30" fill="#DC2626" font-size="14" font-weight="600">Solde débiteur à régulariser</text>
          <text x="20" y="55" fill="#DC2626" font-size="24" font-weight="600">156,78 €</text>
          <text x="150" y="55" fill="#DC2626" font-size="12">TTC</text>
        </g>

        <!-- Payment Method Selection -->
        <g transform="translate(0, 150)">
          <text x="0" y="0" class="text-dark" font-size="15" font-weight="600">Choisissez un moyen de paiement</text>

          <g transform="translate(0, 30)">
            <rect x="0" y="0" width="500" height="180" rx="8" fill="#FFFFFF" stroke="#E5E7EB"/>

            <!-- Payment Method Dropdown -->
            <g transform="translate(20, 20)">
              <text x="0" y="0" class="text-muted" font-size="11">Moyen de paiement</text>
              <rect x="0" y="15" width="460" height="40" rx="4" fill="#FFFFFF" stroke="#E5E7EB"/>
              <text x="15" y="41" class="text-dark" font-size="12">[Carte bancaire] VISA **** 1234</text>
              <text x="430" y="41" class="text-muted" font-size="12">▼</text>
            </g>

            <!-- Add Payment Method Link -->
            <g transform="translate(20, 90)">
              <text x="0" y="0" class="text-primary" font-size="11">+ Ajouter un moyen de paiement</text>
            </g>

            <!-- Actions -->
            <g transform="translate(20, 120)">
              <rect x="0" y="0" width="140" height="36" rx="4" class="btn-primary"/>
              <text x="70" y="23" class="text-white" font-size="12" text-anchor="middle">Régler le solde</text>

              <rect x="160" y="0" width="100" height="36" rx="4" class="btn-secondary"/>
              <text x="210" y="23" class="text-muted" font-size="12" text-anchor="middle">Annuler</text>
            </g>
          </g>
        </g>

        <!-- Info Message -->
        <g transform="translate(0, 400)">
          <rect x="0" y="0" width="1048" height="50" rx="4" fill="#DBEAFE"/>
          <text x="16" y="30" fill="#1E40AF" font-size="11">ℹ️ Le paiement sera effectué immédiatement via le moyen de paiement sélectionné. Un reçu vous sera envoyé par email.</text>
        </g>

        <!-- Payment Tracking Link -->
        <g transform="translate(0, 480)">
          <text x="0" y="0" class="text-primary" font-size="12">Suivre mes paiements en cours →</text>
        </g>
      </g>
    </g>
  </g>
</svg>
