<svg xmlns="http://www.w3.org/2000/svg" viewBox="0 0 600 200" width="600" height="200">
  <defs>
    <style>
      .bg-white { fill: #FFFFFF; }
      .bg-slot1 { fill: #007BFF; }
      .bg-slot2 { fill: #FFC107; }
      .bg-unavailable { fill: #DC3545; }
      .text-dark { fill: #1F2937; font-family: 'Source Sans Pro', sans-serif; }
      .text-muted { fill: #6B7280; font-family: 'Source Sans Pro', sans-serif; }
      .text-white { fill: #FFFFFF; font-family: 'Source Sans Pro', sans-serif; }
      .border { stroke: #E5E7EB; stroke-width: 1; fill: none; }
    </style>
  </defs>

  <!-- Component: Time Condition - Condition row -->
  <rect width="600" height="200" class="bg-white"/>
  <rect width="600" height="200" rx="4" class="border"/>

  <text x="20" y="25" class="text-dark" font-size="12" font-weight="600">Conditions horaires configurées</text>

  <!-- Table header -->
  <g transform="translate(20, 40)">
    <rect x="0" y="0" width="560" height="30" fill="#F9FAFB"/>
    <text x="10" y="20" class="text-muted" font-size="10">Jour</text>
    <text x="120" y="20" class="text-muted" font-size="10">Plage horaire</text>
    <text x="260" y="20" class="text-muted" font-size="10">Politique</text>
    <text x="450" y="20" class="text-muted" font-size="10">Actions</text>
  </g>

  <!-- Condition 1 -->
  <g transform="translate(20, 75)">
    <text x="10" y="15" class="text-dark" font-size="11">Lun - Ven</text>
    <text x="120" y="15" class="text-dark" font-size="11">09:00 - 12:00</text>
    <g transform="translate(260, 0)">
      <rect x="0" y="2" width="12" height="12" rx="2" class="bg-slot1"/>
      <text x="18" y="13" class="text-dark" font-size="11">Créneau 1</text>
    </g>
    <rect x="450" y="0" width="24" height="24" rx="4" stroke="#E5E7EB" fill="#FFFFFF"/>
    <text x="462" y="16" class="text-muted" font-size="12" text-anchor="middle">✎</text>
    <rect x="480" y="0" width="24" height="24" rx="4" stroke="#E5E7EB" fill="#FFFFFF"/>
    <text x="492" y="16" class="text-muted" font-size="12" text-anchor="middle">🗑</text>
  </g>

  <!-- Condition 2 -->
  <g transform="translate(20, 110)">
    <text x="10" y="15" class="text-dark" font-size="11">Lun - Ven</text>
    <text x="120" y="15" class="text-dark" font-size="11">12:00 - 14:00</text>
    <g transform="translate(260, 0)">
      <rect x="0" y="2" width="12" height="12" rx="2" class="bg-unavailable"/>
      <text x="18" y="13" class="text-dark" font-size="11">Indisponible</text>
    </g>
    <rect x="450" y="0" width="24" height="24" rx="4" stroke="#E5E7EB" fill="#FFFFFF"/>
    <text x="462" y="16" class="text-muted" font-size="12" text-anchor="middle">✎</text>
    <rect x="480" y="0" width="24" height="24" rx="4" stroke="#E5E7EB" fill="#FFFFFF"/>
    <text x="492" y="16" class="text-muted" font-size="12" text-anchor="middle">🗑</text>
  </g>

  <!-- Condition 3 -->
  <g transform="translate(20, 145)">
    <text x="10" y="15" class="text-dark" font-size="11">Lun - Ven</text>
    <text x="120" y="15" class="text-dark" font-size="11">14:00 - 18:00</text>
    <g transform="translate(260, 0)">
      <rect x="0" y="2" width="12" height="12" rx="2" class="bg-slot2"/>
      <text x="18" y="13" class="text-dark" font-size="11">Créneau 2</text>
    </g>
    <rect x="450" y="0" width="24" height="24" rx="4" stroke="#E5E7EB" fill="#FFFFFF"/>
    <text x="462" y="16" class="text-muted" font-size="12" text-anchor="middle">✎</text>
    <rect x="480" y="0" width="24" height="24" rx="4" stroke="#E5E7EB" fill="#FFFFFF"/>
    <text x="492" y="16" class="text-muted" font-size="12" text-anchor="middle">🗑</text>
  </g>

  <!-- Add button -->
  <g transform="translate(20, 175)">
    <text x="0" y="12" class="text-primary" font-size="11">+ Ajouter une condition</text>
  </g>
</svg>
