<svg xmlns="http://www.w3.org/2000/svg" viewBox="0 0 1440 950" width="1440" height="950">
  <defs>
    <style>
      .bg-header { fill: #000E9C; }
      .bg-content { fill: #F5F6F7; }
      .bg-white { fill: #FFFFFF; }
      .bg-selected { fill: #EFF6FF; }
      .text-white { fill: #FFFFFF; font-family: 'Source Sans Pro', sans-serif; }
      .text-dark { fill: #333333; font-family: 'Source Sans Pro', sans-serif; }
      .text-muted { fill: #6B7280; font-family: 'Source Sans Pro', sans-serif; }
      .text-primary { fill: #0050D7; font-family: 'Source Sans Pro', sans-serif; }
      .border { stroke: #E5E7EB; stroke-width: 1; fill: none; }
      .border-primary { stroke: #0050D7; stroke-width: 2; fill: none; }
      .input-box { fill: #FFFFFF; stroke: #D1D5DB; stroke-width: 1; }
      .btn-primary { fill: #0050D7; }
      .btn-default { fill: #FFFFFF; stroke: #D1D5DB; stroke-width: 1; }
      .radio-selected { fill: #0050D7; }
      .radio-unselected { fill: none; stroke: #D1D5DB; stroke-width: 2; }
    </style>
  </defs>

  <!-- Background -->
  <rect width="1440" height="950" class="bg-content"/>

  <!-- Header OVHcloud -->
  <rect width="1440" height="60" class="bg-header"/>
  <text x="20" y="38" class="text-white" font-size="20" font-weight="bold">OVHcloud</text>
  <text x="140" y="38" class="text-white" font-size="14">Manager</text>
  <text x="300" y="38" class="text-white" font-size="13" opacity="0.8">Telecom › SMS › Commander des SMS</text>
  <circle cx="1380" cy="30" r="18" fill="#4F46E5"/>
  <text x="1380" y="35" class="text-white" font-size="14" text-anchor="middle">JD</text>

  <!-- Page Title -->
  <text x="40" y="110" class="text-dark" font-size="24" font-weight="bold">Commander des SMS</text>

  <!-- Account selection -->
  <g transform="translate(40, 140)">
    <rect width="900" height="100" rx="8" class="bg-white"/>
    <rect width="900" height="100" rx="8" class="border"/>
    <text x="20" y="35" class="text-dark" font-size="16" font-weight="600">Sélectionnez le compte à créditer</text>
    
    <rect x="20" y="50" width="400" height="40" rx="4" class="input-box"/>
    <text x="35" y="75" class="text-dark" font-size="14">sms-ov12345-1</text>
    <text x="390" y="75" class="text-muted" font-size="12">▼</text>

    <rect x="440" y="50" width="150" height="40" rx="4" class="btn-default"/>
    <text x="465" y="75" class="text-dark" font-size="14">+ Nouveau Compte</text>
  </g>

  <!-- Credit selection -->
  <g transform="translate(40, 260)">
    <rect width="900" height="400" rx="8" class="bg-white"/>
    <rect width="900" height="400" rx="8" class="border"/>
    <text x="20" y="35" class="text-dark" font-size="16" font-weight="600">Nombre de crédits</text>

    <!-- Credit options grid -->
    <g transform="translate(20, 55)">
      <!-- Row 1 -->
      <rect width="200" height="70" rx="4" class="border"/>
      <circle cx="25" cy="35" r="10" class="radio-unselected"/>
      <text x="45" y="30" class="text-dark" font-size="14" font-weight="500">100 crédits</text>
      <text x="45" y="50" class="text-muted" font-size="13">5,00 € HT</text>

      <rect x="220" width="200" height="70" rx="4" class="border"/>
      <circle cx="245" cy="35" r="10" class="radio-unselected"/>
      <text x="265" y="30" class="text-dark" font-size="14" font-weight="500">500 crédits</text>
      <text x="265" y="50" class="text-muted" font-size="13">25,00 € HT</text>

      <g>
        <rect x="440" width="200" height="70" rx="4" class="bg-selected"/>
        <rect x="440" width="200" height="70" rx="4" class="border-primary"/>
        <circle cx="465" cy="35" r="10" class="radio-selected"/>
        <circle cx="465" cy="35" r="4" fill="white"/>
        <text x="485" y="30" class="text-dark" font-size="14" font-weight="600">1 000 crédits</text>
        <text x="485" y="50" class="text-primary" font-size="13" font-weight="500">45,00 € HT</text>
      </g>

      <rect x="660" width="200" height="70" rx="4" class="border"/>
      <circle cx="685" cy="35" r="10" class="radio-unselected"/>
      <text x="705" y="30" class="text-dark" font-size="14" font-weight="500">5 000 crédits</text>
      <text x="705" y="50" class="text-muted" font-size="13">200,00 € HT</text>

      <!-- Row 2 -->
      <rect y="90" width="200" height="70" rx="4" class="border"/>
      <circle cx="25" cy="125" r="10" class="radio-unselected"/>
      <text x="45" y="120" class="text-dark" font-size="14" font-weight="500">10 000 crédits</text>
      <text x="45" y="140" class="text-muted" font-size="13">350,00 € HT</text>

      <rect x="220" y="90" width="200" height="70" rx="4" class="border"/>
      <circle cx="245" cy="125" r="10" class="radio-unselected"/>
      <text x="265" y="120" class="text-dark" font-size="14" font-weight="500">50 000 crédits</text>
      <text x="265" y="140" class="text-muted" font-size="13">1 500,00 € HT</text>

      <rect x="440" y="90" width="200" height="70" rx="4" class="border"/>
      <circle cx="465" cy="125" r="10" class="radio-unselected"/>
      <text x="485" y="120" class="text-dark" font-size="14" font-weight="500">100 000 crédits</text>
      <text x="485" y="140" class="text-muted" font-size="13">2 500,00 € HT</text>

      <rect x="660" y="90" width="200" height="70" rx="4" class="border"/>
      <circle cx="685" cy="125" r="10" class="radio-unselected"/>
      <text x="705" y="120" class="text-dark" font-size="14" font-weight="500">Autre</text>
      <text x="705" y="140" class="text-muted" font-size="13">Quantité personnalisée</text>
    </g>

    <!-- Price summary -->
    <g transform="translate(20, 250)">
      <rect width="400" height="130" rx="4" fill="#F9FAFB"/>
      <text x="15" y="30" class="text-muted" font-size="14">Prix (HT)</text>
      <text x="320" y="30" class="text-dark" font-size="14" font-weight="500">45,00 €</text>
      
      <text x="15" y="55" class="text-muted" font-size="14">Réduction</text>
      <text x="320" y="55" class="text-dark" font-size="14">- 5,00 €</text>
      
      <text x="15" y="80" class="text-muted" font-size="14">TVA (20%)</text>
      <text x="320" y="80" class="text-dark" font-size="14">8,00 €</text>
      
      <line x1="15" y1="95" x2="385" y2="95" stroke="#E5E7EB" stroke-width="1"/>
      
      <text x="15" y="118" class="text-dark" font-size="16" font-weight="600">Total (TTC)</text>
      <text x="300" y="118" class="text-primary" font-size="18" font-weight="bold">48,00 €</text>
    </g>
  </g>

  <!-- Actions -->
  <g transform="translate(40, 680)">
    <rect width="900" height="150" rx="8" class="bg-white"/>
    <rect width="900" height="150" rx="8" class="border"/>

    <!-- Checkbox retract -->
    <g transform="translate(20, 20)">
      <rect width="18" height="18" rx="2" fill="#0050D7"/>
      <text x="2" y="14" class="text-white" font-size="12">✓</text>
      <text x="30" y="14" class="text-muted" font-size="12">Vous sollicitez l'exécution immédiate de la prestation et reconnaissez qu'à ce titre,</text>
      <text x="30" y="32" class="text-muted" font-size="12">vous pourrez exercer votre droit de rétractation. <tspan class="text-primary">En savoir plus</tspan></text>
    </g>

    <!-- Generate order button -->
    <rect x="20" y="70" width="250" height="50" rx="4" class="btn-primary"/>
    <text x="50" y="100" class="text-white" font-size="16">Générer le bon de commande</text>

    <text x="290" y="100" class="text-muted" font-size="14">ou</text>

    <rect x="320" y="70" width="200" height="50" rx="4" class="btn-default"/>
    <text x="355" y="100" class="text-dark" font-size="14">Commander sur le site</text>

    <!-- Info -->
    <text x="20" y="140" class="text-muted" font-size="12">Afin de finaliser votre demande, merci de valider le <tspan class="text-primary">bon de commande</tspan> généré.</text>
  </g>

  <!-- Right sidebar - Guide -->
  <g transform="translate(980, 140)">
    <rect width="420" height="120" rx="8" class="bg-white"/>
    <rect width="420" height="120" rx="8" class="border"/>
    <text x="20" y="35" class="text-dark" font-size="16" font-weight="600">📖 Guides</text>
    <text x="20" y="70" class="text-primary" font-size="14" cursor="pointer">→ Débuter avec les SMS OVHcloud</text>
    <text x="20" y="100" class="text-primary" font-size="14" cursor="pointer">→ Comprendre les tarifs SMS</text>
  </g>

</svg>
