<svg xmlns="http://www.w3.org/2000/svg" viewBox="0 0 1440 850" width="1440" height="850">
  <defs>
    <style>
      .bg-header { fill: #000E9C; }
      .bg-white { fill: #FFFFFF; }
      .bg-muted { fill: #F9FAFB; }
      .bg-primary { fill: #0050D7; }
      .bg-primary-light { fill: #E8F0FE; }
      .text-white { fill: #FFFFFF; font-family: 'Source Sans Pro', sans-serif; }
      .text-body { fill: #1F2937; font-family: 'Source Sans Pro', sans-serif; font-size: 14px; }
      .text-muted { fill: #6B7280; font-family: 'Source Sans Pro', sans-serif; font-size: 14px; }
      .text-title { fill: #1F2937; font-family: 'Source Sans Pro', sans-serif; font-size: 24px; font-weight: 600; }
      .text-link { fill: #0050D7; font-family: 'Source Sans Pro', sans-serif; font-size: 14px; }
      .border { stroke: #E5E7EB; stroke-width: 1; fill: none; }
      .btn-primary { fill: #0050D7; }
      .btn-text { fill: #FFFFFF; font-family: 'Source Sans Pro', sans-serif; font-size: 14px; }
      .table-header { fill: #F3F4F6; }
      .badge-success { fill: #DEF7EC; }
      .badge-success-text { fill: #03543F; font-family: 'Source Sans Pro', sans-serif; font-size: 12px; }
      .action-menu { fill: #FFFFFF; stroke: #E5E7EB; filter: drop-shadow(0 4px 6px rgba(0,0,0,0.1)); }
    </style>
  </defs>
  <rect width="1440" height="850" class="bg-muted"/>
  <rect width="1440" height="60" class="bg-header"/>
  <text x="80" y="38" class="text-white" font-size="20" font-weight="bold">OVHcloud</text>
  <rect x="0" y="60" width="240" height="790" class="bg-white"/>
  <rect x="240" y="60" width="1" height="790" class="border"/>
  <text x="20" y="100" class="text-body" font-weight="600">SMS</text>
  <rect x="0" y="115" width="240" height="36" class="bg-primary-light"/>
  <text x="20" y="138" class="text-link">sms-xx12345-1</text>
  <text x="40" y="180" class="text-muted">Tableau de bord</text>
  <text x="40" y="210" class="text-muted">Gestion des campagnes</text>
  <text x="60" y="240" class="text-muted">Creer une campagne</text>
  <rect x="40" y="255" width="180" height="30" class="bg-primary-light"/>
  <text x="60" y="275" class="text-link" font-weight="600">Statistiques et historique</text>
  <text x="60" y="310" class="text-muted">Campagnes planifiees</text>
  <text x="280" y="100" class="text-title">Statistiques et historique</text>
  <rect x="1010" y="80" width="150" height="36" rx="4" class="btn-primary"/>
  <text x="1030" y="103" class="btn-text">+ Creer une campagne</text>
  <rect x="280" y="130" width="880" height="600" rx="8" class="bg-white"/>
  <rect x="280" y="130" width="880" height="600" rx="8" class="border"/>
  <rect x="280" y="130" width="880" height="50" rx="8" class="table-header"/>
  <text x="310" y="160" class="text-body" font-weight="600">Nom</text>
  <text x="480" y="160" class="text-body" font-weight="600">Date</text>
  <text x="600" y="160" class="text-body" font-weight="600">Expediteur</text>
  <text x="750" y="160" class="text-body" font-weight="600">Destinataires</text>
  <text x="880" y="160" class="text-body" font-weight="600">Statut</text>
  <text x="1020" y="160" class="text-body" font-weight="600">Actions</text>
  <line x1="280" y1="180" x2="1160" y2="180" stroke="#E5E7EB"/>
  <text x="310" y="210" class="text-body">Campagne Noel 2025</text>
  <text x="480" y="210" class="text-body">28/12/2025 10:30</text>
  <text x="600" y="210" class="text-body">MonEntreprise</text>
  <text x="750" y="210" class="text-body">1 250</text>
  <rect x="880" y="195" width="70" height="22" rx="4" class="badge-success"/>
  <text x="890" y="211" class="badge-success-text">Terminee</text>
  <text x="1020" y="210" class="text-link" font-size="18">:</text>
  <line x1="280" y1="235" x2="1160" y2="235" stroke="#E5E7EB"/>
  <text x="310" y="265" class="text-body">Promo Janvier</text>
  <text x="480" y="265" class="text-body">27/12/2025 14:00</text>
  <text x="600" y="265" class="text-body">Promo2025</text>
  <text x="750" y="265" class="text-body">856</text>
  <rect x="880" y="250" width="70" height="22" rx="4" class="badge-success"/>
  <text x="890" y="266" class="badge-success-text">Terminee</text>
  <text x="1020" y="265" class="text-link" font-size="18">:</text>
  <line x1="280" y1="290" x2="1160" y2="290" stroke="#E5E7EB"/>
  <text x="310" y="320" class="text-body">Newsletter Dec</text>
  <text x="480" y="320" class="text-body">20/12/2025 09:00</text>
  <text x="600" y="320" class="text-body">Newsletter</text>
  <text x="750" y="320" class="text-body">2 340</text>
  <rect x="880" y="305" width="70" height="22" rx="4" class="badge-success"/>
  <text x="890" y="321" class="badge-success-text">Terminee</text>
  <text x="1020" y="320" class="text-link" font-size="18">:</text>
  <line x1="280" y1="345" x2="1160" y2="345" stroke="#E5E7EB"/>
  <text x="310" y="375" class="text-body">Rappel RDV</text>
  <text x="480" y="375" class="text-body">15/12/2025 08:00</text>
  <text x="600" y="375" class="text-body">Cabinet</text>
  <text x="750" y="375" class="text-body">124</text>
  <rect x="880" y="360" width="70" height="22" rx="4" class="badge-success"/>
  <text x="890" y="376" class="badge-success-text">Terminee</text>
  <text x="1020" y="375" class="text-link" font-size="18">:</text>
  <rect x="920" y="390" width="150" height="120" rx="4" class="action-menu"/>
  <text x="940" y="420" class="text-body">Statistiques</text>
  <line x1="920" y1="435" x2="1070" y2="435" stroke="#E5E7EB"/>
  <text x="940" y="460" class="text-body">Telecharger</text>
  <line x1="920" y1="475" x2="1070" y2="475" stroke="#E5E7EB"/>
  <text x="940" y="500" class="text-body" style="fill: #DC2626;">Supprimer</text>
  <line x1="280" y1="520" x2="1160" y2="520" stroke="#E5E7EB"/>
  <text x="310" y="550" class="text-body">Alerte Maintenance</text>
  <text x="480" y="550" class="text-body">10/12/2025 16:30</text>
  <text x="600" y="550" class="text-body">Support</text>
  <text x="750" y="550" class="text-body">45</text>
  <rect x="880" y="535" width="70" height="22" rx="4" class="badge-success"/>
  <text x="890" y="551" class="badge-success-text">Terminee</text>
  <text x="1020" y="550" class="text-link" font-size="18">:</text>
  <text x="310" y="700" class="text-muted">Affichage 1-5 sur 23 campagnes</text>
  <text x="1000" y="700" class="text-link">Precedent</text>
  <text x="1100" y="700" class="text-link">Suivant</text>
</svg>
