<svg xmlns="http://www.w3.org/2000/svg" viewBox="0 0 1440 900" width="1440" height="900">
  <defs>
    <style>
      .bg-header { fill: #000E9C; }
      .bg-main { fill: #F6F6F9; }
      .bg-white { fill: #FFFFFF; }
      .bg-primary { fill: #0050D7; }
      .bg-warning { fill: #FEF3C7; }
      .bg-primary-light { fill: #E8F0FE; }
      .border { stroke: #E5E7EB; stroke-width: 1; fill: none; }
      .text-white { fill: #FFFFFF; font-family: 'Source Sans Pro', sans-serif; }
      .text-dark { fill: #1F2937; font-family: 'Source Sans Pro', sans-serif; }
      .text-muted { fill: #6B7280; font-family: 'Source Sans Pro', sans-serif; }
      .text-primary { fill: #0050D7; font-family: 'Source Sans Pro', sans-serif; }
      .text-warning { fill: #D97706; font-family: 'Source Sans Pro', sans-serif; }
      .btn-outline { stroke: #0050D7; stroke-width: 1; fill: #FFFFFF; }
      .btn-disabled { fill: #E5E7EB; }
    </style>
  </defs>

  <!-- Background -->
  <rect width="1440" height="900" class="bg-main"/>

  <!-- NAV1 - Header OVH -->
  <rect width="1440" height="50" class="bg-header"/>
  <text x="110" y="32" class="text-white" font-size="14" font-weight="600">Public Cloud</text>
  <rect x="105" y="46" width="85" height="3" fill="#FFFFFF"/>

  <!-- NAV2 -->
  <rect x="0" y="50" width="1440" height="40" class="bg-white"/>
  <line x1="0" y1="89" x2="1440" y2="89" stroke="#E5E7EB"/>
  <text x="455" y="75" class="text-primary" font-size="14" font-weight="600">AI &amp; Machine Learning</text>
  <rect x="450" y="85" width="135" height="3" fill="#0050D7"/>

  <!-- CONTENT AREA -->
  <g transform="translate(0, 105)">
    <!-- LEFT PANEL -->
    <g transform="translate(24, 0)">
      <rect x="0" y="0" width="280" height="765" rx="8" class="bg-white"/>
      <rect x="0" y="0" width="280" height="765" rx="8" class="border"/>
      <rect x="12" y="12" width="256" height="34" rx="4" fill="#F9FAFB" stroke="#E5E7EB"/>
      <text x="26" y="34" class="text-muted" font-size="12">Rechercher un projet...</text>
      <rect x="0" y="58" width="280" height="45" fill="#E8F0FE"/>
      <text x="16" y="85" class="text-dark" font-size="12" font-weight="500">my-project-123456</text>
    </g>

    <!-- RIGHT PANEL -->
    <g transform="translate(320, 0)">
      <rect x="0" y="0" width="1096" height="765" rx="8" class="bg-white"/>
      <rect x="0" y="0" width="1096" height="765" rx="8" class="border"/>

      <g transform="translate(20, 0)">
        <!-- Discovery Warning Banner -->
        <g transform="translate(0, 20)">
          <rect x="0" y="0" width="1056" height="80" rx="6" class="bg-warning"/>
          <text x="20" y="25" class="text-warning" font-size="16">⚠</text>
          <text x="50" y="28" class="text-warning" font-size="12" font-weight="600">Mode Découverte</text>
          <text x="50" y="48" class="text-warning" font-size="12">Votre projet Public Cloud est actuellement en mode "Découverte". Afin d'utiliser AI Endpoints,</text>
          <text x="50" y="65" class="text-warning" font-size="12">il vous faut activer votre projet en ajoutant un moyen de paiement à votre compte.</text>
          <rect x="880" y="25" width="160" height="30" rx="4" class="bg-primary"/>
          <text x="960" y="46" class="text-white" font-size="12" text-anchor="middle">Activer votre projet →</text>
        </g>

        <!-- Header -->
        <text x="0" y="130" class="text-dark" font-size="18" font-weight="600">AI Endpoints</text>

        <!-- Tabs -->
        <g transform="translate(0, 150)">
          <text x="0" y="0" class="text-muted" font-size="13">Clés API</text>
          <text x="80" y="0" class="text-muted" font-size="13">Métriques</text>
        </g>

        <!-- Disabled button -->
        <rect x="0" y="180" width="200" height="40" rx="4" class="btn-disabled"/>
        <text x="16" y="206" class="text-muted" font-size="13">+ Créer une clé API</text>

        <!-- Empty state with info -->
        <g transform="translate(200, 280)">
          <!-- Illustration placeholder -->
          <rect x="150" y="0" width="300" height="150" rx="8" fill="#F3F4F6"/>
          <text x="300" y="85" class="text-muted" font-size="50" text-anchor="middle">🔑</text>

          <!-- Title -->
          <text x="300" y="195" class="text-dark" font-size="18" font-weight="600" text-anchor="middle">Clés API</text>

          <!-- Description -->
          <text x="300" y="230" class="text-muted" font-size="12" text-anchor="middle">Afin de pouvoir utiliser AI Endpoints, vous devez générer des clés API.</text>
          <text x="300" y="250" class="text-muted" font-size="12" text-anchor="middle">Activez d'abord votre projet pour créer votre première clé API.</text>

          <!-- Disabled CTA -->
          <rect x="175" y="280" width="250" height="40" rx="4" class="btn-disabled"/>
          <text x="300" y="306" class="text-muted" font-size="13" text-anchor="middle">Créer une clé API</text>
        </g>
      </g>
    </g>
  </g>
</svg>
