<svg xmlns="http://www.w3.org/2000/svg" viewBox="0 0 1440 900" width="1440" height="900">
  <defs>
    <style>
      .bg-header { fill: #000E9C; }
      .bg-main { fill: #F6F6F9; }
      .bg-white { fill: #FFFFFF; }
      .bg-primary { fill: #0050D7; }
      .border { stroke: #E5E7EB; stroke-width: 1; fill: none; }
      .text-white { fill: #FFFFFF; font-family: 'Source Sans Pro', sans-serif; }
      .text-dark { fill: #1F2937; font-family: 'Source Sans Pro', sans-serif; }
      .text-muted { fill: #6B7280; font-family: 'Source Sans Pro', sans-serif; }
      .text-primary { fill: #0050D7; font-family: 'Source Sans Pro', sans-serif; }
      .overlay { fill: rgba(0,0,0,0.5); }
    </style>
  </defs>

  <rect width="1440" height="900" class="bg-main"/>
  <rect width="1440" height="50" class="bg-header"/>
  <rect width="1440" height="900" class="overlay" opacity="0.5"/>

  <!-- MODAL -->
  <g transform="translate(420, 180)">
    <rect x="0" y="0" width="600" height="420" rx="8" class="bg-white"/>
    <rect x="0" y="0" width="600" height="420" rx="8" class="border"/>

    <!-- Header -->
    <rect x="0" y="0" width="600" height="56" rx="8" fill="#F9FAFB"/>
    <text x="24" y="35" class="text-dark" font-size="16" font-weight="600">Créer un utilisateur FTP</text>
    <text x="560" y="35" class="text-muted" font-size="18" cursor="pointer">✕</text>

    <g transform="translate(24, 80)">
      <!-- Login -->
      <text x="0" y="0" class="text-dark" font-size="11" font-weight="600">Identifiant *</text>
      <rect x="0" y="10" width="552" height="36" rx="4" fill="#F9FAFB" stroke="#E5E7EB"/>
      <text x="12" y="34" class="text-muted" font-size="11">monsite-deploy</text>

      <!-- Mot de passe -->
      <text x="0" y="70" class="text-dark" font-size="11" font-weight="600">Mot de passe *</text>
      <rect x="0" y="80" width="440" height="36" rx="4" fill="#F9FAFB" stroke="#E5E7EB"/>
      <text x="12" y="104" class="text-muted" font-size="11">••••••••••••</text>
      <rect x="450" y="80" width="102" height="36" rx="4" fill="#FFFFFF" stroke="#0050D7"/>
      <text x="501" y="104" class="text-primary" font-size="10" text-anchor="middle">Générer</text>

      <!-- Dossier racine -->
      <text x="0" y="140" class="text-dark" font-size="11" font-weight="600">Dossier racine</text>
      <rect x="0" y="150" width="552" height="36" rx="4" fill="#F9FAFB" stroke="#E5E7EB"/>
      <text x="12" y="174" class="text-dark" font-size="11">/www</text>
      <text x="540" y="174" class="text-muted" font-size="11">📁</text>

      <!-- SSH -->
      <text x="0" y="210" class="text-dark" font-size="11" font-weight="600">Accès SSH</text>
      <rect x="0" y="225" width="18" height="18" rx="3" fill="#FFFFFF" stroke="#E5E7EB"/>
      <text x="28" y="238" class="text-dark" font-size="11">Activer l'accès SSH pour cet utilisateur</text>
      <text x="0" y="260" class="text-muted" font-size="9">Nécessite une offre Pro ou supérieure</text>

      <!-- Info -->
      <rect x="0" y="280" width="552" height="40" rx="4" fill="#DBEAFE"/>
      <text x="16" y="305" fill="#1E40AF" font-size="10">ℹ Serveur: ftp.cluster042.hosting.ovh.net | Port: 21 (FTP) ou 22 (SFTP)</text>
    </g>

    <!-- Actions -->
    <g transform="translate(24, 370)">
      <rect x="0" y="0" width="100" height="36" rx="4" fill="#FFFFFF" stroke="#E5E7EB"/>
      <text x="50" y="23" class="text-dark" font-size="12" text-anchor="middle">Annuler</text>
      
      <rect x="452" y="0" width="100" height="36" rx="4" fill="#0050D7"/>
      <text x="502" y="23" class="text-white" font-size="12" text-anchor="middle">Créer</text>
    </g>
  </g>
</svg>
