<svg xmlns="http://www.w3.org/2000/svg" viewBox="0 0 1440 700" width="1440" height="700">
  <defs>
    <style>
      .bg-header { fill: #000E9C; }
      .bg-muted { fill: #F9FAFB; }
      .bg-white { fill: #FFFFFF; }
      .bg-primary { fill: #0050D7; }
      .bg-success { fill: #10B981; }
      .bg-table-header { fill: #F3F4F6; }
      .text-white { font-family: 'Source Sans Pro', sans-serif; fill: #FFFFFF; }
      .text-body { font-family: 'Source Sans Pro', sans-serif; font-size: 14px; fill: #1F2937; }
      .text-muted { font-family: 'Source Sans Pro', sans-serif; font-size: 14px; fill: #6B7280; }
      .text-link { font-family: 'Source Sans Pro', sans-serif; font-size: 14px; fill: #0050D7; }
      .text-success { fill: #059669; }
      .border { stroke: #E5E7EB; stroke-width: 1; fill: none; }
      .chip-success { fill: #D1FAE5; }
    </style>
  </defs>
  <rect width="1440" height="700" class="bg-muted"/>
  <rect width="1440" height="60" class="bg-header"/>
  <text x="80" y="38" class="text-white" font-size="20" font-weight="bold">OVHcloud</text>
  
  <rect x="0" y="60" width="240" height="640" class="bg-white"/>
  <rect x="240" y="60" width="1" height="640" class="border"/>
  <text x="20" y="100" class="text-muted" font-size="12" font-weight="600">SERVEURS</text>
  <rect x="0" y="110" width="240" height="40" fill="#E8F0FE"/>
  <text x="20" y="136" class="text-link" font-weight="600">VPS</text>
  
  <g transform="translate(280, 80)">
    <text x="0" y="20" class="text-muted" font-size="12">Bare Metal Cloud / VPS</text>
    <text x="0" y="60" font-family="Source Sans Pro" font-size="28" font-weight="600" fill="#1F2937">VPS</text>
    
    <!-- Search -->
    <g transform="translate(0, 100)">
      <rect width="300" height="40" rx="4" class="border" fill="#FFFFFF"/>
      <text x="12" y="26" class="text-muted">🔍 Rechercher...</text>
    </g>
    
    <!-- Datagrid -->
    <g transform="translate(0, 160)">
      <rect width="1100" height="350" rx="8" class="bg-white"/>
      <rect width="1100" height="350" rx="8" class="border"/>
      
      <rect width="1100" height="44" rx="8" class="bg-table-header"/>
      <text x="20" y="28" class="text-body" font-weight="600">Nom</text>
      <text x="320" y="28" class="text-body" font-weight="600">IP</text>
      <text x="500" y="28" class="text-body" font-weight="600">Modèle</text>
      <text x="680" y="28" class="text-body" font-weight="600">Localisation</text>
      <text x="850" y="28" class="text-body" font-weight="600">Status</text>
      
      <!-- Row 1 -->
      <g transform="translate(0, 44)">
        <rect width="1100" height="60" class="bg-white"/>
        <line x1="0" y1="60" x2="1100" y2="60" stroke="#E5E7EB"/>
        <text x="20" y="35" class="text-link">vps-abc123.vps.ovh.net</text>
        <text x="320" y="35" class="text-body">51.38.123.45</text>
        <text x="500" y="35" class="text-body">VPS Starter</text>
        <text x="680" y="35" class="text-body">Gravelines (GRA)</text>
        <g transform="translate(850, 18)">
          <rect width="60" height="24" rx="12" class="chip-success"/>
          <text x="12" y="17" class="text-success" font-size="12">Actif</text>
        </g>
      </g>
      
      <!-- Row 2 -->
      <g transform="translate(0, 104)">
        <rect width="1100" height="60" class="bg-white"/>
        <line x1="0" y1="60" x2="1100" y2="60" stroke="#E5E7EB"/>
        <text x="20" y="35" class="text-link">vps-xyz789.vps.ovh.net</text>
        <text x="320" y="35" class="text-body">51.77.234.56</text>
        <text x="500" y="35" class="text-body">VPS Value</text>
        <text x="680" y="35" class="text-body">Strasbourg (SBG)</text>
        <g transform="translate(850, 18)">
          <rect width="60" height="24" rx="12" class="chip-success"/>
          <text x="12" y="17" class="text-success" font-size="12">Actif</text>
        </g>
      </g>
      
      <!-- Row 3 -->
      <g transform="translate(0, 164)">
        <rect width="1100" height="60" class="bg-white"/>
        <line x1="0" y1="60" x2="1100" y2="60" stroke="#E5E7EB"/>
        <text x="20" y="35" class="text-link">vps-prod01.vps.ovh.net</text>
        <text x="320" y="35" class="text-body">141.94.100.10</text>
        <text x="500" y="35" class="text-body">VPS Essential</text>
        <text x="680" y="35" class="text-body">Roubaix (RBX)</text>
        <g transform="translate(850, 18)">
          <rect width="60" height="24" rx="12" class="chip-success"/>
          <text x="12" y="17" class="text-success" font-size="12">Actif</text>
        </g>
      </g>
    </g>
  </g>
</svg>
