<svg xmlns="http://www.w3.org/2000/svg" viewBox="0 0 1440 900" width="1440" height="900">
  <defs>
    <style>
      .bg-header { fill: #000E9C; }
      .bg-main { fill: #F6F6F9; }
      .bg-white { fill: #FFFFFF; }
      .border { stroke: #E5E7EB; stroke-width: 1; fill: none; }
      .text-white { fill: #FFFFFF; font-family: 'Source Sans Pro', sans-serif; }
      .text-dark { fill: #1F2937; font-family: 'Source Sans Pro', sans-serif; }
      .text-muted { fill: #6B7280; font-family: 'Source Sans Pro', sans-serif; }
      .text-primary { fill: #0050D7; font-family: 'Source Sans Pro', sans-serif; }
    </style>
  </defs>

  <rect width="1440" height="900" class="bg-main"/>
  <rect width="1440" height="50" class="bg-header"/>
  <text x="510" y="32" class="text-white" font-size="14" font-weight="600">Web Cloud</text>
  <rect y="50" width="1440" height="40" class="bg-white"/>
  <line x1="0" y1="90" x2="1440" y2="90" stroke="#E5E7EB"/>
  <text x="500" y="75" class="text-primary" font-size="14" font-weight="600">Hébergements</text>

  <!-- LEFT PANEL -->
  <g transform="translate(24, 105)">
    <rect x="0" y="0" width="280" height="780" rx="8" class="bg-white"/>
    <rect x="0" y="0" width="280" height="780" rx="8" class="border"/>
    <text x="20" y="35" class="text-dark" font-size="14" font-weight="600">mon-site-pro</text>
    <text x="20" y="52" class="text-muted" font-size="10">Hébergement Pro</text>
    <line x1="0" y1="70" x2="280" y2="70" stroke="#E5E7EB"/>
    <text x="20" y="94" class="text-dark" font-size="12">Tableau de bord</text>
    <text x="20" y="124" class="text-dark" font-size="12">Multisites</text>
    <text x="20" y="154" class="text-dark" font-size="12">Bases de données</text>
    <text x="20" y="184" class="text-dark" font-size="12">FTP - SSH</text>
    <text x="20" y="214" class="text-dark" font-size="12">Certificat SSL</text>
    <text x="20" y="244" class="text-dark" font-size="12">Modules</text>
    <text x="20" y="274" class="text-dark" font-size="12">Tâches planifiées</text>
    <text x="20" y="304" class="text-dark" font-size="12">Statistiques</text>
    <rect x="0" y="316" width="280" height="36" fill="#E8F0FE"/>
    <text x="20" y="340" class="text-primary" font-size="12" font-weight="600">Gestion</text>
  </g>

  <!-- RIGHT PANEL -->
  <g transform="translate(320, 105)">
    <rect x="0" y="0" width="1096" height="780" rx="8" class="bg-white"/>
    <rect x="0" y="0" width="1096" height="780" rx="8" class="border"/>

    <g transform="translate(24, 24)">
      <text x="0" y="20" class="text-dark" font-size="16" font-weight="600">Gestion de l'hébergement</text>

      <!-- Infos service -->
      <g transform="translate(0, 50)">
        <text x="0" y="0" class="text-dark" font-size="14" font-weight="600">Informations du service</text>
        
        <rect x="0" y="20" width="500" height="180" rx="6" class="bg-white"/>
        <rect x="0" y="20" width="500" height="180" rx="6" class="border"/>
        
        <g transform="translate(20, 50)">
          <text x="0" y="0" class="text-muted" font-size="10">Nom du service</text>
          <text x="0" y="20" class="text-dark" font-size="12" font-weight="500">mon-site-pro</text>
          
          <text x="200" y="0" class="text-muted" font-size="10">Offre</text>
          <rect x="200" y="8" width="50" height="18" rx="4" fill="#7C3AED"/>
          <text x="225" y="21" class="text-white" font-size="10" text-anchor="middle">Pro</text>
          
          <text x="0" y="55" class="text-muted" font-size="10">Cluster</text>
          <text x="0" y="75" class="text-dark" font-size="12">cluster028.hosting.ovh.net</text>
          
          <text x="200" y="55" class="text-muted" font-size="10">Datacenter</text>
          <text x="200" y="75" class="text-dark" font-size="12">Gravelines (GRA)</text>
          
          <text x="0" y="110" class="text-muted" font-size="10">Date de création</text>
          <text x="0" y="130" class="text-dark" font-size="12">15 juin 2024</text>
          
          <text x="200" y="110" class="text-muted" font-size="10">IPv4</text>
          <text x="200" y="130" class="text-dark" font-size="12">51.83.123.45</text>
        </g>
      </g>

      <!-- Facturation -->
      <g transform="translate(520, 50)">
        <text x="0" y="0" class="text-dark" font-size="14" font-weight="600">Facturation</text>
        
        <rect x="0" y="20" width="500" height="180" rx="6" class="bg-white"/>
        <rect x="0" y="20" width="500" height="180" rx="6" class="border"/>
        
        <g transform="translate(20, 50)">
          <text x="0" y="0" class="text-muted" font-size="10">Prochaine facturation</text>
          <text x="0" y="25" class="text-dark" font-size="20" font-weight="700">6,99 €</text>
          <text x="70" y="25" class="text-muted" font-size="12">HT/mois</text>
          
          <text x="200" y="0" class="text-muted" font-size="10">Date de renouvellement</text>
          <text x="200" y="20" class="text-dark" font-size="12">15 janvier 2026</text>
          
          <text x="0" y="60" class="text-muted" font-size="10">Mode de paiement</text>
          <text x="0" y="80" class="text-dark" font-size="12">Prélèvement automatique</text>
          
          <rect x="0" y="100" width="150" height="28" rx="4" stroke="#0050D7" fill="#FFFFFF"/>
          <text x="75" y="118" class="text-primary" font-size="10" text-anchor="middle">Voir les factures</text>
          
          <rect x="170" y="100" width="150" height="28" rx="4" fill="#0050D7"/>
          <text x="245" y="118" class="text-white" font-size="10" text-anchor="middle">Changer d'offre</text>
        </g>
      </g>

      <!-- Configuration technique -->
      <g transform="translate(0, 270)">
        <text x="0" y="0" class="text-dark" font-size="14" font-weight="600">Configuration technique</text>
        
        <rect x="0" y="20" width="1020" height="140" rx="6" class="bg-white"/>
        <rect x="0" y="20" width="1020" height="140" rx="6" class="border"/>
        
        <g transform="translate(20, 50)">
          <text x="0" y="0" class="text-muted" font-size="10">Version PHP</text>
          <rect x="0" y="10" width="100" height="32" rx="4" fill="#F3F4F6"/>
          <text x="50" y="31" class="text-dark" font-size="11" text-anchor="middle">8.2 ▼</text>
          
          <text x="130" y="0" class="text-muted" font-size="10">Moteur</text>
          <rect x="130" y="10" width="120" height="32" rx="4" fill="#F3F4F6"/>
          <text x="190" y="31" class="text-dark" font-size="11" text-anchor="middle">PHP-FPM ▼</text>
          
          <text x="280" y="0" class="text-muted" font-size="10">Environment</text>
          <rect x="280" y="10" width="120" height="32" rx="4" fill="#F3F4F6"/>
          <text x="340" y="31" class="text-dark" font-size="11" text-anchor="middle">production ▼</text>
          
          <text x="430" y="0" class="text-muted" font-size="10">Firewall applicatif</text>
          <rect x="430" y="15" width="50" height="24" rx="12" fill="#0050D7"/>
          <circle cx="468" cy="27" r="8" fill="#FFFFFF"/>
          
          <text x="0" y="75" class="text-muted" font-size="10">Boost performance</text>
          <rect x="0" y="85" width="50" height="24" rx="12" fill="#E5E7EB"/>
          <circle cx="12" cy="97" r="8" fill="#FFFFFF"/>
          <text x="70" y="100" class="text-muted" font-size="10">+5€/mois</text>
          
          <text x="200" y="75" class="text-muted" font-size="10">CDN</text>
          <rect x="200" y="85" width="50" height="24" rx="12" fill="#0050D7"/>
          <circle cx="238" cy="97" r="8" fill="#FFFFFF"/>
          <text x="270" y="100" fill="#059669" font-size="10">Inclus</text>
        </g>
      </g>

      <!-- Actions admin -->
      <g transform="translate(0, 450)">
        <text x="0" y="0" class="text-dark" font-size="14" font-weight="600">Actions administratives</text>
        
        <rect x="0" y="20" width="500" height="120" rx="6" class="bg-white"/>
        <rect x="0" y="20" width="500" height="120" rx="6" class="border"/>
        
        <g transform="translate(20, 50)">
          <text x="0" y="0" class="text-dark" font-size="12" font-weight="500">Nom d'affichage</text>
          <rect x="0" y="10" width="280" height="32" rx="4" fill="#F3F4F6"/>
          <text x="10" y="31" class="text-dark" font-size="11">Site principal entreprise</text>
          <rect x="290" y="10" width="100" height="32" rx="4" fill="#0050D7"/>
          <text x="340" y="31" class="text-white" font-size="10" text-anchor="middle">Modifier</text>
          
          <rect x="0" y="60" width="180" height="28" rx="4" stroke="#0050D7" fill="#FFFFFF"/>
          <text x="90" y="78" class="text-primary" font-size="10" text-anchor="middle">Modifier contact</text>
        </g>
      </g>

      <!-- Zone danger -->
      <g transform="translate(520, 450)">
        <text x="0" y="0" class="text-dark" font-size="14" font-weight="600">Zone de danger</text>
        
        <rect x="0" y="20" width="500" height="120" rx="6" fill="#FEE2E2"/>
        <rect x="0" y="20" width="500" height="120" rx="6" stroke="#DC2626"/>
        
        <g transform="translate(20, 50)">
          <text x="0" y="0" class="text-dark" font-size="12" font-weight="500">Résilier l'hébergement</text>
          <text x="0" y="20" fill="#DC2626" font-size="10">Cette action supprimera définitivement tous vos fichiers et bases de données.</text>
          <text x="0" y="35" fill="#DC2626" font-size="10">Les données ne pourront pas être récupérées.</text>
          <rect x="0" y="55" width="150" height="28" rx="4" fill="#DC2626"/>
          <text x="75" y="73" class="text-white" font-size="10" text-anchor="middle">Résilier</text>
        </g>
      </g>

      <!-- Support -->
      <g transform="translate(0, 610)">
        <text x="0" y="0" class="text-dark" font-size="14" font-weight="600">Support</text>
        
        <g transform="translate(0, 25)">
          <rect x="0" y="0" width="320" height="80" rx="6" fill="#F9FAFB"/>
          <text x="160" y="30" class="text-dark" font-size="11" text-anchor="middle">📞 Contacter le support</text>
          <text x="160" y="55" class="text-muted" font-size="10" text-anchor="middle">Ouvrir un ticket</text>
          
          <rect x="350" y="0" width="320" height="80" rx="6" fill="#F9FAFB"/>
          <text x="510" y="30" class="text-dark" font-size="11" text-anchor="middle">📚 Documentation</text>
          <text x="510" y="55" class="text-muted" font-size="10" text-anchor="middle">Guides et tutoriels</text>
          
          <rect x="700" y="0" width="320" height="80" rx="6" fill="#F9FAFB"/>
          <text x="860" y="30" class="text-dark" font-size="11" text-anchor="middle">🔔 Status OVH</text>
          <text x="860" y="55" class="text-muted" font-size="10" text-anchor="middle">Travaux et incidents</text>
        </g>
      </g>
    </g>
  </g>
</svg>
