<svg xmlns="http://www.w3.org/2000/svg" viewBox="0 0 1440 850" width="1440" height="850">
  <defs>
    <style>
      .bg-muted { fill: #F9FAFB; }
      .bg-white { fill: #FFFFFF; }
      .bg-header { fill: #000E9C; }
      .bg-primary { fill: #0050D7; }
      .bg-success { fill: #DEF7EC; }
      .text-body { font-family: 'Source Sans Pro', sans-serif; font-size: 14px; fill: #1F2937; }
      .text-muted { font-family: 'Source Sans Pro', sans-serif; font-size: 14px; fill: #6B7280; }
      .text-title { font-family: 'Source Sans Pro', sans-serif; font-size: 24px; font-weight: 600; fill: #1F2937; }
      .text-subtitle { font-family: 'Source Sans Pro', sans-serif; font-size: 18px; font-weight: 600; fill: #1F2937; }
      .text-white { font-family: 'Source Sans Pro', sans-serif; font-size: 14px; fill: #FFFFFF; }
      .text-link { font-family: 'Source Sans Pro', sans-serif; font-size: 14px; fill: #0050D7; }
      .text-success { fill: #03543F; }
      .tile { fill: #FFFFFF; stroke: #E5E7EB; stroke-width: 1; }
      .toggle-on { fill: #0050D7; }
      .toggle-off { fill: #E5E7EB; }
      .input { fill: #FFFFFF; stroke: #E5E7EB; stroke-width: 1; }
    </style>
  </defs>
  
  <!-- Background -->
  <rect width="1440" height="850" class="bg-muted"/>
  
  <!-- Header OVH -->
  <rect width="1440" height="60" class="bg-header"/>
  <text x="20" y="38" class="text-white" font-size="20" font-weight="bold">OVHcloud</text>
  <text x="150" y="38" class="text-white">Télécom</text>
  
  <!-- Sidebar -->
  <rect x="0" y="60" width="240" height="790" class="bg-white"/>
  <line x1="240" y1="60" x2="240" y2="850" stroke="#E5E7EB"/>
  
  <text x="20" y="100" class="text-muted" font-size="12">ACCÈS INTERNET</text>
  <rect x="0" y="110" width="240" height="36" fill="#E8F0FE"/>
  <text x="20" y="134" class="text-link" font-weight="600">xdsl-ab12345-1</text>
  
  <!-- Main Content -->
  <g transform="translate(280, 80)">
    <!-- Back link -->
    <text x="0" y="0" class="text-link">← Retour à Mon modem</text>
    
    <!-- Title -->
    <text x="0" y="40" class="text-title">Configurer le Wi-Fi</text>
    
    <!-- Description -->
    <text x="0" y="75" class="text-muted">Le mode Wi-Fi permet de configurer le réseau sans fil du modem pour que vos équipements sans fil puissent s'y connecter.</text>
    
    <!-- Content -->
    <g transform="translate(0, 100)">
      <!-- Tile: État Wi-Fi -->
      <rect x="0" y="0" width="900" height="100" rx="8" class="tile"/>
      <text x="20" y="35" class="text-subtitle">État du Wi-Fi</text>
      
      <text x="20" y="70" class="text-muted">Wi-Fi</text>
      <rect x="150" y="55" width="44" height="22" rx="11" class="toggle-on"/>
      <circle cx="181" cy="66" r="8" fill="#FFFFFF"/>
      <text x="210" y="70" class="text-body">Activé</text>
      
      <rect x="320" y="50" width="100" height="32" rx="4" class="bg-success"/>
      <text x="340" y="72" class="text-success" font-size="13">Wi-Fi activé</text>
      
      <!-- Tile: Réseau Wi-Fi 2.4 GHz -->
      <rect x="0" y="120" width="440" height="280" rx="8" class="tile"/>
      <text x="20" y="150" class="text-subtitle">Réseau Wi-Fi 2.4 GHz</text>
      
      <text x="20" y="190" class="text-muted">Nom du réseau (SSID)</text>
      <rect x="20" y="200" width="400" height="36" rx="4" class="input"/>
      <text x="35" y="224" class="text-body">OVH_WiFi_AB12</text>
      
      <text x="20" y="260" class="text-muted">Clé de sécurité</text>
      <rect x="20" y="270" width="400" height="36" rx="4" class="input"/>
      <text x="35" y="294" class="text-body">••••••••••••••••</text>
      <text x="380" y="294" class="text-link">👁</text>
      
      <text x="20" y="330" class="text-muted">Type de sécurité</text>
      <rect x="20" y="340" width="200" height="36" rx="4" class="input"/>
      <text x="35" y="364" class="text-body">WPA2-PSK</text>
      <text x="200" y="364" class="text-muted">▼</text>
      
      <text x="240" y="330" class="text-muted">Canal</text>
      <rect x="240" y="340" width="180" height="36" rx="4" class="input"/>
      <text x="255" y="364" class="text-body">Auto</text>
      <text x="400" y="364" class="text-muted">▼</text>
      
      <!-- Tile: Réseau Wi-Fi 5 GHz -->
      <rect x="460" y="120" width="440" height="280" rx="8" class="tile"/>
      <text x="480" y="150" class="text-subtitle">Réseau Wi-Fi 5 GHz</text>
      
      <text x="480" y="190" class="text-muted">Nom du réseau (SSID)</text>
      <rect x="480" y="200" width="400" height="36" rx="4" class="input"/>
      <text x="495" y="224" class="text-body">OVH_WiFi_AB12_5G</text>
      
      <text x="480" y="260" class="text-muted">Clé de sécurité</text>
      <rect x="480" y="270" width="400" height="36" rx="4" class="input"/>
      <text x="495" y="294" class="text-body">••••••••••••••••</text>
      <text x="840" y="294" class="text-link">👁</text>
      
      <text x="480" y="330" class="text-muted">Type de sécurité</text>
      <rect x="480" y="340" width="200" height="36" rx="4" class="input"/>
      <text x="495" y="364" class="text-body">WPA2-PSK</text>
      <text x="660" y="364" class="text-muted">▼</text>
      
      <text x="700" y="330" class="text-muted">Canal</text>
      <rect x="700" y="340" width="180" height="36" rx="4" class="input"/>
      <text x="715" y="364" class="text-body">Auto</text>
      <text x="860" y="364" class="text-muted">▼</text>
      
      <!-- Tile: Options avancées -->
      <rect x="0" y="420" width="900" height="120" rx="8" class="tile"/>
      <text x="20" y="455" class="text-subtitle">Options avancées</text>
      
      <text x="20" y="495" class="text-muted">Wi-Fi activé par défaut</text>
      <rect x="200" y="480" width="44" height="22" rx="11" class="toggle-on"/>
      <circle cx="231" cy="491" r="8" fill="#FFFFFF"/>
      <text x="260" y="495" class="text-body">Oui</text>
      
      <text x="400" y="495" class="text-muted">Diffusion du SSID</text>
      <rect x="550" y="480" width="44" height="22" rx="11" class="toggle-on"/>
      <circle cx="581" cy="491" r="8" fill="#FFFFFF"/>
      <text x="610" y="495" class="text-body">Oui</text>
      
      <!-- Buttons -->
      <rect x="0" y="560" width="140" height="40" rx="4" class="bg-primary"/>
      <text x="35" y="586" class="text-white">Enregistrer</text>
      
      <rect x="160" y="560" width="100" height="40" rx="4" stroke="#E5E7EB" fill="#FFFFFF"/>
      <text x="185" y="586" class="text-body">Annuler</text>
    </g>
  </g>
</svg>
