<?xml version="1.0" encoding="UTF-8"?>
<svg width="1100" height="550" viewBox="0 0 1100 550" fill="none" xmlns="http://www.w3.org/2000/svg">
  <title>Licence - DirectAdmin Licences List</title>
  <rect width="1100" height="550" fill="#F9FAFB"/>
  <g transform="translate(30, 30)"><text x="0" y="0" fill="#1F2937" font-family="system-ui, sans-serif" font-size="22" font-weight="600">Licences DirectAdmin</text><text x="0" y="30" fill="#6B7280" font-family="system-ui, sans-serif" font-size="13">Gérez vos licences DirectAdmin pour vos serveurs web.</text></g>
  <g transform="translate(900, 25)"><rect x="0" y="0" width="170" height="40" rx="4" fill="#0050D7"/><text x="30" y="26" fill="white" font-family="system-ui, sans-serif" font-size="13">+ Commander licence</text></g>
  <g transform="translate(30, 90)">
    <rect x="0" y="0" width="200" height="80" rx="8" fill="white" stroke="#E5E7EB"/>
    <text x="20" y="30" fill="#6B7280" font-family="system-ui, sans-serif" font-size="12">Licences actives</text>
    <text x="20" y="60" fill="#1F2937" font-family="system-ui, sans-serif" font-size="28" font-weight="600">4</text>
  </g>
  <g transform="translate(250, 90)">
    <rect x="0" y="0" width="200" height="80" rx="8" fill="white" stroke="#E5E7EB"/>
    <text x="20" y="30" fill="#6B7280" font-family="system-ui, sans-serif" font-size="12">Coût mensuel</text>
    <text x="20" y="60" fill="#1F2937" font-family="system-ui, sans-serif" font-size="28" font-weight="600">€ 20</text>
  </g>
  <g transform="translate(30, 200)">
    <rect x="0" y="0" width="1040" height="280" rx="8" fill="white" stroke="#E5E7EB"/>
    <g transform="translate(0, 0)">
      <rect x="0" y="0" width="1040" height="45" rx="8" fill="#F9FAFB"/>
      <text x="20" y="28" fill="#6B7280" font-family="system-ui, sans-serif" font-size="11" font-weight="600">LICENCE ID</text>
      <text x="180" y="28" fill="#6B7280" font-family="system-ui, sans-serif" font-size="11" font-weight="600">SERVEUR</text>
      <text x="400" y="28" fill="#6B7280" font-family="system-ui, sans-serif" font-size="11" font-weight="600">TYPE</text>
      <text x="550" y="28" fill="#6B7280" font-family="system-ui, sans-serif" font-size="11" font-weight="600">IP</text>
      <text x="700" y="28" fill="#6B7280" font-family="system-ui, sans-serif" font-size="11" font-weight="600">EXPIRATION</text>
      <text x="850" y="28" fill="#6B7280" font-family="system-ui, sans-serif" font-size="11" font-weight="600">STATUT</text>
      <text x="980" y="28" fill="#6B7280" font-family="system-ui, sans-serif" font-size="11" font-weight="600"></text>
    </g>
    <g transform="translate(0, 55)">
      <text x="20" y="25" fill="#1F2937" font-family="monospace" font-size="12">da-33333</text>
      <text x="180" y="25" fill="#1F2937" font-family="system-ui, sans-serif" font-size="13">hosting-vps-01</text>
      <text x="400" y="25" fill="#6B7280" font-family="system-ui, sans-serif" font-size="12">Personal</text>
      <text x="550" y="25" fill="#6B7280" font-family="monospace" font-size="12">51.210.xxx.xxx</text>
      <text x="700" y="25" fill="#1F2937" font-family="system-ui, sans-serif" font-size="12">20 jan. 2025</text>
      <rect x="850" y="5" width="60" height="22" rx="4" fill="#DCFCE7"/><text x="865" y="21" fill="#16A34A" font-family="system-ui, sans-serif" font-size="10">Active</text>
      <text x="980" y="23" fill="#0050D7" font-family="system-ui, sans-serif" font-size="12" cursor="pointer">⋮</text>
    </g>
    <line x1="20" y1="95" x2="1020" y2="95" stroke="#E5E7EB"/>
    <g transform="translate(0, 105)">
      <text x="20" y="25" fill="#1F2937" font-family="monospace" font-size="12">da-33334</text>
      <text x="180" y="25" fill="#1F2937" font-family="system-ui, sans-serif" font-size="13">hosting-vps-02</text>
      <text x="400" y="25" fill="#6B7280" font-family="system-ui, sans-serif" font-size="12">Personal</text>
      <text x="550" y="25" fill="#6B7280" font-family="monospace" font-size="12">51.210.xxx.xxx</text>
      <text x="700" y="25" fill="#1F2937" font-family="system-ui, sans-serif" font-size="12">20 jan. 2025</text>
      <rect x="850" y="5" width="60" height="22" rx="4" fill="#DCFCE7"/><text x="865" y="21" fill="#16A34A" font-family="system-ui, sans-serif" font-size="10">Active</text>
      <text x="980" y="23" fill="#0050D7" font-family="system-ui, sans-serif" font-size="12" cursor="pointer">⋮</text>
    </g>
    <line x1="20" y1="145" x2="1020" y2="145" stroke="#E5E7EB"/>
    <g transform="translate(0, 155)">
      <text x="20" y="25" fill="#1F2937" font-family="monospace" font-size="12">da-33335</text>
      <text x="180" y="25" fill="#1F2937" font-family="system-ui, sans-serif" font-size="13">reseller-server</text>
      <text x="400" y="25" fill="#6B7280" font-family="system-ui, sans-serif" font-size="12">Lite</text>
      <text x="550" y="25" fill="#6B7280" font-family="monospace" font-size="12">91.134.xxx.xxx</text>
      <text x="700" y="25" fill="#1F2937" font-family="system-ui, sans-serif" font-size="12">20 jan. 2025</text>
      <rect x="850" y="5" width="60" height="22" rx="4" fill="#DCFCE7"/><text x="865" y="21" fill="#16A34A" font-family="system-ui, sans-serif" font-size="10">Active</text>
      <text x="980" y="23" fill="#0050D7" font-family="system-ui, sans-serif" font-size="12" cursor="pointer">⋮</text>
    </g>
    <line x1="20" y1="195" x2="1020" y2="195" stroke="#E5E7EB"/>
    <g transform="translate(0, 205)">
      <text x="20" y="25" fill="#1F2937" font-family="monospace" font-size="12">da-33336</text>
      <text x="180" y="25" fill="#1F2937" font-family="system-ui, sans-serif" font-size="13">dev-server</text>
      <text x="400" y="25" fill="#6B7280" font-family="system-ui, sans-serif" font-size="12">Personal</text>
      <text x="550" y="25" fill="#6B7280" font-family="monospace" font-size="12">51.77.xxx.xxx</text>
      <text x="700" y="25" fill="#1F2937" font-family="system-ui, sans-serif" font-size="12">20 jan. 2025</text>
      <rect x="850" y="5" width="60" height="22" rx="4" fill="#DCFCE7"/><text x="865" y="21" fill="#16A34A" font-family="system-ui, sans-serif" font-size="10">Active</text>
      <text x="980" y="23" fill="#0050D7" font-family="system-ui, sans-serif" font-size="12" cursor="pointer">⋮</text>
    </g>
  </g>
</svg>
