<?xml version="1.0" encoding="UTF-8"?>
<svg width="1100" height="500" viewBox="0 0 1100 500" fill="none" xmlns="http://www.w3.org/2000/svg">
  <title>Public Cloud - Container Registry</title>
  <rect width="1100" height="500" fill="#F9FAFB"/>
  <g transform="translate(30, 30)"><text x="0" y="0" fill="#1F2937" font-family="system-ui, sans-serif" font-size="22" font-weight="600">Container Registry</text><text x="0" y="30" fill="#6B7280" font-family="system-ui, sans-serif" font-size="13">Registre d'images Docker privé.</text></g>
  <g transform="translate(30, 90)">
    <rect x="0" y="0" width="400" height="50" rx="4" fill="#F9FAFB" stroke="#E5E7EB"/>
    <text x="15" y="20" fill="#6B7280" font-family="system-ui, sans-serif" font-size="11">Endpoint</text>
    <text x="15" y="38" fill="#1F2937" font-family="monospace" font-size="12">xxxx.gra7.container-registry.ovh.net</text>
  </g>
  <g transform="translate(900, 90)"><rect x="0" y="0" width="150" height="40" rx="4" fill="#0050D7"/><text x="30" y="26" fill="white" font-family="system-ui, sans-serif" font-size="13">+ Push image</text></g>
  <g transform="translate(30, 170)">
    <rect x="0" y="0" width="1040" height="290" rx="8" fill="white" stroke="#E5E7EB"/>
    <g transform="translate(0, 0)"><rect x="0" y="0" width="1040" height="45" rx="8" fill="#F9FAFB"/><text x="20" y="28" fill="#6B7280" font-family="system-ui, sans-serif" font-size="12" font-weight="500">Image</text><text x="350" y="28" fill="#6B7280" font-family="system-ui, sans-serif" font-size="12" font-weight="500">Tags</text><text x="500" y="28" fill="#6B7280" font-family="system-ui, sans-serif" font-size="12" font-weight="500">Taille</text><text x="620" y="28" fill="#6B7280" font-family="system-ui, sans-serif" font-size="12" font-weight="500">Pulls</text><text x="720" y="28" fill="#6B7280" font-family="system-ui, sans-serif" font-size="12" font-weight="500">Dernière MAJ</text><text x="880" y="28" fill="#6B7280" font-family="system-ui, sans-serif" font-size="12" font-weight="500">Visibilité</text><text x="980" y="28" fill="#6B7280" font-family="system-ui, sans-serif" font-size="12" font-weight="500">Actions</text></g>
    <g transform="translate(0, 50)"><line x1="0" y1="0" x2="1040" y2="0" stroke="#E5E7EB"/><text x="20" y="35" fill="#1F2937" font-family="system-ui, sans-serif" font-size="13" font-weight="500">myproject/api-backend</text><text x="350" y="35" fill="#1F2937" font-family="system-ui, sans-serif" font-size="13">12</text><text x="500" y="35" fill="#1F2937" font-family="system-ui, sans-serif" font-size="13">450 MB</text><text x="620" y="35" fill="#1F2937" font-family="system-ui, sans-serif" font-size="13">1,234</text><text x="720" y="35" fill="#1F2937" font-family="system-ui, sans-serif" font-size="13">29/12/2024</text><g transform="translate(880, 18)"><rect x="0" y="0" width="60" height="22" rx="4" fill="#FEF3C7"/><text x="12" y="15" fill="#92400E" font-family="system-ui, sans-serif" font-size="10">Private</text></g><g transform="translate(980, 18)"><rect x="0" y="0" width="30" height="30" rx="4" fill="#F9FAFB" stroke="#E5E7EB"/><text x="11" y="22" fill="#6B7280" font-family="system-ui, sans-serif" font-size="14">⋮</text></g></g>
    <g transform="translate(0, 110)"><line x1="0" y1="0" x2="1040" y2="0" stroke="#E5E7EB"/><text x="20" y="35" fill="#1F2937" font-family="system-ui, sans-serif" font-size="13" font-weight="500">myproject/frontend</text><text x="350" y="35" fill="#1F2937" font-family="system-ui, sans-serif" font-size="13">8</text><text x="500" y="35" fill="#1F2937" font-family="system-ui, sans-serif" font-size="13">180 MB</text><text x="620" y="35" fill="#1F2937" font-family="system-ui, sans-serif" font-size="13">856</text><text x="720" y="35" fill="#1F2937" font-family="system-ui, sans-serif" font-size="13">28/12/2024</text><g transform="translate(880, 18)"><rect x="0" y="0" width="60" height="22" rx="4" fill="#FEF3C7"/><text x="12" y="15" fill="#92400E" font-family="system-ui, sans-serif" font-size="10">Private</text></g><g transform="translate(980, 18)"><rect x="0" y="0" width="30" height="30" rx="4" fill="#F9FAFB" stroke="#E5E7EB"/><text x="11" y="22" fill="#6B7280" font-family="system-ui, sans-serif" font-size="14">⋮</text></g></g>
    <g transform="translate(0, 170)"><line x1="0" y1="0" x2="1040" y2="0" stroke="#E5E7EB"/><text x="20" y="35" fill="#1F2937" font-family="system-ui, sans-serif" font-size="13" font-weight="500">myproject/worker</text><text x="350" y="35" fill="#1F2937" font-family="system-ui, sans-serif" font-size="13">5</text><text x="500" y="35" fill="#1F2937" font-family="system-ui, sans-serif" font-size="13">320 MB</text><text x="620" y="35" fill="#1F2937" font-family="system-ui, sans-serif" font-size="13">421</text><text x="720" y="35" fill="#1F2937" font-family="system-ui, sans-serif" font-size="13">25/12/2024</text><g transform="translate(880, 18)"><rect x="0" y="0" width="60" height="22" rx="4" fill="#FEF3C7"/><text x="12" y="15" fill="#92400E" font-family="system-ui, sans-serif" font-size="10">Private</text></g><g transform="translate(980, 18)"><rect x="0" y="0" width="30" height="30" rx="4" fill="#F9FAFB" stroke="#E5E7EB"/><text x="11" y="22" fill="#6B7280" font-family="system-ui, sans-serif" font-size="14">⋮</text></g></g>
    <g transform="translate(0, 230)"><line x1="0" y1="0" x2="1040" y2="0" stroke="#E5E7EB"/><text x="20" y="35" fill="#1F2937" font-family="system-ui, sans-serif" font-size="13" font-weight="500">myproject/nginx-proxy</text><text x="350" y="35" fill="#1F2937" font-family="system-ui, sans-serif" font-size="13">3</text><text x="500" y="35" fill="#1F2937" font-family="system-ui, sans-serif" font-size="13">45 MB</text><text x="620" y="35" fill="#1F2937" font-family="system-ui, sans-serif" font-size="13">2,102</text><text x="720" y="35" fill="#1F2937" font-family="system-ui, sans-serif" font-size="13">20/12/2024</text><g transform="translate(880, 18)"><rect x="0" y="0" width="60" height="22" rx="4" fill="#DCFCE7"/><text x="12" y="15" fill="#16A34A" font-family="system-ui, sans-serif" font-size="10">Public</text></g><g transform="translate(980, 18)"><rect x="0" y="0" width="30" height="30" rx="4" fill="#F9FAFB" stroke="#E5E7EB"/><text x="11" y="22" fill="#6B7280" font-family="system-ui, sans-serif" font-size="14">⋮</text></g></g>
  </g>
</svg>
