<svg xmlns="http://www.w3.org/2000/svg" viewBox="0 0 1440 900" width="1440" height="900">
  <defs>
    <style>
      .bg-header { fill: #000E9C; }
      .bg-main { fill: #F6F6F9; }
      .bg-white { fill: #FFFFFF; }
      .bg-primary { fill: #0050D7; }
      .bg-success { fill: #DEF7EC; }
      .border { stroke: #E5E7EB; stroke-width: 1; fill: none; }
      .divider { stroke: #E5E7EB; stroke-width: 1; }
      .text-white { fill: #FFFFFF; font-family: 'Source Sans Pro', sans-serif; }
      .text-dark { fill: #1F2937; font-family: 'Source Sans Pro', sans-serif; }
      .text-muted { fill: #6B7280; font-family: 'Source Sans Pro', sans-serif; }
      .text-primary { fill: #0050D7; font-family: 'Source Sans Pro', sans-serif; }
      .text-success { fill: #059669; font-family: 'Source Sans Pro', sans-serif; }
    </style>
  </defs>

  <!-- Background -->
  <rect width="1440" height="900" class="bg-main"/>

  <!-- NAV1 - Header OVH -->
  <rect width="1440" height="50" class="bg-header"/>
  <text x="510" y="32" class="text-white" font-size="14" font-weight="600">Web Cloud</text>
  <rect x="505" y="46" width="75" height="3" fill="#FFFFFF"/>

  <!-- NAV2 -->
  <rect x="0" y="50" width="1440" height="40" class="bg-white"/>
  <line x1="0" y1="89" x2="1440" y2="89" class="divider"/>
  <text x="500" y="75" class="text-primary" font-size="14" font-weight="600">VoIP</text>
  <rect x="495" y="85" width="35" height="3" class="bg-primary"/>

  <!-- CONTENT AREA -->
  <g transform="translate(0, 105)">
    <!-- LEFT PANEL -->
    <g transform="translate(24, 0)">
      <rect x="0" y="0" width="280" height="765" rx="8" class="bg-white"/>
      <rect x="0" y="0" width="280" height="765" rx="8" class="border"/>

      <rect x="12" y="12" width="256" height="34" rx="4" fill="#F9FAFB" stroke="#E5E7EB"/>
      <text x="26" y="34" class="text-muted" font-size="12">Rechercher...</text>

      <rect x="0" y="80" width="280" height="55" fill="#E8F0FE"/>
      <text x="12" y="100" class="text-dark" font-size="12" font-weight="500">+33 1 23 45 67 89</text>
      <text x="12" y="118" class="text-muted" font-size="10">Ligne principale</text>
      <rect x="220" y="92" width="46" height="18" rx="9" class="bg-success"/>
      <text x="243" y="104" class="text-success" font-size="10" text-anchor="middle">Actif</text>
    </g>

    <!-- RIGHT PANEL -->
    <g transform="translate(320, 0)">
      <rect x="0" y="0" width="1096" height="765" rx="8" class="bg-white"/>
      <rect x="0" y="0" width="1096" height="765" rx="8" class="border"/>

      <g transform="translate(20, 0)">
        <!-- Page title -->
        <text x="0" y="30" class="text-dark" font-size="18" font-weight="600">Consommation - Appels sortants</text>

        <!-- Content -->
        <g transform="translate(0, 60)">
          <!-- Summary info -->
          <text x="0" y="0" class="text-dark" font-size="12">Periode : 01/12/2025 - 31/12/2025</text>
          <text x="0" y="25" class="text-dark" font-size="12">Appels inclus dans le forfait : 245 appels - Duree totale : 12:34:56</text>
          <text x="0" y="50" class="text-dark" font-size="12">Appels hors forfait : 12 appels - Duree : 00:45:23 - Cout : 8.50 EUR HT</text>

          <!-- Filter button -->
          <g transform="translate(950, 10)">
            <rect x="0" y="0" width="100" height="32" rx="4" fill="#FFFFFF" stroke="#E5E7EB"/>
            <text x="50" y="21" class="text-dark" font-size="12" text-anchor="middle">Filtrer</text>
          </g>

          <!-- Datagrid -->
          <rect x="0" y="80" width="1056" height="550" rx="8" class="bg-white" stroke="#E5E7EB"/>

          <!-- Table header -->
          <rect x="0" y="80" width="1056" height="35" fill="#F9FAFB" rx="8"/>
          <text x="16" y="103" class="text-muted" font-size="11" font-weight="600">Date</text>
          <text x="200" y="103" class="text-muted" font-size="11" font-weight="600">Numero appele</text>
          <text x="400" y="103" class="text-muted" font-size="11" font-weight="600">Duree</text>
          <text x="550" y="103" class="text-muted" font-size="11" font-weight="600">Type</text>
          <text x="700" y="103" class="text-muted" font-size="11" font-weight="600">Destination</text>
          <text x="900" y="103" class="text-muted" font-size="11" font-weight="600">Prix HT</text>

          <!-- Row 1 -->
          <g transform="translate(0, 115)">
            <rect x="0" y="0" width="1056" height="45" fill="#FFFFFF"/>
            <line x1="0" y1="45" x2="1056" y2="45" class="divider"/>
            <text x="16" y="28" class="text-dark" font-size="11">02/01/2026 14:32</text>
            <text x="200" y="28" class="text-dark" font-size="11">+33 6 12 34 56 78</text>
            <text x="400" y="28" class="text-dark" font-size="11">00:05:23</text>
            <text x="550" y="28" class="text-dark" font-size="11">Sortant</text>
            <text x="700" y="28" class="text-dark" font-size="11">Mobile France</text>
            <text x="900" y="28" class="text-dark" font-size="11">0.00 EUR</text>
          </g>

          <!-- Row 2 -->
          <g transform="translate(0, 160)">
            <rect x="0" y="0" width="1056" height="45" fill="#FFFFFF"/>
            <line x1="0" y1="45" x2="1056" y2="45" class="divider"/>
            <text x="16" y="28" class="text-dark" font-size="11">02/01/2026 11:15</text>
            <text x="200" y="28" class="text-dark" font-size="11">+33 1 45 67 89 01</text>
            <text x="400" y="28" class="text-dark" font-size="11">00:12:45</text>
            <text x="550" y="28" class="text-dark" font-size="11">Sortant</text>
            <text x="700" y="28" class="text-dark" font-size="11">Fixe France</text>
            <text x="900" y="28" class="text-dark" font-size="11">0.00 EUR</text>
          </g>

          <!-- Row 3 -->
          <g transform="translate(0, 205)">
            <rect x="0" y="0" width="1056" height="45" fill="#FFFFFF"/>
            <line x1="0" y1="45" x2="1056" y2="45" class="divider"/>
            <text x="16" y="28" class="text-dark" font-size="11">02/01/2026 09:30</text>
            <text x="200" y="28" class="text-dark" font-size="11">+49 30 12345678</text>
            <text x="400" y="28" class="text-dark" font-size="11">00:08:12</text>
            <text x="550" y="28" class="text-dark" font-size="11">Sortant</text>
            <text x="700" y="28" class="text-dark" font-size="11">International</text>
            <text x="900" y="28" class="text-dark" font-size="11">2.45 EUR</text>
          </g>

          <!-- Row 4 -->
          <g transform="translate(0, 250)">
            <rect x="0" y="0" width="1056" height="45" fill="#FFFFFF"/>
            <line x1="0" y1="45" x2="1056" y2="45" class="divider"/>
            <text x="16" y="28" class="text-dark" font-size="11">01/01/2026 16:45</text>
            <text x="200" y="28" class="text-dark" font-size="11">+33 8 91 23 45 67</text>
            <text x="400" y="28" class="text-dark" font-size="11">00:02:34</text>
            <text x="550" y="28" class="text-dark" font-size="11">Sortant</text>
            <text x="700" y="28" class="text-dark" font-size="11">Special</text>
            <text x="900" y="28" class="text-dark" font-size="11">1.20 EUR</text>
          </g>

          <!-- Row 5 -->
          <g transform="translate(0, 295)">
            <rect x="0" y="0" width="1056" height="45" fill="#FFFFFF"/>
            <line x1="0" y1="45" x2="1056" y2="45" class="divider"/>
            <text x="16" y="28" class="text-dark" font-size="11">01/01/2026 14:20</text>
            <text x="200" y="28" class="text-dark" font-size="11">+33 6 98 76 54 32</text>
            <text x="400" y="28" class="text-dark" font-size="11">00:15:00</text>
            <text x="550" y="28" class="text-dark" font-size="11">Sortant</text>
            <text x="700" y="28" class="text-dark" font-size="11">Mobile France</text>
            <text x="900" y="28" class="text-dark" font-size="11">0.00 EUR</text>
          </g>

          <!-- Row 6 -->
          <g transform="translate(0, 340)">
            <rect x="0" y="0" width="1056" height="45" fill="#FFFFFF"/>
            <line x1="0" y1="45" x2="1056" y2="45" class="divider"/>
            <text x="16" y="28" class="text-dark" font-size="11">01/01/2026 10:10</text>
            <text x="200" y="28" class="text-dark" font-size="11">+33 1 23 45 67 00</text>
            <text x="400" y="28" class="text-dark" font-size="11">00:03:45</text>
            <text x="550" y="28" class="text-dark" font-size="11">Sortant</text>
            <text x="700" y="28" class="text-dark" font-size="11">Fixe France</text>
            <text x="900" y="28" class="text-dark" font-size="11">0.00 EUR</text>
          </g>

          <!-- Pagination -->
          <g transform="translate(16, 580)">
            <text x="0" y="14" class="text-muted" font-size="11">Page 1 sur 15</text>
            <g transform="translate(900, 0)">
              <rect x="0" y="0" width="28" height="28" rx="4" fill="#FFFFFF" stroke="#E5E7EB"/>
              <text x="14" y="18" class="text-muted" font-size="11" text-anchor="middle">‹</text>
              <rect x="32" y="0" width="28" height="28" rx="4" class="bg-primary"/>
              <text x="46" y="18" class="text-white" font-size="11" text-anchor="middle">1</text>
              <rect x="64" y="0" width="28" height="28" rx="4" fill="#FFFFFF" stroke="#E5E7EB"/>
              <text x="78" y="18" class="text-dark" font-size="11" text-anchor="middle">2</text>
              <rect x="96" y="0" width="28" height="28" rx="4" fill="#FFFFFF" stroke="#E5E7EB"/>
              <text x="110" y="18" class="text-dark" font-size="11" text-anchor="middle">3</text>
              <rect x="128" y="0" width="28" height="28" rx="4" fill="#FFFFFF" stroke="#E5E7EB"/>
              <text x="142" y="18" class="text-muted" font-size="11" text-anchor="middle">›</text>
            </g>
          </g>
        </g>
      </g>
    </g>
  </g>
</svg>
