<svg xmlns="http://www.w3.org/2000/svg" viewBox="0 0 1440 900" width="1440" height="900">
  <defs>
    <style>
      .bg-header { fill: #000E9C; }
      .bg-white { fill: #FFFFFF; }
      .bg-muted { fill: #F9FAFB; }
      .bg-primary { fill: #0050D7; }
      .text-white { fill: #FFFFFF; font-family: 'Source Sans Pro', sans-serif; }
      .text-body { fill: #1F2937; font-family: 'Source Sans Pro', sans-serif; font-size: 14px; }
      .text-muted { fill: #6B7280; font-family: 'Source Sans Pro', sans-serif; font-size: 14px; }
      .text-primary { fill: #0050D7; font-family: 'Source Sans Pro', sans-serif; font-size: 14px; }
      .text-title { fill: #1F2937; font-family: 'Source Sans Pro', sans-serif; font-size: 24px; font-weight: 600; }
      .text-danger { fill: #DC2626; }
      .border { stroke: #E5E7EB; stroke-width: 1; fill: none; }
      .table-header { fill: #F3F4F6; }
    </style>
  </defs>

  <!-- Background -->
  <rect width="1440" height="900" class="bg-muted"/>

  <!-- Header -->
  <rect width="1440" height="60" class="bg-header"/>
  <text x="80" y="38" class="text-white" font-size="20" font-weight="bold">OVHcloud</text>
  <text x="200" y="38" class="text-white" font-size="14">Telecom</text>

  <!-- Back button + Title -->
  <g transform="translate(80, 90)">
    <text class="text-primary" font-size="14">&lt; Retour</text>
    <text y="40" class="text-title">Notifications - 0033972101234</text>
  </g>

  <!-- Main Content -->
  <g transform="translate(80, 170)">
    <rect width="1200" height="550" class="bg-white" rx="8"/>

    <!-- Add button -->
    <g transform="translate(20, 20)">
      <rect width="180" height="40" class="bg-primary" rx="4"/>
      <text x="15" y="26" class="text-white" font-size="14">+ Ajouter une notification</text>
    </g>

    <!-- Table Header -->
    <g transform="translate(20, 80)">
      <rect width="1160" height="40" class="table-header" rx="4"/>
      <text x="20" y="27" class="text-body" font-weight="600">Email</text>
      <text x="400" y="27" class="text-body" font-weight="600">Type</text>
      <text x="700" y="27" class="text-body" font-weight="600">Source</text>
      <text x="1000" y="27" class="text-body" font-weight="600">Actions</text>
    </g>

    <!-- Row 1 -->
    <g transform="translate(20, 130)">
      <text x="20" y="18" class="text-body">contact@monentreprise.fr</text>
      <text x="400" y="18" class="text-body">Toutes les notifications</text>
      <text x="700" y="18" class="text-body">Fax et Voicemail</text>
      <g transform="translate(1000, -5)">
        <g>
          <rect width="32" height="28" fill="#FFFFFF" stroke="#E5E7EB" rx="4"/>
          <text x="8" y="19" class="text-primary" font-size="14">✎</text>
        </g>
        <g transform="translate(40, 0)">
          <rect width="32" height="28" fill="#FFFFFF" stroke="#E5E7EB" rx="4"/>
          <text x="8" y="19" class="text-danger" font-size="14">🗑</text>
        </g>
      </g>
      <line x1="0" y1="35" x2="1160" y2="35" stroke="#E5E7EB"/>
    </g>

    <!-- Row 2 -->
    <g transform="translate(20, 175)">
      <text x="20" y="18" class="text-body">compta@monentreprise.fr</text>
      <text x="400" y="18" class="text-body">Resume quotidien</text>
      <text x="700" y="18" class="text-body">Fax uniquement</text>
      <g transform="translate(1000, -5)">
        <g>
          <rect width="32" height="28" fill="#FFFFFF" stroke="#E5E7EB" rx="4"/>
          <text x="8" y="19" class="text-primary" font-size="14">✎</text>
        </g>
        <g transform="translate(40, 0)">
          <rect width="32" height="28" fill="#FFFFFF" stroke="#E5E7EB" rx="4"/>
          <text x="8" y="19" class="text-danger" font-size="14">🗑</text>
        </g>
      </g>
      <line x1="0" y1="35" x2="1160" y2="35" stroke="#E5E7EB"/>
    </g>

    <!-- Row 3 (Edit mode) -->
    <g transform="translate(20, 220)">
      <!-- Email input -->
      <g transform="translate(10, -5)">
        <rect width="350" height="36" fill="#FFFFFF" stroke="#0050D7" rx="4"/>
        <text x="15" y="24" class="text-body">direction@monentreprise.fr</text>
      </g>

      <!-- Type select -->
      <g transform="translate(390, -5)">
        <rect width="280" height="36" fill="#FFFFFF" stroke="#E5E7EB" rx="4"/>
        <text x="15" y="24" class="text-body">Toutes les notifications</text>
        <text x="250" y="24" class="text-muted">v</text>
      </g>

      <!-- Source select -->
      <g transform="translate(690, -5)">
        <rect width="200" height="36" fill="#FFFFFF" stroke="#E5E7EB" rx="4"/>
        <text x="15" y="24" class="text-body">Voicemail</text>
        <text x="170" y="24" class="text-muted">v</text>
      </g>

      <!-- Action buttons -->
      <g transform="translate(1000, -5)">
        <g>
          <rect width="32" height="28" class="bg-primary" rx="4"/>
          <text x="8" y="19" class="text-white" font-size="14">✓</text>
        </g>
        <g transform="translate(40, 0)">
          <rect width="32" height="28" fill="#FFFFFF" stroke="#E5E7EB" rx="4"/>
          <text x="8" y="19" class="text-muted" font-size="14">✕</text>
        </g>
      </g>
      <line x1="0" y1="45" x2="1160" y2="45" stroke="#E5E7EB"/>
    </g>

    <!-- Row 4 -->
    <g transform="translate(20, 280)">
      <text x="20" y="18" class="text-body">tech@monentreprise.fr</text>
      <text x="400" y="18" class="text-body">Erreurs uniquement</text>
      <text x="700" y="18" class="text-body">Fax uniquement</text>
      <g transform="translate(1000, -5)">
        <g>
          <rect width="32" height="28" fill="#FFFFFF" stroke="#E5E7EB" rx="4"/>
          <text x="8" y="19" class="text-primary" font-size="14">✎</text>
        </g>
        <g transform="translate(40, 0)">
          <rect width="32" height="28" fill="#FFFFFF" stroke="#E5E7EB" rx="4"/>
          <text x="8" y="19" class="text-danger" font-size="14">🗑</text>
        </g>
      </g>
    </g>

    <!-- Pagination -->
    <g transform="translate(20, 480)">
      <text class="text-muted" font-size="12">4 notifications (max 5)</text>
    </g>
  </g>
</svg>
