<svg xmlns="http://www.w3.org/2000/svg" viewBox="0 0 1440 900" width="1440" height="900">
  <defs>
    <style>
      .bg-header { fill: #000E9C; }
      .bg-main { fill: #F6F6F9; }
      .bg-white { fill: #FFFFFF; }
      .bg-primary { fill: #0050D7; }
      .bg-success { fill: #DEF7EC; }
      .border { stroke: #E5E7EB; stroke-width: 1; fill: none; }
      .divider { stroke: #E5E7EB; stroke-width: 1; }
      .btn-danger { fill: #DC2626; }
      .text-white { fill: #FFFFFF; font-family: 'Source Sans Pro', sans-serif; }
      .text-dark { fill: #1F2937; font-family: 'Source Sans Pro', sans-serif; }
      .text-muted { fill: #6B7280; font-family: 'Source Sans Pro', sans-serif; }
      .text-primary { fill: #0050D7; font-family: 'Source Sans Pro', sans-serif; }
      .text-success { fill: #059669; font-family: 'Source Sans Pro', sans-serif; }
    </style>
  </defs>

  <!-- Background -->
  <rect width="1440" height="900" class="bg-main"/>

  <!-- NAV1 - Header OVH -->
  <rect width="1440" height="50" class="bg-header"/>
  <text x="510" y="32" class="text-white" font-size="14" font-weight="600">Web Cloud</text>
  <rect x="505" y="46" width="75" height="3" fill="#FFFFFF"/>

  <!-- NAV2 -->
  <rect x="0" y="50" width="1440" height="40" class="bg-white"/>
  <line x1="0" y1="89" x2="1440" y2="89" class="divider"/>
  <text x="500" y="75" class="text-primary" font-size="14" font-weight="600">VoIP</text>
  <rect x="495" y="85" width="35" height="3" class="bg-primary"/>

  <!-- CONTENT AREA -->
  <g transform="translate(0, 105)">
    <!-- LEFT PANEL -->
    <g transform="translate(24, 0)">
      <rect x="0" y="0" width="280" height="765" rx="8" class="bg-white"/>
      <rect x="0" y="0" width="280" height="765" rx="8" class="border"/>

      <rect x="12" y="12" width="256" height="34" rx="4" fill="#F9FAFB" stroke="#E5E7EB"/>
      <text x="26" y="34" class="text-muted" font-size="12">Rechercher...</text>

      <rect x="0" y="80" width="280" height="55" fill="#E8F0FE"/>
      <text x="12" y="100" class="text-dark" font-size="12" font-weight="500">+33 1 23 45 67 89</text>
      <text x="12" y="118" class="text-muted" font-size="10">Ligne principale</text>
      <rect x="220" y="92" width="46" height="18" rx="9" class="bg-success"/>
      <text x="243" y="104" class="text-success" font-size="10" text-anchor="middle">Actif</text>
    </g>

    <!-- RIGHT PANEL -->
    <g transform="translate(320, 0)">
      <rect x="0" y="0" width="1096" height="765" rx="8" class="bg-white"/>
      <rect x="0" y="0" width="1096" height="765" rx="8" class="border"/>

      <g transform="translate(20, 0)">
        <!-- Page title -->
        <text x="0" y="30" class="text-dark" font-size="18" font-weight="600">Gestion des messages vocaux</text>

        <!-- Content -->
        <g transform="translate(0, 60)">
          <!-- Delete selected button -->
          <rect x="0" y="0" width="180" height="36" rx="4" fill="#FFFFFF" stroke="#E5E7EB"/>
          <text x="90" y="23" class="text-dark" font-size="12" text-anchor="middle">Supprimer la selection</text>

          <!-- Datagrid -->
          <rect x="0" y="50" width="1056" height="550" rx="8" class="bg-white" stroke="#E5E7EB"/>

          <!-- Table header -->
          <rect x="0" y="50" width="1056" height="35" fill="#F9FAFB" rx="8"/>
          <g transform="translate(16, 73)">
            <rect x="0" y="-8" width="16" height="16" rx="2" fill="#FFFFFF" stroke="#E5E7EB"/>
          </g>
          <text x="50" y="73" class="text-muted" font-size="11" font-weight="600">Appelant</text>
          <text x="250" y="73" class="text-muted" font-size="11" font-weight="600">Date</text>
          <text x="450" y="73" class="text-muted" font-size="11" font-weight="600">Duree</text>
          <text x="600" y="73" class="text-muted" font-size="11" font-weight="600">Actions</text>

          <!-- Refresh button -->
          <g transform="translate(1010, 58)">
            <text x="0" y="14" class="text-primary" font-size="14">↻</text>
          </g>

          <!-- Row 1 -->
          <g transform="translate(0, 85)">
            <rect x="0" y="0" width="1056" height="50" fill="#FFFFFF"/>
            <line x1="0" y1="50" x2="1056" y2="50" class="divider"/>
            <g transform="translate(16, 22)">
              <rect x="0" y="-8" width="16" height="16" rx="2" fill="#FFFFFF" stroke="#0050D7" stroke-width="2"/>
              <path d="M3 0 L6 3 L13 -4" stroke="#0050D7" fill="none" stroke-width="2"/>
            </g>
            <text x="50" y="30" class="text-dark" font-size="12">+33 6 12 34 56 78</text>
            <text x="250" y="22" class="text-dark" font-size="11">02/01/2026</text>
            <text x="250" y="38" class="text-muted" font-size="10">14:32:15</text>
            <text x="450" y="30" class="text-dark" font-size="12">01:23</text>
            <g transform="translate(600, 15)">
              <text x="0" y="14" class="text-primary" font-size="14">▶</text>
              <text x="40" y="14" class="text-primary" font-size="14">👁</text>
              <text x="80" y="14" class="text-primary" font-size="14">⬇</text>
              <text x="120" y="14" fill="#DC2626" font-size="14">🗑</text>
            </g>
          </g>

          <!-- Row 2 -->
          <g transform="translate(0, 135)">
            <rect x="0" y="0" width="1056" height="50" fill="#FFFFFF"/>
            <line x1="0" y1="50" x2="1056" y2="50" class="divider"/>
            <g transform="translate(16, 22)">
              <rect x="0" y="-8" width="16" height="16" rx="2" fill="#FFFFFF" stroke="#E5E7EB"/>
            </g>
            <text x="50" y="30" class="text-dark" font-size="12">+33 1 45 67 89 01</text>
            <text x="250" y="22" class="text-dark" font-size="11">02/01/2026</text>
            <text x="250" y="38" class="text-muted" font-size="10">11:15:00</text>
            <text x="450" y="30" class="text-dark" font-size="12">00:45</text>
            <g transform="translate(600, 15)">
              <text x="0" y="14" class="text-primary" font-size="14">▶</text>
              <text x="40" y="14" class="text-primary" font-size="14">👁</text>
              <text x="80" y="14" class="text-primary" font-size="14">⬇</text>
              <text x="120" y="14" fill="#DC2626" font-size="14">🗑</text>
            </g>
          </g>

          <!-- Row 3 -->
          <g transform="translate(0, 185)">
            <rect x="0" y="0" width="1056" height="50" fill="#FFFFFF"/>
            <line x1="0" y1="50" x2="1056" y2="50" class="divider"/>
            <g transform="translate(16, 22)">
              <rect x="0" y="-8" width="16" height="16" rx="2" fill="#FFFFFF" stroke="#E5E7EB"/>
            </g>
            <text x="50" y="30" class="text-dark" font-size="12">+33 6 98 76 54 32</text>
            <text x="250" y="22" class="text-dark" font-size="11">01/01/2026</text>
            <text x="250" y="38" class="text-muted" font-size="10">16:42:30</text>
            <text x="450" y="30" class="text-dark" font-size="12">02:10</text>
            <g transform="translate(600, 15)">
              <text x="0" y="14" class="text-primary" font-size="14">▶</text>
              <text x="40" y="14" class="text-primary" font-size="14">👁</text>
              <text x="80" y="14" class="text-primary" font-size="14">⬇</text>
              <text x="120" y="14" fill="#DC2626" font-size="14">🗑</text>
            </g>
          </g>

          <!-- Row 4 -->
          <g transform="translate(0, 235)">
            <rect x="0" y="0" width="1056" height="50" fill="#FFFFFF"/>
            <line x1="0" y1="50" x2="1056" y2="50" class="divider"/>
            <g transform="translate(16, 22)">
              <rect x="0" y="-8" width="16" height="16" rx="2" fill="#FFFFFF" stroke="#E5E7EB"/>
            </g>
            <text x="50" y="30" class="text-dark" font-size="12">+33 1 00 00 00 00</text>
            <text x="250" y="22" class="text-dark" font-size="11">01/01/2026</text>
            <text x="250" y="38" class="text-muted" font-size="10">09:30:00</text>
            <text x="450" y="30" class="text-dark" font-size="12">00:30</text>
            <g transform="translate(600, 15)">
              <text x="0" y="14" class="text-primary" font-size="14">▶</text>
              <text x="40" y="14" class="text-primary" font-size="14">👁</text>
              <text x="80" y="14" class="text-primary" font-size="14">⬇</text>
              <text x="120" y="14" fill="#DC2626" font-size="14">🗑</text>
            </g>
          </g>

          <!-- Row 5 -->
          <g transform="translate(0, 285)">
            <rect x="0" y="0" width="1056" height="50" fill="#FFFFFF"/>
            <line x1="0" y1="50" x2="1056" y2="50" class="divider"/>
            <g transform="translate(16, 22)">
              <rect x="0" y="-8" width="16" height="16" rx="2" fill="#FFFFFF" stroke="#E5E7EB"/>
            </g>
            <text x="50" y="30" class="text-dark" font-size="12">Numero masque</text>
            <text x="250" y="22" class="text-dark" font-size="11">31/12/2025</text>
            <text x="250" y="38" class="text-muted" font-size="10">18:00:00</text>
            <text x="450" y="30" class="text-dark" font-size="12">00:15</text>
            <g transform="translate(600, 15)">
              <text x="0" y="14" class="text-primary" font-size="14">▶</text>
              <text x="40" y="14" class="text-primary" font-size="14">👁</text>
              <text x="80" y="14" class="text-primary" font-size="14">⬇</text>
              <text x="120" y="14" fill="#DC2626" font-size="14">🗑</text>
            </g>
          </g>

          <!-- Pagination -->
          <g transform="translate(16, 550)">
            <text x="0" y="14" class="text-muted" font-size="11">5 messages vocaux</text>
            <g transform="translate(900, 0)">
              <rect x="0" y="0" width="28" height="28" rx="4" fill="#FFFFFF" stroke="#E5E7EB"/>
              <text x="14" y="18" class="text-muted" font-size="11" text-anchor="middle">‹</text>
              <rect x="32" y="0" width="28" height="28" rx="4" class="bg-primary"/>
              <text x="46" y="18" class="text-white" font-size="11" text-anchor="middle">1</text>
              <rect x="64" y="0" width="28" height="28" rx="4" fill="#FFFFFF" stroke="#E5E7EB"/>
              <text x="78" y="18" class="text-muted" font-size="11" text-anchor="middle">›</text>
            </g>
          </g>
        </g>
      </g>
    </g>
  </g>
</svg>
