<svg xmlns="http://www.w3.org/2000/svg" viewBox="0 0 900 600" width="900" height="600">
  <defs>
    <style>
      .bg-white { fill: #FFFFFF; }
      .bg-muted { fill: #F9FAFB; }
      .bg-tab-active { fill: #0050D7; }
      .text-dark { font-family: 'Source Sans Pro', sans-serif; font-size: 14px; fill: #1F2937; }
      .text-muted { font-family: 'Source Sans Pro', sans-serif; font-size: 13px; fill: #6B7280; }
      .text-white { font-family: 'Source Sans Pro', sans-serif; fill: #FFFFFF; }
      .text-title { font-family: 'Source Sans Pro', sans-serif; font-size: 20px; font-weight: 600; fill: #1F2937; }
      .text-price { font-family: 'Source Sans Pro', sans-serif; font-size: 16px; font-weight: 600; fill: #059669; }
      .text-link { font-family: 'Source Sans Pro', sans-serif; font-size: 12px; fill: #0050D7; }
      .border { stroke: #E5E7EB; stroke-width: 1; fill: none; }
      .card-selected { stroke: #0050D7; stroke-width: 2; }
      .btn-primary { fill: #0050D7; }
      .radio-selected { fill: #0050D7; }
      .radio-empty { fill: #FFFFFF; stroke: #D1D5DB; stroke-width: 2; }
    </style>
  </defs>

  <!-- Container -->
  <rect width="900" height="600" rx="8" class="bg-white"/>

  <!-- Header -->
  <text x="24" y="35" class="text-title">Choisir un téléphone</text>

  <!-- Filter dropdown -->
  <g transform="translate(750, 15)">
    <rect x="0" y="0" width="130" height="32" rx="4" class="bg-white border"/>
    <text x="15" y="21" class="text-dark">Trier par prix ▼</text>
  </g>

  <!-- Tabs -->
  <g transform="translate(24, 55)">
    <rect x="0" y="0" width="80" height="36" rx="4" class="bg-tab-active"/>
    <text x="25" y="23" class="text-white">Tous</text>

    <rect x="90" y="0" width="80" height="36" rx="4" class="bg-muted border"/>
    <text x="115" y="23" class="text-dark">Cisco</text>

    <rect x="180" y="0" width="80" height="36" rx="4" class="bg-muted border"/>
    <text x="200" y="23" class="text-dark">Yealink</text>

    <rect x="270" y="0" width="80" height="36" rx="4" class="bg-muted border"/>
    <text x="285" y="23" class="text-dark">Gigaset</text>

    <rect x="360" y="0" width="80" height="36" rx="4" class="bg-muted border"/>
    <text x="375" y="23" class="text-dark">Polycom</text>
  </g>

  <!-- Phone cards grid -->
  <g transform="translate(24, 110)">
    <!-- Card 1 - Selected -->
    <g transform="translate(0, 0)">
      <rect x="0" y="0" width="200" height="200" rx="8" class="bg-white card-selected"/>
      <circle cx="180" cy="20" r="10" class="radio-selected"/>
      <circle cx="180" cy="20" r="4" fill="#FFFFFF"/>
      <text x="100" y="35" class="text-dark" text-anchor="middle" font-weight="600">Cisco SPA504G</text>
      <rect x="50" y="50" width="100" height="80" fill="#F3F4F6" rx="4"/>
      <text x="100" y="95" class="text-muted" text-anchor="middle" font-size="24">📞</text>
      <text x="100" y="155" class="text-muted" text-anchor="middle">Caution</text>
      <text x="100" y="175" class="text-price" text-anchor="middle">99,00 € HT</text>
      <text x="100" y="195" class="text-link" text-anchor="middle">Voir les détails</text>
    </g>

    <!-- Card 2 -->
    <g transform="translate(220, 0)">
      <rect x="0" y="0" width="200" height="200" rx="8" class="bg-white border"/>
      <circle cx="180" cy="20" r="10" class="radio-empty"/>
      <text x="100" y="35" class="text-dark" text-anchor="middle" font-weight="600">Yealink T46U</text>
      <rect x="50" y="50" width="100" height="80" fill="#F3F4F6" rx="4"/>
      <text x="100" y="95" class="text-muted" text-anchor="middle" font-size="24">📞</text>
      <text x="100" y="155" class="text-muted" text-anchor="middle">Caution</text>
      <text x="100" y="175" class="text-price" text-anchor="middle">179,00 € HT</text>
      <text x="100" y="195" class="text-link" text-anchor="middle">Voir les détails</text>
    </g>

    <!-- Card 3 -->
    <g transform="translate(440, 0)">
      <rect x="0" y="0" width="200" height="200" rx="8" class="bg-white border"/>
      <circle cx="180" cy="20" r="10" class="radio-empty"/>
      <text x="100" y="35" class="text-dark" text-anchor="middle" font-weight="600">Gigaset DX800A</text>
      <rect x="50" y="50" width="100" height="80" fill="#F3F4F6" rx="4"/>
      <text x="100" y="95" class="text-muted" text-anchor="middle" font-size="24">📞</text>
      <text x="100" y="155" class="text-muted" text-anchor="middle">Caution</text>
      <text x="100" y="175" class="text-price" text-anchor="middle">249,00 € HT</text>
      <text x="100" y="195" class="text-link" text-anchor="middle">Voir les détails</text>
    </g>

    <!-- Card 4 -->
    <g transform="translate(660, 0)">
      <rect x="0" y="0" width="200" height="200" rx="8" class="bg-white border"/>
      <circle cx="180" cy="20" r="10" class="radio-empty"/>
      <text x="100" y="35" class="text-dark" text-anchor="middle" font-weight="600">Polycom VVX450</text>
      <rect x="50" y="50" width="100" height="80" fill="#F3F4F6" rx="4"/>
      <text x="100" y="95" class="text-muted" text-anchor="middle" font-size="24">📞</text>
      <text x="100" y="155" class="text-muted" text-anchor="middle">Caution</text>
      <text x="100" y="175" class="text-price" text-anchor="middle">299,00 € HT</text>
      <text x="100" y="195" class="text-link" text-anchor="middle">Voir les détails</text>
    </g>

    <!-- Row 2 -->
    <g transform="translate(0, 220)">
      <rect x="0" y="0" width="200" height="200" rx="8" class="bg-white border"/>
      <circle cx="180" cy="20" r="10" class="radio-empty"/>
      <text x="100" y="35" class="text-dark" text-anchor="middle" font-weight="600">Cisco SPA508G</text>
      <rect x="50" y="50" width="100" height="80" fill="#F3F4F6" rx="4"/>
      <text x="100" y="95" class="text-muted" text-anchor="middle" font-size="24">📞</text>
      <text x="100" y="155" class="text-muted" text-anchor="middle">Caution</text>
      <text x="100" y="175" class="text-price" text-anchor="middle">149,00 € HT</text>
      <text x="100" y="195" class="text-link" text-anchor="middle">Voir les détails</text>
    </g>

    <g transform="translate(220, 220)">
      <rect x="0" y="0" width="200" height="200" rx="8" class="bg-white border"/>
      <circle cx="180" cy="20" r="10" class="radio-empty"/>
      <text x="100" y="35" class="text-dark" text-anchor="middle" font-weight="600">Yealink T48U</text>
      <rect x="50" y="50" width="100" height="80" fill="#F3F4F6" rx="4"/>
      <text x="100" y="95" class="text-muted" text-anchor="middle" font-size="24">📞</text>
      <text x="100" y="155" class="text-muted" text-anchor="middle">Caution</text>
      <text x="100" y="175" class="text-price" text-anchor="middle">229,00 € HT</text>
      <text x="100" y="195" class="text-link" text-anchor="middle">Voir les détails</text>
    </g>
  </g>

  <!-- Separator -->
  <rect x="24" y="540" width="852" height="1" fill="#E5E7EB"/>

  <!-- Next button -->
  <g transform="translate(24, 555)">
    <rect x="0" y="0" width="120" height="36" rx="4" class="btn-primary"/>
    <text x="35" y="23" class="text-white">Suivant →</text>
  </g>
</svg>
