<svg xmlns="http://www.w3.org/2000/svg" viewBox="0 0 1440 900" width="1440" height="900">
  <defs>
    <style>
      .bg-header { fill: #000E9C; }
      .bg-main { fill: #F6F6F9; }
      .bg-white { fill: #FFFFFF; }
      .bg-primary { fill: #0050D7; }
      .bg-success { fill: #DEF7EC; }
      .border { stroke: #E5E7EB; stroke-width: 1; fill: none; }
      .divider { stroke: #E5E7EB; stroke-width: 1; }
      .text-white { fill: #FFFFFF; font-family: 'Source Sans Pro', sans-serif; }
      .text-dark { fill: #1F2937; font-family: 'Source Sans Pro', sans-serif; }
      .text-muted { fill: #6B7280; font-family: 'Source Sans Pro', sans-serif; }
      .text-primary { fill: #0050D7; font-family: 'Source Sans Pro', sans-serif; }
      .text-success { fill: #059669; font-family: 'Source Sans Pro', sans-serif; }
    </style>
  </defs>

  <!-- Background -->
  <rect width="1440" height="900" class="bg-main"/>

  <!-- NAV1 - Header OVH -->
  <rect width="1440" height="50" class="bg-header"/>
  <text x="510" y="32" class="text-white" font-size="14" font-weight="600">Web Cloud</text>
  <rect x="505" y="46" width="75" height="3" fill="#FFFFFF"/>

  <!-- NAV2 -->
  <rect x="0" y="50" width="1440" height="40" class="bg-white"/>
  <line x1="0" y1="89" x2="1440" y2="89" class="divider"/>
  <text x="500" y="75" class="text-primary" font-size="14" font-weight="600">VoIP</text>
  <rect x="495" y="85" width="35" height="3" class="bg-primary"/>

  <!-- CONTENT AREA -->
  <g transform="translate(0, 105)">
    <!-- LEFT PANEL -->
    <g transform="translate(24, 0)">
      <rect x="0" y="0" width="280" height="765" rx="8" class="bg-white"/>
      <rect x="0" y="0" width="280" height="765" rx="8" class="border"/>

      <rect x="12" y="12" width="256" height="34" rx="4" fill="#F9FAFB" stroke="#E5E7EB"/>
      <text x="26" y="34" class="text-muted" font-size="12">Rechercher...</text>

      <rect x="0" y="80" width="280" height="55" fill="#E8F0FE"/>
      <text x="12" y="100" class="text-dark" font-size="12" font-weight="500">ab12345-ovh-1</text>
      <text x="12" y="118" class="text-muted" font-size="10">Groupe principal</text>
      <rect x="220" y="92" width="46" height="18" rx="9" class="bg-success"/>
      <text x="243" y="104" class="text-success" font-size="10" text-anchor="middle">Actif</text>
    </g>

    <!-- RIGHT PANEL -->
    <g transform="translate(320, 0)">
      <rect x="0" y="0" width="1096" height="765" rx="8" class="bg-white"/>
      <rect x="0" y="0" width="1096" height="765" rx="8" class="border"/>

      <g transform="translate(20, 0)">
        <!-- Page title -->
        <text x="0" y="30" class="text-dark" font-size="18" font-weight="600">ab12345-ovh-1</text>
        <text x="0" y="50" class="text-muted" font-size="12">Groupe principal</text>

        <!-- NAV4 Tabs -->
        <g transform="translate(0, 70)">
          <text x="0" y="0" class="text-muted" font-size="12">Tableau de bord</text>
          <text x="130" y="0" class="text-muted" font-size="12">Facturation</text>
          <text x="230" y="0" class="text-muted" font-size="12">Administration</text>
          <text x="360" y="0" class="text-primary" font-size="12" font-weight="500">Guides</text>
          <rect x="360" y="6" width="45" height="2" class="bg-primary"/>
        </g>

        <line x1="0" y1="80" x2="1056" y2="80" class="divider"/>

        <!-- Content -->
        <g transform="translate(0, 100)">
          <!-- Section: Premiers pas -->
          <rect x="0" y="0" width="520" height="200" rx="8" class="bg-white" stroke="#E5E7EB"/>
          <text x="16" y="28" class="text-dark" font-size="15" font-weight="700">Premiers pas</text>
          <line x1="0" y1="44" x2="520" y2="44" class="divider"/>

          <g transform="translate(16, 60)">
            <text x="0" y="0" class="text-primary" font-size="12">Debuter avec la telephonie OVHcloud</text>
            <text x="380" y="0" class="text-muted" font-size="10">↗</text>

            <text x="0" y="30" class="text-primary" font-size="12">Configurer votre premiere ligne</text>
            <text x="380" y="30" class="text-muted" font-size="10">↗</text>

            <text x="0" y="60" class="text-primary" font-size="12">Commander un numero</text>
            <text x="380" y="60" class="text-muted" font-size="10">↗</text>

            <text x="0" y="90" class="text-primary" font-size="12">Activer la portabilite d'un numero</text>
            <text x="380" y="90" class="text-muted" font-size="10">↗</text>
          </g>

          <!-- Section: Configuration -->
          <rect x="540" y="0" width="516" height="200" rx="8" class="bg-white" stroke="#E5E7EB"/>
          <text x="556" y="28" class="text-dark" font-size="15" font-weight="700">Configuration</text>
          <line x1="540" y1="44" x2="1056" y2="44" class="divider"/>

          <g transform="translate(556, 60)">
            <text x="0" y="0" class="text-primary" font-size="12">Configurer un renvoi d'appel</text>
            <text x="380" y="0" class="text-muted" font-size="10">↗</text>

            <text x="0" y="30" class="text-primary" font-size="12">Gerer la messagerie vocale</text>
            <text x="380" y="30" class="text-muted" font-size="10">↗</text>

            <text x="0" y="60" class="text-primary" font-size="12">Configurer une file d'attente</text>
            <text x="380" y="60" class="text-muted" font-size="10">↗</text>

            <text x="0" y="90" class="text-primary" font-size="12">Parametrer un SVI</text>
            <text x="380" y="90" class="text-muted" font-size="10">↗</text>
          </g>

          <!-- Section: Telephones et equipements -->
          <rect x="0" y="220" width="520" height="200" rx="8" class="bg-white" stroke="#E5E7EB"/>
          <text x="16" y="248" class="text-dark" font-size="15" font-weight="700">Telephones et equipements</text>
          <line x1="0" y1="264" x2="520" y2="264" class="divider"/>

          <g transform="translate(16, 280)">
            <text x="0" y="0" class="text-primary" font-size="12">Installer un telephone Plug and Phone</text>
            <text x="380" y="0" class="text-muted" font-size="10">↗</text>

            <text x="0" y="30" class="text-primary" font-size="12">Configurer un telephone SIP</text>
            <text x="380" y="30" class="text-muted" font-size="10">↗</text>

            <text x="0" y="60" class="text-primary" font-size="12">Utiliser le Softphone OVHcloud</text>
            <text x="380" y="60" class="text-muted" font-size="10">↗</text>

            <text x="0" y="90" class="text-primary" font-size="12">Reinitialiser un equipement</text>
            <text x="380" y="90" class="text-muted" font-size="10">↗</text>
          </g>

          <!-- Section: Facturation -->
          <rect x="540" y="220" width="516" height="200" rx="8" class="bg-white" stroke="#E5E7EB"/>
          <text x="556" y="248" class="text-dark" font-size="15" font-weight="700">Facturation et gestion</text>
          <line x1="540" y1="264" x2="1056" y2="264" class="divider"/>

          <g transform="translate(556, 280)">
            <text x="0" y="0" class="text-primary" font-size="12">Comprendre votre facture VoIP</text>
            <text x="380" y="0" class="text-muted" font-size="10">↗</text>

            <text x="0" y="30" class="text-primary" font-size="12">Gerer vos groupes de facturation</text>
            <text x="380" y="30" class="text-muted" font-size="10">↗</text>

            <text x="0" y="60" class="text-primary" font-size="12">Configurer les seuils de credit</text>
            <text x="380" y="60" class="text-muted" font-size="10">↗</text>

            <text x="0" y="90" class="text-primary" font-size="12">Exporter l'historique des appels</text>
            <text x="380" y="90" class="text-muted" font-size="10">↗</text>
          </g>

          <!-- Section: API -->
          <rect x="0" y="440" width="520" height="150" rx="8" class="bg-white" stroke="#E5E7EB"/>
          <text x="16" y="468" class="text-dark" font-size="15" font-weight="700">API et developpement</text>
          <line x1="0" y1="484" x2="520" y2="484" class="divider"/>

          <g transform="translate(16, 500)">
            <text x="0" y="0" class="text-primary" font-size="12">Utiliser l'API Telephonie</text>
            <text x="380" y="0" class="text-muted" font-size="10">↗</text>

            <text x="0" y="30" class="text-primary" font-size="12">Envoyer des SMS par API</text>
            <text x="380" y="30" class="text-muted" font-size="10">↗</text>

            <text x="0" y="60" class="text-primary" font-size="12">Click-to-call via API</text>
            <text x="380" y="60" class="text-muted" font-size="10">↗</text>
          </g>
        </g>
      </g>
    </g>
  </g>
</svg>
