<svg xmlns="http://www.w3.org/2000/svg" viewBox="0 0 1440 900" width="1440" height="900">
  <defs>
    <style>
      .bg-header { fill: #000E9C; }
      .bg-white { fill: #FFFFFF; }
      .bg-muted { fill: #F9FAFB; }
      .bg-overlay { fill: rgba(0,0,0,0.5); }
      .bg-primary-light { fill: #E8F0FE; }
      .text-white { fill: #FFFFFF; font-family: 'Source Sans Pro', sans-serif; }
      .text-body { fill: #1F2937; font-family: 'Source Sans Pro', sans-serif; font-size: 14px; }
      .text-muted { fill: #6B7280; font-family: 'Source Sans Pro', sans-serif; font-size: 14px; }
      .text-title { fill: #1F2937; font-family: 'Source Sans Pro', sans-serif; font-size: 20px; font-weight: 600; }
      .text-link { fill: #0050D7; font-family: 'Source Sans Pro', sans-serif; font-size: 14px; }
      .border { stroke: #E5E7EB; stroke-width: 1; fill: none; }
      .btn-primary { fill: #0050D7; }
      .btn-secondary { fill: #FFFFFF; stroke: #E5E7EB; }
      .btn-text { fill: #FFFFFF; font-family: 'Source Sans Pro', sans-serif; font-size: 14px; }
      .btn-text-dark { fill: #1F2937; font-family: 'Source Sans Pro', sans-serif; font-size: 14px; }
      .modal-shadow { filter: drop-shadow(0 25px 50px rgba(0,0,0,0.25)); }
      .code-bg { fill: #F3F4F6; }
      .code-text { fill: #374151; font-family: monospace; font-size: 13px; }
      .tag { fill: #DBEAFE; }
      .tag-text { fill: #1E40AF; font-family: 'Source Sans Pro', sans-serif; font-size: 12px; }
    </style>
  </defs>
  <rect width="1440" height="900" class="bg-muted"/>
  <rect width="1440" height="60" class="bg-header"/>
  <text x="80" y="38" class="text-white" font-size="20" font-weight="bold">OVHcloud</text>
  <rect x="0" y="60" width="240" height="840" class="bg-white"/>
  <rect x="240" y="60" width="1" height="840" class="border"/>
  <text x="20" y="100" class="text-body" font-weight="600">SMS</text>
  <rect x="0" y="115" width="240" height="36" class="bg-primary-light"/>
  <text x="20" y="138" class="text-link">sms-xx12345-1</text>
  <text x="40" y="180" class="text-muted">Utilisateurs API</text>
  <text x="280" y="100" class="text-body" opacity="0.5">Gestion des utilisateurs</text>
  <rect x="240" y="60" width="1200" height="840" class="bg-overlay"/>
  <rect x="420" y="160" width="600" height="580" rx="8" class="bg-white modal-shadow"/>
  <text x="460" y="205" class="text-title">Restrictions IP - api_user_01</text>
  <text x="990" y="205" class="text-muted" style="cursor: pointer;">X</text>
  <line x1="420" y1="230" x2="1020" y2="230" stroke="#E5E7EB"/>
  <text x="460" y="275" class="text-body">Seules les adresses IP listees ci-dessous seront autorisees</text>
  <text x="460" y="295" class="text-body">a utiliser ce compte API.</text>
  <text x="460" y="340" class="text-body" font-weight="600">Ajouter une adresse IP</text>
  <rect x="460" y="355" width="380" height="44" rx="4" class="bg-white"/>
  <rect x="460" y="355" width="380" height="44" rx="4" class="border"/>
  <text x="480" y="383" class="text-muted">Ex: 192.168.1.100 ou 10.0.0.0/24</text>
  <rect x="860" y="355" width="100" height="44" rx="4" class="btn-primary"/>
  <text x="885" y="383" class="btn-text">Ajouter</text>
  <text x="460" y="435" class="text-body" font-weight="600">IPs autorisees</text>
  <rect x="460" y="455" width="500" height="180" rx="8" class="bg-muted"/>
  <rect x="480" y="475" width="130" height="28" rx="14" class="tag"/>
  <text x="495" y="494" class="tag-text">91.121.45.67</text>
  <text x="590" y="494" class="text-muted" font-size="12">x</text>
  <rect x="630" y="475" width="130" height="28" rx="14" class="tag"/>
  <text x="645" y="494" class="tag-text">87.98.154.23</text>
  <text x="740" y="494" class="text-muted" font-size="12">x</text>
  <rect x="480" y="515" width="150" height="28" rx="14" class="tag"/>
  <text x="495" y="534" class="tag-text">10.0.0.0/24</text>
  <text x="610" y="534" class="text-muted" font-size="12">x</text>
  <text x="480" y="590" class="text-muted" font-size="12">3 adresses/plages configurees</text>
  <text x="480" y="615" class="text-muted" font-size="12">Si aucune IP n'est configuree, toutes les connexions sont autorisees.</text>
  <line x1="420" y1="700" x2="1020" y2="700" stroke="#E5E7EB"/>
  <rect x="730" y="715" width="120" height="40" rx="4" class="btn-secondary"/>
  <text x="765" y="740" class="btn-text-dark">Annuler</text>
  <rect x="870" y="715" width="120" height="40" rx="4" class="btn-primary"/>
  <text x="895" y="740" class="btn-text">Enregistrer</text>
</svg>
