<svg xmlns="http://www.w3.org/2000/svg" viewBox="0 0 1440 900" width="1440" height="900">
  <defs>
    <style>
      .bg-header { fill: #000E9C; }
      .bg-muted { fill: #F9FAFB; }
      .bg-white { fill: #FFFFFF; }
      .bg-row-alt { fill: #F9FAFB; }
      .text-dark { font-family: Source Sans Pro, sans-serif; font-size: 14px; fill: #1F2937; }
      .text-muted { font-family: Source Sans Pro, sans-serif; font-size: 14px; fill: #6B7280; }
      .text-title { font-family: Source Sans Pro, sans-serif; font-size: 24px; font-weight: 600; fill: #1F2937; }
      .text-white { font-family: Source Sans Pro, sans-serif; fill: #FFFFFF; }
      .text-link { font-family: Source Sans Pro, sans-serif; font-size: 14px; fill: #0050D7; }
      .text-section { font-family: Source Sans Pro, sans-serif; font-size: 16px; font-weight: 600; fill: #1F2937; }
      .text-header { font-family: Source Sans Pro, sans-serif; font-size: 12px; font-weight: 600; fill: #6B7280; }
      .border { stroke: #E5E7EB; stroke-width: 1; fill: none; }
      .badge-success { fill: #DEF7EC; }
      .badge-warning { fill: #FEF3C7; }
      .badge-info { fill: #DBEAFE; }
      .text-success { fill: #03543F; }
      .text-warning { fill: #92400E; }
      .text-info { fill: #1E40AF; }
      .btn-primary { fill: #0050D7; }
      .tab-active { fill: #0050D7; }
      .tab-inactive { fill: #6B7280; }
    </style>
  </defs>
  <rect width="1440" height="900" class="bg-muted"/>
  <rect width="1440" height="60" class="bg-header"/>
  <text x="80" y="38" class="text-white" font-size="20" font-weight="bold">OVHcloud</text>
  <text x="200" y="38" class="text-white" font-size="14">Telecom</text>
  <rect x="0" y="60" width="240" height="840" class="bg-white"/>
  <rect x="240" y="60" width="1" height="840" class="border"/>
  <rect x="0" y="145" width="240" height="40" fill="#E8F0FE"/>
  <text x="20" y="100" class="text-dark" font-weight="600">Accueil</text>
  <text x="20" y="130" class="text-muted">Pack xDSL</text>
  <text x="20" y="170" fill="#0050D7" font-family="Source Sans Pro" font-size="14" font-weight="600">Telephonie</text>
  
  <g transform="translate(280, 80)">
    <text x="0" y="20" class="text-muted" font-size="13">Telephonie / grp-123456 / Fax / Campagnes</text>
    <text x="0" y="60" class="text-title">Campagnes de fax</text>
    
    <!-- Tabs -->
    <g transform="translate(0, 85)">
      <text x="0" y="0" class="tab-inactive">Tableau de bord</text>
      <text x="130" y="0" class="tab-inactive">Fax recus</text>
      <text x="220" y="0" class="tab-inactive">Fax envoyes</text>
      <text x="330" y="0" class="tab-active" font-weight="600">Campagnes</text>
      <line x1="330" y1="8" x2="410" y2="8" stroke="#0050D7" stroke-width="2"/>
    </g>
    
    <!-- Bouton nouvelle campagne -->
    <rect x="700" y="100" width="160" height="40" rx="4" class="btn-primary"/>
    <text x="725" y="126" class="text-white" font-size="14">Nouvelle campagne</text>
    
    <!-- Table -->
    <rect x="0" y="160" width="860" height="400" rx="8" class="bg-white"/>
    <rect x="0" y="160" width="860" height="400" rx="8" class="border"/>
    
    <!-- Header -->
    <rect x="0" y="160" width="860" height="44" rx="8" fill="#F3F4F6"/>
    <text x="20" y="188" class="text-header">NOM</text>
    <text x="200" y="188" class="text-header">DATE</text>
    <text x="350" y="188" class="text-header">DESTINATAIRES</text>
    <text x="500" y="188" class="text-header">STATUT</text>
    <text x="650" y="188" class="text-header">SUCCES</text>
    <text x="780" y="188" class="text-header">ACTIONS</text>
    
    <!-- Row 1 - Terminée -->
    <line x1="0" y1="204" x2="860" y2="204" stroke="#E5E7EB"/>
    <text x="20" y="232" class="text-dark">Promo Noel</text>
    <text x="200" y="232" class="text-dark">20/12/2024</text>
    <text x="350" y="232" class="text-dark">45</text>
    <rect x="500" y="216" width="80" height="24" rx="12" class="badge-success"/>
    <text x="515" y="233" class="text-success" font-size="12">Terminee</text>
    <text x="650" y="232" class="text-dark">42/45 (93%)</text>
    <text x="780" y="232" class="text-link">Details</text>
    
    <!-- Row 2 - En cours -->
    <rect x="1" y="248" width="858" height="44" class="bg-row-alt"/>
    <text x="20" y="276" class="text-dark">Newsletter Q4</text>
    <text x="200" y="276" class="text-dark">27/12/2024</text>
    <text x="350" y="276" class="text-dark">120</text>
    <rect x="500" y="260" width="80" height="24" rx="12" class="badge-info"/>
    <text x="515" y="277" class="text-info" font-size="12">En cours</text>
    <text x="650" y="276" class="text-dark">58/120 (48%)</text>
    <text x="780" y="276" class="text-link">Details</text>
    
    <!-- Row 3 - Planifiée -->
    <line x1="0" y1="292" x2="860" y2="292" stroke="#E5E7EB"/>
    <text x="20" y="320" class="text-dark">Voeux 2025</text>
    <text x="200" y="320" class="text-dark">01/01/2025</text>
    <text x="350" y="320" class="text-dark">200</text>
    <rect x="500" y="304" width="80" height="24" rx="12" class="badge-warning"/>
    <text x="512" y="321" class="text-warning" font-size="12">Planifiee</text>
    <text x="650" y="320" class="text-muted">-</text>
    <text x="780" y="320" class="text-link">Modifier</text>
    
    <!-- Row 4 - Terminée -->
    <rect x="1" y="336" width="858" height="44" class="bg-row-alt"/>
    <text x="20" y="364" class="text-dark">Rappel factures</text>
    <text x="200" y="364" class="text-dark">15/12/2024</text>
    <text x="350" y="364" class="text-dark">28</text>
    <rect x="500" y="348" width="80" height="24" rx="12" class="badge-success"/>
    <text x="515" y="365" class="text-success" font-size="12">Terminee</text>
    <text x="650" y="364" class="text-dark">25/28 (89%)</text>
    <text x="780" y="364" class="text-link">Details</text>
    
    <!-- Row 5 -->
    <line x1="0" y1="380" x2="860" y2="380" stroke="#E5E7EB"/>
    <text x="20" y="408" class="text-dark">Catalogue produits</text>
    <text x="200" y="408" class="text-dark">10/12/2024</text>
    <text x="350" y="408" class="text-dark">85</text>
    <rect x="500" y="392" width="80" height="24" rx="12" class="badge-success"/>
    <text x="515" y="409" class="text-success" font-size="12">Terminee</text>
    <text x="650" y="408" class="text-dark">78/85 (92%)</text>
    <text x="780" y="408" class="text-link">Details</text>
    
    <!-- Stats résumé -->
    <g transform="translate(20, 480)">
      <text x="0" y="0" class="text-muted">Total campagnes: 12</text>
      <text x="180" y="0" class="text-muted">Fax envoyes: 1,245</text>
      <text x="380" y="0" class="text-muted">Taux de succes moyen: 91%</text>
    </g>
    
    <!-- Pagination -->
    <g transform="translate(350, 520)">
      <rect x="0" y="0" width="32" height="32" rx="4" fill="#0050D7"/>
      <text x="12" y="21" class="text-white" font-size="12">1</text>
      <rect x="40" y="0" width="32" height="32" rx="4" class="border" fill="white"/>
      <text x="52" y="21" class="text-muted" font-size="12">2</text>
      <rect x="80" y="0" width="32" height="32" rx="4" class="border" fill="white"/>
      <text x="92" y="21" class="text-muted" font-size="12">3</text>
    </g>
  </g>
</svg>
