<?xml version="1.0" encoding="UTF-8"?>
<svg width="1200" height="500" viewBox="0 0 1200 500" fill="none" xmlns="http://www.w3.org/2000/svg">
  <title>VoIP - Ajouter un utilisateur Click2Call</title>

  <!-- Background -->
  <rect width="1200" height="500" fill="#F9FAFB"/>

  <!-- Header -->
  <rect width="1200" height="60" fill="#000E9C"/>
  <text x="40" y="38" fill="white" font-family="system-ui, sans-serif" font-size="18" font-weight="600">OVHcloud</text>
  <text x="160" y="38" fill="white" font-family="system-ui, sans-serif" font-size="14">Télécom › Téléphonie › Ligne › Click2Call</text>

  <!-- Back link -->
  <text x="40" y="95" fill="#0050D7" font-family="system-ui, sans-serif" font-size="13">← Retour à Click2Call</text>

  <!-- Page title -->
  <text x="40" y="135" fill="#1F2937" font-family="system-ui, sans-serif" font-size="24" font-weight="600">Click2Call</text>

  <!-- Card -->
  <rect x="40" y="165" width="560" height="300" rx="8" fill="white" stroke="#E5E7EB"/>

  <text x="70" y="200" fill="#1F2937" font-family="system-ui, sans-serif" font-size="16" font-weight="600">Ajouter un utilisateur</text>

  <!-- Login field -->
  <text x="70" y="245" fill="#6B7280" font-family="system-ui, sans-serif" font-size="13">Identifiant *</text>
  <rect x="70" y="255" width="480" height="40" rx="4" fill="white" stroke="#E5E7EB"/>
  <text x="90" y="280" fill="#9CA3AF" font-family="system-ui, sans-serif" font-size="13">Entrez un identifiant</text>

  <!-- Password field -->
  <text x="70" y="325" fill="#6B7280" font-family="system-ui, sans-serif" font-size="13">Mot de passe *</text>
  <rect x="70" y="335" width="480" height="40" rx="4" fill="white" stroke="#E5E7EB"/>
  <text x="90" y="360" fill="#1F2937" font-family="system-ui, sans-serif" font-size="13">••••••••••••</text>
  <text x="510" y="360" fill="#6B7280" font-family="system-ui, sans-serif" font-size="12">👁</text>

  <!-- Password strength -->
  <rect x="70" y="385" width="120" height="4" rx="2" fill="#10B981"/>
  <rect x="200" y="385" width="120" height="4" rx="2" fill="#10B981"/>
  <rect x="330" y="385" width="120" height="4" rx="2" fill="#E5E7EB"/>
  <text x="460" y="390" fill="#6B7280" font-family="system-ui, sans-serif" font-size="11">Moyen</text>

  <!-- Bulk action -->
  <text x="70" y="425" fill="#0050D7" font-family="system-ui, sans-serif" font-size="13">Appliquer à plusieurs lignes...</text>

  <!-- Buttons -->
  <rect x="70" y="450" width="100" height="36" rx="4" fill="white" stroke="#E5E7EB"/>
  <text x="95" y="473" fill="#6B7280" font-family="system-ui, sans-serif" font-size="14">Annuler</text>

  <rect x="185" y="450" width="100" height="36" rx="4" fill="#0050D7"/>
  <text x="210" y="473" fill="white" font-family="system-ui, sans-serif" font-size="14">Valider</text>
</svg>
