<svg xmlns="http://www.w3.org/2000/svg" viewBox="0 0 1440 900" width="1440" height="900">
  <defs>
    <style>
      .bg-muted { fill: #F9FAFB; }
      .bg-white { fill: #FFFFFF; }
      .bg-header { fill: #000E9C; }
      .bg-primary { fill: #0050D7; }
      .bg-table-header { fill: #F3F4F6; }
      .text-body { font-family: 'Source Sans Pro', sans-serif; font-size: 14px; fill: #1F2937; }
      .text-muted { font-family: 'Source Sans Pro', sans-serif; font-size: 14px; fill: #6B7280; }
      .text-white { font-family: 'Source Sans Pro', sans-serif; fill: #FFFFFF; }
      .text-title { font-family: 'Source Sans Pro', sans-serif; font-size: 24px; font-weight: 600; fill: #1F2937; }
      .text-section { font-family: 'Source Sans Pro', sans-serif; font-size: 16px; font-weight: 600; fill: #1F2937; }
      .text-link { font-family: 'Source Sans Pro', sans-serif; font-size: 14px; fill: #0050D7; }
      .border { stroke: #E5E7EB; stroke-width: 1; fill: none; }
      .card { fill: white; }
    </style>
  </defs>
  
  <!-- Background -->
  <rect width="1440" height="900" class="bg-muted"/>
  
  <!-- Header OVH -->
  <rect width="1440" height="60" class="bg-header"/>
  <text x="80" y="38" class="text-white" font-size="20" font-weight="bold">OVHcloud</text>
  <text x="200" y="38" class="text-white" font-size="14">Télécom</text>
  
  <!-- Sidebar -->
  <rect x="0" y="60" width="240" height="840" class="bg-white"/>
  <rect x="240" y="60" width="1" height="840" fill="#E5E7EB"/>
  
  <!-- Sidebar menu -->
  <text x="20" y="100" class="text-muted" font-size="12" font-weight="600">TÉLÉCOM</text>
  <text x="20" y="135" class="text-body">Accès Internet</text>
  <rect x="0" y="150" width="240" height="40" fill="#E8F0FE"/>
  <text x="20" y="175" class="text-body" font-weight="500" fill="#0050D7">Téléphonie</text>
  
  <!-- Main content -->
  <g transform="translate(280, 80)">
    <!-- Breadcrumb -->
    <text x="0" y="0" class="text-muted" font-size="13">
      <tspan class="text-link">Téléphonie</tspan>
      <tspan> › </tspan>
      <tspan class="text-link">ab12345-ovh-1</tspan>
      <tspan> › </tspan>
      <tspan>0033972123456</tspan>
    </text>
    
    <!-- Page title -->
    <text x="0" y="50" class="text-title">0033972123456</text>
    
    <!-- Tabs -->
    <g transform="translate(0, 80)">
      <rect x="0" y="0" width="90" height="40" fill="white"/>
      <text x="45" y="26" text-anchor="middle" class="text-muted">Gestion</text>
      
      <rect x="90" y="0" width="120" height="40" fill="white"/>
      <rect x="90" y="38" width="120" height="2" class="bg-primary"/>
      <text x="150" y="26" text-anchor="middle" class="text-body" font-weight="500" fill="#0050D7">Consommation</text>
      
      <rect x="210" y="0" width="140" height="40" fill="white"/>
      <text x="280" y="26" text-anchor="middle" class="text-muted">Gestion des appels</text>
      
      <line x1="0" y1="40" x2="900" y2="40" stroke="#E5E7EB"/>
    </g>
    
    <!-- Sub-tabs -->
    <g transform="translate(0, 140)">
      <rect x="0" y="0" width="130" height="35" rx="4" fill="#0050D7"/>
      <text x="65" y="23" text-anchor="middle" class="text-white" font-size="13">Appels sortants</text>
      
      <rect x="140" y="0" width="130" height="35" rx="4" class="border" fill="white"/>
      <text x="205" y="23" text-anchor="middle" class="text-body" font-size="13">Appels entrants</text>
      
      <rect x="280" y="0" width="130" height="35" rx="4" class="border" fill="white"/>
      <text x="345" y="23" text-anchor="middle" class="text-body" font-size="13">Fax sortants</text>
      
      <rect x="420" y="0" width="130" height="35" rx="4" class="border" fill="white"/>
      <text x="485" y="23" text-anchor="middle" class="text-body" font-size="13">Fax entrants</text>
    </g>
    
    <!-- Summary cards -->
    <g transform="translate(0, 200)">
      <rect x="0" y="0" width="280" height="100" rx="8" class="card border"/>
      <text x="20" y="30" class="text-muted">Appels ce mois</text>
      <text x="20" y="70" class="text-body" font-size="32" font-weight="600">127</text>
      
      <rect x="300" y="0" width="280" height="100" rx="8" class="card border"/>
      <text x="320" y="30" class="text-muted">Durée totale</text>
      <text x="320" y="70" class="text-body" font-size="32" font-weight="600">4h 23min</text>
      
      <rect x="600" y="0" width="280" height="100" rx="8" class="card border"/>
      <text x="620" y="30" class="text-muted">Hors forfait</text>
      <text x="620" y="70" class="text-body" font-size="32" font-weight="600">12,45 €</text>
      <text x="750" y="70" class="text-muted">HT</text>
    </g>
    
    <!-- Calls table -->
    <g transform="translate(0, 320)">
      <rect x="0" y="0" width="880" height="400" rx="8" class="card border"/>
      <text x="20" y="35" class="text-section">Détail des appels sortants</text>
      
      <!-- Date filter -->
      <rect x="700" y="15" width="160" height="32" rx="4" class="border" fill="white"/>
      <text x="715" y="36" class="text-body" font-size="13">Décembre 2024 ▼</text>
      
      <!-- Table header -->
      <rect x="20" y="55" width="840" height="35" class="bg-table-header"/>
      <text x="35" y="78" class="text-body" font-size="12" font-weight="600">Date</text>
      <text x="180" y="78" class="text-body" font-size="12" font-weight="600">Numéro appelé</text>
      <text x="380" y="78" class="text-body" font-size="12" font-weight="600">Destination</text>
      <text x="550" y="78" class="text-body" font-size="12" font-weight="600">Durée</text>
      <text x="680" y="78" class="text-body" font-size="12" font-weight="600">Prix HT</text>
      <text x="780" y="78" class="text-body" font-size="12" font-weight="600">Type</text>
      
      <!-- Row 1 -->
      <line x1="20" y1="90" x2="860" y2="90" stroke="#E5E7EB"/>
      <text x="35" y="115" class="text-body" font-size="13">27/12 14:32</text>
      <text x="180" y="115" class="text-body" font-size="13">0033612345678</text>
      <text x="380" y="115" class="text-body" font-size="13">Mobile France</text>
      <text x="550" y="115" class="text-body" font-size="13">5:23</text>
      <text x="680" y="115" class="text-body" font-size="13">0,15 €</text>
      <rect x="780" y="100" width="60" height="22" rx="4" fill="#DEF7EC"/>
      <text x="790" y="115" font-size="11" fill="#03543F">Forfait</text>
      
      <!-- Row 2 -->
      <line x1="20" y1="130" x2="860" y2="130" stroke="#E5E7EB"/>
      <text x="35" y="155" class="text-body" font-size="13">27/12 11:15</text>
      <text x="180" y="155" class="text-body" font-size="13">0033145678901</text>
      <text x="380" y="155" class="text-body" font-size="13">Fixe France</text>
      <text x="550" y="155" class="text-body" font-size="13">12:45</text>
      <text x="680" y="155" class="text-body" font-size="13">0,00 €</text>
      <rect x="780" y="140" width="60" height="22" rx="4" fill="#DEF7EC"/>
      <text x="790" y="155" font-size="11" fill="#03543F">Forfait</text>
      
      <!-- Row 3 -->
      <line x1="20" y1="170" x2="860" y2="170" stroke="#E5E7EB"/>
      <text x="35" y="195" class="text-body" font-size="13">26/12 16:42</text>
      <text x="180" y="195" class="text-body" font-size="13">0044207123456</text>
      <text x="380" y="195" class="text-body" font-size="13">Royaume-Uni</text>
      <text x="550" y="195" class="text-body" font-size="13">8:12</text>
      <text x="680" y="195" class="text-body" font-size="13">1,25 €</text>
      <rect x="780" y="180" width="80" height="22" rx="4" fill="#FEF3C7"/>
      <text x="790" y="195" font-size="11" fill="#92400E">Hors forfait</text>
      
      <!-- Row 4 -->
      <line x1="20" y1="210" x2="860" y2="210" stroke="#E5E7EB"/>
      <text x="35" y="235" class="text-body" font-size="13">26/12 09:30</text>
      <text x="180" y="235" class="text-body" font-size="13">0033987654321</text>
      <text x="380" y="235" class="text-body" font-size="13">Mobile France</text>
      <text x="550" y="235" class="text-body" font-size="13">2:15</text>
      <text x="680" y="235" class="text-body" font-size="13">0,08 €</text>
      <rect x="780" y="220" width="60" height="22" rx="4" fill="#DEF7EC"/>
      <text x="790" y="235" font-size="11" fill="#03543F">Forfait</text>
      
      <!-- Pagination -->
      <g transform="translate(0, 320)">
        <text x="35" y="20" class="text-muted">1 - 25 sur 127</text>
        <rect x="700" y="0" width="30" height="30" rx="4" class="border" fill="white"/>
        <text x="715" y="20" class="text-muted" text-anchor="middle">‹</text>
        <rect x="735" y="0" width="30" height="30" rx="4" fill="#0050D7"/>
        <text x="750" y="20" class="text-white" text-anchor="middle">1</text>
        <rect x="770" y="0" width="30" height="30" rx="4" class="border" fill="white"/>
        <text x="785" y="20" class="text-muted" text-anchor="middle">2</text>
        <rect x="805" y="0" width="30" height="30" rx="4" class="border" fill="white"/>
        <text x="820" y="20" class="text-muted" text-anchor="middle">›</text>
      </g>
    </g>
  </g>
</svg>
