<svg xmlns="http://www.w3.org/2000/svg" viewBox="0 0 1440 700" width="1440" height="700">
  <defs>
    <style>
      .bg-header { fill: #000E9C; }
      .bg-white { fill: #FFFFFF; }
      .bg-muted { fill: #F9FAFB; }
      .text-dark { font-family: 'Source Sans Pro', sans-serif; font-size: 14px; fill: #1F2937; }
      .text-muted { font-family: 'Source Sans Pro', sans-serif; font-size: 13px; fill: #6B7280; }
      .text-white { font-family: 'Source Sans Pro', sans-serif; fill: #FFFFFF; }
      .text-title { font-family: 'Source Sans Pro', sans-serif; font-size: 24px; font-weight: 600; fill: #1F2937; }
      .text-section { font-family: 'Source Sans Pro', sans-serif; font-size: 18px; font-weight: 600; fill: #1F2937; }
      .text-label { font-family: 'Source Sans Pro', sans-serif; font-size: 14px; font-weight: 500; fill: #374151; }
      .text-link { font-family: 'Source Sans Pro', sans-serif; font-size: 14px; fill: #0050D7; }
      .border { stroke: #E5E7EB; stroke-width: 1; fill: none; }
      .btn-primary { fill: #0050D7; }
      .btn-secondary { fill: #FFFFFF; stroke: #D1D5DB; }
    </style>
  </defs>

  <!-- Background -->
  <rect width="1440" height="700" class="bg-muted"/>

  <!-- Header -->
  <rect width="1440" height="60" class="bg-header"/>
  <text x="80" y="38" class="text-white" font-size="18" font-weight="600">OVHcloud</text>
  <text x="200" y="38" class="text-white" font-size="14">Telecom</text>

  <!-- Sidebar -->
  <rect x="0" y="60" width="240" height="640" class="bg-white"/>
  <rect x="240" y="60" width="1" height="640" class="border"/>

  <text x="20" y="100" class="text-dark" font-weight="600">Ligne</text>
  <rect x="0" y="115" width="240" height="36" fill="#E8F0FE"/>
  <text x="20" y="138" class="text-dark">+33 1 23 45 67 89</text>
  <text x="20" y="170" class="text-muted">Telephone</text>
  <text x="30" y="195" fill="#0050D7">Commander des accessoires</text>

  <!-- Main content -->
  <g transform="translate(280, 80)">
    <!-- Back link -->
    <text x="0" y="0" class="text-link" font-size="13">← Retour au telephone</text>

    <!-- Title -->
    <text x="0" y="40" class="text-title">Commander des accessoires</text>
    <text x="0" y="70" class="text-section">Livraison</text>

    <!-- Two column layout -->
    <g transform="translate(0, 100)">
      <!-- Left column - Contact -->
      <g transform="translate(0, 0)">
        <text x="0" y="0" class="text-label" font-size="16">Contact de livraison</text>

        <!-- Contact card - Selected -->
        <g transform="translate(0, 25)">
          <rect x="0" y="0" width="400" height="100" rx="4" stroke="#0050D7" stroke-width="2" fill="#EFF6FF"/>
          <circle cx="20" cy="50" r="10" fill="#0050D7"/>
          <circle cx="20" cy="50" r="4" fill="#FFFFFF"/>
          <g transform="translate(45, 25)">
            <text x="0" y="0" class="text-dark" font-weight="600">Jean Dupont</text>
            <text x="0" y="22" class="text-muted" font-size="12">123 Rue de la Paix</text>
            <text x="0" y="40" class="text-muted" font-size="12">75001 Paris, France</text>
            <text x="0" y="58" class="text-muted" font-size="12">+33 6 12 34 56 78</text>
          </g>
        </g>

        <!-- Contact card 2 -->
        <g transform="translate(0, 140)">
          <rect x="0" y="0" width="400" height="100" rx="4" stroke="#E5E7EB" fill="#FFFFFF"/>
          <circle cx="20" cy="50" r="10" fill="#FFFFFF" stroke="#D1D5DB" stroke-width="2"/>
          <g transform="translate(45, 25)">
            <text x="0" y="0" class="text-dark" font-weight="600">Entreprise ACME</text>
            <text x="0" y="22" class="text-muted" font-size="12">456 Avenue des Champs</text>
            <text x="0" y="40" class="text-muted" font-size="12">69001 Lyon, France</text>
            <text x="0" y="58" class="text-muted" font-size="12">+33 4 78 12 34 56</text>
          </g>
        </g>

        <!-- Add contact link -->
        <text x="0" y="270" class="text-link" font-size="13">+ Ajouter un nouveau contact</text>
      </g>

      <!-- Right column - Shipping mode -->
      <g transform="translate(450, 0)">
        <text x="0" y="0" class="text-label" font-size="16">Mode de livraison</text>

        <!-- Shipping option 1 - Selected -->
        <g transform="translate(0, 25)">
          <rect x="0" y="0" width="400" height="70" rx="4" stroke="#0050D7" stroke-width="2" fill="#EFF6FF"/>
          <circle cx="20" cy="35" r="10" fill="#0050D7"/>
          <circle cx="20" cy="35" r="4" fill="#FFFFFF"/>
          <text x="45" y="30" class="text-dark" font-weight="500">Livraison a domicile</text>
          <text x="45" y="50" class="text-muted" font-size="12">2-3 jours ouvres - Gratuit</text>
        </g>

        <!-- Shipping option 2 -->
        <g transform="translate(0, 110)">
          <rect x="0" y="0" width="400" height="70" rx="4" stroke="#E5E7EB" fill="#FFFFFF"/>
          <circle cx="20" cy="35" r="10" fill="#FFFFFF" stroke="#D1D5DB" stroke-width="2"/>
          <text x="45" y="30" class="text-dark" font-weight="500">Point Mondial Relay</text>
          <text x="45" y="50" class="text-muted" font-size="12">3-5 jours ouvres - Gratuit</text>
        </g>

        <!-- Shipping option 3 -->
        <g transform="translate(0, 195)">
          <rect x="0" y="0" width="400" height="70" rx="4" stroke="#E5E7EB" fill="#FFFFFF"/>
          <circle cx="20" cy="35" r="10" fill="#FFFFFF" stroke="#D1D5DB" stroke-width="2"/>
          <text x="45" y="30" class="text-dark" font-weight="500">Livraison express</text>
          <text x="45" y="50" class="text-muted" font-size="12">24h - 9,99 € HT</text>
        </g>
      </g>
    </g>

    <!-- Separator -->
    <line x1="0" y1="430" x2="900" y2="430" stroke="#374151" stroke-width="1"/>

    <!-- Buttons -->
    <g transform="translate(0, 450)">
      <rect x="0" y="0" width="120" height="40" rx="4" class="btn-primary"/>
      <text x="30" y="26" class="text-white">Continuer</text>

      <rect x="140" y="0" width="100" height="40" rx="4" class="btn-secondary"/>
      <text x="165" y="26" class="text-dark">Retour</text>
    </g>
  </g>
</svg>
