<svg xmlns="http://www.w3.org/2000/svg" viewBox="0 0 1440 900" width="1440" height="900">
  <defs>
    <style>
      .bg-header { fill: #000E9C; }
      .bg-content { fill: #F5F6F7; }
      .bg-white { fill: #FFFFFF; }
      .bg-table-header { fill: #F3F4F6; }
      .text-white { fill: #FFFFFF; font-family: 'Source Sans Pro', sans-serif; }
      .text-dark { fill: #333333; font-family: 'Source Sans Pro', sans-serif; }
      .text-muted { fill: #6B7280; font-family: 'Source Sans Pro', sans-serif; }
      .text-primary { fill: #0050D7; font-family: 'Source Sans Pro', sans-serif; }
      .border { stroke: #E5E7EB; stroke-width: 1; fill: none; }
      .btn-primary { fill: #0050D7; }
      .btn-default { fill: #FFFFFF; stroke: #D1D5DB; stroke-width: 1; }
      .badge-success { fill: #DEF7EC; }
      .badge-warning { fill: #FEF3C7; }
      .badge-info { fill: #DBEAFE; }
      .badge-error { fill: #FEE2E2; }
      .status-success { fill: #10B981; }
      .status-warning { fill: #F59E0B; }
      .status-error { fill: #EF4444; }
      .status-info { fill: #3B82F6; }
      .dropdown-menu { fill: #FFFFFF; filter: drop-shadow(0 4px 6px rgba(0,0,0,0.1)); }
    </style>
  </defs>

  <!-- Background -->
  <rect width="1440" height="900" class="bg-content"/>

  <!-- Header OVHcloud -->
  <rect width="1440" height="60" class="bg-header"/>
  <text x="20" y="38" class="text-white" font-size="20" font-weight="bold">OVHcloud</text>
  <text x="140" y="38" class="text-white" font-size="14">Manager</text>
  <text x="300" y="38" class="text-white" font-size="13" opacity="0.8">Telecom › SMS › sms-ov12345-1 › Expéditeurs</text>
  <circle cx="1380" cy="30" r="18" fill="#4F46E5"/>
  <text x="1380" y="35" class="text-white" font-size="14" text-anchor="middle">JD</text>

  <!-- Page Title -->
  <text x="40" y="110" class="text-dark" font-size="24" font-weight="bold">Gérer les expéditeurs</text>

  <!-- Action buttons -->
  <g transform="translate(40, 130)">
    <!-- Add button -->
    <rect width="180" height="40" rx="4" class="btn-primary"/>
    <text x="15" y="26" class="text-white" font-size="14">+ Ajouter un expéditeur</text>

    <!-- Delete button -->
    <rect x="200" y="0" width="220" height="40" rx="4" class="btn-default"/>
    <text x="220" y="26" class="text-dark" font-size="14">🗑 Supprimer (2 sélectionnés)</text>

    <!-- Order Time2Chat -->
    <rect x="440" y="0" width="220" height="40" rx="4" class="btn-primary"/>
    <text x="460" y="26" class="text-white" font-size="14">🛒 Commander n° Time2Chat</text>

    <!-- Refresh button -->
    <rect x="680" y="0" width="100" height="40" rx="4" class="btn-default"/>
    <text x="700" y="26" class="text-dark" font-size="14">↻ Actualiser</text>
  </g>

  <!-- Warning banner -->
  <g transform="translate(40, 190)">
    <rect width="1360" height="50" rx="4" fill="#FEF3C7"/>
    <rect width="1360" height="50" rx="4" stroke="#F59E0B" stroke-width="1" fill="none"/>
    <text x="20" y="20" fill="#92400E" font-size="14" font-family="Source Sans Pro" font-weight="600">⚠ Liste des services expirant prochainement :</text>
    <text x="20" y="40" fill="#92400E" font-size="13" font-family="Source Sans Pro">• Votre numéro virtuel +33612345678 expire le 15/01/2026.</text>
  </g>

  <!-- Table -->
  <g transform="translate(40, 260)">
    <!-- Table header -->
    <rect width="1360" height="50" rx="4" class="bg-table-header"/>
    <rect x="15" y="18" width="18" height="18" rx="2" stroke="#D1D5DB" stroke-width="2" fill="none"/>
    <text x="55" y="32" class="text-muted" font-size="13" font-weight="600">EXPÉDITEUR ↓</text>
    <text x="250" y="32" class="text-muted" font-size="13" font-weight="600">TYPE</text>
    <text x="420" y="32" class="text-muted" font-size="13" font-weight="600">DESCRIPTION</text>
    <text x="650" y="32" class="text-muted" font-size="13" font-weight="600">STATUT</text>
    <text x="850" y="32" class="text-muted" font-size="13" font-weight="600">COMMENTAIRE</text>
    <text x="1280" y="32" class="text-muted" font-size="13" font-weight="600">ACTIONS</text>

    <!-- Row 1 -->
    <rect y="50" width="1360" height="60" class="bg-white"/>
    <line x1="0" y1="110" x2="1360" y2="110" stroke="#E5E7EB" stroke-width="1"/>
    <rect x="15" y="68" width="18" height="18" rx="2" fill="#0050D7"/>
    <text x="17" y="82" class="text-white" font-size="12">✓</text>
    <text x="55" y="87" class="text-dark" font-size="14">OVHcloud</text>
    <text x="250" y="87" class="text-muted" font-size="14">Personnalisé</text>
    <text x="420" y="87" class="text-dark" font-size="14">Expéditeur principal</text>
    <circle cx="660" cy="82" r="6" class="status-success"/>
    <text x="675" y="87" fill="#03543F" font-size="14">Activé</text>
    <text x="850" y="87" class="text-muted" font-size="14">-</text>
    <!-- Action menu open -->
    <text x="1300" y="87" class="text-muted" font-size="20" cursor="pointer">⋮</text>

    <!-- Row 2 -->
    <rect y="110" width="1360" height="60" class="bg-white"/>
    <line x1="0" y1="170" x2="1360" y2="170" stroke="#E5E7EB" stroke-width="1"/>
    <rect x="15" y="128" width="18" height="18" rx="2" fill="#0050D7"/>
    <text x="17" y="142" class="text-white" font-size="12">✓</text>
    <text x="55" y="147" class="text-dark" font-size="14">PROMO-2025</text>
    <text x="250" y="147" class="text-muted" font-size="14">Personnalisé</text>
    <text x="420" y="147" class="text-dark" font-size="14">Campagnes promotionnelles</text>
    <circle cx="660" cy="142" r="6" class="status-success"/>
    <text x="675" y="147" fill="#03543F" font-size="14">Activé</text>
    <text x="850" y="147" class="text-muted" font-size="14">-</text>
    <text x="1300" y="147" class="text-muted" font-size="20" cursor="pointer">⋮</text>

    <!-- Row 3 -->
    <rect y="170" width="1360" height="60" class="bg-white"/>
    <line x1="0" y1="230" x2="1360" y2="230" stroke="#E5E7EB" stroke-width="1"/>
    <rect x="15" y="188" width="18" height="18" rx="2" stroke="#D1D5DB" stroke-width="2" fill="none"/>
    <text x="55" y="207" class="text-dark" font-size="14">+33612345678</text>
    <text x="250" y="207" class="text-muted" font-size="14">Numéro virtuel</text>
    <text x="420" y="207" class="text-dark" font-size="14">Réponses SMS</text>
    <circle cx="660" cy="202" r="6" class="status-warning"/>
    <text x="675" y="207" fill="#92400E" font-size="14">Résiliation en cours</text>
    <text x="850" y="207" class="text-muted" font-size="14">Expire le 15/01/2026</text>
    <text x="1300" y="207" class="text-muted" font-size="20" cursor="pointer">⋮</text>

    <!-- Row 4 -->
    <rect y="230" width="1360" height="60" class="bg-white"/>
    <line x1="0" y1="290" x2="1360" y2="290" stroke="#E5E7EB" stroke-width="1"/>
    <rect x="15" y="248" width="18" height="18" rx="2" stroke="#D1D5DB" stroke-width="2" fill="none"/>
    <text x="55" y="267" class="text-dark" font-size="14">LIVRAISON</text>
    <text x="250" y="267" class="text-muted" font-size="14">Personnalisé</text>
    <text x="420" y="267" class="text-dark" font-size="14">Notifications livraison</text>
    <circle cx="660" cy="262" r="6" class="status-info"/>
    <text x="675" y="267" fill="#1E40AF" font-size="14">Validation en cours</text>
    <text x="850" y="267" class="text-muted" font-size="14">En attente OVH</text>
    <text x="1300" y="267" class="text-muted" font-size="20" cursor="pointer">⋮</text>

    <!-- Row 5 -->
    <rect y="290" width="1360" height="60" class="bg-white"/>
    <line x1="0" y1="350" x2="1360" y2="350" stroke="#E5E7EB" stroke-width="1"/>
    <rect x="15" y="308" width="18" height="18" rx="2" stroke="#D1D5DB" stroke-width="2" fill="none"/>
    <text x="55" y="327" class="text-dark" font-size="14">TEST-SENDER</text>
    <text x="250" y="327" class="text-muted" font-size="14">Personnalisé</text>
    <text x="420" y="327" class="text-dark" font-size="14">Tests internes</text>
    <circle cx="660" cy="322" r="6" class="status-error"/>
    <text x="675" y="327" fill="#991B1B" font-size="14">Refusé</text>
    <text x="850" y="327" class="text-muted" font-size="14">Nom non conforme</text>
    <text x="1300" y="327" class="text-muted" font-size="20" cursor="pointer">⋮</text>
  </g>

  <!-- Action Menu OPEN (for row 1) -->
  <g transform="translate(1170, 328)">
    <rect width="180" height="160" rx="4" class="dropdown-menu"/>
    <rect width="180" height="160" rx="4" stroke="#E5E7EB" stroke-width="1" fill="none"/>
    <text x="15" y="35" class="text-dark" font-size="14">Éditer</text>
    <line x1="10" y1="50" x2="170" y2="50" stroke="#E5E7EB" stroke-width="1"/>
    <text x="15" y="75" class="text-dark" font-size="14">Configurer</text>
    <line x1="10" y1="90" x2="170" y2="90" stroke="#E5E7EB" stroke-width="1"/>
    <text x="15" y="115" class="text-dark" font-size="14">Supprimer</text>
    <line x1="10" y1="130" x2="170" y2="130" stroke="#E5E7EB" stroke-width="1"/>
    <text x="15" y="150" class="text-dark" font-size="14">Résilier</text>
  </g>

  <!-- Pagination -->
  <g transform="translate(40, 640)">
    <text x="0" y="20" class="text-muted" font-size="13">Afficher</text>
    <rect x="60" y="2" width="60" height="30" rx="4" class="btn-default"/>
    <text x="80" y="22" class="text-dark" font-size="13">10 ▼</text>
    <text x="140" y="20" class="text-muted" font-size="13">Page 1 / 1</text>
  </g>

</svg>
