<svg xmlns="http://www.w3.org/2000/svg" viewBox="0 0 1440 900" width="1440" height="900">
  <defs>
    <style>
      .bg-header { fill: #000E9C; }
      .bg-main { fill: #F6F6F9; }
      .bg-white { fill: #FFFFFF; }
      .bg-primary { fill: #0050D7; }
      .bg-success { fill: #DEF7EC; }
      .bg-info { fill: #DBEAFE; }
      .border { stroke: #E5E7EB; stroke-width: 1; fill: none; }
      .divider { stroke: #E5E7EB; stroke-width: 1; }
      .btn-primary { fill: #0050D7; }
      .text-white { fill: #FFFFFF; font-family: 'Source Sans Pro', sans-serif; }
      .text-dark { fill: #1F2937; font-family: 'Source Sans Pro', sans-serif; }
      .text-muted { fill: #6B7280; font-family: 'Source Sans Pro', sans-serif; }
      .text-primary { fill: #0050D7; font-family: 'Source Sans Pro', sans-serif; }
      .text-success { fill: #059669; font-family: 'Source Sans Pro', sans-serif; }
      .text-info { fill: #1E40AF; font-family: 'Source Sans Pro', sans-serif; }
      .text-warning { fill: #D97706; font-family: 'Source Sans Pro', sans-serif; }
      .text-danger { fill: #DC2626; font-family: 'Source Sans Pro', sans-serif; }
    </style>
  </defs>

  <!-- Background -->
  <rect width="1440" height="900" class="bg-main"/>

  <!-- NAV1 - Header OVH -->
  <rect width="1440" height="50" class="bg-header"/>
  <text x="510" y="32" class="text-white" font-size="14" font-weight="600">Web Cloud</text>
  <rect x="505" y="46" width="75" height="3" fill="#FFFFFF"/>

  <!-- NAV2 -->
  <rect x="0" y="50" width="1440" height="40" class="bg-white"/>
  <line x1="0" y1="89" x2="1440" y2="89" class="divider"/>
  <text x="500" y="75" class="text-primary" font-size="14" font-weight="600">VoIP</text>
  <rect x="495" y="85" width="35" height="3" class="bg-primary"/>

  <!-- CONTENT AREA -->
  <g transform="translate(0, 105)">
    <!-- LEFT PANEL -->
    <g transform="translate(24, 0)">
      <rect x="0" y="0" width="280" height="765" rx="8" class="bg-white"/>
      <rect x="0" y="0" width="280" height="765" rx="8" class="border"/>

      <rect x="12" y="12" width="256" height="34" rx="4" fill="#F9FAFB" stroke="#E5E7EB"/>
      <text x="26" y="34" class="text-muted" font-size="12">Rechercher...</text>

      <rect x="0" y="80" width="280" height="55" fill="#E8F0FE"/>
      <text x="12" y="100" class="text-dark" font-size="12" font-weight="500">+33 1 23 45 67 89</text>
      <text x="12" y="118" class="text-muted" font-size="10">Ligne principale</text>
      <rect x="220" y="92" width="46" height="18" rx="9" class="bg-success"/>
      <text x="243" y="104" class="text-success" font-size="10" text-anchor="middle">Actif</text>
    </g>

    <!-- RIGHT PANEL -->
    <g transform="translate(320, 0)">
      <rect x="0" y="0" width="1096" height="765" rx="8" class="bg-white"/>
      <rect x="0" y="0" width="1096" height="765" rx="8" class="border"/>

      <g transform="translate(20, 0)">
        <!-- Back link -->
        <text x="0" y="24" class="text-primary" font-size="12">← Retour a l'assistance</text>

        <!-- Page title -->
        <text x="0" y="56" class="text-dark" font-size="18" font-weight="600">Journaux de notifications</text>

        <!-- Content -->
        <g transform="translate(0, 80)">
          <!-- Info banner -->
          <rect x="0" y="0" width="1056" height="40" rx="4" class="bg-info"/>
          <text x="16" y="25" class="text-info" font-size="11">Les journaux permettent de recevoir par email des informations sur l'activite de votre ligne.</text>

          <!-- Two columns layout -->
          <!-- Left column: Configuration -->
          <rect x="0" y="60" width="520" height="280" rx="8" class="bg-white" stroke="#E5E7EB"/>
          <text x="16" y="88" class="text-dark" font-size="15" font-weight="700">Configuration des notifications</text>
          <line x1="0" y1="104" x2="520" y2="104" class="divider"/>

          <g transform="translate(16, 120)">
            <text x="0" y="0" class="text-muted" font-size="11">Frequence d'envoi</text>
            <text x="200" y="0" class="text-dark" font-size="12">Quotidien</text>

            <text x="0" y="35" class="text-muted" font-size="11">Envoyer meme sans logs</text>
            <text x="200" y="35" class="text-dark" font-size="12">Non</text>

            <text x="0" y="70" class="text-muted" font-size="11">Email de notification</text>
            <text x="200" y="70" class="text-dark" font-size="12">admin@example.com</text>

            <rect x="0" y="100" width="120" height="36" rx="4" class="btn-primary"/>
            <text x="60" y="123" class="text-white" font-size="12" text-anchor="middle">Configurer</text>
          </g>

          <!-- Bulk action -->
          <g transform="translate(16, 280)">
            <line x1="0" y1="0" x2="488" y2="0" class="divider"/>
            <text x="0" y="30" class="text-primary" font-size="11">Appliquer cette configuration sur plusieurs lignes</text>
          </g>

          <!-- Right column: Logs list -->
          <rect x="540" y="60" width="516" height="500" rx="8" class="bg-white" stroke="#E5E7EB"/>
          <text x="556" y="88" class="text-dark" font-size="15" font-weight="700">Historique des logs</text>
          <line x1="540" y1="104" x2="1056" y2="104" class="divider"/>

          <!-- Filter -->
          <g transform="translate(556, 120)">
            <text x="0" y="14" class="text-muted" font-size="11">Periode :</text>
            <rect x="60" y="0" width="140" height="28" rx="4" fill="#FFFFFF" stroke="#E5E7EB"/>
            <text x="72" y="18" class="text-dark" font-size="11">7 derniers jours</text>
            <path d="M184 12 L190 18 L196 12" stroke="#6B7280" fill="none" stroke-width="2"/>
          </g>

          <!-- Logs entries -->
          <g transform="translate(556, 170)">
            <!-- Log entry 1 - Warning -->
            <g transform="translate(0, 0)">
              <circle cx="10" cy="15" r="6" fill="#FEF3C7"/>
              <text x="10" y="18" class="text-warning" font-size="8" text-anchor="middle">!</text>
              <text x="30" y="12" class="text-dark" font-size="12" font-weight="500">Registration failed</text>
              <text x="30" y="30" class="text-muted" font-size="10">02/01/2026 14:23</text>
              <text x="30" y="48" class="text-muted" font-size="10">Echec d'enregistrement SIP - tentative 3/5</text>
            </g>

            <!-- Log entry 2 - Error -->
            <g transform="translate(0, 70)">
              <circle cx="10" cy="15" r="6" fill="#FEE2E2"/>
              <text x="10" y="18" class="text-danger" font-size="8" text-anchor="middle">✕</text>
              <text x="30" y="12" class="text-dark" font-size="12" font-weight="500">Call failure</text>
              <text x="30" y="30" class="text-muted" font-size="10">02/01/2026 10:15</text>
              <text x="30" y="48" class="text-muted" font-size="10">Appel vers +33612345678 - Echec reseau</text>
            </g>

            <!-- Log entry 3 - Info -->
            <g transform="translate(0, 140)">
              <circle cx="10" cy="15" r="6" class="bg-info"/>
              <text x="10" y="18" class="text-info" font-size="8" text-anchor="middle">i</text>
              <text x="30" y="12" class="text-dark" font-size="12" font-weight="500">Configuration updated</text>
              <text x="30" y="30" class="text-muted" font-size="10">01/01/2026 16:42</text>
              <text x="30" y="48" class="text-muted" font-size="10">Renvoi d'appel active vers +33698765432</text>
            </g>

            <!-- Log entry 4 - Info -->
            <g transform="translate(0, 210)">
              <circle cx="10" cy="15" r="6" class="bg-info"/>
              <text x="10" y="18" class="text-info" font-size="8" text-anchor="middle">i</text>
              <text x="30" y="12" class="text-dark" font-size="12" font-weight="500">Voicemail accessed</text>
              <text x="30" y="30" class="text-muted" font-size="10">01/01/2026 09:30</text>
              <text x="30" y="48" class="text-muted" font-size="10">Acces messagerie vocale - 3 messages ecoutes</text>
            </g>

            <!-- Log entry 5 - Warning -->
            <g transform="translate(0, 280)">
              <circle cx="10" cy="15" r="6" fill="#FEF3C7"/>
              <text x="10" y="18" class="text-warning" font-size="8" text-anchor="middle">!</text>
              <text x="30" y="12" class="text-dark" font-size="12" font-weight="500">High usage alert</text>
              <text x="30" y="30" class="text-muted" font-size="10">31/12/2025 18:00</text>
              <text x="30" y="48" class="text-muted" font-size="10">Consommation elevee - 80% du forfait atteint</text>
            </g>
          </g>

          <!-- Pagination -->
          <g transform="translate(556, 520)">
            <text x="0" y="14" class="text-muted" font-size="11">Page 1 sur 3</text>
            <g transform="translate(350, 0)">
              <rect x="0" y="0" width="28" height="28" rx="4" fill="#FFFFFF" stroke="#E5E7EB"/>
              <text x="14" y="18" class="text-muted" font-size="11" text-anchor="middle">‹</text>
              <rect x="32" y="0" width="28" height="28" rx="4" class="bg-primary"/>
              <text x="46" y="18" class="text-white" font-size="11" text-anchor="middle">1</text>
              <rect x="64" y="0" width="28" height="28" rx="4" fill="#FFFFFF" stroke="#E5E7EB"/>
              <text x="78" y="18" class="text-dark" font-size="11" text-anchor="middle">2</text>
              <rect x="96" y="0" width="28" height="28" rx="4" fill="#FFFFFF" stroke="#E5E7EB"/>
              <text x="110" y="18" class="text-muted" font-size="11" text-anchor="middle">›</text>
            </g>
          </g>
        </g>
      </g>
    </g>
  </g>
</svg>
