<svg xmlns="http://www.w3.org/2000/svg" viewBox="0 0 1440 700" width="1440" height="700">
  <defs>
    <style>
      .bg-header { fill: #000E9C; }
      .bg-white { fill: #FFFFFF; }
      .bg-muted { fill: #F9FAFB; }
      .text-white { fill: #FFFFFF; font-family: 'Source Sans Pro', sans-serif; }
      .text-body { fill: #1F2937; font-family: 'Source Sans Pro', sans-serif; font-size: 14px; }
      .text-muted { fill: #6B7280; font-family: 'Source Sans Pro', sans-serif; font-size: 14px; }
      .text-heading { fill: #1F2937; font-family: 'Source Sans Pro', sans-serif; font-size: 24px; font-weight: 600; }
      .text-link { fill: #0050D7; font-family: 'Source Sans Pro', sans-serif; font-size: 14px; }
      .border { stroke: #E5E7EB; stroke-width: 1; fill: none; }
      .th-bg { fill: #F3F4F6; }
      .btn-primary { fill: #0050D7; }
    </style>
  </defs>
  <rect width="1440" height="700" class="bg-muted"/>
  <rect width="1440" height="60" class="bg-header"/>
  <text x="80" y="38" class="text-white" font-size="20" font-weight="bold">OVHcloud</text>
  <rect x="0" y="60" width="240" height="640" class="bg-white"/>
  <rect x="240" y="60" width="1" height="640" class="border"/>
  <g transform="translate(280, 80)">
    <text x="0" y="20" class="text-link">← Retour</text>
    <text x="0" y="60" class="text-heading">Notifications du répondeur/télécopieur 0033972123456</text>
    <rect x="0" y="80" width="120" height="36" rx="4" class="btn-primary"/>
    <text x="20" y="103" class="text-white" font-size="14">+ Ajouter</text>
    <g transform="translate(0, 130)">
      <rect x="0" y="0" width="1100" height="350" rx="8" class="bg-white"/>
      <rect x="0" y="0" width="1100" height="350" rx="8" class="border"/>
      <rect x="1" y="1" width="1098" height="44" rx="8" class="th-bg"/>
      <text x="30" y="28" class="text-body" font-weight="600">Email</text>
      <text x="350" y="28" class="text-body" font-weight="600">Notification du répondeur</text>
      <text x="620" y="28" class="text-body" font-weight="600">Source de la notification</text>
      <text x="900" y="28" class="text-body" font-weight="600">Actions</text>
      <line x1="0" y1="45" x2="1100" y2="45" stroke="#E5E7EB"/>
      <text x="30" y="75" class="text-body">contact@example.ovh</text>
      <text x="350" y="75" class="text-body">Pièce jointe</text>
      <text x="620" y="75" class="text-body">Fax et répondeur</text>
      <g transform="translate(900, 55)">
        <rect x="0" y="0" width="30" height="30" rx="4" fill="#E8F0FE"/>
        <text x="8" y="20" class="text-link" font-size="14">✏</text>
        <rect x="40" y="0" width="30" height="30" rx="4" fill="#FEE2E2"/>
        <text x="48" y="20" fill="#991B1B" font-size="14">🗑</text>
      </g>
      <rect x="1" y="90" width="1098" height="44" fill="#F9FAFB"/>
      <text x="30" y="120" class="text-body">admin@societe.fr</text>
      <text x="350" y="120" class="text-body">Notification seule</text>
      <text x="620" y="120" class="text-body">Fax</text>
      <g transform="translate(900, 100)">
        <rect x="0" y="0" width="30" height="30" rx="4" fill="#E8F0FE"/>
        <text x="8" y="20" class="text-link" font-size="14">✏</text>
        <rect x="40" y="0" width="30" height="30" rx="4" fill="#FEE2E2"/>
        <text x="48" y="20" fill="#991B1B" font-size="14">🗑</text>
      </g>
    </g>
  </g>
</svg>
