<svg xmlns="http://www.w3.org/2000/svg" viewBox="0 0 1440 900" width="1440" height="900">
  <defs>
    <style>
      .bg-header { fill: #000E9C; }
      .bg-main { fill: #F6F6F9; }
      .bg-white { fill: #FFFFFF; }
      .bg-primary { fill: #0050D7; }
      .bg-success { fill: #DEF7EC; }
      .bg-warning { fill: #FEF3C7; }
      .border { stroke: #E5E7EB; stroke-width: 1; fill: none; }
      .divider { stroke: #E5E7EB; stroke-width: 1; }
      .text-white { fill: #FFFFFF; font-family: 'Source Sans Pro', sans-serif; }
      .text-dark { fill: #1F2937; font-family: 'Source Sans Pro', sans-serif; }
      .text-muted { fill: #6B7280; font-family: 'Source Sans Pro', sans-serif; }
      .text-primary { fill: #0050D7; font-family: 'Source Sans Pro', sans-serif; }
      .text-success { fill: #059669; font-family: 'Source Sans Pro', sans-serif; }
      .text-warning { fill: #D97706; font-family: 'Source Sans Pro', sans-serif; }
    </style>
  </defs>

  <!-- Background -->
  <rect width="1440" height="900" class="bg-main"/>

  <!-- NAV1 - Header OVH -->
  <rect width="1440" height="50" class="bg-header"/>
  <text x="510" y="32" class="text-white" font-size="14" font-weight="600">Web Cloud</text>
  <rect x="505" y="46" width="75" height="3" fill="#FFFFFF"/>

  <!-- NAV2 -->
  <rect x="0" y="50" width="1440" height="40" class="bg-white"/>
  <line x1="0" y1="89" x2="1440" y2="89" class="divider"/>
  <text x="500" y="75" class="text-primary" font-size="14" font-weight="600">VoIP</text>
  <rect x="495" y="85" width="35" height="3" class="bg-primary"/>

  <!-- CONTENT AREA -->
  <g transform="translate(0, 105)">
    <!-- LEFT PANEL -->
    <g transform="translate(24, 0)">
      <rect x="0" y="0" width="280" height="765" rx="8" class="bg-white"/>
      <rect x="0" y="0" width="280" height="765" rx="8" class="border"/>

      <rect x="12" y="12" width="256" height="34" rx="4" fill="#F9FAFB" stroke="#E5E7EB"/>
      <text x="26" y="34" class="text-muted" font-size="12">Rechercher...</text>

      <rect x="0" y="80" width="280" height="55" fill="#E8F0FE"/>
      <text x="12" y="100" class="text-dark" font-size="12" font-weight="500">ab12345-ovh-1</text>
      <text x="12" y="118" class="text-muted" font-size="10">Groupe principal</text>
      <rect x="220" y="92" width="46" height="18" rx="9" class="bg-success"/>
      <text x="243" y="104" class="text-success" font-size="10" text-anchor="middle">Actif</text>
    </g>

    <!-- RIGHT PANEL -->
    <g transform="translate(320, 0)">
      <rect x="0" y="0" width="1096" height="765" rx="8" class="bg-white"/>
      <rect x="0" y="0" width="1096" height="765" rx="8" class="border"/>

      <g transform="translate(20, 0)">
        <!-- Back link -->
        <text x="0" y="24" class="text-primary" font-size="12">← Retour a la facturation</text>

        <!-- Page title -->
        <text x="0" y="56" class="text-dark" font-size="18" font-weight="600">Factures</text>

        <!-- Content -->
        <g transform="translate(0, 80)">
          <!-- Bills datagrid -->
          <rect x="0" y="0" width="1056" height="500" rx="8" class="bg-white" stroke="#E5E7EB"/>
          <text x="16" y="28" class="text-dark" font-size="15" font-weight="700">Historique des factures</text>
          <line x1="0" y1="44" x2="1056" y2="44" class="divider"/>

          <!-- Table header -->
          <rect x="0" y="44" width="1056" height="30" fill="#F9FAFB"/>
          <text x="16" y="64" class="text-muted" font-size="11" font-weight="600">Date</text>
          <text x="200" y="64" class="text-muted" font-size="11" font-weight="600">Montant HT</text>
          <text x="400" y="64" class="text-muted" font-size="11" font-weight="600">Statut</text>
          <text x="600" y="64" class="text-muted" font-size="11" font-weight="600">Actions</text>

          <!-- Row 1 -->
          <g transform="translate(0, 74)">
            <rect x="0" y="0" width="1056" height="50" fill="#FFFFFF"/>
            <line x1="0" y1="50" x2="1056" y2="50" class="divider"/>
            <text x="16" y="30" class="text-dark" font-size="12">01/12/2025</text>
            <text x="200" y="30" class="text-dark" font-size="12">145.80 EUR</text>
            <rect x="400" y="15" width="50" height="20" rx="10" class="bg-success"/>
            <text x="425" y="29" class="text-success" font-size="10" text-anchor="middle">Paye</text>

            <!-- Action menu open -->
            <rect x="600" y="10" width="100" height="30" rx="4" fill="#FFFFFF" stroke="#E5E7EB"/>
            <text x="620" y="30" class="text-dark" font-size="11">Telecharger</text>
            <path d="M682 22 L688 28 L694 22" stroke="#6B7280" fill="none" stroke-width="2"/>

            <!-- Dropdown -->
            <rect x="600" y="42" width="160" height="90" rx="4" fill="#FFFFFF" stroke="#E5E7EB" filter="url(#shadow)"/>
            <text x="616" y="62" class="text-dark" font-size="11">Telecharger PDF</text>
            <text x="616" y="88" class="text-dark" font-size="11">Telecharger CSV emis</text>
            <text x="616" y="114" class="text-dark" font-size="11">Telecharger CSV recu</text>
          </g>

          <!-- Row 2 -->
          <g transform="translate(0, 124)">
            <rect x="0" y="0" width="1056" height="50" fill="#FFFFFF"/>
            <line x1="0" y1="50" x2="1056" y2="50" class="divider"/>
            <text x="16" y="30" class="text-dark" font-size="12">01/11/2025</text>
            <text x="200" y="30" class="text-dark" font-size="12">132.50 EUR</text>
            <rect x="400" y="15" width="50" height="20" rx="10" class="bg-success"/>
            <text x="425" y="29" class="text-success" font-size="10" text-anchor="middle">Paye</text>
            <rect x="600" y="10" width="100" height="30" rx="4" fill="#FFFFFF" stroke="#E5E7EB"/>
            <text x="620" y="30" class="text-dark" font-size="11">Telecharger</text>
            <path d="M682 22 L688 28 L694 22" stroke="#6B7280" fill="none" stroke-width="2"/>
          </g>

          <!-- Row 3 -->
          <g transform="translate(0, 174)">
            <rect x="0" y="0" width="1056" height="50" fill="#FFFFFF"/>
            <line x1="0" y1="50" x2="1056" y2="50" class="divider"/>
            <text x="16" y="30" class="text-dark" font-size="12">01/10/2025</text>
            <text x="200" y="30" class="text-dark" font-size="12">128.90 EUR</text>
            <rect x="400" y="15" width="50" height="20" rx="10" class="bg-success"/>
            <text x="425" y="29" class="text-success" font-size="10" text-anchor="middle">Paye</text>
            <rect x="600" y="10" width="100" height="30" rx="4" fill="#FFFFFF" stroke="#E5E7EB"/>
            <text x="620" y="30" class="text-dark" font-size="11">Telecharger</text>
            <path d="M682 22 L688 28 L694 22" stroke="#6B7280" fill="none" stroke-width="2"/>
          </g>

          <!-- Row 4 -->
          <g transform="translate(0, 224)">
            <rect x="0" y="0" width="1056" height="50" fill="#FFFFFF"/>
            <line x1="0" y1="50" x2="1056" y2="50" class="divider"/>
            <text x="16" y="30" class="text-dark" font-size="12">01/09/2025</text>
            <text x="200" y="30" class="text-dark" font-size="12">156.20 EUR</text>
            <rect x="400" y="15" width="50" height="20" rx="10" class="bg-success"/>
            <text x="425" y="29" class="text-success" font-size="10" text-anchor="middle">Paye</text>
            <rect x="600" y="10" width="100" height="30" rx="4" fill="#FFFFFF" stroke="#E5E7EB"/>
            <text x="620" y="30" class="text-dark" font-size="11">Telecharger</text>
            <path d="M682 22 L688 28 L694 22" stroke="#6B7280" fill="none" stroke-width="2"/>
          </g>

          <!-- Row 5 -->
          <g transform="translate(0, 274)">
            <rect x="0" y="0" width="1056" height="50" fill="#FFFFFF"/>
            <line x1="0" y1="50" x2="1056" y2="50" class="divider"/>
            <text x="16" y="30" class="text-dark" font-size="12">01/08/2025</text>
            <text x="200" y="30" class="text-dark" font-size="12">142.75 EUR</text>
            <rect x="400" y="15" width="50" height="20" rx="10" class="bg-success"/>
            <text x="425" y="29" class="text-success" font-size="10" text-anchor="middle">Paye</text>
            <rect x="600" y="10" width="100" height="30" rx="4" fill="#FFFFFF" stroke="#E5E7EB"/>
            <text x="620" y="30" class="text-dark" font-size="11">Telecharger</text>
            <path d="M682 22 L688 28 L694 22" stroke="#6B7280" fill="none" stroke-width="2"/>
          </g>

          <!-- Row 6 -->
          <g transform="translate(0, 324)">
            <rect x="0" y="0" width="1056" height="50" fill="#FFFFFF"/>
            <line x1="0" y1="50" x2="1056" y2="50" class="divider"/>
            <text x="16" y="30" class="text-dark" font-size="12">01/07/2025</text>
            <text x="200" y="30" class="text-dark" font-size="12">138.40 EUR</text>
            <rect x="400" y="15" width="50" height="20" rx="10" class="bg-success"/>
            <text x="425" y="29" class="text-success" font-size="10" text-anchor="middle">Paye</text>
            <rect x="600" y="10" width="100" height="30" rx="4" fill="#FFFFFF" stroke="#E5E7EB"/>
            <text x="620" y="30" class="text-dark" font-size="11">Telecharger</text>
            <path d="M682 22 L688 28 L694 22" stroke="#6B7280" fill="none" stroke-width="2"/>
          </g>

          <!-- Pagination -->
          <g transform="translate(16, 440)">
            <text x="0" y="14" class="text-muted" font-size="11">Page 1 sur 5</text>
            <g transform="translate(900, 0)">
              <rect x="0" y="0" width="28" height="28" rx="4" fill="#FFFFFF" stroke="#E5E7EB"/>
              <text x="14" y="18" class="text-muted" font-size="11" text-anchor="middle">‹</text>
              <rect x="32" y="0" width="28" height="28" rx="4" class="bg-primary"/>
              <text x="46" y="18" class="text-white" font-size="11" text-anchor="middle">1</text>
              <rect x="64" y="0" width="28" height="28" rx="4" fill="#FFFFFF" stroke="#E5E7EB"/>
              <text x="78" y="18" class="text-dark" font-size="11" text-anchor="middle">2</text>
              <rect x="96" y="0" width="28" height="28" rx="4" fill="#FFFFFF" stroke="#E5E7EB"/>
              <text x="110" y="18" class="text-dark" font-size="11" text-anchor="middle">3</text>
              <rect x="128" y="0" width="28" height="28" rx="4" fill="#FFFFFF" stroke="#E5E7EB"/>
              <text x="142" y="18" class="text-muted" font-size="11" text-anchor="middle">›</text>
            </g>
          </g>
        </g>
      </g>
    </g>
  </g>
</svg>
