<svg xmlns="http://www.w3.org/2000/svg" viewBox="0 0 1440 850" width="1440" height="850">
  <defs>
    <style>
      .bg-muted { fill: #F9FAFB; }
      .bg-white { fill: #FFFFFF; }
      .bg-header { fill: #000E9C; }
      .bg-primary { fill: #0050D7; }
      .text-body { font-family: 'Source Sans Pro', sans-serif; font-size: 14px; fill: #1F2937; }
      .text-muted { font-family: 'Source Sans Pro', sans-serif; font-size: 14px; fill: #6B7280; }
      .text-title { font-family: 'Source Sans Pro', sans-serif; font-size: 24px; font-weight: 600; fill: #1F2937; }
      .text-subtitle { font-family: 'Source Sans Pro', sans-serif; font-size: 18px; font-weight: 600; fill: #1F2937; }
      .text-white { font-family: 'Source Sans Pro', sans-serif; font-size: 14px; fill: #FFFFFF; }
      .text-link { font-family: 'Source Sans Pro', sans-serif; font-size: 14px; fill: #0050D7; }
      .tile { fill: #FFFFFF; stroke: #E5E7EB; stroke-width: 1; }
      .tab-active { fill: #FFFFFF; stroke: #0050D7; stroke-width: 2; }
      .tab-inactive { fill: #F3F4F6; stroke: #E5E7EB; stroke-width: 1; }
    </style>
  </defs>
  
  <!-- Background -->
  <rect width="1440" height="850" class="bg-muted"/>
  
  <!-- Header OVH -->
  <rect width="1440" height="60" class="bg-header"/>
  <text x="20" y="38" class="text-white" font-size="20" font-weight="bold">OVHcloud</text>
  <text x="150" y="38" class="text-white">Télécom</text>
  
  <!-- Sidebar -->
  <rect x="0" y="60" width="240" height="790" class="bg-white"/>
  <line x1="240" y1="60" x2="240" y2="850" stroke="#E5E7EB"/>
  
  <text x="20" y="100" class="text-muted" font-size="12">TÉLÉPHONIE</text>
  <rect x="0" y="110" width="240" height="36" fill="#E8F0FE"/>
  <text x="20" y="134" class="text-link" font-weight="600">VoIP</text>
  <text x="30" y="170" class="text-muted" font-size="12">voip-ab12345</text>
  <text x="40" y="200" class="text-body">Numéros alias</text>
  
  <!-- Main Content -->
  <g transform="translate(280, 80)">
    <!-- Breadcrumb -->
    <text x="0" y="0" class="text-muted">Télécom › VoIP › voip-ab12345 ›</text>
    <text x="230" y="0" class="text-link">0033800123456</text>
    
    <!-- Title -->
    <text x="0" y="40" class="text-title">Numéro "0033800123456"</text>
    
    <!-- Badge -->
    <rect x="320" y="22" width="60" height="24" rx="4" fill="#E8F0FE"/>
    <text x="335" y="40" class="text-link" font-size="12">Numéro</text>
    
    <!-- Tabs -->
    <g transform="translate(0, 60)">
      <rect x="0" y="0" width="100" height="40" rx="4" class="tab-active"/>
      <text x="15" y="26" class="text-body" font-weight="600">Tableau de bord</text>
      
      <rect x="105" y="0" width="100" height="40" rx="4" class="tab-inactive"/>
      <text x="120" y="26" class="text-muted">Configuration</text>
      
      <rect x="210" y="0" width="120" height="40" rx="4" class="tab-inactive"/>
      <text x="225" y="26" class="text-muted">Administration</text>
    </g>
    
    <!-- Content -->
    <g transform="translate(0, 120)">
      <!-- Tile: Appels entrants -->
      <rect x="0" y="0" width="440" height="220" rx="8" class="tile"/>
      <text x="20" y="30" class="text-subtitle">Appels entrants</text>
      
      <text x="20" y="70" class="text-muted">Mon numéro</text>
      <text x="200" y="70" class="text-body">0800 123 456</text>
      
      <text x="20" y="100" class="text-muted">Type</text>
      <text x="200" y="100" class="text-body">Numéro gratuit</text>
      
      <text x="20" y="130" class="text-muted">Rediriger vers</text>
      <text x="200" y="130" class="text-body">+33 9 12 34 56 78</text>
      
      <text x="20" y="170" class="text-link">Configurer vos appels entrants / sortants</text>
      <text x="20" y="195" class="text-link">Modifier la redirection</text>
      
      <!-- Tile: Informations -->
      <rect x="460" y="0" width="440" height="220" rx="8" class="tile"/>
      <text x="480" y="30" class="text-subtitle">Informations</text>
      
      <text x="480" y="70" class="text-muted">Type de service</text>
      <text x="680" y="70" class="text-body">Numéro</text>
      
      <text x="480" y="100" class="text-muted">Configuration</text>
      <text x="680" y="100" class="text-body">Redirection simple</text>
      
      <text x="480" y="130" class="text-muted">Groupe de facturation</text>
      <text x="680" y="130" class="text-link">voip-ab12345</text>
      
      <text x="480" y="160" class="text-muted">Statut</text>
      <rect x="680" y="145" width="40" height="22" rx="4" fill="#DEF7EC"/>
      <text x="690" y="161" fill="#03543F" font-size="12">OK</text>
      
      <!-- Tile: Configuration -->
      <rect x="0" y="240" width="440" height="200" rx="8" class="tile"/>
      <text x="20" y="270" class="text-subtitle">Configuration</text>
      
      <text x="20" y="310" class="text-link">Changer le type de configuration</text>
      <text x="20" y="335" class="text-muted" font-size="13">Redirection, SVI, file d'attente...</text>
      
      <text x="20" y="375" class="text-link">Gérer les agents</text>
      <text x="20" y="400" class="text-muted" font-size="13">Configurer les agents du centre d'appel</text>
      
      <text x="20" y="430" class="text-link">Gérer les files d'attente</text>
      
      <!-- Tile: Administration -->
      <rect x="460" y="240" width="440" height="200" rx="8" class="tile"/>
      <text x="480" y="270" class="text-subtitle">Administration</text>
      
      <text x="480" y="310" class="text-link">Convertir en ligne</text>
      <text x="480" y="335" class="text-muted" font-size="13">Transformer ce numéro en ligne SIP</text>
      
      <text x="480" y="375" class="text-link">Résilier le numéro</text>
      <text x="480" y="400" class="text-muted" font-size="13">Mettre fin au service</text>
      
      <!-- Tile: Options avancées -->
      <rect x="0" y="460" width="900" height="120" rx="8" class="tile"/>
      <text x="20" y="490" class="text-subtitle">Options avancées</text>
      
      <text x="20" y="530" class="text-link">Menus SVI (Serveur Vocal Interactif)</text>
      <text x="300" y="530" class="text-link">Sons personnalisés</text>
      <text x="520" y="530" class="text-link">Enregistrements</text>
      
      <text x="20" y="560" class="text-link">Plages horaires</text>
      <text x="300" y="560" class="text-link">Synthèse vocale (TTS)</text>
    </g>
  </g>
</svg>
