<svg xmlns="http://www.w3.org/2000/svg" viewBox="0 0 1440 1100" width="1440" height="1100">
  <defs>
    <style>
      .bg-header { fill: #000E9C; }
      .bg-white { fill: #FFFFFF; }
      .bg-muted { fill: #F9FAFB; }
      .text-dark { font-family: 'Source Sans Pro', sans-serif; font-size: 14px; fill: #1F2937; }
      .text-muted { font-family: 'Source Sans Pro', sans-serif; font-size: 13px; fill: #6B7280; }
      .text-white { font-family: 'Source Sans Pro', sans-serif; fill: #FFFFFF; }
      .text-title { font-family: 'Source Sans Pro', sans-serif; font-size: 24px; font-weight: 600; fill: #1F2937; }
      .text-section { font-family: 'Source Sans Pro', sans-serif; font-size: 16px; font-weight: 600; fill: #1F2937; }
      .text-link { font-family: 'Source Sans Pro', sans-serif; font-size: 14px; fill: #0050D7; }
      .border { stroke: #E5E7EB; stroke-width: 1; fill: none; }
      .btn-primary { fill: #0050D7; }
      .btn-secondary { fill: #FFFFFF; stroke: #D1D5DB; }
    </style>
  </defs>

  <!-- Background -->
  <rect width="1440" height="1100" class="bg-muted"/>

  <!-- Header -->
  <rect width="1440" height="60" class="bg-header"/>
  <text x="80" y="38" class="text-white" font-size="18" font-weight="600">OVHcloud</text>
  <text x="200" y="38" class="text-white" font-size="14">Telecom</text>

  <!-- Sidebar -->
  <rect x="0" y="60" width="240" height="1040" class="bg-white"/>
  <rect x="240" y="60" width="1" height="1040" class="border"/>

  <!-- Sidebar items -->
  <text x="20" y="100" class="text-dark" font-weight="600">Alias</text>
  <rect x="0" y="115" width="240" height="36" fill="#E8F0FE"/>
  <text x="20" y="138" class="text-dark">+33 1 23 45 67 89</text>
  <text x="20" y="170" class="text-muted">Configuration</text>
  <text x="30" y="195" class="text-link">OVH PABX</text>
  <text x="40" y="220" class="text-muted">Menus</text>
  <text x="40" y="245" class="text-muted">Sons</text>
  <text x="40" y="270" class="text-muted">TTS</text>

  <!-- Main content -->
  <g transform="translate(280, 80)">
    <!-- Title -->
    <text x="0" y="30" class="text-title">Plan de numerotation</text>
    <text x="0" y="55" class="text-muted">Configurez le routage des appels entrants avec des etapes et des regles.</text>

    <!-- Dialplan visual -->
    <g transform="translate(50, 100)">

      <!-- Incoming call indicator -->
      <g transform="translate(0, 0)">
        <circle cx="20" cy="20" r="20" fill="#E8F0FE" stroke="#0050D7" stroke-width="2"/>
        <text x="20" y="26" text-anchor="middle" fill="#0050D7" font-size="16">📞</text>
        <text x="60" y="26" class="text-dark" font-weight="500">Appel entrant</text>
      </g>

      <!-- Vertical connection line -->
      <line x1="20" y1="45" x2="20" y2="85" stroke="#0050D7" stroke-width="2"/>

      <!-- DIALPLAN BOX -->
      <g transform="translate(0, 90)">
        <rect x="-30" y="0" width="400" height="70" rx="8" fill="#E8F0FE" stroke="#0050D7" stroke-width="2"/>

        <!-- Icon -->
        <circle cx="20" cy="35" r="18" fill="#0050D7"/>
        <text x="20" y="41" text-anchor="middle" class="text-white" font-size="14">⚙</text>

        <!-- Info -->
        <text x="55" y="28" class="text-dark" font-weight="600">Plan de numerotation</text>
        <text x="55" y="48" class="text-muted" font-size="13">Mon dialplan principal</text>

        <!-- Action menu -->
        <g transform="translate(320, 20)">
          <rect x="0" y="0" width="30" height="30" rx="4" fill="#FFFFFF" stroke="#D1D5DB"/>
          <text x="15" y="20" text-anchor="middle" class="text-muted">⋮</text>

          <!-- Dropdown open -->
          <rect x="-120" y="35" width="150" height="150" rx="4" class="bg-white border" filter="drop-shadow(0 2px 4px rgba(0,0,0,0.1))"/>
          <text x="-105" y="60" class="text-dark">Modifier</text>
          <line x1="-120" y1="70" x2="30" y2="70" stroke="#E5E7EB"/>
          <text x="-105" y="95" class="text-dark">Ajouter une etape</text>
          <line x1="-120" y1="105" x2="30" y2="105" stroke="#E5E7EB"/>
          <text x="-105" y="130" class="text-dark">Masquer les etapes</text>
          <line x1="-120" y1="140" x2="30" y2="140" stroke="#E5E7EB"/>
          <text x="-105" y="165" fill="#EF4444">Supprimer</text>
        </g>
      </g>

      <!-- Connection to extensions -->
      <line x1="20" y1="160" x2="20" y2="210" stroke="#0050D7" stroke-width="2"/>

      <!-- EXTENSION 1 -->
      <g transform="translate(0, 215)">
        <rect x="-30" y="0" width="500" height="140" rx="8" class="bg-white" stroke="#E5E7EB"/>

        <!-- Extension header -->
        <rect x="-30" y="0" width="500" height="50" rx="8" fill="#F9FAFB"/>
        <rect x="-30" y="40" width="500" height="10" fill="#F9FAFB"/>

        <!-- Step number and badge -->
        <text x="20" y="32" class="text-dark" font-weight="600">Etape 1</text>
        <rect x="80" y="15" width="50" height="22" rx="4" fill="#DEF7EC"/>
        <text x="92" y="30" fill="#03543F" font-size="12">Actif</text>

        <!-- Extension info -->
        <text x="20" y="75" class="text-muted" font-size="13">2 actions</text>
        <text x="20" y="95" class="text-muted" font-size="12">Aucune condition</text>

        <!-- Action menu -->
        <g transform="translate(420, 15)">
          <rect x="0" y="0" width="30" height="30" rx="4" fill="#F3F4F6"/>
          <text x="15" y="20" text-anchor="middle" class="text-muted">⋮</text>
        </g>

        <!-- Rules inside extension -->
        <g transform="translate(50, 110)">
          <!-- Rule 1: Playback -->
          <rect x="0" y="0" width="180" height="25" rx="4" fill="#FEF3C7" stroke="#F59E0B"/>
          <text x="10" y="17" fill="#92400E" font-size="12">Jouer un son</text>
          <text x="100" y="17" class="text-muted" font-size="11">Bienvenue.mp3</text>

          <!-- Rule 2: Hunting -->
          <rect x="200" y="0" width="180" height="25" rx="4" fill="#DBEAFE" stroke="#3B82F6"/>
          <text x="210" y="17" fill="#1E40AF" font-size="12">File d'attente</text>
          <text x="290" y="17" class="text-muted" font-size="11">Support</text>
          <rect x="375" y="2" width="50" height="20" rx="3" fill="#FEE2E2"/>
          <text x="382" y="16" fill="#991B1B" font-size="9">Terminal</text>
        </g>
      </g>

      <!-- Connection line -->
      <line x1="20" y1="355" x2="20" y2="385" stroke="#0050D7" stroke-width="2" stroke-dasharray="4,4"/>

      <!-- EXTENSION 2 (with conditions) -->
      <g transform="translate(0, 390)">
        <rect x="-30" y="0" width="500" height="200" rx="8" class="bg-white" stroke="#E5E7EB"/>

        <!-- Extension header -->
        <rect x="-30" y="0" width="500" height="50" rx="8" fill="#F9FAFB"/>
        <rect x="-30" y="40" width="500" height="10" fill="#F9FAFB"/>

        <!-- Step number and badge -->
        <text x="20" y="32" class="text-dark" font-weight="600">Etape 2</text>
        <rect x="80" y="15" width="50" height="22" rx="4" fill="#DEF7EC"/>
        <text x="92" y="30" fill="#03543F" font-size="12">Actif</text>

        <!-- Extension info with conditions -->
        <text x="20" y="75" class="text-muted" font-size="13">1 action</text>

        <!-- Conditions summary -->
        <g transform="translate(20, 85)">
          <text x="0" y="0" class="text-dark" font-weight="500" font-size="12">Conditions:</text>
          <text x="0" y="18" class="text-muted" font-size="11">• Calendrier: Jours ouvrables</text>
          <text x="0" y="34" class="text-muted" font-size="11">• Plages horaires: 2 creneaux</text>
          <text x="0" y="50" class="text-muted" font-size="11">• Liste blanche - 3 numeros</text>
        </g>

        <!-- Action menu -->
        <g transform="translate(420, 15)">
          <rect x="0" y="0" width="30" height="30" rx="4" fill="#F3F4F6"/>
          <text x="15" y="20" text-anchor="middle" class="text-muted">⋮</text>
        </g>

        <!-- Rules -->
        <g transform="translate(50, 155)">
          <rect x="0" y="0" width="200" height="25" rx="4" fill="#E0E7FF" stroke="#6366F1"/>
          <text x="10" y="17" fill="#4338CA" font-size="12">Messagerie vocale</text>
          <text x="130" y="17" class="text-muted" font-size="11">0612345678</text>
        </g>

        <!-- Negative actions indicator -->
        <g transform="translate(50, 185)">
          <text x="0" y="0" class="text-muted" font-size="11">↳ Si conditions non remplies: Aucune action</text>
        </g>
      </g>

      <!-- Connection line -->
      <line x1="20" y1="590" x2="20" y2="620" stroke="#0050D7" stroke-width="2" stroke-dasharray="4,4"/>

      <!-- EXTENSION 3 (inactive) -->
      <g transform="translate(0, 625)">
        <rect x="-30" y="0" width="500" height="80" rx="8" class="bg-white" stroke="#E5E7EB" opacity="0.6"/>

        <!-- Extension header -->
        <rect x="-30" y="0" width="500" height="50" rx="8" fill="#F9FAFB" opacity="0.6"/>
        <rect x="-30" y="40" width="500" height="10" fill="#F9FAFB" opacity="0.6"/>

        <!-- Step number and badge -->
        <text x="20" y="32" class="text-dark" font-weight="600" opacity="0.6">Etape 3</text>
        <rect x="80" y="15" width="55" height="22" rx="4" fill="#FEE2E2"/>
        <text x="90" y="30" fill="#991B1B" font-size="12">Inactif</text>

        <!-- Extension info -->
        <text x="20" y="70" class="text-muted" font-size="13" opacity="0.6">0 action</text>

        <!-- Action menu -->
        <g transform="translate(420, 15)">
          <rect x="0" y="0" width="30" height="30" rx="4" fill="#F3F4F6"/>
          <text x="15" y="20" text-anchor="middle" class="text-muted">⋮</text>
        </g>
      </g>

      <!-- Add extension button -->
      <g transform="translate(0, 730)">
        <rect x="-10" y="0" width="180" height="40" rx="4" class="btn-secondary"/>
        <text x="30" y="26" class="text-dark">+ Ajouter une etape</text>
      </g>
    </g>

    <!-- Legend -->
    <g transform="translate(650, 100)">
      <rect x="0" y="0" width="400" height="220" rx="8" class="bg-white" stroke="#E5E7EB"/>
      <text x="20" y="30" class="text-section">Legende des actions</text>
      <line x1="20" y1="45" x2="380" y2="45" stroke="#E5E7EB"/>

      <g transform="translate(20, 65)">
        <rect x="0" y="0" width="100" height="22" rx="4" fill="#FEF3C7" stroke="#F59E0B"/>
        <text x="10" y="15" fill="#92400E" font-size="11">Jouer un son</text>

        <rect x="120" y="0" width="100" height="22" rx="4" fill="#DBEAFE" stroke="#3B82F6"/>
        <text x="130" y="15" fill="#1E40AF" font-size="11">File d'attente</text>

        <rect x="240" y="0" width="100" height="22" rx="4" fill="#E0E7FF" stroke="#6366F1"/>
        <text x="250" y="15" fill="#4338CA" font-size="11">Messagerie</text>
      </g>

      <g transform="translate(20, 100)">
        <rect x="0" y="0" width="100" height="22" rx="4" fill="#FCE7F3" stroke="#EC4899"/>
        <text x="10" y="15" fill="#9D174D" font-size="11">Menu IVR</text>

        <rect x="120" y="0" width="100" height="22" rx="4" fill="#ECFDF5" stroke="#10B981"/>
        <text x="130" y="15" fill="#065F46" font-size="11">Transfert</text>

        <rect x="240" y="0" width="100" height="22" rx="4" fill="#F3E8FF" stroke="#A855F7"/>
        <text x="250" y="15" fill="#6B21A8" font-size="11">TTS</text>
      </g>

      <g transform="translate(20, 135)">
        <rect x="0" y="0" width="100" height="22" rx="4" fill="#FEF2F2" stroke="#EF4444"/>
        <text x="10" y="15" fill="#B91C1C" font-size="11">Raccrocher</text>

        <rect x="120" y="0" width="100" height="22" rx="4" fill="#F5F5F4" stroke="#78716C"/>
        <text x="130" y="15" fill="#44403C" font-size="11">Pause</text>
      </g>

      <line x1="20" y1="170" x2="380" y2="170" stroke="#E5E7EB"/>
      <g transform="translate(20, 185)">
        <rect x="0" y="0" width="50" height="18" rx="3" fill="#FEE2E2"/>
        <text x="7" y="13" fill="#991B1B" font-size="9">Terminal</text>
        <text x="60" y="14" class="text-muted" font-size="11">= Action qui termine l'appel</text>
      </g>
    </g>
  </g>
</svg>
