<svg xmlns="http://www.w3.org/2000/svg" viewBox="0 0 1440 900" width="1440" height="900">
  <defs>
    <style>
      .bg-header { fill: #000E9C; }
      .bg-white { fill: #FFFFFF; }
      .bg-muted { fill: #F9FAFB; }
      .bg-primary { fill: #0050D7; }
      .text-white { fill: #FFFFFF; font-family: 'Source Sans Pro', sans-serif; }
      .text-body { fill: #1F2937; font-family: 'Source Sans Pro', sans-serif; font-size: 14px; }
      .text-muted { fill: #6B7280; font-family: 'Source Sans Pro', sans-serif; font-size: 14px; }
      .text-primary { fill: #0050D7; font-family: 'Source Sans Pro', sans-serif; font-size: 14px; }
      .text-title { fill: #1F2937; font-family: 'Source Sans Pro', sans-serif; font-size: 24px; font-weight: 600; }
      .text-danger { fill: #DC2626; }
      .border { stroke: #E5E7EB; stroke-width: 1; fill: none; }
      .table-header { fill: #F3F4F6; }
    </style>
  </defs>

  <!-- Background -->
  <rect width="1440" height="900" class="bg-muted"/>

  <!-- Header -->
  <rect width="1440" height="60" class="bg-header"/>
  <text x="80" y="38" class="text-white" font-size="20" font-weight="bold">OVHcloud</text>
  <text x="200" y="38" class="text-white" font-size="14">Telecom</text>

  <!-- Back + Page Title -->
  <g transform="translate(80, 90)">
    <text class="text-primary" font-size="14">&lt; Retour</text>
    <text y="40" class="text-title">Numeros abreges - ab12345-ovh-1</text>
  </g>

  <!-- Main Content -->
  <g transform="translate(80, 170)">
    <rect width="1200" height="600" class="bg-white" rx="8"/>

    <!-- Description -->
    <g transform="translate(25, 25)">
      <text class="text-body" font-weight="600" font-size="16">Numeros abreges</text>
      <text y="25" class="text-muted">Les numeros abreges permettent de composer rapidement vos contacts les plus frequents.</text>
    </g>

    <!-- Actions bar -->
    <g transform="translate(25, 80)">
      <g>
        <rect width="150" height="40" class="bg-primary" rx="4"/>
        <text x="30" y="26" class="text-white" font-size="14">+ Ajouter</text>
      </g>
      <g transform="translate(170, 0)">
        <rect width="120" height="40" fill="#FFFFFF" stroke="#E5E7EB" rx="4"/>
        <text x="25" y="26" class="text-body" font-size="14">Importer</text>
      </g>
      <g transform="translate(310, 0)">
        <rect width="120" height="40" fill="#FFFFFF" stroke="#E5E7EB" rx="4"/>
        <text x="25" y="26" class="text-body" font-size="14">Exporter</text>
      </g>
    </g>

    <!-- Table Header -->
    <g transform="translate(25, 140)">
      <rect width="1150" height="40" class="table-header" rx="4"/>
      <text x="20" y="27" class="text-body" font-weight="600">Numero abrege</text>
      <text x="200" y="27" class="text-body" font-weight="600">Numero de destination</text>
      <text x="500" y="27" class="text-body" font-weight="600">Nom</text>
      <text x="800" y="27" class="text-body" font-weight="600">Prenom</text>
      <text x="1050" y="27" class="text-body" font-weight="600">Actions</text>
    </g>

    <!-- Row 1 -->
    <g transform="translate(25, 190)">
      <text x="20" y="18" class="text-body">2001</text>
      <text x="200" y="18" class="text-body">+33 6 12 34 56 78</text>
      <text x="500" y="18" class="text-body">Dupont</text>
      <text x="800" y="18" class="text-body">Jean</text>
      <g transform="translate(1050, -5)">
        <g>
          <rect width="32" height="28" fill="#FFFFFF" stroke="#E5E7EB" rx="4"/>
          <text x="8" y="19" class="text-primary" font-size="14">✎</text>
        </g>
        <g transform="translate(40, 0)">
          <rect width="32" height="28" fill="#FFFFFF" stroke="#E5E7EB" rx="4"/>
          <text x="8" y="19" class="text-danger" font-size="14">🗑</text>
        </g>
      </g>
      <line x1="0" y1="35" x2="1150" y2="35" stroke="#E5E7EB"/>
    </g>

    <!-- Row 2 -->
    <g transform="translate(25, 235)">
      <text x="20" y="18" class="text-body">2002</text>
      <text x="200" y="18" class="text-body">+33 6 98 76 54 32</text>
      <text x="500" y="18" class="text-body">Martin</text>
      <text x="800" y="18" class="text-body">Marie</text>
      <g transform="translate(1050, -5)">
        <g>
          <rect width="32" height="28" fill="#FFFFFF" stroke="#E5E7EB" rx="4"/>
          <text x="8" y="19" class="text-primary" font-size="14">✎</text>
        </g>
        <g transform="translate(40, 0)">
          <rect width="32" height="28" fill="#FFFFFF" stroke="#E5E7EB" rx="4"/>
          <text x="8" y="19" class="text-danger" font-size="14">🗑</text>
        </g>
      </g>
      <line x1="0" y1="35" x2="1150" y2="35" stroke="#E5E7EB"/>
    </g>

    <!-- Row 3 -->
    <g transform="translate(25, 280)">
      <text x="20" y="18" class="text-body">2003</text>
      <text x="200" y="18" class="text-body">+33 1 23 45 67 89</text>
      <text x="500" y="18" class="text-body">Bernard</text>
      <text x="800" y="18" class="text-body">Pierre</text>
      <g transform="translate(1050, -5)">
        <g>
          <rect width="32" height="28" fill="#FFFFFF" stroke="#E5E7EB" rx="4"/>
          <text x="8" y="19" class="text-primary" font-size="14">✎</text>
        </g>
        <g transform="translate(40, 0)">
          <rect width="32" height="28" fill="#FFFFFF" stroke="#E5E7EB" rx="4"/>
          <text x="8" y="19" class="text-danger" font-size="14">🗑</text>
        </g>
      </g>
      <line x1="0" y1="35" x2="1150" y2="35" stroke="#E5E7EB"/>
    </g>

    <!-- Row 4 -->
    <g transform="translate(25, 325)">
      <text x="20" y="18" class="text-body">2004</text>
      <text x="200" y="18" class="text-body">+33 6 11 22 33 44</text>
      <text x="500" y="18" class="text-body">Petit</text>
      <text x="800" y="18" class="text-body">Sophie</text>
      <g transform="translate(1050, -5)">
        <g>
          <rect width="32" height="28" fill="#FFFFFF" stroke="#E5E7EB" rx="4"/>
          <text x="8" y="19" class="text-primary" font-size="14">✎</text>
        </g>
        <g transform="translate(40, 0)">
          <rect width="32" height="28" fill="#FFFFFF" stroke="#E5E7EB" rx="4"/>
          <text x="8" y="19" class="text-danger" font-size="14">🗑</text>
        </g>
      </g>
      <line x1="0" y1="35" x2="1150" y2="35" stroke="#E5E7EB"/>
    </g>

    <!-- Row 5 -->
    <g transform="translate(25, 370)">
      <text x="20" y="18" class="text-body">2005</text>
      <text x="200" y="18" class="text-body">+33 1 44 55 66 77</text>
      <text x="500" y="18" class="text-body">Accueil</text>
      <text x="800" y="18" class="text-body">-</text>
      <g transform="translate(1050, -5)">
        <g>
          <rect width="32" height="28" fill="#FFFFFF" stroke="#E5E7EB" rx="4"/>
          <text x="8" y="19" class="text-primary" font-size="14">✎</text>
        </g>
        <g transform="translate(40, 0)">
          <rect width="32" height="28" fill="#FFFFFF" stroke="#E5E7EB" rx="4"/>
          <text x="8" y="19" class="text-danger" font-size="14">🗑</text>
        </g>
      </g>
    </g>

    <!-- Pagination -->
    <g transform="translate(25, 530)">
      <text class="text-muted" font-size="12">5 numeros abreges (2000-2099 disponibles)</text>
    </g>
  </g>
</svg>
