<svg xmlns="http://www.w3.org/2000/svg" viewBox="0 0 1440 900" width="1440" height="900">
  <defs>
    <style>
      .bg-header { fill: #000E9C; }
      .bg-content { fill: #F5F6F7; }
      .bg-white { fill: #FFFFFF; }
      .bg-table-header { fill: #F3F4F6; }
      .text-white { fill: #FFFFFF; font-family: 'Source Sans Pro', sans-serif; }
      .text-dark { fill: #333333; font-family: 'Source Sans Pro', sans-serif; }
      .text-muted { fill: #6B7280; font-family: 'Source Sans Pro', sans-serif; }
      .text-primary { fill: #0050D7; font-family: 'Source Sans Pro', sans-serif; }
      .border { stroke: #E5E7EB; stroke-width: 1; fill: none; }
      .btn-default { fill: #FFFFFF; stroke: #D1D5DB; stroke-width: 1; }
      .badge-success { fill: #DEF7EC; }
      .badge-warning { fill: #FEF3C7; }
      .badge-error { fill: #FEE2E2; }
      .dropdown-menu { fill: #FFFFFF; filter: drop-shadow(0 4px 6px rgba(0,0,0,0.1)); }
    </style>
  </defs>

  <!-- Background -->
  <rect width="1440" height="900" class="bg-content"/>

  <!-- Header OVHcloud -->
  <rect width="1440" height="60" class="bg-header"/>
  <text x="20" y="38" class="text-white" font-size="20" font-weight="bold">OVHcloud</text>
  <text x="140" y="38" class="text-white" font-size="14">Manager</text>
  <text x="300" y="38" class="text-white" font-size="13" opacity="0.8">Telecom › SMS › sms-ov12345-1 › Historique des envois</text>
  <circle cx="1380" cy="30" r="18" fill="#4F46E5"/>
  <text x="1380" y="35" class="text-white" font-size="14" text-anchor="middle">JD</text>

  <!-- Back link -->
  <text x="40" y="95" class="text-primary" font-size="14">← Retour aux SMS</text>

  <!-- Page Title -->
  <text x="40" y="130" class="text-dark" font-size="24" font-weight="bold">Historique des envois</text>

  <!-- Action buttons -->
  <g transform="translate(40, 155)">
    <rect width="120" height="40" rx="4" class="btn-default"/>
    <text x="15" y="26" class="text-dark" font-size="14">Actions ▼</text>

    <rect x="140" y="0" width="230" height="40" rx="4" class="btn-default"/>
    <text x="160" y="26" class="text-dark" font-size="14">🗑 Supprimer (1 sélectionné)</text>

    <rect x="390" y="0" width="200" height="40" rx="4" class="btn-default"/>
    <text x="410" y="26" class="text-dark" font-size="14">📥 Télécharger l'historique</text>
  </g>

  <!-- Dropdown menu OPEN -->
  <g transform="translate(40, 197)">
    <rect width="120" height="50" rx="4" class="dropdown-menu"/>
    <rect width="120" height="50" rx="4" stroke="#E5E7EB" stroke-width="1" fill="none"/>
    <text x="15" y="32" class="text-dark" font-size="14">Actualiser</text>
  </g>

  <!-- Table -->
  <g transform="translate(40, 220)">
    <!-- Table header -->
    <rect width="1360" height="50" rx="4" class="bg-table-header"/>
    <rect x="15" y="18" width="18" height="18" rx="2" stroke="#D1D5DB" stroke-width="2" fill="none"/>
    <text x="55" y="32" class="text-muted" font-size="12" font-weight="600">DATE ↓</text>
    <text x="200" y="32" class="text-muted" font-size="12" font-weight="600">EXPÉDITEUR</text>
    <text x="350" y="32" class="text-muted" font-size="12" font-weight="600">DESTINATAIRE</text>
    <text x="520" y="32" class="text-muted" font-size="12" font-weight="600">DESTINATION</text>
    <text x="680" y="32" class="text-muted" font-size="12" font-weight="600">MESSAGE</text>
    <text x="1050" y="32" class="text-muted" font-size="12" font-weight="600">STATUT</text>
    <text x="1280" y="32" class="text-muted" font-size="12" font-weight="600">ACTIONS</text>

    <!-- Row 1 -->
    <rect y="50" width="1360" height="60" class="bg-white"/>
    <line x1="0" y1="110" x2="1360" y2="110" stroke="#E5E7EB" stroke-width="1"/>
    <rect x="15" y="68" width="18" height="18" rx="2" fill="#0050D7"/>
    <text x="17" y="82" class="text-white" font-size="12">✓</text>
    <text x="55" y="82" class="text-muted" font-size="13">28/12/2025 10:30</text>
    <text x="200" y="82" class="text-dark" font-size="13">OVHcloud</text>
    <text x="350" y="82" class="text-dark" font-size="13">+33612345678</text>
    <text x="520" y="82" class="text-muted" font-size="13">France</text>
    <text x="680" y="82" class="text-muted" font-size="13">Profitez de -20% sur nos...</text>
    <rect x="1050" y="68" width="70" height="24" rx="12" class="badge-success"/>
    <text x="1065" y="85" fill="#03543F" font-size="11" font-family="Source Sans Pro">Délivré</text>
    <text x="1300" y="85" class="text-muted" font-size="20" cursor="pointer">⋮</text>

    <!-- Row 2 -->
    <rect y="110" width="1360" height="60" class="bg-white"/>
    <line x1="0" y1="170" x2="1360" y2="170" stroke="#E5E7EB" stroke-width="1"/>
    <rect x="15" y="128" width="18" height="18" rx="2" stroke="#D1D5DB" stroke-width="2" fill="none"/>
    <text x="55" y="147" class="text-muted" font-size="13">28/12/2025 09:15</text>
    <text x="200" y="147" class="text-dark" font-size="13">LIVRAISON</text>
    <text x="350" y="147" class="text-dark" font-size="13">+33698765432</text>
    <text x="520" y="147" class="text-muted" font-size="13">France</text>
    <text x="680" y="147" class="text-muted" font-size="13">Votre colis est en cours...</text>
    <rect x="1050" y="133" width="70" height="24" rx="12" class="badge-success"/>
    <text x="1065" y="150" fill="#03543F" font-size="11" font-family="Source Sans Pro">Délivré</text>
    <text x="1300" y="150" class="text-muted" font-size="20" cursor="pointer">⋮</text>

    <!-- Row 3 -->
    <rect y="170" width="1360" height="60" class="bg-white"/>
    <line x1="0" y1="230" x2="1360" y2="230" stroke="#E5E7EB" stroke-width="1"/>
    <rect x="15" y="188" width="18" height="18" rx="2" stroke="#D1D5DB" stroke-width="2" fill="none"/>
    <text x="55" y="207" class="text-muted" font-size="13">27/12/2025 16:45</text>
    <text x="200" y="207" class="text-dark" font-size="13">OVHcloud</text>
    <text x="350" y="207" class="text-dark" font-size="13">+33745678901</text>
    <text x="520" y="207" class="text-muted" font-size="13">France</text>
    <text x="680" y="207" class="text-muted" font-size="13">Rappel: votre RDV est...</text>
    <rect x="1050" y="193" width="70" height="24" rx="12" class="badge-success"/>
    <text x="1065" y="210" fill="#03543F" font-size="11" font-family="Source Sans Pro">Délivré</text>
    <text x="1300" y="210" class="text-muted" font-size="20" cursor="pointer">⋮</text>

    <!-- Row 4 -->
    <rect y="230" width="1360" height="60" class="bg-white"/>
    <line x1="0" y1="290" x2="1360" y2="290" stroke="#E5E7EB" stroke-width="1"/>
    <rect x="15" y="248" width="18" height="18" rx="2" stroke="#D1D5DB" stroke-width="2" fill="none"/>
    <text x="55" y="267" class="text-muted" font-size="13">27/12/2025 14:20</text>
    <text x="200" y="267" class="text-dark" font-size="13">PROMO</text>
    <text x="350" y="267" class="text-dark" font-size="13">+33654321098</text>
    <text x="520" y="267" class="text-muted" font-size="13">Belgique</text>
    <text x="680" y="267" class="text-muted" font-size="13">Soldes exceptionnelles...</text>
    <rect x="1050" y="253" width="70" height="24" rx="12" class="badge-warning"/>
    <text x="1062" y="270" fill="#92400E" font-size="11" font-family="Source Sans Pro">En cours</text>
    <text x="1300" y="270" class="text-muted" font-size="20" cursor="pointer">⋮</text>

    <!-- Row 5 -->
    <rect y="290" width="1360" height="60" class="bg-white"/>
    <line x1="0" y1="350" x2="1360" y2="350" stroke="#E5E7EB" stroke-width="1"/>
    <rect x="15" y="308" width="18" height="18" rx="2" stroke="#D1D5DB" stroke-width="2" fill="none"/>
    <text x="55" y="327" class="text-muted" font-size="13">27/12/2025 11:00</text>
    <text x="200" y="327" class="text-dark" font-size="13">TEST</text>
    <text x="350" y="327" class="text-dark" font-size="13">+33789012345</text>
    <text x="520" y="327" class="text-muted" font-size="13">France</text>
    <text x="680" y="327" class="text-muted" font-size="13">Ceci est un test...</text>
    <rect x="1050" y="313" width="70" height="24" rx="12" class="badge-error"/>
    <text x="1065" y="330" fill="#991B1B" font-size="11" font-family="Source Sans Pro">Erreur</text>
    <text x="1300" y="330" class="text-muted" font-size="20" cursor="pointer">⋮</text>
  </g>

  <!-- Action Menu OPEN -->
  <g transform="translate(1150, 380)">
    <rect width="140" height="90" rx="4" class="dropdown-menu"/>
    <rect width="140" height="90" rx="4" stroke="#E5E7EB" stroke-width="1" fill="none"/>
    <text x="15" y="35" class="text-dark" font-size="14">Consulter</text>
    <line x1="10" y1="50" x2="130" y2="50" stroke="#E5E7EB" stroke-width="1"/>
    <text x="15" y="75" fill="#EF4444" font-size="14" font-family="Source Sans Pro">Supprimer</text>
  </g>

  <!-- Pagination -->
  <g transform="translate(40, 600)">
    <text x="0" y="20" class="text-muted" font-size="13">Afficher</text>
    <rect x="60" y="2" width="60" height="30" rx="4" stroke="#D1D5DB" stroke-width="1" fill="white"/>
    <text x="80" y="22" class="text-dark" font-size="13">10 ▼</text>
    <text x="140" y="20" class="text-muted" font-size="13">Page 1 / 125</text>
    
    <!-- Page navigation -->
    <g transform="translate(1200, 0)">
      <rect width="35" height="30" rx="4" stroke="#D1D5DB" stroke-width="1" fill="white"/>
      <text x="12" y="20" class="text-muted" font-size="14">‹</text>
      <rect x="45" width="35" height="30" rx="4" fill="#0050D7"/>
      <text x="57" y="20" class="text-white" font-size="14">1</text>
      <rect x="90" width="35" height="30" rx="4" stroke="#D1D5DB" stroke-width="1" fill="white"/>
      <text x="102" y="20" class="text-dark" font-size="14">2</text>
      <rect x="135" width="35" height="30" rx="4" stroke="#D1D5DB" stroke-width="1" fill="white"/>
      <text x="147" y="20" class="text-muted" font-size="14">›</text>
    </g>
  </g>

</svg>
