<svg xmlns="http://www.w3.org/2000/svg" viewBox="0 0 1440 850" width="1440" height="850">
  <defs>
    <style>
      .bg-header { fill: #000E9C; }
      .bg-white { fill: #FFFFFF; }
      .bg-muted { fill: #F9FAFB; }
      .text-dark { font-family: 'Source Sans Pro', sans-serif; font-size: 14px; fill: #1F2937; }
      .text-muted { font-family: 'Source Sans Pro', sans-serif; font-size: 13px; fill: #6B7280; }
      .text-white { font-family: 'Source Sans Pro', sans-serif; fill: #FFFFFF; }
      .text-title { font-family: 'Source Sans Pro', sans-serif; font-size: 24px; font-weight: 600; fill: #1F2937; }
      .text-link { font-family: 'Source Sans Pro', sans-serif; font-size: 14px; fill: #0050D7; }
      .border { stroke: #E5E7EB; stroke-width: 1; fill: none; }
      .btn-primary { fill: #0050D7; }
      .btn-secondary { fill: #FFFFFF; stroke: #D1D5DB; }
      .table-header { fill: #F3F4F6; }
      .table-row-alt { fill: #F9FAFB; }
    </style>
  </defs>

  <!-- Background -->
  <rect width="1440" height="850" class="bg-muted"/>

  <!-- Header -->
  <rect width="1440" height="60" class="bg-header"/>
  <text x="80" y="38" class="text-white" font-size="18" font-weight="600">OVHcloud</text>
  <text x="200" y="38" class="text-white" font-size="14">Telecom</text>

  <!-- Sidebar -->
  <rect x="0" y="60" width="240" height="790" class="bg-white"/>
  <rect x="240" y="60" width="1" height="790" class="border"/>

  <!-- Sidebar items -->
  <text x="20" y="100" class="text-dark" font-weight="600">Telephonie</text>
  <text x="20" y="130" class="text-muted">Groupe de facturation</text>
  <text x="30" y="155" class="text-muted">Lignes</text>
  <text x="30" y="180" class="text-muted">Numeros</text>
  <text x="30" y="205" class="text-muted">Portefeuille SVA</text>
  <rect x="0" y="220" width="240" height="36" fill="#E8F0FE"/>
  <text x="30" y="243" class="text-link">Reversements</text>

  <!-- Main content -->
  <g transform="translate(280, 80)">
    <!-- Title -->
    <text x="0" y="30" class="text-title">Historique des reversements</text>
    <text x="0" y="55" class="text-muted">Consultez l'historique des appels sur vos numeros SVA et les montants reverses.</text>

    <!-- Summary cards -->
    <g transform="translate(0, 90)">
      <rect x="0" y="0" width="260" height="90" rx="8" class="bg-white" stroke="#E5E7EB"/>
      <text x="20" y="30" class="text-muted" font-size="12">Total en attente</text>
      <text x="20" y="60" class="text-dark" font-size="28" font-weight="600">245,80 €</text>
      <text x="20" y="78" class="text-muted" font-size="11">12 appels</text>

      <rect x="280" y="0" width="260" height="90" rx="8" class="bg-white" stroke="#E5E7EB"/>
      <text x="300" y="30" class="text-muted" font-size="12">Total reverse (mois)</text>
      <text x="300" y="60" fill="#03543F" font-size="28" font-weight="600">1 234,56 €</text>
      <text x="300" y="78" class="text-muted" font-size="11">56 appels</text>

      <rect x="560" y="0" width="260" height="90" rx="8" class="bg-white" stroke="#E5E7EB"/>
      <text x="580" y="30" class="text-muted" font-size="12">Prochain virement</text>
      <text x="580" y="60" class="text-dark" font-size="28" font-weight="600">15 Jan 2025</text>
      <text x="580" y="78" class="text-muted" font-size="11">Versement automatique</text>
    </g>

    <!-- Filter bar -->
    <g transform="translate(0, 200)">
      <rect x="0" y="0" width="200" height="36" rx="4" class="bg-white" stroke="#D1D5DB"/>
      <text x="15" y="24" class="text-muted">🔍 Rechercher...</text>

      <rect x="220" y="0" width="150" height="36" rx="4" class="bg-white" stroke="#D1D5DB"/>
      <text x="235" y="24" class="text-dark">Decembre 2024</text>
      <text x="340" y="24" class="text-muted">▼</text>

      <rect x="390" y="0" width="120" height="36" rx="4" class="bg-white" stroke="#D1D5DB"/>
      <text x="405" y="24" class="text-dark">Tous statuts</text>
      <text x="485" y="24" class="text-muted">▼</text>
    </g>

    <!-- Repayments table -->
    <g transform="translate(0, 260)">
      <rect x="0" y="0" width="1100" height="450" rx="8" class="bg-white" stroke="#E5E7EB"/>

      <!-- Table header -->
      <rect x="0" y="0" width="1100" height="45" rx="8" class="table-header"/>
      <text x="20" y="28" class="text-dark" font-weight="600">Numero appele</text>
      <text x="180" y="28" class="text-dark" font-weight="600">Numero appelant</text>
      <text x="360" y="28" class="text-dark" font-weight="600">Date</text>
      <text x="530" y="28" class="text-dark" font-weight="600">Duree</text>
      <text x="650" y="28" class="text-dark" font-weight="600">Montant</text>
      <text x="780" y="28" class="text-dark" font-weight="600">Statut</text>

      <!-- Row 1 -->
      <g transform="translate(0, 45)">
        <rect x="0" y="0" width="1100" height="50" class="bg-white"/>
        <line x1="0" y1="50" x2="1100" y2="50" stroke="#E5E7EB"/>
        <text x="20" y="32" class="text-dark">0 892 123 456</text>
        <text x="180" y="32" class="text-dark">+33 6 12 34 56 78</text>
        <text x="360" y="32" class="text-dark">28-12-2024 14:32:15</text>
        <text x="530" y="32" class="text-dark">00:05:23</text>
        <text x="650" y="32" class="text-dark" font-weight="500">12,50 €</text>
        <rect x="780" y="12" width="70" height="26" rx="4" fill="#DEF7EC"/>
        <text x="793" y="31" fill="#03543F" font-size="12">Paye</text>
      </g>

      <!-- Row 2 -->
      <g transform="translate(0, 95)">
        <rect x="0" y="0" width="1100" height="50" class="table-row-alt"/>
        <line x1="0" y1="50" x2="1100" y2="50" stroke="#E5E7EB"/>
        <text x="20" y="32" class="text-dark">0 892 123 456</text>
        <text x="180" y="32" class="text-dark">+33 1 23 45 67 89</text>
        <text x="360" y="32" class="text-dark">28-12-2024 11:15:42</text>
        <text x="530" y="32" class="text-dark">00:12:08</text>
        <text x="650" y="32" class="text-dark" font-weight="500">28,90 €</text>
        <rect x="780" y="12" width="70" height="26" rx="4" fill="#DEF7EC"/>
        <text x="793" y="31" fill="#03543F" font-size="12">Paye</text>
      </g>

      <!-- Row 3 -->
      <g transform="translate(0, 145)">
        <rect x="0" y="0" width="1100" height="50" class="bg-white"/>
        <line x1="0" y1="50" x2="1100" y2="50" stroke="#E5E7EB"/>
        <text x="20" y="32" class="text-dark">0 892 789 012</text>
        <text x="180" y="32" class="text-dark">+33 7 11 22 33 44</text>
        <text x="360" y="32" class="text-dark">27-12-2024 16:45:00</text>
        <text x="530" y="32" class="text-dark">00:02:15</text>
        <text x="650" y="32" class="text-dark" font-weight="500">5,40 €</text>
        <rect x="780" y="12" width="90" height="26" rx="4" fill="#FEF3C7"/>
        <text x="793" y="31" fill="#92400E" font-size="12">En attente</text>
      </g>

      <!-- Row 4 -->
      <g transform="translate(0, 195)">
        <rect x="0" y="0" width="1100" height="50" class="table-row-alt"/>
        <line x1="0" y1="50" x2="1100" y2="50" stroke="#E5E7EB"/>
        <text x="20" y="32" class="text-dark">0 892 123 456</text>
        <text x="180" y="32" class="text-dark">+33 6 55 44 33 22</text>
        <text x="360" y="32" class="text-dark">27-12-2024 09:22:33</text>
        <text x="530" y="32" class="text-dark">00:08:45</text>
        <text x="650" y="32" class="text-dark" font-weight="500">20,85 €</text>
        <rect x="780" y="12" width="90" height="26" rx="4" fill="#FEF3C7"/>
        <text x="793" y="31" fill="#92400E" font-size="12">En attente</text>
      </g>

      <!-- Row 5 -->
      <g transform="translate(0, 245)">
        <rect x="0" y="0" width="1100" height="50" class="bg-white"/>
        <line x1="0" y1="50" x2="1100" y2="50" stroke="#E5E7EB"/>
        <text x="20" y="32" class="text-dark">0 892 789 012</text>
        <text x="180" y="32" class="text-dark">+33 1 98 76 54 32</text>
        <text x="360" y="32" class="text-dark">26-12-2024 14:10:05</text>
        <text x="530" y="32" class="text-dark">00:15:32</text>
        <text x="650" y="32" class="text-dark" font-weight="500">37,20 €</text>
        <rect x="780" y="12" width="70" height="26" rx="4" fill="#DEF7EC"/>
        <text x="793" y="31" fill="#03543F" font-size="12">Paye</text>
      </g>
    </g>

    <!-- Pagination -->
    <g transform="translate(0, 730)">
      <text x="0" y="0" class="text-muted" font-size="12">Afficher</text>
      <rect x="60" y="-15" width="60" height="30" rx="4" class="bg-white" stroke="#D1D5DB"/>
      <text x="80" y="5" class="text-dark">25 ▼</text>
      <text x="140" y="0" class="text-muted" font-size="12">par page</text>

      <text x="850" y="0" class="text-muted" font-size="12">1-25 sur 68 resultats</text>
      <rect x="990" y="-15" width="30" height="30" rx="4" class="btn-secondary"/>
      <text x="1000" y="5" class="text-dark">◀</text>
      <rect x="1030" y="-15" width="30" height="30" rx="4" class="btn-secondary"/>
      <text x="1040" y="5" class="text-dark">▶</text>
    </g>
  </g>
</svg>
