<svg xmlns="http://www.w3.org/2000/svg" viewBox="0 0 1440 900" width="1440" height="900">
  <defs>
    <style>
      .bg-header { fill: #000E9C; }
      .bg-main { fill: #F6F6F9; }
      .bg-white { fill: #FFFFFF; }
      .bg-info { fill: #DBEAFE; }
      .border { stroke: #E5E7EB; stroke-width: 1; fill: none; }
      .divider { stroke: #E5E7EB; stroke-width: 1; }
      .btn-primary { fill: #0050D7; }
      .text-white { fill: #FFFFFF; font-family: 'Source Sans Pro', sans-serif; }
      .text-dark { fill: #1F2937; font-family: 'Source Sans Pro', sans-serif; }
      .text-muted { fill: #6B7280; font-family: 'Source Sans Pro', sans-serif; }
      .text-primary { fill: #0050D7; font-family: 'Source Sans Pro', sans-serif; }
      .text-info { fill: #1E40AF; font-family: 'Source Sans Pro', sans-serif; }
    </style>
  </defs>

  <!-- Background -->
  <rect width="1440" height="900" class="bg-main"/>

  <!-- NAV1 -->
  <rect width="1440" height="50" class="bg-header"/>
  <text x="510" y="32" class="text-white" font-size="14" font-weight="600">Web Cloud</text>
  <rect x="505" y="46" width="75" height="3" fill="#FFFFFF"/>

  <!-- NAV2 -->
  <rect x="0" y="50" width="1440" height="40" class="bg-white"/>
  <line x1="0" y1="89" x2="1440" y2="89" class="divider"/>
  <text x="500" y="75" class="text-primary" font-size="14" font-weight="600">VoIP</text>
  <rect x="495" y="85" width="35" height="3" fill="#0050D7"/>

  <!-- CONTENT -->
  <g transform="translate(0, 105)">
    <!-- LEFT PANEL -->
    <g transform="translate(24, 0)">
      <rect x="0" y="0" width="280" height="765" rx="8" class="bg-white"/>
      <rect x="0" y="0" width="280" height="765" rx="8" class="border"/>
      <rect x="12" y="12" width="256" height="34" rx="4" fill="#F9FAFB" stroke="#E5E7EB"/>
      <text x="26" y="34" class="text-muted" font-size="12">Rechercher...</text>
      <rect x="0" y="80" width="280" height="56" fill="#E8F0FE"/>
      <text x="16" y="104" class="text-dark" font-size="12" font-weight="500">+33 9 72 12 34 56</text>
      <text x="16" y="120" class="text-muted" font-size="10">Ligne SIP</text>
    </g>

    <!-- RIGHT PANEL -->
    <g transform="translate(320, 0)">
      <rect x="0" y="0" width="1096" height="765" rx="8" class="bg-white"/>
      <rect x="0" y="0" width="1096" height="765" rx="8" class="border"/>

      <g transform="translate(20, 0)">
        <!-- Section Mot de passe (gauche) -->
        <rect x="0" y="20" width="500" height="380" rx="6" class="bg-white" stroke="#E5E7EB"/>
        <text x="20" y="48" class="text-dark" font-size="14" font-weight="600">Modifier le mot de passe du repondeur</text>
        <line x1="20" y1="60" x2="480" y2="60" class="divider"/>

        <!-- Info banner -->
        <rect x="20" y="75" width="460" height="40" rx="4" class="bg-info"/>
        <text x="40" y="100" class="text-info" font-size="12">Le mot de passe doit contenir exactement 4 chiffres.</text>

        <!-- Mot de passe -->
        <text x="20" y="145" class="text-dark" font-size="12">Mot de passe</text>
        <rect x="20" y="155" width="200" height="40" rx="4" fill="#FFFFFF" stroke="#E5E7EB"/>
        <text x="35" y="180" class="text-muted" font-size="12">****</text>

        <!-- Confirmation -->
        <text x="20" y="220" class="text-dark" font-size="12">Confirmer le mot de passe</text>
        <rect x="20" y="230" width="200" height="40" rx="4" fill="#FFFFFF" stroke="#E5E7EB"/>
        <text x="35" y="255" class="text-muted" font-size="12">****</text>

        <!-- Checkbox -->
        <rect x="20" y="290" width="16" height="16" rx="2" fill="#FFFFFF" stroke="#E5E7EB"/>
        <text x="45" y="303" class="text-dark" font-size="12">Forcer le changement au prochain acces</text>

        <!-- Lien bulk -->
        <line x1="20" y1="330" x2="480" y2="330" class="divider"/>
        <text x="20" y="355" class="text-primary" font-size="12">Appliquer a plusieurs services</text>

        <!-- Bouton -->
        <rect x="20" y="370" width="200" height="40" rx="4" class="btn-primary"/>
        <text x="120" y="395" class="text-white" font-size="12" text-anchor="middle">Appliquer les modifications</text>

        <!-- Section Informations (droite) -->
        <rect x="520" y="20" width="520" height="180" rx="6" class="bg-white" stroke="#E5E7EB"/>
        <text x="540" y="48" class="text-dark" font-size="14" font-weight="600">Numeros d'acces au repondeur</text>
        <line x1="540" y1="60" x2="1020" y2="60" class="divider"/>

        <text x="540" y="95" class="text-muted" font-size="12">Numero interne :</text>
        <text x="700" y="95" class="text-dark" font-size="12">123</text>

        <text x="540" y="125" class="text-muted" font-size="12">Numero externe :</text>
        <text x="700" y="125" class="text-dark" font-size="12">+33 8 99 70 XX XX</text>
      </g>
    </g>
  </g>
</svg>
