<svg xmlns="http://www.w3.org/2000/svg" viewBox="0 0 500 220" width="500" height="220">
  <defs>
    <style>
      .bg-muted { fill: #F9FAFB; }
      .bg-white { fill: #FFFFFF; }
      .border { stroke: #E5E7EB; stroke-width: 1; fill: none; }
      .text-body { font-family: 'Source Sans Pro', sans-serif; font-size: 14px; fill: #1F2937; }
      .text-muted { font-family: 'Source Sans Pro', sans-serif; font-size: 12px; fill: #6B7280; }
      .text-label { font-family: 'Source Sans Pro', sans-serif; font-size: 11px; fill: #6B7280; }
      .text-percent { font-family: 'Source Sans Pro', sans-serif; font-size: 12px; font-weight: 600; fill: #1F2937; }
      .progress-bg { fill: #E5E7EB; }
      .progress-info { fill: #0050D7; }
      .progress-success { fill: #10B981; }
      .progress-warning { fill: #F59E0B; }
      .progress-error { fill: #EF4444; }
    </style>
  </defs>
  
  <!-- Background -->
  <rect width="500" height="220" class="bg-muted"/>
  
  <!-- Progress Info (import en cours) -->
  <g transform="translate(20, 20)">
    <text class="text-label" x="0" y="0">Import en cours (info)</text>
    
    <rect x="0" y="10" width="460" height="35" class="bg-white border" rx="4"/>
    
    <text class="text-body" x="15" y="32">Import des numéros abrégés...</text>
    
    <!-- Barre -->
    <rect x="15" y="38" width="380" height="8" class="progress-bg" rx="4"/>
    <rect x="15" y="38" width="250" height="8" class="progress-info" rx="4"/>
    
    <!-- Pourcentage -->
    <text class="text-percent" x="410" y="35">65%</text>
  </g>
  
  <!-- Progress Success (terminé) -->
  <g transform="translate(20, 75)">
    <text class="text-label" x="0" y="0">Import terminé (success)</text>
    
    <rect x="0" y="10" width="460" height="35" class="bg-white border" rx="4"/>
    
    <text class="text-body" x="15" y="32">Import terminé avec succès</text>
    
    <!-- Barre -->
    <rect x="15" y="38" width="380" height="8" class="progress-bg" rx="4"/>
    <rect x="15" y="38" width="380" height="8" class="progress-success" rx="4"/>
    
    <!-- Pourcentage -->
    <text class="text-percent" x="410" y="35" fill="#03543F">100%</text>
  </g>
  
  <!-- Progress Warning (attention) -->
  <g transform="translate(20, 130)">
    <text class="text-label" x="0" y="0">Quota presque atteint (warning)</text>
    
    <rect x="0" y="10" width="460" height="35" class="bg-white border" rx="4"/>
    
    <text class="text-body" x="15" y="32">Espace disque utilisé</text>
    
    <!-- Barre -->
    <rect x="15" y="38" width="380" height="8" class="progress-bg" rx="4"/>
    <rect x="15" y="38" width="320" height="8" class="progress-warning" rx="4"/>
    
    <!-- Pourcentage -->
    <text class="text-percent" x="410" y="35" fill="#92400E">85%</text>
  </g>
  
  <!-- Progress Error (critique) -->
  <g transform="translate(20, 185)">
    <text class="text-label" x="0" y="0">Quota dépassé (error)</text>
    
    <rect x="0" y="10" width="460" height="35" class="bg-white border" rx="4"/>
    
    <text class="text-body" x="15" y="32">Appels simultanés</text>
    
    <!-- Barre -->
    <rect x="15" y="38" width="380" height="8" class="progress-bg" rx="4"/>
    <rect x="15" y="38" width="380" height="8" class="progress-error" rx="4"/>
    
    <!-- Pourcentage -->
    <text class="text-percent" x="410" y="35" fill="#991B1B">100%</text>
  </g>
</svg>
