<svg xmlns="http://www.w3.org/2000/svg" viewBox="0 0 1440 700" width="1440" height="700">
  <defs>
    <style>
      .bg-muted { fill: #F9FAFB; }
      .bg-white { fill: #FFFFFF; }
      .bg-header { fill: #000E9C; }
      .text-body { font-family: 'Source Sans Pro', sans-serif; font-size: 14px; fill: #1F2937; }
      .text-muted { font-family: 'Source Sans Pro', sans-serif; font-size: 12px; fill: #6B7280; }
      .text-title { font-family: 'Source Sans Pro', sans-serif; font-size: 18px; font-weight: 600; fill: #1F2937; }
      .text-white { font-family: 'Source Sans Pro', sans-serif; font-size: 14px; fill: #FFFFFF; }
      .text-link { font-family: 'Source Sans Pro', sans-serif; font-size: 14px; fill: #0050D7; }
      .border { stroke: #E5E7EB; stroke-width: 1; fill: none; }
      .btn-primary { fill: #0050D7; }
      .btn-default { fill: #FFFFFF; stroke: #D1D5DB; }
      .row-alt { fill: #F9FAFB; }
    </style>
  </defs>
  <rect width="1440" height="700" class="bg-muted"/>
  <rect width="1440" height="60" class="bg-header"/>
  <text x="80" y="38" class="text-white" font-size="20" font-weight="bold">OVHcloud</text>
  <rect x="0" y="60" width="240" height="640" class="bg-white"/>
  <rect x="240" y="60" width="1" height="640" class="border"/>
  <text x="280" y="110" class="text-title" font-size="24">Click to Call</text>
  <rect x="280" y="140" width="400" height="300" rx="4" class="bg-white border"/>
  <text x="300" y="175" class="text-title">Lancer un appel</text>
  <text x="300" y="220" class="text-body">Numéro appelant</text>
  <rect x="300" y="235" width="280" height="40" rx="4" class="border bg-white"/>
  <text x="320" y="261" class="text-muted">+33 1 23 45 67 89</text>
  <text x="300" y="300" class="text-body">Numéro à appeler</text>
  <rect x="300" y="315" width="280" height="40" rx="4" class="border bg-white"/>
  <text x="320" y="341" class="text-muted">Entrez un numéro...</text>
  <rect x="300" y="380" width="120" height="40" rx="4" class="btn-primary"/>
  <text x="330" y="406" class="text-white">📞 Appeler</text>
  <rect x="720" y="140" width="450" height="450" rx="4" class="bg-white border"/>
  <text x="740" y="175" class="text-title">Utilisateurs autorisés</text>
  <rect x="740" y="200" width="150" height="36" rx="4" class="btn-primary"/>
  <text x="760" y="224" class="text-white">+ Ajouter</text>
  <rect x="740" y="255" width="410" height="35" class="row-alt"/>
  <text x="760" y="278" class="text-body" font-weight="600">Utilisateur</text>
  <text x="1000" y="278" class="text-body" font-weight="600">Actions</text>
  <rect x="740" y="290" width="410" height="45" class="bg-white"/>
  <text x="760" y="318" class="text-body">jean.dupont@exemple.fr</text>
  <text x="1000" y="318" class="text-link">Modifier</text>
  <text x="1070" y="318" class="text-link">Supprimer</text>
  <rect x="740" y="335" width="410" height="45" class="row-alt"/>
  <text x="760" y="363" class="text-body">marie.martin@exemple.fr</text>
  <text x="1000" y="363" class="text-link">Modifier</text>
  <text x="1070" y="363" class="text-link">Supprimer</text>
</svg>
