<svg xmlns="http://www.w3.org/2000/svg" viewBox="0 0 1440 900" width="1440" height="900">
  <defs>
    <style>
      .bg-header { fill: #000E9C; }
      .bg-main { fill: #F6F6F9; }
      .bg-white { fill: #FFFFFF; }
      .bg-primary { fill: #0050D7; }
      .border { stroke: #E5E7EB; stroke-width: 1; fill: none; }
      .divider { stroke: #E5E7EB; stroke-width: 1; }
      .btn-primary { fill: #0050D7; }
      .btn-outline { stroke: #E5E7EB; stroke-width: 1; fill: #FFFFFF; }
      .text-white { fill: #FFFFFF; font-family: 'Source Sans Pro', sans-serif; }
      .text-dark { fill: #1F2937; font-family: 'Source Sans Pro', sans-serif; }
      .text-muted { fill: #6B7280; font-family: 'Source Sans Pro', sans-serif; }
      .text-primary { fill: #0050D7; font-family: 'Source Sans Pro', sans-serif; }
    </style>
  </defs>

  <!-- Background -->
  <rect width="1440" height="900" class="bg-main"/>

  <!-- NAV1 - Header OVH -->
  <rect width="1440" height="50" class="bg-header"/>
  <text x="40" y="32" class="text-white" font-size="14" opacity="0.7">Accueil</text>
  <text x="110" y="32" class="text-white" font-size="14" opacity="0.7">Public Cloud</text>
  <text x="210" y="32" class="text-white" font-size="14" opacity="0.7">Hosted Private Cloud</text>
  <text x="370" y="32" class="text-white" font-size="14" opacity="0.7">Bare Metal Cloud</text>
  <text x="510" y="32" class="text-white" font-size="14" font-weight="600">Web Cloud</text>
  <rect x="505" y="46" width="75" height="3" fill="#FFFFFF"/>
  <text x="620" y="32" class="text-white" font-size="14" opacity="0.7">Network</text>

  <!-- NAV2 - Web Cloud -->
  <rect x="0" y="50" width="1440" height="40" class="bg-white"/>
  <line x1="0" y1="89" x2="1440" y2="89" class="divider"/>
  <text x="40" y="75" class="text-muted" font-size="14">Accueil</text>
  <text x="110" y="75" class="text-muted" font-size="14">Domaines et DNS</text>
  <text x="240" y="75" class="text-muted" font-size="14">Hébergement</text>
  <text x="345" y="75" class="text-muted" font-size="14">Wordpress</text>
  <text x="430" y="75" class="text-muted" font-size="14">Emails</text>
  <text x="500" y="75" class="text-primary" font-size="14" font-weight="600">VoIP</text>
  <rect x="495" y="85" width="35" height="3" fill="#0050D7"/>
  <text x="550" y="75" class="text-muted" font-size="14">Accès</text>

  <!-- CONTENT AREA -->
  <g transform="translate(0, 105)">
    <!-- LEFT PANEL -->
    <g transform="translate(24, 0)">
      <rect x="0" y="0" width="280" height="765" rx="8" class="bg-white"/>
      <rect x="0" y="0" width="280" height="765" rx="8" class="border"/>

      <!-- Recherche -->
      <rect x="12" y="12" width="256" height="34" rx="4" fill="#F9FAFB" stroke="#E5E7EB"/>
      <text x="26" y="34" class="text-muted" font-size="12">🔍 Rechercher...</text>

      <!-- Compteur -->
      <text x="12" y="68" class="text-muted" font-size="11">3 groupes</text>

      <!-- Service item sélectionné -->
      <rect x="0" y="80" width="280" height="56" fill="#E8F0FE"/>
      <text x="16" y="104" class="text-dark" font-size="12" font-weight="500">ab12345-ovh-1</text>
      <text x="16" y="120" class="text-muted" font-size="10">Groupe principal</text>
    </g>

    <!-- RIGHT PANEL -->
    <g transform="translate(320, 0)">
      <rect x="0" y="0" width="1096" height="765" rx="8" class="bg-white"/>
      <rect x="0" y="0" width="1096" height="765" rx="8" class="border"/>

      <g transform="translate(20, 0)">
        <!-- Back link avec titre -->
        <text x="0" y="24" class="text-primary" font-size="12">← Options du groupe</text>

        <!-- Formulaire options -->
        <g transform="translate(0, 60)">
          <!-- Option 1: Masquer appels -->
          <rect x="0" y="0" width="16" height="16" rx="2" fill="#FFFFFF" stroke="#E5E7EB"/>
          <text x="28" y="13" class="text-dark" font-size="13">Masquer les appels entrants/sortants sur le relevé de consommation</text>

          <!-- Option 2: Numéro interne/externe -->
          <rect x="0" y="50" width="16" height="16" rx="2" fill="#0050D7" stroke="#0050D7"/>
          <path d="M3,58 L7,62 L13,52" stroke="#FFFFFF" stroke-width="2" fill="none"/>
          <text x="28" y="63" class="text-dark" font-size="13">Utiliser un affichage distinct pour le numéro interne/externe</text>
          <text x="28" y="83" class="text-muted" font-size="11">Très utile dans une entreprise. Présenter le numéro du standard pour vos appels extérieurs</text>
          <text x="28" y="98" class="text-muted" font-size="11">et présenter votre propre numéro pour les appels internes à l'entreprise.</text>

          <!-- Option 3: Description lignes -->
          <rect x="0" y="130" width="16" height="16" rx="2" fill="#FFFFFF" stroke="#E5E7EB"/>
          <text x="28" y="143" class="text-dark" font-size="13">Présenter la description des lignes lors des appels</text>
        </g>

        <!-- Boutons -->
        <g transform="translate(0, 280)">
          <rect x="0" y="0" width="100" height="36" rx="4" class="btn-primary"/>
          <text x="50" y="23" class="text-white" font-size="12" text-anchor="middle">Valider</text>

          <rect x="110" y="0" width="100" height="36" rx="4" class="btn-outline"/>
          <text x="160" y="23" class="text-dark" font-size="12" text-anchor="middle">Annuler</text>
        </g>
      </g>
    </g>
  </g>
</svg>
