<svg xmlns="http://www.w3.org/2000/svg" viewBox="0 0 1440 900" width="1440" height="900">
  <defs>
    <style>
      .bg-header { fill: #000E9C; }
      .bg-main { fill: #F6F6F9; }
      .bg-white { fill: #FFFFFF; }
      .border { stroke: #E5E7EB; stroke-width: 1; fill: none; }
      .divider { stroke: #E5E7EB; stroke-width: 1; }
      .table-header { fill: #F9FAFB; }
      .row-stripe { fill: #F9FAFB; }
      .btn-primary { fill: #0050D7; }
      .text-white { fill: #FFFFFF; font-family: 'Source Sans Pro', sans-serif; }
      .text-dark { fill: #1F2937; font-family: 'Source Sans Pro', sans-serif; }
      .text-muted { fill: #6B7280; font-family: 'Source Sans Pro', sans-serif; }
      .text-primary { fill: #0050D7; font-family: 'Source Sans Pro', sans-serif; }
    </style>
  </defs>

  <!-- Background -->
  <rect width="1440" height="900" class="bg-main"/>

  <!-- NAV1 -->
  <rect width="1440" height="50" class="bg-header"/>
  <text x="510" y="32" class="text-white" font-size="14" font-weight="600">Web Cloud</text>
  <rect x="505" y="46" width="75" height="3" fill="#FFFFFF"/>

  <!-- NAV2 -->
  <rect x="0" y="50" width="1440" height="40" class="bg-white"/>
  <line x1="0" y1="89" x2="1440" y2="89" class="divider"/>
  <text x="500" y="75" class="text-primary" font-size="14" font-weight="600">VoIP</text>
  <rect x="495" y="85" width="35" height="3" fill="#0050D7"/>

  <!-- CONTENT -->
  <g transform="translate(0, 105)">
    <!-- LEFT PANEL -->
    <g transform="translate(24, 0)">
      <rect x="0" y="0" width="280" height="765" rx="8" class="bg-white"/>
      <rect x="0" y="0" width="280" height="765" rx="8" class="border"/>
      <rect x="12" y="12" width="256" height="34" rx="4" fill="#F9FAFB" stroke="#E5E7EB"/>
      <text x="26" y="34" class="text-muted" font-size="12">Rechercher...</text>
      <rect x="0" y="80" width="280" height="56" fill="#E8F0FE"/>
      <text x="16" y="104" class="text-dark" font-size="12" font-weight="500">+33 9 72 12 34 56</text>
      <text x="16" y="120" class="text-muted" font-size="10">Fax</text>
    </g>

    <!-- RIGHT PANEL -->
    <g transform="translate(320, 0)">
      <rect x="0" y="0" width="1096" height="765" rx="8" class="bg-white"/>
      <rect x="0" y="0" width="1096" height="765" rx="8" class="border"/>

      <g transform="translate(20, 0)">
        <!-- Section Configuration liste (gauche) -->
        <rect x="0" y="20" width="500" height="180" rx="6" class="bg-white" stroke="#E5E7EB"/>
        <text x="20" y="48" class="text-dark" font-size="14" font-weight="600">Configuration du filtrage</text>
        <line x1="20" y1="60" x2="480" y2="60" class="divider"/>

        <text x="20" y="90" class="text-muted" font-size="12">Type de filtrage :</text>
        <rect x="20" y="100" width="250" height="36" rx="4" fill="#FFFFFF" stroke="#E5E7EB"/>
        <text x="35" y="123" class="text-dark" font-size="12">Pas de filtrage</text>
        <text x="245" y="123" class="text-muted" font-size="10">v</text>

        <!-- Checkbox -->
        <rect x="20" y="150" width="16" height="16" rx="2" fill="#FFFFFF" stroke="#0050D7"/>
        <text x="45" y="163" class="text-dark" font-size="12">Rejeter les appels anonymes</text>

        <!-- Section Ajouter (droite) -->
        <rect x="520" y="20" width="520" height="180" rx="6" class="bg-white" stroke="#E5E7EB"/>
        <text x="540" y="48" class="text-dark" font-size="14" font-weight="600">Ajouter une regle</text>
        <line x1="540" y1="60" x2="1020" y2="60" class="divider"/>

        <text x="540" y="90" class="text-muted" font-size="12">Liste :</text>
        <rect x="540" y="100" width="200" height="36" rx="4" fill="#FFFFFF" stroke="#E5E7EB"/>
        <text x="555" y="123" class="text-dark" font-size="12">Liste blanche</text>
        <text x="715" y="123" class="text-muted" font-size="10">v</text>

        <text x="760" y="90" class="text-muted" font-size="12">Type :</text>
        <rect x="760" y="100" width="150" height="36" rx="4" fill="#FFFFFF" stroke="#E5E7EB"/>
        <text x="775" y="123" class="text-dark" font-size="12">Numeros</text>
        <text x="885" y="123" class="text-muted" font-size="10">v</text>

        <text x="540" y="160" class="text-muted" font-size="12">Numero :</text>
        <rect x="540" y="170" width="300" height="36" rx="4" fill="#FFFFFF" stroke="#E5E7EB"/>
        <text x="555" y="193" class="text-muted" font-size="12">00336...</text>

        <rect x="860" y="170" width="80" height="36" rx="4" class="btn-primary"/>
        <text x="900" y="193" class="text-white" font-size="12" text-anchor="middle">Ajouter</text>

        <!-- Section Liste des règles -->
        <rect x="0" y="220" width="1040" height="350" rx="6" class="bg-white" stroke="#E5E7EB"/>
        <text x="20" y="248" class="text-dark" font-size="14" font-weight="600">Liste des regles de filtrage</text>
        <line x1="20" y1="260" x2="1020" y2="260" class="divider"/>

        <!-- Toolbar -->
        <rect x="20" y="275" width="100" height="32" rx="4" fill="#FFFFFF" stroke="#E5E7EB"/>
        <text x="70" y="296" class="text-dark" font-size="11" text-anchor="middle">Supprimer</text>

        <rect x="130" y="275" width="80" height="32" rx="4" fill="#FFFFFF" stroke="#E5E7EB"/>
        <text x="170" y="296" class="text-dark" font-size="11" text-anchor="middle">Exporter</text>

        <rect x="900" y="275" width="120" height="32" rx="4" fill="#FFFFFF" stroke="#E5E7EB"/>
        <text x="960" y="296" class="text-dark" font-size="11" text-anchor="middle">Filtrer par type</text>

        <!-- Table -->
        <rect x="20" y="320" width="1000" height="35" class="table-header"/>
        <rect x="25" y="330" width="16" height="16" rx="2" fill="#FFFFFF" stroke="#E5E7EB"/>
        <text x="60" y="343" class="text-primary" font-size="11" font-weight="600">Numero</text>
        <text x="400" y="343" class="text-primary" font-size="11" font-weight="600">Type</text>
        <text x="970" y="343" class="text-muted" font-size="14">↻</text>

        <!-- Row 1 -->
        <rect x="20" y="355" width="1000" height="40" fill="#FFFFFF"/>
        <line x1="20" y1="395" x2="1020" y2="395" class="divider"/>
        <rect x="25" y="367" width="16" height="16" rx="2" fill="#FFFFFF" stroke="#E5E7EB"/>
        <text x="60" y="380" class="text-dark" font-size="12">0033612345678</text>
        <text x="400" y="380" class="text-dark" font-size="12">Liste blanche - Numeros</text>

        <!-- Row 2 -->
        <rect x="20" y="395" width="1000" height="40" class="row-stripe"/>
        <line x1="20" y1="435" x2="1020" y2="435" class="divider"/>
        <rect x="25" y="407" width="16" height="16" rx="2" fill="#FFFFFF" stroke="#E5E7EB"/>
        <text x="60" y="420" class="text-dark" font-size="12">0033698765432</text>
        <text x="400" y="420" class="text-dark" font-size="12">Liste noire - Numeros</text>

        <!-- Row 3 -->
        <rect x="20" y="435" width="1000" height="40" fill="#FFFFFF"/>
        <line x1="20" y1="475" x2="1020" y2="475" class="divider"/>
        <rect x="25" y="447" width="16" height="16" rx="2" fill="#FFFFFF" stroke="#E5E7EB"/>
        <text x="60" y="460" class="text-dark" font-size="12">MonEntreprise</text>
        <text x="400" y="460" class="text-dark" font-size="12">Liste blanche - TSI</text>

        <!-- Pagination -->
        <text x="20" y="540" class="text-muted" font-size="11">Affichage 1-3 sur 3 regles</text>
      </g>
    </g>
  </g>
</svg>
