<svg xmlns="http://www.w3.org/2000/svg" viewBox="0 0 1440 900" width="1440" height="900">
  <defs>
    <style>
      .bg-header { fill: #000E9C; }
      .bg-main { fill: #F6F6F9; }
      .bg-white { fill: #FFFFFF; }
      .bg-info { fill: #DBEAFE; }
      .border { stroke: #E5E7EB; stroke-width: 1; fill: none; }
      .divider { stroke: #E5E7EB; stroke-width: 1; }
      .btn-primary { fill: #0050D7; }
      .text-white { fill: #FFFFFF; font-family: 'Source Sans Pro', sans-serif; }
      .text-dark { fill: #1F2937; font-family: 'Source Sans Pro', sans-serif; }
      .text-muted { fill: #6B7280; font-family: 'Source Sans Pro', sans-serif; }
      .text-primary { fill: #0050D7; font-family: 'Source Sans Pro', sans-serif; }
      .text-info { fill: #1E40AF; font-family: 'Source Sans Pro', sans-serif; }
    </style>
  </defs>

  <!-- Background -->
  <rect width="1440" height="900" class="bg-main"/>

  <!-- NAV1 -->
  <rect width="1440" height="50" class="bg-header"/>
  <text x="510" y="32" class="text-white" font-size="14" font-weight="600">Web Cloud</text>
  <rect x="505" y="46" width="75" height="3" fill="#FFFFFF"/>

  <!-- NAV2 -->
  <rect x="0" y="50" width="1440" height="40" class="bg-white"/>
  <line x1="0" y1="89" x2="1440" y2="89" class="divider"/>
  <text x="500" y="75" class="text-primary" font-size="14" font-weight="600">VoIP</text>
  <rect x="495" y="85" width="35" height="3" fill="#0050D7"/>

  <!-- CONTENT -->
  <g transform="translate(0, 105)">
    <!-- LEFT PANEL -->
    <g transform="translate(24, 0)">
      <rect x="0" y="0" width="280" height="765" rx="8" class="bg-white"/>
      <rect x="0" y="0" width="280" height="765" rx="8" class="border"/>
      <rect x="12" y="12" width="256" height="34" rx="4" fill="#F9FAFB" stroke="#E5E7EB"/>
      <text x="26" y="34" class="text-muted" font-size="12">Rechercher...</text>
      <rect x="0" y="80" width="280" height="56" fill="#E8F0FE"/>
      <text x="16" y="104" class="text-dark" font-size="12" font-weight="500">+33 9 72 12 34 56</text>
      <text x="16" y="120" class="text-muted" font-size="10">Fax</text>
    </g>

    <!-- RIGHT PANEL -->
    <g transform="translate(320, 0)">
      <rect x="0" y="0" width="1096" height="765" rx="8" class="bg-white"/>
      <rect x="0" y="0" width="1096" height="765" rx="8" class="border"/>

      <g transform="translate(20, 0)">
        <!-- Section Options generales (gauche) -->
        <rect x="0" y="20" width="500" height="180" rx="6" class="bg-white" stroke="#E5E7EB"/>
        <text x="20" y="48" class="text-dark" font-size="14" font-weight="600">Options generales</text>
        <line x1="20" y1="60" x2="480" y2="60" class="divider"/>

        <text x="20" y="90" class="text-muted" font-size="12">Qualite du fax :</text>
        <rect x="20" y="100" width="250" height="36" rx="4" fill="#FFFFFF" stroke="#E5E7EB"/>
        <text x="35" y="123" class="text-dark" font-size="12">Normale</text>
        <text x="245" y="123" class="text-muted" font-size="10">v</text>

        <text x="20" y="160" class="text-muted" font-size="12">Nombre de tentatives d'envoi :</text>
        <rect x="20" y="170" width="100" height="36" rx="4" fill="#FFFFFF" stroke="#E5E7EB"/>
        <text x="35" y="193" class="text-dark" font-size="12">3</text>
        <text x="95" y="193" class="text-muted" font-size="10">v</text>

        <!-- Section En-tete (droite) -->
        <rect x="520" y="20" width="520" height="180" rx="6" class="bg-white" stroke="#E5E7EB"/>
        <text x="540" y="48" class="text-dark" font-size="14" font-weight="600">En-tete du fax</text>
        <line x1="540" y1="60" x2="1020" y2="60" class="divider"/>

        <text x="540" y="90" class="text-muted" font-size="12">En-tete du fax :</text>
        <rect x="540" y="100" width="460" height="36" rx="4" fill="#FFFFFF" stroke="#E5E7EB"/>
        <text x="555" y="123" class="text-dark" font-size="12">Mon Entreprise - #01# - #02#</text>

        <text x="540" y="160" class="text-primary" font-size="12">Afficher l'aide sur les variables</text>

        <!-- Section Notifications (gauche bas) -->
        <rect x="0" y="220" width="500" height="220" rx="6" class="bg-white" stroke="#E5E7EB"/>
        <text x="20" y="248" class="text-dark" font-size="14" font-weight="600">Options de notification</text>
        <line x1="20" y1="260" x2="480" y2="260" class="divider"/>

        <text x="20" y="290" class="text-muted" font-size="12">Nom de l'expediteur :</text>
        <rect x="20" y="300" width="250" height="36" rx="4" fill="#FFFFFF" stroke="#E5E7EB"/>
        <text x="35" y="323" class="text-dark" font-size="12">Mon Entreprise</text>

        <text x="20" y="360" class="text-muted" font-size="12">Email de l'expediteur :</text>
        <rect x="20" y="370" width="250" height="36" rx="4" fill="#FFFFFF" stroke="#E5E7EB"/>
        <text x="35" y="393" class="text-dark" font-size="12">fax@monentreprise.fr</text>

        <text x="290" y="290" class="text-muted" font-size="12">Format du mail :</text>
        <rect x="290" y="300" width="180" height="36" rx="4" fill="#FFFFFF" stroke="#E5E7EB"/>
        <text x="305" y="323" class="text-dark" font-size="12">PDF</text>
        <text x="445" y="323" class="text-muted" font-size="10">v</text>

        <!-- Section Adresses (droite bas) -->
        <rect x="520" y="220" width="520" height="220" rx="6" class="bg-white" stroke="#E5E7EB"/>
        <text x="540" y="248" class="text-dark" font-size="14" font-weight="600">Adresses a notifier</text>
        <line x1="540" y1="260" x2="1020" y2="260" class="divider"/>

        <text x="560" y="290" class="text-dark" font-size="12">contact@monentreprise.fr</text>
        <text x="950" y="290" class="text-muted" font-size="14">x</text>

        <text x="560" y="320" class="text-dark" font-size="12">fax@monentreprise.fr</text>
        <text x="950" y="320" class="text-muted" font-size="14">x</text>

        <rect x="540" y="350" width="200" height="36" rx="4" class="btn-primary"/>
        <text x="640" y="373" class="text-white" font-size="12" text-anchor="middle">Ajouter une adresse</text>

        <!-- Bouton Sauvegarder -->
        <line x1="0" y1="470" x2="1040" y2="470" class="divider"/>
        <text x="20" y="505" class="text-primary" font-size="12">Appliquer a plusieurs services</text>
        <rect x="20" y="520" width="200" height="40" rx="4" class="btn-primary"/>
        <text x="120" y="545" class="text-white" font-size="12" text-anchor="middle">Mettre a jour les parametres</text>
      </g>
    </g>
  </g>
</svg>
