<svg xmlns="http://www.w3.org/2000/svg" viewBox="0 0 1440 700" width="1440" height="700">
  <defs>
    <style>
      .bg-header { fill: #000E9C; }
      .bg-white { fill: #FFFFFF; }
      .bg-muted { fill: #F9FAFB; }
      .text-white { fill: #FFFFFF; font-family: 'Source Sans Pro', sans-serif; }
      .text-body { fill: #1F2937; font-family: 'Source Sans Pro', sans-serif; font-size: 14px; }
      .text-muted { fill: #6B7280; font-family: 'Source Sans Pro', sans-serif; font-size: 14px; }
      .text-heading { fill: #1F2937; font-family: 'Source Sans Pro', sans-serif; font-size: 24px; font-weight: 600; }
      .text-link { fill: #0050D7; font-family: 'Source Sans Pro', sans-serif; font-size: 14px; }
      .border { stroke: #E5E7EB; stroke-width: 1; fill: none; }
      .th-bg { fill: #F3F4F6; }
      .badge-success { fill: #DEF7EC; }
      .badge-success-text { fill: #03543F; font-family: 'Source Sans Pro', sans-serif; font-size: 12px; }
      .badge-warning { fill: #FEF3C7; }
      .badge-warning-text { fill: #92400E; font-family: 'Source Sans Pro', sans-serif; font-size: 12px; }
      .badge-error { fill: #FEE2E2; }
      .badge-error-text { fill: #991B1B; font-family: 'Source Sans Pro', sans-serif; font-size: 12px; }
    </style>
  </defs>
  <rect width="1440" height="700" class="bg-muted"/>
  <rect width="1440" height="60" class="bg-header"/>
  <text x="80" y="38" class="text-white" font-size="20" font-weight="bold">OVHcloud</text>
  <rect x="0" y="60" width="240" height="640" class="bg-white"/>
  <rect x="240" y="60" width="1" height="640" class="border"/>
  <g transform="translate(280, 80)">
    <text x="0" y="20" class="text-link">← Retour vers la gestion de votre consommation</text>
    <text x="0" y="60" class="text-heading">Fax émis</text>
    <g transform="translate(0, 90)">
      <rect x="0" y="0" width="1100" height="450" rx="8" class="bg-white"/>
      <rect x="0" y="0" width="1100" height="450" rx="8" class="border"/>
      <rect x="1" y="1" width="1098" height="44" rx="8" class="th-bg"/>
      <text x="30" y="28" class="text-body" font-weight="600">Date</text>
      <text x="200" y="28" class="text-body" font-weight="600">Destinataire</text>
      <text x="400" y="28" class="text-body" font-weight="600">Pages</text>
      <text x="500" y="28" class="text-body" font-weight="600">Durée</text>
      <text x="600" y="28" class="text-body" font-weight="600">Tentatives</text>
      <text x="720" y="28" class="text-body" font-weight="600">Statut</text>
      <text x="900" y="28" class="text-body" font-weight="600">Coût</text>
      <line x1="0" y1="45" x2="1100" y2="45" stroke="#E5E7EB"/>
      <g transform="translate(0, 55)">
        <text x="30" y="20" class="text-body">28/12/2024 11:00</text>
        <text x="200" y="20" class="text-body">0033612345678</text>
        <text x="400" y="20" class="text-body">2</text>
        <text x="500" y="20" class="text-body">00:32</text>
        <text x="600" y="20" class="text-body">1/3</text>
        <g transform="translate(720, 5)">
          <rect x="0" y="0" width="70" height="24" rx="12" class="badge-success"/>
          <text x="12" y="16" class="badge-success-text">Envoyé</text>
        </g>
        <text x="900" y="20" class="text-body">2 crédits</text>
      </g>
      <g transform="translate(0, 100)">
        <rect x="1" y="0" width="1098" height="45" fill="#F9FAFB"/>
        <text x="30" y="28" class="text-body">28/12/2024 10:30</text>
        <text x="200" y="28" class="text-body">0033698765432</text>
        <text x="400" y="28" class="text-body">4</text>
        <text x="500" y="28" class="text-body">01:05</text>
        <text x="600" y="28" class="text-body">2/3</text>
        <g transform="translate(720, 13)">
          <rect x="0" y="0" width="70" height="24" rx="12" class="badge-success"/>
          <text x="12" y="16" class="badge-success-text">Envoyé</text>
        </g>
        <text x="900" y="28" class="text-body">4 crédits</text>
      </g>
      <g transform="translate(0, 145)">
        <text x="30" y="28" class="text-body">27/12/2024 17:15</text>
        <text x="200" y="28" class="text-body">0033611223344</text>
        <text x="400" y="28" class="text-body">1</text>
        <text x="500" y="28" class="text-body">-</text>
        <text x="600" y="28" class="text-body">3/3</text>
        <g transform="translate(720, 13)">
          <rect x="0" y="0" width="70" height="24" rx="12" class="badge-error"/>
          <text x="12" y="16" class="badge-error-text">Échec</text>
        </g>
        <text x="900" y="28" class="text-body">0 crédit</text>
      </g>
      <g transform="translate(0, 190)">
        <rect x="1" y="0" width="1098" height="45" fill="#F9FAFB"/>
        <text x="30" y="28" class="text-body">27/12/2024 15:00</text>
        <text x="200" y="28" class="text-body">+33144556677</text>
        <text x="400" y="28" class="text-body">3</text>
        <text x="500" y="28" class="text-body">-</text>
        <text x="600" y="28" class="text-body">1/3</text>
        <g transform="translate(720, 13)">
          <rect x="0" y="0" width="80" height="24" rx="12" class="badge-warning"/>
          <text x="8" y="16" class="badge-warning-text">En cours</text>
        </g>
        <text x="900" y="28" class="text-muted">-</text>
      </g>
    </g>
  </g>
</svg>
