<?xml version="1.0" encoding="UTF-8"?>
<svg width="1100" height="500" viewBox="0 0 1100 500" fill="none" xmlns="http://www.w3.org/2000/svg">
  <title>Public Cloud - Database Backups</title>
  <rect width="1100" height="500" fill="#F9FAFB"/>
  <g transform="translate(30, 30)"><text x="0" y="0" fill="#1F2937" font-family="system-ui, sans-serif" font-size="22" font-weight="600">Database Backups</text><text x="0" y="30" fill="#6B7280" font-family="system-ui, sans-serif" font-size="13">Sauvegardes automatiques de vos bases de données.</text></g>
  <g transform="translate(30, 90)"><rect x="0" y="0" width="170" height="40" rx="4" fill="#0050D7"/><text x="25" y="26" fill="white" font-family="system-ui, sans-serif" font-size="13">+ Créer backup</text></g>
  <g transform="translate(30, 160)">
    <rect x="0" y="0" width="1040" height="300" rx="8" fill="white" stroke="#E5E7EB"/>
    <g transform="translate(0, 0)"><rect x="0" y="0" width="1040" height="45" rx="8" fill="#F9FAFB"/><text x="20" y="28" fill="#6B7280" font-family="system-ui, sans-serif" font-size="12" font-weight="500">Nom</text><text x="200" y="28" fill="#6B7280" font-family="system-ui, sans-serif" font-size="12" font-weight="500">Base de données</text><text x="400" y="28" fill="#6B7280" font-family="system-ui, sans-serif" font-size="12" font-weight="500">Type</text><text x="520" y="28" fill="#6B7280" font-family="system-ui, sans-serif" font-size="12" font-weight="500">Taille</text><text x="620" y="28" fill="#6B7280" font-family="system-ui, sans-serif" font-size="12" font-weight="500">Créé le</text><text x="780" y="28" fill="#6B7280" font-family="system-ui, sans-serif" font-size="12" font-weight="500">État</text><text x="920" y="28" fill="#6B7280" font-family="system-ui, sans-serif" font-size="12" font-weight="500">Actions</text></g>
    <g transform="translate(0, 50)"><line x1="0" y1="0" x2="1040" y2="0" stroke="#E5E7EB"/><text x="20" y="35" fill="#1F2937" font-family="system-ui, sans-serif" font-size="13" font-weight="500">backup-20241229-auto</text><text x="200" y="35" fill="#1F2937" font-family="system-ui, sans-serif" font-size="13">db-production</text><g transform="translate(400, 18)"><rect x="0" y="0" width="70" height="22" rx="4" fill="#EFF6FF"/><text x="8" y="15" fill="#0050D7" font-family="system-ui, sans-serif" font-size="10">Automatique</text></g><text x="520" y="35" fill="#1F2937" font-family="system-ui, sans-serif" font-size="13">2.4 GB</text><text x="620" y="35" fill="#1F2937" font-family="system-ui, sans-serif" font-size="13">29/12/2024 03:00</text><g transform="translate(780, 18)"><rect x="0" y="0" width="80" height="22" rx="4" fill="#DCFCE7"/><text x="15" y="15" fill="#16A34A" font-family="system-ui, sans-serif" font-size="10">Disponible</text></g><g transform="translate(920, 18)"><rect x="0" y="0" width="30" height="30" rx="4" fill="#F9FAFB" stroke="#E5E7EB"/><text x="11" y="22" fill="#6B7280" font-family="system-ui, sans-serif" font-size="14">⋮</text></g></g>
    <g transform="translate(0, 110)"><line x1="0" y1="0" x2="1040" y2="0" stroke="#E5E7EB"/><text x="20" y="35" fill="#1F2937" font-family="system-ui, sans-serif" font-size="13" font-weight="500">backup-20241228-auto</text><text x="200" y="35" fill="#1F2937" font-family="system-ui, sans-serif" font-size="13">db-production</text><g transform="translate(400, 18)"><rect x="0" y="0" width="70" height="22" rx="4" fill="#EFF6FF"/><text x="8" y="15" fill="#0050D7" font-family="system-ui, sans-serif" font-size="10">Automatique</text></g><text x="520" y="35" fill="#1F2937" font-family="system-ui, sans-serif" font-size="13">2.3 GB</text><text x="620" y="35" fill="#1F2937" font-family="system-ui, sans-serif" font-size="13">28/12/2024 03:00</text><g transform="translate(780, 18)"><rect x="0" y="0" width="80" height="22" rx="4" fill="#DCFCE7"/><text x="15" y="15" fill="#16A34A" font-family="system-ui, sans-serif" font-size="10">Disponible</text></g><g transform="translate(920, 18)"><rect x="0" y="0" width="30" height="30" rx="4" fill="#F9FAFB" stroke="#E5E7EB"/><text x="11" y="22" fill="#6B7280" font-family="system-ui, sans-serif" font-size="14">⋮</text></g></g>
    <g transform="translate(0, 170)"><line x1="0" y1="0" x2="1040" y2="0" stroke="#E5E7EB"/><text x="20" y="35" fill="#1F2937" font-family="system-ui, sans-serif" font-size="13" font-weight="500">backup-before-migration</text><text x="200" y="35" fill="#1F2937" font-family="system-ui, sans-serif" font-size="13">db-legacy</text><g transform="translate(400, 18)"><rect x="0" y="0" width="70" height="22" rx="4" fill="#FEF3C7"/><text x="15" y="15" fill="#92400E" font-family="system-ui, sans-serif" font-size="10">Manuel</text></g><text x="520" y="35" fill="#1F2937" font-family="system-ui, sans-serif" font-size="13">850 MB</text><text x="620" y="35" fill="#1F2937" font-family="system-ui, sans-serif" font-size="13">25/12/2024 14:30</text><g transform="translate(780, 18)"><rect x="0" y="0" width="80" height="22" rx="4" fill="#DCFCE7"/><text x="15" y="15" fill="#16A34A" font-family="system-ui, sans-serif" font-size="10">Disponible</text></g><g transform="translate(920, 18)"><rect x="0" y="0" width="30" height="30" rx="4" fill="#F9FAFB" stroke="#E5E7EB"/><text x="11" y="22" fill="#6B7280" font-family="system-ui, sans-serif" font-size="14">⋮</text></g></g>
    <g transform="translate(0, 230)"><line x1="0" y1="0" x2="1040" y2="0" stroke="#E5E7EB"/><text x="20" y="35" fill="#1F2937" font-family="system-ui, sans-serif" font-size="13" font-weight="500">backup-cache-redis</text><text x="200" y="35" fill="#1F2937" font-family="system-ui, sans-serif" font-size="13">cache-redis</text><g transform="translate(400, 18)"><rect x="0" y="0" width="70" height="22" rx="4" fill="#FEF3C7"/><text x="15" y="15" fill="#92400E" font-family="system-ui, sans-serif" font-size="10">Manuel</text></g><text x="520" y="35" fill="#1F2937" font-family="system-ui, sans-serif" font-size="13">120 MB</text><text x="620" y="35" fill="#1F2937" font-family="system-ui, sans-serif" font-size="13">20/12/2024 10:15</text><g transform="translate(780, 18)"><rect x="0" y="0" width="80" height="22" rx="4" fill="#DCFCE7"/><text x="15" y="15" fill="#16A34A" font-family="system-ui, sans-serif" font-size="10">Disponible</text></g><g transform="translate(920, 18)"><rect x="0" y="0" width="30" height="30" rx="4" fill="#F9FAFB" stroke="#E5E7EB"/><text x="11" y="22" fill="#6B7280" font-family="system-ui, sans-serif" font-size="14">⋮</text></g></g>
  </g>
</svg>
