<svg xmlns="http://www.w3.org/2000/svg" viewBox="0 0 1440 1000" width="1440" height="1000">
  <defs>
    <style>
      .bg-muted { fill: #F9FAFB; }
      .bg-white { fill: #FFFFFF; }
      .bg-header { fill: #000E9C; }
      .bg-primary { fill: #0050D7; }
      .bg-primary-light { fill: #E8F0FE; }
      .bg-neutral { fill: #F3F4F6; }
      .text-primary { fill: #0050D7; font-family: 'Source Sans Pro', sans-serif; }
      .text-body { fill: #1F2937; font-family: 'Source Sans Pro', sans-serif; font-size: 14px; }
      .text-muted { fill: #6B7280; font-family: 'Source Sans Pro', sans-serif; font-size: 14px; }
      .text-white { fill: #FFFFFF; font-family: 'Source Sans Pro', sans-serif; }
      .text-heading { fill: #1F2937; font-family: 'Source Sans Pro', sans-serif; font-size: 24px; font-weight: 600; }
      .text-section { fill: #1F2937; font-family: 'Source Sans Pro', sans-serif; font-size: 18px; font-weight: 600; }
      .text-service-type { fill: #1F2937; font-family: 'Source Sans Pro', sans-serif; font-size: 14px; font-weight: 600; }
      .border { stroke: #E5E7EB; stroke-width: 1; fill: none; }
      .panel { fill: #FFFFFF; stroke: #E5E7EB; stroke-width: 1; }
      .service-item { fill: #FFFFFF; }
      .service-item-selected { fill: #E8F0FE; }
      .btn-arrow { fill: #0050D7; }
    </style>
  </defs>
  
  <!-- Background -->
  <rect width="1440" height="1000" class="bg-muted"/>
  
  <!-- Header OVH -->
  <rect width="1440" height="60" class="bg-header"/>
  <text x="80" y="38" class="text-white" font-size="20" font-weight="bold">OVHcloud</text>
  <text x="840" y="38" class="text-white" font-size="14" font-weight="600">Network</text>
  
  <!-- Sidebar -->
  <rect x="0" y="60" width="240" height="940" class="bg-white"/>
  <rect x="239" y="60" width="1" height="940" fill="#E5E7EB"/>
  <rect x="0" y="142" width="240" height="40" class="bg-primary-light"/>
  <rect x="0" y="142" width="4" height="40" class="bg-primary"/>
  <text x="20" y="168" class="text-primary" font-size="14" font-weight="500">vRack</text>
  
  <!-- Main Content -->
  <g transform="translate(240, 60)">
    <!-- Header with editable name -->
    <g transform="translate(40, 30)">
      <text x="0" y="25" class="text-heading">vRack Production</text>
      <text x="220" y="25" class="text-primary" font-size="14">✏️</text>
      <text x="0" y="50" class="text-muted">pn-123456</text>
      <rect x="900" y="0" width="100" height="36" rx="4" fill="#FFFFFF" stroke="#D1D5DB"/>
      <text x="925" y="23" class="text-body">📖 Guides</text>
    </g>
    
    <!-- Description section -->
    <g transform="translate(40, 110)">
      <text x="0" y="0" class="text-section">Description de votre vRack</text>
      <text x="0" y="30" class="text-body">Infrastructure de production pour les services web et API.</text>
      <text x="420" y="30" class="text-primary" font-size="14">✏️</text>
    </g>
    
    <!-- Introduction section -->
    <g transform="translate(40, 180)">
      <text x="0" y="0" class="text-section">Composer votre vRack</text>
      <text x="0" y="30" class="text-body">Gérez l'interconnexion privée de tous les composants de votre infrastructure informatique, partout dans le monde.</text>
      <text x="0" y="50" class="text-body">La technologie vRack (baie virtuelle) permet de connecter, isoler ou répartir vos services au sein d'un ou plusieurs</text>
      <text x="0" y="70" class="text-body">réseau privés et sécurisés.</text>
    </g>
    
    <!-- Service Mapper -->
    <g transform="translate(40, 280)">
      <!-- Left Panel - Eligible Services -->
      <g>
        <rect x="0" y="0" width="450" height="500" rx="8" class="panel"/>
        <text x="20" y="35" class="text-section">Vos services éligibles</text>
        
        <!-- Service Types -->
        <g transform="translate(20, 60)">
          <!-- Serveur dédié -->
          <g transform="translate(0, 0)">
            <text x="0" y="15" class="text-service-type">🖥️ Serveur dédié</text>
            <g transform="translate(20, 30)">
              <rect x="0" y="0" width="390" height="35" rx="4" class="service-item-selected"/>
              <text x="15" y="23" class="text-body">ns123456.ip-12-34-56.eu</text>
            </g>
            <g transform="translate(20, 70)">
              <rect x="0" y="0" width="390" height="35" rx="4" class="service-item"/>
              <text x="15" y="23" class="text-body">ns789012.ip-98-76-54.eu</text>
            </g>
          </g>
          
          <!-- Projet Cloud -->
          <g transform="translate(0, 130)">
            <text x="0" y="15" class="text-service-type">☁️ Projet Cloud</text>
            <g transform="translate(20, 30)">
              <rect x="0" y="0" width="390" height="35" rx="4" class="service-item"/>
              <text x="15" y="23" class="text-body">projet-staging-2024</text>
            </g>
          </g>
          
          <!-- Load Balancer -->
          <g transform="translate(0, 210)">
            <text x="0" y="15" class="text-service-type">⚖️ Load Balancer</text>
            <g transform="translate(20, 30)">
              <rect x="0" y="0" width="390" height="35" rx="4" class="service-item"/>
              <text x="15" y="23" class="text-body">loadbalancer-abc123</text>
            </g>
          </g>
          
          <!-- IP -->
          <g transform="translate(0, 290)">
            <text x="0" y="15" class="text-service-type">🌐 IP</text>
            <g transform="translate(20, 30)">
              <rect x="0" y="0" width="390" height="35" rx="4" class="service-item"/>
              <text x="15" y="23" class="text-body">192.168.0.0/24</text>
            </g>
          </g>
        </g>
      </g>
      
      <!-- Center Arrows -->
      <g transform="translate(470, 200)">
        <rect x="0" y="0" width="60" height="40" rx="4" class="btn-arrow"/>
        <text x="18" y="27" class="text-white" font-size="16">→</text>
        
        <rect x="0" y="60" width="60" height="40" rx="4" fill="#FFFFFF" stroke="#0050D7"/>
        <text x="18" y="87" class="text-primary" font-size="16">←</text>
      </g>
      
      <!-- Right Panel - vRack Content -->
      <g transform="translate(550, 0)">
        <rect x="0" y="0" width="450" height="500" rx="8" class="panel"/>
        <text x="20" y="35" class="text-section">Votre vRack</text>
        
        <!-- Services in vRack -->
        <g transform="translate(20, 60)">
          <!-- Serveur dédié -->
          <g transform="translate(0, 0)">
            <text x="0" y="15" class="text-service-type">🖥️ Serveur dédié</text>
            <g transform="translate(20, 30)">
              <rect x="0" y="0" width="390" height="35" rx="4" class="service-item"/>
              <text x="15" y="23" class="text-body">ns456789.ip-11-22-33.eu</text>
            </g>
          </g>
          
          <!-- Hosted Private Cloud -->
          <g transform="translate(0, 90)">
            <text x="0" y="15" class="text-service-type">🏢 Hosted Private Cloud</text>
            <g transform="translate(20, 30)">
              <rect x="0" y="0" width="390" height="35" rx="4" class="service-item"/>
              <text x="15" y="23" class="text-body">pcc-123-456-789</text>
            </g>
          </g>
          
          <!-- vRack Services -->
          <g transform="translate(0, 170)">
            <text x="0" y="15" class="text-service-type">🔗 vRack Services</text>
            <g transform="translate(20, 30)">
              <rect x="0" y="0" width="390" height="35" rx="4" class="service-item"/>
              <text x="15" y="23" class="text-body">vs-production-01</text>
            </g>
          </g>
        </g>
      </g>
    </g>
    
    <!-- Terminate section -->
    <g transform="translate(40, 820)">
      <text x="0" y="0" class="text-section">Résilier mon vRack</text>
      <text x="0" y="30" class="text-body">Afin de résilier votre vRack vous devez au préalable déconnecter tous les services qui y sont rattachés</text>
      <text x="0" y="60" class="text-primary" font-size="14" text-decoration="underline">Résilier</text>
    </g>
  </g>
</svg>
