<svg xmlns="http://www.w3.org/2000/svg" viewBox="0 0 1440 850" width="1440" height="850">
  <defs>
    <style>
      .bg-muted { fill: #F9FAFB; }
      .bg-white { fill: #FFFFFF; }
      .bg-header { fill: #000E9C; }
      .bg-primary { fill: #0050D7; }
      .text-body { font-family: 'Source Sans Pro', sans-serif; font-size: 14px; fill: #1F2937; }
      .text-muted { font-family: 'Source Sans Pro', sans-serif; font-size: 14px; fill: #6B7280; }
      .text-title { font-family: 'Source Sans Pro', sans-serif; font-size: 24px; font-weight: 600; fill: #1F2937; }
      .text-subtitle { font-family: 'Source Sans Pro', sans-serif; font-size: 18px; font-weight: 600; fill: #1F2937; }
      .text-white { font-family: 'Source Sans Pro', sans-serif; font-size: 14px; fill: #FFFFFF; }
      .text-link { font-family: 'Source Sans Pro', sans-serif; font-size: 14px; fill: #0050D7; }
      .tile { fill: #FFFFFF; stroke: #E5E7EB; stroke-width: 1; }
      .table-header { fill: #F3F4F6; }
      .table-row { fill: #FFFFFF; }
    </style>
  </defs>
  
  <!-- Background -->
  <rect width="1440" height="850" class="bg-muted"/>
  
  <!-- Header OVH -->
  <rect width="1440" height="60" class="bg-header"/>
  <text x="20" y="38" class="text-white" font-size="20" font-weight="bold">OVHcloud</text>
  <text x="150" y="38" class="text-white">Télécom</text>
  
  <!-- Sidebar -->
  <rect x="0" y="60" width="240" height="790" class="bg-white"/>
  <line x1="240" y1="60" x2="240" y2="850" stroke="#E5E7EB"/>
  
  <text x="20" y="100" class="text-muted" font-size="12">COMMANDES</text>
  <rect x="0" y="110" width="240" height="36" fill="#E8F0FE"/>
  <text x="20" y="134" class="text-link" font-weight="600">Suivi de commandes</text>
  
  <text x="20" y="175" class="text-body">Commander</text>
  <text x="30" y="205" class="text-muted" font-size="13">Accessoires</text>
  <text x="30" y="230" class="text-muted" font-size="13">Numéros</text>
  
  <!-- Main Content -->
  <g transform="translate(280, 80)">
    <!-- Title -->
    <text x="0" y="20" class="text-title">Suivi de commandes</text>
    <text x="0" y="50" class="text-muted">Mes commandes internet</text>
    
    <!-- Actions bar -->
    <g transform="translate(0, 70)">
      <rect x="0" y="0" width="900" height="60" rx="8" class="tile"/>
      
      <rect x="20" y="12" width="200" height="36" rx="4" class="bg-primary"/>
      <text x="50" y="36" class="text-white">Commander un pack xDSL</text>
      
      <text x="700" y="36" class="text-muted">Items par page:</text>
      <rect x="800" y="12" width="80" height="36" rx="4" stroke="#E5E7EB" fill="#FFFFFF"/>
      <text x="830" y="36" class="text-body">10 ▼</text>
    </g>
    
    <!-- Table -->
    <rect x="0" y="150" width="900" height="450" rx="8" class="tile"/>
    
    <!-- Table header -->
    <rect x="20" y="170" width="860" height="40" rx="4" class="table-header"/>
    <text x="40" y="196" class="text-body" font-weight="600">Type</text>
    <text x="180" y="196" class="text-body" font-weight="600">Identifiant service</text>
    <text x="400" y="196" class="text-body" font-weight="600">Statut</text>
    <text x="550" y="196" class="text-body" font-weight="600">Étape</text>
    <text x="720" y="196" class="text-body" font-weight="600">État</text>
    
    <!-- Table rows -->
    <rect x="20" y="215" width="860" height="50" class="table-row"/>
    <line x1="20" y1="265" x2="880" y2="265" stroke="#E5E7EB"/>
    <text x="40" y="245" class="text-body">Accès VDSL</text>
    <text x="180" y="245" class="text-link">pack-vdsl-ab12345</text>
    <rect x="400" y="230" width="100" height="24" rx="4" fill="#DEF7EC"/>
    <text x="420" y="247" fill="#03543F" font-size="12">En cours</text>
    <text x="550" y="245" class="text-body">Livraison modem</text>
    <rect x="720" y="230" width="80" height="24" rx="4" fill="#DBEAFE"/>
    <text x="735" y="247" fill="#1E40AF" font-size="12">Actif</text>
    
    <rect x="20" y="265" width="860" height="50" class="table-row"/>
    <line x1="20" y1="315" x2="880" y2="315" stroke="#E5E7EB"/>
    <text x="40" y="295" class="text-body">Accès Fibre</text>
    <text x="180" y="295" class="text-link">pack-ftth-cd67890</text>
    <rect x="400" y="280" width="100" height="24" rx="4" fill="#FEF3C7"/>
    <text x="415" y="297" fill="#92400E" font-size="12">En attente</text>
    <text x="550" y="295" class="text-body">Prise de RDV</text>
    <rect x="720" y="280" width="80" height="24" rx="4" fill="#FEF3C7"/>
    <text x="730" y="297" fill="#92400E" font-size="12">Pending</text>
    
    <rect x="20" y="315" width="860" height="50" class="table-row"/>
    <line x1="20" y1="365" x2="880" y2="365" stroke="#E5E7EB"/>
    <text x="40" y="345" class="text-body">Accès ADSL</text>
    <text x="180" y="345" class="text-link">pack-adsl-ef11223</text>
    <rect x="400" y="330" width="100" height="24" rx="4" fill="#DEF7EC"/>
    <text x="420" y="347" fill="#03543F" font-size="12">Terminé</text>
    <text x="550" y="345" class="text-body">Activé</text>
    <rect x="720" y="330" width="80" height="24" rx="4" fill="#DEF7EC"/>
    <text x="735" y="347" fill="#03543F" font-size="12">Actif</text>
    
    <rect x="20" y="365" width="860" height="50" class="table-row"/>
    <text x="40" y="395" class="text-body">Accès SDSL</text>
    <text x="180" y="395" class="text-link">pack-sdsl-gh44556</text>
    <rect x="400" y="380" width="100" height="24" rx="4" fill="#FEE2E2"/>
    <text x="420" y="397" fill="#991B1B" font-size="12">Annulé</text>
    <text x="550" y="395" class="text-body">-</text>
    <rect x="720" y="380" width="80" height="24" rx="4" fill="#E5E7EB"/>
    <text x="735" y="397" class="text-muted" font-size="12">Inactif</text>
    
    <!-- Pagination -->
    <text x="350" y="560" class="text-muted">Affichage 1-4 sur 4 commandes</text>
  </g>
</svg>
