<?xml version="1.0" encoding="UTF-8"?>
<svg width="1100" height="550" viewBox="0 0 1100 550" fill="none" xmlns="http://www.w3.org/2000/svg">
  <title>IAM - Policies List</title>
  <rect width="1100" height="550" fill="#F9FAFB"/>
  <g transform="translate(30, 30)"><text x="0" y="0" fill="#1F2937" font-family="system-ui, sans-serif" font-size="22" font-weight="600">Politiques d'accès</text><text x="0" y="30" fill="#6B7280" font-family="system-ui, sans-serif" font-size="13">Définition des règles et permissions.</text></g>
  <g transform="translate(30, 90)"><rect x="0" y="0" width="160" height="40" rx="4" fill="#0050D7"/><text x="25" y="26" fill="white" font-family="system-ui, sans-serif" font-size="13">+ Créer politique</text></g>
  <g transform="translate(30, 160)">
    <rect x="0" y="0" width="1040" height="360" rx="8" fill="white" stroke="#E5E7EB"/>
    <g transform="translate(0, 0)"><rect x="0" y="0" width="1040" height="45" rx="8" fill="#F9FAFB"/><text x="20" y="28" fill="#6B7280" font-family="system-ui, sans-serif" font-size="12" font-weight="500">Nom</text><text x="250" y="28" fill="#6B7280" font-family="system-ui, sans-serif" font-size="12" font-weight="500">Type</text><text x="380" y="28" fill="#6B7280" font-family="system-ui, sans-serif" font-size="12" font-weight="500">Ressources</text><text x="580" y="28" fill="#6B7280" font-family="system-ui, sans-serif" font-size="12" font-weight="500">Utilisateurs</text><text x="700" y="28" fill="#6B7280" font-family="system-ui, sans-serif" font-size="12" font-weight="500">Dernière modification</text><text x="890" y="28" fill="#6B7280" font-family="system-ui, sans-serif" font-size="12" font-weight="500">État</text><text x="980" y="28" fill="#6B7280" font-family="system-ui, sans-serif" font-size="12" font-weight="500">Actions</text></g>
    <g transform="translate(0, 50)"><line x1="0" y1="0" x2="1040" y2="0" stroke="#E5E7EB"/><text x="20" y="35" fill="#1F2937" font-family="system-ui, sans-serif" font-size="13" font-weight="500">FullAdminAccess</text><g transform="translate(250, 18)"><rect x="0" y="0" width="70" height="22" rx="4" fill="#FEE2E2"/><text x="10" y="15" fill="#DC2626" font-family="system-ui, sans-serif" font-size="10">System</text></g><text x="380" y="35" fill="#1F2937" font-family="system-ui, sans-serif" font-size="13">Toutes ressources</text><text x="580" y="35" fill="#1F2937" font-family="system-ui, sans-serif" font-size="13">2</text><text x="700" y="35" fill="#1F2937" font-family="system-ui, sans-serif" font-size="13">-</text><g transform="translate(890, 18)"><circle cx="6" cy="6" r="6" fill="#16A34A"/><text x="18" y="10" fill="#16A34A" font-family="system-ui, sans-serif" font-size="11">Actif</text></g><g transform="translate(980, 12)"><rect x="0" y="0" width="30" height="30" rx="4" fill="#F9FAFB" stroke="#E5E7EB"/><text x="11" y="22" fill="#6B7280" font-family="system-ui, sans-serif" font-size="14">⋮</text></g></g>
    <g transform="translate(0, 110)"><line x1="0" y1="0" x2="1040" y2="0" stroke="#E5E7EB"/><text x="20" y="35" fill="#1F2937" font-family="system-ui, sans-serif" font-size="13" font-weight="500">ComputeReadOnly</text><g transform="translate(250, 18)"><rect x="0" y="0" width="70" height="22" rx="4" fill="#DCFCE7"/><text x="10" y="15" fill="#16A34A" font-family="system-ui, sans-serif" font-size="10">Custom</text></g><text x="380" y="35" fill="#1F2937" font-family="system-ui, sans-serif" font-size="13">publicCloud:instance:*</text><text x="580" y="35" fill="#1F2937" font-family="system-ui, sans-serif" font-size="13">5</text><text x="700" y="35" fill="#1F2937" font-family="system-ui, sans-serif" font-size="13">28/12/2024</text><g transform="translate(890, 18)"><circle cx="6" cy="6" r="6" fill="#16A34A"/><text x="18" y="10" fill="#16A34A" font-family="system-ui, sans-serif" font-size="11">Actif</text></g><g transform="translate(980, 12)"><rect x="0" y="0" width="30" height="30" rx="4" fill="#F9FAFB" stroke="#E5E7EB"/><text x="11" y="22" fill="#6B7280" font-family="system-ui, sans-serif" font-size="14">⋮</text></g></g>
    <g transform="translate(0, 170)"><line x1="0" y1="0" x2="1040" y2="0" stroke="#E5E7EB"/><text x="20" y="35" fill="#1F2937" font-family="system-ui, sans-serif" font-size="13" font-weight="500">DNSManagement</text><g transform="translate(250, 18)"><rect x="0" y="0" width="70" height="22" rx="4" fill="#DCFCE7"/><text x="10" y="15" fill="#16A34A" font-family="system-ui, sans-serif" font-size="10">Custom</text></g><text x="380" y="35" fill="#1F2937" font-family="system-ui, sans-serif" font-size="13">domain:zone:*</text><text x="580" y="35" fill="#1F2937" font-family="system-ui, sans-serif" font-size="13">3</text><text x="700" y="35" fill="#1F2937" font-family="system-ui, sans-serif" font-size="13">27/12/2024</text><g transform="translate(890, 18)"><circle cx="6" cy="6" r="6" fill="#16A34A"/><text x="18" y="10" fill="#16A34A" font-family="system-ui, sans-serif" font-size="11">Actif</text></g><g transform="translate(980, 12)"><rect x="0" y="0" width="30" height="30" rx="4" fill="#F9FAFB" stroke="#E5E7EB"/><text x="11" y="22" fill="#6B7280" font-family="system-ui, sans-serif" font-size="14">⋮</text></g></g>
    <g transform="translate(0, 230)"><line x1="0" y1="0" x2="1040" y2="0" stroke="#E5E7EB"/><text x="20" y="35" fill="#1F2937" font-family="system-ui, sans-serif" font-size="13" font-weight="500">BillingViewer</text><g transform="translate(250, 18)"><rect x="0" y="0" width="70" height="22" rx="4" fill="#DBEAFE"/><text x="10" y="15" fill="#1E40AF" font-family="system-ui, sans-serif" font-size="10">Template</text></g><text x="380" y="35" fill="#1F2937" font-family="system-ui, sans-serif" font-size="13">billing:*:read</text><text x="580" y="35" fill="#1F2937" font-family="system-ui, sans-serif" font-size="13">8</text><text x="700" y="35" fill="#1F2937" font-family="system-ui, sans-serif" font-size="13">20/12/2024</text><g transform="translate(890, 18)"><circle cx="6" cy="6" r="6" fill="#16A34A"/><text x="18" y="10" fill="#16A34A" font-family="system-ui, sans-serif" font-size="11">Actif</text></g><g transform="translate(980, 12)"><rect x="0" y="0" width="30" height="30" rx="4" fill="#F9FAFB" stroke="#E5E7EB"/><text x="11" y="22" fill="#6B7280" font-family="system-ui, sans-serif" font-size="14">⋮</text></g></g>
  </g>
</svg>
