<svg xmlns="http://www.w3.org/2000/svg" viewBox="0 0 1440 900" width="1440" height="900">
  <defs>
    <style>
      .bg-header { fill: #000E9C; }
      .bg-main { fill: #F6F6F9; }
      .bg-white { fill: #FFFFFF; }
      .bg-primary { fill: #0050D7; }
      .bg-success { fill: #DEF7EC; }
      .bg-info { fill: #DBEAFE; }
      .table-header { fill: #F9FAFB; }
      .border { stroke: #E5E7EB; stroke-width: 1; fill: none; }
      .divider { stroke: #E5E7EB; stroke-width: 1; }
      .text-white { fill: #FFFFFF; font-family: 'Source Sans Pro', sans-serif; }
      .text-dark { fill: #1F2937; font-family: 'Source Sans Pro', sans-serif; }
      .text-muted { fill: #6B7280; font-family: 'Source Sans Pro', sans-serif; }
      .text-primary { fill: #0050D7; font-family: 'Source Sans Pro', sans-serif; }
      .text-success { fill: #059669; font-family: 'Source Sans Pro', sans-serif; }
      .text-info { fill: #1E40AF; font-family: 'Source Sans Pro', sans-serif; }
    </style>
  </defs>

  <!-- Background -->
  <rect width="1440" height="900" class="bg-main"/>

  <!-- NAV1 -->
  <rect width="1440" height="50" class="bg-header"/>
  <text x="680" y="32" class="text-white" font-size="14" font-weight="600">IAM / Sécurité</text>
  <rect x="675" y="46" width="95" height="3" fill="#FFFFFF"/>

  <!-- NAV2 -->
  <rect x="0" y="50" width="1440" height="40" class="bg-white"/>
  <line x1="0" y1="89" x2="1440" y2="89" class="divider"/>

  <!-- CONTENT -->
  <g transform="translate(24, 105)">
    <!-- Main Card -->
    <rect x="0" y="0" width="1392" height="765" rx="8" class="bg-white"/>
    <rect x="0" y="0" width="1392" height="765" rx="8" class="border"/>

    <g transform="translate(24, 24)">
      <!-- Header -->
      <text x="0" y="28" class="text-dark" font-size="22" font-weight="600">Identités</text>

      <!-- Guide button -->
      <rect x="1200" y="8" width="120" height="32" rx="4" stroke="#0050D7" fill="#FFFFFF"/>
      <text x="1230" y="29" class="text-primary" font-size="12">Guides</text>
      <text x="1295" y="29" class="text-muted" font-size="12">▼</text>

      <!-- NAV4 Tabs -->
      <g transform="translate(0, 60)">
        <rect x="0" y="0" width="140" height="40" fill="#FFFFFF"/>
        <text x="20" y="26" class="text-primary" font-size="14" font-weight="600">Utilisateurs locaux</text>
        <rect x="0" y="38" width="140" height="3" fill="#0050D7"/>

        <rect x="140" y="0" width="160" height="40" fill="#FFFFFF"/>
        <text x="160" y="26" class="text-muted" font-size="14">Groupes d'utilisateurs</text>

        <rect x="300" y="0" width="80" height="40" fill="#FFFFFF"/>
        <text x="320" y="26" class="text-muted" font-size="14">SSO</text>

        <line x1="0" y1="40" x2="1344" y2="40" class="divider"/>
      </g>

      <!-- Users datagrid -->
      <g transform="translate(0, 120)">
        <!-- Topbar -->
        <rect x="0" y="0" width="160" height="36" rx="4" class="bg-primary"/>
        <text x="25" y="24" class="text-white" font-size="12">+ Créer un utilisateur</text>

        <!-- Table -->
        <g transform="translate(0, 50)">
          <rect x="0" y="0" width="1344" height="36" class="table-header"/>
          <text x="16" y="23" class="text-dark" font-size="11" font-weight="600">Login</text>
          <text x="200" y="23" class="text-dark" font-size="11" font-weight="600">E-mail</text>
          <text x="450" y="23" class="text-dark" font-size="11" font-weight="600">Groupe</text>
          <text x="600" y="23" class="text-dark" font-size="11" font-weight="600">Statut</text>
          <text x="750" y="23" class="text-dark" font-size="11" font-weight="600">Dernière connexion</text>
          <text x="1300" y="23" class="text-dark" font-size="11" font-weight="600">⋮</text>
          <line x1="0" y1="36" x2="1344" y2="36" class="divider"/>

          <!-- Row 1 -->
          <text x="16" y="62" class="text-primary" font-size="11">admin-user</text>
          <text x="200" y="62" class="text-dark" font-size="11">admin@example.com</text>
          <text x="450" y="62" class="text-dark" font-size="11">ADMIN</text>
          <rect x="600" y="48" width="40" height="20" rx="10" class="bg-success"/>
          <text x="610" y="62" class="text-success" font-size="9">OK</text>
          <text x="750" y="62" class="text-muted" font-size="11">02/01/2026 14:32</text>
          <text x="1300" y="62" class="text-primary" font-size="14">⋮</text>
          <line x1="0" y1="76" x2="1344" y2="76" class="divider"/>

          <!-- Row 2 -->
          <text x="16" y="102" class="text-primary" font-size="11">developer-1</text>
          <text x="200" y="102" class="text-dark" font-size="11">dev1@example.com</text>
          <text x="450" y="102" class="text-dark" font-size="11">DEFAULT</text>
          <rect x="600" y="88" width="40" height="20" rx="10" class="bg-success"/>
          <text x="610" y="102" class="text-success" font-size="9">OK</text>
          <text x="750" y="102" class="text-muted" font-size="11">01/01/2026 09:15</text>
          <text x="1300" y="102" class="text-primary" font-size="14">⋮</text>
          <line x1="0" y1="116" x2="1344" y2="116" class="divider"/>

          <!-- Row 3 -->
          <text x="16" y="142" class="text-primary" font-size="11">operator</text>
          <text x="200" y="142" class="text-dark" font-size="11">operator@example.com</text>
          <text x="450" y="142" class="text-dark" font-size="11">DEFAULT</text>
          <rect x="600" y="128" width="40" height="20" rx="10" class="bg-success"/>
          <text x="610" y="142" class="text-success" font-size="9">OK</text>
          <text x="750" y="142" class="text-muted" font-size="11">31/12/2025 16:45</text>
          <text x="1300" y="142" class="text-primary" font-size="14">⋮</text>
          <line x1="0" y1="156" x2="1344" y2="156" class="divider"/>

          <!-- Row 4 -->
          <text x="16" y="182" class="text-primary" font-size="11">support-user</text>
          <text x="200" y="182" class="text-dark" font-size="11">support@example.com</text>
          <text x="450" y="182" class="text-dark" font-size="11">REGULAR</text>
          <rect x="600" y="168" width="65" height="20" rx="10" fill="#FEE2E2"/>
          <text x="610" y="182" fill="#DC2626" font-size="9">DISABLED</text>
          <text x="750" y="182" class="text-muted" font-size="11">-</text>
          <text x="1300" y="182" class="text-primary" font-size="14">⋮</text>
          <line x1="0" y1="196" x2="1344" y2="196" class="divider"/>
        </g>

        <!-- Pagination -->
        <g transform="translate(0, 280)">
          <text x="620" y="16" class="text-muted" font-size="11">◀</text>
          <text x="660" y="16" class="text-dark" font-size="11">1</text>
          <text x="700" y="16" class="text-muted" font-size="11">▶</text>
        </g>
      </g>
    </g>
  </g>
</svg>
