<?xml version="1.0" encoding="UTF-8"?>
<svg width="1100" height="500" viewBox="0 0 1100 500" fill="none" xmlns="http://www.w3.org/2000/svg">
  <title>IAM - Pending Invitations</title>
  <rect width="1100" height="500" fill="#F9FAFB"/>
  <g transform="translate(30, 30)"><text x="0" y="0" fill="#1F2937" font-family="system-ui, sans-serif" font-size="22" font-weight="600">Invitations en attente</text><text x="0" y="30" fill="#6B7280" font-family="system-ui, sans-serif" font-size="13">Gérez les invitations utilisateurs non acceptées.</text></g>
  <g transform="translate(900, 30)"><rect x="0" y="0" width="170" height="40" rx="4" fill="#0050D7"/><text x="35" y="26" fill="white" font-family="system-ui, sans-serif" font-size="13">+ Nouvelle invitation</text></g>
  <g transform="translate(30, 100)">
    <rect x="0" y="0" width="1040" height="380" rx="8" fill="white" stroke="#E5E7EB"/>
    <g transform="translate(0, 0)">
      <rect x="0" y="0" width="1040" height="45" rx="8" fill="#F9FAFB"/>
      <text x="20" y="28" fill="#6B7280" font-family="system-ui, sans-serif" font-size="11" font-weight="600">EMAIL</text>
      <text x="320" y="28" fill="#6B7280" font-family="system-ui, sans-serif" font-size="11" font-weight="600">RÔLE</text>
      <text x="500" y="28" fill="#6B7280" font-family="system-ui, sans-serif" font-size="11" font-weight="600">INVITÉ PAR</text>
      <text x="700" y="28" fill="#6B7280" font-family="system-ui, sans-serif" font-size="11" font-weight="600">EXPIRE</text>
      <text x="850" y="28" fill="#6B7280" font-family="system-ui, sans-serif" font-size="11" font-weight="600">STATUT</text>
      <text x="980" y="28" fill="#6B7280" font-family="system-ui, sans-serif" font-size="11" font-weight="600"></text>
    </g>
    <g transform="translate(0, 55)">
      <text x="20" y="25" fill="#1F2937" font-family="system-ui, sans-serif" font-size="13">alice.dupont@company.com</text>
      <rect x="320" y="8" width="80" height="22" rx="4" fill="#DBEAFE"/><text x="335" y="24" fill="#0050D7" font-family="system-ui, sans-serif" font-size="10">Developer</text>
      <text x="500" y="25" fill="#6B7280" font-family="system-ui, sans-serif" font-size="12">admin@company.com</text>
      <text x="700" y="25" fill="#1F2937" font-family="system-ui, sans-serif" font-size="12">Dans 5 jours</text>
      <rect x="850" y="8" width="80" height="22" rx="4" fill="#FEF3C7"/><text x="862" y="24" fill="#92400E" font-family="system-ui, sans-serif" font-size="10">En attente</text>
      <text x="980" y="23" fill="#0050D7" font-family="system-ui, sans-serif" font-size="12" cursor="pointer">⋮</text>
    </g>
    <line x1="20" y1="95" x2="1020" y2="95" stroke="#E5E7EB"/>
    <g transform="translate(0, 105)">
      <text x="20" y="25" fill="#1F2937" font-family="system-ui, sans-serif" font-size="13">bob.martin@external.org</text>
      <rect x="320" y="8" width="80" height="22" rx="4" fill="#F3E8FF"/><text x="340" y="24" fill="#7C3AED" font-family="system-ui, sans-serif" font-size="10">Viewer</text>
      <text x="500" y="25" fill="#6B7280" font-family="system-ui, sans-serif" font-size="12">tech@company.com</text>
      <text x="700" y="25" fill="#1F2937" font-family="system-ui, sans-serif" font-size="12">Dans 3 jours</text>
      <rect x="850" y="8" width="80" height="22" rx="4" fill="#FEF3C7"/><text x="862" y="24" fill="#92400E" font-family="system-ui, sans-serif" font-size="10">En attente</text>
      <text x="980" y="23" fill="#0050D7" font-family="system-ui, sans-serif" font-size="12" cursor="pointer">⋮</text>
    </g>
    <line x1="20" y1="145" x2="1020" y2="145" stroke="#E5E7EB"/>
    <g transform="translate(0, 155)">
      <text x="20" y="25" fill="#1F2937" font-family="system-ui, sans-serif" font-size="13">carol.wong@partner.co</text>
      <rect x="320" y="8" width="80" height="22" rx="4" fill="#FEE2E2"/><text x="345" y="24" fill="#DC2626" font-family="system-ui, sans-serif" font-size="10">Admin</text>
      <text x="500" y="25" fill="#6B7280" font-family="system-ui, sans-serif" font-size="12">admin@company.com</text>
      <text x="700" y="25" fill="#DC2626" font-family="system-ui, sans-serif" font-size="12">Expiré</text>
      <rect x="850" y="8" width="80" height="22" rx="4" fill="#FEE2E2"/><text x="870" y="24" fill="#DC2626" font-family="system-ui, sans-serif" font-size="10">Expiré</text>
      <text x="980" y="23" fill="#0050D7" font-family="system-ui, sans-serif" font-size="12" cursor="pointer">⋮</text>
    </g>
    <line x1="20" y1="195" x2="1020" y2="195" stroke="#E5E7EB"/>
    <g transform="translate(0, 205)">
      <text x="20" y="25" fill="#1F2937" font-family="system-ui, sans-serif" font-size="13">david.chen@consultant.io</text>
      <rect x="320" y="8" width="80" height="22" rx="4" fill="#DBEAFE"/><text x="335" y="24" fill="#0050D7" font-family="system-ui, sans-serif" font-size="10">Developer</text>
      <text x="500" y="25" fill="#6B7280" font-family="system-ui, sans-serif" font-size="12">cto@company.com</text>
      <text x="700" y="25" fill="#1F2937" font-family="system-ui, sans-serif" font-size="12">Dans 12 jours</text>
      <rect x="850" y="8" width="80" height="22" rx="4" fill="#FEF3C7"/><text x="862" y="24" fill="#92400E" font-family="system-ui, sans-serif" font-size="10">En attente</text>
      <text x="980" y="23" fill="#0050D7" font-family="system-ui, sans-serif" font-size="12" cursor="pointer">⋮</text>
    </g>
    <g transform="translate(0, 280)">
      <rect x="0" y="0" width="1040" height="90" fill="white"/>
      <g transform="translate(420, 20)">
        <text x="100" y="15" fill="#6B7280" font-family="system-ui, sans-serif" font-size="13" text-anchor="middle">4 invitations au total</text>
        <text x="100" y="40" fill="#6B7280" font-family="system-ui, sans-serif" font-size="11" text-anchor="middle">3 en attente • 1 expirée</text>
      </g>
    </g>
  </g>
</svg>
