<?xml version="1.0" encoding="UTF-8"?>
<svg width="1100" height="550" viewBox="0 0 1100 550" fill="none" xmlns="http://www.w3.org/2000/svg">
  <title>IAM - Groups List</title>
  <rect width="1100" height="550" fill="#F9FAFB"/>
  <g transform="translate(30, 30)"><text x="0" y="0" fill="#1F2937" font-family="system-ui, sans-serif" font-size="22" font-weight="600">Groupes</text><text x="0" y="30" fill="#6B7280" font-family="system-ui, sans-serif" font-size="13">Regroupement d'utilisateurs pour une gestion simplifiée.</text></g>
  <g transform="translate(30, 90)"><rect x="0" y="0" width="140" height="40" rx="4" fill="#0050D7"/><text x="25" y="26" fill="white" font-family="system-ui, sans-serif" font-size="13">+ Créer groupe</text></g>
  <g transform="translate(30, 160)">
    <rect x="0" y="0" width="330" height="180" rx="8" fill="white" stroke="#E5E7EB"/>
    <g transform="translate(20, 20)">
      <g transform="translate(0, 0)"><rect x="0" y="0" width="40" height="40" rx="8" fill="#DC2626"/><text x="20" y="27" fill="white" font-family="system-ui, sans-serif" font-size="16" font-weight="600" text-anchor="middle">A</text></g>
      <text x="55" y="18" fill="#1F2937" font-family="system-ui, sans-serif" font-size="15" font-weight="600">Administrators</text>
      <text x="55" y="38" fill="#6B7280" font-family="system-ui, sans-serif" font-size="12">Accès complet au compte</text>
    </g>
    <g transform="translate(20, 80)">
      <text x="0" y="0" fill="#6B7280" font-family="system-ui, sans-serif" font-size="12">Membres</text>
      <text x="80" y="0" fill="#1F2937" font-family="system-ui, sans-serif" font-size="12" font-weight="500">2</text>
      <text x="0" y="25" fill="#6B7280" font-family="system-ui, sans-serif" font-size="12">Politiques</text>
      <text x="80" y="25" fill="#1F2937" font-family="system-ui, sans-serif" font-size="12" font-weight="500">3</text>
    </g>
    <g transform="translate(20, 140)"><rect x="0" y="0" width="100" height="28" rx="4" fill="#0050D7"/><text x="25" y="19" fill="white" font-family="system-ui, sans-serif" font-size="11">Gérer</text></g>
  </g>
  <g transform="translate(380, 160)">
    <rect x="0" y="0" width="330" height="180" rx="8" fill="white" stroke="#E5E7EB"/>
    <g transform="translate(20, 20)">
      <g transform="translate(0, 0)"><rect x="0" y="0" width="40" height="40" rx="8" fill="#7C3AED"/><text x="20" y="27" fill="white" font-family="system-ui, sans-serif" font-size="16" font-weight="600" text-anchor="middle">D</text></g>
      <text x="55" y="18" fill="#1F2937" font-family="system-ui, sans-serif" font-size="15" font-weight="600">Developers</text>
      <text x="55" y="38" fill="#6B7280" font-family="system-ui, sans-serif" font-size="12">Accès aux ressources de dev</text>
    </g>
    <g transform="translate(20, 80)">
      <text x="0" y="0" fill="#6B7280" font-family="system-ui, sans-serif" font-size="12">Membres</text>
      <text x="80" y="0" fill="#1F2937" font-family="system-ui, sans-serif" font-size="12" font-weight="500">5</text>
      <text x="0" y="25" fill="#6B7280" font-family="system-ui, sans-serif" font-size="12">Politiques</text>
      <text x="80" y="25" fill="#1F2937" font-family="system-ui, sans-serif" font-size="12" font-weight="500">4</text>
    </g>
    <g transform="translate(20, 140)"><rect x="0" y="0" width="100" height="28" rx="4" fill="#0050D7"/><text x="25" y="19" fill="white" font-family="system-ui, sans-serif" font-size="11">Gérer</text></g>
  </g>
  <g transform="translate(730, 160)">
    <rect x="0" y="0" width="330" height="180" rx="8" fill="white" stroke="#E5E7EB"/>
    <g transform="translate(20, 20)">
      <g transform="translate(0, 0)"><rect x="0" y="0" width="40" height="40" rx="8" fill="#F59E0B"/><text x="20" y="27" fill="white" font-family="system-ui, sans-serif" font-size="16" font-weight="600" text-anchor="middle">S</text></g>
      <text x="55" y="18" fill="#1F2937" font-family="system-ui, sans-serif" font-size="15" font-weight="600">Support</text>
      <text x="55" y="38" fill="#6B7280" font-family="system-ui, sans-serif" font-size="12">Lecture seule + support</text>
    </g>
    <g transform="translate(20, 80)">
      <text x="0" y="0" fill="#6B7280" font-family="system-ui, sans-serif" font-size="12">Membres</text>
      <text x="80" y="0" fill="#1F2937" font-family="system-ui, sans-serif" font-size="12" font-weight="500">8</text>
      <text x="0" y="25" fill="#6B7280" font-family="system-ui, sans-serif" font-size="12">Politiques</text>
      <text x="80" y="25" fill="#1F2937" font-family="system-ui, sans-serif" font-size="12" font-weight="500">2</text>
    </g>
    <g transform="translate(20, 140)"><rect x="0" y="0" width="100" height="28" rx="4" fill="#0050D7"/><text x="25" y="19" fill="white" font-family="system-ui, sans-serif" font-size="11">Gérer</text></g>
  </g>
  <g transform="translate(30, 370)">
    <rect x="0" y="0" width="330" height="180" rx="8" fill="white" stroke="#E5E7EB"/>
    <g transform="translate(20, 20)">
      <g transform="translate(0, 0)"><rect x="0" y="0" width="40" height="40" rx="8" fill="#16A34A"/><text x="20" y="27" fill="white" font-family="system-ui, sans-serif" font-size="16" font-weight="600" text-anchor="middle">B</text></g>
      <text x="55" y="18" fill="#1F2937" font-family="system-ui, sans-serif" font-size="15" font-weight="600">Billing</text>
      <text x="55" y="38" fill="#6B7280" font-family="system-ui, sans-serif" font-size="12">Accès facturation uniquement</text>
    </g>
    <g transform="translate(20, 80)">
      <text x="0" y="0" fill="#6B7280" font-family="system-ui, sans-serif" font-size="12">Membres</text>
      <text x="80" y="0" fill="#1F2937" font-family="system-ui, sans-serif" font-size="12" font-weight="500">3</text>
      <text x="0" y="25" fill="#6B7280" font-family="system-ui, sans-serif" font-size="12">Politiques</text>
      <text x="80" y="25" fill="#1F2937" font-family="system-ui, sans-serif" font-size="12" font-weight="500">1</text>
    </g>
    <g transform="translate(20, 140)"><rect x="0" y="0" width="100" height="28" rx="4" fill="#0050D7"/><text x="25" y="19" fill="white" font-family="system-ui, sans-serif" font-size="11">Gérer</text></g>
  </g>
</svg>
