<?xml version="1.0" encoding="UTF-8"?>
<svg width="1100" height="550" viewBox="0 0 1100 550" fill="none" xmlns="http://www.w3.org/2000/svg">
  <title>IAM - Policy Version History</title>
  <rect width="1100" height="550" fill="#F9FAFB"/>
  <g transform="translate(30, 30)">
    <text x="0" y="0" fill="#6B7280" font-family="system-ui, sans-serif" font-size="12">← Retour aux politiques</text>
  </g>
  <g transform="translate(30, 55)">
    <text x="0" y="0" fill="#1F2937" font-family="system-ui, sans-serif" font-size="20" font-weight="600">Public Cloud Full Access</text>
    <text x="0" y="25" fill="#6B7280" font-family="system-ui, sans-serif" font-size="13">Historique des versions</text>
  </g>
  <g transform="translate(30, 120)">
    <rect x="0" y="0" width="700" height="400" rx="8" fill="white" stroke="#E5E7EB"/>
    <g transform="translate(0, 0)">
      <rect x="0" y="0" width="700" height="45" rx="8" fill="#F9FAFB"/>
      <text x="20" y="28" fill="#6B7280" font-family="system-ui, sans-serif" font-size="11" font-weight="600">VERSION</text>
      <text x="120" y="28" fill="#6B7280" font-family="system-ui, sans-serif" font-size="11" font-weight="600">DATE</text>
      <text x="300" y="28" fill="#6B7280" font-family="system-ui, sans-serif" font-size="11" font-weight="600">MODIFIÉ PAR</text>
      <text x="500" y="28" fill="#6B7280" font-family="system-ui, sans-serif" font-size="11" font-weight="600">CHANGEMENT</text>
      <text x="650" y="28" fill="#6B7280" font-family="system-ui, sans-serif" font-size="11" font-weight="600"></text>
    </g>
    <g transform="translate(0, 55)">
      <rect x="20" y="5" width="60" height="22" rx="4" fill="#DCFCE7"/><text x="35" y="21" fill="#16A34A" font-family="system-ui, sans-serif" font-size="10" font-weight="500">v3 (actif)</text>
      <text x="120" y="25" fill="#1F2937" font-family="system-ui, sans-serif" font-size="12">28 déc. 2024 14:32</text>
      <text x="300" y="25" fill="#6B7280" font-family="system-ui, sans-serif" font-size="12">admin@company.com</text>
      <text x="500" y="25" fill="#6B7280" font-family="system-ui, sans-serif" font-size="12">+2 permissions</text>
      <text x="650" y="23" fill="#0050D7" font-family="system-ui, sans-serif" font-size="12" cursor="pointer">Voir</text>
    </g>
    <line x1="20" y1="90" x2="680" y2="90" stroke="#E5E7EB"/>
    <g transform="translate(0, 100)">
      <rect x="20" y="5" width="40" height="22" rx="4" fill="#F9FAFB" stroke="#E5E7EB"/><text x="32" y="21" fill="#6B7280" font-family="system-ui, sans-serif" font-size="10" font-weight="500">v2</text>
      <text x="120" y="25" fill="#1F2937" font-family="system-ui, sans-serif" font-size="12">15 nov. 2024 10:15</text>
      <text x="300" y="25" fill="#6B7280" font-family="system-ui, sans-serif" font-size="12">tech@company.com</text>
      <text x="500" y="25" fill="#6B7280" font-family="system-ui, sans-serif" font-size="12">-1 permission</text>
      <text x="650" y="23" fill="#0050D7" font-family="system-ui, sans-serif" font-size="12" cursor="pointer">Voir</text>
    </g>
    <line x1="20" y1="135" x2="680" y2="135" stroke="#E5E7EB"/>
    <g transform="translate(0, 145)">
      <rect x="20" y="5" width="40" height="22" rx="4" fill="#F9FAFB" stroke="#E5E7EB"/><text x="32" y="21" fill="#6B7280" font-family="system-ui, sans-serif" font-size="10" font-weight="500">v1</text>
      <text x="120" y="25" fill="#1F2937" font-family="system-ui, sans-serif" font-size="12">15 oct. 2024 09:00</text>
      <text x="300" y="25" fill="#6B7280" font-family="system-ui, sans-serif" font-size="12">admin@company.com</text>
      <text x="500" y="25" fill="#6B7280" font-family="system-ui, sans-serif" font-size="12">Création initiale</text>
      <text x="650" y="23" fill="#0050D7" font-family="system-ui, sans-serif" font-size="12" cursor="pointer">Voir</text>
    </g>
  </g>
  <g transform="translate(750, 120)">
    <rect x="0" y="0" width="320" height="400" rx="8" fill="white" stroke="#E5E7EB"/>
    <text x="20" y="30" fill="#1F2937" font-family="system-ui, sans-serif" font-size="14" font-weight="600">Version v3 (actuelle)</text>
    <g transform="translate(20, 55)">
      <rect x="0" y="0" width="280" height="300" rx="4" fill="#1F2937"/>
      <text x="15" y="25" fill="#10B981" font-family="monospace" font-size="10">{</text>
      <text x="25" y="45" fill="#F9FAFB" font-family="monospace" font-size="10">"name": "Public Cloud Full",</text>
      <text x="25" y="65" fill="#F9FAFB" font-family="monospace" font-size="10">"permissions": [</text>
      <text x="35" y="85" fill="#F9FAFB" font-family="monospace" font-size="10">"publicCloud:*:*",</text>
      <text x="35" y="105" fill="#10B981" font-family="monospace" font-size="10">+ "publicCloud:ai:*",</text>
      <text x="35" y="125" fill="#10B981" font-family="monospace" font-size="10">+ "publicCloud:data:*"</text>
      <text x="25" y="145" fill="#F9FAFB" font-family="monospace" font-size="10">],</text>
      <text x="25" y="165" fill="#F9FAFB" font-family="monospace" font-size="10">"effect": "allow"</text>
      <text x="15" y="185" fill="#10B981" font-family="monospace" font-size="10">}</text>
    </g>
    <g transform="translate(20, 365)"><rect x="0" y="0" width="130" height="28" rx="4" fill="white" stroke="#E5E7EB"/><text x="25" y="19" fill="#6B7280" font-family="system-ui, sans-serif" font-size="11">Restaurer v2</text></g>
  </g>
</svg>
