<?xml version="1.0" encoding="UTF-8"?>
<svg width="650" height="600" viewBox="0 0 650 600" fill="none" xmlns="http://www.w3.org/2000/svg">
  <title>Licence - Order Plesk Licence Modal</title>
  <rect width="650" height="600" fill="black" fill-opacity="0.5"/>
  <rect x="50" y="20" width="550" height="560" rx="8" fill="white"/>
  <g transform="translate(50, 20)"><rect x="0" y="0" width="550" height="55" rx="8" fill="#F9FAFB"/><text x="25" y="35" fill="#1F2937" font-family="system-ui, sans-serif" font-size="16" font-weight="600">Commander une licence Plesk</text><text x="520" y="35" fill="#6B7280" font-family="system-ui, sans-serif" font-size="18" cursor="pointer">×</text></g>
  <g transform="translate(75, 95)">
    <text x="0" y="0" fill="#1F2937" font-family="system-ui, sans-serif" font-size="13" font-weight="500">Sélectionnez une édition *</text>
    <g transform="translate(0, 20)">
      <rect x="0" y="0" width="500" height="70" rx="4" fill="white" stroke="#E5E7EB"/>
      <circle cx="30" cy="35" r="10" fill="white" stroke="#E5E7EB" stroke-width="2"/>
      <text x="55" y="30" fill="#1F2937" font-family="system-ui, sans-serif" font-size="13" font-weight="500">Web Admin</text>
      <text x="55" y="50" fill="#6B7280" font-family="system-ui, sans-serif" font-size="11">10 domaines • Gestion basique</text>
      <text x="420" y="40" fill="#1F2937" font-family="system-ui, sans-serif" font-size="14" font-weight="600">€ 8/mois</text>
    </g>
    <g transform="translate(0, 100)">
      <rect x="0" y="0" width="500" height="70" rx="4" fill="#EFF6FF" stroke="#0050D7" stroke-width="2"/>
      <circle cx="30" cy="35" r="10" fill="#0050D7"/>
      <circle cx="30" cy="35" r="4" fill="white"/>
      <text x="55" y="30" fill="#1F2937" font-family="system-ui, sans-serif" font-size="13" font-weight="500">Web Pro</text>
      <text x="55" y="50" fill="#6B7280" font-family="system-ui, sans-serif" font-size="11">30 domaines • WordPress Toolkit</text>
      <text x="420" y="40" fill="#1F2937" font-family="system-ui, sans-serif" font-size="14" font-weight="600">€ 12/mois</text>
    </g>
    <g transform="translate(0, 180)">
      <rect x="0" y="0" width="500" height="70" rx="4" fill="white" stroke="#E5E7EB"/>
      <circle cx="30" cy="35" r="10" fill="white" stroke="#E5E7EB" stroke-width="2"/>
      <text x="55" y="30" fill="#1F2937" font-family="system-ui, sans-serif" font-size="13" font-weight="500">Web Host</text>
      <text x="55" y="50" fill="#6B7280" font-family="system-ui, sans-serif" font-size="11">Domaines illimités • Reseller Pack</text>
      <text x="420" y="40" fill="#1F2937" font-family="system-ui, sans-serif" font-size="14" font-weight="600">€ 18/mois</text>
    </g>
  </g>
  <g transform="translate(75, 385)">
    <text x="0" y="0" fill="#1F2937" font-family="system-ui, sans-serif" font-size="13" font-weight="500">Adresse IP du serveur *</text>
    <rect x="0" y="15" width="500" height="40" rx="4" fill="white" stroke="#E5E7EB"/>
    <text x="15" y="42" fill="#9CA3AF" font-family="system-ui, sans-serif" font-size="13">Entrez l'adresse IP...</text>
  </g>
  <g transform="translate(75, 460)">
    <rect x="0" y="0" width="500" height="60" rx="4" fill="#F9FAFB"/>
    <text x="15" y="20" fill="#6B7280" font-family="system-ui, sans-serif" font-size="11">Total mensuel</text>
    <text x="15" y="45" fill="#1F2937" font-family="system-ui, sans-serif" font-size="16" font-weight="600">€ 12.00 HT</text>
    <text x="350" y="40" fill="#6B7280" font-family="system-ui, sans-serif" font-size="11">Facturation mensuelle</text>
  </g>
  <g transform="translate(75, 540)"><rect x="0" y="0" width="100" height="36" rx="4" fill="white" stroke="#E5E7EB"/><text x="25" y="24" fill="#6B7280" font-family="system-ui, sans-serif" font-size="13">Annuler</text><rect x="400" y="0" width="100" height="36" rx="4" fill="#0050D7"/><text x="420" y="24" fill="white" font-family="system-ui, sans-serif" font-size="13">Commander</text></g>
</svg>
