<svg xmlns="http://www.w3.org/2000/svg" viewBox="0 0 1440 750" width="1440" height="750">
  <defs>
    <style>
      .bg-header { fill: #000E9C; }
      .bg-muted { fill: #F9FAFB; }
      .bg-white { fill: #FFFFFF; }
      .bg-neutral { fill: #F3F4F6; }
      .text-body { font-family: 'Source Sans Pro', sans-serif; font-size: 14px; fill: #1F2937; }
      .text-title { font-family: 'Source Sans Pro', sans-serif; font-size: 24px; font-weight: 600; fill: #1F2937; }
      .text-muted { font-family: 'Source Sans Pro', sans-serif; font-size: 14px; fill: #6B7280; }
      .text-white { font-family: 'Source Sans Pro', sans-serif; font-size: 14px; fill: #FFFFFF; }
      .text-link { font-family: 'Source Sans Pro', sans-serif; font-size: 14px; fill: #0050D7; }
      .text-header { font-family: 'Source Sans Pro', sans-serif; font-size: 13px; font-weight: 600; fill: #374151; }
      .border { stroke: #E5E7EB; stroke-width: 1; fill: none; }
      .btn-primary { fill: #0050D7; }
      .btn-text { font-family: 'Source Sans Pro', sans-serif; font-size: 14px; fill: #FFFFFF; }
      .badge-success { fill: #DEF7EC; }
      .badge-success-text { font-family: 'Source Sans Pro', sans-serif; font-size: 12px; fill: #03543F; }
      .tile { fill: #FFFFFF; stroke: #E5E7EB; }
      .tab-active { fill: #0050D7; }
      .tab-inactive { fill: #6B7280; }
      .toggle-on { fill: #0050D7; }
    </style>
  </defs>
  <rect width="1440" height="750" class="bg-muted"/>
  <rect width="1440" height="60" class="bg-header"/>
  <text x="80" y="38" class="text-white" font-size="18" font-weight="bold">OVHcloud</text>
  <rect x="0" y="60" width="240" height="690" class="bg-white"/>
  <rect x="240" y="60" width="1" height="690" class="border"/>
  <text x="20" y="100" class="text-muted" font-size="12">BARE METAL CLOUD</text>
  <rect x="0" y="115" width="240" height="40" fill="#E8F0FE"/>
  <text x="20" y="140" class="text-link" font-weight="600">VPS</text>
  <text x="40" y="175" class="text-body">vps-abc123.vps.ovh.net</text>
  <g transform="translate(280, 100)">
    <text x="0" y="0" class="text-title">vps-abc123.vps.ovh.net</text>
    <g transform="translate(0, 50)">
      <text x="0" y="0" class="tab-inactive">Accueil</text>
      <text x="80" y="0" class="tab-inactive">Snapshots</text>
      <text x="180" y="0" class="tab-active" font-weight="600">Backup automatique</text>
      <rect x="180" y="8" width="130" height="3" fill="#0050D7"/>
      <text x="340" y="0" class="tab-inactive">Reinstallation</text>
      <text x="480" y="0" class="tab-inactive">Monitoring</text>
    </g>
    <line x1="0" y1="65" x2="1100" y2="65" stroke="#E5E7EB"/>
    <g transform="translate(0, 90)">
      <rect x="0" y="0" width="540" height="180" rx="8" class="tile"/>
      <text x="20" y="35" class="text-body" font-weight="600">Option Backup automatique</text>
      <line x1="0" y1="55" x2="540" y2="55" stroke="#E5E7EB"/>
      <text x="20" y="90" class="text-muted">Statut</text>
      <g transform="translate(180, 75)">
        <rect x="0" y="0" width="60" height="22" rx="11" class="badge-success"/>
        <text x="10" y="15" class="badge-success-text">Activé</text>
      </g>
      <g transform="translate(280, 70)">
        <rect x="0" y="0" width="44" height="24" rx="12" class="toggle-on"/>
        <circle cx="32" cy="12" r="10" fill="#FFFFFF"/>
      </g>
      <text x="20" y="130" class="text-muted">Prix</text>
      <text x="180" y="130" class="text-body">2,00 € HT/mois</text>
      <text x="20" y="165" class="text-muted">Rétention</text>
      <text x="180" y="165" class="text-body">7 points de restauration</text>
    </g>
    <g transform="translate(560, 90)">
      <rect x="0" y="0" width="540" height="180" rx="8" class="tile"/>
      <text x="20" y="35" class="text-body" font-weight="600">Planification</text>
      <line x1="0" y1="55" x2="540" y2="55" stroke="#E5E7EB"/>
      <text x="20" y="90" class="text-muted">Fréquence</text>
      <text x="180" y="90" class="text-body">Quotidien</text>
      <text x="20" y="125" class="text-muted">Heure</text>
      <text x="180" y="125" class="text-body">03:00 (UTC+1)</text>
      <text x="20" y="160" class="text-muted">Dernier backup</text>
      <text x="180" y="160" class="text-body">27/12/2025 03:00</text>
    </g>
    <g transform="translate(0, 300)">
      <rect x="0" y="0" width="1100" height="320" rx="8" class="tile"/>
      <text x="20" y="35" class="text-body" font-weight="600">Points de restauration disponibles</text>
      <line x1="0" y1="55" x2="1100" y2="55" stroke="#E5E7EB"/>
      <g transform="translate(0, 70)">
        <rect x="0" y="0" width="1100" height="35" class="bg-neutral"/>
        <text x="20" y="24" class="text-header">Date</text>
        <text x="250" y="24" class="text-header">Taille</text>
        <text x="400" y="24" class="text-header">Statut</text>
        <text x="600" y="24" class="text-header">Actions</text>
      </g>
      <g transform="translate(0, 105)">
        <text x="20" y="24" class="text-body">27/12/2025 03:00</text>
        <text x="250" y="24" class="text-body">15.2 Go</text>
        <g transform="translate(400, 7)">
          <rect x="0" y="0" width="75" height="22" rx="11" class="badge-success"/>
          <text x="10" y="15" class="badge-success-text">Disponible</text>
        </g>
        <text x="600" y="24" class="text-link">Restaurer</text>
        <text x="680" y="24" class="text-muted">|</text>
        <text x="700" y="24" class="text-link">Monter</text>
      </g>
      <line x1="20" y1="145" x2="1080" y2="145" stroke="#E5E7EB"/>
      <g transform="translate(0, 160)">
        <text x="20" y="24" class="text-body">26/12/2025 03:00</text>
        <text x="250" y="24" class="text-body">15.1 Go</text>
        <g transform="translate(400, 7)">
          <rect x="0" y="0" width="75" height="22" rx="11" class="badge-success"/>
          <text x="10" y="15" class="badge-success-text">Disponible</text>
        </g>
        <text x="600" y="24" class="text-link">Restaurer</text>
        <text x="680" y="24" class="text-muted">|</text>
        <text x="700" y="24" class="text-link">Monter</text>
      </g>
      <line x1="20" y1="200" x2="1080" y2="200" stroke="#E5E7EB"/>
      <g transform="translate(0, 215)">
        <text x="20" y="24" class="text-body">25/12/2025 03:00</text>
        <text x="250" y="24" class="text-body">14.9 Go</text>
        <g transform="translate(400, 7)">
          <rect x="0" y="0" width="75" height="22" rx="11" class="badge-success"/>
          <text x="10" y="15" class="badge-success-text">Disponible</text>
        </g>
        <text x="600" y="24" class="text-link">Restaurer</text>
        <text x="680" y="24" class="text-muted">|</text>
        <text x="700" y="24" class="text-link">Monter</text>
      </g>
    </g>
  </g>
</svg>
