<svg xmlns="http://www.w3.org/2000/svg" viewBox="0 0 1440 600" width="1440" height="600">
  <defs>
    <style>
      .bg-header { fill: #000E9C; }
      .bg-white { fill: #FFFFFF; }
      .bg-muted { fill: #F9FAFB; }
      .text-white { fill: #FFFFFF; font-family: 'Source Sans Pro', sans-serif; }
      .text-body { fill: #1F2937; font-family: 'Source Sans Pro', sans-serif; font-size: 14px; }
      .text-muted { fill: #6B7280; font-family: 'Source Sans Pro', sans-serif; font-size: 14px; }
      .text-title { fill: #1F2937; font-family: 'Source Sans Pro', sans-serif; font-size: 18px; font-weight: 600; }
      .text-heading { fill: #1F2937; font-family: 'Source Sans Pro', sans-serif; font-size: 24px; font-weight: 600; }
      .text-link { fill: #0050D7; font-family: 'Source Sans Pro', sans-serif; font-size: 14px; }
      .border { stroke: #E5E7EB; stroke-width: 1; fill: none; }
    </style>
  </defs>
  <rect width="1440" height="600" class="bg-muted"/>
  <rect width="1440" height="60" class="bg-header"/>
  <text x="80" y="38" class="text-white" font-size="20" font-weight="bold">OVHcloud</text>
  <rect x="0" y="60" width="240" height="540" class="bg-white"/>
  <rect x="240" y="60" width="1" height="540" class="border"/>
  <g transform="translate(280, 80)">
    <text x="0" y="20" class="text-link">← Retour à la gestion du fax</text>
    <text x="0" y="60" class="text-heading">Gestion</text>
    <g transform="translate(0, 90)">
      <rect x="0" y="0" width="400" height="120" rx="8" class="bg-white"/>
      <rect x="0" y="0" width="400" height="120" rx="8" class="border"/>
      <g transform="translate(20, 30)">
        <rect x="0" y="0" width="50" height="50" rx="8" fill="#E8F0FE"/>
        <text x="18" y="32" fill="#0050D7" font-size="20">ℹ</text>
        <text x="70" y="20" class="text-title">Informations générales</text>
        <text x="70" y="45" class="text-muted">Consultez les informations de votre fax</text>
      </g>
      <text x="350" y="70" class="text-link">→</text>
    </g>
    <g transform="translate(420, 90)">
      <rect x="0" y="0" width="400" height="120" rx="8" class="bg-white"/>
      <rect x="0" y="0" width="400" height="120" rx="8" class="border"/>
      <g transform="translate(20, 30)">
        <rect x="0" y="0" width="50" height="50" rx="8" fill="#FEE2E2"/>
        <text x="15" y="32" fill="#991B1B" font-size="20">✕</text>
        <text x="70" y="20" class="text-title">Résiliation du fax</text>
        <text x="70" y="45" class="text-muted">Demandez la résiliation de votre fax</text>
      </g>
      <text x="350" y="70" class="text-link">→</text>
    </g>
  </g>
</svg>
