<svg xmlns="http://www.w3.org/2000/svg" viewBox="0 0 1440 950" width="1440" height="950">
  <defs>
    <style>
      .bg-muted { fill: #F9FAFB; }
      .bg-white { fill: #FFFFFF; }
      .bg-header { fill: #000E9C; }
      .bg-primary { fill: #0050D7; }
      .text-body { font-family: 'Source Sans Pro', sans-serif; font-size: 14px; fill: #1F2937; }
      .text-muted { font-family: 'Source Sans Pro', sans-serif; font-size: 14px; fill: #6B7280; }
      .text-white { font-family: 'Source Sans Pro', sans-serif; fill: #FFFFFF; }
      .text-title { font-family: 'Source Sans Pro', sans-serif; font-size: 24px; font-weight: 600; fill: #1F2937; }
      .text-section { font-family: 'Source Sans Pro', sans-serif; font-size: 16px; font-weight: 600; fill: #1F2937; }
      .text-link { font-family: 'Source Sans Pro', sans-serif; font-size: 14px; fill: #0050D7; }
      .border { stroke: #E5E7EB; stroke-width: 1; fill: none; }
      .card { fill: white; }
    </style>
  </defs>
  
  <!-- Background -->
  <rect width="1440" height="950" class="bg-muted"/>
  
  <!-- Header OVH -->
  <rect width="1440" height="60" class="bg-header"/>
  <text x="80" y="38" class="text-white" font-size="20" font-weight="bold">OVHcloud</text>
  <text x="200" y="38" class="text-white" font-size="14">Télécom</text>
  
  <!-- Sidebar -->
  <rect x="0" y="60" width="240" height="890" class="bg-white"/>
  <rect x="240" y="60" width="1" height="890" fill="#E5E7EB"/>
  
  <!-- Sidebar menu -->
  <text x="20" y="100" class="text-muted" font-size="12" font-weight="600">TÉLÉCOM</text>
  <text x="20" y="135" class="text-body">Accès Internet</text>
  <text x="20" y="170" class="text-body">Téléphonie</text>
  <rect x="0" y="185" width="240" height="40" fill="#E8F0FE"/>
  <text x="20" y="210" class="text-body" font-weight="500" fill="#0050D7">Fax</text>
  
  <!-- Main content -->
  <g transform="translate(280, 80)">
    <!-- Back link -->
    <text x="0" y="0" class="text-link" font-size="13">← Retour</text>
    
    <!-- Page title -->
    <text x="0" y="45" class="text-title">Configuration du fax</text>
    <text x="0" y="70" class="text-muted">0033972999888</text>
    
    <!-- Options générales -->
    <g transform="translate(0, 100)">
      <rect x="0" y="0" width="880" height="180" rx="8" class="card border"/>
      <text x="20" y="35" class="text-section">Options générales</text>
      
      <text x="20" y="75" class="text-body">Qualité d'envoi :</text>
      <rect x="200" y="55" width="150" height="35" rx="4" class="border" fill="white"/>
      <text x="215" y="78" class="text-body">Normale ▼</text>
      
      <text x="400" y="75" class="text-muted" font-size="12">Normale / Haute / Meilleure</text>
      
      <text x="20" y="125" class="text-body">Nombre de tentatives d'envoi :</text>
      <rect x="250" y="105" width="80" height="35" rx="4" class="border" fill="white"/>
      <text x="280" y="128" class="text-body">3 ▼</text>
      
      <rect x="700" y="130" width="150" height="36" rx="4" class="bg-primary"/>
      <text x="775" y="154" text-anchor="middle" class="text-white" font-size="14">Appliquer</text>
    </g>
    
    <!-- Entête des fax -->
    <g transform="translate(0, 300)">
      <rect x="0" y="0" width="880" height="150" rx="8" class="card border"/>
      <text x="20" y="35" class="text-section">Entête des fax émis</text>
      
      <text x="20" y="70" class="text-body">Texte d'entête :</text>
      <rect x="20" y="85" width="600" height="35" rx="4" class="border" fill="white"/>
      <text x="35" y="108" class="text-muted">Entreprise SARL - %5 - Page %6/%8</text>
      
      <text x="640" y="108" class="text-link" font-size="12">Aide ℹ️</text>
      
      <rect x="700" y="85" width="150" height="36" rx="4" class="bg-primary"/>
      <text x="775" y="109" text-anchor="middle" class="text-white" font-size="14">Appliquer</text>
    </g>
    
    <!-- Options de notifications -->
    <g transform="translate(0, 470)">
      <rect x="0" y="0" width="880" height="200" rx="8" class="card border"/>
      <text x="20" y="35" class="text-section">Options de notifications</text>
      
      <text x="20" y="75" class="text-body">Nom de l'expéditeur :</text>
      <rect x="200" y="55" width="250" height="35" rx="4" class="border" fill="white"/>
      <text x="215" y="78" class="text-body">Service Fax Entreprise</text>
      
      <text x="20" y="125" class="text-body">Adresse e-mail de l'expéditeur :</text>
      <rect x="250" y="105" width="300" height="35" rx="4" class="border" fill="white"/>
      <text x="265" y="128" class="text-body">fax@entreprise.fr</text>
      
      <text x="580" y="125" class="text-body">Format du mail :</text>
      <rect x="720" y="105" width="100" height="35" rx="4" class="border" fill="white"/>
      <text x="735" y="128" class="text-body">PDF ▼</text>
      
      <rect x="700" y="155" width="150" height="36" rx="4" class="bg-primary"/>
      <text x="775" y="179" text-anchor="middle" class="text-white" font-size="14">Appliquer</text>
    </g>
    
    <!-- Adresses à notifier -->
    <g transform="translate(0, 690)">
      <rect x="0" y="0" width="880" height="180" rx="8" class="card border"/>
      <text x="20" y="35" class="text-section">Adresses e-mail à notifier</text>
      <text x="400" y="35" class="text-muted" font-size="12">(Maximum 5 adresses)</text>
      
      <!-- Email list -->
      <rect x="20" y="55" width="350" height="35" rx="4" fill="#F3F4F6"/>
      <text x="35" y="78" class="text-body">contact@entreprise.fr</text>
      <text x="340" y="78" class="text-link" font-size="12">✕</text>
      
      <rect x="20" y="100" width="350" height="35" rx="4" fill="#F3F4F6"/>
      <text x="35" y="123" class="text-body">admin@entreprise.fr</text>
      <text x="340" y="123" class="text-link" font-size="12">✕</text>
      
      <!-- Add email -->
      <rect x="400" y="55" width="300" height="35" rx="4" class="border" fill="white"/>
      <text x="415" y="78" class="text-muted">Ajouter une adresse e-mail...</text>
      
      <rect x="710" y="55" width="100" height="35" rx="4" class="border" fill="white"/>
      <text x="760" y="78" text-anchor="middle" class="text-link" font-size="13">Ajouter</text>
    </g>
  </g>
</svg>
