<svg xmlns="http://www.w3.org/2000/svg" viewBox="0 0 1440 950" width="1440" height="950">
  <defs>
    <style>
      .bg-muted { fill: #F9FAFB; }
      .bg-white { fill: #FFFFFF; }
      .bg-header { fill: #000E9C; }
      .bg-primary { fill: #0050D7; }
      .bg-success { fill: #DEF7EC; }
      .bg-info { fill: #E8F0FE; }
      .text-body { font-family: 'Source Sans Pro', sans-serif; font-size: 14px; fill: #1F2937; }
      .text-muted { font-family: 'Source Sans Pro', sans-serif; font-size: 14px; fill: #6B7280; }
      .text-white { font-family: 'Source Sans Pro', sans-serif; fill: #FFFFFF; }
      .text-title { font-family: 'Source Sans Pro', sans-serif; font-size: 24px; font-weight: 600; fill: #1F2937; }
      .text-section { font-family: 'Source Sans Pro', sans-serif; font-size: 16px; font-weight: 600; fill: #1F2937; }
      .text-success { font-family: 'Source Sans Pro', sans-serif; font-size: 12px; fill: #03543F; }
      .text-link { font-family: 'Source Sans Pro', sans-serif; font-size: 14px; fill: #0050D7; }
      .border { stroke: #E5E7EB; stroke-width: 1; fill: none; }
      .step-active { fill: #0050D7; }
      .step-inactive { fill: #E5E7EB; }
    </style>
  </defs>
  
  <!-- Background -->
  <rect width="1440" height="950" class="bg-muted"/>
  
  <!-- Header -->
  <rect width="1440" height="60" class="bg-header"/>
  <text x="80" y="38" class="text-white" font-size="18" font-weight="bold">OVHcloud</text>
  <text x="720" y="38" class="text-white" font-size="14" font-weight="600">Telecom</text>
  
  <!-- Sidebar -->
  <rect x="0" y="60" width="240" height="890" class="bg-white"/>
  <rect x="240" y="60" width="1" height="890" class="border"/>
  
  <text x="20" y="100" class="text-muted" font-size="12" font-weight="600">INTERNET</text>
  <rect x="0" y="110" width="240" height="36" fill="#E8F0FE"/>
  <text x="20" y="134" class="text-link" font-weight="600">Accès Internet</text>
  
  <!-- Content -->
  <g transform="translate(280, 80)">
    <!-- Back link -->
    <text x="0" y="0" class="text-link" font-size="13">← Détail du pack</text>
    
    <!-- Title -->
    <text x="0" y="50" class="text-title">Déménagement</text>
    
    <!-- Stepper -->
    <g transform="translate(0, 80)">
      <circle cx="20" cy="20" r="20" class="step-active"/>
      <text x="20" y="26" text-anchor="middle" class="text-white" font-size="14" font-weight="600">1</text>
      <text x="50" y="26" class="text-body" font-weight="600">Éligibilité</text>
      
      <line x1="120" y1="20" x2="180" y2="20" stroke="#E5E7EB" stroke-width="2"/>
      
      <circle cx="200" cy="20" r="20" class="step-inactive"/>
      <text x="200" y="26" text-anchor="middle" class="text-muted" font-size="14">2</text>
      <text x="230" y="26" class="text-muted">Offres</text>
      
      <line x1="280" y1="20" x2="340" y2="20" stroke="#E5E7EB" stroke-width="2"/>
      
      <circle cx="360" cy="20" r="20" class="step-inactive"/>
      <text x="360" y="26" text-anchor="middle" class="text-muted" font-size="14">3</text>
      <text x="390" y="26" class="text-muted">Rendez-vous</text>
      
      <line x1="480" y1="20" x2="540" y2="20" stroke="#E5E7EB" stroke-width="2"/>
      
      <circle cx="560" cy="20" r="20" class="step-inactive"/>
      <text x="560" y="26" text-anchor="middle" class="text-muted" font-size="14">4</text>
      <text x="590" y="26" class="text-muted">Confirmation</text>
    </g>
    
    <!-- Current address card -->
    <rect x="0" y="140" width="420" height="160" rx="8" class="bg-white"/>
    <rect x="0" y="140" width="420" height="160" rx="8" class="border"/>
    
    <text x="20" y="175" class="text-section">📍 Adresse actuelle</text>
    
    <text x="20" y="210" class="text-body">12 rue Example</text>
    <text x="20" y="235" class="text-body">75001 Paris</text>
    <text x="20" y="260" class="text-muted">Ligne : 01 23 45 67 89</text>
    
    <rect x="20" y="275" width="60" height="20" rx="10" class="bg-success"/>
    <text x="50" y="289" text-anchor="middle" class="text-success" font-size="11">Active</text>
    
    <!-- New address card -->
    <rect x="440" y="140" width="420" height="160" rx="8" class="bg-white"/>
    <rect x="440" y="140" width="420" height="160" rx="8" class="border"/>
    
    <text x="460" y="175" class="text-section">🏠 Nouvelle adresse</text>
    
    <text x="460" y="215" class="text-muted">Testez avec la nouvelle adresse</text>
    
    <!-- Form fields -->
    <rect x="460" y="230" width="380" height="36" rx="4" class="border"/>
    <text x="475" y="254" class="text-muted">Adresse de la nouvelle ligne...</text>
    
    <rect x="460" y="275" width="100" height="36" rx="4" class="bg-primary"/>
    <text x="510" y="299" text-anchor="middle" class="text-white" font-size="14">Tester</text>
    
    <!-- OR separator -->
    <rect x="0" y="320" width="860" height="40" rx="4" class="bg-info"/>
    <text x="430" y="346" text-anchor="middle" class="text-body">OU testez avec le numéro de téléphone de la nouvelle adresse</text>
    
    <!-- Phone test card -->
    <rect x="0" y="380" width="860" height="120" rx="8" class="bg-white"/>
    <rect x="0" y="380" width="860" height="120" rx="8" class="border"/>
    
    <text x="20" y="415" class="text-section">📞 Test de la ligne</text>
    <text x="20" y="445" class="text-muted">Testez avec le numéro de téléphone correspondant à votre nouvelle adresse.</text>
    
    <rect x="20" y="460" width="300" height="36" rx="4" class="border"/>
    <text x="35" y="484" class="text-muted">01 XX XX XX XX</text>
    
    <rect x="340" y="460" width="100" height="36" rx="4" class="bg-primary"/>
    <text x="390" y="484" text-anchor="middle" class="text-white" font-size="14">Tester</text>
    
    <!-- Info box -->
    <rect x="0" y="520" width="860" height="80" rx="8" class="bg-info"/>
    <text x="20" y="555" class="text-body">💡 Conseil : Munissez-vous d'une facture de votre nouveau logement pour retrouver</text>
    <text x="20" y="580" class="text-body">le numéro de téléphone de la ligne fixe associée.</text>
    
    <!-- Keep number option -->
    <rect x="0" y="620" width="860" height="100" rx="8" class="bg-white"/>
    <rect x="0" y="620" width="860" height="100" rx="8" class="border"/>
    
    <text x="20" y="655" class="text-section">🔄 Conserver mes numéros</text>
    
    <rect x="20" y="675" width="20" height="20" rx="4" class="border"/>
    <text x="50" y="692" class="text-body">Je souhaite conserver mon numéro actuel : 01 23 45 67 89</text>
    
    <!-- Portability info -->
    <rect x="0" y="740" width="860" height="80" rx="8" class="bg-white"/>
    <rect x="0" y="740" width="860" height="80" rx="8" class="border"/>
    
    <text x="20" y="775" class="text-muted">La portabilité de votre numéro sera effective sous 7 jours ouvrés après</text>
    <text x="20" y="800" class="text-muted">l'activation de votre nouvelle ligne.</text>
  </g>
</svg>

