<svg xmlns="http://www.w3.org/2000/svg" viewBox="0 0 1440 900" width="1440" height="900">
  <defs>
    <style>
      .bg-header { fill: #000E9C; }
      .bg-muted { fill: #F9FAFB; }
      .bg-white { fill: #FFFFFF; }
      .bg-row-alt { fill: #F9FAFB; }
      .text-dark { font-family: Source Sans Pro, sans-serif; font-size: 14px; fill: #1F2937; }
      .text-muted { font-family: Source Sans Pro, sans-serif; font-size: 14px; fill: #6B7280; }
      .text-title { font-family: Source Sans Pro, sans-serif; font-size: 24px; font-weight: 600; fill: #1F2937; }
      .text-white { font-family: Source Sans Pro, sans-serif; fill: #FFFFFF; }
      .text-section { font-family: Source Sans Pro, sans-serif; font-size: 16px; font-weight: 600; fill: #1F2937; }
      .text-header { font-family: Source Sans Pro, sans-serif; font-size: 12px; font-weight: 600; fill: #6B7280; }
      .border { stroke: #E5E7EB; stroke-width: 1; fill: none; }
      .badge-success { fill: #DEF7EC; }
      .badge-warning { fill: #FEF3C7; }
      .badge-info { fill: #DBEAFE; }
      .badge-error { fill: #FEE2E2; }
      .text-success { fill: #03543F; }
      .text-warning { fill: #92400E; }
      .text-info { fill: #1E40AF; }
      .text-error { fill: #991B1B; }
      .tab-active { fill: #0050D7; }
      .tab-inactive { fill: #6B7280; }
    </style>
  </defs>
  <rect width="1440" height="900" class="bg-muted"/>
  <rect width="1440" height="60" class="bg-header"/>
  <text x="80" y="38" class="text-white" font-size="20" font-weight="bold">OVHcloud</text>
  <text x="200" y="38" class="text-white" font-size="14">Telecom</text>
  <rect x="0" y="60" width="240" height="840" class="bg-white"/>
  <rect x="240" y="60" width="1" height="840" class="border"/>
  <rect x="0" y="115" width="240" height="40" fill="#E8F0FE"/>
  <text x="20" y="100" class="text-dark" font-weight="600">Accueil</text>
  <text x="20" y="140" fill="#0050D7" font-family="Source Sans Pro" font-size="14" font-weight="600">Pack xDSL</text>
  <g transform="translate(280, 80)">
    <text x="0" y="20" class="text-muted" font-size="13">Pack xDSL / xdsl-abc123-1 / Taches</text>
    <text x="0" y="60" class="text-title">Liste des taches</text>
    
    <!-- Tabs -->
    <g transform="translate(0, 85)">
      <text x="0" y="0" class="tab-inactive">Mon acces</text>
      <text x="100" y="0" class="tab-inactive">Modem</text>
      <text x="170" y="0" class="tab-inactive">Statistiques</text>
      <text x="280" y="0" class="tab-inactive">Diagnostic</text>
      <text x="370" y="0" class="tab-active" font-weight="600">Taches</text>
      <line x1="370" y1="8" x2="420" y2="8" stroke="#0050D7" stroke-width="2"/>
    </g>
    
    <!-- Table des tâches -->
    <rect x="0" y="110" width="860" height="450" rx="8" class="bg-white"/>
    <rect x="0" y="110" width="860" height="450" rx="8" class="border"/>
    
    <!-- Header -->
    <rect x="0" y="110" width="860" height="44" rx="8" fill="#F3F4F6"/>
    <text x="20" y="138" class="text-header">ID</text>
    <text x="120" y="138" class="text-header">NOM</text>
    <text x="400" y="138" class="text-header">STATUT</text>
    <text x="550" y="138" class="text-header">DATE DE MAJ</text>
    <text x="750" y="138" class="text-header">ACTIONS</text>
    
    <!-- Row 1 -->
    <line x1="0" y1="154" x2="860" y2="154" stroke="#E5E7EB"/>
    <text x="20" y="182" class="text-dark">#45821</text>
    <text x="120" y="182" class="text-dark">changeModemConfig</text>
    <rect x="400" y="166" width="80" height="24" rx="12" class="badge-info"/>
    <text x="415" y="183" class="text-info" font-size="12">En cours</text>
    <text x="550" y="182" class="text-muted">27/12/2024 10:15</text>
    <text x="750" y="182" fill="#0050D7" font-family="Source Sans Pro" font-size="14">Details</text>
    
    <!-- Row 2 -->
    <rect x="1" y="198" width="858" height="44" class="bg-row-alt"/>
    <text x="20" y="226" class="text-dark">#45820</text>
    <text x="120" y="226" class="text-dark">resetModem</text>
    <rect x="400" y="210" width="80" height="24" rx="12" class="badge-success"/>
    <text x="412" y="227" class="text-success" font-size="12">Terminee</text>
    <text x="550" y="226" class="text-muted">27/12/2024 09:45</text>
    <text x="750" y="226" fill="#0050D7" font-family="Source Sans Pro" font-size="14">Details</text>
    
    <!-- Row 3 -->
    <line x1="0" y1="242" x2="860" y2="242" stroke="#E5E7EB"/>
    <text x="20" y="270" class="text-dark">#45819</text>
    <text x="120" y="270" class="text-dark">updateDHCP</text>
    <rect x="400" y="254" width="80" height="24" rx="12" class="badge-success"/>
    <text x="412" y="271" class="text-success" font-size="12">Terminee</text>
    <text x="550" y="270" class="text-muted">26/12/2024 14:30</text>
    <text x="750" y="270" fill="#0050D7" font-family="Source Sans Pro" font-size="14">Details</text>
    
    <!-- Row 4 -->
    <rect x="1" y="286" width="858" height="44" class="bg-row-alt"/>
    <text x="20" y="314" class="text-dark">#45815</text>
    <text x="120" y="314" class="text-dark">changeFirmware</text>
    <rect x="400" y="298" width="80" height="24" rx="12" class="badge-warning"/>
    <text x="410" y="315" class="text-warning" font-size="12">A faire</text>
    <text x="550" y="314" class="text-muted">26/12/2024 10:00</text>
    <text x="750" y="314" fill="#0050D7" font-family="Source Sans Pro" font-size="14">Details</text>
    
    <!-- Row 5 -->
    <line x1="0" y1="330" x2="860" y2="330" stroke="#E5E7EB"/>
    <text x="20" y="358" class="text-dark">#45800</text>
    <text x="120" y="358" class="text-dark">diagnostic</text>
    <rect x="400" y="342" width="80" height="24" rx="12" class="badge-error"/>
    <text x="415" y="359" class="text-error" font-size="12">Erreur</text>
    <text x="550" y="358" class="text-muted">25/12/2024 16:20</text>
    <text x="750" y="358" fill="#0050D7" font-family="Source Sans Pro" font-size="14">Details</text>
    
    <!-- Pagination -->
    <g transform="translate(350, 520)">
      <rect x="0" y="0" width="32" height="32" rx="4" fill="#0050D7"/>
      <text x="12" y="21" class="text-white" font-size="12">1</text>
      <rect x="40" y="0" width="32" height="32" rx="4" class="border" fill="white"/>
      <text x="52" y="21" class="text-muted" font-size="12">2</text>
      <rect x="80" y="0" width="32" height="32" rx="4" class="border" fill="white"/>
      <text x="92" y="21" class="text-muted" font-size="12">3</text>
      <text x="130" y="21" class="text-muted">...</text>
    </g>
  </g>
</svg>
