<svg xmlns="http://www.w3.org/2000/svg" viewBox="0 0 1440 900" width="1440" height="900">
  <defs>
    <style>
      .bg-header { fill: #000E9C; }
      .bg-muted { fill: #F9FAFB; }
      .bg-white { fill: #FFFFFF; }
      .bg-primary { fill: #0050D7; }
      .bg-neutral-100 { fill: #F3F4F6; }
      .text-body { font-family: 'Source Sans Pro', sans-serif; font-size: 14px; fill: #1F2937; }
      .text-title { font-family: 'Source Sans Pro', sans-serif; font-size: 24px; font-weight: 600; fill: #1F2937; }
      .text-subtitle { font-family: 'Source Sans Pro', sans-serif; font-size: 18px; font-weight: 600; fill: #1F2937; }
      .text-muted { font-family: 'Source Sans Pro', sans-serif; font-size: 14px; fill: #6B7280; }
      .text-white { font-family: 'Source Sans Pro', sans-serif; font-size: 14px; fill: #FFFFFF; }
      .text-link { font-family: 'Source Sans Pro', sans-serif; font-size: 14px; fill: #0050D7; }
      .text-header-col { font-family: 'Source Sans Pro', sans-serif; font-size: 13px; font-weight: 600; fill: #374151; }
      .border { stroke: #E5E7EB; stroke-width: 1; fill: none; }
      .btn-primary { fill: #0050D7; }
      .btn-text { font-family: 'Source Sans Pro', sans-serif; font-size: 14px; fill: #FFFFFF; }
      .action-menu { fill: #FFFFFF; stroke: #E5E7EB; filter: drop-shadow(0 4px 6px rgba(0,0,0,0.1)); }
      .badge-success { fill: #DEF7EC; }
      .badge-success-text { font-family: 'Source Sans Pro', sans-serif; font-size: 12px; fill: #03543F; }
      .badge-warning { fill: #FEF3C7; }
      .badge-warning-text { font-family: 'Source Sans Pro', sans-serif; font-size: 12px; fill: #92400E; }
    </style>
  </defs>
  <rect width="1440" height="900" class="bg-muted"/>
  <rect width="1440" height="60" class="bg-header"/>
  <text x="80" y="38" class="text-white" font-size="18" font-weight="bold">OVHcloud</text>
  <rect x="0" y="60" width="240" height="840" class="bg-white"/>
  <rect x="240" y="60" width="1" height="840" class="border"/>
  <text x="20" y="100" class="text-muted" font-size="12">BARE METAL</text>
  <rect x="0" y="115" width="240" height="40" fill="#E8F0FE"/>
  <text x="20" y="140" class="text-link" font-weight="600">Licences</text>
  <g transform="translate(280, 100)">
    <text x="0" y="0" class="text-muted" font-size="13">Bare Metal › Licences</text>
    <text x="0" y="45" class="text-title">Licences</text>
    <text x="0" y="90" class="text-subtitle">Gérer mes licences</text>
    <g transform="translate(0, 110)">
      <rect x="0" y="0" width="120" height="36" rx="4" class="btn-primary"/>
      <text x="15" y="23" class="btn-text">Actions ▼</text>
      <g transform="translate(0, 40)">
        <rect x="0" y="0" width="220" height="80" rx="4" class="action-menu"/>
        <text x="15" y="30" class="text-body">Commander</text>
        <line x1="10" y1="45" x2="210" y2="45" stroke="#E5E7EB"/>
        <text x="15" y="68" class="text-body">Ajouter une licence SPLA</text>
      </g>
    </g>
    <g transform="translate(0, 250)">
      <rect x="0" y="0" width="1100" height="40" class="bg-neutral-100"/>
      <text x="15" y="26" class="text-header-col">Type</text>
      <text x="150" y="26" class="text-header-col">Nom</text>
      <text x="350" y="26" class="text-header-col">Licence ID</text>
      <text x="500" y="26" class="text-header-col">IP</text>
      <text x="650" y="26" class="text-header-col">Service</text>
      <text x="850" y="26" class="text-header-col">Renouvellement</text>
      <text x="1050" y="26" class="text-header-col">⋮</text>
      <rect x="0" y="40" width="1100" height="50" class="bg-white"/>
      <rect x="0" y="40" width="1100" height="50" class="border"/>
      <text x="15" y="72" class="text-body">Plesk</text>
      <text x="150" y="72" class="text-body">Plesk - Edition Web Host</text>
      <text x="350" y="72" class="text-body">PLK-12345</text>
      <text x="500" y="72" class="text-body">51.210.xxx.xxx</text>
      <text x="650" y="72" class="text-body">ns1234567.ip-51-210.eu</text>
      <g transform="translate(850, 55)">
        <rect x="0" y="0" width="90" height="24" rx="12" class="badge-success"/>
        <text x="10" y="16" class="badge-success-text">Automatique</text>
      </g>
      <text x="1055" y="72" class="text-body" font-size="18">⋮</text>
      <g transform="translate(920, 80)">
        <rect x="0" y="0" width="180" height="180" rx="4" class="action-menu"/>
        <text x="15" y="30" class="text-body">Détails</text>
        <line x1="10" y1="42" x2="170" y2="42" stroke="#E5E7EB"/>
        <text x="15" y="62" class="text-body">Migrer</text>
        <line x1="10" y1="74" x2="170" y2="74" stroke="#E5E7EB"/>
        <text x="15" y="94" class="text-body">Mettre à niveau</text>
        <line x1="10" y1="106" x2="170" y2="106" stroke="#E5E7EB"/>
        <text x="15" y="126" class="text-body">Renouveler</text>
        <line x1="10" y1="138" x2="170" y2="138" stroke="#E5E7EB"/>
        <text x="15" y="158" class="text-body" fill="#991B1B">Résilier</text>
      </g>
      <rect x="0" y="90" width="1100" height="50" fill="#F9FAFB"/>
      <rect x="0" y="90" width="1100" height="50" class="border"/>
      <text x="15" y="122" class="text-body">cPanel</text>
      <text x="150" y="122" class="text-body">cPanel Admin Cloud</text>
      <text x="350" y="122" class="text-body">CPN-67890</text>
      <text x="500" y="122" class="text-body">141.95.xxx.xxx</text>
      <text x="650" y="122" class="text-body">vps-abc123.vps.ovh.net</text>
      <g transform="translate(850, 105)">
        <rect x="0" y="0" width="90" height="24" rx="12" class="badge-warning"/>
        <text x="10" y="16" class="badge-warning-text">15/02/2025</text>
      </g>
      <text x="1055" y="122" class="text-body" font-size="18">⋮</text>
      <rect x="0" y="140" width="1100" height="50" class="bg-white"/>
      <rect x="0" y="140" width="1100" height="50" class="border"/>
      <text x="15" y="172" class="text-body">Windows</text>
      <text x="150" y="172" class="text-body">Windows Server 2022</text>
      <text x="350" y="172" class="text-body">WIN-11111</text>
      <text x="500" y="172" class="text-body">54.38.xxx.xxx</text>
      <text x="650" y="172" class="text-body">ns9876543.ip-54-38.eu</text>
      <g transform="translate(850, 155)">
        <rect x="0" y="0" width="90" height="24" rx="12" class="badge-success"/>
        <text x="10" y="16" class="badge-success-text">Automatique</text>
      </g>
      <text x="1055" y="172" class="text-body" font-size="18">⋮</text>
    </g>
    <g transform="translate(0, 500)">
      <text x="0" y="0" class="text-muted">Affichage de 1-3 sur 3 éléments</text>
    </g>
  </g>
</svg>
