<svg xmlns="http://www.w3.org/2000/svg" viewBox="0 0 1440 800" width="1440" height="800">
  <defs>
    <style>
      .bg-header { fill: #000E9C; }
      .bg-white { fill: #FFFFFF; }
      .bg-muted { fill: #F9FAFB; }
      .text-white { font-family: 'Source Sans Pro', sans-serif; fill: #FFFFFF; }
      .text-body { font-family: 'Source Sans Pro', sans-serif; font-size: 14px; fill: #1F2937; }
      .text-muted { font-family: 'Source Sans Pro', sans-serif; font-size: 14px; fill: #6B7280; }
      .text-primary { font-family: 'Source Sans Pro', sans-serif; font-size: 14px; fill: #0050D7; }
      .text-title { font-family: 'Source Sans Pro', sans-serif; font-size: 24px; font-weight: 600; fill: #1F2937; }
      .text-label { font-family: 'Source Sans Pro', sans-serif; font-size: 14px; font-weight: 600; fill: #6B7280; }
      .border { stroke: #E5E7EB; stroke-width: 1; fill: none; }
      .btn-default { fill: #FFFFFF; stroke: #E5E7EB; }
      .btn-default-text { font-family: 'Source Sans Pro', sans-serif; font-size: 14px; fill: #1F2937; }
      .badge-success { fill: #DEF7EC; }
      .badge-success-text { font-family: 'Source Sans Pro', sans-serif; font-size: 12px; fill: #03543F; }
    </style>
  </defs>
  <rect width="1440" height="800" class="bg-muted"/>
  <rect width="1440" height="60" class="bg-header"/>
  <text x="80" y="38" class="text-white" font-size="20" font-weight="bold">OVHcloud</text>
  <rect x="0" y="60" width="240" height="740" class="bg-white"/>
  <rect x="240" y="60" width="1" height="740" class="border"/>
  <text x="20" y="100" class="text-muted" font-size="12" font-weight="600">BARE METAL CLOUD</text>
  <rect x="0" y="115" width="240" height="40" fill="#E8F0FE"/>
  <text x="20" y="140" class="text-primary" font-size="14">Licences</text>
  <g transform="translate(280, 100)">
    <text x="0" y="0" class="text-title">Licences - Plesk</text>
    <g transform="translate(0, 40)">
      <text x="0" y="0" class="text-primary" font-size="14">← Retour à la gestion des licenses</text>
    </g>
    <g transform="translate(0, 80)">
      <rect x="0" y="0" width="150" height="150" rx="8" fill="#FFFFFF" stroke="#E5E7EB"/>
      <text x="75" y="85" text-anchor="middle" font-size="48">🔐</text>
      <g transform="translate(180, 0)">
        <text x="0" y="20" class="text-label">Ip</text>
        <text x="200" y="20" class="text-body">51.210.xxx.xxx</text>
        <text x="0" y="55" class="text-label">Service</text>
        <text x="200" y="55" class="text-body">ns1234567.ip-51-210-xxx.eu</text>
        <text x="0" y="90" class="text-label">Renouvellement</text>
        <g transform="translate(200, 75)">
          <rect x="0" y="0" width="80" height="24" rx="12" class="badge-success"/>
          <text x="10" y="16" class="badge-success-text">Automatique</text>
        </g>
        <text x="290" y="90" class="text-body">15/01/2025</text>
        <text x="0" y="125" class="text-label">Version</text>
        <text x="200" y="125" class="text-body">Plesk - Edition Web Pro</text>
        <text x="0" y="160" class="text-label">Nombre de domaines</text>
        <text x="200" y="160" class="text-body">Illimité</text>
        <text x="0" y="195" class="text-label">Licence ID</text>
        <text x="200" y="195" class="text-body">PLESK-12345678</text>
        <text x="0" y="230" class="text-label">Clé</text>
        <rect x="200" y="210" width="400" height="100" rx="4" fill="#FFFFFF" stroke="#E5E7EB"/>
        <text x="210" y="235" class="text-body" font-family="monospace" font-size="12">XXXXX-XXXXX-XXXXX-XXXXX-XXXXX</text>
        <text x="210" y="255" class="text-body" font-family="monospace" font-size="12">YYYYY-YYYYY-YYYYY-YYYYY-YYYYY</text>
        <text x="210" y="275" class="text-body" font-family="monospace" font-size="12">ZZZZZ-ZZZZZ-ZZZZZ-ZZZZZ-ZZZZZ</text>
        <rect x="200" y="320" width="400" height="36" rx="4" class="btn-default"/>
        <text x="340" y="344" class="btn-default-text">Tout sélectionner</text>
        <text x="0" y="380" class="text-label">Date de création</text>
        <text x="200" y="380" class="text-body">01/06/2023</text>
        <text x="0" y="415" class="text-label">Résilier à l'expiration</text>
        <text x="200" y="415" class="text-body">Non</text>
        <rect x="240" y="430" width="100" height="32" rx="4" class="btn-default"/>
        <text x="265" y="452" class="btn-default-text">Modifier</text>
      </g>
      <g transform="translate(750, 0)">
        <rect x="0" y="0" width="200" height="40" rx="4" class="btn-default"/>
        <text x="55" y="26" class="btn-default-text">Migrer la licence</text>
        <rect x="0" y="50" width="200" height="40" rx="4" class="btn-default"/>
        <text x="40" y="76" class="btn-default-text">Mettre à niveau</text>
      </g>
    </g>
  </g>
</svg>
