<svg xmlns="http://www.w3.org/2000/svg" viewBox="0 0 1440 800" width="1440" height="800">
  <defs>
    <style>
      .bg-header { fill: #000E9C; }
      .bg-muted { fill: #F9FAFB; }
      .bg-white { fill: #FFFFFF; }
      .text-body { font-family: 'Source Sans Pro', sans-serif; font-size: 14px; fill: #1F2937; }
      .text-title { font-family: 'Source Sans Pro', sans-serif; font-size: 24px; font-weight: 600; fill: #1F2937; }
      .text-step { font-family: 'Source Sans Pro', sans-serif; font-size: 18px; font-weight: 600; fill: #1F2937; }
      .text-label { font-family: 'Source Sans Pro', sans-serif; font-size: 14px; font-weight: 500; fill: #374151; }
      .text-muted { font-family: 'Source Sans Pro', sans-serif; font-size: 14px; fill: #6B7280; }
      .text-white { font-family: 'Source Sans Pro', sans-serif; font-size: 14px; fill: #FFFFFF; }
      .text-link { font-family: 'Source Sans Pro', sans-serif; font-size: 14px; fill: #0050D7; }
      .border { stroke: #E5E7EB; stroke-width: 1; fill: none; }
      .input { fill: #FFFFFF; stroke: #D1D5DB; }
      .select { fill: #FFFFFF; stroke: #D1D5DB; }
    </style>
  </defs>
  <rect width="1440" height="800" class="bg-muted"/>
  <rect width="1440" height="60" class="bg-header"/>
  <text x="80" y="38" class="text-white" font-size="18" font-weight="bold">OVHcloud</text>
  <rect x="0" y="60" width="240" height="740" class="bg-white"/>
  <rect x="240" y="60" width="1" height="740" class="border"/>
  <text x="20" y="100" class="text-muted" font-size="12">BARE METAL</text>
  <rect x="0" y="115" width="240" height="40" fill="#E8F0FE"/>
  <text x="20" y="140" class="text-link" font-weight="600">Licences</text>
  <g transform="translate(280, 100)">
    <text x="0" y="0" class="text-title">Commander une licence</text>
    <text x="0" y="40" class="text-link">← Retour à la gestion des licences</text>
    <g transform="translate(0, 90)">
      <text x="0" y="0" class="text-step">1. Choisissez une IP et un type de licence</text>
      <text x="0" y="50" class="text-label">IP Block</text>
      <rect x="0" y="60" width="400" height="40" rx="4" class="select"/>
      <text x="15" y="86" class="text-muted">Aucun</text>
      <text x="370" y="86" class="text-body">▼</text>
      <text x="0" y="130" class="text-label">IP</text>
      <rect x="0" y="140" width="400" height="40" rx="4" class="input"/>
      <text x="15" y="166" class="text-muted">Sélectionnez une IP...</text>
    </g>
    <g transform="translate(0, 320)">
      <text x="0" y="0" class="text-step">2. Choisissez vos options</text>
      <text x="0" y="50" class="text-label">Type de licence</text>
      <rect x="0" y="60" width="400" height="40" rx="4" class="select"/>
      <text x="15" y="86" class="text-muted">Choisir...</text>
      <text x="370" y="86" class="text-body">▼</text>
      <text x="0" y="130" class="text-label">Version</text>
      <rect x="0" y="140" width="400" height="40" rx="4" class="select"/>
      <text x="15" y="166" class="text-muted">Choisir...</text>
      <text x="370" y="166" class="text-body">▼</text>
      <text x="0" y="210" class="text-label">Nombre de domaines</text>
      <rect x="0" y="220" width="400" height="40" rx="4" class="select"/>
      <text x="15" y="246" class="text-muted">Choisir...</text>
      <text x="370" y="246" class="text-body">▼</text>
    </g>
  </g>
</svg>
