<svg xmlns="http://www.w3.org/2000/svg" viewBox="0 0 1440 900" width="1440" height="900">
  <defs>
    <style>
      .bg-header { fill: #000E9C; }
      .bg-main { fill: #F6F6F9; }
      .bg-white { fill: #FFFFFF; }
      .bg-primary { fill: #0050D7; }
      .bg-info { fill: #DBEAFE; }
      .bg-success { fill: #DEF7EC; }
      .border { stroke: #E5E7EB; stroke-width: 1; fill: none; }
      .btn-outline { stroke: #0050D7; stroke-width: 1; fill: #FFFFFF; }
      .btn-primary { fill: #0050D7; }
      .text-white { fill: #FFFFFF; font-family: 'Source Sans Pro', sans-serif; }
      .text-dark { fill: #1F2937; font-family: 'Source Sans Pro', sans-serif; }
      .text-muted { fill: #6B7280; font-family: 'Source Sans Pro', sans-serif; }
      .text-primary { fill: #0050D7; font-family: 'Source Sans Pro', sans-serif; }
      .text-success { fill: #059669; font-family: 'Source Sans Pro', sans-serif; }
      .text-info { fill: #1E40AF; font-family: 'Source Sans Pro', sans-serif; }
    </style>
  </defs>

  <rect width="1440" height="900" class="bg-main"/>

  <!-- NAV1 - Header OVH -->
  <rect width="1440" height="50" fill="#000E9C"/>
  <text x="40" y="32" fill="#FFFFFF" font-family="Source Sans Pro" font-size="14" opacity="0.7">Accueil</text>
  <text x="110" y="32" fill="#FFFFFF" font-family="Source Sans Pro" font-size="14" opacity="0.7">Public Cloud</text>
  <text x="210" y="32" fill="#FFFFFF" font-family="Source Sans Pro" font-size="14" opacity="0.7">Hosted Private Cloud</text>
  <text x="370" y="32" fill="#FFFFFF" font-family="Source Sans Pro" font-size="14" opacity="0.7">Bare Metal Cloud</text>
  <text x="510" y="32" fill="#FFFFFF" font-family="Source Sans Pro" font-size="14" font-weight="600">Web Cloud</text>
  <rect x="505" y="46" width="75" height="3" fill="#FFFFFF"/>
  <text x="620" y="32" fill="#FFFFFF" font-family="Source Sans Pro" font-size="14" opacity="0.7">Network</text>
  <text x="700" y="32" fill="#FFFFFF" font-family="Source Sans Pro" font-size="14" opacity="0.7">IAM / Securite</text>
  <text x="810" y="32" fill="#FFFFFF" font-family="Source Sans Pro" font-size="14" opacity="0.7">Licences</text>
  <rect x="1280" y="12" width="140" height="26" rx="13" fill="rgba(255,255,255,0.2)"/>
  <text x="1320" y="29" fill="#FFFFFF" font-size="12">ab12345-ovh</text>

  <!-- NAV2 - Web Cloud -->
  <rect x="0" y="50" width="1440" height="40" fill="#FFFFFF"/>
  <line x1="0" y1="89" x2="1440" y2="89" stroke="#E5E7EB"/>
  <text x="40" y="75" fill="#6B7280" font-family="Source Sans Pro" font-size="14">Accueil</text>
  <text x="110" y="75" fill="#6B7280" font-family="Source Sans Pro" font-size="14">Domaines et DNS</text>
  <text x="240" y="75" fill="#6B7280" font-family="Source Sans Pro" font-size="14">Hébergement</text>
  <text x="345" y="75" fill="#6B7280" font-family="Source Sans Pro" font-size="14">Wordpress</text>
  <text x="430" y="75" fill="#6B7280" font-family="Source Sans Pro" font-size="14">Emails</text>
  <text x="500" y="75" fill="#0050D7" font-family="Source Sans Pro" font-size="14" font-weight="600">VoIP</text>
  <rect x="495" y="85" width="35" height="3" fill="#0050D7"/>
  <text x="550" y="75" fill="#6B7280" font-family="Source Sans Pro" font-size="14">Accès</text>
  <text x="1350" y="75" fill="#0050D7" font-family="Source Sans Pro" font-size="13">Guides</text>

  <!-- CONTENT AREA -->
  <g transform="translate(0, 105)">
    <g transform="translate(24, 0)">

      <!-- LEFT PANEL -->
      <rect x="0" y="0" width="280" height="765" rx="8" class="bg-white"/>
      <rect x="0" y="0" width="280" height="765" rx="8" class="border"/>

      <rect x="12" y="12" width="256" height="34" rx="4" fill="#F9FAFB" stroke="#E5E7EB"/>
      <text x="26" y="34" class="text-muted" font-size="12">🔍 Rechercher...</text>
      <text x="12" y="68" class="text-muted" font-size="11">3 lignes</text>

      <g transform="translate(6, 80)">
        <rect x="0" y="0" width="268" height="60" rx="6" fill="#E8F0FE"/>
        <text x="12" y="22" class="text-dark" font-size="13" font-weight="500">0033972101234</text>
        <text x="12" y="40" class="text-muted" font-size="11">Bureau Direction</text>
        <rect x="200" y="18" width="46" height="18" rx="9" fill="#DEF7EC"/>
        <text x="223" y="31" fill="#03543F" font-size="10" text-anchor="middle">Actif</text>
      </g>
    </g>

    <g transform="translate(320, 0)">

      <!-- RIGHT PANEL -->
      <rect x="0" y="0" width="1096" height="765" rx="8" class="bg-white"/>
      <rect x="0" y="0" width="1096" height="765" rx="8" class="border"/>

      <g transform="translate(20, 0)">
        <!-- Back link -->
        <text x="0" y="20" class="text-primary" font-size="12">← Retour aux options</text>

        <!-- HEADER PAGE -->
        <text x="0" y="55" class="text-dark" font-size="18" font-weight="600">Affichage du numéro sortant</text>

        <!-- CONTENT -->
        <g transform="translate(0, 80)">
          <!-- Info banner -->
          <rect x="0" y="0" width="1056" height="50" rx="6" class="bg-info"/>
          <text x="20" y="22" class="text-info" font-size="11">ℹ️ Configurez le numéro qui s'affichera chez vos correspondants lors de vos appels sortants.</text>
          <text x="20" y="40" class="text-info" font-size="11">Vous pouvez choisir parmi vos numéros ou masquer votre identité.</text>

          <!-- Current display setting -->
          <g transform="translate(0, 70)">
            <rect x="0" y="0" width="520" height="200" rx="8" class="bg-white"/>
            <rect x="0" y="0" width="520" height="200" rx="8" class="border"/>

            <text x="24" y="30" class="text-dark" font-size="15" font-weight="600">Configuration actuelle</text>

            <g transform="translate(24, 60)">
              <text x="0" y="0" class="text-muted" font-size="11">Mode d'affichage</text>

              <!-- Radio options -->
              <g transform="translate(0, 20)">
                <circle cx="10" cy="10" r="8" fill="#FFFFFF" stroke="#0050D7" stroke-width="2"/>
                <circle cx="10" cy="10" r="4" fill="#0050D7"/>
                <text x="30" y="15" class="text-dark" font-size="12">Afficher le numéro de la ligne</text>
                <text x="30" y="30" class="text-muted" font-size="10">0033972101234</text>
              </g>

              <g transform="translate(0, 60)">
                <circle cx="10" cy="10" r="8" fill="#FFFFFF" stroke="#E5E7EB" stroke-width="2"/>
                <text x="30" y="15" class="text-dark" font-size="12">Afficher un autre numéro</text>
                <text x="30" y="30" class="text-muted" font-size="10">Sélectionner parmi vos numéros</text>
              </g>

              <g transform="translate(0, 100)">
                <circle cx="10" cy="10" r="8" fill="#FFFFFF" stroke="#E5E7EB" stroke-width="2"/>
                <text x="30" y="15" class="text-dark" font-size="12">Masquer le numéro</text>
                <text x="30" y="30" class="text-muted" font-size="10">Numéro masqué (anonyme)</text>
              </g>
            </g>
          </g>

          <!-- Available numbers -->
          <g transform="translate(536, 70)">
            <rect x="0" y="0" width="520" height="200" rx="8" class="bg-white"/>
            <rect x="0" y="0" width="520" height="200" rx="8" class="border"/>

            <text x="24" y="30" class="text-dark" font-size="15" font-weight="600">Numéros disponibles</text>

            <g transform="translate(24, 55)">
              <rect x="0" y="0" width="472" height="40" rx="4" fill="#E8F0FE"/>
              <text x="16" y="25" class="text-dark" font-size="11">0033972101234 (Ligne actuelle)</text>
              <rect x="400" y="10" width="55" height="20" rx="10" class="bg-success"/>
              <text x="427" y="24" fill="#03543F" font-size="9" text-anchor="middle">Actif</text>

              <rect x="0" y="50" width="472" height="40" rx="4" class="border"/>
              <text x="16" y="75" class="text-dark" font-size="11">0033972109999 (Numéro alias)</text>

              <rect x="0" y="100" width="472" height="40" rx="4" class="border"/>
              <text x="16" y="125" class="text-dark" font-size="11">0033972108888 (Standard)</text>
            </g>
          </g>

          <!-- Save section -->
          <g transform="translate(0, 290)">
            <rect x="0" y="0" width="1056" height="80" rx="8" class="bg-success"/>
            <text x="24" y="30" fill="#03543F" font-size="14" font-weight="600">✓ Configuration actuelle : Afficher 0033972101234</text>
            <text x="24" y="55" fill="#059669" font-size="11">Les correspondants verront ce numéro lors de vos appels sortants.</text>
          </g>

          <!-- Action buttons -->
          <g transform="translate(0, 400)">
            <rect x="0" y="0" width="150" height="40" rx="4" class="btn-primary"/>
            <text x="75" y="26" class="text-white" font-size="11" text-anchor="middle">Enregistrer</text>

            <rect x="166" y="0" width="120" height="40" rx="4" class="btn-outline"/>
            <text x="226" y="26" class="text-primary" font-size="11" text-anchor="middle">Annuler</text>
          </g>
        </g>
      </g>
    </g>
  </g>
</svg>
