<svg xmlns="http://www.w3.org/2000/svg" viewBox="0 0 1440 900" width="1440" height="900">
  <defs>
    <style>
      .bg-header { fill: #000E9C; }
      .bg-main { fill: #F6F6F9; }
      .bg-white { fill: #FFFFFF; }
      .bg-primary { fill: #0050D7; }
      .bg-neutral-100 { fill: #F3F4F6; }
      .bg-info { fill: #DBEAFE; }
      .bg-success { fill: #DEF7EC; }
      .bg-warning { fill: #FEF3C7; }
      .border { stroke: #E5E7EB; stroke-width: 1; fill: none; }
      .btn-outline { stroke: #0050D7; stroke-width: 1; fill: #FFFFFF; }
      .btn-primary { fill: #0050D7; }
      .text-white { fill: #FFFFFF; font-family: 'Source Sans Pro', sans-serif; }
      .text-dark { fill: #1F2937; font-family: 'Source Sans Pro', sans-serif; }
      .text-muted { fill: #6B7280; font-family: 'Source Sans Pro', sans-serif; }
      .text-primary { fill: #0050D7; font-family: 'Source Sans Pro', sans-serif; }
      .text-success { fill: #059669; font-family: 'Source Sans Pro', sans-serif; }
      .text-warning { fill: #D97706; font-family: 'Source Sans Pro', sans-serif; }
    </style>
  </defs>

  <!-- Background -->
  <rect width="1440" height="900" class="bg-main"/>

  <!-- NAV1 - Header OVH (Web Cloud actif) -->
  <rect width="1440" height="50" fill="#000E9C"/>
  <text x="40" y="32" fill="#FFFFFF" font-family="Source Sans Pro" font-size="14" opacity="0.7">Accueil</text>
  <text x="110" y="32" fill="#FFFFFF" font-family="Source Sans Pro" font-size="14" opacity="0.7">Public Cloud</text>
  <text x="210" y="32" fill="#FFFFFF" font-family="Source Sans Pro" font-size="14" opacity="0.7">Hosted Private Cloud</text>
  <text x="370" y="32" fill="#FFFFFF" font-family="Source Sans Pro" font-size="14" opacity="0.7">Bare Metal Cloud</text>
  <text x="510" y="32" fill="#FFFFFF" font-family="Source Sans Pro" font-size="14" font-weight="600">Web Cloud</text>
  <rect x="505" y="46" width="75" height="3" fill="#FFFFFF"/>
  <text x="620" y="32" fill="#FFFFFF" font-family="Source Sans Pro" font-size="14" opacity="0.7">Network</text>
  <text x="700" y="32" fill="#FFFFFF" font-family="Source Sans Pro" font-size="14" opacity="0.7">IAM / Securite</text>
  <text x="810" y="32" fill="#FFFFFF" font-family="Source Sans Pro" font-size="14" opacity="0.7">Licences</text>
  <rect x="1280" y="12" width="140" height="26" rx="13" fill="rgba(255,255,255,0.2)"/>
  <rect x="1285" y="15" width="26" height="20" rx="10" fill="#DEF7EC"/>
  <text x="1292" y="29" fill="#03543F" font-size="10" font-weight="600">OK</text>
  <text x="1320" y="29" fill="#FFFFFF" font-size="12">ab12345-ovh</text>

  <!-- NAV2 - Web Cloud (VoIP actif) -->
  <rect x="0" y="50" width="1440" height="40" fill="#FFFFFF"/>
  <line x1="0" y1="89" x2="1440" y2="89" stroke="#E5E7EB"/>
  <text x="40" y="75" fill="#6B7280" font-family="Source Sans Pro" font-size="14">Accueil</text>
  <text x="110" y="75" fill="#6B7280" font-family="Source Sans Pro" font-size="14">Domaines et DNS</text>
  <text x="240" y="75" fill="#6B7280" font-family="Source Sans Pro" font-size="14">Hébergement</text>
  <text x="345" y="75" fill="#6B7280" font-family="Source Sans Pro" font-size="14">Wordpress</text>
  <text x="430" y="75" fill="#6B7280" font-family="Source Sans Pro" font-size="14">Emails</text>
  <text x="500" y="75" fill="#0050D7" font-family="Source Sans Pro" font-size="14" font-weight="600">VoIP</text>
  <rect x="495" y="85" width="35" height="3" fill="#0050D7"/>
  <text x="550" y="75" fill="#6B7280" font-family="Source Sans Pro" font-size="14">Accès</text>
  <text x="1350" y="75" fill="#0050D7" font-family="Source Sans Pro" font-size="13">Guides</text>

  <!-- CONTENT AREA -->
  <g transform="translate(0, 105)">
    <g transform="translate(24, 0)">

      <!-- LEFT PANEL -->
      <rect x="0" y="0" width="280" height="765" rx="8" class="bg-white"/>
      <rect x="0" y="0" width="280" height="765" rx="8" class="border"/>

      <!-- Recherche -->
      <rect x="12" y="12" width="256" height="34" rx="4" fill="#F9FAFB" stroke="#E5E7EB"/>
      <text x="40" y="34" class="text-muted" font-size="12">Rechercher une ligne...</text>
      <text x="26" y="34" class="text-muted" font-size="14">🔍</text>

      <!-- Compteur -->
      <text x="12" y="68" class="text-muted" font-size="11">18 lignes</text>

      <!-- Service item sélectionné -->
      <g transform="translate(6, 80)">
        <rect x="0" y="0" width="268" height="60" rx="6" fill="#E8F0FE"/>
        <text x="16" y="24" class="text-muted" font-size="10">☎️</text>
        <text x="36" y="24" class="text-dark" font-size="12" font-weight="500">0033 9 72 10 12 34</text>
        <text x="36" y="40" class="text-muted" font-size="11">Bureau Direction</text>
        <rect x="200" y="16" width="46" height="18" rx="9" fill="#DEF7EC"/>
        <text x="223" y="29" fill="#03543F" font-size="10" text-anchor="middle">Actif</text>
      </g>

      <!-- Autres items -->
      <g transform="translate(6, 150)">
        <rect x="0" y="0" width="268" height="60" rx="6" fill="#FFFFFF"/>
        <text x="16" y="24" class="text-muted" font-size="10">☎️</text>
        <text x="36" y="24" class="text-dark" font-size="12">0033 9 72 10 12 35</text>
        <text x="36" y="40" class="text-muted" font-size="11">Accueil</text>
      </g>

    </g>

    <g transform="translate(320, 0)">

      <!-- RIGHT PANEL -->
      <rect x="0" y="0" width="1096" height="765" rx="8" class="bg-white"/>
      <rect x="0" y="0" width="1096" height="765" rx="8" class="border"/>

      <g transform="translate(20, 0)">
        <!-- HEADER PAGE -->
        <text x="0" y="24" class="text-dark" font-size="18" font-weight="600">0033 9 72 10 12 34</text>
        <text x="180" y="24" class="text-muted" font-size="12">Bureau Direction · Yealink T46G</text>

        <!-- NAV3 TABS - Lignes (7 tabs) - Transferts actif -->
        <g transform="translate(0, 38)">
          <rect x="0" y="0" width="60" height="26" rx="4" fill="#FFFFFF" stroke="#0050D7"/>
          <text x="30" y="17" fill="#0050D7" font-size="11" text-anchor="middle">Général</text>

          <rect x="64" y="0" width="75" height="26" rx="4" fill="#FFFFFF" stroke="#0050D7"/>
          <text x="101" y="17" fill="#0050D7" font-size="11" text-anchor="middle">Téléphone</text>

          <rect x="143" y="0" width="55" height="26" rx="4" fill="#FFFFFF" stroke="#0050D7"/>
          <text x="170" y="17" fill="#0050D7" font-size="11" text-anchor="middle">Appels</text>

          <rect x="202" y="0" width="75" height="26" rx="4" fill="#0050D7"/>
          <text x="239" y="17" fill="#FFFFFF" font-size="11" text-anchor="middle">Transferts</text>

          <rect x="281" y="0" width="80" height="26" rx="4" fill="#FFFFFF" stroke="#0050D7"/>
          <text x="321" y="17" fill="#0050D7" font-size="11" text-anchor="middle">Messagerie</text>

          <rect x="365" y="0" width="95" height="26" rx="4" fill="#FFFFFF" stroke="#0050D7"/>
          <text x="412" y="17" fill="#0050D7" font-size="11" text-anchor="middle">Consommation</text>

          <rect x="464" y="0" width="60" height="26" rx="4" fill="#FFFFFF" stroke="#0050D7"/>
          <text x="494" y="17" fill="#0050D7" font-size="11" text-anchor="middle">Options</text>
        </g>

        <!-- NAV4 - Sous-tabs Transferts - Inconditionnel actif -->
        <g transform="translate(0, 70)">
          <text x="0" y="14" fill="#0050D7" font-size="12" font-weight="500">Inconditionnel</text>
          <rect x="0" y="18" width="85" height="2" fill="#0050D7"/>

          <text x="105" y="14" fill="#6B7280" font-size="12">Occupation</text>
          <text x="195" y="14" fill="#6B7280" font-size="12">Non-réponse</text>
        </g>

        <!-- CONTENU - Transferts -->
        <g transform="translate(0, 100)">

          <!-- Bannière warning -->
          <rect x="0" y="0" width="1036" height="45" rx="6" fill="#FEF3C7"/>
          <text x="20" y="28" fill="#D97706" font-size="12">⚠️ Le renvoi inconditionnel désactive les autres types de renvoi. Tous les appels seront redirigés.</text>

          <!-- Bloc Configuration -->
          <g transform="translate(0, 60)">
            <rect x="0" y="0" width="500" height="400" rx="6" fill="#FFFFFF" stroke="#E5E7EB"/>
            <text x="16" y="28" class="text-dark" font-size="13" font-weight="600">Renvoi inconditionnel</text>

            <!-- Toggle Activer -->
            <g transform="translate(16, 50)">
              <text x="0" y="14" class="text-muted" font-size="11">Statut</text>
              <g transform="translate(0, 22)">
                <rect x="0" y="0" width="80" height="32" rx="4" fill="#FFFFFF" stroke="#E5E7EB"/>
                <text x="40" y="21" class="text-muted" font-size="11" text-anchor="middle">Désactivé</text>

                <rect x="88" y="0" width="80" height="32" rx="4" fill="#EFF6FF" stroke="#0050D7"/>
                <text x="128" y="21" class="text-primary" font-size="11" text-anchor="middle">Activé</text>
              </g>
            </g>

            <!-- Type destination -->
            <g transform="translate(16, 130)">
              <text x="0" y="0" class="text-muted" font-size="11">Transférer vers</text>
              <rect x="0" y="8" width="250" height="36" rx="4" fill="#FFFFFF" stroke="#E5E7EB"/>
              <text x="12" y="31" class="text-dark" font-size="11">Ligne interne</text>
              <text x="225" y="31" class="text-muted" font-size="10">▼</text>
            </g>

            <!-- Numéro destination -->
            <g transform="translate(16, 200)">
              <text x="0" y="0" class="text-muted" font-size="11">Numéro de destination</text>
              <rect x="0" y="8" width="350" height="36" rx="4" fill="#FFFFFF" stroke="#E5E7EB"/>
              <text x="12" y="31" class="text-dark" font-size="11">0033 1 23 45 67 90</text>
            </g>

            <!-- Lien appliquer à plusieurs -->
            <g transform="translate(16, 270)">
              <line x1="0" y1="0" x2="468" y2="0" stroke="#E5E7EB"/>
              <text x="0" y="24" class="text-primary" font-size="11">Appliquer à plusieurs lignes</text>
            </g>

            <!-- Boutons -->
            <g transform="translate(16, 320)">
              <rect x="0" y="0" width="100" height="36" rx="4" fill="#0050D7"/>
              <text x="50" y="23" fill="#FFFFFF" font-size="11" text-anchor="middle">Valider</text>

              <text x="120" y="23" class="text-primary" font-size="11">Annuler</text>
            </g>
          </g>

          <!-- Panneau explicatif -->
          <g transform="translate(520, 60)">
            <rect x="0" y="0" width="516" height="260" rx="6" fill="#FFFFFF" stroke="#E5E7EB"/>
            <text x="16" y="28" class="text-dark" font-size="13" font-weight="600">Types de renvoi</text>

            <g transform="translate(16, 55)">
              <text x="0" y="0" class="text-dark" font-size="12" font-weight="500">Inconditionnel</text>
              <text x="0" y="18" class="text-muted" font-size="11">Tous les appels sont redirigés vers la destination.</text>
            </g>

            <g transform="translate(16, 105)">
              <text x="0" y="0" class="text-dark" font-size="12" font-weight="500">Non-réponse</text>
              <text x="0" y="18" class="text-muted" font-size="11">Après un délai sans réponse (configurable 5-60 sec).</text>
            </g>

            <g transform="translate(16, 155)">
              <text x="0" y="0" class="text-dark" font-size="12" font-weight="500">Occupation</text>
              <text x="0" y="18" class="text-muted" font-size="11">Quand la ligne est occupée par un autre appel.</text>
            </g>

            <g transform="translate(16, 205)">
              <text x="0" y="0" class="text-dark" font-size="12" font-weight="500">Indisponibilité</text>
              <text x="0" y="18" class="text-muted" font-size="11">Quand le téléphone est hors ligne ou injoignable.</text>
            </g>
          </g>

          <!-- Bannière info -->
          <g transform="translate(0, 480)">
            <rect x="0" y="0" width="1036" height="40" rx="6" fill="#DBEAFE"/>
            <text x="20" y="25" fill="#1E40AF" font-size="12">ℹ️ Les renvois peuvent être combinés (sauf inconditionnel). Configurez chaque type dans les sous-onglets.</text>
          </g>

        </g>
      </g>

    </g>
  </g>
</svg>
