<svg xmlns="http://www.w3.org/2000/svg" viewBox="0 0 1440 900" width="1440" height="900">
  <defs>
    <style>
      .bg-header { fill: #000E9C; }
      .bg-main { fill: #F6F6F9; }
      .bg-white { fill: #FFFFFF; }
      .bg-primary { fill: #0050D7; }
      .bg-neutral-100 { fill: #F3F4F6; }
      .bg-success { fill: #DEF7EC; }
      .border { stroke: #E5E7EB; stroke-width: 1; fill: none; }
      .btn-outline { stroke: #0050D7; stroke-width: 1; fill: #FFFFFF; }
      .text-white { fill: #FFFFFF; font-family: 'Source Sans Pro', sans-serif; }
      .text-dark { fill: #1F2937; font-family: 'Source Sans Pro', sans-serif; }
      .text-muted { fill: #6B7280; font-family: 'Source Sans Pro', sans-serif; }
      .text-primary { fill: #0050D7; font-family: 'Source Sans Pro', sans-serif; }
      .text-success { fill: #059669; font-family: 'Source Sans Pro', sans-serif; }
    </style>
  </defs>

  <rect width="1440" height="900" class="bg-main"/>

  <!-- NAV1 -->
  <rect width="1440" height="50" class="bg-header"/>
  <text x="40" y="32" class="text-white" font-size="14" opacity="0.7">Accueil</text>
  <text x="510" y="32" class="text-white" font-size="14" font-weight="600">Web Cloud</text>
  <rect x="505" y="46" width="75" height="3" fill="#FFFFFF"/>

  <!-- NAV2 -->
  <rect x="0" y="50" width="1440" height="40" fill="#FFFFFF"/>
  <line x1="0" y1="89" x2="1440" y2="89" stroke="#E5E7EB"/>
  <text x="500" y="75" class="text-primary" font-size="14" font-weight="600">VoIP</text>
  <rect x="495" y="85" width="35" height="3" fill="#0050D7"/>

  <!-- CONTENT -->
  <g transform="translate(0, 105)">
    <g transform="translate(24, 0)">
      <!-- LEFT PANEL -->
      <rect x="0" y="0" width="280" height="765" rx="8" class="bg-white"/>
      <rect x="0" y="0" width="280" height="765" rx="8" class="border"/>
      <rect x="12" y="12" width="256" height="34" rx="4" fill="#F9FAFB" stroke="#E5E7EB"/>
      <text x="26" y="34" class="text-muted" font-size="12">🔍 Rechercher...</text>
      <g transform="translate(6, 80)">
        <rect x="0" y="0" width="268" height="60" rx="6" fill="#E8F0FE"/>
        <text x="16" y="24" class="text-dark" font-size="13" font-weight="500">0033972101234</text>
        <text x="16" y="42" class="text-muted" font-size="11">Bureau Direction</text>
      </g>
    </g>

    <g transform="translate(320, 0)">
      <rect x="0" y="0" width="1096" height="765" rx="8" class="bg-white"/>
      <rect x="0" y="0" width="1096" height="765" rx="8" class="border"/>

      <g transform="translate(20, 0)">
        <text x="0" y="28" class="text-dark" font-size="18" font-weight="600">0033972101234 - Bureau Direction</text>

        <!-- NAV3 TABS -->
        <g transform="translate(0, 42)">
          <rect x="0" y="0" width="60" height="26" rx="4" fill="#FFFFFF" stroke="#0050D7"/>
          <text x="30" y="17" class="text-primary" font-size="11" text-anchor="middle">Général</text>
          <rect x="64" y="0" width="75" height="26" rx="4" fill="#0050D7"/>
          <text x="101" y="17" class="text-white" font-size="11" text-anchor="middle">Téléphone</text>
          <rect x="143" y="0" width="55" height="26" rx="4" fill="#FFFFFF" stroke="#0050D7"/>
          <text x="170" y="17" class="text-primary" font-size="11" text-anchor="middle">Appels</text>
        </g>

        <!-- NAV4 -->
        <g transform="translate(0, 78)">
          <text x="0" y="14" class="text-primary" font-size="12" font-weight="500">Tableau de bord</text>
          <rect x="0" y="18" width="95" height="2" fill="#0050D7"/>
          <text x="110" y="14" class="text-muted" font-size="12">Configuration</text>
          <text x="200" y="14" class="text-muted" font-size="12">Codec</text>
          <text x="255" y="14" class="text-muted" font-size="12">Accessoires</text>
        </g>

        <!-- Phone Info -->
        <g transform="translate(0, 115)">
          <rect x="0" y="0" width="450" height="180" rx="8" fill="#FFFFFF" stroke="#E5E7EB"/>
          <g transform="translate(20, 20)">
            <rect x="0" y="0" width="70" height="90" rx="8" class="bg-neutral-100"/>
            <text x="35" y="50" class="text-muted" font-size="24" text-anchor="middle">📞</text>
          </g>
          <g transform="translate(110, 25)">
            <text x="0" y="0" class="text-dark" font-size="14" font-weight="600">Yealink T46U</text>
            <text x="0" y="20" class="text-muted" font-size="11">Téléphone IP</text>
            <g transform="translate(0, 45)">
              <text x="0" y="0" class="text-muted" font-size="10">Adresse MAC</text>
              <text x="0" y="16" class="text-dark" font-size="12">00:15:65:A1:B2:C3</text>
            </g>
            <g transform="translate(0, 85)">
              <text x="0" y="0" class="text-muted" font-size="10">Version firmware</text>
              <text x="0" y="16" class="text-dark" font-size="12">86.0.0.150</text>
            </g>
          </g>
        </g>

        <!-- Actions List -->
        <g transform="translate(0, 310)">
          <rect x="0" y="0" width="450" height="340" rx="8" fill="#FFFFFF" stroke="#E5E7EB"/>
          <text x="20" y="28" class="text-dark" font-size="13" font-weight="600">Actions</text>

          <g transform="translate(20, 45)">
            <rect x="0" y="0" width="410" height="42" rx="4" fill="#FFFFFF" stroke="#E5E7EB"/>
            <text x="15" y="27" class="text-primary" font-size="12">Configuration du téléphone</text>
            <text x="390" y="27" class="text-muted" font-size="12">›</text>
          </g>

          <g transform="translate(20, 95)">
            <rect x="0" y="0" width="410" height="42" rx="4" fill="#FFFFFF" stroke="#E5E7EB"/>
            <text x="15" y="27" class="text-primary" font-size="12">Modifier le codec</text>
            <text x="390" y="27" class="text-muted" font-size="12">›</text>
          </g>

          <g transform="translate(20, 145)">
            <rect x="0" y="0" width="410" height="42" rx="4" fill="#FFFFFF" stroke="#E5E7EB"/>
            <text x="15" y="27" class="text-primary" font-size="12">Carnet d'adresses</text>
            <text x="390" y="27" class="text-muted" font-size="12">›</text>
          </g>

          <g transform="translate(20, 195)">
            <rect x="0" y="0" width="410" height="42" rx="4" fill="#FFFFFF" stroke="#E5E7EB"/>
            <text x="15" y="27" class="text-primary" font-size="12">Commander des accessoires</text>
            <text x="390" y="27" class="text-muted" font-size="12">›</text>
          </g>

          <g transform="translate(20, 245)">
            <rect x="0" y="0" width="410" height="42" rx="4" fill="#FFFFFF" stroke="#E5E7EB"/>
            <text x="15" y="27" class="text-primary" font-size="12">Attacher une autre ligne</text>
            <text x="390" y="27" class="text-muted" font-size="12">›</text>
          </g>

          <g transform="translate(20, 295)">
            <rect x="0" y="0" width="410" height="42" rx="4" fill="#FFFFFF" stroke="#E5E7EB"/>
            <text x="15" y="27" class="text-primary" font-size="12">Détacher le téléphone</text>
            <text x="390" y="27" class="text-muted" font-size="12">›</text>
          </g>
        </g>

        <!-- Right Details -->
        <g transform="translate(480, 115)">
          <rect x="0" y="0" width="540" height="300" rx="8" fill="#FFFFFF" stroke="#E5E7EB"/>
          <text x="20" y="28" class="text-dark" font-size="13" font-weight="600">Détails du téléphone</text>

          <g transform="translate(20, 50)">
            <text x="0" y="0" class="text-muted" font-size="10">Modèle</text>
            <text x="0" y="18" class="text-dark" font-size="12">Yealink T46U</text>
          </g>

          <g transform="translate(20, 90)">
            <text x="0" y="0" class="text-muted" font-size="10">Protocole</text>
            <text x="0" y="18" class="text-dark" font-size="12">SIP</text>
          </g>

          <g transform="translate(20, 130)">
            <text x="0" y="0" class="text-muted" font-size="10">Adresse IP</text>
            <text x="0" y="18" class="text-dark" font-size="12">192.168.1.150</text>
          </g>

          <g transform="translate(20, 170)">
            <text x="0" y="0" class="text-muted" font-size="10">Ligne associée</text>
            <text x="0" y="18" class="text-dark" font-size="12">+33 1 72 10 00 01</text>
          </g>

          <g transform="translate(20, 210)">
            <text x="0" y="0" class="text-muted" font-size="10">Statut</text>
            <rect x="0" y="10" width="65" height="20" rx="10" class="bg-success"/>
            <text x="32" y="24" fill="#03543F" font-size="10" text-anchor="middle">Connecté</text>
          </g>
        </g>
      </g>
    </g>
  </g>
</svg>
