<svg xmlns="http://www.w3.org/2000/svg" viewBox="0 0 1440 900" width="1440" height="900">
  <defs>
    <style>
      .bg-header { fill: #000E9C; }
      .bg-main { fill: #F6F6F9; }
      .bg-white { fill: #FFFFFF; }
      .bg-primary { fill: #0050D7; }
      .bg-neutral-100 { fill: #F3F4F6; }
      .bg-success { fill: #DEF7EC; }
      .bg-error { fill: #FEE2E2; }
      .border { stroke: #E5E7EB; stroke-width: 1; fill: none; }
      .btn-outline { stroke: #0050D7; stroke-width: 1; fill: #FFFFFF; }
      .btn-primary { fill: #0050D7; }
      .btn-danger { fill: #DC2626; }
      .step-done { fill: #16A34A; }
      .step-pending { fill: #E5E7EB; }
      .text-white { fill: #FFFFFF; font-family: 'Source Sans Pro', sans-serif; }
      .text-dark { fill: #1F2937; font-family: 'Source Sans Pro', sans-serif; }
      .text-muted { fill: #6B7280; font-family: 'Source Sans Pro', sans-serif; }
      .text-primary { fill: #0050D7; font-family: 'Source Sans Pro', sans-serif; }
      .text-success { fill: #059669; font-family: 'Source Sans Pro', sans-serif; }
      .text-error { fill: #DC2626; font-family: 'Source Sans Pro', sans-serif; }
    </style>
  </defs>

  <rect width="1440" height="900" class="bg-main"/>

  <!-- NAV1 -->
  <rect width="1440" height="50" class="bg-header"/>
  <text x="40" y="32" class="text-white" font-size="14" opacity="0.7">Accueil</text>
  <text x="510" y="32" class="text-white" font-size="14" font-weight="600">Web Cloud</text>
  <rect x="505" y="46" width="75" height="3" fill="#FFFFFF"/>

  <!-- NAV2 -->
  <rect x="0" y="50" width="1440" height="40" fill="#FFFFFF"/>
  <line x1="0" y1="89" x2="1440" y2="89" stroke="#E5E7EB"/>
  <text x="500" y="75" class="text-primary" font-size="14" font-weight="600">VoIP</text>
  <rect x="495" y="85" width="35" height="3" fill="#0050D7"/>

  <!-- CONTENT -->
  <g transform="translate(0, 105)">
    <g transform="translate(24, 0)">
      <!-- LEFT PANEL -->
      <rect x="0" y="0" width="280" height="765" rx="8" class="bg-white"/>
      <rect x="0" y="0" width="280" height="765" rx="8" class="border"/>
      <rect x="12" y="12" width="256" height="34" rx="4" fill="#F9FAFB" stroke="#E5E7EB"/>
      <text x="26" y="34" class="text-muted" font-size="12">🔍 Rechercher...</text>
      <g transform="translate(6, 80)">
        <rect x="0" y="0" width="268" height="60" rx="6" fill="#E8F0FE"/>
        <text x="16" y="24" class="text-dark" font-size="13" font-weight="500">0033972101234</text>
        <text x="16" y="42" class="text-muted" font-size="11">Bureau Direction</text>
      </g>
    </g>

    <g transform="translate(320, 0)">
      <rect x="0" y="0" width="1096" height="765" rx="8" class="bg-white"/>
      <rect x="0" y="0" width="1096" height="765" rx="8" class="border"/>

      <g transform="translate(20, 0)">
        <text x="0" y="28" class="text-dark" font-size="18" font-weight="600">0033972101234 - Bureau Direction</text>

        <!-- NAV3 TABS -->
        <g transform="translate(0, 42)">
          <rect x="0" y="0" width="60" height="26" rx="4" fill="#FFFFFF" stroke="#0050D7"/>
          <text x="30" y="17" class="text-primary" font-size="11" text-anchor="middle">Général</text>
          <rect x="64" y="0" width="75" height="26" rx="4" fill="#0050D7"/>
          <text x="101" y="17" class="text-white" font-size="11" text-anchor="middle">Téléphone</text>
          <rect x="143" y="0" width="55" height="26" rx="4" fill="#FFFFFF" stroke="#0050D7"/>
          <text x="170" y="17" class="text-primary" font-size="11" text-anchor="middle">Appels</text>
        </g>

        <!-- NAV4 -->
        <g transform="translate(0, 78)">
          <text x="0" y="14" class="text-muted" font-size="12">Tableau de bord</text>
          <text x="110" y="14" class="text-muted" font-size="12">Configuration</text>
          <text x="200" y="14" class="text-muted" font-size="12">Codec</text>
          <text x="255" y="14" class="text-primary" font-size="12" font-weight="500">Assistance</text>
          <rect x="255" y="18" width="60" height="2" fill="#0050D7"/>
        </g>

        <!-- Page Title -->
        <g transform="translate(0, 110)">
          <text x="0" y="0" class="text-primary" font-size="11">‹ Retour à l'assistance</text>
          <text x="0" y="28" class="text-dark" font-size="16" font-weight="600">Demande RMA #123456</text>
        </g>

        <!-- RMA Details Card -->
        <g transform="translate(0, 155)">
          <rect x="0" y="0" width="500" height="200" rx="8" fill="#FFFFFF" stroke="#E5E7EB"/>
          <rect x="0" y="0" width="500" height="38" rx="8 8 0 0" fill="#F9FAFB"/>
          <text x="20" y="25" class="text-dark" font-size="12" font-weight="600">Détails de la demande</text>

          <g transform="translate(20, 55)">
            <text x="0" y="0" class="text-muted" font-size="10">Type</text>
            <text x="130" y="0" class="text-dark" font-size="11">Échange standard</text>
          </g>

          <g transform="translate(20, 80)">
            <text x="0" y="0" class="text-muted" font-size="10">Équipement</text>
            <text x="130" y="0" class="text-dark" font-size="11">Cisco SPA504G</text>
          </g>

          <g transform="translate(20, 105)">
            <text x="0" y="0" class="text-muted" font-size="10">Nouvel équipement</text>
            <text x="130" y="0" class="text-dark" font-size="11">Cisco SPA504G</text>
          </g>

          <g transform="translate(20, 135)">
            <text x="0" y="0" class="text-muted" font-size="10">Adresse livraison</text>
            <text x="130" y="0" class="text-dark" font-size="11">Jean Dupont - 123 Rue de la Paix</text>
            <text x="130" y="16" class="text-dark" font-size="11">75001 PARIS</text>
          </g>
        </g>

        <!-- Progress Tracker -->
        <g transform="translate(0, 375)">
          <rect x="0" y="0" width="500" height="320" rx="8" fill="#FFFFFF" stroke="#E5E7EB"/>
          <text x="20" y="28" class="text-dark" font-size="12" font-weight="600">Suivi de la demande</text>

          <g transform="translate(20, 55)">
            <!-- Step 1: Done -->
            <g>
              <circle cx="12" cy="12" r="10" class="step-done"/>
              <text x="12" y="16" fill="#FFFFFF" font-size="10" text-anchor="middle">✓</text>
              <text x="35" y="16" class="text-dark" font-size="11">Demande créée</text>
              <text x="380" y="16" class="text-muted" font-size="10">15/01/2025 10:30</text>
            </g>

            <!-- Step 2: Done -->
            <g transform="translate(0, 45)">
              <line x1="12" y1="-30" x2="12" y2="0" stroke="#16A34A" stroke-width="2"/>
              <circle cx="12" cy="12" r="10" class="step-done"/>
              <text x="12" y="16" fill="#FFFFFF" font-size="10" text-anchor="middle">✓</text>
              <text x="35" y="16" class="text-dark" font-size="11">Validation OVHcloud</text>
              <text x="380" y="16" class="text-muted" font-size="10">15/01/2025 14:15</text>
            </g>

            <!-- Step 3: Done -->
            <g transform="translate(0, 90)">
              <line x1="12" y1="-30" x2="12" y2="0" stroke="#16A34A" stroke-width="2"/>
              <circle cx="12" cy="12" r="10" class="step-done"/>
              <text x="12" y="16" fill="#FFFFFF" font-size="10" text-anchor="middle">✓</text>
              <text x="35" y="16" class="text-dark" font-size="11">Expédition du matériel</text>
              <text x="380" y="16" class="text-muted" font-size="10">16/01/2025 09:00</text>
            </g>

            <!-- Step 4: Pending -->
            <g transform="translate(0, 135)">
              <line x1="12" y1="-30" x2="12" y2="0" stroke="#E5E7EB" stroke-width="2"/>
              <circle cx="12" cy="12" r="10" fill="#FFFFFF" stroke="#E5E7EB" stroke-width="2"/>
              <text x="35" y="16" class="text-muted" font-size="11">Livraison</text>
            </g>

            <!-- Step 5: Pending -->
            <g transform="translate(0, 180)">
              <line x1="12" y1="-30" x2="12" y2="0" stroke="#E5E7EB" stroke-width="2"/>
              <circle cx="12" cy="12" r="10" fill="#FFFFFF" stroke="#E5E7EB" stroke-width="2"/>
              <text x="35" y="16" class="text-muted" font-size="11">Réception ancien matériel</text>
            </g>
          </g>

          <!-- Actions -->
          <g transform="translate(20, 260)">
            <rect x="0" y="0" width="130" height="32" rx="4" class="btn-outline"/>
            <text x="65" y="21" class="text-primary" font-size="10" text-anchor="middle">Télécharger PDF</text>

            <rect x="145" y="0" width="110" height="32" rx="4" class="btn-danger"/>
            <text x="200" y="21" class="text-white" font-size="10" text-anchor="middle">Annuler RMA</text>
          </g>
        </g>

        <!-- Right: Contact Info -->
        <g transform="translate(520, 155)">
          <rect x="0" y="0" width="520" height="140" rx="8" fill="#FFFFFF" stroke="#E5E7EB"/>
          <text x="20" y="28" class="text-dark" font-size="12" font-weight="600">Contact de livraison</text>

          <g transform="translate(20, 55)">
            <text x="0" y="0" class="text-muted" font-size="10">Email</text>
            <text x="100" y="0" class="text-dark" font-size="11">jean.dupont@email.com</text>
          </g>

          <g transform="translate(20, 80)">
            <text x="0" y="0" class="text-muted" font-size="10">Téléphone</text>
            <text x="100" y="0" class="text-dark" font-size="11">+33 6 12 34 56 78</text>
          </g>
        </g>
      </g>
    </g>
  </g>
</svg>
