<svg xmlns="http://www.w3.org/2000/svg" viewBox="0 0 1440 900" width="1440" height="900">
  <defs>
    <style>
      .bg-header { fill: #000E9C; }
      .bg-main { fill: #F6F6F9; }
      .bg-white { fill: #FFFFFF; }
      .bg-primary { fill: #0050D7; }
      .bg-neutral-100 { fill: #F3F4F6; }
      .bg-info { fill: #DBEAFE; }
      .bg-success { fill: #DEF7EC; }
      .bg-error { fill: #FEE2E2; }
      .bg-warning { fill: #FEF3C7; }
      .border { stroke: #E5E7EB; stroke-width: 1; fill: none; }
      .divider { stroke: #E5E7EB; stroke-width: 1; }
      .btn-outline { stroke: #0050D7; stroke-width: 1; fill: #FFFFFF; }
      .btn-primary { fill: #0050D7; }
      .btn-disabled { fill: #E5E7EB; }
      .row-selected { fill: #E8F0FE; }
      .table-header { fill: #F9FAFB; }
      .text-white { fill: #FFFFFF; font-family: 'Source Sans Pro', sans-serif; }
      .text-dark { fill: #1F2937; font-family: 'Source Sans Pro', sans-serif; }
      .text-muted { fill: #6B7280; font-family: 'Source Sans Pro', sans-serif; }
      .text-primary { fill: #0050D7; font-family: 'Source Sans Pro', sans-serif; }
      .text-success { fill: #059669; font-family: 'Source Sans Pro', sans-serif; }
      .text-error { fill: #DC2626; font-family: 'Source Sans Pro', sans-serif; }
      .text-info { fill: #1E40AF; font-family: 'Source Sans Pro', sans-serif; }
      .text-warning { fill: #D97706; font-family: 'Source Sans Pro', sans-serif; }
    </style>
  </defs>

  <!-- Background -->
  <rect width="1440" height="900" class="bg-main"/>

  <!-- NAV1 - Header OVH (Web Cloud actif) -->
  <rect width="1440" height="50" class="bg-header"/>
  <text x="40" y="32" class="text-white" font-size="14" opacity="0.7">Accueil</text>
  <text x="110" y="32" class="text-white" font-size="14" opacity="0.7">Public Cloud</text>
  <text x="210" y="32" class="text-white" font-size="14" opacity="0.7">Hosted Private Cloud</text>
  <text x="370" y="32" class="text-white" font-size="14" opacity="0.7">Bare Metal Cloud</text>
  <text x="510" y="32" class="text-white" font-size="14" font-weight="600">Web Cloud</text>
  <rect x="505" y="46" width="75" height="3" fill="#FFFFFF"/>
  <text x="620" y="32" class="text-white" font-size="14" opacity="0.7">Network</text>
  <text x="700" y="32" class="text-white" font-size="14" opacity="0.7">IAM / Securite</text>
  <text x="810" y="32" class="text-white" font-size="14" opacity="0.7">Licences</text>
  <rect x="1280" y="12" width="140" height="26" rx="13" fill="rgba(255,255,255,0.2)"/>
  <text x="1320" y="29" class="text-white" font-size="12">xx1234-ovh</text>

  <!-- NAV2 - Web Cloud (VoIP actif) -->
  <rect x="0" y="50" width="1440" height="40" fill="#FFFFFF"/>
  <line x1="0" y1="89" x2="1440" y2="89" stroke="#E5E7EB"/>
  <text x="40" y="75" class="text-muted" font-size="14">Accueil</text>
  <text x="110" y="75" class="text-muted" font-size="14">Domaines et DNS</text>
  <text x="240" y="75" class="text-muted" font-size="14">Hébergement</text>
  <text x="345" y="75" class="text-muted" font-size="14">Wordpress</text>
  <text x="430" y="75" class="text-muted" font-size="14">Emails</text>
  <text x="500" y="75" class="text-primary" font-size="14" font-weight="600">VoIP</text>
  <rect x="495" y="85" width="35" height="3" fill="#0050D7"/>
  <text x="550" y="75" class="text-muted" font-size="14">Accès</text>
  <text x="1350" y="75" class="text-primary" font-size="13">Guides</text>

  <!-- CONTENT AREA -->
  <g transform="translate(0, 105)">
    <g transform="translate(24, 0)">

      <!-- LEFT PANEL -->
      <rect x="0" y="0" width="280" height="765" rx="8" class="bg-white"/>
      <rect x="0" y="0" width="280" height="765" rx="8" class="border"/>

      <!-- Recherche -->
      <rect x="12" y="12" width="256" height="34" rx="4" fill="#F9FAFB" stroke="#E5E7EB"/>
      <text x="26" y="34" class="text-muted" font-size="12">🔍 Rechercher...</text>

      <!-- Compteur -->
      <text x="12" y="68" class="text-muted" font-size="11">8 lignes</text>

      <!-- Service item sélectionné -->
      <g transform="translate(6, 80)">
        <rect x="0" y="0" width="268" height="60" rx="6" fill="#E8F0FE"/>
        <text x="16" y="24" class="text-dark" font-size="13" font-weight="500">0033972101234</text>
        <text x="16" y="42" class="text-muted" font-size="11">Bureau Direction · Actif</text>
        <rect x="200" y="16" width="46" height="18" rx="9" fill="#DEF7EC"/>
        <text x="223" y="29" fill="#03543F" font-size="10" text-anchor="middle">Actif</text>
      </g>

      <!-- Autres services -->
      <g transform="translate(6, 145)">
        <rect x="0" y="0" width="268" height="60" rx="6" fill="#FFFFFF"/>
        <text x="16" y="24" class="text-dark" font-size="13">0033972101235</text>
        <text x="16" y="42" class="text-muted" font-size="11">Accueil · Actif</text>
      </g>

      <g transform="translate(6, 210)">
        <rect x="0" y="0" width="268" height="60" rx="6" fill="#FFFFFF"/>
        <text x="16" y="24" class="text-dark" font-size="13">0033972101236</text>
        <text x="16" y="42" class="text-muted" font-size="11">Commercial · Actif</text>
      </g>
    </g>

    <g transform="translate(320, 0)">

      <!-- RIGHT PANEL -->
      <rect x="0" y="0" width="1096" height="765" rx="8" class="bg-white"/>
      <rect x="0" y="0" width="1096" height="765" rx="8" class="border"/>

      <g transform="translate(20, 0)">
        <!-- HEADER PAGE -->
        <text x="0" y="28" class="text-dark" font-size="18" font-weight="600">0033972101234 - Bureau Direction</text>

        <!-- NAV3 TABS -->
        <g transform="translate(0, 42)">
          <rect x="0" y="0" width="60" height="26" rx="4" fill="#FFFFFF" stroke="#0050D7"/>
          <text x="30" y="17" class="text-primary" font-size="11" text-anchor="middle">Général</text>

          <rect x="64" y="0" width="75" height="26" rx="4" fill="#FFFFFF" stroke="#0050D7"/>
          <text x="101" y="17" class="text-primary" font-size="11" text-anchor="middle">Téléphone</text>

          <rect x="143" y="0" width="55" height="26" rx="4" fill="#0050D7"/>
          <text x="170" y="17" class="text-white" font-size="11" text-anchor="middle">Appels</text>

          <rect x="202" y="0" width="75" height="26" rx="4" fill="#FFFFFF" stroke="#0050D7"/>
          <text x="239" y="17" class="text-primary" font-size="11" text-anchor="middle">Transferts</text>

          <rect x="281" y="0" width="80" height="26" rx="4" fill="#FFFFFF" stroke="#0050D7"/>
          <text x="321" y="17" class="text-primary" font-size="11" text-anchor="middle">Messagerie</text>

          <rect x="365" y="0" width="95" height="26" rx="4" fill="#FFFFFF" stroke="#0050D7"/>
          <text x="412" y="17" class="text-primary" font-size="11" text-anchor="middle">Consommation</text>

          <rect x="464" y="0" width="60" height="26" rx="4" fill="#FFFFFF" stroke="#0050D7"/>
          <text x="494" y="17" class="text-primary" font-size="11" text-anchor="middle">Options</text>
        </g>

        <!-- NAV4 SOUS-TABS -->
        <g transform="translate(0, 78)">
          <text x="0" y="14" class="text-muted" font-size="12">Historique</text>
          <text x="80" y="14" class="text-muted" font-size="12">Filtrage entrant</text>
          <text x="185" y="14" class="text-muted" font-size="12">Filtrage sortant</text>
          <text x="295" y="14" class="text-primary" font-size="12" font-weight="500">Numéros abrégés</text>
          <rect x="295" y="18" width="110" height="2" fill="#0050D7"/>
        </g>

        <!-- CONTENU PAGE - Numéros abrégés -->
        <g transform="translate(0, 110)">
          <!-- Description -->
          <text x="0" y="16" class="text-muted" font-size="12">Les numéros abrégés permettent de composer rapidement vos contacts avec un code court (ex: *10).</text>

          <!-- Toolbar -->
          <g transform="translate(0, 40)">
            <rect x="0" y="0" width="120" height="32" rx="4" class="btn-primary"/>
            <text x="60" y="21" class="text-white" font-size="11" text-anchor="middle">+ Ajouter</text>

            <rect x="128" y="0" width="120" height="32" rx="4" class="btn-outline"/>
            <text x="188" y="21" class="text-primary" font-size="11" text-anchor="middle">📥 Importer CSV</text>

            <rect x="256" y="0" width="120" height="32" rx="4" class="btn-outline"/>
            <text x="316" y="21" class="text-primary" font-size="11" text-anchor="middle">📤 Exporter CSV</text>

            <rect x="700" y="0" width="250" height="32" rx="4" fill="#F9FAFB" stroke="#E5E7EB"/>
            <text x="715" y="21" class="text-muted" font-size="11">🔍 Rechercher...</text>
          </g>

          <!-- Table -->
          <g transform="translate(0, 90)">
            <!-- Header -->
            <rect x="0" y="0" width="1020" height="40" class="table-header" rx="4 4 0 0"/>
            <text x="20" y="26" class="text-dark" font-size="11" font-weight="600">Code</text>
            <text x="120" y="26" class="text-dark" font-size="11" font-weight="600">Numéro de destination</text>
            <text x="350" y="26" class="text-dark" font-size="11" font-weight="600">Nom</text>
            <text x="550" y="26" class="text-dark" font-size="11" font-weight="600">Prénom</text>
            <text x="750" y="26" class="text-dark" font-size="11" font-weight="600">Actions</text>

            <!-- Row 1 -->
            <g transform="translate(0, 40)">
              <rect x="0" y="0" width="1020" height="45" fill="#FFFFFF" stroke="#E5E7EB"/>
              <text x="20" y="28" class="text-dark" font-size="11" font-weight="600">*10</text>
              <text x="120" y="28" class="text-dark" font-size="11">+33 1 72 10 00 50</text>
              <text x="350" y="28" class="text-dark" font-size="11">Dupont</text>
              <text x="550" y="28" class="text-dark" font-size="11">Jean</text>
              <g transform="translate(750, 10)">
                <rect x="0" y="0" width="28" height="26" rx="4" fill="#FFFFFF" stroke="#E5E7EB"/>
                <text x="14" y="17" class="text-muted" font-size="11" text-anchor="middle">✎</text>
                <rect x="32" y="0" width="28" height="26" rx="4" fill="#FFFFFF" stroke="#E5E7EB"/>
                <text x="46" y="17" class="text-error" font-size="11" text-anchor="middle">×</text>
              </g>
            </g>

            <!-- Row 2 -->
            <g transform="translate(0, 85)">
              <rect x="0" y="0" width="1020" height="45" fill="#FFFFFF" stroke="#E5E7EB"/>
              <text x="20" y="28" class="text-dark" font-size="11" font-weight="600">*11</text>
              <text x="120" y="28" class="text-dark" font-size="11">+33 6 12 34 56 78</text>
              <text x="350" y="28" class="text-dark" font-size="11">Martin</text>
              <text x="550" y="28" class="text-dark" font-size="11">Marie</text>
              <g transform="translate(750, 10)">
                <rect x="0" y="0" width="28" height="26" rx="4" fill="#FFFFFF" stroke="#E5E7EB"/>
                <text x="14" y="17" class="text-muted" font-size="11" text-anchor="middle">✎</text>
                <rect x="32" y="0" width="28" height="26" rx="4" fill="#FFFFFF" stroke="#E5E7EB"/>
                <text x="46" y="17" class="text-error" font-size="11" text-anchor="middle">×</text>
              </g>
            </g>

            <!-- Row 3 -->
            <g transform="translate(0, 130)">
              <rect x="0" y="0" width="1020" height="45" fill="#FFFFFF" stroke="#E5E7EB"/>
              <text x="20" y="28" class="text-dark" font-size="11" font-weight="600">*12</text>
              <text x="120" y="28" class="text-dark" font-size="11">+33 8 00 10 20 30</text>
              <text x="350" y="28" class="text-dark" font-size="11">Support</text>
              <text x="550" y="28" class="text-dark" font-size="11">Technique</text>
              <g transform="translate(750, 10)">
                <rect x="0" y="0" width="28" height="26" rx="4" fill="#FFFFFF" stroke="#E5E7EB"/>
                <text x="14" y="17" class="text-muted" font-size="11" text-anchor="middle">✎</text>
                <rect x="32" y="0" width="28" height="26" rx="4" fill="#FFFFFF" stroke="#E5E7EB"/>
                <text x="46" y="17" class="text-error" font-size="11" text-anchor="middle">×</text>
              </g>
            </g>

            <!-- Row 4 -->
            <g transform="translate(0, 175)">
              <rect x="0" y="0" width="1020" height="45" fill="#FFFFFF" stroke="#E5E7EB"/>
              <text x="20" y="28" class="text-dark" font-size="11" font-weight="600">*13</text>
              <text x="120" y="28" class="text-dark" font-size="11">+33 1 72 10 00 60</text>
              <text x="350" y="28" class="text-dark" font-size="11">Accueil</text>
              <text x="550" y="28" class="text-dark" font-size="11">-</text>
              <g transform="translate(750, 10)">
                <rect x="0" y="0" width="28" height="26" rx="4" fill="#FFFFFF" stroke="#E5E7EB"/>
                <text x="14" y="17" class="text-muted" font-size="11" text-anchor="middle">✎</text>
                <rect x="32" y="0" width="28" height="26" rx="4" fill="#FFFFFF" stroke="#E5E7EB"/>
                <text x="46" y="17" class="text-error" font-size="11" text-anchor="middle">×</text>
              </g>
            </g>

            <!-- Row 5 -->
            <g transform="translate(0, 220)">
              <rect x="0" y="0" width="1020" height="45" fill="#FFFFFF" stroke="#E5E7EB"/>
              <text x="20" y="28" class="text-dark" font-size="11" font-weight="600">*14</text>
              <text x="120" y="28" class="text-dark" font-size="11">+33 7 65 43 21 09</text>
              <text x="350" y="28" class="text-dark" font-size="11">Bernard</text>
              <text x="550" y="28" class="text-dark" font-size="11">Pierre</text>
              <g transform="translate(750, 10)">
                <rect x="0" y="0" width="28" height="26" rx="4" fill="#FFFFFF" stroke="#E5E7EB"/>
                <text x="14" y="17" class="text-muted" font-size="11" text-anchor="middle">✎</text>
                <rect x="32" y="0" width="28" height="26" rx="4" fill="#FFFFFF" stroke="#E5E7EB"/>
                <text x="46" y="17" class="text-error" font-size="11" text-anchor="middle">×</text>
              </g>
            </g>

            <!-- Pagination -->
            <g transform="translate(0, 280)">
              <text x="0" y="20" class="text-muted" font-size="11">Affichage 1-5 sur 12</text>
              <g transform="translate(850, 0)">
                <rect x="0" y="0" width="28" height="26" rx="4" class="btn-disabled"/>
                <text x="14" y="17" class="text-muted" font-size="12" text-anchor="middle">‹</text>
                <rect x="32" y="0" width="28" height="26" rx="4" class="btn-primary"/>
                <text x="46" y="17" class="text-white" font-size="11" text-anchor="middle">1</text>
                <rect x="64" y="0" width="28" height="26" rx="4" class="btn-outline"/>
                <text x="78" y="17" class="text-primary" font-size="11" text-anchor="middle">2</text>
                <rect x="96" y="0" width="28" height="26" rx="4" class="btn-outline"/>
                <text x="110" y="17" class="text-primary" font-size="11" text-anchor="middle">3</text>
                <rect x="128" y="0" width="28" height="26" rx="4" class="btn-outline"/>
                <text x="142" y="17" class="text-primary" font-size="12" text-anchor="middle">›</text>
              </g>
            </g>
          </g>
        </g>
      </g>
    </g>
  </g>
</svg>
