<svg xmlns="http://www.w3.org/2000/svg" viewBox="0 0 1440 900" width="1440" height="900">
  <defs>
    <style>
      .bg-header { fill: #000E9C; }
      .bg-main { fill: #F6F6F9; }
      .bg-white { fill: #FFFFFF; }
      .border { stroke: #E5E7EB; stroke-width: 1; fill: none; }
      .text-white { fill: #FFFFFF; font-family: 'Source Sans Pro', sans-serif; }
      .text-dark { fill: #1F2937; font-family: 'Source Sans Pro', sans-serif; }
      .text-muted { fill: #6B7280; font-family: 'Source Sans Pro', sans-serif; }
      .text-primary { fill: #0050D7; font-family: 'Source Sans Pro', sans-serif; }
    </style>
  </defs>

  <rect width="1440" height="900" class="bg-main"/>
  <rect width="1440" height="50" class="bg-header"/>
  <text x="510" y="32" class="text-white" font-size="14" font-weight="600">Web Cloud</text>
  <rect y="50" width="1440" height="40" class="bg-white"/>
  <line x1="0" y1="90" x2="1440" y2="90" stroke="#E5E7EB"/>
  <text x="400" y="75" class="text-primary" font-size="14" font-weight="600">Téléphonie</text>

  <!-- LEFT PANEL -->
  <g transform="translate(24, 105)">
    <rect x="0" y="0" width="280" height="780" rx="8" class="bg-white"/>
    <rect x="0" y="0" width="280" height="780" rx="8" class="border"/>
    <text x="20" y="35" class="text-dark" font-size="14" font-weight="600">+33 9 72 10 00 10</text>
    <text x="20" y="52" class="text-muted" font-size="10">Ligne VoIP Entreprise</text>
    <line x1="0" y1="70" x2="280" y2="70" stroke="#E5E7EB"/>
    <text x="20" y="106" class="text-dark" font-size="12">Tableau de bord</text>
    <text x="20" y="136" class="text-dark" font-size="12">Appels</text>
    <text x="20" y="166" class="text-dark" font-size="12">Configuration</text>
    <text x="20" y="196" class="text-dark" font-size="12">Téléphone</text>
    <text x="20" y="226" class="text-dark" font-size="12">Messagerie vocale</text>
    <text x="20" y="256" class="text-dark" font-size="12">Renvois d'appels</text>
    <rect x="0" y="268" width="280" height="36" fill="#E8F0FE"/>
    <text x="20" y="292" class="text-primary" font-size="12" font-weight="600">Restrictions</text>
    <text x="20" y="328" class="text-dark" font-size="12">Gestion</text>
  </g>

  <!-- RIGHT PANEL -->
  <g transform="translate(320, 105)">
    <rect x="0" y="0" width="1096" height="780" rx="8" class="bg-white"/>
    <rect x="0" y="0" width="1096" height="780" rx="8" class="border"/>

    <g transform="translate(24, 24)">
      <text x="0" y="20" class="text-dark" font-size="16" font-weight="600">Restrictions d'appels</text>

      <!-- Restrictions sortantes -->
      <g transform="translate(0, 50)">
        <rect x="0" y="0" width="500" height="350" rx="6" class="bg-white"/>
        <rect x="0" y="0" width="500" height="350" rx="6" class="border"/>
        <text x="20" y="30" class="text-dark" font-size="13" font-weight="600">Appels sortants</text>
        <text x="20" y="50" class="text-muted" font-size="10">Limitez les destinations autorisées</text>

        <g transform="translate(20, 75)">
          <rect x="0" y="0" width="40" height="22" rx="11" fill="#059669"/>
          <circle cx="28" cy="11" r="8" fill="#FFFFFF"/>
          <text x="55" y="16" class="text-dark" font-size="11">France fixe</text>
        </g>
        <g transform="translate(20, 110)">
          <rect x="0" y="0" width="40" height="22" rx="11" fill="#059669"/>
          <circle cx="28" cy="11" r="8" fill="#FFFFFF"/>
          <text x="55" y="16" class="text-dark" font-size="11">France mobile</text>
        </g>
        <g transform="translate(20, 145)">
          <rect x="0" y="0" width="40" height="22" rx="11" fill="#059669"/>
          <circle cx="28" cy="11" r="8" fill="#FFFFFF"/>
          <text x="55" y="16" class="text-dark" font-size="11">Europe</text>
        </g>
        <g transform="translate(20, 180)">
          <rect x="0" y="0" width="40" height="22" rx="11" fill="#E5E7EB"/>
          <circle cx="12" cy="11" r="8" fill="#FFFFFF"/>
          <text x="55" y="16" class="text-dark" font-size="11">International hors Europe</text>
        </g>
        <g transform="translate(20, 215)">
          <rect x="0" y="0" width="40" height="22" rx="11" fill="#E5E7EB"/>
          <circle cx="12" cy="11" r="8" fill="#FFFFFF"/>
          <text x="55" y="16" class="text-dark" font-size="11">Numéros spéciaux</text>
        </g>
        <g transform="translate(20, 250)">
          <rect x="0" y="0" width="40" height="22" rx="11" fill="#E5E7EB"/>
          <circle cx="12" cy="11" r="8" fill="#FFFFFF"/>
          <text x="55" y="16" class="text-dark" font-size="11">Numéros surtaxés</text>
        </g>

        <line x1="20" y1="290" x2="480" y2="290" stroke="#E5E7EB"/>
        <text x="20" y="320" class="text-muted" font-size="10">Code PIN appels sortants</text>
        <rect x="200" y="302" width="100" height="28" rx="4" fill="#FFFFFF" stroke="#E5E7EB"/>
        <text x="210" y="322" class="text-muted" font-size="10">••••</text>
        <text x="320" y="322" class="text-primary" font-size="10">Modifier</text>
      </g>

      <!-- Restrictions entrantes -->
      <g transform="translate(520, 50)">
        <rect x="0" y="0" width="500" height="350" rx="6" class="bg-white"/>
        <rect x="0" y="0" width="500" height="350" rx="6" class="border"/>
        <text x="20" y="30" class="text-dark" font-size="13" font-weight="600">Appels entrants</text>
        <text x="20" y="50" class="text-muted" font-size="10">Filtrez les appels reçus</text>

        <g transform="translate(20, 75)">
          <rect x="0" y="0" width="40" height="22" rx="11" fill="#E5E7EB"/>
          <circle cx="12" cy="11" r="8" fill="#FFFFFF"/>
          <text x="55" y="16" class="text-dark" font-size="11">Bloquer numéros masqués</text>
        </g>
        <g transform="translate(20, 110)">
          <rect x="0" y="0" width="40" height="22" rx="11" fill="#E5E7EB"/>
          <circle cx="12" cy="11" r="8" fill="#FFFFFF"/>
          <text x="55" y="16" class="text-dark" font-size="11">Bloquer numéros internationaux</text>
        </g>

        <line x1="20" y1="155" x2="480" y2="155" stroke="#E5E7EB"/>
        
        <text x="20" y="180" class="text-dark" font-size="11" font-weight="600">Liste noire</text>
        <text x="400" y="180" class="text-primary" font-size="10">+ Ajouter</text>
        
        <rect x="20" y="195" width="460" height="35" rx="4" fill="#F9FAFB"/>
        <text x="35" y="218" class="text-dark" font-size="10">+33 1 42 68 53 00</text>
        <text x="430" y="218" fill="#DC2626" font-size="10">✕</text>
        
        <rect x="20" y="235" width="460" height="35" rx="4" class="bg-white"/>
        <text x="35" y="258" class="text-dark" font-size="10">+33 6 00 00 00 00</text>
        <text x="430" y="258" fill="#DC2626" font-size="10">✕</text>

        <line x1="20" y1="290" x2="480" y2="290" stroke="#E5E7EB"/>
        
        <text x="20" y="315" class="text-dark" font-size="11" font-weight="600">Liste blanche (VIP)</text>
        <text x="400" y="315" class="text-primary" font-size="10">+ Ajouter</text>
      </g>

      <!-- Save button -->
      <g transform="translate(0, 430)">
        <rect x="920" y="0" width="130" height="36" rx="4" fill="#0050D7"/>
        <text x="985" y="23" class="text-white" font-size="11" text-anchor="middle">Enregistrer</text>
      </g>
    </g>
  </g>
</svg>
