<svg xmlns="http://www.w3.org/2000/svg" viewBox="0 0 1440 900" width="1440" height="900">
  <defs>
    <style>
      .bg-header { fill: #000E9C; }
      .bg-main { fill: #F6F6F9; }
      .bg-white { fill: #FFFFFF; }
      .bg-primary { fill: #0050D7; }
      .bg-success { fill: #DEF7EC; }
      .border { stroke: #E5E7EB; stroke-width: 1; fill: none; }
      .btn-outline { stroke: #0050D7; stroke-width: 1; fill: #FFFFFF; }
      .btn-primary { fill: #0050D7; }
      .row-selected { fill: #E8F0FE; }
      .table-header { fill: #F9FAFB; }
      .text-white { fill: #FFFFFF; font-family: 'Source Sans Pro', sans-serif; }
      .text-dark { fill: #1F2937; font-family: 'Source Sans Pro', sans-serif; }
      .text-muted { fill: #6B7280; font-family: 'Source Sans Pro', sans-serif; }
      .text-primary { fill: #0050D7; font-family: 'Source Sans Pro', sans-serif; }
      .text-error { fill: #DC2626; font-family: 'Source Sans Pro', sans-serif; }
    </style>
  </defs>

  <rect width="1440" height="900" class="bg-main"/>

  <!-- NAV1 -->
  <rect width="1440" height="50" class="bg-header"/>
  <text x="40" y="32" class="text-white" font-size="14" opacity="0.7">Accueil</text>
  <text x="110" y="32" class="text-white" font-size="14" opacity="0.7">Public Cloud</text>
  <text x="210" y="32" class="text-white" font-size="14" opacity="0.7">Hosted Private Cloud</text>
  <text x="370" y="32" class="text-white" font-size="14" opacity="0.7">Bare Metal Cloud</text>
  <text x="510" y="32" class="text-white" font-size="14" font-weight="600">Web Cloud</text>
  <rect x="505" y="46" width="75" height="3" fill="#FFFFFF"/>
  <text x="620" y="32" class="text-white" font-size="14" opacity="0.7">Network</text>
  <text x="700" y="32" class="text-white" font-size="14" opacity="0.7">IAM / Securite</text>
  <text x="810" y="32" class="text-white" font-size="14" opacity="0.7">Licences</text>
  <rect x="1280" y="12" width="140" height="26" rx="13" fill="rgba(255,255,255,0.2)"/>
  <text x="1320" y="29" class="text-white" font-size="12">ab12345-ovh</text>

  <!-- NAV2 -->
  <rect x="0" y="50" width="1440" height="40" class="bg-white"/>
  <line x1="0" y1="89" x2="1440" y2="89" stroke="#E5E7EB"/>
  <text x="40" y="75" class="text-muted" font-size="14">Accueil</text>
  <text x="110" y="75" class="text-primary" font-size="14" font-weight="600">Domaines et DNS</text>
  <rect x="105" y="85" width="110" height="3" fill="#0050D7"/>
  <text x="240" y="75" class="text-muted" font-size="14">Hébergement</text>
  <text x="345" y="75" class="text-muted" font-size="14">Wordpress</text>
  <text x="430" y="75" class="text-muted" font-size="14">Emails</text>
  <text x="500" y="75" class="text-muted" font-size="14">VoIP</text>
  <text x="550" y="75" class="text-muted" font-size="14">Accès</text>
  <text x="1350" y="75" class="text-primary" font-size="13">Guides</text>

  <!-- CONTENT -->
  <g transform="translate(0, 105)">
    <!-- LEFT PANEL -->
    <g transform="translate(24, 0)">
      <rect x="0" y="0" width="280" height="765" rx="8" class="bg-white"/>
      <rect x="0" y="0" width="280" height="765" rx="8" class="border"/>
      <rect x="12" y="12" width="256" height="34" rx="4" fill="#F9FAFB" stroke="#E5E7EB"/>
      <text x="40" y="34" class="text-muted" font-size="12">Rechercher...</text>
      <text x="24" y="34" class="text-muted" font-size="14">🔍</text>
      <text x="12" y="68" class="text-muted" font-size="11">Filtrer ▾</text>
      <text x="268" y="68" class="text-muted" font-size="11" text-anchor="end">3 services</text>
      <rect x="6" y="80" width="268" height="64" rx="6" class="row-selected"/>
      <text x="28" y="104" font-size="16">🌐</text>
      <text x="52" y="100" class="text-dark" font-size="13" font-weight="500">example.com</text>
      <text x="52" y="116" class="text-muted" font-size="10">Domaine + Zone</text>
      <rect x="210" y="96" width="46" height="18" rx="9" fill="#DEF7EC"/>
      <text x="233" y="109" fill="#03543F" font-size="10" text-anchor="middle">Actif</text>
    </g>

    <!-- RIGHT PANEL -->
    <g transform="translate(320, 0)">
      <rect x="0" y="0" width="1096" height="765" rx="8" class="bg-white"/>
      <rect x="0" y="0" width="1096" height="765" rx="8" class="border"/>

      <g transform="translate(20, 0)">
        <text x="0" y="24" class="text-dark" font-size="18" font-weight="600">Zone DNS de example.com</text>

        <!-- NAV3 - Tabs horizontaux style texte souligné -->
        <g transform="translate(0, 50)">
          <text x="0" y="15" class="text-muted" font-size="12">Informations générales</text>
          <text x="140" y="15" class="text-primary" font-size="12" font-weight="600">Zone DNS</text>
          <rect x="140" y="20" width="60" height="2" fill="#0050D7"/>
          <text x="220" y="15" class="text-muted" font-size="12">Serveurs DNS</text>
          <text x="310" y="15" class="text-muted" font-size="12">Redirection</text>
        </g>

        <!-- Toolbar -->
        <g transform="translate(0, 85)">
          <rect x="0" y="0" width="130" height="32" rx="4" class="btn-primary"/>
          <text x="65" y="21" class="text-white" font-size="11" text-anchor="middle">+ Ajouter une entrée</text>
          <rect x="140" y="0" width="110" height="32" rx="4" class="btn-outline"/>
          <text x="195" y="21" class="text-primary" font-size="11" text-anchor="middle">Importer (texte)</text>
          <rect x="260" y="0" width="80" height="32" rx="4" class="btn-outline"/>
          <text x="300" y="21" class="text-primary" font-size="11" text-anchor="middle">Exporter</text>
          <rect x="350" y="0" width="100" height="32" rx="4" class="btn-outline"/>
          <text x="400" y="21" class="text-primary" font-size="11" text-anchor="middle">Réinitialiser</text>
          <rect x="750" y="0" width="270" height="32" rx="4" fill="#F9FAFB" stroke="#E5E7EB"/>
          <text x="770" y="21" class="text-muted" font-size="11">Recherche domaine…</text>
        </g>

        <!-- Table -->
        <g transform="translate(0, 135)">
          <rect x="0" y="0" width="1020" height="480" rx="8" fill="#FFFFFF" stroke="#E5E7EB"/>
          <rect x="1" y="1" width="1018" height="40" rx="8" class="table-header"/>
          <text x="20" y="26" class="text-muted" font-size="11" font-weight="600">DOMAINE</text>
          <text x="250" y="26" class="text-muted" font-size="11" font-weight="600">TYPE</text>
          <text x="350" y="26" class="text-muted" font-size="11" font-weight="600">TTL</text>
          <text x="450" y="26" class="text-muted" font-size="11" font-weight="600">CIBLE</text>
          <text x="920" y="26" class="text-muted" font-size="11" font-weight="600"></text>

          <!-- Row 1 -->
          <line x1="0" y1="41" x2="1020" y2="41" stroke="#E5E7EB"/>
          <text x="20" y="70" class="text-dark" font-size="12">example.com.</text>
          <text x="250" y="70" class="text-primary" font-size="12">A</text>
          <text x="350" y="70" class="text-muted" font-size="12">3600</text>
          <text x="450" y="70" class="text-dark" font-size="12">203.0.113.50</text>
          <text x="940" y="70" class="text-muted" font-size="16">⋮</text>

          <!-- Row 2 -->
          <line x1="0" y1="90" x2="1020" y2="90" stroke="#E5E7EB"/>
          <text x="20" y="120" class="text-dark" font-size="12">example.com.</text>
          <text x="250" y="120" class="text-primary" font-size="12">AAAA</text>
          <text x="350" y="120" class="text-muted" font-size="12">3600</text>
          <text x="450" y="120" class="text-dark" font-size="12">2001:db8::1</text>
          <text x="940" y="120" class="text-muted" font-size="16">⋮</text>

          <!-- Row 3 -->
          <line x1="0" y1="140" x2="1020" y2="140" stroke="#E5E7EB"/>
          <text x="20" y="170" class="text-dark" font-size="12">www.example.com.</text>
          <text x="250" y="170" fill="#9333EA" font-size="12">CNAME</text>
          <text x="350" y="170" class="text-muted" font-size="12">3600</text>
          <text x="450" y="170" class="text-dark" font-size="12">example.com.</text>
          <text x="940" y="170" class="text-muted" font-size="16">⋮</text>

          <!-- Row 4 -->
          <line x1="0" y1="190" x2="1020" y2="190" stroke="#E5E7EB"/>
          <text x="20" y="220" class="text-dark" font-size="12">example.com.</text>
          <text x="250" y="220" fill="#059669" font-size="12">MX</text>
          <text x="350" y="220" class="text-muted" font-size="12">3600</text>
          <text x="450" y="220" class="text-dark" font-size="12">10 mx1.mail.ovh.net.</text>
          <text x="940" y="220" class="text-muted" font-size="16">⋮</text>

          <!-- Row 5 -->
          <line x1="0" y1="240" x2="1020" y2="240" stroke="#E5E7EB"/>
          <text x="20" y="270" class="text-dark" font-size="12">example.com.</text>
          <text x="250" y="270" class="text-muted" font-size="12">TXT</text>
          <text x="350" y="270" class="text-muted" font-size="12">3600</text>
          <text x="450" y="270" class="text-dark" font-size="12">"v=spf1 include:mx.ovh.com ~all"</text>
          <text x="940" y="270" class="text-muted" font-size="16">⋮</text>

          <!-- Row 6 -->
          <line x1="0" y1="290" x2="1020" y2="290" stroke="#E5E7EB"/>
          <text x="20" y="320" class="text-dark" font-size="12">example.com.</text>
          <text x="250" y="320" class="text-error" font-size="12">NS</text>
          <text x="350" y="320" class="text-muted" font-size="12">86400</text>
          <text x="450" y="320" class="text-dark" font-size="12">dns100.ovh.net.</text>
          <text x="940" y="320" class="text-muted" font-size="16">⋮</text>

          <!-- Context menu -->
          <rect x="850" y="85" width="150" height="70" rx="4" fill="#FFFFFF" stroke="#E5E7EB" filter="drop-shadow(0 4px 6px rgba(0,0,0,0.1))"/>
          <text x="870" y="110" class="text-dark" font-size="11">Modifier l'entrée</text>
          <line x1="850" y1="120" x2="1000" y2="120" stroke="#E5E7EB"/>
          <text x="870" y="145" class="text-error" font-size="11">Supprimer l'entrée</text>
        </g>
      </g>
    </g>
  </g>
</svg>
