<?xml version="1.0" encoding="UTF-8"?>
<svg width="650" height="520" viewBox="0 0 650 520" fill="none" xmlns="http://www.w3.org/2000/svg">
  <title>Domains - Ajouter un identifiant DynHost</title>

  <!-- Overlay -->
  <rect width="650" height="520" fill="#000000" opacity="0.5"/>

  <!-- Modal -->
  <rect x="50" y="20" width="550" height="480" rx="8" fill="white"/>

  <!-- Header -->
  <rect x="50" y="20" width="550" height="50" rx="8" fill="#F9FAFB"/>
  <text x="75" y="52" fill="#1F2937" font-family="system-ui, sans-serif" font-size="16" font-weight="600">Ajouter un identifiant DynHost</text>
  <text x="570" y="52" fill="#6B7280" font-family="system-ui, sans-serif" font-size="18">×</text>

  <!-- Description -->
  <text x="75" y="95" fill="#6B7280" font-family="system-ui, sans-serif" font-size="13">Créez un identifiant pour mettre à jour votre DynHost</text>

  <!-- Required fields notice -->
  <text x="75" y="125" fill="#DC2626" font-family="system-ui, sans-serif" font-size="12">*</text>
  <text x="85" y="125" fill="#6B7280" font-family="system-ui, sans-serif" font-size="12">Champs obligatoires</text>

  <!-- Login suffix -->
  <text x="75" y="160" fill="#6B7280" font-family="system-ui, sans-serif" font-size="13">Suffixe de l'identifiant *</text>
  <rect x="75" y="170" width="130" height="40" rx="4" fill="#F9FAFB" stroke="#E5E7EB"/>
  <text x="85" y="195" fill="#6B7280" font-family="system-ui, sans-serif" font-size="13">exemple.com -</text>
  <rect x="205" y="170" width="370" height="40" rx="4" fill="white" stroke="#E5E7EB"/>
  <text x="225" y="195" fill="#9CA3AF" font-family="system-ui, sans-serif" font-size="13">dyn_user</text>

  <!-- Subdomain -->
  <text x="75" y="235" fill="#6B7280" font-family="system-ui, sans-serif" font-size="13">Sous-domaine autorisé *</text>
  <rect x="75" y="245" width="350" height="40" rx="4" fill="white" stroke="#E5E7EB"/>
  <text x="95" y="270" fill="#9CA3AF" font-family="system-ui, sans-serif" font-size="13">* (tous) ou dyn</text>
  <rect x="425" y="245" width="150" height="40" rx="4" fill="#F9FAFB" stroke="#E5E7EB"/>
  <text x="445" y="270" fill="#6B7280" font-family="system-ui, sans-serif" font-size="13">.exemple.com</text>

  <text x="75" y="300" fill="#6B7280" font-family="system-ui, sans-serif" font-size="11">Utilisez * pour autoriser tous les sous-domaines</text>

  <!-- Password -->
  <text x="75" y="335" fill="#6B7280" font-family="system-ui, sans-serif" font-size="13">Mot de passe *</text>
  <rect x="75" y="345" width="500" height="40" rx="4" fill="white" stroke="#E5E7EB"/>
  <text x="95" y="370" fill="#9CA3AF" font-family="system-ui, sans-serif" font-size="13">••••••••</text>

  <!-- Password confirm -->
  <text x="75" y="405" fill="#6B7280" font-family="system-ui, sans-serif" font-size="13">Confirmer le mot de passe *</text>
  <rect x="75" y="415" width="500" height="40" rx="4" fill="white" stroke="#E5E7EB"/>
  <text x="95" y="440" fill="#9CA3AF" font-family="system-ui, sans-serif" font-size="13">••••••••</text>

  <!-- Buttons -->
  <rect x="380" y="470" width="100" height="40" rx="4" fill="white" stroke="#E5E7EB"/>
  <text x="408" y="495" fill="#6B7280" font-family="system-ui, sans-serif" font-size="14">Annuler</text>
  <rect x="490" y="470" width="100" height="40" rx="4" fill="#0050D7"/>
  <text x="520" y="495" fill="white" font-family="system-ui, sans-serif" font-size="14">Créer</text>
</svg>
