<svg xmlns="http://www.w3.org/2000/svg" viewBox="0 0 1440 700" width="1440" height="700">
  <defs>
    <style>
      .bg-muted { fill: #F9FAFB; }
      .bg-white { fill: #FFFFFF; }
      .bg-header { fill: #000E9C; }
      .text-title { font-family: 'Source Sans Pro', sans-serif; font-size: 24px; font-weight: 600; fill: #1F2937; }
      .text-body { font-family: 'Source Sans Pro', sans-serif; font-size: 14px; fill: #1F2937; }
      .text-muted { font-family: 'Source Sans Pro', sans-serif; font-size: 14px; fill: #6B7280; }
      .text-white { font-family: 'Source Sans Pro', sans-serif; font-size: 14px; fill: #FFFFFF; }
      .text-link { font-family: 'Source Sans Pro', sans-serif; font-size: 14px; fill: #0050D7; }
      .text-label { font-family: 'Source Sans Pro', sans-serif; font-size: 13px; font-weight: 500; fill: #6B7280; }
      .text-danger { font-family: 'Source Sans Pro', sans-serif; font-size: 14px; fill: #991B1B; }
      .border { stroke: #E5E7EB; stroke-width: 1; fill: none; }
      .btn-primary { fill: #0050D7; }
      .text-btn { font-family: 'Source Sans Pro', sans-serif; font-size: 14px; fill: #FFFFFF; }
      .table-header { fill: #F3F4F6; }
      .action-menu { fill: #FFFFFF; stroke: #E5E7EB; filter: drop-shadow(0 4px 6px rgba(0,0,0,0.1)); }
    </style>
  </defs>
  
  <rect width="1440" height="700" class="bg-muted"/>
  <rect width="1440" height="60" class="bg-header"/>
  <text x="80" y="38" class="text-white" style="font-size: 18px; font-weight: 600;">OVHcloud</text>
  
  <rect x="0" y="60" width="240" height="640" class="bg-white"/>
  <line x1="240" y1="60" x2="240" y2="700" stroke="#E5E7EB"/>
  
  <g transform="translate(280, 100)">
    <text x="0" y="0" class="text-muted">
      <tspan>Web Cloud</tspan>
      <tspan dx="8">›</tspan>
      <tspan dx="8">Noms de domaine</tspan>
      <tspan dx="8">›</tspan>
      <tspan dx="8">example.com</tspan>
      <tspan dx="8">›</tspan>
      <tspan dx="8" class="text-body">DynHost</tspan>
    </text>
    
    <g transform="translate(0, 30)">
      <text x="0" y="0" class="text-link">← Retour</text>
    </g>
    
    <text x="0" y="80" class="text-title">Gestion des accès DynHost</text>
    
    <g transform="translate(750, 60)">
      <rect x="0" y="0" width="130" height="36" rx="4" class="btn-primary"/>
      <text x="16" y="24" class="text-btn">+ Créer un accès</text>
    </g>
    
    <g transform="translate(0, 120)">
      <rect x="0" y="0" width="880" height="280" rx="8" class="bg-white"/>
      <rect x="0" y="0" width="880" height="280" rx="8" class="border"/>
      
      <rect x="1" y="1" width="878" height="48" rx="8" class="table-header"/>
      <text x="24" y="32" class="text-label">IDENTIFIANT</text>
      <text x="300" y="32" class="text-label">SOUS-DOMAINE</text>
      <text x="550" y="32" class="text-label">DERNIÈRE MISE À JOUR</text>
      <text x="780" y="32" class="text-label">ACTIONS</text>
      
      <line x1="0" y1="49" x2="880" y2="49" stroke="#E5E7EB"/>
      <text x="24" y="82" class="text-body">example.com-admin</text>
      <text x="300" y="82" class="text-body">dyn.example.com</text>
      <text x="550" y="82" class="text-body">2024-01-15 14:32</text>
      <text x="800" y="82" class="text-muted" style="font-size: 18px;">⋮</text>
      
      <line x1="0" y1="105" x2="880" y2="105" stroke="#E5E7EB"/>
      <text x="24" y="138" class="text-body">example.com-home</text>
      <text x="300" y="138" class="text-body">home.example.com</text>
      <text x="550" y="138" class="text-body">2024-01-14 09:15</text>
      <text x="800" y="138" class="text-muted" style="font-size: 18px;">⋮</text>
      
      <line x1="0" y1="161" x2="880" y2="161" stroke="#E5E7EB"/>
      <text x="24" y="194" class="text-body">example.com-office</text>
      <text x="300" y="194" class="text-body">office.example.com</text>
      <text x="550" y="194" class="text-body">2024-01-10 16:45</text>
      <text x="800" y="194" class="text-muted" style="font-size: 18px;">⋮</text>
      
      <!-- Action menu dropdown (open) -->
      <g transform="translate(720, 210)">
        <rect x="0" y="0" width="150" height="96" rx="4" class="action-menu"/>
        <text x="16" y="28" class="text-body">Modifier</text>
        <line x1="0" y1="40" x2="150" y2="40" stroke="#E5E7EB"/>
        <text x="16" y="64" class="text-body">Changer le mot de passe</text>
        <line x1="0" y1="76" x2="150" y2="76" stroke="#E5E7EB"/>
        <text x="16" y="88" class="text-danger">Supprimer</text>
      </g>
    </g>
  </g>
</svg>
