<?xml version="1.0" encoding="UTF-8"?>
<svg width="600" height="420" viewBox="0 0 600 420" fill="none" xmlns="http://www.w3.org/2000/svg">
  <title>Domains - Modifier l'identifiant DynHost</title>

  <!-- Overlay -->
  <rect width="600" height="420" fill="#000000" opacity="0.5"/>

  <!-- Modal -->
  <rect x="50" y="30" width="500" height="360" rx="8" fill="white"/>

  <!-- Header -->
  <rect x="50" y="30" width="500" height="50" rx="8" fill="#F9FAFB"/>
  <text x="75" y="62" fill="#1F2937" font-family="system-ui, sans-serif" font-size="16" font-weight="600">Modifier l'identifiant DynHost</text>
  <text x="520" y="62" fill="#6B7280" font-family="system-ui, sans-serif" font-size="18">×</text>

  <!-- Description -->
  <text x="75" y="105" fill="#6B7280" font-family="system-ui, sans-serif" font-size="13">Modifiez les paramètres de l'identifiant DynHost</text>

  <!-- Subdomain -->
  <text x="75" y="145" fill="#6B7280" font-family="system-ui, sans-serif" font-size="13">Sous-domaine autorisé *</text>
  <rect x="75" y="155" width="300" height="40" rx="4" fill="white" stroke="#E5E7EB"/>
  <text x="95" y="180" fill="#1F2937" font-family="system-ui, sans-serif" font-size="13">dyn</text>
  <rect x="375" y="155" width="150" height="40" rx="4" fill="#F9FAFB" stroke="#E5E7EB"/>
  <text x="395" y="180" fill="#6B7280" font-family="system-ui, sans-serif" font-size="13">.exemple.com</text>

  <!-- New password (optional) -->
  <text x="75" y="220" fill="#6B7280" font-family="system-ui, sans-serif" font-size="13">Nouveau mot de passe (optionnel)</text>
  <rect x="75" y="230" width="450" height="40" rx="4" fill="white" stroke="#E5E7EB"/>
  <text x="95" y="255" fill="#9CA3AF" font-family="system-ui, sans-serif" font-size="13">Laisser vide pour conserver l'actuel</text>

  <!-- Password confirm -->
  <text x="75" y="295" fill="#6B7280" font-family="system-ui, sans-serif" font-size="13">Confirmer le nouveau mot de passe</text>
  <rect x="75" y="305" width="450" height="40" rx="4" fill="white" stroke="#E5E7EB"/>
  <text x="95" y="330" fill="#9CA3AF" font-family="system-ui, sans-serif" font-size="13">••••••••</text>

  <!-- Buttons -->
  <rect x="330" y="360" width="100" height="40" rx="4" fill="white" stroke="#E5E7EB"/>
  <text x="358" y="385" fill="#6B7280" font-family="system-ui, sans-serif" font-size="14">Annuler</text>
  <rect x="440" y="360" width="100" height="40" rx="4" fill="#0050D7"/>
  <text x="468" y="385" fill="white" font-family="system-ui, sans-serif" font-size="14">Modifier</text>
</svg>
