<svg xmlns="http://www.w3.org/2000/svg" viewBox="0 0 1440 900" width="1440" height="900">
  <defs>
    <style>
      .bg-header { fill: #000E9C; }
      .bg-main { fill: #F6F6F9; }
      .bg-white { fill: #FFFFFF; }
      .bg-primary { fill: #0050D7; }
      .bg-success { fill: #DEF7EC; }
      .border { stroke: #E5E7EB; stroke-width: 1; fill: none; }
      .divider { stroke: #E5E7EB; stroke-width: 1; }
      .btn-outline { stroke: #0050D7; stroke-width: 1; fill: #FFFFFF; }
      .row-selected { fill: #E8F0FE; }
      .table-header { fill: #F9FAFB; }
      .text-white { fill: #FFFFFF; font-family: 'Source Sans Pro', sans-serif; }
      .text-dark { fill: #1F2937; font-family: 'Source Sans Pro', sans-serif; }
      .text-muted { fill: #6B7280; font-family: 'Source Sans Pro', sans-serif; }
      .text-primary { fill: #0050D7; font-family: 'Source Sans Pro', sans-serif; }
    </style>
  </defs>

  <rect width="1440" height="900" class="bg-main"/>

  <!-- NAV1 -->
  <rect width="1440" height="50" class="bg-header"/>
  <text x="510" y="32" class="text-white" font-size="14" font-weight="600">Web Cloud</text>
  <rect x="505" y="46" width="75" height="3" fill="#FFFFFF"/>

  <!-- NAV2 -->
  <rect x="0" y="50" width="1440" height="40" class="bg-white"/>
  <line x1="0" y1="89" x2="1440" y2="89" stroke="#E5E7EB"/>
  <text x="550" y="75" class="text-primary" font-size="14" font-weight="600">Accès</text>
  <rect x="545" y="85" width="40" height="3" fill="#0050D7"/>

  <!-- CONTENT -->
  <g transform="translate(0, 105)">
    <g transform="translate(24, 0)">
      <rect x="0" y="0" width="160" height="36" rx="6" class="bg-primary"/>
      <text x="80" y="23" class="text-white" font-size="13" text-anchor="middle">🌐 Connexions  4</text>
      <rect x="168" y="0" width="160" height="36" rx="6" fill="#F3F4F6" stroke="#E5E7EB"/>
      <text x="248" y="23" fill="#6B7280" font-size="13" text-anchor="middle">📦 OverTheBox  1</text>
    </g>

    <g transform="translate(24, 50)">
      <!-- LEFT PANEL -->
      <rect x="0" y="0" width="280" height="715" rx="8" class="bg-white"/>
      <rect x="0" y="0" width="280" height="715" rx="8" class="border"/>
      <g transform="translate(6, 80)">
        <rect x="0" y="0" width="268" height="90" rx="6" class="row-selected"/>
        <text x="32" y="20" class="text-dark" font-size="13" font-weight="600">Fibre Pro Paris</text>
      </g>
    </g>

    <g transform="translate(320, 50)">
      <!-- RIGHT PANEL -->
      <rect x="0" y="0" width="1096" height="715" rx="8" class="bg-white"/>
      <rect x="0" y="0" width="1096" height="715" rx="8" class="border"/>

      <g transform="translate(20, 0)">
        <text x="0" y="28" class="text-dark" font-size="18" font-weight="600">Gestion des IPs</text>

        <!-- NAV3 - Options actif -->
        <g transform="translate(0, 65)">
          <rect x="0" y="0" width="65" height="26" rx="4" class="btn-outline"/>
          <text x="32" y="17" class="text-primary" font-size="11" text-anchor="middle">Général</text>
          <rect x="69" y="0" width="55" height="26" rx="4" class="btn-outline"/>
          <text x="96" y="17" class="text-primary" font-size="11" text-anchor="middle">Ligne</text>
          <rect x="310" y="0" width="60" height="26" rx="4" class="bg-primary"/>
          <text x="340" y="17" class="text-white" font-size="11" text-anchor="middle">Options</text>
        </g>

        <!-- Toolbar -->
        <g transform="translate(0, 105)">
          <rect x="0" y="0" width="32" height="32" rx="4" class="btn-outline"/>
          <text x="16" y="22" class="text-primary" font-size="14" text-anchor="middle">↻</text>
          <rect x="40" y="0" width="180" height="32" rx="4" fill="#F9FAFB" stroke="#E5E7EB"/>
          <text x="52" y="21" class="text-muted" font-size="11">🔍 Rechercher IP...</text>
          <rect x="850" y="0" width="170" height="32" rx="4" class="bg-primary"/>
          <text x="935" y="21" class="text-white" font-size="11" text-anchor="middle">+ Commander IP</text>
        </g>

        <!-- Bloc IPv4 -->
        <g transform="translate(0, 155)">
          <rect x="0" y="0" width="1036" height="200" rx="6" class="bg-white" stroke="#E5E7EB"/>
          <text x="20" y="28" class="text-dark" font-size="15" font-weight="700">IPv4</text>
          <line x1="20" y1="45" x2="1016" y2="45" class="divider"/>

          <!-- Table header -->
          <rect x="20" y="55" width="996" height="35" rx="4" class="table-header"/>
          <text x="40" y="78" class="text-dark" font-size="11" font-weight="600">Adresse IP</text>
          <text x="250" y="78" class="text-dark" font-size="11" font-weight="600">Type</text>
          <text x="400" y="78" class="text-dark" font-size="11" font-weight="600">Statut</text>
          <text x="550" y="78" class="text-dark" font-size="11" font-weight="600">Affectation</text>
          <text x="900" y="78" class="text-dark" font-size="11" font-weight="600">Actions</text>

          <!-- Row 1 -->
          <g transform="translate(20, 95)">
            <text x="20" y="18" class="text-dark" font-size="11">91.121.xxx.xxx</text>
            <text x="230" y="18" class="text-dark" font-size="11">Principale</text>
            <rect x="380" y="3" width="50" height="20" rx="10" fill="#DEF7EC"/>
            <text x="405" y="17" fill="#03543F" font-size="10" text-anchor="middle">Active</text>
            <text x="530" y="18" class="text-dark" font-size="11">WAN</text>
            <text x="880" y="18" class="text-primary" font-size="11">📋</text>
          </g>

          <!-- Row 2 -->
          <g transform="translate(20, 130)">
            <text x="20" y="18" class="text-dark" font-size="11">91.121.xxx.xxx/29</text>
            <text x="230" y="18" class="text-dark" font-size="11">Bloc IP</text>
            <rect x="380" y="3" width="50" height="20" rx="10" fill="#DEF7EC"/>
            <text x="405" y="17" fill="#03543F" font-size="10" text-anchor="middle">Active</text>
            <text x="530" y="18" class="text-dark" font-size="11">Serveurs</text>
            <text x="880" y="18" class="text-primary" font-size="11">⚙ ✎ ×</text>
          </g>

          <!-- Row 3 -->
          <g transform="translate(20, 165)">
            <text x="20" y="18" class="text-dark" font-size="11">91.121.xxx.xxx</text>
            <text x="230" y="18" class="text-dark" font-size="11">Failover</text>
            <rect x="380" y="3" width="50" height="20" rx="10" fill="#DEF7EC"/>
            <text x="405" y="17" fill="#03543F" font-size="10" text-anchor="middle">Active</text>
            <text x="530" y="18" class="text-dark" font-size="11">VM Web</text>
            <text x="880" y="18" class="text-primary" font-size="11">⚙ ✎ ×</text>
          </g>
        </g>

        <!-- Bloc IPv6 -->
        <g transform="translate(0, 370)">
          <rect x="0" y="0" width="1036" height="140" rx="6" class="bg-white" stroke="#E5E7EB"/>
          <text x="20" y="28" class="text-dark" font-size="15" font-weight="700">IPv6</text>
          <rect x="70" y="12" width="60" height="20" rx="10" fill="#DEF7EC"/>
          <text x="100" y="26" fill="#03543F" font-size="10" text-anchor="middle">Activé</text>
          <line x1="20" y1="45" x2="1016" y2="45" class="divider"/>

          <!-- Table header -->
          <rect x="20" y="55" width="996" height="35" rx="4" class="table-header"/>
          <text x="40" y="78" class="text-dark" font-size="11" font-weight="600">Préfixe IPv6</text>
          <text x="400" y="78" class="text-dark" font-size="11" font-weight="600">Délégation</text>
          <text x="700" y="78" class="text-dark" font-size="11" font-weight="600">Actions</text>

          <!-- Row -->
          <g transform="translate(20, 95)">
            <text x="20" y="18" class="text-dark" font-size="11">2001:41d0:xxxx::/56</text>
            <text x="380" y="18" class="text-dark" font-size="11">/64 vers LAN</text>
            <text x="680" y="18" class="text-primary" font-size="11">📋 ⚙</text>
          </g>
        </g>

        <!-- Bloc Options IP -->
        <g transform="translate(0, 525)">
          <rect x="0" y="0" width="1036" height="120" rx="6" class="bg-white" stroke="#E5E7EB"/>
          <text x="20" y="28" class="text-dark" font-size="15" font-weight="700">OPTIONS IP DISPONIBLES</text>
          <line x1="20" y1="45" x2="1016" y2="45" class="divider"/>

          <g transform="translate(20, 60)">
            <rect x="0" y="0" width="200" height="45" rx="4" class="btn-outline"/>
            <text x="20" y="28" class="text-primary" font-size="11">+ IP Failover (2,99€/mois)</text>
          </g>
          <g transform="translate(240, 60)">
            <rect x="0" y="0" width="200" height="45" rx="4" class="btn-outline"/>
            <text x="20" y="28" class="text-primary" font-size="11">+ Bloc /29 (9,99€/mois)</text>
          </g>
          <g transform="translate(460, 60)">
            <rect x="0" y="0" width="200" height="45" rx="4" class="btn-outline"/>
            <text x="20" y="28" class="text-primary" font-size="11">+ Bloc /28 (19,99€/mois)</text>
          </g>
        </g>
      </g>
    </g>
  </g>
</svg>
