<svg xmlns="http://www.w3.org/2000/svg" viewBox="0 0 1440 900" width="1440" height="900">
  <defs>
    <style>
      .bg-header { fill: #000E9C; }
      .bg-main { fill: #F6F6F9; }
      .bg-white { fill: #FFFFFF; }
      .bg-primary { fill: #0050D7; }
      .bg-warning { fill: #FEF3C7; }
      .border { stroke: #E5E7EB; stroke-width: 1; fill: none; }
      .divider { stroke: #E5E7EB; stroke-width: 1; }
      .btn-outline { stroke: #0050D7; stroke-width: 1; fill: #FFFFFF; }
      .row-selected { fill: #E8F0FE; }
      .text-white { fill: #FFFFFF; font-family: 'Source Sans Pro', sans-serif; }
      .text-dark { fill: #1F2937; font-family: 'Source Sans Pro', sans-serif; }
      .text-muted { fill: #6B7280; font-family: 'Source Sans Pro', sans-serif; }
      .text-primary { fill: #0050D7; font-family: 'Source Sans Pro', sans-serif; }
      .text-warning { fill: #D97706; font-family: 'Source Sans Pro', sans-serif; }
    </style>
  </defs>

  <rect width="1440" height="900" class="bg-main"/>

  <!-- NAV1 -->
  <rect width="1440" height="50" class="bg-header"/>
  <text x="510" y="32" class="text-white" font-size="14" font-weight="600">Web Cloud</text>
  <rect x="505" y="46" width="75" height="3" fill="#FFFFFF"/>

  <!-- NAV2 -->
  <rect x="0" y="50" width="1440" height="40" class="bg-white"/>
  <text x="550" y="75" class="text-primary" font-size="14" font-weight="600">Accès</text>
  <rect x="545" y="85" width="40" height="3" fill="#0050D7"/>

  <g transform="translate(0, 105)">
    <g transform="translate(24, 0)">
      <rect x="0" y="0" width="160" height="36" rx="6" class="bg-primary"/>
      <text x="80" y="23" class="text-white" font-size="13" text-anchor="middle">🌐 Connexions  4</text>
      <rect x="168" y="0" width="160" height="36" rx="6" fill="#F3F4F6" stroke="#E5E7EB"/>
      <text x="248" y="23" fill="#6B7280" font-size="13" text-anchor="middle">📦 OverTheBox  1</text>
    </g>

    <g transform="translate(24, 50)">
      <rect x="0" y="0" width="280" height="715" rx="8" class="bg-white"/>
      <rect x="0" y="0" width="280" height="715" rx="8" class="border"/>
      <g transform="translate(6, 80)">
        <rect x="0" y="0" width="268" height="90" rx="6" class="row-selected"/>
        <text x="32" y="20" class="text-dark" font-size="13" font-weight="600">Fibre Pro Paris</text>
      </g>
    </g>

    <g transform="translate(320, 50)">
      <rect x="0" y="0" width="1096" height="715" rx="8" class="bg-white"/>
      <rect x="0" y="0" width="1096" height="715" rx="8" class="border"/>

      <g transform="translate(20, 0)">
        <text x="0" y="28" class="text-dark" font-size="18" font-weight="600">Redémarrer le modem</text>

        <!-- NAV3 - Modem actif -->
        <g transform="translate(0, 65)">
          <rect x="128" y="0" width="55" height="26" rx="4" class="bg-primary"/>
          <text x="155" y="17" class="text-white" font-size="11" text-anchor="middle">Modem</text>
        </g>

        <!-- NAV4 - Dashboard -->
        <g transform="translate(0, 100)">
          <text x="0" y="14" class="text-primary" font-size="12" font-weight="500">Dashboard</text>
          <rect x="0" y="18" width="65" height="2" fill="#0050D7"/>
        </g>

        <!-- Bloc Redémarrer -->
        <g transform="translate(0, 140)">
          <rect x="0" y="0" width="500" height="220" rx="6" class="bg-white" stroke="#E5E7EB"/>
          <text x="20" y="28" class="text-dark" font-size="15" font-weight="700">REDÉMARRAGE</text>
          <line x1="20" y1="45" x2="480" y2="45" class="divider"/>

          <g transform="translate(20, 60)">
            <text x="0" y="15" class="text-muted" font-size="11">Un redémarrage peut résoudre certains problèmes</text>
            <text x="0" y="32" class="text-muted" font-size="11">de connectivité temporaires.</text>

            <rect x="0" y="50" width="160" height="45" rx="4" class="bg-primary"/>
            <text x="80" y="78" class="text-white" font-size="13" text-anchor="middle" font-weight="600">🔄 Redémarrer</text>
          </g>

          <g transform="translate(20, 165)">
            <rect x="0" y="0" width="460" height="40" rx="4" class="bg-warning"/>
            <text x="15" y="16" class="text-warning" font-size="11">⚠️ Votre connexion Internet sera interrompue</text>
            <text x="15" y="32" class="text-warning" font-size="11">pendant environ 2-3 minutes.</text>
          </g>
        </g>

        <!-- Modal confirmation -->
        <g transform="translate(520, 140)">
          <rect x="0" y="0" width="400" height="180" rx="6" class="bg-white" stroke="#E5E7EB"/>
          <rect x="0" y="0" width="400" height="45" rx="6" fill="#F9FAFB"/>
          <text x="20" y="28" class="text-dark" font-size="13" font-weight="600">Confirmer le redémarrage</text>
          <text x="370" y="28" class="text-muted" font-size="16">×</text>

          <g transform="translate(20, 60)">
            <text x="0" y="15" class="text-dark" font-size="11">Êtes-vous sûr de vouloir redémarrer le modem ?</text>
            <text x="0" y="35" class="text-muted" font-size="10">La connexion sera interrompue pendant quelques minutes.</text>
          </g>

          <g transform="translate(20, 120)">
            <rect x="0" y="0" width="70" height="35" rx="4" class="bg-primary"/>
            <text x="35" y="23" class="text-white" font-size="11" text-anchor="middle">OK</text>
            <rect x="85" y="0" width="85" height="35" rx="4" fill="#FFFFFF" stroke="#E5E7EB"/>
            <text x="127" y="23" class="text-muted" font-size="11" text-anchor="middle">Annuler</text>
          </g>
        </g>

        <!-- État en cours -->
        <g transform="translate(520, 340)">
          <rect x="0" y="0" width="400" height="140" rx="6" class="bg-white" stroke="#E5E7EB"/>
          <text x="20" y="28" class="text-dark" font-size="13" font-weight="600">Redémarrage en cours...</text>

          <g transform="translate(20, 50)">
            <!-- Spinner -->
            <circle cx="25" cy="25" r="20" fill="none" stroke="#E5E7EB" stroke-width="4"/>
            <path d="M 25 5 A 20 20 0 0 1 45 25" fill="none" stroke="#0050D7" stroke-width="4" stroke-linecap="round"/>

            <text x="60" y="18" class="text-dark" font-size="11">En attente du modem...</text>
            <text x="60" y="38" class="text-muted" font-size="10">Veuillez patienter</text>
          </g>
        </g>
      </g>
    </g>
  </g>
</svg>
