<svg xmlns="http://www.w3.org/2000/svg" viewBox="0 0 1440 900" width="1440" height="900">
  <defs>
    <style>
      .bg-header { fill: #000E9C; }
      .bg-main { fill: #F6F6F9; }
      .bg-white { fill: #FFFFFF; }
      .bg-primary { fill: #0050D7; }
      .bg-warning { fill: #FEF3C7; }
      .bg-overlay { fill: #000000; opacity: 0.5; }
      .border { stroke: #E5E7EB; stroke-width: 1; fill: none; }
      .divider { stroke: #E5E7EB; stroke-width: 1; }
      .row-selected { fill: #E8F0FE; }
      .text-white { fill: #FFFFFF; font-family: 'Source Sans Pro', sans-serif; }
      .text-dark { fill: #1F2937; font-family: 'Source Sans Pro', sans-serif; }
      .text-muted { fill: #6B7280; font-family: 'Source Sans Pro', sans-serif; }
      .text-primary { fill: #0050D7; font-family: 'Source Sans Pro', sans-serif; }
      .text-warning { fill: #D97706; font-family: 'Source Sans Pro', sans-serif; }
    </style>
  </defs>

  <rect width="1440" height="900" class="bg-main"/>

  <!-- NAV1 -->
  <rect width="1440" height="50" class="bg-header"/>
  <text x="510" y="32" class="text-white" font-size="14" font-weight="600">Web Cloud</text>
  <rect x="505" y="46" width="75" height="3" fill="#FFFFFF"/>

  <!-- NAV2 -->
  <rect x="0" y="50" width="1440" height="40" class="bg-white"/>
  <text x="550" y="75" class="text-primary" font-size="14" font-weight="600">Accès</text>
  <rect x="545" y="85" width="40" height="3" fill="#0050D7"/>

  <g transform="translate(0, 105)">
    <g transform="translate(24, 0)">
      <rect x="0" y="0" width="160" height="36" rx="6" class="bg-primary"/>
      <text x="80" y="23" class="text-white" font-size="13" text-anchor="middle">🌐 Connexions  4</text>
      <rect x="168" y="0" width="160" height="36" rx="6" fill="#F3F4F6" stroke="#E5E7EB"/>
      <text x="248" y="23" fill="#6B7280" font-size="13" text-anchor="middle">📦 OverTheBox  1</text>
    </g>

    <g transform="translate(24, 50)">
      <rect x="0" y="0" width="280" height="715" rx="8" class="bg-white"/>
      <rect x="0" y="0" width="280" height="715" rx="8" class="border"/>
    </g>

    <g transform="translate(320, 50)">
      <rect x="0" y="0" width="1096" height="715" rx="8" class="bg-white"/>
      <rect x="0" y="0" width="1096" height="715" rx="8" class="border"/>
    </g>
  </g>

  <!-- Modal Overlay -->
  <rect width="1440" height="900" class="bg-overlay"/>

  <!-- Modal -->
  <g transform="translate(445, 280)">
    <rect x="0" y="0" width="550" height="280" rx="8" class="bg-white"/>

    <!-- Warning icon -->
    <circle cx="275" cy="50" r="28" class="bg-warning"/>
    <text x="266" y="60" class="text-warning" font-size="24">⚠️</text>

    <!-- Title -->
    <text x="275" y="105" class="text-dark" font-size="16" font-weight="700" text-anchor="middle">Adresse IP refusée</text>

    <!-- Content -->
    <g transform="translate(40, 130)">
      <text x="0" y="0" class="text-dark" font-size="12">L'adresse IP 91.121.161.164 est un ancien serveur DNS OVHcloud.</text>
      <text x="0" y="25" class="text-dark" font-size="12">Les DNS OVHcloud valides sont :</text>
      <text x="0" y="50" class="text-primary" font-size="12" font-weight="600">213.186.33.99, 2001:41d0:3:163::1</text>
    </g>

    <!-- Button -->
    <g transform="translate(200, 220)">
      <rect x="0" y="0" width="150" height="40" rx="4" class="bg-primary"/>
      <text x="75" y="26" class="text-white" font-size="13" text-anchor="middle">Compris</text>
    </g>
  </g>
</svg>
