<svg xmlns="http://www.w3.org/2000/svg" viewBox="0 0 1440 900" width="1440" height="900">
  <defs>
    <style>
      .bg-main { fill: #F6F6F9; }
      .bg-header { fill: #000E9C; }
      .bg-white { fill: #FFFFFF; }
      .border { stroke: #E5E7EB; stroke-width: 1; fill: none; }
      .text-white { fill: #FFFFFF; font-family: 'Source Sans Pro', sans-serif; }
      .text-dark { fill: #1F2937; font-family: 'Source Sans Pro', sans-serif; }
      .text-muted { fill: #6B7280; font-family: 'Source Sans Pro', sans-serif; }
      .text-primary { fill: #0050D7; font-family: 'Source Sans Pro', sans-serif; }
    </style>
  </defs>

  <!-- Background -->
  <rect width="1440" height="900" class="bg-main"/>

  <!-- NAV1 - Header OVH -->
  <rect width="1440" height="50" class="bg-header"/>
  <text x="40" y="32" class="text-white" font-size="14" opacity="0.7">Accueil</text>
  <text x="700" y="32" class="text-white" font-size="14" font-weight="600">Espace client</text>
  <rect x="695" y="46" width="90" height="3" fill="#FFFFFF"/>

  <!-- NAV2 -->
  <rect x="0" y="50" width="1440" height="40" class="bg-white"/>
  <line x1="0" y1="89" x2="1440" y2="89" stroke="#E5E7EB"/>
  <text x="40" y="75" class="text-primary" font-size="14" font-weight="600">Tableau de bord</text>
  <rect x="35" y="85" width="100" height="3" fill="#0050D7"/>

  <!-- Main Content -->
  <g transform="translate(500, 105)">
    <!-- Widget Card - Changelog -->
    <rect x="0" y="0" width="450" height="380" rx="8" class="bg-white"/>
    <rect x="0" y="0" width="450" height="380" rx="8" class="border"/>

    <!-- Widget Header -->
    <g transform="translate(20, 20)">
      <text x="0" y="0" class="text-dark" font-size="15" font-weight="600">Dernières mises à jour</text>
      <text x="340" y="0" class="text-primary" font-size="12">Voir tout →</text>
    </g>

    <!-- New Release Banner -->
    <g transform="translate(20, 45)">
      <rect x="0" y="0" width="410" height="50" rx="4" fill="#DEF7EC"/>
      <text x="16" y="20" fill="#059669" font-size="11" font-weight="600">🎉 Nouvelle version disponible</text>
      <text x="16" y="38" fill="#059669" font-size="12">v24.12.0 - 02 janvier 2026</text>
    </g>

    <!-- Recent Changes List -->
    <g transform="translate(20, 110)">
      <!-- Change 1 -->
      <g transform="translate(0, 0)">
        <rect x="0" y="0" width="410" height="60" rx="4" fill="#F9FAFB"/>
        <rect x="16" y="15" width="60" height="18" rx="9" fill="#DEF7EC"/>
        <text x="46" y="27" fill="#059669" font-size="9" text-anchor="middle">feature</text>
        <text x="90" y="28" class="text-dark" font-size="11">Nouveau dashboard Public Cloud</text>
        <text x="90" y="45" class="text-muted" font-size="10">Il y a 2 heures</text>
      </g>

      <!-- Change 2 -->
      <g transform="translate(0, 70)">
        <rect x="0" y="0" width="410" height="60" rx="4" fill="#F9FAFB"/>
        <rect x="16" y="15" width="60" height="18" rx="9" fill="#FEE2E2"/>
        <text x="46" y="27" fill="#DC2626" font-size="9" text-anchor="middle">fix</text>
        <text x="90" y="28" class="text-dark" font-size="11">Correction affichage graphiques</text>
        <text x="90" y="45" class="text-muted" font-size="10">Il y a 5 heures</text>
      </g>

      <!-- Change 3 -->
      <g transform="translate(0, 140)">
        <rect x="0" y="0" width="410" height="60" rx="4" fill="#F9FAFB"/>
        <rect x="16" y="15" width="80" height="18" rx="9" fill="#DBEAFE"/>
        <text x="56" y="27" fill="#1E40AF" font-size="9" text-anchor="middle">improvement</text>
        <text x="110" y="28" class="text-dark" font-size="11">Performance améliorée</text>
        <text x="110" y="45" class="text-muted" font-size="10">Hier</text>
      </g>

      <!-- Change 4 -->
      <g transform="translate(0, 210)">
        <rect x="0" y="0" width="410" height="60" rx="4" fill="#F9FAFB"/>
        <rect x="16" y="15" width="60" height="18" rx="9" fill="#DEF7EC"/>
        <text x="46" y="27" fill="#059669" font-size="9" text-anchor="middle">feature</text>
        <text x="90" y="28" class="text-dark" font-size="11">Export factures PDF groupé</text>
        <text x="90" y="45" class="text-muted" font-size="10">Hier</text>
      </g>
    </g>

    <!-- GitHub Link -->
    <g transform="translate(20, 335)">
      <rect x="0" y="0" width="410" height="30" rx="4" fill="#F9FAFB"/>
      <text x="205" y="20" class="text-muted" font-size="11" text-anchor="middle">🔗 Voir sur GitHub (ovh/manager)</text>
    </g>
  </g>
</svg>
