<svg xmlns="http://www.w3.org/2000/svg" viewBox="0 0 1440 900" width="1440" height="900">
  <defs>
    <style>
      .bg-header { fill: #000E9C; }
      .bg-main { fill: #F6F6F9; }
      .bg-white { fill: #FFFFFF; }
      .bg-primary { fill: #0050D7; }
      .border { stroke: #E5E7EB; stroke-width: 1; fill: none; }
      .btn-outline { stroke: #0050D7; stroke-width: 1; fill: #FFFFFF; }
      .row-selected { fill: #E8F0FE; }
      .table-header { fill: #F9FAFB; }
      .text-white { fill: #FFFFFF; font-family: 'Source Sans Pro', sans-serif; }
      .text-dark { fill: #1F2937; font-family: 'Source Sans Pro', sans-serif; }
      .text-muted { fill: #6B7280; font-family: 'Source Sans Pro', sans-serif; }
      .text-primary { fill: #0050D7; font-family: 'Source Sans Pro', sans-serif; }
    </style>
  </defs>

  <rect width="1440" height="900" class="bg-main"/>

  <!-- NAV1 -->
  <rect width="1440" height="50" class="bg-header"/>
  <text x="40" y="32" class="text-white" font-size="14" opacity="0.7">Accueil</text>
  <text x="110" y="32" class="text-white" font-size="14" opacity="0.7">Public Cloud</text>
  <text x="210" y="32" class="text-white" font-size="14" opacity="0.7">Hosted Private Cloud</text>
  <text x="370" y="32" class="text-white" font-size="14" opacity="0.7">Bare Metal Cloud</text>
  <text x="510" y="32" class="text-white" font-size="14" font-weight="600">Web Cloud</text>
  <rect x="505" y="46" width="75" height="3" fill="#FFFFFF"/>
  <text x="620" y="32" class="text-white" font-size="14" opacity="0.7">Network</text>
  <text x="700" y="32" class="text-white" font-size="14" opacity="0.7">IAM / Securite</text>
  <text x="810" y="32" class="text-white" font-size="14" opacity="0.7">Licences</text>

  <!-- NAV2 -->
  <rect x="0" y="50" width="1440" height="40" class="bg-white"/>
  <line x1="0" y1="89" x2="1440" y2="89" stroke="#E5E7EB"/>
  <text x="40" y="75" class="text-muted" font-size="14">Accueil</text>
  <text x="110" y="75" class="text-muted" font-size="14">Domaines et DNS</text>
  <text x="240" y="75" class="text-primary" font-size="14" font-weight="600">Hebergement</text>
  <rect x="235" y="85" width="85" height="3" fill="#0050D7"/>
  <text x="345" y="75" class="text-muted" font-size="14">Wordpress</text>
  <text x="430" y="75" class="text-muted" font-size="14">Emails</text>
  <text x="500" y="75" class="text-muted" font-size="14">VoIP</text>
  <text x="550" y="75" class="text-muted" font-size="14">Acces</text>
  <text x="1350" y="75" class="text-primary" font-size="13">Guides</text>

  <!-- CONTENT -->
  <g transform="translate(0, 105)">
    <g transform="translate(24, 0)">
      <!-- LEFT PANEL -->
      <rect x="0" y="0" width="280" height="765" rx="8" class="bg-white"/>
      <rect x="0" y="0" width="280" height="765" rx="8" class="border"/>
      <rect x="12" y="12" width="256" height="34" rx="4" fill="#F9FAFB" stroke="#E5E7EB"/>
      <text x="40" y="34" class="text-muted" font-size="12">Rechercher...</text>
      <rect x="6" y="80" width="268" height="56" rx="6" class="row-selected"/>
      <circle cx="28" cy="108" r="14" fill="#0050D7"/>
      <text x="52" y="100" class="text-dark" font-size="13" font-weight="500">mywebsite.com</text>
      <text x="52" y="116" class="text-muted" font-size="11">Performance 1</text>
      <rect x="210" y="96" width="46" height="18" rx="9" fill="#DEF7EC"/>
      <text x="233" y="109" fill="#03543F" font-size="10" text-anchor="middle">Actif</text>
    </g>
    <g transform="translate(320, 0)">
      <!-- RIGHT PANEL -->
      <rect x="0" y="0" width="1096" height="765" rx="8" class="bg-white"/>
      <rect x="0" y="0" width="1096" height="765" rx="8" class="border"/>
      <g transform="translate(20, 0)">
        <text x="0" y="24" class="text-dark" font-size="18" font-weight="600">mywebsite.com</text>
        <!-- NAV3 TABS - FTP-SSH actif -->
        <g transform="translate(0, 38)">
          <rect x="0" y="0" width="50" height="26" rx="4" class="btn-outline"/>
          <text x="25" y="17" class="text-primary" font-size="11" text-anchor="middle">Home</text>
          <rect x="54" y="0" width="70" height="26" rx="4" class="btn-outline"/>
          <text x="89" y="17" class="text-primary" font-size="11" text-anchor="middle">Multisite</text>
          <rect x="128" y="0" width="60" height="26" rx="4" class="bg-primary"/>
          <text x="158" y="17" class="text-white" font-size="11" text-anchor="middle">FTP-SSH</text>
          <rect x="192" y="0" width="60" height="26" rx="4" class="btn-outline"/>
          <text x="222" y="17" class="text-primary" font-size="11" text-anchor="middle">Modules</text>
          <rect x="256" y="0" width="55" height="26" rx="4" class="btn-outline"/>
          <text x="283" y="17" class="text-primary" font-size="11" text-anchor="middle">Taches</text>
          <rect x="315" y="0" width="50" height="26" rx="4" class="btn-outline"/>
          <text x="340" y="17" class="text-primary" font-size="11" text-anchor="middle">Emails</text>
          <rect x="369" y="0" width="65" height="26" rx="4" class="btn-outline"/>
          <text x="401" y="17" class="text-primary" font-size="11" text-anchor="middle">Variables</text>
          <rect x="438" y="0" width="65" height="26" rx="4" class="btn-outline"/>
          <text x="470" y="17" class="text-primary" font-size="11" text-anchor="middle">Runtimes</text>
          <rect x="507" y="0" width="35" height="26" rx="4" class="btn-outline"/>
          <text x="524" y="17" class="text-primary" font-size="11" text-anchor="middle">SSL</text>
          <rect x="546" y="0" width="40" height="26" rx="4" class="btn-outline"/>
          <text x="566" y="17" class="text-primary" font-size="11" text-anchor="middle">CDN</text>
          <rect x="590" y="0" width="45" height="26" rx="4" class="btn-outline"/>
          <text x="612" y="17" class="text-primary" font-size="11" text-anchor="middle">Boost</text>
          <rect x="639" y="0" width="40" height="26" rx="4" class="btn-outline"/>
          <text x="659" y="17" class="text-primary" font-size="11" text-anchor="middle">Logs</text>
          <rect x="683" y="0" width="40" height="26" rx="4" class="btn-outline"/>
          <text x="703" y="17" class="text-primary" font-size="11" text-anchor="middle">BDD</text>
          <rect x="727" y="0" width="75" height="26" rx="4" class="btn-outline"/>
          <text x="764" y="17" class="text-primary" font-size="11" text-anchor="middle">BDD Cloud</text>
          <rect x="806" y="0" width="45" height="26" rx="4" class="btn-outline"/>
          <text x="828" y="17" class="text-primary" font-size="11" text-anchor="middle">Cron</text>
          <rect x="855" y="0" width="40" height="26" rx="4" class="btn-outline"/>
          <text x="875" y="17" class="text-primary" font-size="11" text-anchor="middle">SEO</text>
        </g>
        <!-- INFO BLOC -->
        <g transform="translate(0, 80)">
          <rect x="0" y="0" width="1056" height="120" rx="8" class="bg-white"/>
          <rect x="0" y="0" width="1056" height="120" rx="8" class="border"/>
          <text x="20" y="24" class="text-dark" font-size="15" font-weight="700">Informations FTP</text>
          <text x="20" y="44" class="text-muted" font-size="11">Ces parametres vous permettront de mettre votre site en ligne</text>
          <g transform="translate(20, 60)">
            <text x="0" y="0" class="text-muted" font-size="10">Serveur FTP et SFTP</text>
            <text x="0" y="16" class="text-dark" font-size="11">ftp.cluster027.hosting.ovh.net</text>
            <text x="300" y="0" class="text-muted" font-size="10">Serveur SSH</text>
            <text x="300" y="16" class="text-dark" font-size="11">ssh.cluster027.hosting.ovh.net</text>
            <text x="600" y="0" class="text-muted" font-size="10">Login principal</text>
            <text x="600" y="16" class="text-dark" font-size="11">mywebsitec</text>
            <text x="0" y="42" class="text-muted" font-size="10">Port FTP: 21 | Port SFTP: 22 | Port SSH: 22</text>
          </g>
        </g>
        <!-- TOOLBAR -->
        <g transform="translate(0, 220)">
          <rect x="0" y="0" width="140" height="32" rx="4" class="bg-primary"/>
          <text x="70" y="21" class="text-white" font-size="11" text-anchor="middle">+ Creer utilisateur</text>
          <rect x="150" y="0" width="160" height="32" rx="4" class="btn-outline"/>
          <text x="230" y="21" class="text-primary" font-size="11" text-anchor="middle">Restaurer sauvegarde</text>
          <rect x="320" y="0" width="150" height="32" rx="4" class="btn-outline"/>
          <text x="395" y="21" class="text-primary" font-size="11" text-anchor="middle">Generer sauvegarde</text>
        </g>
        <!-- TABLE -->
        <g transform="translate(0, 270)">
          <rect x="0" y="0" width="1056" height="350" rx="8" class="bg-white"/>
          <rect x="0" y="0" width="1056" height="350" rx="8" class="border"/>
          <!-- Header -->
          <rect x="0" y="0" width="1056" height="40" rx="8" class="table-header"/>
          <text x="20" y="26" class="text-dark" font-size="11" font-weight="600">Login</text>
          <text x="180" y="26" class="text-dark" font-size="11" font-weight="600">Repertoire cible</text>
          <text x="400" y="26" class="text-dark" font-size="11" font-weight="600">FTP</text>
          <text x="500" y="26" class="text-dark" font-size="11" font-weight="600">SFTP</text>
          <text x="600" y="26" class="text-dark" font-size="11" font-weight="600">SSH</text>
          <text x="700" y="26" class="text-dark" font-size="11" font-weight="600">Etat</text>
          <text x="1020" y="26" class="text-dark" font-size="11" font-weight="600"></text>
          <!-- Row 1 -->
          <rect x="0" y="40" width="1056" height="45" fill="#FFFFFF"/>
          <line x1="0" y1="85" x2="1056" y2="85" stroke="#E5E7EB"/>
          <text x="20" y="68" class="text-dark" font-size="11">mywebsitec</text>
          <text x="180" y="68" class="text-dark" font-size="11">/home/mywebsitec</text>
          <rect x="400" y="55" width="46" height="18" rx="9" fill="#DEF7EC"/>
          <text x="423" y="68" fill="#03543F" font-size="10" text-anchor="middle">Actif</text>
          <rect x="500" y="55" width="46" height="18" rx="9" fill="#DEF7EC"/>
          <text x="523" y="68" fill="#03543F" font-size="10" text-anchor="middle">Actif</text>
          <rect x="600" y="55" width="46" height="18" rx="9" fill="#DEF7EC"/>
          <text x="623" y="68" fill="#03543F" font-size="10" text-anchor="middle">Actif</text>
          <rect x="700" y="55" width="46" height="18" rx="9" fill="#DEF7EC"/>
          <text x="723" y="68" fill="#03543F" font-size="10" text-anchor="middle">Actif</text>
          <text x="1020" y="68" class="text-muted" font-size="16">...</text>
          <!-- Row 2 -->
          <rect x="0" y="85" width="1056" height="45" fill="#FFFFFF"/>
          <line x1="0" y1="130" x2="1056" y2="130" stroke="#E5E7EB"/>
          <text x="20" y="113" class="text-dark" font-size="11">mywebsitec-dev</text>
          <text x="180" y="113" class="text-dark" font-size="11">/home/mywebsitec/dev</text>
          <rect x="400" y="100" width="46" height="18" rx="9" fill="#DEF7EC"/>
          <text x="423" y="113" fill="#03543F" font-size="10" text-anchor="middle">Actif</text>
          <rect x="500" y="100" width="46" height="18" rx="9" fill="#DEF7EC"/>
          <text x="523" y="113" fill="#03543F" font-size="10" text-anchor="middle">Actif</text>
          <rect x="600" y="100" width="56" height="18" rx="9" fill="#F3F4F6"/>
          <text x="628" y="113" fill="#6B7280" font-size="10" text-anchor="middle">Desactive</text>
          <rect x="700" y="100" width="46" height="18" rx="9" fill="#DEF7EC"/>
          <text x="723" y="113" fill="#03543F" font-size="10" text-anchor="middle">Actif</text>
          <text x="1020" y="113" class="text-muted" font-size="16">...</text>
        </g>
      </g>
    </g>
  </g>
</svg>
