<svg xmlns="http://www.w3.org/2000/svg" viewBox="0 0 1440 900" width="1440" height="900">
  <defs>
    <style>
      .bg-header { fill: #000E9C; }
      .bg-white { fill: #FFFFFF; }
      .bg-muted { fill: #F9FAFB; }
      .bg-neutral-100 { fill: #F3F4F6; }
      .border { stroke: #E5E7EB; stroke-width: 1; fill: none; }
      .text-white { font-family: 'Source Sans Pro', sans-serif; fill: #FFFFFF; }
      .text-body { font-family: 'Source Sans Pro', sans-serif; font-size: 14px; fill: #1F2937; }
      .text-muted { font-family: 'Source Sans Pro', sans-serif; font-size: 14px; fill: #6B7280; }
      .text-primary { font-family: 'Source Sans Pro', sans-serif; font-size: 14px; fill: #0050D7; }
      .text-heading { font-family: 'Source Sans Pro', sans-serif; font-size: 24px; font-weight: 600; fill: #1F2937; }
      .text-subheading { font-family: 'Source Sans Pro', sans-serif; font-size: 16px; font-weight: 600; fill: #1F2937; }
      .text-small { font-family: 'Source Sans Pro', sans-serif; font-size: 12px; fill: #6B7280; }
      .btn-primary { fill: #0050D7; }
      .btn-outline { fill: #FFFFFF; stroke: #E5E7EB; stroke-width: 1; }
      .btn-text { font-family: 'Source Sans Pro', sans-serif; font-size: 14px; fill: #FFFFFF; }
      .btn-text-dark { font-family: 'Source Sans Pro', sans-serif; font-size: 14px; fill: #1F2937; }
      .tag-chip { fill: #E8F0FE; }
      .tag-chip-text { font-family: 'Source Sans Pro', sans-serif; font-size: 14px; fill: #0050D7; }
      .badge-custom { fill: #DBEAFE; }
      .badge-custom-text { font-family: 'Source Sans Pro', sans-serif; font-size: 12px; fill: #1D4ED8; }
    </style>
  </defs>
  
  <!-- Background -->
  <rect width="1440" height="900" class="bg-muted"/>
  
  <!-- Header OVH -->
  <rect width="1440" height="60" class="bg-header"/>
  <text x="80" y="38" class="text-white" font-size="18" font-weight="600">OVHcloud</text>
  
  <!-- Sidebar -->
  <rect x="0" y="60" width="240" height="840" class="bg-white"/>
  <rect x="240" y="60" width="1" height="840" class="border"/>
  <text x="20" y="100" class="text-body" font-weight="600">Identity & Access Management</text>
  <text x="20" y="130" class="text-muted">Key Management Service</text>
  <text x="20" y="160" class="text-muted">Secret Manager</text>
  <rect x="0" y="175" width="240" height="36" fill="#E8F0FE"/>
  <text x="20" y="198" class="text-primary" font-weight="500">Tag Manager</text>
  
  <!-- Main Content -->
  <g transform="translate(280, 80)">
    <!-- Breadcrumb -->
    <text x="0" y="0" class="text-primary" font-size="13">Tag Manager</text>
    <text x="85" y="0" class="text-muted" font-size="13">/</text>
    <text x="95" y="0" class="text-body" font-size="13">env:production</text>
    
    <!-- Back link -->
    <text x="0" y="30" class="text-primary" font-size="13">← Retour à la liste des tags</text>
    
    <!-- Title with tag chip -->
    <g transform="translate(0, 60)">
      <rect x="0" y="0" width="160" height="36" rx="18" class="tag-chip"/>
      <text x="20" y="24" class="tag-chip-text">env:production</text>
      
      <rect x="180" y="6" width="70" height="24" rx="4" class="badge-custom"/>
      <text x="195" y="23" class="badge-custom-text">Custom</text>
    </g>
    
    <!-- Tile: Informations -->
    <g transform="translate(0, 120)">
      <rect x="0" y="0" width="500" height="200" rx="8" class="bg-white"/>
      <rect x="0" y="0" width="500" height="200" rx="8" class="border"/>
      
      <text x="24" y="35" class="text-subheading">Informations</text>
      
      <text x="24" y="75" class="text-small">Clé</text>
      <text x="24" y="95" class="text-body">env</text>
      
      <text x="24" y="130" class="text-small">Valeur</text>
      <text x="24" y="150" class="text-body">production</text>
      
      <text x="24" y="180" class="text-primary">Supprimer le tag</text>
    </g>
    
    <!-- Section: Ressources assignées -->
    <g transform="translate(0, 350)">
      <text x="0" y="0" class="text-subheading">Ressources assignées (12)</text>
      
      <!-- Buttons -->
      <rect x="800" y="-10" width="150" height="36" rx="4" class="btn-primary"/>
      <text x="815" y="12" class="btn-text">Assigner ressources</text>
      
      <rect x="960" y="-10" width="140" height="36" rx="4" class="btn-outline"/>
      <text x="978" y="12" class="btn-text-dark">Désassigner</text>
      
      <!-- Resources Datagrid -->
      <g transform="translate(0, 30)">
        <!-- Header -->
        <rect x="0" y="0" width="1100" height="44" class="bg-neutral-100"/>
        <rect x="0" y="0" width="1100" height="44" class="border"/>
        <rect x="20" y="14" width="18" height="18" rx="2" fill="#FFFFFF" stroke="#E5E7EB"/>
        <text x="60" y="27" class="text-body" font-weight="600">Ressource</text>
        <text x="400" y="27" class="text-body" font-weight="600">Type</text>
        <text x="600" y="27" class="text-body" font-weight="600">Région</text>
        
        <!-- Row 1 -->
        <rect x="0" y="44" width="1100" height="56" class="bg-white"/>
        <rect x="0" y="44" width="1100" height="56" class="border"/>
        <rect x="20" y="58" width="18" height="18" rx="2" fill="#FFFFFF" stroke="#E5E7EB"/>
        <text x="60" y="77" class="text-primary">pci-123456/instance-web-01</text>
        <text x="400" y="77" class="text-body">Public Cloud Instance</text>
        <text x="600" y="77" class="text-body">GRA</text>
        
        <!-- Row 2 -->
        <rect x="0" y="100" width="1100" height="56" class="bg-white"/>
        <rect x="0" y="100" width="1100" height="56" class="border"/>
        <rect x="20" y="114" width="18" height="18" rx="2" fill="#0050D7" stroke="#0050D7"/>
        <text x="24" y="128" fill="#FFFFFF" font-size="12">✓</text>
        <text x="60" y="133" class="text-primary">pci-123456/instance-api-02</text>
        <text x="400" y="133" class="text-body">Public Cloud Instance</text>
        <text x="600" y="133" class="text-body">GRA</text>
        
        <!-- Row 3 -->
        <rect x="0" y="156" width="1100" height="56" class="bg-white"/>
        <rect x="0" y="156" width="1100" height="56" class="border"/>
        <rect x="20" y="170" width="18" height="18" rx="2" fill="#FFFFFF" stroke="#E5E7EB"/>
        <text x="60" y="189" class="text-primary">kube-prod-cluster-01</text>
        <text x="400" y="189" class="text-body">Managed Kubernetes</text>
        <text x="600" y="189" class="text-body">GRA</text>
        
        <!-- Row 4 -->
        <rect x="0" y="212" width="1100" height="56" class="bg-white"/>
        <rect x="0" y="212" width="1100" height="56" class="border"/>
        <rect x="20" y="226" width="18" height="18" rx="2" fill="#FFFFFF" stroke="#E5E7EB"/>
        <text x="60" y="245" class="text-primary">db-mysql-prod</text>
        <text x="400" y="245" class="text-body">Public Cloud Database</text>
        <text x="600" y="245" class="text-body">SBG</text>
      </g>
    </g>
  </g>
</svg>
