<?xml version="1.0" encoding="UTF-8"?>
<svg width="1100" height="550" viewBox="0 0 1100 550" fill="none" xmlns="http://www.w3.org/2000/svg">
  <title>Web Cloud - Email Services List</title>
  <rect width="1100" height="550" fill="#F9FAFB"/>
  <g transform="translate(30, 30)">
    <text x="0" y="0" fill="#1F2937" font-family="system-ui, sans-serif" font-size="22" font-weight="600">Services Email</text>
    <text x="0" y="28" fill="#6B7280" font-family="system-ui, sans-serif" font-size="13">MX Plan, Email Pro, Exchange</text>
  </g>
  <g transform="translate(850, 25)"><rect x="0" y="0" width="180" height="40" rx="4" fill="#0050D7"/><text x="35" y="26" fill="white" font-family="system-ui, sans-serif" font-size="13">+ Commander Email</text></g>
  <g transform="translate(30, 85)">
    <rect x="0" y="0" width="180" height="90" rx="8" fill="white" stroke="#E5E7EB"/>
    <text x="15" y="25" fill="#6B7280" font-family="system-ui, sans-serif" font-size="11">MX PLAN</text>
    <text x="15" y="55" fill="#1F2937" font-family="system-ui, sans-serif" font-size="28" font-weight="600">8</text>
    <text x="15" y="75" fill="#6B7280" font-family="system-ui, sans-serif" font-size="11">45 boîtes email</text>
  </g>
  <g transform="translate(230, 85)">
    <rect x="0" y="0" width="180" height="90" rx="8" fill="white" stroke="#E5E7EB"/>
    <text x="15" y="25" fill="#6B7280" font-family="system-ui, sans-serif" font-size="11">EMAIL PRO</text>
    <text x="15" y="55" fill="#1F2937" font-family="system-ui, sans-serif" font-size="28" font-weight="600">3</text>
    <text x="15" y="75" fill="#6B7280" font-family="system-ui, sans-serif" font-size="11">25 boîtes email</text>
  </g>
  <g transform="translate(430, 85)">
    <rect x="0" y="0" width="180" height="90" rx="8" fill="white" stroke="#E5E7EB"/>
    <text x="15" y="25" fill="#6B7280" font-family="system-ui, sans-serif" font-size="11">EXCHANGE</text>
    <text x="15" y="55" fill="#1F2937" font-family="system-ui, sans-serif" font-size="28" font-weight="600">2</text>
    <text x="15" y="75" fill="#6B7280" font-family="system-ui, sans-serif" font-size="11">50 boîtes email</text>
  </g>
  <g transform="translate(630, 85)">
    <rect x="0" y="0" width="180" height="90" rx="8" fill="white" stroke="#E5E7EB"/>
    <text x="15" y="25" fill="#6B7280" font-family="system-ui, sans-serif" font-size="11">ESPACE TOTAL</text>
    <text x="15" y="55" fill="#1F2937" font-family="system-ui, sans-serif" font-size="28" font-weight="600">520 Go</text>
    <text x="15" y="75" fill="#16A34A" font-family="system-ui, sans-serif" font-size="11">312 Go utilisés (60%)</text>
  </g>
  <g transform="translate(30, 195)">
    <rect x="0" y="0" width="1040" height="340" rx="8" fill="white" stroke="#E5E7EB"/>
    <g transform="translate(20, 20)">
      <rect x="0" y="0" width="300" height="36" rx="4" fill="#F9FAFB"/>
      <text x="15" y="24" fill="#9CA3AF" font-family="system-ui, sans-serif" font-size="13">🔍 Rechercher...</text>
      <rect x="320" y="0" width="100" height="36" rx="4" fill="white" stroke="#E5E7EB"/>
      <text x="335" y="24" fill="#6B7280" font-family="system-ui, sans-serif" font-size="12">Type ▾</text>
    </g>
    <g transform="translate(20, 75)">
      <text x="0" y="0" fill="#6B7280" font-family="system-ui, sans-serif" font-size="11" font-weight="500">SERVICE</text>
      <text x="200" y="0" fill="#6B7280" font-family="system-ui, sans-serif" font-size="11" font-weight="500">TYPE</text>
      <text x="330" y="0" fill="#6B7280" font-family="system-ui, sans-serif" font-size="11" font-weight="500">DOMAINE</text>
      <text x="520" y="0" fill="#6B7280" font-family="system-ui, sans-serif" font-size="11" font-weight="500">COMPTES</text>
      <text x="650" y="0" fill="#6B7280" font-family="system-ui, sans-serif" font-size="11" font-weight="500">ESPACE</text>
      <text x="800" y="0" fill="#6B7280" font-family="system-ui, sans-serif" font-size="11" font-weight="500">EXPIRATION</text>
      <text x="940" y="0" fill="#6B7280" font-family="system-ui, sans-serif" font-size="11" font-weight="500">STATUT</text>
    </g>
    <line x1="20" y1="90" x2="1000" y2="90" stroke="#E5E7EB"/>
    <g transform="translate(20, 110)">
      <text x="0" y="0" fill="#0050D7" font-family="system-ui, sans-serif" font-size="13" font-weight="500">exchange-001</text>
      <rect x="200" y="-10" width="70" height="20" rx="4" fill="#7C3AED"/><text x="210" y="5" fill="white" font-family="system-ui, sans-serif" font-size="10">Exchange</text>
      <text x="330" y="0" fill="#1F2937" font-family="system-ui, sans-serif" font-size="12">company.com</text>
      <text x="520" y="0" fill="#1F2937" font-family="system-ui, sans-serif" font-size="12">25/50</text>
      <text x="650" y="0" fill="#1F2937" font-family="system-ui, sans-serif" font-size="12">180/250 Go</text>
      <text x="800" y="0" fill="#1F2937" font-family="system-ui, sans-serif" font-size="12">15 avr. 2025</text>
      <rect x="940" y="-10" width="50" height="20" rx="4" fill="#DCFCE7"/><text x="952" y="5" fill="#16A34A" font-family="system-ui, sans-serif" font-size="10">Actif</text>
    </g>
    <line x1="20" y1="135" x2="1000" y2="135" stroke="#F3F4F6"/>
    <g transform="translate(20, 155)">
      <text x="0" y="0" fill="#0050D7" font-family="system-ui, sans-serif" font-size="13" font-weight="500">emailpro-prod</text>
      <rect x="200" y="-10" width="75" height="20" rx="4" fill="#0050D7"/><text x="210" y="5" fill="white" font-family="system-ui, sans-serif" font-size="10">Email Pro</text>
      <text x="330" y="0" fill="#1F2937" font-family="system-ui, sans-serif" font-size="12">startup.io</text>
      <text x="520" y="0" fill="#1F2937" font-family="system-ui, sans-serif" font-size="12">15/25</text>
      <text x="650" y="0" fill="#1F2937" font-family="system-ui, sans-serif" font-size="12">75/100 Go</text>
      <text x="800" y="0" fill="#1F2937" font-family="system-ui, sans-serif" font-size="12">28 mars 2025</text>
      <rect x="940" y="-10" width="50" height="20" rx="4" fill="#DCFCE7"/><text x="952" y="5" fill="#16A34A" font-family="system-ui, sans-serif" font-size="10">Actif</text>
    </g>
    <line x1="20" y1="180" x2="1000" y2="180" stroke="#F3F4F6"/>
    <g transform="translate(20, 200)">
      <text x="0" y="0" fill="#0050D7" font-family="system-ui, sans-serif" font-size="13" font-weight="500">mxplan-blog</text>
      <rect x="200" y="-10" width="65" height="20" rx="4" fill="#16A34A"/><text x="210" y="5" fill="white" font-family="system-ui, sans-serif" font-size="10">MX Plan</text>
      <text x="330" y="0" fill="#1F2937" font-family="system-ui, sans-serif" font-size="12">myblog.fr</text>
      <text x="520" y="0" fill="#1F2937" font-family="system-ui, sans-serif" font-size="12">3/5</text>
      <text x="650" y="0" fill="#1F2937" font-family="system-ui, sans-serif" font-size="12">2/5 Go</text>
      <text x="800" y="0" fill="#DC2626" font-family="system-ui, sans-serif" font-size="12">10 jan. 2025</text>
      <rect x="940" y="-10" width="70" height="20" rx="4" fill="#FEF3C7"/><text x="945" y="5" fill="#92400E" font-family="system-ui, sans-serif" font-size="10">Expire bientôt</text>
    </g>
  </g>
</svg>
