<svg xmlns="http://www.w3.org/2000/svg" viewBox="0 0 1440 700" width="1440" height="700">
  <defs><style>.bg-muted{fill:#F9FAFB}.bg-white{fill:#FFF}.bg-header{fill:#000E9C}.text-body{font-family:'Source Sans Pro',sans-serif;font-size:14px;fill:#1F2937}.text-muted{font-family:'Source Sans Pro',sans-serif;font-size:14px;fill:#6B7280}.text-title{font-family:'Source Sans Pro',sans-serif;font-size:28px;fill:#1F2937;font-weight:600}.text-white{font-family:'Source Sans Pro',sans-serif;fill:#FFF}.text-h2{font-family:'Source Sans Pro',sans-serif;font-size:18px;fill:#1F2937;font-weight:600}.text-link{font-family:'Source Sans Pro',sans-serif;font-size:14px;fill:#0050D7}.sidebar-item{font-family:'Source Sans Pro',sans-serif;font-size:14px;fill:#374151}.sidebar-item-active{font-family:'Source Sans Pro',sans-serif;font-size:14px;fill:#0050D7;font-weight:600}.tab-active{fill:#0050D7}.tab-inactive{fill:#6B7280}</style></defs>
  <rect width="1440" height="700" class="bg-muted"/>
  <g id="header"><rect width="1440" height="60" class="bg-header"/><text x="20" y="38" class="text-white" font-size="20" font-weight="bold">OVHcloud</text><text x="140" y="38" class="text-white" font-size="14">Manager</text><circle cx="1380" cy="30" r="16" fill="#374151"/></g>
  <g id="sidebar" transform="translate(0,60)"><rect width="240" height="640" class="bg-white"/><line x1="240" y1="0" x2="240" y2="640" stroke="#E5E7EB"/><text x="20" y="34" class="sidebar-item">Accueil</text><text x="20" y="74" class="sidebar-item">Mon compte</text><rect x="0" y="88" width="240" height="40" fill="#E8F0FE"/><text x="20" y="114" class="sidebar-item-active">Facturation</text></g>
  <g id="content" transform="translate(240,60)"><rect width="1200" height="640" class="bg-muted"/><g transform="translate(40,30)"><text x="0" y="30" class="text-title">Facturation</text></g>
  <g transform="translate(40,80)"><rect width="1120" height="45" fill="#FFF" stroke="#E5E7EB"/><text x="15" y="28" class="tab-inactive" font-size="13">Services</text><text x="90" y="28" class="tab-inactive" font-size="13">Factures</text><rect x="155" y="43" width="50" height="2" fill="#0050D7"/><text x="160" y="28" class="tab-active" font-size="13" font-weight="600">Avoirs</text><text x="220" y="28" class="tab-inactive" font-size="13">Paiement</text><text x="295" y="28" class="tab-inactive" font-size="13">Commandes</text></g>
  <g transform="translate(40,150)">
    <rect width="300" height="80" rx="8" fill="#DEF7EC" stroke="#10B981"/>
    <text x="20" y="35" class="text-h2" fill="#03543F">Total des avoirs</text>
    <text x="20" y="60" fill="#03543F" font-size="24" font-weight="600">45,00 EUR</text>
  </g>
  <g transform="translate(40,250)">
    <text x="0" y="25" class="text-h2">Liste des avoirs</text>
    <g transform="translate(0,45)">
      <rect width="1120" height="280" rx="8" class="bg-white" stroke="#E5E7EB"/>
      <rect width="1120" height="45" fill="#F3F4F6"/><text x="20" y="28" class="text-body" font-weight="500">Reference</text><text x="200" y="28" class="text-body" font-weight="500">Facture originale</text><text x="400" y="28" class="text-body" font-weight="500">Date</text><text x="550" y="28" class="text-body" font-weight="500">Montant</text><text x="750" y="28" class="text-body" font-weight="500">Actions</text>
      <line x1="0" y1="45" x2="1120" y2="45" stroke="#E5E7EB"/>
      <text x="20" y="80" class="text-link">AV-2024-000123</text><text x="200" y="80" class="text-link">FR-2024-123400</text><text x="400" y="80" class="text-body">18 dec. 2024</text><text x="550" y="80" class="text-body" font-weight="500">25,00 EUR</text><rect x="750" y="65" width="110" height="28" rx="4" fill="#0050D7"/><text x="765" y="84" fill="#FFF" font-size="12">Telecharger PDF</text>
      <line x1="0" y1="105" x2="1120" y2="105" stroke="#E5E7EB"/>
      <text x="20" y="140" class="text-link">AV-2024-000122</text><text x="200" y="140" class="text-link">FR-2024-123350</text><text x="400" y="140" class="text-body">10 dec. 2024</text><text x="550" y="140" class="text-body" font-weight="500">20,00 EUR</text><rect x="750" y="125" width="110" height="28" rx="4" fill="#0050D7"/><text x="765" y="144" fill="#FFF" font-size="12">Telecharger PDF</text>
    </g>
  </g></g>
</svg>
