<svg xmlns="http://www.w3.org/2000/svg" viewBox="0 0 1440 750" width="1440" height="750">
  <defs><style>.bg-muted{fill:#F9FAFB}.bg-white{fill:#FFF}.bg-header{fill:#000E9C}.text-body{font-family:'Source Sans Pro',sans-serif;font-size:14px;fill:#1F2937}.text-muted{font-family:'Source Sans Pro',sans-serif;font-size:14px;fill:#6B7280}.text-title{font-family:'Source Sans Pro',sans-serif;font-size:28px;fill:#1F2937;font-weight:600}.text-white{font-family:'Source Sans Pro',sans-serif;fill:#FFF}.text-h2{font-family:'Source Sans Pro',sans-serif;font-size:18px;fill:#1F2937;font-weight:600}.text-link{font-family:'Source Sans Pro',sans-serif;font-size:14px;fill:#0050D7}.sidebar-item{font-family:'Source Sans Pro',sans-serif;font-size:14px;fill:#374151}.sidebar-item-active{font-family:'Source Sans Pro',sans-serif;font-size:14px;fill:#0050D7;font-weight:600}.tab-active{fill:#0050D7}.tab-inactive{fill:#6B7280}</style></defs>
  <rect width="1440" height="750" class="bg-muted"/>
  <g id="header"><rect width="1440" height="60" class="bg-header"/><text x="20" y="38" class="text-white" font-size="20" font-weight="bold">OVHcloud</text><text x="140" y="38" class="text-white" font-size="14">Manager</text><circle cx="1380" cy="30" r="16" fill="#374151"/></g>
  <g id="sidebar" transform="translate(0,60)"><rect width="240" height="690" class="bg-white"/><line x1="240" y1="0" x2="240" y2="690" stroke="#E5E7EB"/><text x="20" y="34" class="sidebar-item">Accueil</text><text x="20" y="74" class="sidebar-item">Mon compte</text><rect x="0" y="88" width="240" height="40" fill="#E8F0FE"/><text x="20" y="114" class="sidebar-item-active">Facturation</text></g>
  <g id="content" transform="translate(240,60)"><rect width="1200" height="690" class="bg-muted"/><g transform="translate(40,30)"><text x="0" y="30" class="text-title">Facturation</text></g>
  <g transform="translate(40,80)"><rect width="1120" height="45" fill="#FFF" stroke="#E5E7EB"/><text x="15" y="28" class="tab-inactive" font-size="13">Services</text><text x="90" y="28" class="tab-inactive" font-size="13">Factures</text><text x="160" y="28" class="tab-inactive" font-size="13">Avoirs</text><text x="215" y="28" class="tab-inactive" font-size="13">Paiement</text><text x="290" y="28" class="tab-inactive" font-size="13">Commandes</text><rect x="380" y="43" width="100" height="2" fill="#0050D7"/><text x="385" y="28" class="tab-active" font-size="13" font-weight="600">Mes references</text></g>
  <g transform="translate(40,150)">
    <rect width="1120" height="80" rx="8" fill="#E8F0FE" stroke="#0050D7"/>
    <text x="20" y="35" class="text-h2" fill="#0050D7">References de bon de commande</text>
    <text x="20" y="60" class="text-body">Ajoutez des references personnalisees pour vos factures (numero de PO, code projet, etc.).</text>
  </g>
  <g transform="translate(40,250)">
    <rect x="0" y="0" width="180" height="36" rx="4" fill="#0050D7"/><text x="25" y="23" fill="#FFF" font-size="13">Ajouter une reference</text>
  </g>
  <g transform="translate(40,310)">
    <rect width="1120" height="350" rx="8" class="bg-white" stroke="#E5E7EB"/>
    <rect width="1120" height="45" fill="#F3F4F6"/><text x="20" y="28" class="text-body" font-weight="500">Reference</text><text x="250" y="28" class="text-body" font-weight="500">Date creation</text><text x="420" y="28" class="text-body" font-weight="500">Date debut</text><text x="580" y="28" class="text-body" font-weight="500">Date fin</text><text x="740" y="28" class="text-body" font-weight="500">Statut</text><text x="900" y="28" class="text-body" font-weight="500">Actions</text>
    <line x1="0" y1="45" x2="1120" y2="45" stroke="#E5E7EB"/>
    <text x="20" y="80" class="text-body">PO-2024-PROJET-A</text><text x="250" y="80" class="text-body">01 dec. 2024</text><text x="420" y="80" class="text-body">01 dec. 2024</text><text x="580" y="80" class="text-body">31 dec. 2024</text><rect x="740" y="65" width="50" height="22" rx="11" fill="#DEF7EC"/><text x="752" y="81" fill="#03543F" font-size="12">Actif</text><text x="900" y="80" fill="#EF4444">Desactiver</text>
    <line x1="0" y1="105" x2="1120" y2="105" stroke="#E5E7EB"/>
    <text x="20" y="140" class="text-body">PO-2024-INFRA</text><text x="250" y="140" class="text-body">15 nov. 2024</text><text x="420" y="140" class="text-body">15 nov. 2024</text><text x="580" y="140" class="text-body">15 jan. 2025</text><rect x="740" y="125" width="50" height="22" rx="11" fill="#DEF7EC"/><text x="752" y="141" fill="#03543F" font-size="12">Actif</text><text x="900" y="140" fill="#EF4444">Desactiver</text>
    <line x1="0" y1="165" x2="1120" y2="165" stroke="#E5E7EB"/>
    <text x="20" y="200" class="text-muted">PO-2024-OLD</text><text x="250" y="200" class="text-body">01 jan. 2024</text><text x="420" y="200" class="text-body">01 jan. 2024</text><text x="580" y="200" class="text-body">30 jun. 2024</text><rect x="740" y="185" width="55" height="22" rx="11" fill="#E5E7EB"/><text x="752" y="201" fill="#374151" font-size="12">Expire</text><text x="900" y="200" class="text-link">Reactiver</text>
  </g></g>
</svg>
