<svg xmlns="http://www.w3.org/2000/svg" viewBox="0 0 1440 900" width="1440" height="900">
  <defs>
    <style>
      .bg-header { fill: #000E9C; }
      .bg-main { fill: #F6F6F9; }
      .bg-white { fill: #FFFFFF; }
      .bg-primary { fill: #0050D7; }
      .bg-neutral-100 { fill: #F3F4F6; }
      .bg-info { fill: #DBEAFE; }
      .bg-success { fill: #DEF7EC; }
      .border { stroke: #E5E7EB; stroke-width: 1; fill: none; }
      .btn-outline { stroke: #0050D7; stroke-width: 1; fill: #FFFFFF; }
      .btn-primary { fill: #0050D7; }
      .row-selected { fill: #E8F0FE; }
      .table-header { fill: #F9FAFB; }
      .text-white { fill: #FFFFFF; font-family: 'Source Sans Pro', sans-serif; }
      .text-dark { fill: #1F2937; font-family: 'Source Sans Pro', sans-serif; }
      .text-muted { fill: #6B7280; font-family: 'Source Sans Pro', sans-serif; }
      .text-primary { fill: #0050D7; font-family: 'Source Sans Pro', sans-serif; }
      .text-success { fill: #059669; font-family: 'Source Sans Pro', sans-serif; }
      .text-info { fill: #1E40AF; font-family: 'Source Sans Pro', sans-serif; }
    </style>
  </defs>

  <!-- Background -->
  <rect width="1440" height="900" class="bg-main"/>

  <!-- NAV1 -->
  <rect width="1440" height="50" class="bg-header"/>
  <text x="40" y="32" class="text-white" font-size="14" opacity="0.7">Accueil</text>
  <text x="110" y="32" class="text-white" font-size="14" opacity="0.7">Public Cloud</text>
  <text x="210" y="32" class="text-white" font-size="14" opacity="0.7">Hosted Private Cloud</text>
  <text x="370" y="32" class="text-white" font-size="14" opacity="0.7">Bare Metal Cloud</text>
  <text x="510" y="32" class="text-white" font-size="14" font-weight="600">Web Cloud</text>
  <rect x="505" y="46" width="75" height="3" fill="#FFFFFF"/>
  <text x="620" y="32" class="text-white" font-size="14" opacity="0.7">Network</text>
  <text x="700" y="32" class="text-white" font-size="14" opacity="0.7">IAM / Securite</text>
  <text x="810" y="32" class="text-white" font-size="14" opacity="0.7">Licences</text>
  <rect x="1280" y="12" width="140" height="26" rx="13" fill="rgba(255,255,255,0.2)"/>
  <text x="1320" y="29" class="text-white" font-size="12">ab12345-ovh</text>

  <!-- NAV2 -->
  <rect x="0" y="50" width="1440" height="40" class="bg-white"/>
  <line x1="0" y1="89" x2="1440" y2="89" stroke="#E5E7EB"/>
  <text x="40" y="75" class="text-muted" font-size="14">Accueil</text>
  <text x="110" y="75" class="text-muted" font-size="14">Domaines et DNS</text>
  <text x="240" y="75" class="text-muted" font-size="14">Hebergement</text>
  <text x="345" y="75" class="text-primary" font-size="14" font-weight="600">Wordpress</text>
  <rect x="340" y="85" width="70" height="3" fill="#0050D7"/>
  <text x="430" y="75" class="text-muted" font-size="14">Emails</text>
  <text x="500" y="75" class="text-muted" font-size="14">VoIP</text>
  <text x="550" y="75" class="text-muted" font-size="14">Acces</text>
  <text x="1350" y="75" class="text-primary" font-size="13">Guides</text>

  <!-- CONTENT AREA -->
  <g transform="translate(0, 105)">
    <g transform="translate(24, 0)">

      <!-- LEFT PANEL -->
      <rect x="0" y="0" width="280" height="765" rx="8" class="bg-white"/>
      <rect x="0" y="0" width="280" height="765" rx="8" class="border"/>

      <rect x="12" y="12" width="256" height="34" rx="4" fill="#F9FAFB" stroke="#E5E7EB"/>
      <text x="26" y="34" class="text-muted" font-size="12">Rechercher...</text>
      <text x="12" y="68" class="text-muted" font-size="11">3 sites WordPress</text>

      <g transform="translate(6, 80)">
        <rect x="0" y="0" width="268" height="88" rx="6" class="row-selected"/>
        <text x="12" y="22" font-size="16">🌐</text>
        <text x="36" y="22" class="text-dark" font-size="13" font-weight="600">mon-blog.fr</text>
        <text x="12" y="42" class="text-muted" font-size="11">WordPress 6.4.2</text>
        <circle cx="18" cy="58" r="5" fill="#10B981"/>
        <text x="28" y="62" class="text-dark" font-size="11">Actif</text>
        <text x="12" y="80" class="text-muted" font-size="10">Pro · rbx1</text>
      </g>

      <g transform="translate(12, 700)">
        <rect x="0" y="0" width="256" height="40" rx="4" class="btn-primary"/>
        <text x="85" y="26" class="text-white" font-size="12">+ Nouveau site</text>
      </g>

    </g>

    <g transform="translate(320, 0)">

      <!-- RIGHT PANEL -->
      <rect x="0" y="0" width="1096" height="765" rx="8" class="bg-white"/>
      <rect x="0" y="0" width="1096" height="765" rx="8" class="border"/>

      <g transform="translate(20, 0)">
        <!-- HEADER PAGE -->
        <text x="0" y="28" class="text-dark" font-size="18" font-weight="600">mon-blog.fr</text>
        <text x="0" y="48" class="text-muted" font-size="12">WordPress 6.4.2 · PHP 8.2 · Pro</text>

        <g transform="translate(750, 10)">
          <rect x="0" y="0" width="130" height="32" rx="4" class="btn-outline"/>
          <text x="15" y="21" class="text-primary" font-size="11">Admin WP</text>
          <rect x="140" y="0" width="110" height="32" rx="4" class="btn-outline"/>
          <text x="155" y="21" class="text-primary" font-size="11">Visiter le site</text>
        </g>

        <!-- NAV3 TABS - Sauvegardes actif -->
        <g transform="translate(0, 70)">
          <rect x="0" y="0" width="65" height="26" rx="4" class="btn-outline"/>
          <text x="14" y="17" class="text-primary" font-size="11">General</text>

          <rect x="69" y="0" width="75" height="26" rx="4" class="btn-outline"/>
          <text x="82" y="17" class="text-primary" font-size="11">Domaines</text>

          <rect x="148" y="0" width="95" height="26" rx="4" class="btn-outline"/>
          <text x="160" y="17" class="text-primary" font-size="11">Performances</text>

          <rect x="247" y="0" width="80" height="26" rx="4" class="btn-outline"/>
          <text x="260" y="17" class="text-primary" font-size="11">Extensions</text>

          <rect x="331" y="0" width="95" height="26" rx="4" class="bg-primary"/>
          <text x="343" y="17" class="text-white" font-size="11">Sauvegardes</text>

          <rect x="430" y="0" width="60" height="26" rx="4" class="btn-outline"/>
          <text x="443" y="17" class="text-primary" font-size="11">Taches</text>
        </g>

        <!-- CONTENU - Sauvegardes -->
        <g transform="translate(0, 115)">

          <!-- Header -->
          <text x="0" y="20" class="text-dark" font-size="15" font-weight="600">Sauvegardes</text>
          <text x="0" y="40" class="text-muted" font-size="11">Sauvegardes automatiques quotidiennes · Retention 14 jours</text>

          <g transform="translate(820, 0)">
            <rect x="0" y="0" width="190" height="36" rx="4" class="btn-primary"/>
            <text x="25" y="23" class="text-white" font-size="12">+ Creer une sauvegarde</text>
          </g>

          <!-- Table sauvegardes -->
          <g transform="translate(0, 60)">
            <!-- Header -->
            <rect x="0" y="0" width="1036" height="40" class="table-header"/>
            <rect x="0" y="0" width="1036" height="40" class="border"/>
            <text x="20" y="26" class="text-muted" font-size="11" font-weight="600">DATE</text>
            <text x="250" y="26" class="text-muted" font-size="11" font-weight="600">TYPE</text>
            <text x="400" y="26" class="text-muted" font-size="11" font-weight="600">TAILLE</text>
            <text x="520" y="26" class="text-muted" font-size="11" font-weight="600">STATUT</text>
            <text x="650" y="26" class="text-muted" font-size="11" font-weight="600">NOTE</text>
            <text x="900" y="26" class="text-muted" font-size="11" font-weight="600">ACTIONS</text>

            <!-- Row 1 -->
            <rect x="0" y="40" width="1036" height="45" class="bg-white"/>
            <line x1="0" y1="85" x2="1036" y2="85" stroke="#E5E7EB"/>
            <text x="20" y="68" class="text-dark" font-size="11">29/12/2025 03:00</text>
            <text x="250" y="68" font-size="11">🔄</text>
            <text x="270" y="68" class="text-muted" font-size="11">Auto</text>
            <text x="400" y="68" class="text-dark" font-size="11">245 Mo</text>
            <text x="520" y="68" class="text-success" font-size="11">✓</text>
            <rect x="900" y="50" width="50" height="26" rx="4" class="btn-outline"/>
            <text x="920" y="68" class="text-primary" font-size="10">↩</text>

            <!-- Row 2 -->
            <rect x="0" y="85" width="1036" height="45" fill="#FAFAFA"/>
            <line x1="0" y1="130" x2="1036" y2="130" stroke="#E5E7EB"/>
            <text x="20" y="113" class="text-dark" font-size="11">28/12/2025 03:00</text>
            <text x="250" y="113" font-size="11">🔄</text>
            <text x="270" y="113" class="text-muted" font-size="11">Auto</text>
            <text x="400" y="113" class="text-dark" font-size="11">243 Mo</text>
            <text x="520" y="113" class="text-success" font-size="11">✓</text>
            <rect x="900" y="95" width="50" height="26" rx="4" class="btn-outline"/>
            <text x="920" y="113" class="text-primary" font-size="10">↩</text>

            <!-- Row 3 - Manuel -->
            <rect x="0" y="130" width="1036" height="55" class="bg-white"/>
            <line x1="0" y1="185" x2="1036" y2="185" stroke="#E5E7EB"/>
            <text x="20" y="155" class="text-dark" font-size="11">27/12/2025 15:42</text>
            <text x="250" y="155" font-size="11">📌</text>
            <text x="270" y="155" class="text-dark" font-size="11" font-weight="500">Manuel</text>
            <text x="400" y="155" class="text-dark" font-size="11">242 Mo</text>
            <text x="520" y="155" class="text-success" font-size="11">✓</text>
            <text x="650" y="155" class="text-muted" font-size="10">Avant mise a jour WooCommerce</text>
            <rect x="900" y="142" width="50" height="26" rx="4" class="btn-outline"/>
            <text x="920" y="160" class="text-primary" font-size="10">↩</text>
            <rect x="958" y="142" width="50" height="26" rx="4" stroke="#DC2626" fill="#FFFFFF"/>
            <text x="978" y="160" fill="#DC2626" font-size="10">x</text>

            <!-- Row 4 -->
            <rect x="0" y="185" width="1036" height="45" fill="#FAFAFA"/>
            <line x1="0" y1="230" x2="1036" y2="230" stroke="#E5E7EB"/>
            <text x="20" y="213" class="text-dark" font-size="11">27/12/2025 03:00</text>
            <text x="250" y="213" font-size="11">🔄</text>
            <text x="270" y="213" class="text-muted" font-size="11">Auto</text>
            <text x="400" y="213" class="text-dark" font-size="11">240 Mo</text>
            <text x="520" y="213" class="text-success" font-size="11">✓</text>
            <rect x="900" y="195" width="50" height="26" rx="4" class="btn-outline"/>
            <text x="920" y="213" class="text-primary" font-size="10">↩</text>

            <!-- Row 5 -->
            <rect x="0" y="230" width="1036" height="45" class="bg-white"/>
            <line x1="0" y1="275" x2="1036" y2="275" stroke="#E5E7EB"/>
            <text x="20" y="258" class="text-dark" font-size="11">26/12/2025 03:00</text>
            <text x="250" y="258" font-size="11">🔄</text>
            <text x="270" y="258" class="text-muted" font-size="11">Auto</text>
            <text x="400" y="258" class="text-dark" font-size="11">238 Mo</text>
            <text x="520" y="258" class="text-success" font-size="11">✓</text>
            <rect x="900" y="240" width="50" height="26" rx="4" class="btn-outline"/>
            <text x="920" y="258" class="text-primary" font-size="10">↩</text>
          </g>

          <!-- Info banner -->
          <g transform="translate(0, 360)">
            <rect x="0" y="0" width="1036" height="60" rx="6" class="bg-info"/>
            <text x="20" y="25" class="text-info" font-size="12">Sauvegardes automatiques: 14 jours · Manuelles: jusqu'a suppression</text>
            <text x="20" y="45" class="text-info" font-size="12">Espace utilise: 2.8 Go / 10 Go</text>
          </g>

        </g>
      </g>

    </g>
  </g>
</svg>
