<svg xmlns="http://www.w3.org/2000/svg" viewBox="0 0 1440 900" width="1440" height="900">
  <defs>
    <style>
      .bg-overlay { fill: #000000; fill-opacity: 0.5; }
      .bg-white { fill: #FFFFFF; }
      .bg-primary { fill: #0050D7; }
      .bg-info { fill: #DBEAFE; }
      .border { stroke: #E5E7EB; stroke-width: 1; fill: none; }
      .btn-outline { stroke: #0050D7; stroke-width: 1; fill: #FFFFFF; }
      .btn-primary { fill: #0050D7; }
      .text-white { fill: #FFFFFF; font-family: 'Source Sans Pro', sans-serif; }
      .text-dark { fill: #1F2937; font-family: 'Source Sans Pro', sans-serif; }
      .text-muted { fill: #6B7280; font-family: 'Source Sans Pro', sans-serif; }
      .text-primary { fill: #0050D7; font-family: 'Source Sans Pro', sans-serif; }
      .text-info { fill: #1E40AF; font-family: 'Source Sans Pro', sans-serif; }
    </style>
  </defs>

  <!-- Overlay -->
  <rect width="1440" height="900" class="bg-overlay"/>

  <!-- Modal -->
  <g transform="translate(420, 180)">
    <rect x="0" y="0" width="600" height="480" rx="12" class="bg-white"/>

    <!-- Header -->
    <rect x="0" y="0" width="600" height="56" rx="12" class="bg-white"/>
    <text x="24" y="36" class="text-dark" font-size="16" font-weight="600">Configuration CDN</text>
    <text x="564" y="36" class="text-muted" font-size="18" cursor="pointer">×</text>
    <line x1="0" y1="56" x2="600" y2="56" stroke="#E5E7EB"/>

    <!-- Content -->
    <g transform="translate(24, 76)">
      <!-- Info -->
      <rect x="0" y="0" width="552" height="50" rx="6" class="bg-info"/>
      <text x="15" y="20" class="text-info" font-size="11">💡 Le CDN améliore les performances de votre site en distribuant</text>
      <text x="15" y="38" class="text-info" font-size="11">le contenu statique à travers le monde.</text>

      <!-- Enable CDN -->
      <g transform="translate(0, 70)">
        <rect x="0" y="0" width="20" height="20" rx="4" fill="#0050D7" stroke="#0050D7"/>
        <text x="7" y="15" class="text-white" font-size="12">✓</text>
        <text x="30" y="15" class="text-dark" font-size="13" font-weight="500">Activer le CDN</text>
      </g>

      <!-- Options -->
      <text x="0" y="120" class="text-dark" font-size="13" font-weight="600">Options de cache</text>
      <line x1="0" y1="130" x2="552" y2="130" stroke="#E5E7EB"/>

      <g transform="translate(0, 145)">
        <rect x="0" y="0" width="20" height="20" rx="4" fill="#0050D7" stroke="#0050D7"/>
        <text x="7" y="15" class="text-white" font-size="12">✓</text>
        <text x="30" y="15" class="text-dark" font-size="12">Mise en cache des images</text>
      </g>

      <g transform="translate(0, 175)">
        <rect x="0" y="0" width="20" height="20" rx="4" fill="#0050D7" stroke="#0050D7"/>
        <text x="7" y="15" class="text-white" font-size="12">✓</text>
        <text x="30" y="15" class="text-dark" font-size="12">Mise en cache CSS/JS</text>
      </g>

      <g transform="translate(0, 205)">
        <rect x="0" y="0" width="20" height="20" rx="4" fill="#FFFFFF" stroke="#E5E7EB"/>
        <text x="30" y="15" class="text-dark" font-size="12">Mise en cache des pages (avancé)</text>
      </g>

      <!-- TTL -->
      <text x="0" y="260" class="text-dark" font-size="12" font-weight="500">Durée de cache (TTL)</text>
      <rect x="0" y="270" width="552" height="40" rx="4" fill="#F9FAFB" stroke="#E5E7EB"/>
      <text x="15" y="295" class="text-dark" font-size="12">24 heures</text>
      <text x="520" y="295" class="text-muted" font-size="12">▼</text>
    </g>

    <!-- Footer -->
    <line x1="0" y1="420" x2="600" y2="420" stroke="#E5E7EB"/>
    <g transform="translate(24, 435)">
      <rect x="0" y="0" width="100" height="36" rx="4" class="btn-outline"/>
      <text x="50" y="23" class="text-primary" font-size="12" text-anchor="middle">Annuler</text>
      <rect x="432" y="0" width="120" height="36" rx="4" class="btn-primary"/>
      <text x="492" y="23" class="text-white" font-size="12" text-anchor="middle">Enregistrer</text>
    </g>
  </g>
</svg>
