<svg xmlns="http://www.w3.org/2000/svg" viewBox="0 0 1440 900" width="1440" height="900">
  <defs>
    <style>
      .bg-overlay { fill: #000000; fill-opacity: 0.5; }
      .bg-white { fill: #FFFFFF; }
      .bg-info { fill: #DBEAFE; }
      .border { stroke: #E5E7EB; stroke-width: 1; fill: none; }
      .btn-outline { stroke: #0050D7; stroke-width: 1; fill: #FFFFFF; }
      .btn-primary { fill: #0050D7; }
      .text-white { fill: #FFFFFF; font-family: 'Source Sans Pro', sans-serif; }
      .text-dark { fill: #1F2937; font-family: 'Source Sans Pro', sans-serif; }
      .text-muted { fill: #6B7280; font-family: 'Source Sans Pro', sans-serif; }
      .text-primary { fill: #0050D7; font-family: 'Source Sans Pro', sans-serif; }
      .text-info { fill: #1E40AF; font-family: 'Source Sans Pro', sans-serif; }
      .text-success { fill: #059669; font-family: 'Source Sans Pro', sans-serif; }
    </style>
  </defs>

  <!-- Overlay -->
  <rect width="1440" height="900" class="bg-overlay"/>

  <!-- Modal -->
  <g transform="translate(470, 260)">
    <rect x="0" y="0" width="500" height="340" rx="12" class="bg-white"/>

    <!-- Header -->
    <rect x="0" y="0" width="500" height="56" rx="12" class="bg-white"/>
    <text x="24" y="36" class="text-dark" font-size="16" font-weight="600">Mettre à jour le thème</text>
    <text x="464" y="36" class="text-muted" font-size="18" cursor="pointer">×</text>
    <line x1="0" y1="56" x2="500" y2="56" stroke="#E5E7EB"/>

    <!-- Content -->
    <g transform="translate(24, 76)">
      <!-- Info -->
      <rect x="0" y="0" width="452" height="40" rx="6" class="bg-info"/>
      <text x="15" y="25" class="text-info" font-size="11">ℹ️ Une sauvegarde automatique sera créée avant la mise à jour.</text>

      <!-- Theme info -->
      <text x="0" y="70" class="text-dark" font-size="12" font-weight="500">Thème à mettre à jour</text>
      <rect x="0" y="80" width="452" height="80" rx="4" fill="#F3F4F6" stroke="#E5E7EB"/>

      <!-- Theme preview -->
      <rect x="15" y="95" width="50" height="50" rx="4" fill="#E5E7EB"/>
      <text x="40" y="125" class="text-muted" font-size="20" text-anchor="middle">🎨</text>

      <text x="80" y="110" class="text-dark" font-size="13" font-weight="500">flavor flavor flavor flavor</text>
      <text x="80" y="128" class="text-muted" font-size="10">Thème actif</text>
      <rect x="80" y="135" width="40" height="16" rx="8" fill="#DEF7EC"/>
      <text x="100" y="147" fill="#03543F" font-size="9" text-anchor="middle">Actif</text>

      <!-- Version info -->
      <text x="0" y="190" class="text-dark" font-size="12" font-weight="500">Versions</text>
      <rect x="0" y="200" width="452" height="55" rx="4" fill="#F9FAFB" stroke="#E5E7EB"/>
      <text x="15" y="225" class="text-muted" font-size="11">Version actuelle</text>
      <text x="150" y="225" class="text-dark" font-size="11" font-weight="500">2.0.5</text>
      <text x="15" y="245" class="text-success" font-size="11">Nouvelle version</text>
      <text x="150" y="245" class="text-success" font-size="11" font-weight="500">2.1.0</text>
    </g>

    <!-- Footer -->
    <line x1="0" y1="280" x2="500" y2="280" stroke="#E5E7EB"/>
    <g transform="translate(24, 295)">
      <rect x="0" y="0" width="100" height="36" rx="4" class="btn-outline"/>
      <text x="50" y="23" class="text-primary" font-size="12" text-anchor="middle">Annuler</text>
      <rect x="332" y="0" width="120" height="36" rx="4" class="btn-primary"/>
      <text x="392" y="23" class="text-white" font-size="12" text-anchor="middle">Mettre à jour</text>
    </g>
  </g>
</svg>
