<?xml version="1.0" encoding="UTF-8"?>
<svg width="1100" height="550" viewBox="0 0 1100 550" fill="none" xmlns="http://www.w3.org/2000/svg">
  <title>Web Cloud - DNS Zones List</title>
  <rect width="1100" height="550" fill="#F9FAFB"/>
  <g transform="translate(30, 30)">
    <text x="0" y="0" fill="#1F2937" font-family="system-ui, sans-serif" font-size="22" font-weight="600">Zones DNS</text>
    <text x="0" y="28" fill="#6B7280" font-family="system-ui, sans-serif" font-size="13">Gérez les enregistrements DNS de vos domaines</text>
  </g>
  <g transform="translate(850, 25)"><rect x="0" y="0" width="180" height="40" rx="4" fill="#0050D7"/><text x="35" y="26" fill="white" font-family="system-ui, sans-serif" font-size="13">+ Créer une zone DNS</text></g>
  <g transform="translate(30, 85)">
    <rect x="0" y="0" width="200" height="90" rx="8" fill="white" stroke="#E5E7EB"/>
    <text x="15" y="25" fill="#6B7280" font-family="system-ui, sans-serif" font-size="11">ZONES DNS</text>
    <text x="15" y="55" fill="#1F2937" font-family="system-ui, sans-serif" font-size="28" font-weight="600">28</text>
    <text x="15" y="75" fill="#16A34A" font-family="system-ui, sans-serif" font-size="11">Toutes actives</text>
  </g>
  <g transform="translate(250, 85)">
    <rect x="0" y="0" width="200" height="90" rx="8" fill="white" stroke="#E5E7EB"/>
    <text x="15" y="25" fill="#6B7280" font-family="system-ui, sans-serif" font-size="11">ENREGISTREMENTS</text>
    <text x="15" y="55" fill="#1F2937" font-family="system-ui, sans-serif" font-size="28" font-weight="600">342</text>
    <text x="15" y="75" fill="#6B7280" font-family="system-ui, sans-serif" font-size="11">A, AAAA, CNAME, MX, TXT...</text>
  </g>
  <g transform="translate(470, 85)">
    <rect x="0" y="0" width="200" height="90" rx="8" fill="white" stroke="#E5E7EB"/>
    <text x="15" y="25" fill="#6B7280" font-family="system-ui, sans-serif" font-size="11">ANYCAST</text>
    <text x="15" y="55" fill="#1F2937" font-family="system-ui, sans-serif" font-size="28" font-weight="600">15</text>
    <text x="15" y="75" fill="#6B7280" font-family="system-ui, sans-serif" font-size="11">Zones avec Anycast activé</text>
  </g>
  <g transform="translate(30, 195)">
    <rect x="0" y="0" width="1040" height="340" rx="8" fill="white" stroke="#E5E7EB"/>
    <g transform="translate(20, 20)">
      <rect x="0" y="0" width="300" height="36" rx="4" fill="#F9FAFB"/>
      <text x="15" y="24" fill="#9CA3AF" font-family="system-ui, sans-serif" font-size="13">🔍 Rechercher une zone...</text>
    </g>
    <g transform="translate(20, 75)">
      <text x="0" y="0" fill="#6B7280" font-family="system-ui, sans-serif" font-size="11" font-weight="500">ZONE</text>
      <text x="280" y="0" fill="#6B7280" font-family="system-ui, sans-serif" font-size="11" font-weight="500">ENREGISTREMENTS</text>
      <text x="450" y="0" fill="#6B7280" font-family="system-ui, sans-serif" font-size="11" font-weight="500">DNSSEC</text>
      <text x="550" y="0" fill="#6B7280" font-family="system-ui, sans-serif" font-size="11" font-weight="500">ANYCAST</text>
      <text x="680" y="0" fill="#6B7280" font-family="system-ui, sans-serif" font-size="11" font-weight="500">DERNIÈRE MODIF.</text>
      <text x="880" y="0" fill="#6B7280" font-family="system-ui, sans-serif" font-size="11" font-weight="500">STATUT</text>
    </g>
    <line x1="20" y1="90" x2="1000" y2="90" stroke="#E5E7EB"/>
    <g transform="translate(20, 110)">
      <text x="0" y="0" fill="#0050D7" font-family="system-ui, sans-serif" font-size="13" font-weight="500">example.com</text>
      <text x="280" y="0" fill="#1F2937" font-family="system-ui, sans-serif" font-size="12">24 enregistrements</text>
      <rect x="450" y="-10" width="50" height="20" rx="4" fill="#DCFCE7"/><text x="462" y="5" fill="#16A34A" font-family="system-ui, sans-serif" font-size="10">Actif</text>
      <rect x="550" y="-10" width="70" height="20" rx="4" fill="#DCFCE7"/><text x="560" y="5" fill="#16A34A" font-family="system-ui, sans-serif" font-size="10">Activé</text>
      <text x="680" y="0" fill="#1F2937" font-family="system-ui, sans-serif" font-size="12">Il y a 2 heures</text>
      <rect x="880" y="-10" width="70" height="20" rx="4" fill="#DCFCE7"/><text x="892" y="5" fill="#16A34A" font-family="system-ui, sans-serif" font-size="10">Propagé</text>
      <text x="980" y="0" fill="#6B7280" font-family="system-ui, sans-serif" font-size="16">⋮</text>
    </g>
    <line x1="20" y1="135" x2="1000" y2="135" stroke="#F3F4F6"/>
    <g transform="translate(20, 155)">
      <text x="0" y="0" fill="#0050D7" font-family="system-ui, sans-serif" font-size="13" font-weight="500">mysite.fr</text>
      <text x="280" y="0" fill="#1F2937" font-family="system-ui, sans-serif" font-size="12">12 enregistrements</text>
      <rect x="450" y="-10" width="55" height="20" rx="4" fill="#F9FAFB"/><text x="460" y="5" fill="#6B7280" font-family="system-ui, sans-serif" font-size="10">Inactif</text>
      <rect x="550" y="-10" width="70" height="20" rx="4" fill="#F9FAFB"/><text x="560" y="5" fill="#6B7280" font-family="system-ui, sans-serif" font-size="10">Désactivé</text>
      <text x="680" y="0" fill="#1F2937" font-family="system-ui, sans-serif" font-size="12">Il y a 5 jours</text>
      <rect x="880" y="-10" width="70" height="20" rx="4" fill="#DCFCE7"/><text x="892" y="5" fill="#16A34A" font-family="system-ui, sans-serif" font-size="10">Propagé</text>
      <text x="980" y="0" fill="#6B7280" font-family="system-ui, sans-serif" font-size="16">⋮</text>
    </g>
    <line x1="20" y1="180" x2="1000" y2="180" stroke="#F3F4F6"/>
    <g transform="translate(20, 200)">
      <text x="0" y="0" fill="#0050D7" font-family="system-ui, sans-serif" font-size="13" font-weight="500">api.business.eu</text>
      <text x="280" y="0" fill="#1F2937" font-family="system-ui, sans-serif" font-size="12">8 enregistrements</text>
      <rect x="450" y="-10" width="50" height="20" rx="4" fill="#DCFCE7"/><text x="462" y="5" fill="#16A34A" font-family="system-ui, sans-serif" font-size="10">Actif</text>
      <rect x="550" y="-10" width="70" height="20" rx="4" fill="#DCFCE7"/><text x="560" y="5" fill="#16A34A" font-family="system-ui, sans-serif" font-size="10">Activé</text>
      <text x="680" y="0" fill="#F59E0B" font-family="system-ui, sans-serif" font-size="12">En cours...</text>
      <rect x="880" y="-10" width="80" height="20" rx="4" fill="#FEF3C7"/><text x="888" y="5" fill="#92400E" font-family="system-ui, sans-serif" font-size="10">Propagation</text>
      <text x="980" y="0" fill="#6B7280" font-family="system-ui, sans-serif" font-size="16">⋮</text>
    </g>
  </g>
</svg>
