<?xml version="1.0" encoding="UTF-8"?>
<svg width="1200" height="600" viewBox="0 0 1200 600" fill="none" xmlns="http://www.w3.org/2000/svg">
  <title>IP - List Page</title>

  <!-- Background -->
  <rect width="1200" height="600" fill="#F9FAFB"/>

  <!-- Header with filters -->
  <g transform="translate(30, 30)">
    <!-- Left side: Chip filter -->
    <g transform="translate(0, 0)">
      <rect x="0" y="0" width="150" height="32" rx="16" fill="#EFF6FF" stroke="#0050D7"/>
      <text x="15" y="21" fill="#0050D7" font-family="system-ui, sans-serif" font-size="12">IP: 51.210.123.0/24</text>
      <text x="130" y="21" fill="#0050D7" font-family="system-ui, sans-serif" font-size="12">×</text>
    </g>

    <!-- Right side: Actions and filters -->
    <g transform="translate(700, 0)">
      <!-- Settings dropdown -->
      <rect x="0" y="0" width="36" height="32" rx="4" fill="white" stroke="#E5E7EB"/>
      <text x="12" y="21" fill="#6B7280" font-family="system-ui, sans-serif" font-size="14">⚙</text>

      <!-- Export button -->
      <rect x="46" y="0" width="36" height="32" rx="4" fill="white" stroke="#E5E7EB"/>
      <text x="58" y="21" fill="#6B7280" font-family="system-ui, sans-serif" font-size="12">↓</text>

      <!-- Advanced mode switch -->
      <text x="100" y="21" fill="#6B7280" font-family="system-ui, sans-serif" font-size="12">Mode avancé</text>
      <rect x="190" y="6" width="40" height="20" rx="10" fill="#0050D7"/>
      <circle cx="220" cy="16" r="8" fill="white"/>

      <!-- IPv4/IPv6 filter -->
      <rect x="250" y="0" width="120" height="32" rx="4" fill="white" stroke="#E5E7EB"/>
      <text x="265" y="21" fill="#1F2937" font-family="system-ui, sans-serif" font-size="12">Toutes les IPs</text>
      <text x="350" y="21" fill="#6B7280" font-family="system-ui, sans-serif" font-size="12">▼</text>
    </g>
  </g>

  <!-- Table -->
  <g transform="translate(30, 80)">
    <!-- Table Header -->
    <rect x="0" y="0" width="1140" height="40" fill="#F9FAFB"/>
    <text x="40" y="26" fill="#6B7280" font-family="system-ui, sans-serif" font-size="12" font-weight="500">Adresse IP</text>
    <text x="250" y="26" fill="#6B7280" font-family="system-ui, sans-serif" font-size="12" font-weight="500">Région</text>
    <text x="350" y="26" fill="#6B7280" font-family="system-ui, sans-serif" font-size="12" font-weight="500">Pays</text>
    <text x="420" y="26" fill="#6B7280" font-family="system-ui, sans-serif" font-size="12" font-weight="500">Service</text>
    <text x="580" y="26" fill="#6B7280" font-family="system-ui, sans-serif" font-size="12" font-weight="500">Reverse</text>
    <text x="760" y="26" fill="#6B7280" font-family="system-ui, sans-serif" font-size="12" font-weight="500">Virtual MAC</text>
    <text x="880" y="26" fill="#6B7280" font-family="system-ui, sans-serif" font-size="12" font-weight="500">Mitigation</text>
    <text x="980" y="26" fill="#6B7280" font-family="system-ui, sans-serif" font-size="12" font-weight="500">Firewall</text>
    <text x="1070" y="26" fill="#6B7280" font-family="system-ui, sans-serif" font-size="12" font-weight="500">Alertes</text>

    <!-- Table Row 1: IP Block (expandable) -->
    <g transform="translate(0, 45)">
      <rect x="0" y="0" width="1140" height="50" fill="white" stroke="#E5E7EB" stroke-width="1"/>
      <text x="15" y="32" fill="#6B7280" font-family="system-ui, sans-serif" font-size="14">▶</text>
      <text x="40" y="30" fill="#1F2937" font-family="system-ui, sans-serif" font-size="13">51.210.123.0/24</text>
      <rect x="170" y="18" width="60" height="20" rx="4" fill="#EFF6FF"/>
      <text x="178" y="32" fill="#0050D7" font-family="system-ui, sans-serif" font-size="10">Additional IP</text>
      <text x="250" y="30" fill="#1F2937" font-family="system-ui, sans-serif" font-size="13">EU-WEST-GRA</text>
      <text x="350" y="30" fill="#1F2937" font-family="system-ui, sans-serif" font-size="13">FR</text>
      <text x="420" y="30" fill="#0050D7" font-family="system-ui, sans-serif" font-size="13">ns1234567.ip-51-210-123.eu</text>
      <text x="580" y="30" fill="#1F2937" font-family="system-ui, sans-serif" font-size="13">-</text>
      <text x="760" y="30" fill="#1F2937" font-family="system-ui, sans-serif" font-size="13">-</text>
      <text x="880" y="30" fill="#1F2937" font-family="system-ui, sans-serif" font-size="13">-</text>
      <text x="980" y="30" fill="#1F2937" font-family="system-ui, sans-serif" font-size="13">-</text>
      <text x="1070" y="30" fill="#1F2937" font-family="system-ui, sans-serif" font-size="13">-</text>
      <!-- Action menu -->
      <g transform="translate(1100, 12)">
        <rect x="0" y="0" width="30" height="25" rx="4" fill="#F9FAFB" stroke="#E5E7EB"/>
        <text x="11" y="18" fill="#6B7280" font-family="system-ui, sans-serif" font-size="14">⋮</text>
      </g>
    </g>

    <!-- Table Row 2: Single IP -->
    <g transform="translate(0, 100)">
      <rect x="0" y="0" width="1140" height="50" fill="white" stroke="#E5E7EB" stroke-width="1"/>
      <text x="40" y="30" fill="#1F2937" font-family="system-ui, sans-serif" font-size="13">51.210.124.55</text>
      <rect x="150" y="18" width="45" height="20" rx="4" fill="#EFF6FF"/>
      <text x="158" y="32" fill="#0050D7" font-family="system-ui, sans-serif" font-size="10">BYOIP</text>
      <text x="250" y="30" fill="#1F2937" font-family="system-ui, sans-serif" font-size="13">EU-WEST-RBX</text>
      <text x="350" y="30" fill="#1F2937" font-family="system-ui, sans-serif" font-size="13">FR</text>
      <text x="420" y="30" fill="#0050D7" font-family="system-ui, sans-serif" font-size="13">vps-abc123.vps.ovh.net</text>
      <text x="580" y="30" fill="#1F2937" font-family="system-ui, sans-serif" font-size="13">mail.example.com</text>
      <text x="760" y="30" fill="#1F2937" font-family="system-ui, sans-serif" font-size="13">00:50:56:xx:xx:xx</text>
      <rect x="880" y="15" width="60" height="22" rx="4" fill="#DCFCE7"/>
      <text x="892" y="30" fill="#16A34A" font-family="system-ui, sans-serif" font-size="11">Auto</text>
      <rect x="980" y="15" width="60" height="22" rx="4" fill="#DCFCE7"/>
      <text x="992" y="30" fill="#16A34A" font-family="system-ui, sans-serif" font-size="11">Activé</text>
      <text x="1070" y="30" fill="#1F2937" font-family="system-ui, sans-serif" font-size="13">-</text>
      <g transform="translate(1100, 12)">
        <rect x="0" y="0" width="30" height="25" rx="4" fill="#F9FAFB" stroke="#E5E7EB"/>
        <text x="11" y="18" fill="#6B7280" font-family="system-ui, sans-serif" font-size="14">⋮</text>
      </g>
    </g>

    <!-- Table Row 3: IP with alert -->
    <g transform="translate(0, 155)">
      <rect x="0" y="0" width="1140" height="50" fill="white" stroke="#E5E7EB" stroke-width="1"/>
      <text x="40" y="30" fill="#1F2937" font-family="system-ui, sans-serif" font-size="13">51.210.125.100</text>
      <text x="250" y="30" fill="#1F2937" font-family="system-ui, sans-serif" font-size="13">EU-WEST-SBG</text>
      <text x="350" y="30" fill="#1F2937" font-family="system-ui, sans-serif" font-size="13">FR</text>
      <text x="420" y="30" fill="#0050D7" font-family="system-ui, sans-serif" font-size="13">ns9876543.ip-51-210-125.eu</text>
      <text x="580" y="30" fill="#1F2937" font-family="system-ui, sans-serif" font-size="13">-</text>
      <text x="760" y="30" fill="#1F2937" font-family="system-ui, sans-serif" font-size="13">-</text>
      <rect x="880" y="15" width="70" height="22" rx="4" fill="#FEF3C7"/>
      <text x="888" y="30" fill="#92400E" font-family="system-ui, sans-serif" font-size="11">Forcé</text>
      <text x="980" y="30" fill="#9CA3AF" font-family="system-ui, sans-serif" font-size="13">-</text>
      <!-- Alert icon -->
      <text x="1080" y="32" fill="#DC2626" font-family="system-ui, sans-serif" font-size="16">⚠</text>
      <g transform="translate(1100, 12)">
        <rect x="0" y="0" width="30" height="25" rx="4" fill="#F9FAFB" stroke="#E5E7EB"/>
        <text x="11" y="18" fill="#6B7280" font-family="system-ui, sans-serif" font-size="14">⋮</text>
      </g>
    </g>

    <!-- Table Row 4 -->
    <g transform="translate(0, 210)">
      <rect x="0" y="0" width="1140" height="50" fill="white" stroke="#E5E7EB" stroke-width="1"/>
      <text x="40" y="30" fill="#1F2937" font-family="system-ui, sans-serif" font-size="13">2001:41d0:305:1000::/64</text>
      <text x="250" y="30" fill="#1F2937" font-family="system-ui, sans-serif" font-size="13">EU-WEST-GRA</text>
      <text x="350" y="30" fill="#1F2937" font-family="system-ui, sans-serif" font-size="13">FR</text>
      <text x="420" y="30" fill="#0050D7" font-family="system-ui, sans-serif" font-size="13">ns1234567.ip-51-210-123.eu</text>
      <text x="580" y="30" fill="#1F2937" font-family="system-ui, sans-serif" font-size="13">NS: dns1.ovh.net</text>
      <text x="760" y="30" fill="#9CA3AF" font-family="system-ui, sans-serif" font-size="13">-</text>
      <text x="880" y="30" fill="#9CA3AF" font-family="system-ui, sans-serif" font-size="13">-</text>
      <text x="980" y="30" fill="#9CA3AF" font-family="system-ui, sans-serif" font-size="13">-</text>
      <text x="1070" y="30" fill="#1F2937" font-family="system-ui, sans-serif" font-size="13">-</text>
      <g transform="translate(1100, 12)">
        <rect x="0" y="0" width="30" height="25" rx="4" fill="#F9FAFB" stroke="#E5E7EB"/>
        <text x="11" y="18" fill="#6B7280" font-family="system-ui, sans-serif" font-size="14">⋮</text>
      </g>
    </g>
  </g>

  <!-- Pagination -->
  <g transform="translate(30, 530)">
    <text x="0" y="20" fill="#6B7280" font-family="system-ui, sans-serif" font-size="12">1 - 10 sur 156</text>
    <g transform="translate(1000, 0)">
      <rect x="0" y="0" width="32" height="32" rx="4" fill="white" stroke="#E5E7EB"/>
      <text x="12" y="22" fill="#6B7280" font-family="system-ui, sans-serif" font-size="12">‹</text>
      <rect x="40" y="0" width="32" height="32" rx="4" fill="#0050D7"/>
      <text x="52" y="22" fill="white" font-family="system-ui, sans-serif" font-size="12">1</text>
      <rect x="80" y="0" width="32" height="32" rx="4" fill="white" stroke="#E5E7EB"/>
      <text x="92" y="22" fill="#1F2937" font-family="system-ui, sans-serif" font-size="12">2</text>
      <rect x="120" y="0" width="32" height="32" rx="4" fill="white" stroke="#E5E7EB"/>
      <text x="132" y="22" fill="#6B7280" font-family="system-ui, sans-serif" font-size="12">›</text>
    </g>
  </g>
</svg>
