<?xml version="1.0" encoding="UTF-8"?>
<svg width="1100" height="600" viewBox="0 0 1100 600" fill="none" xmlns="http://www.w3.org/2000/svg">
  <title>IP - Dashboard principal</title>

  <!-- Background -->
  <rect width="1100" height="600" fill="#F9FAFB"/>

  <!-- Header -->
  <rect x="0" y="0" width="1100" height="60" fill="white" stroke="#E5E7EB"/>
  <text x="30" y="38" fill="#1F2937" font-family="system-ui, sans-serif" font-size="18" font-weight="600">Gestion des IPs</text>

  <!-- Action buttons -->
  <g transform="translate(750, 18)">
    <rect x="0" y="0" width="150" height="32" rx="4" fill="#0050D7"/>
    <text x="25" y="21" fill="white" font-family="system-ui, sans-serif" font-size="12">+ Commander des IPs</text>

    <rect x="165" y="0" width="120" height="32" rx="4" fill="white" stroke="#E5E7EB"/>
    <text x="25" y="21" fill="#6B7280" font-family="system-ui, sans-serif" font-size="12">Exporter CSV</text>
  </g>

  <!-- Stats overview -->
  <g transform="translate(30, 85)">
    <!-- Card 1: Total IPs -->
    <rect x="0" y="0" width="200" height="80" rx="8" fill="white" stroke="#E5E7EB"/>
    <text x="20" y="30" fill="#6B7280" font-family="system-ui, sans-serif" font-size="12">Total IPs</text>
    <text x="20" y="60" fill="#1F2937" font-family="system-ui, sans-serif" font-size="24" font-weight="600">156</text>

    <!-- Card 2: IPv4 -->
    <rect x="220" y="0" width="200" height="80" rx="8" fill="white" stroke="#E5E7EB"/>
    <text x="240" y="30" fill="#6B7280" font-family="system-ui, sans-serif" font-size="12">IPv4</text>
    <text x="240" y="60" fill="#1F2937" font-family="system-ui, sans-serif" font-size="24" font-weight="600">128</text>

    <!-- Card 3: IPv6 -->
    <rect x="440" y="0" width="200" height="80" rx="8" fill="white" stroke="#E5E7EB"/>
    <text x="460" y="30" fill="#6B7280" font-family="system-ui, sans-serif" font-size="12">IPv6 (/64)</text>
    <text x="460" y="60" fill="#1F2937" font-family="system-ui, sans-serif" font-size="24" font-weight="600">28</text>

    <!-- Card 4: Alerts -->
    <rect x="660" y="0" width="200" height="80" rx="8" fill="white" stroke="#E5E7EB"/>
    <text x="680" y="30" fill="#6B7280" font-family="system-ui, sans-serif" font-size="12">Alertes</text>
    <text x="680" y="60" fill="#F59E0B" font-family="system-ui, sans-serif" font-size="24" font-weight="600">3</text>

    <!-- Card 5: Protected -->
    <rect x="880" y="0" width="160" height="80" rx="8" fill="white" stroke="#E5E7EB"/>
    <text x="900" y="30" fill="#6B7280" font-family="system-ui, sans-serif" font-size="12">Protégées DDoS</text>
    <text x="900" y="60" fill="#10B981" font-family="system-ui, sans-serif" font-size="24" font-weight="600">100%</text>
  </g>

  <!-- Tabs -->
  <g transform="translate(30, 190)">
    <rect x="0" y="0" width="120" height="40" fill="white"/>
    <rect x="0" y="36" width="120" height="4" fill="#0050D7"/>
    <text x="20" y="25" fill="#0050D7" font-family="system-ui, sans-serif" font-size="13" font-weight="500">Toutes les IPs</text>

    <text x="150" y="25" fill="#6B7280" font-family="system-ui, sans-serif" font-size="13">Failover</text>
    <text x="240" y="25" fill="#6B7280" font-family="system-ui, sans-serif" font-size="13">vRack</text>
    <text x="310" y="25" fill="#6B7280" font-family="system-ui, sans-serif" font-size="13">BYOIP</text>
  </g>

  <!-- Search and filters -->
  <g transform="translate(30, 250)">
    <rect x="0" y="0" width="300" height="36" rx="4" fill="white" stroke="#E5E7EB"/>
    <text x="15" y="23" fill="#9CA3AF" font-family="system-ui, sans-serif" font-size="12">Rechercher une IP...</text>
    <text x="270" y="23" fill="#6B7280" font-family="system-ui, sans-serif" font-size="14">🔍</text>

    <rect x="320" y="0" width="150" height="36" rx="4" fill="white" stroke="#E5E7EB"/>
    <text x="335" y="23" fill="#6B7280" font-family="system-ui, sans-serif" font-size="12">Tous les services</text>
    <text x="445" y="23" fill="#6B7280" font-family="system-ui, sans-serif" font-size="10">▼</text>
  </g>

  <!-- IP Table -->
  <g transform="translate(30, 310)">
    <!-- Header -->
    <rect x="0" y="0" width="1040" height="40" fill="#F3F4F6"/>
    <text x="20" y="26" fill="#6B7280" font-family="system-ui, sans-serif" font-size="12" font-weight="500">Adresse IP</text>
    <text x="200" y="26" fill="#6B7280" font-family="system-ui, sans-serif" font-size="12" font-weight="500">Type</text>
    <text x="300" y="26" fill="#6B7280" font-family="system-ui, sans-serif" font-size="12" font-weight="500">Service</text>
    <text x="550" y="26" fill="#6B7280" font-family="system-ui, sans-serif" font-size="12" font-weight="500">Reverse</text>
    <text x="780" y="26" fill="#6B7280" font-family="system-ui, sans-serif" font-size="12" font-weight="500">Statut</text>
    <text x="950" y="26" fill="#6B7280" font-family="system-ui, sans-serif" font-size="12" font-weight="500">Actions</text>

    <!-- Row 1 -->
    <rect x="0" y="40" width="1040" height="50" fill="white" stroke="#E5E7EB"/>
    <text x="20" y="72" fill="#1F2937" font-family="system-ui, sans-serif" font-size="13">51.210.xxx.100</text>
    <rect x="200" y="57" width="50" height="22" rx="4" fill="#DBEAFE"/>
    <text x="212" y="73" fill="#1E40AF" font-family="system-ui, sans-serif" font-size="10">IPv4</text>
    <text x="300" y="72" fill="#0050D7" font-family="system-ui, sans-serif" font-size="13">ns1234567.ip-xxx.eu</text>
    <text x="550" y="72" fill="#6B7280" font-family="system-ui, sans-serif" font-size="12">mail.example.com</text>
    <rect x="780" y="57" width="55" height="22" rx="4" fill="#DCFCE7"/>
    <text x="792" y="73" fill="#166534" font-family="system-ui, sans-serif" font-size="10">Actif</text>
    <text x="950" y="72" fill="#6B7280" font-family="system-ui, sans-serif" font-size="14">⋮</text>

    <!-- Row 2 -->
    <rect x="0" y="90" width="1040" height="50" fill="white" stroke="#E5E7EB"/>
    <text x="20" y="122" fill="#1F2937" font-family="system-ui, sans-serif" font-size="13">2001:41d0:xxxx::/64</text>
    <rect x="200" y="107" width="50" height="22" rx="4" fill="#F3E8FF"/>
    <text x="212" y="123" fill="#7C3AED" font-family="system-ui, sans-serif" font-size="10">IPv6</text>
    <text x="300" y="122" fill="#0050D7" font-family="system-ui, sans-serif" font-size="13">ns1234567.ip-xxx.eu</text>
    <text x="550" y="122" fill="#6B7280" font-family="system-ui, sans-serif" font-size="12">-</text>
    <rect x="780" y="107" width="55" height="22" rx="4" fill="#DCFCE7"/>
    <text x="792" y="123" fill="#166534" font-family="system-ui, sans-serif" font-size="10">Actif</text>
    <text x="950" y="122" fill="#6B7280" font-family="system-ui, sans-serif" font-size="14">⋮</text>
  </g>

  <!-- Pagination -->
  <g transform="translate(30, 470)">
    <text x="0" y="15" fill="#6B7280" font-family="system-ui, sans-serif" font-size="12">156 IPs</text>
  </g>
</svg>
