<svg xmlns="http://www.w3.org/2000/svg" viewBox="0 0 1440 900" width="1440" height="900">
  <defs>
    <style>
      .bg-header { fill: #000E9C; }
      .bg-main { fill: #F6F6F9; }
      .bg-white { fill: #FFFFFF; }
      .bg-primary { fill: #0050D7; }
      .bg-neutral-100 { fill: #F3F4F6; }
      .bg-success { fill: #DEF7EC; }
      .bg-error { fill: #FEE2E2; }
      .bg-warning { fill: #FEF3C7; }
      .bg-info { fill: #DBEAFE; }
      .border { stroke: #E5E7EB; stroke-width: 1; fill: none; }
      .btn-outline { stroke: #0050D7; stroke-width: 1; fill: #FFFFFF; }
      .btn-primary { fill: #0050D7; }
      .row-selected { fill: #E8F0FE; }
      .table-header { fill: #F9FAFB; }
      .text-white { fill: #FFFFFF; font-family: 'Source Sans Pro', sans-serif; }
      .text-dark { fill: #1F2937; font-family: 'Source Sans Pro', sans-serif; }
      .text-muted { fill: #6B7280; font-family: 'Source Sans Pro', sans-serif; }
      .text-primary { fill: #0050D7; font-family: 'Source Sans Pro', sans-serif; }
      .text-success { fill: #059669; font-family: 'Source Sans Pro', sans-serif; }
      .text-error { fill: #DC2626; font-family: 'Source Sans Pro', sans-serif; }
      .text-warning { fill: #D97706; font-family: 'Source Sans Pro', sans-serif; }
    </style>
  </defs>

  <!-- Background -->
  <rect width="1440" height="900" class="bg-main"/>

  <!-- NAV1 - Header OVH -->
  <rect width="1440" height="50" class="bg-header"/>
  <text x="40" y="32" class="text-white" font-size="14" opacity="0.7">Accueil</text>
  <text x="110" y="32" class="text-white" font-size="14" opacity="0.7">Public Cloud</text>
  <text x="210" y="32" class="text-white" font-size="14" opacity="0.7">Hosted Private Cloud</text>
  <text x="370" y="32" class="text-white" font-size="14" opacity="0.7">Bare Metal Cloud</text>
  <text x="510" y="32" class="text-white" font-size="14" font-weight="600">Web Cloud</text>
  <rect x="505" y="46" width="75" height="3" fill="#FFFFFF"/>
  <text x="620" y="32" class="text-white" font-size="14" opacity="0.7">Network</text>
  <text x="700" y="32" class="text-white" font-size="14" opacity="0.7">IAM / Securite</text>
  <text x="810" y="32" class="text-white" font-size="14" opacity="0.7">Licences</text>
  <rect x="1280" y="12" width="140" height="26" rx="13" fill="rgba(255,255,255,0.2)"/>
  <rect x="1285" y="15" width="26" height="20" rx="10" fill="#DEF7EC"/>
  <text x="1292" y="29" fill="#03543F" font-size="10" font-weight="600">OK</text>
  <text x="1320" y="29" class="text-white" font-size="12">ab12345-ovh</text>

  <!-- NAV2 - Web Cloud (Emails actif) -->
  <rect x="0" y="50" width="1440" height="40" class="bg-white"/>
  <line x1="0" y1="89" x2="1440" y2="89" stroke="#E5E7EB"/>
  <text x="40" y="75" class="text-muted" font-size="14">Accueil</text>
  <text x="110" y="75" class="text-muted" font-size="14">Domaines et DNS</text>
  <text x="240" y="75" class="text-muted" font-size="14">Hébergement</text>
  <text x="345" y="75" class="text-muted" font-size="14">Wordpress</text>
  <text x="430" y="75" class="text-primary" font-size="14" font-weight="600">Emails</text>
  <rect x="425" y="85" width="50" height="3" fill="#0050D7"/>
  <text x="500" y="75" class="text-muted" font-size="14">VoIP</text>
  <text x="550" y="75" class="text-muted" font-size="14">Accès</text>
  <text x="1350" y="75" class="text-primary" font-size="13">Guides</text>

  <!-- CONTENT AREA -->
  <g transform="translate(0, 105)">
    <g transform="translate(24, 0)">

      <!-- LEFT PANEL -->
      <rect x="0" y="0" width="280" height="765" rx="8" class="bg-white"/>
      <rect x="0" y="0" width="280" height="765" rx="8" class="border"/>

      <g transform="translate(12, 12)">
        <rect x="0" y="0" width="256" height="32" rx="6" fill="#F3F4F6"/>
        <rect x="2" y="2" width="125" height="28" rx="5" fill="#FFFFFF"/>
        <text x="64" y="21" class="text-dark" font-size="11" text-anchor="middle" font-weight="500">📧 Par domaine</text>
        <text x="191" y="21" class="text-muted" font-size="11" text-anchor="middle">📦 Par licence</text>
      </g>

      <rect x="12" y="56" width="256" height="34" rx="4" fill="#F9FAFB" stroke="#E5E7EB"/>
      <text x="26" y="78" class="text-muted" font-size="12">🔍 Rechercher...</text>

      <g transform="translate(6, 124)">
        <rect x="0" y="0" width="268" height="120" rx="6" class="row-selected"/>
        <text x="12" y="20" font-size="14">📧</text>
        <text x="32" y="20" class="text-dark" font-size="13" font-weight="600">example.com</text>
        <g transform="translate(12, 32)">
          <circle cx="6" cy="6" r="5" fill="#F59E0B"/>
          <text x="16" y="10" class="text-dark" font-size="10">5  Exchange</text>
          <circle cx="6" cy="20" r="5" fill="#3B82F6"/>
          <text x="16" y="24" class="text-dark" font-size="10">4  Pro</text>
        </g>
        <line x1="12" y1="100" x2="256" y2="100" stroke="#E5E7EB"/>
        <text x="12" y="114" class="text-muted" font-size="10">12 boîtes · 67 Go</text>
      </g>

    </g>

    <!-- RIGHT PANEL -->
    <g transform="translate(320, 0)">
      <rect x="0" y="0" width="1096" height="765" rx="8" class="bg-white"/>
      <rect x="0" y="0" width="1096" height="765" rx="8" class="border"/>

      <g transform="translate(20, 0)">
        <!-- HEADER PAGE -->
        <text x="0" y="24" class="text-dark" font-size="18" font-weight="600">example.com</text>
        <text x="0" y="42" class="text-muted" font-size="11">Configuration antispam</text>

        <!-- NAV3 TABS - Sécurité actif -->
        <g transform="translate(0, 56)">
          <rect x="0" y="0" width="85" height="26" rx="4" class="btn-outline"/>
          <text x="42" y="17" class="text-primary" font-size="11" text-anchor="middle">Boîtes mail</text>

          <rect x="89" y="0" width="90" height="26" rx="4" class="btn-outline"/>
          <text x="134" y="17" class="text-primary" font-size="11" text-anchor="middle">Redirections</text>

          <rect x="183" y="0" width="80" height="26" rx="4" class="btn-outline"/>
          <text x="223" y="17" class="text-primary" font-size="11" text-anchor="middle">Répondeurs</text>

          <rect x="267" y="0" width="50" height="26" rx="4" class="btn-outline"/>
          <text x="292" y="17" class="text-primary" font-size="11" text-anchor="middle">Listes</text>

          <rect x="321" y="0" width="65" height="26" rx="4" class="bg-primary"/>
          <text x="353" y="17" class="text-white" font-size="11" text-anchor="middle">Sécurité</text>

          <rect x="390" y="0" width="55" height="26" rx="4" class="btn-outline"/>
          <text x="417" y="17" class="text-primary" font-size="11" text-anchor="middle">Avancé</text>

          <rect x="449" y="0" width="65" height="26" rx="4" class="btn-outline"/>
          <text x="481" y="17" class="text-primary" font-size="11" text-anchor="middle">Licences</text>

          <rect x="518" y="0" width="55" height="26" rx="4" class="btn-outline"/>
          <text x="545" y="17" class="text-primary" font-size="11" text-anchor="middle">Tâches</text>
        </g>

        <!-- NAV4 SOUS-TABS -->
        <g transform="translate(0, 96)">
          <text x="0" y="14" class="text-muted" font-size="12">DNS Config</text>

          <text x="90" y="14" class="text-primary" font-size="12" font-weight="500">Antispam</text>
          <rect x="90" y="18" width="55" height="2" fill="#0050D7"/>

          <text x="170" y="14" class="text-muted" font-size="12">Signature</text>
        </g>

        <!-- CONTENT - Antispam -->
        <g transform="translate(0, 130)">
          <!-- Stats Cards -->
          <g transform="translate(0, 0)">
            <rect x="0" y="0" width="250" height="80" rx="8" fill="#DEF7EC" stroke="#A7F3D0"/>
            <text x="20" y="30" class="text-success" font-size="24" font-weight="600">1,247</text>
            <text x="20" y="55" class="text-dark" font-size="11">Emails délivrés (7 jours)</text>

            <rect x="270" y="0" width="250" height="80" rx="8" fill="#FEE2E2" stroke="#FECACA"/>
            <text x="290" y="30" class="text-error" font-size="24" font-weight="600">89</text>
            <text x="290" y="55" class="text-dark" font-size="11">Spam bloqués (7 jours)</text>

            <rect x="540" y="0" width="250" height="80" rx="8" fill="#FEF3C7" stroke="#FDE68A"/>
            <text x="560" y="30" class="text-warning" font-size="24" font-weight="600">12</text>
            <text x="560" y="55" class="text-dark" font-size="11">En quarantaine</text>

            <rect x="810" y="0" width="210" height="80" rx="8" class="btn-outline"/>
            <text x="915" y="45" class="text-primary" font-size="12" text-anchor="middle">📋 Voir quarantaine</text>
          </g>

          <!-- Règles Section -->
          <g transform="translate(0, 110)">
            <text x="0" y="20" class="text-dark" font-size="14" font-weight="600">Règles personnalisées</text>
            <rect x="880" y="0" width="140" height="32" rx="4" class="btn-primary"/>
            <text x="950" y="21" class="text-white" font-size="11" text-anchor="middle">+ Ajouter règle</text>
          </g>

          <!-- TABLE HEADER -->
          <g transform="translate(0, 160)">
            <rect x="0" y="0" width="1036" height="36" rx="4" class="table-header"/>
            <text x="20" y="23" class="text-dark" font-size="11" font-weight="600">Règle</text>
            <text x="300" y="23" class="text-dark" font-size="11" font-weight="600">Condition</text>
            <text x="580" y="23" class="text-dark" font-size="11" font-weight="600">Action</text>
            <text x="750" y="23" class="text-dark" font-size="11" font-weight="600">Statut</text>
            <text x="900" y="23" class="text-dark" font-size="11" font-weight="600">Actions</text>
          </g>

          <!-- TABLE ROWS -->
          <g transform="translate(0, 196)">
            <!-- Row 1 -->
            <rect x="0" y="0" width="1036" height="50" fill="#FFFFFF"/>
            <line x1="0" y1="50" x2="1036" y2="50" stroke="#E5E7EB"/>
            <text x="20" y="30" class="text-dark" font-size="12">Bloquer domaine spam</text>
            <text x="300" y="30" class="text-muted" font-size="11">Si expéditeur contient "@spam-domain.com"</text>
            <rect x="580" y="15" width="80" height="22" rx="4" fill="#FEE2E2"/>
            <text x="620" y="30" class="text-error" font-size="10" text-anchor="middle">Supprimer</text>
            <rect x="750" y="15" width="46" height="20" rx="10" fill="#DEF7EC"/>
            <text x="773" y="29" fill="#03543F" font-size="10" text-anchor="middle">Actif</text>
            <text x="900" y="30" class="text-primary" font-size="12">✎</text>
            <text x="930" y="30" class="text-error" font-size="12">×</text>

            <!-- Row 2 -->
            <rect x="0" y="50" width="1036" height="50" fill="#F9FAFB"/>
            <line x1="0" y1="100" x2="1036" y2="100" stroke="#E5E7EB"/>
            <text x="20" y="80" class="text-dark" font-size="12">Liste blanche partenaire</text>
            <text x="300" y="80" class="text-muted" font-size="11">Si expéditeur contient "@partenaire.fr"</text>
            <rect x="580" y="65" width="80" height="22" rx="4" fill="#DEF7EC"/>
            <text x="620" y="80" fill="#03543F" font-size="10" text-anchor="middle">Accepter</text>
            <rect x="750" y="65" width="46" height="20" rx="10" fill="#DEF7EC"/>
            <text x="773" y="79" fill="#03543F" font-size="10" text-anchor="middle">Actif</text>
            <text x="900" y="80" class="text-primary" font-size="12">✎</text>
            <text x="930" y="80" class="text-error" font-size="12">×</text>

            <!-- Row 3 -->
            <rect x="0" y="100" width="1036" height="50" fill="#FFFFFF"/>
            <line x1="0" y1="150" x2="1036" y2="150" stroke="#E5E7EB"/>
            <text x="20" y="130" class="text-dark" font-size="12">Quarantaine mots clés</text>
            <text x="300" y="130" class="text-muted" font-size="11">Si sujet contient "urgent", "gagné"</text>
            <rect x="580" y="115" width="80" height="22" rx="4" fill="#FEF3C7"/>
            <text x="620" y="130" class="text-warning" font-size="10" text-anchor="middle">Quarantaine</text>
            <rect x="750" y="115" width="46" height="20" rx="10" fill="#DEF7EC"/>
            <text x="773" y="129" fill="#03543F" font-size="10" text-anchor="middle">Actif</text>
            <text x="900" y="130" class="text-primary" font-size="12">✎</text>
            <text x="930" y="130" class="text-error" font-size="12">×</text>
          </g>

          <!-- Global Settings -->
          <g transform="translate(0, 400)">
            <rect x="0" y="0" width="1036" height="120" rx="8" fill="#F9FAFB" stroke="#E5E7EB"/>
            <text x="20" y="30" class="text-dark" font-size="14" font-weight="600">Paramètres globaux</text>

            <text x="20" y="60" class="text-muted" font-size="11">Niveau de filtrage:</text>
            <rect x="150" y="45" width="80" height="24" rx="4" fill="#FFFFFF" stroke="#E5E7EB"/>
            <text x="175" y="62" class="text-dark" font-size="11">Modéré ▼</text>

            <text x="280" y="60" class="text-muted" font-size="11">Rétention quarantaine:</text>
            <rect x="430" y="45" width="80" height="24" rx="4" fill="#FFFFFF" stroke="#E5E7EB"/>
            <text x="455" y="62" class="text-dark" font-size="11">7 jours ▼</text>

            <text x="560" y="60" class="text-muted" font-size="11">Rapport quotidien:</text>
            <rect x="690" y="50" width="40" height="20" rx="10" fill="#0050D7"/>
            <circle cx="720" cy="60" r="8" fill="#FFFFFF"/>

            <text x="20" y="100" class="text-muted" font-size="10">Les modifications s'appliquent à toutes les boîtes du domaine.</text>
          </g>
        </g>

      </g>
    </g>
  </g>
</svg>
