<svg xmlns="http://www.w3.org/2000/svg" viewBox="0 0 1440 900">
  <defs>
    <style>
      .overlay { fill: rgba(0,0,0,0.5); }
      .modal { fill: #FFFFFF; }
      .modal-header { fill: #F9FAFB; }
      .text-primary { fill: #1F2937; font-family: -apple-system, BlinkMacSystemFont, 'Segoe UI', sans-serif; }
      .text-muted { fill: #6B7280; font-family: -apple-system, BlinkMacSystemFont, 'Segoe UI', sans-serif; }
      .text-white { fill: #FFFFFF; font-family: -apple-system, BlinkMacSystemFont, 'Segoe UI', sans-serif; }
      .btn-primary { fill: #0050D7; }
      .btn-secondary { fill: #FFFFFF; stroke: #D1D5DB; }
      .input { fill: #FFFFFF; stroke: #D1D5DB; }
      .card-selected { fill: #EBF5FF; stroke: #0050D7; stroke-width: 2; }
      .card { fill: #FFFFFF; stroke: #E5E7EB; }
      .radio-active { fill: #0050D7; }
      .radio { fill: #FFFFFF; stroke: #D1D5DB; }
    </style>
  </defs>
  <rect fill="#FFFFFF" width="1440" height="900"/>
  <rect fill="#000E9C" width="1440" height="60"/>
  <rect class="overlay" width="1440" height="900"/>

  <rect class="modal" x="370" y="100" width="700" height="700" rx="8" filter="url(#shadow)"/>
  <rect class="modal-header" x="370" y="100" width="700" height="56" rx="8 8 0 0"/>
  <text class="text-primary" x="395" y="136" font-size="16" font-weight="600">Créer un container Object Storage</text>
  <text class="text-muted" x="1045" y="136" font-size="20">×</text>

  <!-- Container name -->
  <text class="text-primary" x="395" y="190" font-size="13" font-weight="500">Nom du container *</text>
  <rect class="input" x="395" y="200" width="650" height="40" rx="4"/>
  <text class="text-muted" x="410" y="226" font-size="14">my-bucket</text>
  <text class="text-muted" x="395" y="258" font-size="11">Caractères autorisés : a-z, 0-9, - (tiret)</text>

  <!-- Region -->
  <text class="text-primary" x="395" y="300" font-size="13" font-weight="500">Région</text>
  <rect class="card-selected" x="395" y="315" width="100" height="55" rx="6"/>
  <text class="text-primary" x="445" y="342" font-size="12" text-anchor="middle">🇫🇷 GRA</text>

  <rect class="card" x="510" y="315" width="100" height="55" rx="6"/>
  <text class="text-muted" x="560" y="342" font-size="12" text-anchor="middle">🇫🇷 SBG</text>

  <rect class="card" x="625" y="315" width="100" height="55" rx="6"/>
  <text class="text-muted" x="675" y="342" font-size="12" text-anchor="middle">🇩🇪 DE</text>

  <rect class="card" x="740" y="315" width="100" height="55" rx="6"/>
  <text class="text-muted" x="790" y="342" font-size="12" text-anchor="middle">🇬🇧 UK</text>

  <!-- Storage class -->
  <text class="text-primary" x="395" y="405" font-size="13" font-weight="500">Classe de stockage</text>

  <rect class="card-selected" x="395" y="420" width="200" height="90" rx="6"/>
  <text class="text-primary" x="415" y="445" font-size="12" font-weight="500">Standard</text>
  <text class="text-primary" x="415" y="465" font-size="11">Accès fréquent</text>
  <text class="text-primary" x="415" y="485" font-size="10">€0.01/Go/mois</text>
  <text class="text-muted" x="415" y="500" font-size="9">Pas de frais de récupération</text>

  <rect class="card" x="610" y="420" width="200" height="90" rx="6"/>
  <text class="text-muted" x="630" y="445" font-size="12" font-weight="500">High Performance</text>
  <text class="text-muted" x="630" y="465" font-size="11">Haute performance</text>
  <text class="text-muted" x="630" y="485" font-size="10">€0.02/Go/mois</text>
  <text class="text-muted" x="630" y="500" font-size="9">SSD NVMe</text>

  <rect class="card" x="825" y="420" width="200" height="90" rx="6"/>
  <text class="text-muted" x="845" y="445" font-size="12" font-weight="500">Cold Archive</text>
  <text class="text-muted" x="845" y="465" font-size="11">Archivage longue durée</text>
  <text class="text-muted" x="845" y="485" font-size="10">€0.002/Go/mois</text>
  <text class="text-muted" x="845" y="500" font-size="9">Frais de récupération</text>

  <!-- Access -->
  <text class="text-primary" x="395" y="550" font-size="13" font-weight="500">Politique d'accès</text>

  <circle class="radio-active" cx="410" cy="580" r="8"/>
  <circle fill="#FFFFFF" cx="410" cy="580" r="3"/>
  <text class="text-primary" x="430" y="585" font-size="13">Privé</text>
  <text class="text-muted" x="430" y="600" font-size="11">Accès uniquement via authentification</text>

  <circle class="radio" cx="410" cy="640" r="8"/>
  <text class="text-muted" x="430" y="645" font-size="13">Public (lecture seule)</text>
  <text class="text-muted" x="430" y="660" font-size="11">Les objets sont accessibles publiquement en lecture</text>

  <!-- Versioning -->
  <rect fill="#FFFFFF" x="395" y="690" width="18" height="18" rx="3" stroke="#D1D5DB"/>
  <text class="text-primary" x="425" y="704" font-size="13">Activer le versioning des objets</text>

  <line x1="370" y1="740" x2="1070" y2="740" stroke="#E5E7EB"/>
  <rect class="btn-secondary" x="820" y="760" width="100" height="36" rx="4"/>
  <text class="text-primary" x="870" y="784" font-size="14" text-anchor="middle">Annuler</text>
  <rect class="btn-primary" x="935" y="760" width="120" height="36" rx="4"/>
  <text class="text-white" x="995" y="784" font-size="14" font-weight="500" text-anchor="middle">Créer</text>

  <defs><filter id="shadow" x="-20%" y="-20%" width="140%" height="140%"><feDropShadow dx="0" dy="4" stdDeviation="16" flood-opacity="0.15"/></filter></defs>
</svg>
