<?xml version="1.0" encoding="UTF-8"?>
<svg width="1000" height="550" viewBox="0 0 1000 550" fill="none" xmlns="http://www.w3.org/2000/svg">
  <title>Housing - Intervention Request</title>

  <!-- Background -->
  <rect width="1000" height="550" fill="#F9FAFB"/>

  <!-- Header -->
  <g transform="translate(30, 30)">
    <text x="0" y="0" fill="#1F2937" font-family="system-ui, sans-serif" font-size="22" font-weight="600">Demander une intervention</text>
    <text x="0" y="30" fill="#6B7280" font-family="system-ui, sans-serif" font-size="13">Planifiez une intervention technique dans le datacenter.</text>
  </g>

  <!-- Form -->
  <g transform="translate(30, 100)">
    <rect x="0" y="0" width="940" height="380" rx="8" fill="white" stroke="#E5E7EB"/>

    <!-- Type field -->
    <g transform="translate(30, 30)">
      <text x="0" y="0" fill="#1F2937" font-family="system-ui, sans-serif" font-size="13" font-weight="500">Type d'intervention *</text>
      <g transform="translate(0, 15)">
        <rect x="0" y="0" width="400" height="40" rx="4" fill="white" stroke="#E5E7EB"/>
        <text x="15" y="26" fill="#1F2937" font-family="system-ui, sans-serif" font-size="13">Hands &amp; Eyes</text>
        <text x="380" y="26" fill="#6B7280" font-family="system-ui, sans-serif" font-size="12">▼</text>
      </g>
    </g>

    <!-- Date field -->
    <g transform="translate(30, 110)">
      <text x="0" y="0" fill="#1F2937" font-family="system-ui, sans-serif" font-size="13" font-weight="500">Date souhaitée *</text>
      <g transform="translate(0, 15)">
        <rect x="0" y="0" width="200" height="40" rx="4" fill="white" stroke="#E5E7EB"/>
        <text x="15" y="26" fill="#1F2937" font-family="system-ui, sans-serif" font-size="13">30/12/2024</text>
        <text x="170" y="26" fill="#6B7280" font-family="system-ui, sans-serif" font-size="14">📅</text>
      </g>
    </g>

    <!-- Time field -->
    <g transform="translate(280, 110)">
      <text x="0" y="0" fill="#1F2937" font-family="system-ui, sans-serif" font-size="13" font-weight="500">Heure *</text>
      <g transform="translate(0, 15)">
        <rect x="0" y="0" width="150" height="40" rx="4" fill="white" stroke="#E5E7EB"/>
        <text x="15" y="26" fill="#1F2937" font-family="system-ui, sans-serif" font-size="13">10:00</text>
        <text x="130" y="26" fill="#6B7280" font-family="system-ui, sans-serif" font-size="12">▼</text>
      </g>
    </g>

    <!-- Description field -->
    <g transform="translate(30, 190)">
      <text x="0" y="0" fill="#1F2937" font-family="system-ui, sans-serif" font-size="13" font-weight="500">Description de l'intervention *</text>
      <g transform="translate(0, 15)">
        <rect x="0" y="0" width="880" height="100" rx="4" fill="white" stroke="#E5E7EB"/>
        <text x="15" y="25" fill="#1F2937" font-family="system-ui, sans-serif" font-size="13">Vérification de l'état des voyants sur le serveur.</text>
        <text x="15" y="45" fill="#1F2937" font-family="system-ui, sans-serif" font-size="13">Prise de photo du panneau avant et arrière.</text>
      </g>
    </g>

    <!-- Info message -->
    <g transform="translate(30, 320)">
      <rect x="0" y="0" width="880" height="40" rx="4" fill="#EFF6FF"/>
      <text x="15" y="25" fill="#0050D7" font-family="system-ui, sans-serif" font-size="12">ℹ L'intervention sera facturée selon le tarif en vigueur. Vous recevrez une confirmation par email.</text>
    </g>
  </g>

  <!-- Buttons -->
  <g transform="translate(30, 500)">
    <rect x="0" y="0" width="100" height="40" rx="4" fill="white" stroke="#E5E7EB"/>
    <text x="28" y="26" fill="#6B7280" font-family="system-ui, sans-serif" font-size="13">Annuler</text>

    <rect x="840" y="0" width="130" height="40" rx="4" fill="#0050D7"/>
    <text x="870" y="26" fill="white" font-family="system-ui, sans-serif" font-size="13">Demander</text>
  </g>
</svg>
