<svg xmlns="http://www.w3.org/2000/svg" viewBox="0 0 1440 850" width="1440" height="850">
  <defs>
    <style>
      .bg-header { fill: #000E9C; }
      .bg-white { fill: #FFFFFF; }
      .bg-muted { fill: #F9FAFB; }
      .text-dark { font-family: 'Source Sans Pro', sans-serif; font-size: 14px; fill: #1F2937; }
      .text-muted { font-family: 'Source Sans Pro', sans-serif; font-size: 13px; fill: #6B7280; }
      .text-white { font-family: 'Source Sans Pro', sans-serif; fill: #FFFFFF; }
      .text-title { font-family: 'Source Sans Pro', sans-serif; font-size: 20px; font-weight: 600; fill: #1F2937; }
      .text-label { font-family: 'Source Sans Pro', sans-serif; font-size: 14px; font-weight: 500; fill: #374151; }
      .border { stroke: #E5E7EB; stroke-width: 1; fill: none; }
      .btn-primary { fill: #0050D7; }
      .btn-secondary { fill: #FFFFFF; stroke: #D1D5DB; }
      .btn-danger { fill: #EF4444; }
      .input-field { fill: #FFFFFF; stroke: #D1D5DB; stroke-width: 1; }
    </style>
  </defs>

  <!-- Background with overlay -->
  <rect width="1440" height="850" class="bg-muted"/>

  <!-- Header -->
  <rect width="1440" height="60" class="bg-header"/>
  <text x="80" y="38" class="text-white" font-size="18" font-weight="600">OVHcloud</text>
  <text x="200" y="38" class="text-white" font-size="14">Telecom</text>

  <!-- Sidebar dimmed -->
  <rect x="0" y="60" width="240" height="790" fill="#FFFFFF" opacity="0.3"/>

  <!-- Main content dimmed -->
  <rect x="240" y="60" width="1200" height="790" fill="#000000" opacity="0.3"/>

  <!-- Modal -->
  <g transform="translate(400, 80)">
    <rect x="0" y="0" width="640" height="690" rx="8" class="bg-white" filter="drop-shadow(0 4px 20px rgba(0,0,0,0.15))"/>

    <!-- Modal header -->
    <text x="600" y="30" class="text-muted" font-size="18" style="cursor: pointer;">×</text>

    <!-- Form content -->
    <g transform="translate(24, 30)">
      <text x="0" y="0" class="text-title">Modifier le contact</text>

      <!-- Surname -->
      <g transform="translate(0, 40)">
        <text x="0" y="0" class="text-label">Nom *</text>
        <rect x="0" y="15" width="280" height="40" rx="4" class="input-field"/>
        <text x="15" y="42" class="text-dark">Bernard</text>
      </g>

      <!-- Name -->
      <g transform="translate(300, 40)">
        <text x="0" y="0" class="text-label">Prenom *</text>
        <rect x="0" y="15" width="280" height="40" rx="4" class="input-field"/>
        <text x="15" y="42" class="text-dark">Pierre</text>
      </g>

      <!-- Group with dropdown -->
      <g transform="translate(0, 120)">
        <text x="0" y="0" class="text-label">Groupe</text>
        <g transform="translate(0, 15)">
          <rect x="0" y="0" width="440" height="40" rx="4" class="input-field"/>
          <text x="15" y="27" class="text-dark">Amis</text>
          <rect x="450" y="0" width="130" height="40" rx="4" class="btn-secondary"/>
          <text x="465" y="27" class="text-dark">Choisir ▼</text>

          <!-- Dropdown open -->
          <rect x="450" y="45" width="130" height="110" rx="4" class="bg-white border" filter="drop-shadow(0 2px 4px rgba(0,0,0,0.1))"/>
          <text x="465" y="72" class="text-dark">Travail</text>
          <line x1="450" y1="85" x2="580" y2="85" stroke="#E5E7EB"/>
          <text x="465" y="107" class="text-dark">Famille</text>
          <line x1="450" y1="120" x2="580" y2="120" stroke="#E5E7EB"/>
          <rect x="450" y="125" width="130" height="30" fill="#E8F0FE"/>
          <text x="465" y="145" fill="#0050D7">Amis</text>
        </g>
      </g>

      <!-- Info alert -->
      <g transform="translate(0, 195)">
        <rect x="0" y="0" width="580" height="35" rx="4" fill="#EFF6FF" stroke="#BFDBFE"/>
        <text x="15" y="22" fill="#1E40AF" font-size="12">ⓘ Au moins un numero de telephone est requis.</text>
      </g>

      <!-- Phone numbers grid -->
      <g transform="translate(0, 250)">
        <!-- Home phone -->
        <g transform="translate(0, 0)">
          <text x="0" y="0" class="text-label">Tel. domicile</text>
          <rect x="0" y="15" width="280" height="40" rx="4" class="input-field"/>
          <text x="15" y="42" class="text-dark">0155667788</text>
        </g>

        <!-- Home mobile -->
        <g transform="translate(300, 0)">
          <text x="0" y="0" class="text-label">Mobile personnel</text>
          <rect x="0" y="15" width="280" height="40" rx="4" class="input-field"/>
          <text x="15" y="42" class="text-dark">0711223344</text>
        </g>

        <!-- Work phone -->
        <g transform="translate(0, 80)">
          <text x="0" y="0" class="text-label">Tel. bureau</text>
          <rect x="0" y="15" width="280" height="40" rx="4" class="input-field"/>
          <text x="15" y="42" class="text-dark">0144556677</text>
        </g>

        <!-- Work mobile -->
        <g transform="translate(300, 80)">
          <text x="0" y="0" class="text-label">Mobile professionnel</text>
          <rect x="0" y="15" width="280" height="40" rx="4" class="input-field"/>
          <text x="15" y="42" class="text-dark">0633221100</text>
        </g>
      </g>
    </g>

    <!-- Footer -->
    <g transform="translate(24, 620)">
      <line x1="0" y1="0" x2="592" y2="0" stroke="#E5E7EB"/>
      <g transform="translate(0, 30)">
        <!-- Delete button -->
        <rect x="0" y="0" width="100" height="40" rx="4" class="btn-danger"/>
        <text x="15" y="26" class="text-white">Supprimer</text>

        <rect x="400" y="0" width="80" height="40" rx="4" class="btn-secondary"/>
        <text x="417" y="26" class="text-dark">Annuler</text>

        <rect x="490" y="0" width="102" height="40" rx="4" class="btn-primary"/>
        <text x="510" y="26" class="text-white">Enregistrer</text>
      </g>
    </g>
  </g>
</svg>
