<svg xmlns="http://www.w3.org/2000/svg" viewBox="0 0 1440 900" width="1440" height="900">
  <defs>
    <style>
      .bg-header { fill: #000E9C; }
      .bg-main { fill: #F6F6F9; }
      .bg-white { fill: #FFFFFF; }
      .bg-primary { fill: #0050D7; }
      .bg-info { fill: #DBEAFE; }
      .bg-neutral { fill: #F3F4F6; }
      .border { stroke: #E5E7EB; stroke-width: 1; fill: none; }
      .btn-outline { stroke: #0050D7; stroke-width: 1; fill: #FFFFFF; }
      .btn-primary { fill: #0050D7; }
      .btn-danger { fill: #DC2626; }
      .text-white { fill: #FFFFFF; font-family: 'Source Sans Pro', sans-serif; }
      .text-dark { fill: #1F2937; font-family: 'Source Sans Pro', sans-serif; }
      .text-muted { fill: #6B7280; font-family: 'Source Sans Pro', sans-serif; }
      .text-primary { fill: #0050D7; font-family: 'Source Sans Pro', sans-serif; }
      .text-success { fill: #059669; font-family: 'Source Sans Pro', sans-serif; }
      .text-info { fill: #1E40AF; font-family: 'Source Sans Pro', sans-serif; }
      .switch-on { fill: #0050D7; }
      .switch-knob { fill: #FFFFFF; }
      .table-header { fill: #F9FAFB; }
      .row-alt { fill: #F9FAFB; }
      .theme-blue { fill: #3B82F6; }
      .theme-green { fill: #10B981; }
      .theme-purple { fill: #8B5CF6; }
      .theme-orange { fill: #F59E0B; }
      .theme-red { fill: #EF4444; }
    </style>
  </defs>

  <rect width="1440" height="900" class="bg-main"/>

  <!-- NAV1 - Header OVH -->
  <rect width="1440" height="50" fill="#000E9C"/>
  <text x="40" y="32" fill="#FFFFFF" font-family="Source Sans Pro" font-size="14" opacity="0.7">Accueil</text>
  <text x="110" y="32" fill="#FFFFFF" font-family="Source Sans Pro" font-size="14" opacity="0.7">Public Cloud</text>
  <text x="210" y="32" fill="#FFFFFF" font-family="Source Sans Pro" font-size="14" opacity="0.7">Hosted Private Cloud</text>
  <text x="370" y="32" fill="#FFFFFF" font-family="Source Sans Pro" font-size="14" opacity="0.7">Bare Metal Cloud</text>
  <text x="510" y="32" fill="#FFFFFF" font-family="Source Sans Pro" font-size="14" font-weight="600">Web Cloud</text>
  <rect x="505" y="46" width="75" height="3" fill="#FFFFFF"/>
  <text x="620" y="32" fill="#FFFFFF" font-family="Source Sans Pro" font-size="14" opacity="0.7">Network</text>
  <text x="700" y="32" fill="#FFFFFF" font-family="Source Sans Pro" font-size="14" opacity="0.7">IAM / Securite</text>
  <text x="810" y="32" fill="#FFFFFF" font-family="Source Sans Pro" font-size="14" opacity="0.7">Licences</text>
  <rect x="1280" y="12" width="140" height="26" rx="13" fill="rgba(255,255,255,0.2)"/>
  <text x="1320" y="29" fill="#FFFFFF" font-size="12">ab12345-ovh</text>

  <!-- NAV2 - Web Cloud -->
  <rect x="0" y="50" width="1440" height="40" fill="#FFFFFF"/>
  <line x1="0" y1="89" x2="1440" y2="89" stroke="#E5E7EB"/>
  <text x="40" y="75" fill="#6B7280" font-family="Source Sans Pro" font-size="14">Accueil</text>
  <text x="110" y="75" fill="#6B7280" font-family="Source Sans Pro" font-size="14">Domaines et DNS</text>
  <text x="240" y="75" fill="#6B7280" font-family="Source Sans Pro" font-size="14">Hébergement</text>
  <text x="345" y="75" fill="#6B7280" font-family="Source Sans Pro" font-size="14">Wordpress</text>
  <text x="430" y="75" fill="#6B7280" font-family="Source Sans Pro" font-size="14">Emails</text>
  <text x="500" y="75" fill="#0050D7" font-family="Source Sans Pro" font-size="14" font-weight="600">VoIP</text>
  <rect x="495" y="85" width="35" height="3" fill="#0050D7"/>
  <text x="550" y="75" fill="#6B7280" font-family="Source Sans Pro" font-size="14">Accès</text>
  <text x="1350" y="75" fill="#0050D7" font-family="Source Sans Pro" font-size="13">Guides</text>

  <!-- CONTENT AREA -->
  <g transform="translate(0, 105)">
    <g transform="translate(24, 0)">

      <!-- LEFT PANEL -->
      <rect x="0" y="0" width="280" height="765" rx="8" class="bg-white"/>
      <rect x="0" y="0" width="280" height="765" rx="8" class="border"/>

      <rect x="12" y="12" width="256" height="34" rx="4" fill="#F9FAFB" stroke="#E5E7EB"/>
      <text x="26" y="34" class="text-muted" font-size="12">🔍 Rechercher...</text>
      <text x="12" y="68" class="text-muted" font-size="11">3 lignes</text>

      <g transform="translate(6, 80)">
        <rect x="0" y="0" width="268" height="60" rx="6" fill="#E8F0FE"/>
        <text x="12" y="22" class="text-dark" font-size="13" font-weight="500">0033972101234</text>
        <text x="12" y="40" class="text-muted" font-size="11">Bureau Direction</text>
        <rect x="200" y="18" width="46" height="18" rx="9" fill="#DEF7EC"/>
        <text x="223" y="31" fill="#03543F" font-size="10" text-anchor="middle">Actif</text>

        <rect x="0" y="68" width="268" height="60" rx="6" fill="#FFFFFF"/>
        <text x="12" y="90" class="text-dark" font-size="13">0033972101235</text>
        <text x="12" y="108" class="text-muted" font-size="11">Accueil</text>
      </g>
    </g>

    <g transform="translate(320, 0)">

      <!-- RIGHT PANEL -->
      <rect x="0" y="0" width="1096" height="765" rx="8" class="bg-white"/>
      <rect x="0" y="0" width="1096" height="765" rx="8" class="border"/>

      <g transform="translate(20, 0)">
        <!-- HEADER PAGE -->
        <text x="0" y="24" class="text-dark" font-size="18" font-weight="600">0033972101234</text>
        <text x="180" y="24" class="text-muted" font-size="12">Bureau Direction</text>

        <!-- NAV3 TABS -->
        <g transform="translate(0, 38)">
          <rect x="0" y="0" width="60" height="26" rx="4" fill="#FFFFFF" stroke="#0050D7"/>
          <text x="30" y="17" fill="#0050D7" font-size="11" text-anchor="middle">Général</text>

          <rect x="64" y="0" width="75" height="26" rx="4" fill="#FFFFFF" stroke="#0050D7"/>
          <text x="101" y="17" fill="#0050D7" font-size="11" text-anchor="middle">Téléphone</text>

          <rect x="143" y="0" width="55" height="26" rx="4" fill="#FFFFFF" stroke="#0050D7"/>
          <text x="170" y="17" fill="#0050D7" font-size="11" text-anchor="middle">Appels</text>

          <rect x="202" y="0" width="75" height="26" rx="4" fill="#FFFFFF" stroke="#0050D7"/>
          <text x="239" y="17" fill="#0050D7" font-size="11" text-anchor="middle">Transferts</text>

          <rect x="281" y="0" width="80" height="26" rx="4" fill="#FFFFFF" stroke="#0050D7"/>
          <text x="321" y="17" fill="#0050D7" font-size="11" text-anchor="middle">Messagerie</text>

          <rect x="365" y="0" width="95" height="26" rx="4" fill="#FFFFFF" stroke="#0050D7"/>
          <text x="412" y="17" fill="#0050D7" font-size="11" text-anchor="middle">Consommation</text>

          <rect x="464" y="0" width="70" height="26" rx="4" fill="#0050D7"/>
          <text x="499" y="17" fill="#FFFFFF" font-size="11" text-anchor="middle">Softphone</text>

          <rect x="538" y="0" width="60" height="26" rx="4" fill="#FFFFFF" stroke="#0050D7"/>
          <text x="568" y="17" fill="#0050D7" font-size="11" text-anchor="middle">Options</text>
        </g>

        <!-- CONTENT -->
        <g transform="translate(0, 80)">
          <!-- Toggle activation -->
          <g transform="translate(0, 0)">
            <text x="0" y="16" class="text-dark" font-size="13" font-weight="500">Activer le softphone</text>
            <rect x="200" y="0" width="44" height="24" rx="12" class="switch-on"/>
            <circle cx="232" cy="12" r="10" class="switch-knob"/>
            <text x="0" y="38" class="text-muted" font-size="11">Le softphone permet d'utiliser votre ligne depuis une application mobile.</text>
          </g>

          <!-- Download links section -->
          <g transform="translate(0, 60)">
            <rect x="0" y="0" width="1056" height="130" rx="8" class="bg-white"/>
            <rect x="0" y="0" width="1056" height="130" rx="8" class="border"/>

            <text x="20" y="30" class="text-dark" font-size="15" font-weight="600">Liens de téléchargement</text>

            <text x="20" y="55" class="text-dark" font-size="11" font-weight="500">Option 1 : Télécharger depuis les stores</text>
            <rect x="20" y="65" width="100" height="32" rx="4" fill="#000000"/>
            <text x="45" y="85" class="text-white" font-size="10">App Store</text>
            <rect x="130" y="65" width="110" height="32" rx="4" fill="#000000"/>
            <text x="152" y="85" class="text-white" font-size="10">Google Play</text>

            <text x="280" y="55" class="text-dark" font-size="11" font-weight="500">Option 2 : Lien direct</text>
            <text x="280" y="85" class="text-primary" font-size="11">https://softphone.ovh.com/download</text>
          </g>

          <!-- Devices section -->
          <g transform="translate(0, 210)">
            <rect x="0" y="0" width="1056" height="240" rx="8" class="bg-white"/>
            <rect x="0" y="0" width="1056" height="240" rx="8" class="border"/>

            <text x="20" y="30" class="text-dark" font-size="15" font-weight="600">Configuration des appareils</text>
            <text x="20" y="50" class="text-muted" font-size="11">Gérez les appareils autorisés. Maximum 3 appareils.</text>

            <!-- Toolbar -->
            <g transform="translate(20, 65)">
              <rect x="0" y="0" width="140" height="32" rx="4" class="btn-primary"/>
              <text x="70" y="21" class="text-white" font-size="11" text-anchor="middle">+ Générer un jeton</text>

              <rect x="150" y="0" width="120" height="32" rx="4" class="btn-outline"/>
              <text x="210" y="21" class="text-primary" font-size="11" text-anchor="middle">Tout supprimer</text>
            </g>

            <!-- Table -->
            <g transform="translate(20, 110)">
              <rect x="0" y="0" width="1016" height="30" class="table-header"/>
              <text x="20" y="20" class="text-dark" font-size="11" font-weight="600">ID</text>
              <text x="200" y="20" class="text-dark" font-size="11" font-weight="600">Nom</text>
              <text x="400" y="20" class="text-dark" font-size="11" font-weight="600">OS</text>
              <text x="550" y="20" class="text-dark" font-size="11" font-weight="600">User Agent</text>
              <text x="900" y="20" class="text-dark" font-size="11" font-weight="600">Actions</text>

              <!-- Row 1 -->
              <rect x="0" y="30" width="1016" height="40" fill="#FFFFFF"/>
              <text x="20" y="55" class="text-dark" font-size="11">abc123def456</text>
              <text x="200" y="55" class="text-dark" font-size="11">iPhone de Jean</text>
              <text x="400" y="55" class="text-dark" font-size="11">iOS</text>
              <text x="550" y="55" class="text-muted" font-size="10">OVH Softphone/2.1.0 iOS/17.2</text>
              <text x="900" y="55" class="text-primary" font-size="11">× Supprimer</text>

              <!-- Row 2 -->
              <rect x="0" y="70" width="1016" height="40" class="row-alt"/>
              <text x="20" y="95" class="text-dark" font-size="11">xyz789ghi012</text>
              <text x="200" y="95" class="text-dark" font-size="11">Samsung Galaxy</text>
              <text x="400" y="95" class="text-dark" font-size="11">Android</text>
              <text x="550" y="95" class="text-muted" font-size="10">OVH Softphone/2.1.0 Android/14</text>
              <text x="900" y="95" class="text-primary" font-size="11">× Supprimer</text>
            </g>
          </g>

          <!-- Theme section -->
          <g transform="translate(0, 470)">
            <rect x="0" y="0" width="520" height="120" rx="8" class="bg-white"/>
            <rect x="0" y="0" width="520" height="120" rx="8" class="border"/>

            <text x="20" y="30" class="text-dark" font-size="15" font-weight="600">Personnalisation du thème</text>
            <text x="20" y="50" class="text-muted" font-size="11">Choisissez la couleur de l'interface.</text>

            <circle cx="40" cy="80" r="16" class="theme-blue" stroke="#2563EB" stroke-width="2"/>
            <circle cx="90" cy="80" r="16" class="theme-green"/>
            <circle cx="140" cy="80" r="16" class="theme-purple"/>
            <circle cx="190" cy="80" r="16" class="theme-orange"/>
            <circle cx="240" cy="80" r="16" class="theme-red"/>

            <rect x="400" y="65" width="100" height="32" rx="4" class="btn-outline"/>
            <text x="450" y="86" class="text-primary" font-size="11" text-anchor="middle">Appliquer</text>
          </g>

          <!-- Logo section -->
          <g transform="translate(536, 470)">
            <rect x="0" y="0" width="520" height="120" rx="8" class="bg-white"/>
            <rect x="0" y="0" width="520" height="120" rx="8" class="border"/>

            <text x="20" y="30" class="text-dark" font-size="15" font-weight="600">Logo personnalisé</text>
            <text x="20" y="50" class="text-muted" font-size="11">Format: PNG, JPG. Taille max: 512KB</text>

            <rect x="20" y="65" width="200" height="40" rx="4" fill="#F3F4F6" stroke="#D1D5DB" stroke-dasharray="4,4"/>
            <text x="70" y="90" class="text-muted" font-size="10">📁 Glisser un fichier</text>

            <rect x="240" y="65" width="40" height="40" rx="4" fill="#E5E7EB"/>
            <text x="252" y="90" class="text-muted" font-size="14">🖼️</text>

            <rect x="400" y="65" width="100" height="32" rx="4" class="btn-outline"/>
            <text x="450" y="86" class="text-primary" font-size="11" text-anchor="middle">Appliquer</text>
          </g>
        </g>
      </g>
    </g>
  </g>
</svg>
