<svg xmlns="http://www.w3.org/2000/svg" viewBox="0 0 1440 900" width="1440" height="900">
  <defs>
    <style>
      .bg-header { fill: #000E9C; }
      .bg-main { fill: #F6F6F9; }
      .bg-white { fill: #FFFFFF; }
      .bg-primary { fill: #0050D7; }
      .bg-neutral-100 { fill: #F3F4F6; }
      .bg-info { fill: #DBEAFE; }
      .bg-success { fill: #DEF7EC; }
      .bg-error { fill: #FEE2E2; }
      .bg-warning { fill: #FEF3C7; }
      .border { stroke: #E5E7EB; stroke-width: 1; fill: none; }
      .btn-outline { stroke: #0050D7; stroke-width: 1; fill: #FFFFFF; }
      .btn-primary { fill: #0050D7; }
      .table-header { fill: #F9FAFB; }
      .text-white { fill: #FFFFFF; font-family: 'Source Sans Pro', sans-serif; }
      .text-dark { fill: #1F2937; font-family: 'Source Sans Pro', sans-serif; }
      .text-muted { fill: #6B7280; font-family: 'Source Sans Pro', sans-serif; }
      .text-primary { fill: #0050D7; font-family: 'Source Sans Pro', sans-serif; }
      .text-success { fill: #059669; font-family: 'Source Sans Pro', sans-serif; }
      .text-error { fill: #DC2626; font-family: 'Source Sans Pro', sans-serif; }
      .text-info { fill: #1E40AF; font-family: 'Source Sans Pro', sans-serif; }
      .text-warning { fill: #D97706; font-family: 'Source Sans Pro', sans-serif; }
    </style>
  </defs>

  <!-- Background -->
  <rect width="1440" height="900" class="bg-main"/>

  <!-- NAV1 - Header OVH (Web Cloud actif) -->
  <rect width="1440" height="50" class="bg-header"/>
  <text x="40" y="32" class="text-white" font-size="14" opacity="0.7">Accueil</text>
  <text x="110" y="32" class="text-white" font-size="14" opacity="0.7">Public Cloud</text>
  <text x="210" y="32" class="text-white" font-size="14" opacity="0.7">Hosted Private Cloud</text>
  <text x="370" y="32" class="text-white" font-size="14" opacity="0.7">Bare Metal Cloud</text>
  <text x="510" y="32" class="text-white" font-size="14" font-weight="600">Web Cloud</text>
  <rect x="505" y="46" width="75" height="3" fill="#FFFFFF"/>
  <text x="620" y="32" class="text-white" font-size="14" opacity="0.7">Network</text>
  <text x="700" y="32" class="text-white" font-size="14" opacity="0.7">IAM / Securite</text>
  <text x="810" y="32" class="text-white" font-size="14" opacity="0.7">Licences</text>

  <!-- NAV2 - Web Cloud (VoIP actif) -->
  <rect x="0" y="50" width="1440" height="40" fill="#FFFFFF"/>
  <line x1="0" y1="89" x2="1440" y2="89" stroke="#E5E7EB"/>
  <text x="40" y="75" class="text-muted" font-size="14">Accueil</text>
  <text x="110" y="75" class="text-muted" font-size="14">Domaines et DNS</text>
  <text x="240" y="75" class="text-muted" font-size="14">Hébergement</text>
  <text x="345" y="75" class="text-muted" font-size="14">Wordpress</text>
  <text x="430" y="75" class="text-muted" font-size="14">Emails</text>
  <text x="500" y="75" class="text-primary" font-size="14" font-weight="600">VoIP</text>
  <rect x="495" y="85" width="35" height="3" fill="#0050D7"/>
  <text x="550" y="75" class="text-muted" font-size="14">Accès</text>

  <!-- CONTENT AREA -->
  <g transform="translate(0, 105)">
    <g transform="translate(24, 0)">

      <!-- LEFT PANEL -->
      <rect x="0" y="0" width="280" height="765" rx="8" class="bg-white"/>
      <rect x="0" y="0" width="280" height="765" rx="8" class="border"/>
      <rect x="12" y="12" width="256" height="34" rx="4" fill="#F9FAFB" stroke="#E5E7EB"/>
      <text x="26" y="34" class="text-muted" font-size="12">🔍 Rechercher...</text>
      <text x="12" y="68" class="text-muted" font-size="11">8 lignes</text>

      <g transform="translate(6, 80)">
        <rect x="0" y="0" width="268" height="60" rx="6" fill="#E8F0FE"/>
        <text x="16" y="24" class="text-dark" font-size="13" font-weight="500">0033972101234</text>
        <text x="16" y="42" class="text-muted" font-size="11">Bureau Direction · Actif</text>
      </g>
    </g>

    <g transform="translate(320, 0)">

      <!-- RIGHT PANEL -->
      <rect x="0" y="0" width="1096" height="765" rx="8" class="bg-white"/>
      <rect x="0" y="0" width="1096" height="765" rx="8" class="border"/>

      <g transform="translate(20, 0)">
        <!-- HEADER PAGE -->
        <text x="0" y="28" class="text-dark" font-size="18" font-weight="600">0033972101234 - Bureau Direction</text>

        <!-- NAV3 TABS -->
        <g transform="translate(0, 42)">
          <rect x="0" y="0" width="60" height="26" rx="4" fill="#FFFFFF" stroke="#0050D7"/>
          <text x="30" y="17" class="text-primary" font-size="11" text-anchor="middle">Général</text>

          <rect x="64" y="0" width="75" height="26" rx="4" fill="#FFFFFF" stroke="#0050D7"/>
          <text x="101" y="17" class="text-primary" font-size="11" text-anchor="middle">Téléphone</text>

          <rect x="143" y="0" width="55" height="26" rx="4" fill="#FFFFFF" stroke="#0050D7"/>
          <text x="170" y="17" class="text-primary" font-size="11" text-anchor="middle">Appels</text>

          <rect x="202" y="0" width="60" height="26" rx="4" fill="#0050D7"/>
          <text x="232" y="17" class="text-white" font-size="11" text-anchor="middle">Options</text>
        </g>

        <!-- NAV4 SOUS-TABS -->
        <g transform="translate(0, 78)">
          <text x="0" y="14" class="text-muted" font-size="12">Configuration</text>
          <text x="95" y="14" class="text-primary" font-size="12" font-weight="500">Offre</text>
          <rect x="95" y="18" width="35" height="2" fill="#0050D7"/>
          <text x="145" y="14" class="text-muted" font-size="12">Résiliation</text>
        </g>

        <!-- CONTENU PAGE - Changement d'offre -->
        <g transform="translate(0, 110)">

          <!-- Left Column - Form -->
          <rect x="0" y="0" width="600" height="480" rx="8" fill="#FFFFFF" stroke="#E5E7EB"/>

          <g transform="translate(20, 20)">
            <text x="0" y="0" class="text-dark" font-size="14" font-weight="600">Informations actuelles</text>

            <g transform="translate(0, 25)">
              <text x="0" y="0" class="text-muted" font-size="10">Groupe de facturation</text>
              <text x="0" y="18" class="text-dark" font-size="12">mongroupe-voip</text>

              <text x="0" y="45" class="text-muted" font-size="10">Prochaine facturation</text>
              <text x="0" y="63" class="text-dark" font-size="12">15/01/2025</text>

              <text x="0" y="90" class="text-muted" font-size="10">Offre actuelle</text>
              <text x="0" y="108" class="text-dark" font-size="12" font-weight="500">VoIP Pro - Ligne SIP illimitée France</text>
              <text x="0" y="126" class="text-dark" font-size="12">9,99 € HT/mois</text>
            </g>
          </g>

          <!-- Pending Warning -->
          <g transform="translate(20, 180)">
            <rect x="0" y="0" width="560" height="70" rx="4" class="bg-warning" stroke="#FDE68A"/>
            <text x="15" y="22" class="text-warning" font-size="11">Un changement d'offre est en attente.</text>
            <text x="15" y="40" class="text-warning" font-size="11">Il prendra effet le 15/01/2025.</text>
            <text x="15" y="58" class="text-warning" font-size="11">Nouvelle offre : VoIP Business - Ligne SIP illimitée monde</text>
          </g>

          <!-- Form Section -->
          <g transform="translate(20, 270)">
            <text x="0" y="0" class="text-dark" font-size="14" font-weight="600">Changer d'offre</text>

            <g transform="translate(0, 25)">
              <text x="0" y="0" class="text-muted" font-size="11">Offres disponibles</text>
              <rect x="0" y="15" width="400" height="40" rx="4" fill="#FFFFFF" stroke="#E5E7EB"/>
              <text x="15" y="40" class="text-dark" font-size="12">VoIP Business - Ligne SIP illimitée monde</text>
              <text x="375" y="40" class="text-muted" font-size="12">▼</text>
            </g>

            <g transform="translate(0, 80)">
              <text x="0" y="0" class="text-muted" font-size="11">Prix de l'offre sélectionnée</text>
              <text x="0" y="22" class="text-dark" font-size="16" font-weight="600">19,99 € HT/mois</text>
            </g>

            <g transform="translate(0, 125)">
              <text x="0" y="0" class="text-muted" font-size="11">Date d'application</text>
              <text x="0" y="20" class="text-dark" font-size="12">15/01/2025 (prochaine facturation)</text>
            </g>

            <text x="0" y="165" class="text-primary" font-size="11">Appliquer à plusieurs lignes...</text>
          </g>

          <!-- Actions -->
          <g transform="translate(20, 440)">
            <rect x="0" y="0" width="90" height="32" rx="4" class="btn-primary"/>
            <text x="45" y="21" class="text-white" font-size="11" text-anchor="middle">Valider</text>
            <text x="110" y="21" class="text-primary" font-size="11">Annuler</text>
          </g>

          <!-- Right Column - Info -->
          <g transform="translate(620, 0)">
            <rect x="0" y="0" width="380" height="300" rx="8" fill="#FFFFFF" stroke="#E5E7EB"/>

            <text x="20" y="28" class="text-dark" font-size="13" font-weight="600">À propos du changement d'offre</text>

            <g transform="translate(20, 48)">
              <rect x="0" y="0" width="340" height="100" rx="4" class="bg-info" stroke="#BFDBFE"/>
              <text x="15" y="22" class="text-info" font-size="11">Le changement d'offre prend effet à la</text>
              <text x="15" y="38" class="text-info" font-size="11">prochaine date de facturation.</text>
              <text x="15" y="60" class="text-info" font-size="11">Les nouveaux tarifs s'appliqueront</text>
              <text x="15" y="76" class="text-info" font-size="11">automatiquement à partir de cette date.</text>
            </g>

            <g transform="translate(20, 170)">
              <text x="0" y="0" class="text-dark" font-size="12" font-weight="500">Offres disponibles :</text>
              <text x="0" y="22" class="text-dark" font-size="11">• VoIP Eco - 4,99 € HT/mois</text>
              <text x="0" y="40" class="text-dark" font-size="11">• VoIP Pro - 9,99 € HT/mois</text>
              <text x="0" y="58" class="text-dark" font-size="11">• VoIP Business - 19,99 € HT/mois</text>
              <text x="0" y="76" class="text-dark" font-size="11">• VoIP Enterprise - 39,99 € HT/mois</text>
            </g>
          </g>

          <!-- Cancel pending -->
          <g transform="translate(620, 320)">
            <rect x="0" y="0" width="380" height="90" rx="8" fill="#FFFFFF" stroke="#E5E7EB"/>
            <text x="20" y="28" class="text-dark" font-size="12" font-weight="500">Annuler le changement en attente</text>
            <rect x="20" y="45" width="160" height="32" rx="4" fill="#FEE2E2"/>
            <text x="100" y="66" class="text-error" font-size="11" text-anchor="middle">Annuler le changement</text>
          </g>
        </g>
      </g>
    </g>
  </g>
</svg>
