<svg xmlns="http://www.w3.org/2000/svg" viewBox="0 0 1440 900" width="1440" height="900">
  <defs>
    <style>
      .bg-header { fill: #000E9C; }
      .bg-main { fill: #F6F6F9; }
      .bg-white { fill: #FFFFFF; }
      .bg-primary { fill: #0050D7; }
      .bg-neutral-100 { fill: #F3F4F6; }
      .bg-success { fill: #DEF7EC; }
      .bg-warning { fill: #FEF3C7; }
      .bg-error { fill: #FEE2E2; }
      .border { stroke: #E5E7EB; stroke-width: 1; fill: none; }
      .btn-outline { stroke: #0050D7; stroke-width: 1; fill: #FFFFFF; }
      .btn-danger { stroke: #DC2626; stroke-width: 1; fill: #FFFFFF; }
      .btn-primary { fill: #0050D7; }
      .row-selected { fill: #E8F0FE; }
      .text-white { fill: #FFFFFF; font-family: 'Source Sans Pro', sans-serif; }
      .text-dark { fill: #1F2937; font-family: 'Source Sans Pro', sans-serif; }
      .text-muted { fill: #6B7280; font-family: 'Source Sans Pro', sans-serif; }
      .text-primary { fill: #0050D7; font-family: 'Source Sans Pro', sans-serif; }
      .text-success { fill: #059669; font-family: 'Source Sans Pro', sans-serif; }
      .text-error { fill: #DC2626; font-family: 'Source Sans Pro', sans-serif; }
    </style>
  </defs>

  <rect width="1440" height="900" class="bg-main"/>

  <!-- NAV1 -->
  <rect width="1440" height="50" class="bg-header"/>
  <text x="40" y="32" class="text-white" font-size="14" opacity="0.7">Accueil</text>
  <text x="110" y="32" class="text-white" font-size="14" opacity="0.7">Public Cloud</text>
  <text x="210" y="32" class="text-white" font-size="14" opacity="0.7">Hosted Private Cloud</text>
  <text x="370" y="32" class="text-white" font-size="14" opacity="0.7">Bare Metal Cloud</text>
  <text x="510" y="32" class="text-white" font-size="14" font-weight="600">Web Cloud</text>
  <rect x="505" y="46" width="75" height="3" fill="#FFFFFF"/>
  <text x="620" y="32" class="text-white" font-size="14" opacity="0.7">Network</text>
  <text x="700" y="32" class="text-white" font-size="14" opacity="0.7">IAM / Securite</text>
  <text x="810" y="32" class="text-white" font-size="14" opacity="0.7">Licences</text>
  <rect x="1280" y="12" width="140" height="26" rx="13" fill="rgba(255,255,255,0.2)"/>
  <rect x="1285" y="15" width="26" height="20" rx="10" fill="#DEF7EC"/>
  <text x="1292" y="29" fill="#03543F" font-size="10" font-weight="600">OK</text>
  <text x="1320" y="29" class="text-white" font-size="12">ab12345-ovh</text>

  <!-- NAV2 -->
  <rect x="0" y="50" width="1440" height="40" class="bg-white"/>
  <line x1="0" y1="89" x2="1440" y2="89" stroke="#E5E7EB"/>
  <text x="40" y="75" class="text-muted" font-size="14">Accueil</text>
  <text x="110" y="75" class="text-muted" font-size="14">Domaines &amp; DNS</text>
  <text x="240" y="75" class="text-muted" font-size="14">Hebergement</text>
  <text x="360" y="75" class="text-muted" font-size="14">Emails &amp; Collab</text>
  <text x="480" y="75" class="text-primary" font-size="14" font-weight="600">VoIP</text>
  <rect x="475" y="85" width="40" height="3" fill="#0050D7"/>
  <text x="530" y="75" class="text-muted" font-size="14">Acces</text>
  <text x="1350" y="75" class="text-primary" font-size="13">Guides</text>

  <!-- MAIN -->
  <g transform="translate(0, 90)">
    <g transform="translate(24, 15)">
      
      <!-- LEFT PANEL -->
      <rect x="0" y="0" width="280" height="780" rx="8" class="bg-white"/>
      <rect x="0" y="0" width="280" height="780" rx="8" class="border"/>
      
      <!-- NAV3 - Lignes actif -->
      <rect x="0" y="0" width="280" height="32" rx="8" fill="#F9FAFB"/>
      <rect x="0" y="16" width="280" height="16" fill="#F9FAFB"/>
      <line x1="0" y1="31" x2="280" y2="31" stroke="#E5E7EB"/>
      <rect x="0" y="0" width="70" height="32" rx="8" fill="#0050D7"/>
      <rect x="0" y="16" width="70" height="16" fill="#0050D7"/>
      <text x="35" y="20" class="text-white" font-size="10" text-anchor="middle">Lignes</text>
      <text x="105" y="20" class="text-muted" font-size="10" text-anchor="middle">Numéros</text>
      <text x="175" y="20" class="text-muted" font-size="10" text-anchor="middle">Fax</text>
      <text x="245" y="20" class="text-muted" font-size="10" text-anchor="middle">Abrégés</text>

      <!-- Recherche -->
      <rect x="12" y="44" width="256" height="34" rx="4" fill="#F9FAFB" stroke="#E5E7EB"/>
      <text x="26" y="66" class="text-muted" font-size="12">Rechercher...</text>
      <text x="240" y="96" class="text-muted" font-size="11" text-anchor="end">12 lignes</text>
      
      <!-- Ligne 1 - sélectionnée -->
      <rect x="6" y="108" width="268" height="52" rx="6" class="row-selected"/>
      <circle cx="28" cy="134" r="12" fill="#0050D7"/>
      <text x="28" y="138" class="text-white" font-size="9" text-anchor="middle">L</text>
      <text x="50" y="128" class="text-dark" font-size="12" font-weight="500">0033972123456</text>
      <text x="50" y="144" class="text-muted" font-size="10">Ligne principale</text>
      <rect x="210" y="122" width="46" height="18" rx="9" fill="#DEF7EC"/>
      <text x="233" y="135" fill="#03543F" font-size="9" text-anchor="middle">Actif</text>

      <!-- Ligne 2 -->
      <rect x="6" y="166" width="268" height="52" rx="6" fill="transparent"/>
      <circle cx="28" cy="192" r="12" fill="#6B7280"/>
      <text x="28" y="196" class="text-white" font-size="9" text-anchor="middle">L</text>
      <text x="50" y="186" class="text-dark" font-size="12" font-weight="500">0033972123457</text>
      <text x="50" y="202" class="text-muted" font-size="10">Ligne secondaire</text>
      <rect x="210" y="180" width="46" height="18" rx="9" fill="#DEF7EC"/>
      <text x="233" y="193" fill="#03543F" font-size="9" text-anchor="middle">Actif</text>

      <!-- RIGHT PANEL -->
      <rect x="296" y="0" width="1096" height="780" rx="8" class="bg-white"/>
      <rect x="296" y="0" width="1096" height="780" rx="8" class="border"/>
      
      <g transform="translate(316, 20)">
        <!-- Breadcrumb -->
        <text x="0" y="0" class="text-primary" font-size="11">← Groupe Principal</text>
        
        <!-- Header ligne -->
        <text x="0" y="30" class="text-dark" font-size="18" font-weight="600">0033972123456</text>
        <text x="160" y="30" class="text-muted" font-size="12">Ligne principale</text>
        <rect x="300" y="16" width="46" height="18" rx="9" fill="#DEF7EC"/>
        <text x="323" y="29" fill="#03543F" font-size="10" text-anchor="middle">Actif</text>
        
        <!-- Actions header -->
        <g transform="translate(750, 6)">
          <rect x="0" y="0" width="100" height="32" rx="4" class="btn-outline"/>
          <text x="50" y="21" class="text-primary" font-size="10" text-anchor="middle">✎ Renommer</text>
          <rect x="110" y="0" width="100" height="32" rx="4" class="btn-outline"/>
          <text x="160" y="21" class="text-primary" font-size="10" text-anchor="middle">⇄ Changer offre</text>
        </g>
        
        <!-- NAV4 Tabs ligne -->
        <g transform="translate(0, 50)">
          <rect x="0" y="0" width="70" height="32" rx="4" fill="#0050D7"/>
          <text x="35" y="21" class="text-white" font-size="11" text-anchor="middle">Général</text>
          <text x="110" y="21" class="text-muted" font-size="11">Téléphone</text>
          <text x="190" y="21" class="text-muted" font-size="11">Appels</text>
          <text x="270" y="21" class="text-muted" font-size="11">Transferts</text>
          <text x="360" y="21" class="text-muted" font-size="11">Messagerie</text>
          <text x="460" y="21" class="text-muted" font-size="11">Conso</text>
          <text x="530" y="21" class="text-muted" font-size="11">Options</text>
        </g>

        <!-- Contenu Général -->
        <g transform="translate(0, 100)">
          
          <!-- Bloc Informations ligne -->
          <text x="0" y="0" class="text-dark" font-size="14" font-weight="600">Informations de la ligne</text>
          <line x1="0" y1="10" x2="1040" y2="10" stroke="#E5E7EB"/>
          
          <g transform="translate(0, 25)">
            <text x="0" y="14" class="text-muted" font-size="11">Numéro</text>
            <rect x="150" y="0" width="200" height="28" rx="4" fill="#F3F4F6"/>
            <text x="165" y="18" class="text-dark" font-size="11">+33 9 72 12 34 56</text>
            <text x="330" y="18" class="text-primary" font-size="11">C</text>
            
            <text x="400" y="14" class="text-muted" font-size="11">Description</text>
            <rect x="550" y="0" width="200" height="28" rx="4" fill="#FFFFFF" stroke="#E5E7EB"/>
            <text x="565" y="18" class="text-dark" font-size="11">Ligne principale</text>
            <text x="730" y="18" class="text-primary" font-size="11">✎</text>
            
            <text x="0" y="54" class="text-muted" font-size="11">Type d'offre</text>
            <text x="150" y="54" class="text-dark" font-size="11">VoIP Entreprise</text>
            
            <text x="400" y="54" class="text-muted" font-size="11">Date d'activation</text>
            <text x="550" y="54" class="text-dark" font-size="11">15 mars 2022</text>
            
            <text x="0" y="94" class="text-muted" font-size="11">Renouvellement</text>
            <text x="150" y="94" class="text-dark" font-size="11">15 mars 2026</text>
            
            <text x="400" y="94" class="text-muted" font-size="11">Engagement</text>
            <text x="550" y="94" class="text-dark" font-size="11">Sans engagement</text>
          </g>

          <!-- Bloc Identifiants SIP -->
          <g transform="translate(0, 150)">
            <text x="0" y="0" class="text-dark" font-size="14" font-weight="600">Identifiants SIP</text>
            <line x1="0" y1="10" x2="1040" y2="10" stroke="#E5E7EB"/>
            
            <g transform="translate(0, 25)">
              <text x="0" y="14" class="text-muted" font-size="11">Login SIP</text>
              <rect x="150" y="0" width="250" height="28" rx="4" fill="#F3F4F6"/>
              <text x="165" y="18" class="text-dark" font-size="11">0033972123456</text>
              <text x="380" y="18" class="text-primary" font-size="11">C</text>
              
              <text x="0" y="54" class="text-muted" font-size="11">Mot de passe SIP</text>
              <rect x="150" y="40" width="250" height="28" rx="4" fill="#F3F4F6"/>
              <text x="165" y="58" class="text-dark" font-size="11">••••••••••••</text>
              <text x="380" y="58" class="text-primary" font-size="11">👁</text>
              <rect x="420" y="40" width="140" height="28" rx="4" class="btn-outline"/>
              <text x="490" y="58" class="text-primary" font-size="10" text-anchor="middle">🔑 Régénérer</text>
              
              <text x="0" y="94" class="text-muted" font-size="11">Domaine SIP</text>
              <rect x="150" y="80" width="250" height="28" rx="4" fill="#F3F4F6"/>
              <text x="165" y="98" class="text-dark" font-size="11">sip.ovh.fr</text>
              <text x="380" y="98" class="text-primary" font-size="11">C</text>
            </g>
          </g>

          <!-- Bloc Fonctionnalités -->
          <g transform="translate(0, 290)">
            <text x="0" y="0" class="text-dark" font-size="14" font-weight="600">Fonctionnalités actives</text>
            <line x1="0" y1="10" x2="1040" y2="10" stroke="#E5E7EB"/>
            
            <g transform="translate(0, 25)">
              <!-- Feature 1 -->
              <rect x="0" y="0" width="240" height="50" rx="6" fill="#F9FAFB" stroke="#E5E7EB"/>
              <text x="20" y="20" class="text-dark" font-size="11">Messagerie vocale</text>
              <text x="20" y="38" class="text-success" font-size="10">● Activée</text>
              <text x="200" y="30" class="text-primary" font-size="11">→</text>
              
              <!-- Feature 2 -->
              <rect x="260" y="0" width="240" height="50" rx="6" fill="#F9FAFB" stroke="#E5E7EB"/>
              <text x="280" y="20" class="text-dark" font-size="11">Renvoi d'appel</text>
              <text x="280" y="38" class="text-muted" font-size="10">● Non configuré</text>
              <text x="460" y="30" class="text-primary" font-size="11">→</text>
              
              <!-- Feature 3 -->
              <rect x="520" y="0" width="240" height="50" rx="6" fill="#F9FAFB" stroke="#E5E7EB"/>
              <text x="540" y="20" class="text-dark" font-size="11">Filtrage d'appels</text>
              <text x="540" y="38" class="text-success" font-size="10">● 3 règles actives</text>
              <text x="720" y="30" class="text-primary" font-size="11">→</text>
              
              <!-- Feature 4 -->
              <rect x="780" y="0" width="240" height="50" rx="6" fill="#F9FAFB" stroke="#E5E7EB"/>
              <text x="800" y="20" class="text-dark" font-size="11">Click-to-Call</text>
              <text x="800" y="38" class="text-success" font-size="10">● Activé</text>
              <text x="980" y="30" class="text-primary" font-size="11">→</text>
            </g>
          </g>

          <!-- Zone danger -->
          <g transform="translate(0, 390)">
            <rect x="0" y="0" width="1040" height="60" rx="6" fill="#FEF2F2" stroke="#FEE2E2"/>
            <text x="20" y="25" class="text-error" font-size="11" font-weight="600">Résiliation</text>
            <text x="20" y="42" class="text-dark" font-size="10">Résilier définitivement cette ligne téléphonique.</text>
            <rect x="880" y="14" width="140" height="32" rx="4" class="btn-danger"/>
            <text x="950" y="35" class="text-error" font-size="10" text-anchor="middle">× Résilier la ligne</text>
          </g>

        </g>
      </g>
    </g>
  </g>
</svg>
