<svg xmlns="http://www.w3.org/2000/svg" viewBox="0 0 1440 900" width="1440" height="900">
  <defs>
    <style>
      .bg-header { fill: #000E9C; }
      .bg-main { fill: #F6F6F9; }
      .bg-white { fill: #FFFFFF; }
      .bg-primary { fill: #0050D7; }
      .bg-info { fill: #DBEAFE; }
      .border { stroke: #E5E7EB; stroke-width: 1; fill: none; }
      .btn-outline { stroke: #0050D7; stroke-width: 1; fill: #FFFFFF; }
      .btn-primary { fill: #0050D7; }
      .text-white { fill: #FFFFFF; font-family: 'Source Sans Pro', sans-serif; }
      .text-dark { fill: #1F2937; font-family: 'Source Sans Pro', sans-serif; }
      .text-muted { fill: #6B7280; font-family: 'Source Sans Pro', sans-serif; }
      .text-primary { fill: #0050D7; font-family: 'Source Sans Pro', sans-serif; }
      .text-info { fill: #1E40AF; font-family: 'Source Sans Pro', sans-serif; }
      .select-field { fill: #FFFFFF; stroke: #D1D5DB; stroke-width: 1; }
    </style>
  </defs>

  <rect width="1440" height="900" class="bg-main"/>

  <!-- NAV1 - Header OVH -->
  <rect width="1440" height="50" fill="#000E9C"/>
  <text x="40" y="32" fill="#FFFFFF" font-family="Source Sans Pro" font-size="14" opacity="0.7">Accueil</text>
  <text x="110" y="32" fill="#FFFFFF" font-family="Source Sans Pro" font-size="14" opacity="0.7">Public Cloud</text>
  <text x="210" y="32" fill="#FFFFFF" font-family="Source Sans Pro" font-size="14" opacity="0.7">Hosted Private Cloud</text>
  <text x="370" y="32" fill="#FFFFFF" font-family="Source Sans Pro" font-size="14" opacity="0.7">Bare Metal Cloud</text>
  <text x="510" y="32" fill="#FFFFFF" font-family="Source Sans Pro" font-size="14" font-weight="600">Web Cloud</text>
  <rect x="505" y="46" width="75" height="3" fill="#FFFFFF"/>
  <text x="620" y="32" fill="#FFFFFF" font-family="Source Sans Pro" font-size="14" opacity="0.7">Network</text>
  <text x="700" y="32" fill="#FFFFFF" font-family="Source Sans Pro" font-size="14" opacity="0.7">IAM / Securite</text>
  <text x="810" y="32" fill="#FFFFFF" font-family="Source Sans Pro" font-size="14" opacity="0.7">Licences</text>
  <rect x="1280" y="12" width="140" height="26" rx="13" fill="rgba(255,255,255,0.2)"/>
  <text x="1320" y="29" fill="#FFFFFF" font-size="12">ab12345-ovh</text>

  <!-- NAV2 - Web Cloud -->
  <rect x="0" y="50" width="1440" height="40" fill="#FFFFFF"/>
  <line x1="0" y1="89" x2="1440" y2="89" stroke="#E5E7EB"/>
  <text x="40" y="75" fill="#6B7280" font-family="Source Sans Pro" font-size="14">Accueil</text>
  <text x="110" y="75" fill="#6B7280" font-family="Source Sans Pro" font-size="14">Domaines et DNS</text>
  <text x="240" y="75" fill="#6B7280" font-family="Source Sans Pro" font-size="14">Hébergement</text>
  <text x="345" y="75" fill="#6B7280" font-family="Source Sans Pro" font-size="14">Wordpress</text>
  <text x="430" y="75" fill="#6B7280" font-family="Source Sans Pro" font-size="14">Emails</text>
  <text x="500" y="75" fill="#0050D7" font-family="Source Sans Pro" font-size="14" font-weight="600">VoIP</text>
  <rect x="495" y="85" width="35" height="3" fill="#0050D7"/>
  <text x="550" y="75" fill="#6B7280" font-family="Source Sans Pro" font-size="14">Accès</text>
  <text x="1350" y="75" fill="#0050D7" font-family="Source Sans Pro" font-size="13">Guides</text>

  <!-- CONTENT AREA -->
  <g transform="translate(0, 105)">
    <g transform="translate(24, 0)">

      <!-- LEFT PANEL -->
      <rect x="0" y="0" width="280" height="765" rx="8" class="bg-white"/>
      <rect x="0" y="0" width="280" height="765" rx="8" class="border"/>

      <rect x="12" y="12" width="256" height="34" rx="4" fill="#F9FAFB" stroke="#E5E7EB"/>
      <text x="26" y="34" class="text-muted" font-size="12">🔍 Rechercher...</text>
      <text x="12" y="68" class="text-muted" font-size="11">3 lignes</text>

      <g transform="translate(6, 80)">
        <rect x="0" y="0" width="268" height="60" rx="6" fill="#E8F0FE"/>
        <text x="12" y="22" class="text-dark" font-size="13" font-weight="500">0033972101234</text>
        <text x="12" y="40" class="text-muted" font-size="11">Bureau Direction</text>
        <rect x="200" y="18" width="46" height="18" rx="9" fill="#DEF7EC"/>
        <text x="223" y="31" fill="#03543F" font-size="10" text-anchor="middle">Actif</text>
      </g>
    </g>

    <g transform="translate(320, 0)">

      <!-- RIGHT PANEL -->
      <rect x="0" y="0" width="1096" height="765" rx="8" class="bg-white"/>
      <rect x="0" y="0" width="1096" height="765" rx="8" class="border"/>

      <g transform="translate(20, 0)">
        <!-- Back link -->
        <text x="0" y="20" class="text-primary" font-size="12">← Retour à la gestion de la ligne</text>

        <!-- HEADER PAGE -->
        <text x="0" y="55" class="text-dark" font-size="18" font-weight="600">Domaine SIP</text>

        <!-- CONTENT -->
        <g transform="translate(0, 80)">
          <!-- Section 1: Domaine SIP de la ligne -->
          <rect x="0" y="0" width="700" height="240" rx="8" class="bg-white"/>
          <rect x="0" y="0" width="700" height="240" rx="8" class="border"/>

          <text x="24" y="30" class="text-dark" font-size="15" font-weight="600">Domaine SIP de la ligne</text>

          <!-- Info box -->
          <rect x="24" y="50" width="652" height="36" rx="4" class="bg-info"/>
          <text x="40" y="73" class="text-info" font-size="11">Configurez le domaine SIP utilisé pour l'enregistrement de cette ligne.</text>

          <!-- Current domain -->
          <text x="24" y="115" class="text-muted" font-size="11">Domaine enregistré</text>
          <text x="200" y="115" class="text-dark" font-size="12">sip.ovh.net</text>

          <!-- Select dropdown -->
          <text x="24" y="150" class="text-dark" font-size="11" font-weight="500">Sélectionner un domaine</text>
          <rect x="24" y="160" width="400" height="36" rx="4" class="select-field"/>
          <text x="40" y="183" class="text-dark" font-size="11">sip.ovh.net</text>
          <text x="395" y="183" class="text-muted" font-size="10">▼</text>

          <!-- Bulk action -->
          <text x="24" y="215" class="text-primary" font-size="10">Appliquer à plusieurs lignes...</text>

          <!-- Buttons -->
          <rect x="450" y="160" width="110" height="36" rx="4" class="btn-primary"/>
          <text x="505" y="183" class="text-white" font-size="11" text-anchor="middle">Enregistrer</text>

          <rect x="570" y="160" width="90" height="36" rx="4" class="btn-outline"/>
          <text x="615" y="183" class="text-primary" font-size="11" text-anchor="middle">Annuler</text>

          <!-- Section 2: Domaines par pays -->
          <g transform="translate(0, 260)">
            <rect x="0" y="0" width="700" height="280" rx="8" class="bg-white"/>
            <rect x="0" y="0" width="700" height="280" rx="8" class="border"/>

            <text x="24" y="30" class="text-dark" font-size="15" font-weight="600">Domaines SIP par pays</text>

            <!-- Info box -->
            <rect x="24" y="50" width="652" height="36" rx="4" class="bg-info"/>
            <text x="40" y="73" class="text-info" font-size="11">Ces domaines seront utilisés par défaut pour les nouvelles lignes.</text>

            <!-- Country list -->
            <g transform="translate(24, 100)">
              <text x="0" y="0" class="text-muted" font-size="11">France (FR)</text>
              <text x="200" y="0" class="text-dark" font-size="11">sip.ovh.fr</text>

              <text x="0" y="30" class="text-muted" font-size="11">Belgique (BE)</text>
              <text x="200" y="30" class="text-dark" font-size="11">sip.ovh.be</text>

              <text x="0" y="60" class="text-muted" font-size="11">Suisse (CH)</text>
              <text x="200" y="60" class="text-dark" font-size="11">sip.ovh.ch</text>

              <text x="0" y="90" class="text-muted" font-size="11">Espagne (ES)</text>
              <text x="200" y="90" class="text-dark" font-size="11">sip.ovh.es</text>

              <text x="0" y="120" class="text-muted" font-size="11">Allemagne (DE)</text>
              <text x="200" y="120" class="text-dark" font-size="11">sip.ovh.de</text>
            </g>

            <!-- Button -->
            <rect x="24" y="235" width="100" height="32" rx="4" class="btn-outline"/>
            <text x="74" y="256" class="text-primary" font-size="11" text-anchor="middle">Modifier</text>
          </g>
        </g>
      </g>
    </g>
  </g>
</svg>
