<svg xmlns="http://www.w3.org/2000/svg" viewBox="0 0 1440 900" width="1440" height="900">
  <defs>
    <style>
      .bg-header { fill: #000E9C; }
      .bg-main { fill: #F6F6F9; }
      .bg-white { fill: #FFFFFF; }
      .bg-primary { fill: #0050D7; }
      .bg-neutral-100 { fill: #F3F4F6; }
      .bg-success { fill: #DEF7EC; }
      .bg-info { fill: #DBEAFE; }
      .border { stroke: #E5E7EB; stroke-width: 1; fill: none; }
      .btn-outline { stroke: #0050D7; stroke-width: 1; fill: #FFFFFF; }
      .btn-primary { fill: #0050D7; }
      .row-selected { fill: #E8F0FE; }
      .text-white { fill: #FFFFFF; font-family: 'Source Sans Pro', sans-serif; }
      .text-dark { fill: #1F2937; font-family: 'Source Sans Pro', sans-serif; }
      .text-muted { fill: #6B7280; font-family: 'Source Sans Pro', sans-serif; }
      .text-primary { fill: #0050D7; font-family: 'Source Sans Pro', sans-serif; }
      .text-success { fill: #059669; font-family: 'Source Sans Pro', sans-serif; }
    </style>
  </defs>

  <rect width="1440" height="900" class="bg-main"/>

  <!-- NAV1 -->
  <rect width="1440" height="50" class="bg-header"/>
  <text x="510" y="32" class="text-white" font-size="14" font-weight="600">Web Cloud</text>
  <rect x="505" y="46" width="75" height="3" fill="#FFFFFF"/>

  <!-- NAV2 -->
  <rect x="0" y="50" width="1440" height="40" fill="#FFFFFF"/>
  <line x1="0" y1="89" x2="1440" y2="89" stroke="#E5E7EB"/>
  <text x="500" y="75" class="text-primary" font-size="14" font-weight="600">VoIP</text>
  <rect x="495" y="85" width="35" height="3" fill="#0050D7"/>

  <!-- SOUS-NAV -->
  <g transform="translate(24, 105)">
    <rect x="0" y="0" width="120" height="36" rx="6" fill="#0050D7"/>
    <text x="60" y="23" class="text-white" font-size="13" text-anchor="middle" font-weight="500">☎️ Lignes  3</text>
  </g>

  <!-- CONTENT -->
  <g transform="translate(0, 155)">
    <g transform="translate(24, 0)">
      <!-- LEFT PANEL -->
      <rect x="0" y="0" width="280" height="715" rx="8" class="bg-white"/>
      <rect x="0" y="0" width="280" height="715" rx="8" class="border"/>
      <rect x="12" y="12" width="256" height="34" rx="4" fill="#F9FAFB" stroke="#E5E7EB"/>
      <text x="26" y="34" class="text-muted" font-size="12">🔍 Rechercher...</text>
      
      <g transform="translate(6, 80)">
        <rect x="0" y="0" width="268" height="72" rx="6" class="row-selected"/>
        <circle cx="28" cy="36" r="18" fill="#0050D7"/>
        <text x="28" y="41" class="text-white" font-size="14">☎️</text>
        <text x="56" y="22" class="text-dark" font-size="13" font-weight="500">0033972123456</text>
        <text x="56" y="40" class="text-muted" font-size="11">Bureau Direction</text>
      </g>
    </g>

    <!-- RIGHT PANEL -->
    <g transform="translate(320, 0)">
      <rect x="0" y="0" width="1096" height="715" rx="8" class="bg-white"/>
      <rect x="0" y="0" width="1096" height="715" rx="8" class="border"/>

      <g transform="translate(20, 0)">
        <text x="0" y="28" class="text-dark" font-size="18" font-weight="600">0033972123456</text>
        <text x="0" y="48" class="text-muted" font-size="12">Bureau Direction</text>

        <!-- NAV3 -->
        <g transform="translate(0, 60)">
          <rect x="0" y="0" width="60" height="26" rx="4" class="btn-outline"/>
          <text x="30" y="17" class="text-primary" font-size="11" text-anchor="middle">Général</text>
          <rect x="64" y="0" width="75" height="26" rx="4" class="btn-outline"/>
          <text x="101" y="17" class="text-primary" font-size="11" text-anchor="middle">Téléphone</text>
          <rect x="143" y="0" width="55" height="26" rx="4" class="btn-outline"/>
          <text x="170" y="17" class="text-primary" font-size="11" text-anchor="middle">Appels</text>
          <rect x="202" y="0" width="75" height="26" rx="4" class="btn-outline"/>
          <text x="239" y="17" class="text-primary" font-size="11" text-anchor="middle">Transferts</text>
          <rect x="281" y="0" width="80" height="26" rx="4" fill="#0050D7"/>
          <text x="321" y="17" class="text-white" font-size="11" text-anchor="middle">Messagerie</text>
          <rect x="365" y="0" width="95" height="26" rx="4" class="btn-outline"/>
          <text x="412" y="17" class="text-primary" font-size="11" text-anchor="middle">Consommation</text>
          <rect x="464" y="0" width="60" height="26" rx="4" class="btn-outline"/>
          <text x="494" y="17" class="text-primary" font-size="11" text-anchor="middle">Options</text>
        </g>

        <!-- NAV4 -->
        <g transform="translate(0, 95)">
          <text x="0" y="14" class="text-primary" font-size="12" font-weight="500">Options</text>
          <rect x="0" y="18" width="50" height="2" fill="#0050D7"/>
          <text x="70" y="14" class="text-muted" font-size="12">Messages</text>
          <text x="150" y="14" class="text-muted" font-size="12">Annonce</text>
        </g>

        <!-- OPTIONS MESSAGERIE -->
        <g transform="translate(0, 140)">
          <rect x="0" y="0" width="1056" height="260" rx="8" fill="#FFFFFF" stroke="#E5E7EB"/>
          <text x="20" y="28" class="text-dark" font-size="15" font-weight="700">OPTIONS MESSAGERIE VOCALE</text>
          
          <!-- Activation -->
          <g transform="translate(20, 55)">
            <text x="0" y="14" class="text-muted" font-size="11">Messagerie vocale</text>
            <rect x="180" y="0" width="44" height="22" rx="11" fill="#0050D7"/>
            <circle cx="213" cy="11" r="8" fill="#FFFFFF"/>
            <text x="235" y="14" class="text-success" font-size="11">Activée</text>
          </g>
          
          <!-- Notification email -->
          <g transform="translate(20, 95)">
            <text x="0" y="14" class="text-muted" font-size="11">Notification email</text>
            <rect x="180" y="0" width="44" height="22" rx="11" fill="#0050D7"/>
            <circle cx="213" cy="11" r="8" fill="#FFFFFF"/>
            <text x="235" y="14" class="text-success" font-size="11">Activée</text>
          </g>
          
          <!-- Email -->
          <g transform="translate(20, 135)">
            <text x="0" y="14" class="text-muted" font-size="11">Email</text>
            <rect x="180" y="-5" width="300" height="28" rx="4" fill="#F9FAFB" stroke="#E5E7EB"/>
            <text x="190" y="12" class="text-dark" font-size="11">contact@example.com</text>
          </g>
          
          <!-- Joindre audio -->
          <g transform="translate(20, 175)">
            <text x="0" y="14" class="text-muted" font-size="11">Joindre audio</text>
            <rect x="180" y="0" width="44" height="22" rx="11" fill="#F3F4F6"/>
            <circle cx="191" cy="11" r="8" fill="#FFFFFF"/>
            <text x="235" y="14" class="text-muted" font-size="11">Désactivé</text>
          </g>
          
          <!-- Rétention -->
          <g transform="translate(20, 215)">
            <text x="0" y="14" class="text-muted" font-size="11">Durée rétention</text>
            <text x="180" y="14" class="text-dark" font-size="11">30 jours</text>
          </g>
          
          <!-- Actions -->
          <g transform="translate(600, 55)">
            <rect x="0" y="0" width="160" height="32" rx="4" class="btn-outline"/>
            <text x="80" y="21" class="text-primary" font-size="11" text-anchor="middle">🔑 Changer PIN</text>
          </g>
          
          <g transform="translate(600, 100)">
            <rect x="0" y="0" width="160" height="32" rx="4" class="btn-outline"/>
            <text x="80" y="21" class="text-primary" font-size="11" text-anchor="middle">✎ Modifier</text>
          </g>
        </g>

        <!-- STATISTIQUES -->
        <g transform="translate(0, 420)">
          <text x="0" y="0" class="text-dark" font-size="15" font-weight="700">STATISTIQUES</text>
          
          <g transform="translate(0, 20)">
            <!-- Card Messages non lus -->
            <rect x="0" y="0" width="250" height="80" rx="8" fill="#FFFFFF" stroke="#E5E7EB"/>
            <text x="20" y="25" class="text-muted" font-size="11">MESSAGES NON LUS</text>
            <text x="20" y="55" class="text-dark" font-size="28" font-weight="700">3</text>
            
            <!-- Card Total -->
            <rect x="270" y="0" width="250" height="80" rx="8" fill="#FFFFFF" stroke="#E5E7EB"/>
            <text x="290" y="25" class="text-muted" font-size="11">MESSAGES TOTAL</text>
            <text x="290" y="55" class="text-dark" font-size="28" font-weight="700">12</text>
            
            <!-- Card Espace -->
            <rect x="540" y="0" width="250" height="80" rx="8" fill="#FFFFFF" stroke="#E5E7EB"/>
            <text x="560" y="25" class="text-muted" font-size="11">ESPACE UTILISÉ</text>
            <text x="560" y="55" class="text-dark" font-size="28" font-weight="700">45%</text>
          </g>
        </g>

        <!-- INFO -->
        <g transform="translate(0, 540)">
          <rect x="0" y="0" width="1056" height="45" rx="6" fill="#DBEAFE"/>
          <text x="20" y="28" fill="#1E40AF" font-size="12">ℹ️ Accès à la messagerie : composez *123 depuis cette ligne ou le 0033972123456 depuis l'extérieur.</text>
        </g>
      </g>
    </g>
  </g>
</svg>
