<svg xmlns="http://www.w3.org/2000/svg" viewBox="0 0 1440 900" width="1440" height="900">
  <defs>
    <style>
      .bg-header { fill: #000E9C; }
      .bg-main { fill: #F6F6F9; }
      .bg-white { fill: #FFFFFF; }
      .bg-primary { fill: #0050D7; }
      .bg-success { fill: #DEF7EC; }
      .bg-info { fill: #DBEAFE; }
      .border { stroke: #E5E7EB; stroke-width: 1; fill: none; }
      .btn-outline { stroke: #0050D7; stroke-width: 1; fill: #FFFFFF; }
      .btn-primary { fill: #0050D7; }
      .row-selected { fill: #E8F0FE; }
      .text-white { fill: #FFFFFF; font-family: 'Source Sans Pro', sans-serif; }
      .text-dark { fill: #1F2937; font-family: 'Source Sans Pro', sans-serif; }
      .text-muted { fill: #6B7280; font-family: 'Source Sans Pro', sans-serif; }
      .text-primary { fill: #0050D7; font-family: 'Source Sans Pro', sans-serif; }
      .text-success { fill: #059669; font-family: 'Source Sans Pro', sans-serif; }
      .text-info { fill: #1E40AF; font-family: 'Source Sans Pro', sans-serif; }
    </style>
  </defs>

  <rect width="1440" height="900" class="bg-main"/>

  <!-- NAV1 -->
  <rect width="1440" height="50" class="bg-header"/>
  <text x="510" y="32" class="text-white" font-size="14" font-weight="600">Web Cloud</text>
  <rect x="505" y="46" width="75" height="3" fill="#FFFFFF"/>

  <!-- NAV2 -->
  <rect x="0" y="50" width="1440" height="40" class="bg-white"/>
  <line x1="0" y1="89" x2="1440" y2="89" stroke="#E5E7EB"/>
  <text x="500" y="75" class="text-primary" font-size="14" font-weight="600">VoIP</text>
  <rect x="495" y="85" width="35" height="3" fill="#0050D7"/>

  <!-- SOUS-NAV -->
  <g transform="translate(24, 105)">
    <rect x="0" y="0" width="120" height="36" rx="6" class="bg-primary"/>
    <text x="60" y="23" class="text-white" font-size="13" text-anchor="middle" font-weight="500">☎️ Lignes  3</text>
    <rect x="128" y="0" width="130" height="36" rx="6" fill="#F3F4F6" stroke="#E5E7EB"/>
    <text x="193" y="23" class="text-muted" font-size="13" text-anchor="middle">🔢 Numéros  5</text>
  </g>

  <!-- MAIN CONTENT -->
  <g transform="translate(0, 155)">
    <g transform="translate(24, 0)">
      <!-- LEFT PANEL -->
      <rect x="0" y="0" width="280" height="730" rx="8" class="bg-white"/>
      <rect x="0" y="0" width="280" height="730" rx="8" class="border"/>
      <text x="16" y="30" class="text-dark" font-size="15" font-weight="700">Lignes</text>

      <g transform="translate(6, 50)">
        <rect x="0" y="0" width="268" height="72" rx="6" class="row-selected"/>
        <text x="12" y="22" class="text-dark" font-size="13" font-weight="500">0033972101234</text>
        <text x="12" y="40" class="text-muted" font-size="11">Bureau Direction</text>
        <text x="12" y="58" class="text-muted" font-size="10">Yealink T46G · Actif</text>
      </g>

      <!-- RIGHT PANEL -->
      <rect x="296" y="0" width="1096" height="730" rx="8" class="bg-white"/>
      <rect x="296" y="0" width="1096" height="730" rx="8" class="border"/>

      <g transform="translate(316, 0)">
        <text x="0" y="28" class="text-dark" font-size="18" font-weight="600">0033972101234</text>
        <text x="0" y="48" class="text-muted" font-size="12">Bureau Direction · Yealink T46G</text>

        <!-- NAV3 - Transferts actif -->
        <g transform="translate(0, 70)">
          <rect x="0" y="0" width="65" height="26" rx="4" class="btn-outline"/>
          <text x="32" y="17" class="text-primary" font-size="11" text-anchor="middle">Général</text>
          <rect x="73" y="0" width="80" height="26" rx="4" class="btn-outline"/>
          <text x="113" y="17" class="text-primary" font-size="11" text-anchor="middle">Téléphone</text>
          <rect x="161" y="0" width="60" height="26" rx="4" class="btn-outline"/>
          <text x="191" y="17" class="text-primary" font-size="11" text-anchor="middle">Appels</text>
          <rect x="229" y="0" width="80" height="26" rx="4" class="bg-primary"/>
          <text x="269" y="17" class="text-white" font-size="11" text-anchor="middle">Transferts</text>
          <rect x="317" y="0" width="85" height="26" rx="4" class="btn-outline"/>
          <text x="359" y="17" class="text-primary" font-size="11" text-anchor="middle">Messagerie</text>
        </g>

        <!-- NAV4 subtabs -->
        <g transform="translate(0, 110)">
          <text x="0" y="14" class="text-primary" font-size="12" font-weight="500">Inconditionnel</text>
          <rect x="0" y="18" width="90" height="2" fill="#0050D7"/>
          <text x="110" y="14" class="text-muted" font-size="12">Occupation</text>
          <text x="200" y="14" class="text-muted" font-size="12">Non-réponse</text>
        </g>

        <!-- Content -->
        <g transform="translate(0, 145)">
          <!-- Info banner -->
          <rect x="0" y="0" width="1056" height="40" rx="6" class="bg-info"/>
          <text x="20" y="25" class="text-info" font-size="12">ℹ️ Le transfert inconditionnel redirige tous les appels entrants vers le numéro configuré.</text>

          <!-- Forward Config Card -->
          <rect x="0" y="60" width="520" height="280" rx="8" fill="#FFFFFF" stroke="#E5E7EB"/>
          <text x="20" y="90" class="text-dark" font-size="15" font-weight="700">Transfert inconditionnel</text>
          <line x1="20" y1="105" x2="500" y2="105" stroke="#E5E7EB"/>

          <g transform="translate(20, 125)">
            <text x="0" y="15" class="text-muted" font-size="11">Statut</text>
            <g transform="translate(150, 0)">
              <rect x="0" y="0" width="46" height="22" rx="11" fill="#DEF7EC"/>
              <text x="23" y="15" fill="#03543F" font-size="10" text-anchor="middle">Actif</text>
            </g>

            <text x="0" y="50" class="text-muted" font-size="11">Destination</text>
            <text x="150" y="50" class="text-dark" font-size="11">+33612345678</text>

            <text x="0" y="80" class="text-muted" font-size="11">Type destination</text>
            <text x="150" y="80" class="text-dark" font-size="11">Numéro externe</text>
          </g>

          <g transform="translate(20, 245)">
            <rect x="0" y="0" width="100" height="36" rx="4" class="btn-outline"/>
            <text x="50" y="23" class="text-primary" font-size="11" text-anchor="middle">✎ Modifier</text>
            <rect x="110" y="0" width="120" height="36" rx="4" fill="#FEE2E2" stroke="#DC2626"/>
            <text x="170" y="23" fill="#DC2626" font-size="11" text-anchor="middle">× Désactiver</text>
          </g>

          <!-- Test Card -->
          <rect x="540" y="60" width="516" height="280" rx="8" fill="#FFFFFF" stroke="#E5E7EB"/>
          <text x="560" y="90" class="text-dark" font-size="15" font-weight="700">Tester le transfert</text>
          <line x1="560" y1="105" x2="1036" y2="105" stroke="#E5E7EB"/>

          <g transform="translate(560, 125)">
            <text x="0" y="15" class="text-dark" font-size="12" font-weight="500">Numéro de test</text>
            <rect x="0" y="25" width="300" height="40" rx="4" fill="#F9FAFB" stroke="#E5E7EB"/>
            <text x="15" y="51" class="text-muted" font-size="12">+33...</text>

            <text x="0" y="100" class="text-muted" font-size="11">Un appel de test sera lancé vers ce numéro pour vérifier la configuration.</text>
          </g>

          <g transform="translate(560, 245)">
            <rect x="0" y="0" width="160" height="36" rx="4" class="btn-primary"/>
            <text x="80" y="23" class="text-white" font-size="11" text-anchor="middle">☎️ Lancer le test</text>
          </g>

          <!-- History -->
          <rect x="0" y="360" width="1056" height="200" rx="8" fill="#FFFFFF" stroke="#E5E7EB"/>
          <text x="20" y="390" class="text-dark" font-size="15" font-weight="700">Historique des modifications</text>
          <line x1="20" y1="405" x2="1036" y2="405" stroke="#E5E7EB"/>

          <g transform="translate(20, 425)">
            <text x="0" y="15" class="text-muted" font-size="10">29/12/2024 10:30</text>
            <text x="150" y="15" class="text-dark" font-size="11">Transfert activé vers +33612345678</text>
            <text x="500" y="15" class="text-muted" font-size="10">Par: admin@monentreprise.com</text>

            <line x1="0" y1="30" x2="1016" y2="30" stroke="#E5E7EB"/>

            <text x="0" y="55" class="text-muted" font-size="10">28/12/2024 18:00</text>
            <text x="150" y="55" class="text-dark" font-size="11">Transfert désactivé</text>
            <text x="500" y="55" class="text-muted" font-size="10">Par: admin@monentreprise.com</text>

            <line x1="0" y1="70" x2="1016" y2="70" stroke="#E5E7EB"/>

            <text x="0" y="95" class="text-muted" font-size="10">27/12/2024 09:00</text>
            <text x="150" y="95" class="text-dark" font-size="11">Transfert activé vers +33699887766</text>
            <text x="500" y="95" class="text-muted" font-size="10">Par: admin@monentreprise.com</text>
          </g>
        </g>
      </g>
    </g>
  </g>
</svg>
