<svg xmlns="http://www.w3.org/2000/svg" viewBox="0 0 1440 900" width="1440" height="900">
  <defs>
    <style>
      .bg-header { fill: #000E9C; }
      .bg-main { fill: #F6F6F9; }
      .bg-white { fill: #FFFFFF; }
      .bg-primary { fill: #0050D7; }
      .bg-neutral-100 { fill: #F3F4F6; }
      .bg-success { fill: #DEF7EC; }
      .border { stroke: #E5E7EB; stroke-width: 1; fill: none; }
      .btn-outline { stroke: #0050D7; stroke-width: 1; fill: #FFFFFF; }
      .btn-primary { fill: #0050D7; }
      .row-selected { fill: #E8F0FE; }
      .text-white { fill: #FFFFFF; font-family: 'Source Sans Pro', sans-serif; }
      .text-dark { fill: #1F2937; font-family: 'Source Sans Pro', sans-serif; }
      .text-muted { fill: #6B7280; font-family: 'Source Sans Pro', sans-serif; }
      .text-primary { fill: #0050D7; font-family: 'Source Sans Pro', sans-serif; }
      .text-success { fill: #059669; font-family: 'Source Sans Pro', sans-serif; }
    </style>
  </defs>

  <rect width="1440" height="900" class="bg-main"/>

  <!-- NAV1 -->
  <rect width="1440" height="50" class="bg-header"/>
  <text x="510" y="32" class="text-white" font-size="14" font-weight="600">Web Cloud</text>
  <rect x="505" y="46" width="75" height="3" fill="#FFFFFF"/>

  <!-- NAV2 -->
  <rect x="0" y="50" width="1440" height="40" fill="#FFFFFF"/>
  <line x1="0" y1="89" x2="1440" y2="89" stroke="#E5E7EB"/>
  <text x="500" y="75" class="text-primary" font-size="14" font-weight="600">VoIP</text>
  <rect x="495" y="85" width="35" height="3" fill="#0050D7"/>

  <!-- SOUS-NAV -->
  <g transform="translate(24, 105)">
    <rect x="0" y="0" width="120" height="36" rx="6" fill="#0050D7"/>
    <text x="60" y="23" class="text-white" font-size="13" text-anchor="middle" font-weight="500">☎️ Lignes  3</text>
  </g>

  <!-- CONTENT -->
  <g transform="translate(0, 155)">
    <g transform="translate(24, 0)">
      <!-- LEFT PANEL -->
      <rect x="0" y="0" width="280" height="715" rx="8" class="bg-white"/>
      <rect x="0" y="0" width="280" height="715" rx="8" class="border"/>
      <rect x="12" y="12" width="256" height="34" rx="4" fill="#F9FAFB" stroke="#E5E7EB"/>
      <text x="26" y="34" class="text-muted" font-size="12">🔍 Rechercher...</text>
      
      <g transform="translate(6, 80)">
        <rect x="0" y="0" width="268" height="72" rx="6" class="row-selected"/>
        <circle cx="28" cy="36" r="18" fill="#0050D7"/>
        <text x="28" y="41" class="text-white" font-size="14">☎️</text>
        <text x="56" y="22" class="text-dark" font-size="13" font-weight="500">0033972123456</text>
        <text x="56" y="40" class="text-muted" font-size="11">Bureau Direction</text>
      </g>
    </g>

    <!-- RIGHT PANEL -->
    <g transform="translate(320, 0)">
      <rect x="0" y="0" width="1096" height="715" rx="8" class="bg-white"/>
      <rect x="0" y="0" width="1096" height="715" rx="8" class="border"/>

      <g transform="translate(20, 0)">
        <text x="0" y="28" class="text-dark" font-size="18" font-weight="600">0033972123456</text>
        <text x="0" y="48" class="text-muted" font-size="12">Bureau Direction</text>

        <!-- NAV3 -->
        <g transform="translate(0, 60)">
          <rect x="0" y="0" width="60" height="26" rx="4" class="btn-outline"/>
          <text x="30" y="17" class="text-primary" font-size="11" text-anchor="middle">Général</text>
          <rect x="64" y="0" width="75" height="26" rx="4" class="btn-outline"/>
          <text x="101" y="17" class="text-primary" font-size="11" text-anchor="middle">Téléphone</text>
          <rect x="143" y="0" width="55" height="26" rx="4" class="btn-outline"/>
          <text x="170" y="17" class="text-primary" font-size="11" text-anchor="middle">Appels</text>
          <rect x="202" y="0" width="75" height="26" rx="4" class="btn-outline"/>
          <text x="239" y="17" class="text-primary" font-size="11" text-anchor="middle">Transferts</text>
          <rect x="281" y="0" width="80" height="26" rx="4" class="btn-outline"/>
          <text x="321" y="17" class="text-primary" font-size="11" text-anchor="middle">Messagerie</text>
          <rect x="365" y="0" width="95" height="26" rx="4" class="btn-outline"/>
          <text x="412" y="17" class="text-primary" font-size="11" text-anchor="middle">Consommation</text>
          <rect x="464" y="0" width="60" height="26" rx="4" fill="#0050D7"/>
          <text x="494" y="17" class="text-white" font-size="11" text-anchor="middle">Options</text>
        </g>

        <!-- OPTIONS APPEL -->
        <g transform="translate(0, 110)">
          <rect x="0" y="0" width="500" height="280" rx="8" fill="#FFFFFF" stroke="#E5E7EB"/>
          <text x="20" y="28" class="text-dark" font-size="15" font-weight="700">OPTIONS D'APPEL</text>
          
          <!-- Double appel -->
          <g transform="translate(20, 55)">
            <text x="0" y="14" class="text-dark" font-size="11">Double appel (signal d'appel)</text>
            <rect x="320" y="0" width="44" height="22" rx="11" fill="#0050D7"/>
            <circle cx="353" cy="11" r="8" fill="#FFFFFF"/>
          </g>
          
          <!-- Présentation numéro -->
          <g transform="translate(20, 90)">
            <text x="0" y="14" class="text-dark" font-size="11">Présentation du numéro</text>
            <rect x="320" y="0" width="44" height="22" rx="11" fill="#0050D7"/>
            <circle cx="353" cy="11" r="8" fill="#FFFFFF"/>
          </g>
          
          <!-- Interception groupe -->
          <g transform="translate(20, 125)">
            <text x="0" y="14" class="text-dark" font-size="11">Interception d'appel groupe</text>
            <rect x="320" y="0" width="44" height="22" rx="11" fill="#F3F4F6"/>
            <circle cx="331" cy="11" r="8" fill="#FFFFFF"/>
          </g>
          
          <!-- IP restrictions -->
          <g transform="translate(20, 160)">
            <text x="0" y="14" class="text-dark" font-size="11">Restrictions IP SIP</text>
            <rect x="320" y="0" width="44" height="22" rx="11" fill="#F3F4F6"/>
            <circle cx="331" cy="11" r="8" fill="#FFFFFF"/>
          </g>
          
          <!-- Anti-hacking -->
          <g transform="translate(20, 195)">
            <text x="0" y="14" class="text-dark" font-size="11">Protection anti-hacking</text>
            <rect x="320" y="0" width="44" height="22" rx="11" fill="#0050D7"/>
            <circle cx="353" cy="11" r="8" fill="#FFFFFF"/>
          </g>
          
          <!-- Enregistrement -->
          <g transform="translate(20, 230)">
            <text x="0" y="14" class="text-dark" font-size="11">Enregistrement des appels</text>
            <rect x="320" y="0" width="44" height="22" rx="11" fill="#F3F4F6"/>
            <circle cx="331" cy="11" r="8" fill="#FFFFFF"/>
          </g>
        </g>

        <!-- NUMÉRO AFFICHÉ -->
        <g transform="translate(520, 110)">
          <rect x="0" y="0" width="536" height="130" rx="8" fill="#FFFFFF" stroke="#E5E7EB"/>
          <text x="20" y="28" class="text-dark" font-size="15" font-weight="700">NUMÉRO AFFICHÉ</text>
          
          <g transform="translate(20, 55)">
            <text x="0" y="14" class="text-muted" font-size="11">Numéro présenté aux appelés</text>
            <rect x="0" y="25" width="300" height="32" rx="4" fill="#F9FAFB" stroke="#E5E7EB"/>
            <text x="10" y="46" class="text-dark" font-size="11">0033972123456</text>
            <text x="280" y="46" class="text-muted" font-size="10">▼</text>
          </g>
          
          <rect x="380" y="50" width="120" height="32" rx="4" class="btn-outline"/>
          <text x="440" y="71" class="text-primary" font-size="11" text-anchor="middle">Modifier</text>
        </g>

        <!-- LANGUE -->
        <g transform="translate(520, 260)">
          <rect x="0" y="0" width="536" height="130" rx="8" fill="#FFFFFF" stroke="#E5E7EB"/>
          <text x="20" y="28" class="text-dark" font-size="15" font-weight="700">LANGUE DES ANNONCES</text>
          
          <g transform="translate(20, 55)">
            <text x="0" y="14" class="text-muted" font-size="11">Langue utilisée pour les annonces vocales</text>
            <rect x="0" y="25" width="200" height="32" rx="4" fill="#F9FAFB" stroke="#E5E7EB"/>
            <text x="10" y="46" class="text-dark" font-size="11">🇫🇷 Français</text>
            <text x="180" y="46" class="text-muted" font-size="10">▼</text>
          </g>
          
          <rect x="380" y="50" width="120" height="32" rx="4" class="btn-outline"/>
          <text x="440" y="71" class="text-primary" font-size="11" text-anchor="middle">Modifier</text>
        </g>

        <!-- RESTRICTIONS -->
        <g transform="translate(0, 410)">
          <rect x="0" y="0" width="500" height="200" rx="8" fill="#FFFFFF" stroke="#E5E7EB"/>
          <text x="20" y="28" class="text-dark" font-size="15" font-weight="700">RESTRICTIONS D'APPELS</text>
          
          <g transform="translate(20, 55)">
            <text x="0" y="14" class="text-dark" font-size="11">Appels internationaux</text>
            <rect x="320" y="0" width="44" height="22" rx="11" fill="#0050D7"/>
            <circle cx="353" cy="11" r="8" fill="#FFFFFF"/>
          </g>
          
          <g transform="translate(20, 90)">
            <text x="0" y="14" class="text-dark" font-size="11">Appels vers mobiles</text>
            <rect x="320" y="0" width="44" height="22" rx="11" fill="#0050D7"/>
            <circle cx="353" cy="11" r="8" fill="#FFFFFF"/>
          </g>
          
          <g transform="translate(20, 125)">
            <text x="0" y="14" class="text-dark" font-size="11">Numéros spéciaux (08xx)</text>
            <rect x="320" y="0" width="44" height="22" rx="11" fill="#F3F4F6"/>
            <circle cx="331" cy="11" r="8" fill="#FFFFFF"/>
          </g>
          
          <g transform="translate(20, 160)">
            <text x="0" y="14" class="text-dark" font-size="11">Numéros surtaxés</text>
            <rect x="320" y="0" width="44" height="22" rx="11" fill="#F3F4F6"/>
            <circle cx="331" cy="11" r="8" fill="#FFFFFF"/>
          </g>
        </g>
      </g>
    </g>
  </g>
</svg>
