<svg xmlns="http://www.w3.org/2000/svg" viewBox="0 0 1440 900" width="1440" height="900">
  <defs>
    <style>
      .bg-header { fill: #000E9C; }
      .bg-main { fill: #F6F6F9; }
      .bg-white { fill: #FFFFFF; }
      .bg-primary { fill: #0050D7; }
      .bg-success { fill: #DEF7EC; }
      .border { stroke: #E5E7EB; stroke-width: 1; fill: none; }
      .btn-outline { stroke: #0050D7; stroke-width: 1; fill: #FFFFFF; }
      .btn-primary { fill: #0050D7; }
      .btn-danger { fill: #DC2626; }
      .row-selected { fill: #E8F0FE; }
      .text-white { fill: #FFFFFF; font-family: 'Source Sans Pro', sans-serif; }
      .text-dark { fill: #1F2937; font-family: 'Source Sans Pro', sans-serif; }
      .text-muted { fill: #6B7280; font-family: 'Source Sans Pro', sans-serif; }
      .text-primary { fill: #0050D7; font-family: 'Source Sans Pro', sans-serif; }
      .text-success { fill: #059669; font-family: 'Source Sans Pro', sans-serif; }
      .text-error { fill: #DC2626; font-family: 'Source Sans Pro', sans-serif; }
    </style>
  </defs>

  <rect width="1440" height="900" class="bg-main"/>

  <!-- NAV1 -->
  <rect width="1440" height="50" class="bg-header"/>
  <text x="40" y="32" class="text-white" font-size="14" opacity="0.7">Accueil</text>
  <text x="510" y="32" class="text-white" font-size="14" font-weight="600">Web Cloud</text>
  <rect x="505" y="46" width="75" height="3" fill="#FFFFFF"/>

  <!-- NAV2 -->
  <rect x="0" y="50" width="1440" height="40" class="bg-white"/>
  <line x1="0" y1="89" x2="1440" y2="89" stroke="#E5E7EB"/>
  <text x="430" y="75" class="text-muted" font-size="14">Emails</text>
  <text x="500" y="75" class="text-primary" font-size="14" font-weight="600">VoIP</text>
  <rect x="495" y="85" width="35" height="3" fill="#0050D7"/>
  <text x="550" y="75" class="text-muted" font-size="14">Accès</text>

  <!-- SOUS-NAV (dans un groupe) -->
  <g transform="translate(24, 105)">
    <rect x="0" y="0" width="120" height="36" rx="6" class="bg-primary"/>
    <text x="60" y="23" class="text-white" font-size="13" text-anchor="middle" font-weight="500">☎️ Lignes  3</text>
    <rect x="128" y="0" width="130" height="36" rx="6" fill="#F3F4F6" stroke="#E5E7EB"/>
    <text x="193" y="23" class="text-muted" font-size="13" text-anchor="middle">🔢 Numéros  5</text>
    <rect x="266" y="0" width="100" height="36" rx="6" fill="#F3F4F6" stroke="#E5E7EB"/>
    <text x="316" y="23" class="text-muted" font-size="13" text-anchor="middle">📠 Fax  1</text>
    <rect x="374" y="0" width="100" height="36" rx="6" fill="#F3F4F6" stroke="#E5E7EB"/>
    <text x="424" y="23" class="text-muted" font-size="13" text-anchor="middle">#️⃣ Abrégés</text>
  </g>

  <!-- MAIN CONTENT (after SOUS-NAV) -->
  <g transform="translate(0, 155)">
    <g transform="translate(24, 0)">
      <!-- LEFT PANEL - Lignes -->
      <rect x="0" y="0" width="280" height="730" rx="8" class="bg-white"/>
      <rect x="0" y="0" width="280" height="730" rx="8" class="border"/>
      <text x="16" y="30" class="text-dark" font-size="15" font-weight="700">Lignes</text>

      <g transform="translate(6, 50)">
        <!-- Ligne sélectionnée -->
        <rect x="0" y="0" width="268" height="72" rx="6" class="row-selected"/>
        <text x="12" y="22" class="text-dark" font-size="13" font-weight="500">0033972101234</text>
        <text x="12" y="40" class="text-muted" font-size="11">Bureau Direction</text>
        <text x="12" y="58" class="text-muted" font-size="10">Yealink T46G · Actif</text>
        <circle cx="250" cy="36" r="5" fill="#10B981"/>

        <!-- Autre ligne -->
        <rect x="0" y="82" width="268" height="72" rx="6" fill="#FFFFFF" stroke="#E5E7EB"/>
        <text x="12" y="104" class="text-dark" font-size="13" font-weight="500">0033972101235</text>
        <text x="12" y="122" class="text-muted" font-size="11">Accueil</text>
        <text x="12" y="140" class="text-muted" font-size="10">Softphone · Actif</text>
        <circle cx="250" cy="118" r="5" fill="#10B981"/>

        <!-- Autre ligne -->
        <rect x="0" y="164" width="268" height="72" rx="6" fill="#FFFFFF" stroke="#E5E7EB"/>
        <text x="12" y="186" class="text-dark" font-size="13" font-weight="500">0033972101236</text>
        <text x="12" y="204" class="text-muted" font-size="11">Commercial</text>
        <text x="12" y="222" class="text-muted" font-size="10">Yealink T42G · Actif</text>
        <circle cx="250" cy="200" r="5" fill="#10B981"/>
      </g>

      <!-- RIGHT PANEL -->
      <rect x="296" y="0" width="1096" height="730" rx="8" class="bg-white"/>
      <rect x="296" y="0" width="1096" height="730" rx="8" class="border"/>

      <g transform="translate(316, 0)">
        <!-- Header -->
        <text x="0" y="28" class="text-dark" font-size="18" font-weight="600">0033972101234</text>
        <text x="0" y="48" class="text-muted" font-size="12">Bureau Direction · Yealink T46G</text>
        <rect x="180" y="12" width="46" height="22" rx="11" fill="#DEF7EC"/>
        <text x="203" y="27" fill="#03543F" font-size="10" text-anchor="middle">Actif</text>

        <!-- Quick actions -->
        <g transform="translate(830, 15)">
          <rect x="0" y="0" width="100" height="32" rx="4" class="btn-outline"/>
          <text x="50" y="21" class="text-primary" font-size="11" text-anchor="middle">🔑 MDP SIP</text>
          <rect x="110" y="0" width="110" height="32" rx="4" class="btn-danger"/>
          <text x="165" y="21" class="text-white" font-size="11" text-anchor="middle">× Résilier</text>
        </g>

        <!-- NAV3 Tabs -->
        <g transform="translate(0, 70)">
          <rect x="0" y="0" width="65" height="26" rx="4" class="bg-primary"/>
          <text x="32" y="17" class="text-white" font-size="11" text-anchor="middle">Général</text>
          <rect x="73" y="0" width="80" height="26" rx="4" class="btn-outline"/>
          <text x="113" y="17" class="text-primary" font-size="11" text-anchor="middle">Téléphone</text>
          <rect x="161" y="0" width="60" height="26" rx="4" class="btn-outline"/>
          <text x="191" y="17" class="text-primary" font-size="11" text-anchor="middle">Appels</text>
          <rect x="229" y="0" width="80" height="26" rx="4" class="btn-outline"/>
          <text x="269" y="17" class="text-primary" font-size="11" text-anchor="middle">Transferts</text>
          <rect x="317" y="0" width="85" height="26" rx="4" class="btn-outline"/>
          <text x="359" y="17" class="text-primary" font-size="11" text-anchor="middle">Messagerie</text>
          <rect x="410" y="0" width="100" height="26" rx="4" class="btn-outline"/>
          <text x="460" y="17" class="text-primary" font-size="11" text-anchor="middle">Consommation</text>
          <rect x="518" y="0" width="65" height="26" rx="4" class="btn-outline"/>
          <text x="550" y="17" class="text-primary" font-size="11" text-anchor="middle">Options</text>
        </g>

        <!-- Content -->
        <g transform="translate(0, 115)">
          <!-- Bloc LIGNE SIP -->
          <rect x="0" y="0" width="520" height="220" rx="8" fill="#FFFFFF" stroke="#E5E7EB"/>
          <text x="20" y="30" class="text-dark" font-size="15" font-weight="700">Ligne SIP</text>
          <line x1="20" y1="45" x2="500" y2="45" stroke="#E5E7EB"/>

          <g transform="translate(20, 60)">
            <text x="0" y="15" class="text-muted" font-size="11">Numéro</text>
            <text x="150" y="15" class="text-dark" font-size="11">0033972101234</text>
            <text x="280" y="15" class="text-primary" font-size="10">📋 Copier</text>

            <text x="0" y="40" class="text-muted" font-size="11">Description</text>
            <text x="150" y="40" class="text-dark" font-size="11">Bureau Direction</text>
            <text x="280" y="40" class="text-primary" font-size="10">✎ Modifier</text>

            <text x="0" y="65" class="text-muted" font-size="11">Offre</text>
            <text x="150" y="65" class="text-dark" font-size="11">VoIP PRO</text>

            <text x="0" y="90" class="text-muted" font-size="11">Identifiant SIP</text>
            <text x="150" y="90" class="text-dark" font-size="11">0033972101234@sip.ovh.fr</text>

            <text x="0" y="115" class="text-muted" font-size="11">Mot de passe SIP</text>
            <text x="150" y="115" class="text-dark" font-size="11">••••••••</text>
            <text x="240" y="115" class="text-primary" font-size="10">👁 Voir</text>
            <text x="280" y="115" class="text-primary" font-size="10">🔑 Changer</text>
          </g>

          <!-- Bloc TÉLÉPHONE -->
          <rect x="540" y="0" width="516" height="220" rx="8" fill="#FFFFFF" stroke="#E5E7EB"/>
          <text x="560" y="30" class="text-dark" font-size="15" font-weight="700">Téléphone associé</text>
          <line x1="560" y1="45" x2="1036" y2="45" stroke="#E5E7EB"/>

          <g transform="translate(560, 60)">
            <text x="0" y="15" class="text-muted" font-size="11">Modèle</text>
            <text x="150" y="15" class="text-dark" font-size="11">Yealink T46G</text>

            <text x="0" y="40" class="text-muted" font-size="11">Adresse MAC</text>
            <text x="150" y="40" class="text-dark" font-size="11">AA:BB:CC:DD:EE:FF</text>

            <text x="0" y="65" class="text-muted" font-size="11">Adresse IP</text>
            <text x="150" y="65" class="text-dark" font-size="11">192.168.1.50</text>

            <text x="0" y="90" class="text-muted" font-size="11">Firmware</text>
            <text x="150" y="90" class="text-dark" font-size="11">83.86.0.15</text>
          </g>

          <g transform="translate(560, 175)">
            <rect x="0" y="0" width="100" height="32" rx="4" class="btn-outline"/>
            <text x="50" y="21" class="text-primary" font-size="11" text-anchor="middle">↻ Reboot</text>
            <rect x="110" y="0" width="120" height="32" rx="4" class="btn-outline"/>
            <text x="170" y="21" class="text-primary" font-size="11" text-anchor="middle">⚙ Configurer</text>
          </g>

          <!-- Bloc ABONNEMENT -->
          <rect x="0" y="240" width="520" height="180" rx="8" fill="#FFFFFF" stroke="#E5E7EB"/>
          <text x="20" y="270" class="text-dark" font-size="15" font-weight="700">Abonnement</text>
          <line x1="20" y1="285" x2="500" y2="285" stroke="#E5E7EB"/>

          <g transform="translate(20, 300)">
            <text x="0" y="15" class="text-muted" font-size="11">Date de création</text>
            <text x="150" y="15" class="text-dark" font-size="11">15/01/2020</text>

            <text x="0" y="40" class="text-muted" font-size="11">Date d'expiration</text>
            <text x="150" y="40" class="text-dark" font-size="11">15/01/2025</text>

            <text x="0" y="65" class="text-muted" font-size="11">Renouvellement</text>
            <text x="150" y="65" class="text-dark" font-size="11">Automatique</text>
          </g>

          <g transform="translate(20, 385)">
            <rect x="0" y="0" width="120" height="32" rx="4" class="btn-outline"/>
            <text x="60" y="21" class="text-primary" font-size="11" text-anchor="middle">↻ Renouveler</text>
            <rect x="130" y="0" width="140" height="32" rx="4" class="btn-outline"/>
            <text x="200" y="21" class="text-primary" font-size="11" text-anchor="middle">⇄ Changer offre</text>
          </g>

          <!-- Bloc OPTIONS ACTIVES -->
          <rect x="540" y="240" width="516" height="180" rx="8" fill="#FFFFFF" stroke="#E5E7EB"/>
          <text x="560" y="270" class="text-dark" font-size="15" font-weight="700">Options actives</text>
          <line x1="560" y1="285" x2="1036" y2="285" stroke="#E5E7EB"/>

          <g transform="translate(560, 305)">
            <circle cx="8" cy="8" r="5" fill="#10B981"/>
            <text x="22" y="12" class="text-dark" font-size="11">Présentation du numéro</text>

            <circle cx="8" cy="33" r="5" fill="#10B981"/>
            <text x="22" y="37" class="text-dark" font-size="11">Double appel</text>

            <circle cx="8" cy="58" r="5" fill="#10B981"/>
            <text x="22" y="62" class="text-dark" font-size="11">Messagerie vocale</text>

            <circle cx="250" cy="8" r="5" fill="#6B7280"/>
            <text x="264" y="12" class="text-muted" font-size="11">Appel en attente</text>

            <circle cx="250" cy="33" r="5" fill="#6B7280"/>
            <text x="264" y="37" class="text-muted" font-size="11">Transfert d'appel</text>
          </g>
        </g>
      </g>
    </g>
  </g>
</svg>
