<svg xmlns="http://www.w3.org/2000/svg" viewBox="0 0 1440 900" width="1440" height="900">
  <defs>
    <style>
      .bg-header { fill: #000E9C; }
      .bg-main { fill: #F6F6F9; }
      .bg-white { fill: #FFFFFF; }
      .bg-primary { fill: #0050D7; }
      .bg-success { fill: #DEF7EC; }
      .bg-info { fill: #DBEAFE; }
      .border { stroke: #E5E7EB; stroke-width: 1; fill: none; }
      .text-white { fill: #FFFFFF; font-family: 'Source Sans Pro', sans-serif; }
      .text-dark { fill: #1F2937; font-family: 'Source Sans Pro', sans-serif; }
      .text-muted { fill: #6B7280; font-family: 'Source Sans Pro', sans-serif; }
      .text-primary { fill: #0050D7; font-family: 'Source Sans Pro', sans-serif; }
      .text-success { fill: #059669; font-family: 'Source Sans Pro', sans-serif; }
      .row-selected { fill: #E8F0FE; }
      .btn-outline { stroke: #0050D7; stroke-width: 1; fill: #FFFFFF; }
      .btn-primary { fill: #0050D7; }
      .card-selected { stroke: #0050D7; stroke-width: 2; }
    </style>
  </defs>

  <rect width="1440" height="900" class="bg-main"/>

  <!-- NAV1 -->
  <rect width="1440" height="50" class="bg-header"/>
  <text x="40" y="32" class="text-white" font-size="14" opacity="0.7">Accueil</text>
  <text x="510" y="32" class="text-white" font-size="14" font-weight="600">Web Cloud</text>
  <rect x="505" y="46" width="75" height="3" fill="#FFFFFF"/>

  <!-- NAV2 -->
  <rect x="0" y="50" width="1440" height="40" class="bg-white"/>
  <line x1="0" y1="89" x2="1440" y2="89" stroke="#E5E7EB"/>
  <text x="380" y="75" class="text-primary" font-size="14" font-weight="600">VoIP</text>
  <rect x="375" y="85" width="40" height="3" fill="#0050D7"/>

  <!-- MAIN -->
  <g transform="translate(0, 90)">
    <g transform="translate(24, 15)">

      <!-- LEFT PANEL -->
      <rect x="0" y="0" width="280" height="780" rx="8" class="bg-white"/>
      <rect x="0" y="0" width="280" height="780" rx="8" class="border"/>
      <rect x="12" y="12" width="256" height="34" rx="4" fill="#F9FAFB" stroke="#E5E7EB"/>
      <text x="26" y="34" class="text-muted" font-size="12">Rechercher une ligne...</text>

      <rect x="6" y="58" width="268" height="52" rx="6" class="row-selected"/>
      <circle cx="28" cy="84" r="12" fill="#0050D7"/>
      <text x="28" y="88" class="text-white" font-size="9" text-anchor="middle">L</text>
      <text x="50" y="78" class="text-dark" font-size="12" font-weight="500">0033912345678</text>
      <text x="50" y="94" class="text-muted" font-size="10">Ligne Pro - Cisco 8845</text>

      <!-- RIGHT PANEL -->
      <rect x="296" y="0" width="1096" height="780" rx="8" class="bg-white"/>
      <rect x="296" y="0" width="1096" height="780" rx="8" class="border"/>

      <g transform="translate(316, 20)">
        <text x="0" y="20" class="text-dark" font-size="18" font-weight="600">Commander des accessoires</text>
        <text x="0" y="42" class="text-muted" font-size="12">Casques, alimentations et accessoires pour votre téléphone</text>

        <!-- Wizard Steps -->
        <g transform="translate(0, 60)">
          <circle cx="20" cy="15" r="15" fill="#0050D7"/>
          <text x="20" y="20" class="text-white" font-size="11" text-anchor="middle">1</text>
          <text x="45" y="20" class="text-primary" font-size="11" font-weight="500">Sélection</text>
          <line x1="100" y1="15" x2="180" y2="15" stroke="#E5E7EB" stroke-width="2"/>

          <circle cx="200" cy="15" r="15" fill="#E5E7EB"/>
          <text x="200" y="20" class="text-muted" font-size="11" text-anchor="middle">2</text>
          <text x="225" y="20" class="text-muted" font-size="11">Livraison</text>
          <line x1="290" y1="15" x2="370" y2="15" stroke="#E5E7EB" stroke-width="2"/>

          <circle cx="390" cy="15" r="15" fill="#E5E7EB"/>
          <text x="390" y="20" class="text-muted" font-size="11" text-anchor="middle">3</text>
          <text x="415" y="20" class="text-muted" font-size="11">Résumé</text>
          <line x1="475" y1="15" x2="555" y2="15" stroke="#E5E7EB" stroke-width="2"/>

          <circle cx="575" cy="15" r="15" fill="#E5E7EB"/>
          <text x="575" y="20" class="text-muted" font-size="11" text-anchor="middle">4</text>
          <text x="600" y="20" class="text-muted" font-size="11">Finalisation</text>
        </g>

        <!-- Filtres -->
        <g transform="translate(0, 110)">
          <text x="0" y="15" class="text-dark" font-size="12" font-weight="500">Filtrer par marque:</text>
          <rect x="130" y="0" width="100" height="28" rx="4" fill="#0050D7"/>
          <text x="180" y="19" class="text-white" font-size="10" text-anchor="middle">Toutes</text>
          <rect x="240" y="0" width="80" height="28" rx="4" class="btn-outline"/>
          <text x="280" y="19" class="text-primary" font-size="10" text-anchor="middle">Jabra</text>
          <rect x="330" y="0" width="100" height="28" rx="4" class="btn-outline"/>
          <text x="380" y="19" class="text-primary" font-size="10" text-anchor="middle">Plantronics</text>
          <rect x="440" y="0" width="80" height="28" rx="4" class="btn-outline"/>
          <text x="480" y="19" class="text-primary" font-size="10" text-anchor="middle">Cisco</text>
        </g>

        <!-- Grille accessoires -->
        <g transform="translate(0, 160)">
          <!-- Card 1 - Sélectionné -->
          <g transform="translate(0, 0)">
            <rect x="0" y="0" width="240" height="200" rx="8" fill="#FFFFFF" class="card-selected"/>
            <rect x="0" y="0" width="240" height="120" rx="8" fill="#F9FAFB"/>
            <rect x="80" y="30" width="80" height="60" rx="4" fill="#E5E7EB"/>
            <text x="120" y="65" class="text-muted" font-size="10" text-anchor="middle">🎧</text>
            <text x="20" y="145" class="text-dark" font-size="12" font-weight="500">Jabra Evolve2 65</text>
            <text x="20" y="165" class="text-muted" font-size="10">Casque sans fil Bluetooth</text>
            <text x="20" y="185" class="text-primary" font-size="14" font-weight="600">249,00 € HT</text>
            <rect x="170" y="165" width="50" height="25" rx="4" fill="#F9FAFB" stroke="#E5E7EB"/>
            <text x="185" y="182" class="text-dark" font-size="11">- 1 +</text>
          </g>

          <!-- Card 2 -->
          <g transform="translate(260, 0)">
            <rect x="0" y="0" width="240" height="200" rx="8" fill="#FFFFFF" stroke="#E5E7EB"/>
            <rect x="0" y="0" width="240" height="120" rx="8" fill="#F9FAFB"/>
            <rect x="80" y="30" width="80" height="60" rx="4" fill="#E5E7EB"/>
            <text x="120" y="65" class="text-muted" font-size="10" text-anchor="middle">🎧</text>
            <text x="20" y="145" class="text-dark" font-size="12" font-weight="500">Plantronics Savi 8220</text>
            <text x="20" y="165" class="text-muted" font-size="10">Casque DECT binaural</text>
            <text x="20" y="185" class="text-primary" font-size="14" font-weight="600">329,00 € HT</text>
            <rect x="170" y="165" width="50" height="25" rx="4" fill="#F9FAFB" stroke="#E5E7EB"/>
            <text x="195" y="182" class="text-muted" font-size="11" text-anchor="middle">0</text>
          </g>

          <!-- Card 3 -->
          <g transform="translate(520, 0)">
            <rect x="0" y="0" width="240" height="200" rx="8" fill="#FFFFFF" stroke="#E5E7EB"/>
            <rect x="0" y="0" width="240" height="120" rx="8" fill="#F9FAFB"/>
            <rect x="80" y="30" width="80" height="60" rx="4" fill="#E5E7EB"/>
            <text x="120" y="65" class="text-muted" font-size="10" text-anchor="middle">🔌</text>
            <text x="20" y="145" class="text-dark" font-size="12" font-weight="500">Alimentation Cisco</text>
            <text x="20" y="165" class="text-muted" font-size="10">Bloc secteur CP-PWR-CUBE</text>
            <text x="20" y="185" class="text-primary" font-size="14" font-weight="600">45,00 € HT</text>
            <rect x="170" y="165" width="50" height="25" rx="4" fill="#F9FAFB" stroke="#E5E7EB"/>
            <text x="195" y="182" class="text-muted" font-size="11" text-anchor="middle">0</text>
          </g>

          <!-- Card 4 -->
          <g transform="translate(780, 0)">
            <rect x="0" y="0" width="240" height="200" rx="8" fill="#FFFFFF" stroke="#E5E7EB"/>
            <rect x="0" y="0" width="240" height="120" rx="8" fill="#F9FAFB"/>
            <rect x="80" y="30" width="80" height="60" rx="4" fill="#E5E7EB"/>
            <text x="120" y="65" class="text-muted" font-size="10" text-anchor="middle">📞</text>
            <text x="20" y="145" class="text-dark" font-size="12" font-weight="500">Module extension</text>
            <text x="20" y="165" class="text-muted" font-size="10">14 touches programmables</text>
            <text x="20" y="185" class="text-primary" font-size="14" font-weight="600">189,00 € HT</text>
            <rect x="170" y="165" width="50" height="25" rx="4" fill="#F9FAFB" stroke="#E5E7EB"/>
            <text x="195" y="182" class="text-muted" font-size="11" text-anchor="middle">0</text>
          </g>

          <!-- Ligne 2 -->
          <g transform="translate(0, 220)">
            <rect x="0" y="0" width="240" height="200" rx="8" fill="#FFFFFF" stroke="#E5E7EB"/>
            <rect x="0" y="0" width="240" height="120" rx="8" fill="#F9FAFB"/>
            <rect x="80" y="30" width="80" height="60" rx="4" fill="#E5E7EB"/>
            <text x="120" y="65" class="text-muted" font-size="10" text-anchor="middle">🎧</text>
            <text x="20" y="145" class="text-dark" font-size="12" font-weight="500">Jabra Engage 75</text>
            <text x="20" y="165" class="text-muted" font-size="10">Casque DECT professionnel</text>
            <text x="20" y="185" class="text-primary" font-size="14" font-weight="600">399,00 € HT</text>
            <rect x="170" y="165" width="50" height="25" rx="4" fill="#F9FAFB" stroke="#E5E7EB"/>
            <text x="195" y="182" class="text-muted" font-size="11" text-anchor="middle">0</text>
          </g>
        </g>

        <!-- Récapitulatif panier -->
        <g transform="translate(0, 600)">
          <rect x="0" y="0" width="1040" height="80" rx="8" fill="#F9FAFB" stroke="#E5E7EB"/>
          <text x="30" y="30" class="text-dark" font-size="14" font-weight="500">Votre sélection</text>
          <text x="30" y="55" class="text-muted" font-size="12">1 article • Jabra Evolve2 65 (x1)</text>
          <text x="750" y="30" class="text-muted" font-size="12">Total HT:</text>
          <text x="750" y="55" class="text-dark" font-size="20" font-weight="600">249,00 €</text>
          <rect x="880" y="20" width="140" height="40" rx="4" class="btn-primary"/>
          <text x="950" y="46" class="text-white" font-size="12" text-anchor="middle">Continuer →</text>
        </g>

      </g>
    </g>
  </g>
</svg>
