<?xml version="1.0" encoding="UTF-8"?>
<svg width="700" height="700" viewBox="0 0 700 700" fill="none" xmlns="http://www.w3.org/2000/svg">
  <title>VoIP - Ajouter une campagne fax</title>

  <!-- Overlay -->
  <rect width="700" height="700" fill="#000000" opacity="0.5"/>

  <!-- Modal -->
  <rect x="50" y="20" width="600" height="660" rx="8" fill="white"/>

  <!-- Header -->
  <rect x="50" y="20" width="600" height="50" rx="8" fill="#F9FAFB"/>
  <text x="75" y="52" fill="#1F2937" font-family="system-ui, sans-serif" font-size="16" font-weight="600">Ajouter une campagne de fax</text>
  <text x="620" y="52" fill="#6B7280" font-family="system-ui, sans-serif" font-size="18">×</text>

  <!-- Form -->
  <!-- Name field -->
  <text x="75" y="100" fill="#6B7280" font-family="system-ui, sans-serif" font-size="13">Nom de la campagne *</text>
  <rect x="75" y="110" width="500" height="40" rx="4" fill="white" stroke="#E5E7EB"/>
  <text x="95" y="135" fill="#9CA3AF" font-family="system-ui, sans-serif" font-size="13">Nom de la campagne</text>

  <!-- Document upload -->
  <text x="75" y="180" fill="#6B7280" font-family="system-ui, sans-serif" font-size="13">Document PDF *</text>
  <rect x="75" y="190" width="200" height="36" rx="4" fill="white" stroke="#E5E7EB"/>
  <text x="95" y="213" fill="#1F2937" font-family="system-ui, sans-serif" font-size="13">📤 Choisir un fichier</text>

  <!-- Quality select -->
  <text x="75" y="260" fill="#6B7280" font-family="system-ui, sans-serif" font-size="13">Qualité du fax *</text>
  <rect x="75" y="270" width="300" height="40" rx="4" fill="white" stroke="#E5E7EB"/>
  <text x="95" y="295" fill="#1F2937" font-family="system-ui, sans-serif" font-size="13">Normal</text>
  <text x="350" y="295" fill="#6B7280" font-family="system-ui, sans-serif" font-size="12">▼</text>

  <!-- Send type -->
  <text x="75" y="340" fill="#6B7280" font-family="system-ui, sans-serif" font-size="13">Type d'envoi *</text>
  <rect x="75" y="350" width="300" height="40" rx="4" fill="white" stroke="#E5E7EB"/>
  <text x="95" y="375" fill="#1F2937" font-family="system-ui, sans-serif" font-size="13">Programmé</text>
  <text x="350" y="375" fill="#6B7280" font-family="system-ui, sans-serif" font-size="12">▼</text>

  <!-- Scheduled date -->
  <text x="75" y="420" fill="#6B7280" font-family="system-ui, sans-serif" font-size="13">Date d'envoi *</text>
  <rect x="75" y="430" width="200" height="40" rx="4" fill="white" stroke="#E5E7EB"/>
  <text x="95" y="455" fill="#1F2937" font-family="system-ui, sans-serif" font-size="13">15/01/2025</text>
  <text x="245" y="455" fill="#6B7280" font-family="system-ui, sans-serif" font-size="14">📅</text>

  <!-- Scheduled time -->
  <text x="295" y="420" fill="#6B7280" font-family="system-ui, sans-serif" font-size="13">Heure *</text>
  <rect x="295" y="430" width="120" height="40" rx="4" fill="white" stroke="#E5E7EB"/>
  <text x="315" y="455" fill="#1F2937" font-family="system-ui, sans-serif" font-size="13">09:00</text>

  <!-- Recipients type -->
  <text x="75" y="500" fill="#6B7280" font-family="system-ui, sans-serif" font-size="13">Destinataires</text>
  <g transform="translate(75, 515)">
    <circle cx="8" cy="8" r="6" fill="#0050D7"/>
    <text x="25" y="13" fill="#1F2937" font-family="system-ui, sans-serif" font-size="13">Saisir une liste de numéros</text>
  </g>
  <g transform="translate(75, 545)">
    <circle cx="8" cy="8" r="6" fill="white" stroke="#E5E7EB" stroke-width="2"/>
    <text x="25" y="13" fill="#1F2937" font-family="system-ui, sans-serif" font-size="13">Importer un fichier</text>
  </g>

  <!-- Recipients textarea -->
  <text x="75" y="595" fill="#6B7280" font-family="system-ui, sans-serif" font-size="13">Liste des destinataires *</text>
  <rect x="75" y="605" width="500" height="60" rx="4" fill="white" stroke="#E5E7EB"/>
  <text x="95" y="630" fill="#9CA3AF" font-family="system-ui, sans-serif" font-size="12">0033123456789, 0033987654321, ...</text>

  <!-- Buttons -->
  <rect x="395" y="680" width="100" height="36" rx="4" fill="white" stroke="#E5E7EB"/>
  <text x="423" y="703" fill="#6B7280" font-family="system-ui, sans-serif" font-size="14">Annuler</text>

  <rect x="505" y="680" width="100" height="36" rx="4" fill="#0050D7"/>
  <text x="533" y="703" fill="white" font-family="system-ui, sans-serif" font-size="14">Valider</text>
</svg>
