<svg xmlns="http://www.w3.org/2000/svg" viewBox="0 0 1440 900" width="1440" height="900">
  <defs>
    <style>
      .bg-header { fill: #000E9C; }
      .bg-muted { fill: #F9FAFB; }
      .bg-white { fill: #FFFFFF; }
      .text-white { font-family: 'Source Sans Pro', sans-serif; fill: #FFFFFF; }
      .text-body { font-family: 'Source Sans Pro', sans-serif; font-size: 14px; fill: #1F2937; }
      .text-muted { font-family: 'Source Sans Pro', sans-serif; font-size: 14px; fill: #6B7280; }
      .text-primary { font-family: 'Source Sans Pro', sans-serif; fill: #0050D7; }
      .text-title { font-family: 'Source Sans Pro', sans-serif; font-size: 24px; font-weight: 600; fill: #1F2937; }
      .text-tile-title { font-family: 'Source Sans Pro', sans-serif; font-size: 16px; font-weight: 600; fill: #1F2937; }
      .border { stroke: #E5E7EB; stroke-width: 1; fill: none; }
      .btn-secondary { fill: #FFFFFF; stroke: #E5E7EB; }
    </style>
  </defs>
  
  <!-- Background -->
  <rect width="1440" height="900" class="bg-muted"/>
  
  <!-- Header OVH -->
  <rect width="1440" height="60" class="bg-header"/>
  <text x="80" y="38" class="text-white" font-size="20" font-weight="bold">OVHcloud</text>
  <text x="700" y="38" class="text-white" font-size="14" font-weight="600">Telecom</text>
  
  <!-- Sidebar -->
  <rect x="0" y="60" width="240" height="840" class="bg-white"/>
  <rect x="240" y="60" width="1" height="840" fill="#E5E7EB"/>
  <rect x="0" y="120" width="240" height="40" fill="#E8F0FE"/>
  <text x="20" y="146" class="text-primary" font-size="14" font-weight="600">Téléphonie</text>
  
  <!-- Main Content -->
  <g transform="translate(280, 100)">
    <!-- Breadcrumb -->
    <text class="text-muted" font-size="13">Telecom / VoIP / group-abc123456 / 0033912345678 /</text>
    <text x="390" class="text-body" font-size="13" font-weight="500">Téléphone</text>
    
    <!-- Title -->
    <text y="55" class="text-title">Ligne "Poste Direction"</text>
    
    <!-- Tabs -->
    <g transform="translate(0, 90)">
      <text x="0" y="0" class="text-muted" font-size="13">Détail</text>
      <text x="65" y="0" class="text-muted" font-size="13">Appels</text>
      <rect x="115" y="-18" width="90" height="28" rx="4" fill="#E8F0FE"/>
      <text x="125" y="0" class="text-primary" font-size="13" font-weight="500">Téléphone</text>
      <text x="230" y="0" class="text-muted" font-size="13">Répondeur</text>
      <text x="330" y="0" class="text-muted" font-size="13">Assistance</text>
      <text x="420" y="0" class="text-muted" font-size="13">Gestion</text>
    </g>
    <line x1="0" y1="105" x2="1100" y2="105" stroke="#E5E7EB"/>
    
    <!-- Sub-navigation -->
    <text y="140" class="text-primary" font-size="13">← Retour</text>
    
    <!-- Tiles Row 1 -->
    <!-- Phone Info Tile -->
    <rect y="165" width="530" height="300" rx="8" class="bg-white"/>
    <rect y="165" width="530" height="300" rx="8" class="border"/>
    <text x="20" y="205" class="text-tile-title">Informations générales</text>
    
    <!-- Phone illustration -->
    <rect x="20" y="225" width="150" height="180" rx="8" fill="#F3F4F6"/>
    <text x="65" y="330" class="text-body" font-size="48">📞</text>
    
    <text x="200" y="255" class="text-body" font-weight="600" font-size="16">Yealink T46U</text>
    
    <text x="200" y="290" class="text-muted">Adresse MAC</text>
    <text x="350" y="290" class="text-body">AA:BB:CC:DD:EE:01</text>
    
    <text x="200" y="320" class="text-muted">IP actuelle</text>
    <text x="350" y="320" class="text-body">192.168.1.45</text>
    
    <text x="200" y="350" class="text-muted">Firmware</text>
    <text x="350" y="350" class="text-body">86.0.0.115</text>
    
    <text x="200" y="380" class="text-muted">Dernière connexion</text>
    <text x="350" y="380" class="text-body">27/12/2025 10:30</text>
    
    <rect x="200" y="410" width="120" height="32" rx="4" class="btn-secondary"/>
    <text x="225" y="432" class="text-body" font-size="13">Redémarrer</text>
    
    <!-- Actions Tile -->
    <rect x="550" y="165" width="530" height="300" rx="8" class="bg-white"/>
    <rect x="550" y="165" width="530" height="300" rx="8" class="border"/>
    <text x="570" y="205" class="text-tile-title">Gestion du téléphone</text>
    
    <rect x="570" y="230" width="490" height="44" rx="4" fill="#F9FAFB"/>
    <text x="590" y="258" class="text-body">Codecs audio</text>
    <text x="1010" y="258" class="text-primary" font-size="14">→</text>
    
    <rect x="570" y="284" width="490" height="44" rx="4" fill="#F9FAFB"/>
    <text x="590" y="312" class="text-body">Paramètres Plug &amp; Phone personnalisés</text>
    <text x="1010" y="312" class="text-primary" font-size="14">→</text>
    
    <rect x="570" y="338" width="490" height="44" rx="4" fill="#F9FAFB"/>
    <text x="590" y="366" class="text-body">Touches programmables</text>
    <text x="1010" y="366" class="text-primary" font-size="14">→</text>
    
    <rect x="570" y="392" width="490" height="44" rx="4" fill="#F9FAFB"/>
    <text x="590" y="420" class="text-body">Carnets de contacts</text>
    <text x="1010" y="420" class="text-primary" font-size="14">→</text>
    
    <!-- Tiles Row 2 -->
    <!-- Orders Tile -->
    <rect y="485" width="530" height="200" rx="8" class="bg-white"/>
    <rect y="485" width="530" height="200" rx="8" class="border"/>
    <text x="20" y="525" class="text-tile-title">Commandes</text>
    
    <rect x="20" y="550" width="490" height="44" rx="4" fill="#F9FAFB"/>
    <text x="40" y="578" class="text-body">Commander un téléphone VoIP</text>
    <text x="460" y="578" class="text-primary" font-size="14">→</text>
    
    <rect x="20" y="604" width="490" height="44" rx="4" fill="#F9FAFB"/>
    <text x="40" y="632" class="text-body">Commander un casque</text>
    <text x="460" y="632" class="text-primary" font-size="14">→</text>
    
    <rect x="20" y="658" width="490" height="44" rx="4" fill="#F9FAFB"/>
    <text x="40" y="686" class="text-body">Commander des accessoires</text>
    <text x="460" y="686" class="text-primary" font-size="14">→</text>
    
    <!-- Phone Actions Tile -->
    <rect x="550" y="485" width="530" height="200" rx="8" class="bg-white"/>
    <rect x="550" y="485" width="530" height="200" rx="8" class="border"/>
    <text x="570" y="525" class="text-tile-title">Actions téléphone</text>
    
    <rect x="570" y="550" width="490" height="44" rx="4" fill="#F9FAFB"/>
    <text x="590" y="578" class="text-body">Mise à jour du firmware</text>
    <text x="1010" y="578" class="text-primary" font-size="14">→</text>
    
    <rect x="570" y="604" width="490" height="44" rx="4" fill="#F9FAFB"/>
    <text x="590" y="632" class="text-body">Changer de téléphone</text>
    <text x="1010" y="632" class="text-primary" font-size="14">→</text>
    
    <rect x="570" y="658" width="490" height="44" rx="4" fill="#F9FAFB"/>
    <text x="590" y="686" class="text-body">Détacher la ligne du téléphone</text>
    <text x="1010" y="686" class="text-primary" font-size="14">→</text>
  </g>
</svg>
