<svg xmlns="http://www.w3.org/2000/svg" viewBox="0 0 1440 900" width="1440" height="900">
  <defs>
    <style>
      .bg-header { fill: #000E9C; }
      .bg-main { fill: #F6F6F9; }
      .bg-white { fill: #FFFFFF; }
      .bg-primary { fill: #0050D7; }
      .bg-neutral-100 { fill: #F3F4F6; }
      .bg-success { fill: #DEF7EC; }
      .border { stroke: #E5E7EB; stroke-width: 1; fill: none; }
      .btn-outline { stroke: #0050D7; stroke-width: 1; fill: #FFFFFF; }
      .btn-primary { fill: #0050D7; }
      .row-selected { fill: #E8F0FE; }
      .table-header { fill: #F9FAFB; }
      .text-white { fill: #FFFFFF; font-family: 'Source Sans Pro', sans-serif; }
      .text-dark { fill: #1F2937; font-family: 'Source Sans Pro', sans-serif; }
      .text-muted { fill: #6B7280; font-family: 'Source Sans Pro', sans-serif; }
      .text-primary { fill: #0050D7; font-family: 'Source Sans Pro', sans-serif; }
      .text-success { fill: #059669; font-family: 'Source Sans Pro', sans-serif; }
      .text-error { fill: #DC2626; font-family: 'Source Sans Pro', sans-serif; }
    </style>
  </defs>

  <rect width="1440" height="900" class="bg-main"/>

  <!-- NAV1 -->
  <rect width="1440" height="50" class="bg-header"/>
  <text x="40" y="32" class="text-white" font-size="14" opacity="0.7">Accueil</text>
  <text x="110" y="32" class="text-white" font-size="14" opacity="0.7">Public Cloud</text>
  <text x="210" y="32" class="text-white" font-size="14" opacity="0.7">Hosted Private Cloud</text>
  <text x="370" y="32" class="text-white" font-size="14" opacity="0.7">Bare Metal Cloud</text>
  <text x="510" y="32" class="text-white" font-size="14" font-weight="600">Web Cloud</text>
  <rect x="505" y="46" width="75" height="3" fill="#FFFFFF"/>
  <text x="620" y="32" class="text-white" font-size="14" opacity="0.7">Network</text>
  <text x="700" y="32" class="text-white" font-size="14" opacity="0.7">IAM / Securite</text>
  <text x="810" y="32" class="text-white" font-size="14" opacity="0.7">Licences</text>
  <rect x="1280" y="12" width="140" height="26" rx="13" fill="rgba(255,255,255,0.2)"/>
  <rect x="1285" y="15" width="26" height="20" rx="10" fill="#DEF7EC"/>
  <text x="1292" y="29" fill="#03543F" font-size="10" font-weight="600">OK</text>
  <text x="1320" y="29" class="text-white" font-size="12">{nicHandle}</text>

  <!-- NAV2 -->
  <rect x="0" y="50" width="1440" height="40" class="bg-white"/>
  <line x1="0" y1="89" x2="1440" y2="89" stroke="#E5E7EB"/>
  <text x="40" y="75" class="text-muted" font-size="14">Accueil</text>
  <text x="110" y="75" class="text-muted" font-size="14">Domaines et DNS</text>
  <text x="240" y="75" class="text-primary" font-size="14" font-weight="600">Hébergement</text>
  <rect x="235" y="85" width="85" height="3" fill="#0050D7"/>
  <text x="345" y="75" class="text-muted" font-size="14">Wordpress</text>
  <text x="430" y="75" class="text-muted" font-size="14">Emails</text>
  <text x="500" y="75" class="text-muted" font-size="14">VoIP</text>
  <text x="550" y="75" class="text-muted" font-size="14">Accès</text>
  <text x="1350" y="75" class="text-primary" font-size="13">Guides</text>

  <!-- CONTENT -->
  <g transform="translate(0, 105)">
    <g transform="translate(24, 0)">
      <!-- LEFT PANEL -->
      <rect x="0" y="0" width="280" height="765" rx="8" class="bg-white"/>
      <rect x="0" y="0" width="280" height="765" rx="8" class="border"/>
      <rect x="12" y="12" width="256" height="34" rx="4" fill="#F9FAFB" stroke="#E5E7EB"/>
      <text x="40" y="34" class="text-muted" font-size="12">Rechercher...</text>
      <text x="12" y="68" class="text-muted" font-size="11">3 services</text>
      
      <rect x="6" y="80" width="268" height="56" rx="6" class="row-selected"/>
      <circle cx="28" cy="108" r="14" fill="#0050D7"/>
      <text x="28" y="112" class="text-white" font-size="12" text-anchor="middle">W</text>
      <text x="52" y="100" class="text-dark" font-size="13" font-weight="500">monsite.example.com</text>
      <text x="52" y="116" class="text-muted" font-size="11">Performance 1</text>
      <rect x="210" y="96" width="46" height="18" rx="9" fill="#DEF7EC"/>
      <text x="233" y="109" fill="#03543F" font-size="10" text-anchor="middle">Actif</text>
    </g>
    
    <g transform="translate(320, 0)">
      <!-- RIGHT PANEL -->
      <rect x="0" y="0" width="1096" height="765" rx="8" class="bg-white"/>
      <rect x="0" y="0" width="1096" height="765" rx="8" class="border"/>
      
      <g transform="translate(20, 0)">
        <text x="0" y="28" class="text-dark" font-size="18" font-weight="600">monsite.example.com</text>
        
        <!-- NAV3 TABS - Multisite actif -->
        <g transform="translate(0, 42)">
          <rect x="0" y="0" width="50" height="26" rx="4" class="btn-outline"/>
          <text x="25" y="17" class="text-primary" font-size="11" text-anchor="middle">Home</text>
          
          <rect x="54" y="0" width="70" height="26" rx="4" class="bg-primary"/>
          <text x="89" y="17" class="text-white" font-size="11" text-anchor="middle">Multisite</text>
          
          <rect x="128" y="0" width="60" height="26" rx="4" class="btn-outline"/>
          <text x="158" y="17" class="text-primary" font-size="11" text-anchor="middle">FTP-SSH</text>
          
          <rect x="192" y="0" width="60" height="26" rx="4" class="btn-outline"/>
          <text x="222" y="17" class="text-primary" font-size="11" text-anchor="middle">Modules</text>
          
          <rect x="256" y="0" width="55" height="26" rx="4" class="btn-outline"/>
          <text x="283" y="17" class="text-primary" font-size="11" text-anchor="middle">Taches</text>
          
          <rect x="315" y="0" width="50" height="26" rx="4" class="btn-outline"/>
          <text x="340" y="17" class="text-primary" font-size="11" text-anchor="middle">Emails</text>
          
          <rect x="369" y="0" width="65" height="26" rx="4" class="btn-outline"/>
          <text x="401" y="17" class="text-primary" font-size="11" text-anchor="middle">Variables</text>
          
          <rect x="438" y="0" width="65" height="26" rx="4" class="btn-outline"/>
          <text x="470" y="17" class="text-primary" font-size="11" text-anchor="middle">Runtimes</text>
          
          <rect x="507" y="0" width="35" height="26" rx="4" class="btn-outline"/>
          <text x="524" y="17" class="text-primary" font-size="11" text-anchor="middle">SSL</text>
          
          <rect x="546" y="0" width="40" height="26" rx="4" class="btn-outline"/>
          <text x="566" y="17" class="text-primary" font-size="11" text-anchor="middle">CDN</text>
          
          <rect x="590" y="0" width="45" height="26" rx="4" class="btn-outline"/>
          <text x="612" y="17" class="text-primary" font-size="11" text-anchor="middle">Boost</text>
          
          <rect x="639" y="0" width="40" height="26" rx="4" class="btn-outline"/>
          <text x="659" y="17" class="text-primary" font-size="11" text-anchor="middle">Logs</text>
          
          <rect x="683" y="0" width="40" height="26" rx="4" class="btn-outline"/>
          <text x="703" y="17" class="text-primary" font-size="11" text-anchor="middle">BDD</text>
          
          <rect x="727" y="0" width="75" height="26" rx="4" class="btn-outline"/>
          <text x="764" y="17" class="text-primary" font-size="11" text-anchor="middle">BDD Cloud</text>
          
          <rect x="806" y="0" width="45" height="26" rx="4" class="btn-outline"/>
          <text x="828" y="17" class="text-primary" font-size="11" text-anchor="middle">Cron</text>
          
          <rect x="855" y="0" width="40" height="26" rx="4" class="btn-outline"/>
          <text x="875" y="17" class="text-primary" font-size="11" text-anchor="middle">SEO</text>
        </g>
        
        <!-- TOOLBAR -->
        <g transform="translate(0, 85)">
          <rect x="0" y="0" width="32" height="32" rx="4" class="btn-outline"/>
          <text x="16" y="22" class="text-primary" font-size="14" text-anchor="middle">↻</text>
          
          <rect x="40" y="0" width="200" height="32" rx="4" fill="#F9FAFB" stroke="#E5E7EB"/>
          <text x="52" y="21" class="text-muted" font-size="11">Rechercher un domaine...</text>
          
          <rect x="260" y="0" width="180" height="32" rx="4" class="btn-primary"/>
          <text x="350" y="21" class="text-white" font-size="11" text-anchor="middle">+ Ajouter un domaine</text>
          
          <rect x="450" y="0" width="180" height="32" rx="4" class="btn-outline"/>
          <text x="540" y="21" class="text-primary" font-size="11" text-anchor="middle">Régénérer certificat SSL</text>
        </g>
        
        <!-- TABLE -->
        <g transform="translate(0, 130)">
          <rect x="0" y="0" width="1056" height="600" rx="8" fill="#FFFFFF" stroke="#E5E7EB"/>
          
          <!-- Table Header -->
          <rect x="0" y="0" width="1056" height="40" rx="8" class="table-header"/>
          <text x="20" y="26" class="text-dark" font-size="11" font-weight="600">Domaine</text>
          <text x="220" y="26" class="text-dark" font-size="11" font-weight="600">Dossier racine</text>
          <text x="360" y="26" class="text-dark" font-size="11" font-weight="600">SSL</text>
          <text x="440" y="26" class="text-dark" font-size="11" font-weight="600">CDN</text>
          <text x="520" y="26" class="text-dark" font-size="11" font-weight="600">Firewall</text>
          <text x="610" y="26" class="text-dark" font-size="11" font-weight="600">Logs</text>
          <text x="700" y="26" class="text-dark" font-size="11" font-weight="600">Git</text>
          <text x="780" y="26" class="text-dark" font-size="11" font-weight="600">Diagnostic</text>
          <text x="880" y="26" class="text-dark" font-size="11" font-weight="600">Runtime</text>
          <text x="1010" y="26" class="text-dark" font-size="11" font-weight="600"></text>
          
          <!-- Row 1 -->
          <line x1="0" y1="40" x2="1056" y2="40" stroke="#E5E7EB"/>
          <rect x="0" y="40" width="1056" height="45" fill="#FFFFFF"/>
          <text x="20" y="68" class="text-primary" font-size="11">monsite.example.com</text>
          <text x="220" y="68" class="text-dark" font-size="11">/www</text>
          <rect x="360" y="52" width="50" height="18" rx="9" fill="#DEF7EC"/>
          <text x="385" y="65" fill="#03543F" font-size="10" text-anchor="middle">Actif</text>
          <rect x="440" y="52" width="50" height="18" rx="9" fill="#DEF7EC"/>
          <text x="465" y="65" fill="#03543F" font-size="10" text-anchor="middle">Actif</text>
          <rect x="520" y="52" width="50" height="18" rx="9" fill="#DEF7EC"/>
          <text x="545" y="65" fill="#03543F" font-size="10" text-anchor="middle">Actif</text>
          <rect x="610" y="52" width="55" height="18" rx="9" fill="#F3F4F6"/>
          <text x="637" y="65" fill="#6B7280" font-size="10" text-anchor="middle">Inactif</text>
          <rect x="700" y="52" width="55" height="18" rx="9" fill="#F3F4F6"/>
          <text x="727" y="65" fill="#6B7280" font-size="10" text-anchor="middle">Non lié</text>
          <circle cx="815" cy="62" r="8" fill="#10B981"/>
          <text x="880" y="68" class="text-dark" font-size="11">php8.2</text>
          <text x="1010" y="68" class="text-muted" font-size="16">...</text>
          
          <!-- Row 2 -->
          <line x1="0" y1="85" x2="1056" y2="85" stroke="#E5E7EB"/>
          <rect x="0" y="85" width="1056" height="45" fill="#FFFFFF"/>
          <text x="20" y="113" class="text-primary" font-size="11">www.monsite.example.com</text>
          <text x="220" y="113" class="text-dark" font-size="11">/www</text>
          <rect x="360" y="97" width="50" height="18" rx="9" fill="#DEF7EC"/>
          <text x="385" y="110" fill="#03543F" font-size="10" text-anchor="middle">Actif</text>
          <rect x="440" y="97" width="50" height="18" rx="9" fill="#DEF7EC"/>
          <text x="465" y="110" fill="#03543F" font-size="10" text-anchor="middle">Actif</text>
          <rect x="520" y="97" width="50" height="18" rx="9" fill="#DEF7EC"/>
          <text x="545" y="110" fill="#03543F" font-size="10" text-anchor="middle">Actif</text>
          <rect x="610" y="97" width="55" height="18" rx="9" fill="#F3F4F6"/>
          <text x="637" y="110" fill="#6B7280" font-size="10" text-anchor="middle">Inactif</text>
          <rect x="700" y="97" width="55" height="18" rx="9" fill="#F3F4F6"/>
          <text x="727" y="110" fill="#6B7280" font-size="10" text-anchor="middle">Non lié</text>
          <circle cx="815" cy="107" r="8" fill="#10B981"/>
          <text x="880" y="113" class="text-dark" font-size="11">php8.2</text>
          <text x="1010" y="113" class="text-muted" font-size="16">...</text>
          
          <!-- Row 3 -->
          <line x1="0" y1="130" x2="1056" y2="130" stroke="#E5E7EB"/>
          <rect x="0" y="130" width="1056" height="45" fill="#FFFFFF"/>
          <text x="20" y="158" class="text-primary" font-size="11">blog.monsite.example.com</text>
          <text x="220" y="158" class="text-dark" font-size="11">/blog</text>
          <rect x="360" y="142" width="50" height="18" rx="9" fill="#DEF7EC"/>
          <text x="385" y="155" fill="#03543F" font-size="10" text-anchor="middle">Actif</text>
          <rect x="440" y="142" width="55" height="18" rx="9" fill="#F3F4F6"/>
          <text x="467" y="155" fill="#6B7280" font-size="10" text-anchor="middle">Inactif</text>
          <rect x="520" y="142" width="50" height="18" rx="9" fill="#DEF7EC"/>
          <text x="545" y="155" fill="#03543F" font-size="10" text-anchor="middle">Actif</text>
          <rect x="610" y="142" width="50" height="18" rx="9" fill="#DEF7EC"/>
          <text x="635" y="155" fill="#03543F" font-size="10" text-anchor="middle">Actif</text>
          <rect x="700" y="142" width="50" height="18" rx="9" fill="#DEF7EC"/>
          <text x="725" y="155" fill="#03543F" font-size="10" text-anchor="middle">Lié</text>
          <circle cx="815" cy="152" r="8" fill="#10B981"/>
          <text x="880" y="158" class="text-dark" font-size="11">php8.1</text>
          <text x="1010" y="158" class="text-muted" font-size="16">...</text>
          
          <!-- Pagination -->
          <g transform="translate(20, 560)">
            <text x="0" y="16" class="text-muted" font-size="11">Affichage 1-3 sur 3</text>
            <text x="250" y="16" class="text-muted" font-size="11">Par page:</text>
            <rect x="300" y="0" width="50" height="26" rx="4" stroke="#E5E7EB" fill="#FFFFFF"/>
            <text x="318" y="17" class="text-dark" font-size="11">10</text>
            <text x="340" y="17" class="text-muted" font-size="10">▼</text>
          </g>
        </g>
      </g>
    </g>
  </g>
</svg>
