<svg xmlns="http://www.w3.org/2000/svg" viewBox="0 0 1440 900" width="1440" height="900">
  <defs>
    <style>
      .bg-header { fill: #000E9C; }
      .bg-main { fill: #F6F6F9; }
      .bg-white { fill: #FFFFFF; }
      .bg-overlay { fill: rgba(0,0,0,0.5); }
      .bg-info { fill: #DBEAFE; }
      .bg-success { fill: #DEF7EC; }
      .btn-primary { fill: #0050D7; }
      .btn-secondary { fill: #F3F4F6; }
      .radio-selected { fill: #0050D7; }
      .radio-unselected { fill: #FFFFFF; stroke: #D1D5DB; stroke-width: 2; }
      .text-white { fill: #FFFFFF; font-family: 'Source Sans Pro', sans-serif; }
      .text-dark { fill: #1F2937; font-family: 'Source Sans Pro', sans-serif; }
      .text-muted { fill: #6B7280; font-family: 'Source Sans Pro', sans-serif; }
      .text-primary { fill: #0050D7; font-family: 'Source Sans Pro', sans-serif; }
      .text-info { fill: #1E40AF; font-family: 'Source Sans Pro', sans-serif; }
      .text-success { fill: #059669; font-family: 'Source Sans Pro', sans-serif; }
    </style>
  </defs>
  <rect width="1440" height="900" class="bg-main"/>
  <rect width="1440" height="50" class="bg-header"/>
  <text x="510" y="32" class="text-white" font-size="14" font-weight="600">Web Cloud</text>
  <rect x="505" y="46" width="75" height="3" fill="#FFFFFF"/>
  <rect x="0" y="50" width="1440" height="40" class="bg-white"/>
  <text x="110" y="75" class="text-primary" font-size="14" font-weight="600">Domaines et DNS</text>
  <rect x="105" y="85" width="110" height="3" fill="#0050D7"/>
  <rect x="0" y="90" width="1440" height="810" class="bg-overlay"/>
  <rect x="395" y="160" width="650" height="540" rx="12" fill="#FFFFFF"/>
  <text x="720" y="200" class="text-dark" font-size="16" font-weight="600" text-anchor="middle">Protection WHOIS (OWO)</text>
  <text x="1015" y="200" class="text-muted" font-size="20">×</text>
  <g transform="translate(425, 230)">
    <rect x="0" y="0" width="590" height="50" rx="6" class="bg-info"/>
    <text x="15" y="20" class="text-info" font-size="11" font-weight="600">Protection des donnees personnelles</text>
    <text x="15" y="38" class="text-info" font-size="10">Masquez vos informations personnelles dans les resultats WHOIS publics.</text>
    <text x="0" y="80" class="text-dark" font-size="12" font-weight="500">Domaine</text>
    <text x="0" y="100" class="text-dark" font-size="13" font-weight="600">example.com</text>
    <text x="0" y="140" class="text-dark" font-size="12" font-weight="500">Niveau de protection</text>
    <g transform="translate(0, 160)">
      <circle cx="10" cy="10" r="8" class="radio-unselected"/>
      <text x="28" y="14" class="text-dark" font-size="12" font-weight="500">Desactive</text>
      <text x="28" y="32" class="text-muted" font-size="10">Toutes vos informations sont visibles publiquement</text>
    </g>
    <g transform="translate(0, 210)">
      <circle cx="10" cy="10" r="8" class="radio-selected"/>
      <circle cx="10" cy="10" r="3" fill="#FFFFFF"/>
      <text x="28" y="14" class="text-dark" font-size="12" font-weight="500">Email masque</text>
      <text x="28" y="32" class="text-muted" font-size="10">Seul l'email est remplace par une adresse OVH anonyme</text>
    </g>
    <g transform="translate(0, 260)">
      <circle cx="10" cy="10" r="8" class="radio-unselected"/>
      <text x="28" y="14" class="text-dark" font-size="12" font-weight="500">Protection complete</text>
      <text x="28" y="32" class="text-muted" font-size="10">Nom, adresse, telephone et email sont masques</text>
    </g>
    <rect x="0" y="320" width="590" height="40" rx="6" class="bg-success"/>
    <text x="15" y="345" class="text-success" font-size="11">La protection WHOIS est gratuite et applicable immediatement.</text>
  </g>
  <g transform="translate(425, 620)">
    <rect x="340" y="0" width="110" height="40" rx="4" class="btn-secondary"/>
    <text x="372" y="26" class="text-dark" font-size="12">Annuler</text>
    <rect x="460" y="0" width="130" height="40" rx="4" class="btn-primary"/>
    <text x="490" y="26" class="text-white" font-size="12">Enregistrer</text>
  </g>
</svg>
