<svg xmlns="http://www.w3.org/2000/svg" viewBox="0 0 1440 900" width="1440" height="900">
  <defs>
    <style>
      .bg-header { fill: #000E9C; }
      .bg-main { fill: #F6F6F9; }
      .bg-white { fill: #FFFFFF; }
      .bg-primary { fill: #0050D7; }
      .bg-neutral-100 { fill: #F3F4F6; }
      .bg-info { fill: #DBEAFE; }
      .bg-success { fill: #DEF7EC; }
      .bg-error { fill: #FEE2E2; }
      .border { stroke: #E5E7EB; stroke-width: 1; fill: none; }
      .btn-outline { stroke: #0050D7; stroke-width: 1; fill: #FFFFFF; }
      .btn-primary { fill: #0050D7; }
      .btn-disabled { fill: #E5E7EB; }
      .row-selected { fill: #E8F0FE; }
      .table-header { fill: #F9FAFB; }
      .text-white { fill: #FFFFFF; font-family: 'Source Sans Pro', sans-serif; }
      .text-dark { fill: #1F2937; font-family: 'Source Sans Pro', sans-serif; }
      .text-muted { fill: #6B7280; font-family: 'Source Sans Pro', sans-serif; }
      .text-primary { fill: #0050D7; font-family: 'Source Sans Pro', sans-serif; }
      .text-success { fill: #059669; font-family: 'Source Sans Pro', sans-serif; }
      .text-error { fill: #DC2626; font-family: 'Source Sans Pro', sans-serif; }
      .text-info { fill: #1E40AF; font-family: 'Source Sans Pro', sans-serif; }
    </style>
  </defs>

  <rect width="1440" height="900" class="bg-main"/>

  <!-- NAV1 -->
  <rect width="1440" height="50" class="bg-header"/>
  <text x="40" y="32" class="text-white" font-size="14" opacity="0.7">Accueil</text>
  <text x="110" y="32" class="text-white" font-size="14" opacity="0.7">Public Cloud</text>
  <text x="210" y="32" class="text-white" font-size="14" opacity="0.7">Hosted Private Cloud</text>
  <text x="370" y="32" class="text-white" font-size="14" opacity="0.7">Bare Metal Cloud</text>
  <text x="510" y="32" class="text-white" font-size="14" font-weight="600">Web Cloud</text>
  <rect x="505" y="46" width="75" height="3" fill="#FFFFFF"/>
  <text x="620" y="32" class="text-white" font-size="14" opacity="0.7">Network</text>
  <text x="700" y="32" class="text-white" font-size="14" opacity="0.7">IAM / Securite</text>
  <text x="810" y="32" class="text-white" font-size="14" opacity="0.7">Licences</text>

  <!-- NAV2 -->
  <rect x="0" y="50" width="1440" height="40" class="bg-white"/>
  <line x1="0" y1="89" x2="1440" y2="89" stroke="#E5E7EB"/>
  <text x="40" y="75" class="text-muted" font-size="14">Accueil</text>
  <text x="110" y="75" class="text-primary" font-size="14" font-weight="600">Domaines et DNS</text>
  <rect x="105" y="85" width="110" height="3" fill="#0050D7"/>
  <text x="240" y="75" class="text-muted" font-size="14">Hebergement</text>
  <text x="345" y="75" class="text-muted" font-size="14">Wordpress</text>
  <text x="430" y="75" class="text-muted" font-size="14">Emails</text>
  <text x="500" y="75" class="text-muted" font-size="14">VoIP</text>
  <text x="550" y="75" class="text-muted" font-size="14">Acces</text>
  <text x="1350" y="75" class="text-primary" font-size="13">Guides</text>

  <!-- CONTENT -->
  <g transform="translate(0, 105)">
    <g transform="translate(24, 0)">
      <!-- LEFT PANEL -->
      <rect x="0" y="0" width="280" height="765" rx="8" class="bg-white"/>
      <rect x="0" y="0" width="280" height="765" rx="8" class="border"/>
      <rect x="12" y="12" width="256" height="34" rx="4" fill="#F9FAFB" stroke="#E5E7EB"/>
      <text x="40" y="34" class="text-muted" font-size="12">Rechercher...</text>
      <text x="12" y="68" class="text-muted" font-size="11">Filtrer ▼</text>
      <text x="268" y="68" class="text-muted" font-size="11" text-anchor="end">12 services</text>

      <rect x="6" y="80" width="268" height="64" rx="6" class="row-selected"/>
      <text x="28" y="104" font-size="16">🌐</text>
      <text x="52" y="100" class="text-dark" font-size="13" font-weight="500">example.com</text>
      <text x="52" y="116" class="text-muted" font-size="10">Domaine + Zone</text>
      <rect x="210" y="96" width="46" height="18" rx="9" fill="#DEF7EC"/>
      <text x="233" y="109" fill="#03543F" font-size="10" text-anchor="middle">Actif</text>
    </g>

    <g transform="translate(320, 0)">
      <!-- RIGHT PANEL -->
      <rect x="0" y="0" width="1096" height="765" rx="8" class="bg-white"/>
      <rect x="0" y="0" width="1096" height="765" rx="8" class="border"/>

      <g transform="translate(20, 0)">
        <text x="0" y="28" class="text-dark" font-size="18" font-weight="600">example.com</text>
        <rect x="160" y="12" width="46" height="18" rx="9" fill="#DEF7EC"/>
        <text x="183" y="25" fill="#03543F" font-size="10" text-anchor="middle">Actif</text>

        <!-- NAV3 - Alldom actif -->
        <g transform="translate(0, 38)">
          <rect x="0" y="0" width="100" height="26" rx="4" class="btn-outline"/>
          <text x="50" y="17" class="text-primary" font-size="11" text-anchor="middle">Infos generales</text>
          <rect x="104" y="0" width="70" height="26" rx="4" class="btn-outline"/>
          <text x="139" y="17" class="text-primary" font-size="11" text-anchor="middle">Zone DNS</text>
          <rect x="178" y="0" width="90" height="26" rx="4" class="btn-outline"/>
          <text x="223" y="17" class="text-primary" font-size="11" text-anchor="middle">Serveurs DNS</text>
          <rect x="272" y="0" width="85" height="26" rx="4" class="btn-outline"/>
          <text x="314" y="17" class="text-primary" font-size="11" text-anchor="middle">Redirections</text>
          <rect x="361" y="0" width="60" height="26" rx="4" class="btn-outline"/>
          <text x="391" y="17" class="text-primary" font-size="11" text-anchor="middle">DynHost</text>
          <rect x="425" y="0" width="45" height="26" rx="4" class="btn-outline"/>
          <text x="447" y="17" class="text-primary" font-size="11" text-anchor="middle">GLUE</text>
          <rect x="474" y="0" width="55" height="26" rx="4" class="btn-outline"/>
          <text x="501" y="17" class="text-primary" font-size="11" text-anchor="middle">DNSSEC</text>
          <rect x="533" y="0" width="65" height="26" rx="4" class="btn-outline"/>
          <text x="565" y="17" class="text-primary" font-size="11" text-anchor="middle">Contacts</text>
          <rect x="602" y="0" width="55" height="26" rx="4" class="btn-outline"/>
          <text x="629" y="17" class="text-primary" font-size="11" text-anchor="middle">Taches</text>
          <rect x="661" y="0" width="55" height="26" rx="4" class="bg-primary"/>
          <text x="688" y="17" class="text-white" font-size="11" text-anchor="middle">Alldom</text>
        </g>

        <!-- CONTENU -->
        <g transform="translate(0, 80)">
          <!-- Title + Description -->
          <text x="0" y="20" class="text-dark" font-size="14" font-weight="600">Pack Alldom</text>
          <text x="0" y="42" class="text-muted" font-size="11">Protegez votre marque en enregistrant toutes les extensions de votre domaine en un seul pack.</text>

          <!-- Info banner -->
          <rect x="0" y="60" width="1056" height="50" rx="6" class="bg-info"/>
          <text x="20" y="80" class="text-info" font-size="11" font-weight="600">Domaines inclus dans votre pack Alldom :</text>
          <text x="20" y="98" class="text-info" font-size="11">example.com, example.fr, example.net, example.org, example.eu, example.be, example.ch</text>

          <!-- Table Header -->
          <g transform="translate(0, 130)">
            <rect x="0" y="0" width="1056" height="36" class="table-header"/>
            <text x="20" y="23" class="text-muted" font-size="11" font-weight="600">DOMAINE</text>
            <text x="300" y="23" class="text-muted" font-size="11" font-weight="600">EXTENSION</text>
            <text x="500" y="23" class="text-muted" font-size="11" font-weight="600">EXPIRATION</text>
            <text x="750" y="23" class="text-muted" font-size="11" font-weight="600">STATUT</text>
            <text x="1000" y="23" class="text-muted" font-size="11" font-weight="600">ACTIONS</text>
          </g>

          <!-- Rows -->
          <g transform="translate(0, 166)">
            <!-- Row 1 -->
            <rect x="0" y="0" width="1056" height="45" fill="#FFFFFF"/>
            <line x1="0" y1="45" x2="1056" y2="45" stroke="#E5E7EB"/>
            <text x="20" y="28" class="text-dark" font-size="12">example.com</text>
            <rect x="300" y="12" width="45" height="20" rx="10" fill="#DBEAFE"/>
            <text x="322" y="26" fill="#1E40AF" font-size="10" text-anchor="middle">.com</text>
            <text x="500" y="28" class="text-muted" font-size="11">15/01/2026</text>
            <rect x="750" y="12" width="46" height="20" rx="10" fill="#DEF7EC"/>
            <text x="773" y="26" fill="#03543F" font-size="10" text-anchor="middle">Actif</text>
            <text x="1010" y="28" class="text-primary" font-size="11">Gerer →</text>

            <!-- Row 2 -->
            <rect x="0" y="45" width="1056" height="45" fill="#FFFFFF"/>
            <line x1="0" y1="90" x2="1056" y2="90" stroke="#E5E7EB"/>
            <text x="20" y="73" class="text-dark" font-size="12">example.fr</text>
            <rect x="300" y="57" width="35" height="20" rx="10" fill="#DBEAFE"/>
            <text x="317" y="71" fill="#1E40AF" font-size="10" text-anchor="middle">.fr</text>
            <text x="500" y="73" class="text-muted" font-size="11">15/01/2026</text>
            <rect x="750" y="57" width="46" height="20" rx="10" fill="#DEF7EC"/>
            <text x="773" y="71" fill="#03543F" font-size="10" text-anchor="middle">Actif</text>
            <text x="1010" y="73" class="text-primary" font-size="11">Gerer →</text>

            <!-- Row 3 -->
            <rect x="0" y="90" width="1056" height="45" fill="#FFFFFF"/>
            <line x1="0" y1="135" x2="1056" y2="135" stroke="#E5E7EB"/>
            <text x="20" y="118" class="text-dark" font-size="12">example.net</text>
            <rect x="300" y="102" width="40" height="20" rx="10" fill="#DBEAFE"/>
            <text x="320" y="116" fill="#1E40AF" font-size="10" text-anchor="middle">.net</text>
            <text x="500" y="118" class="text-muted" font-size="11">15/01/2026</text>
            <rect x="750" y="102" width="46" height="20" rx="10" fill="#DEF7EC"/>
            <text x="773" y="116" fill="#03543F" font-size="10" text-anchor="middle">Actif</text>
            <text x="1010" y="118" class="text-primary" font-size="11">Gerer →</text>

            <!-- Row 4 -->
            <rect x="0" y="135" width="1056" height="45" fill="#FFFFFF"/>
            <line x1="0" y1="180" x2="1056" y2="180" stroke="#E5E7EB"/>
            <text x="20" y="163" class="text-dark" font-size="12">example.org</text>
            <rect x="300" y="147" width="40" height="20" rx="10" fill="#DBEAFE"/>
            <text x="320" y="161" fill="#1E40AF" font-size="10" text-anchor="middle">.org</text>
            <text x="500" y="163" class="text-muted" font-size="11">15/01/2026</text>
            <rect x="750" y="147" width="46" height="20" rx="10" fill="#DEF7EC"/>
            <text x="773" y="161" fill="#03543F" font-size="10" text-anchor="middle">Actif</text>
            <text x="1010" y="163" class="text-primary" font-size="11">Gerer →</text>

            <!-- Row 5 -->
            <rect x="0" y="180" width="1056" height="45" fill="#FFFFFF"/>
            <line x1="0" y1="225" x2="1056" y2="225" stroke="#E5E7EB"/>
            <text x="20" y="208" class="text-dark" font-size="12">example.eu</text>
            <rect x="300" y="192" width="35" height="20" rx="10" fill="#DBEAFE"/>
            <text x="317" y="206" fill="#1E40AF" font-size="10" text-anchor="middle">.eu</text>
            <text x="500" y="208" class="text-muted" font-size="11">15/01/2026</text>
            <rect x="750" y="192" width="46" height="20" rx="10" fill="#DEF7EC"/>
            <text x="773" y="206" fill="#03543F" font-size="10" text-anchor="middle">Actif</text>
            <text x="1010" y="208" class="text-primary" font-size="11">Gerer →</text>
          </g>

          <!-- Pagination -->
          <g transform="translate(0, 410)">
            <text x="0" y="20" class="text-muted" font-size="11">7 domaines dans le pack</text>
          </g>

          <!-- Guides section -->
          <g transform="translate(0, 460)">
            <rect x="0" y="0" width="1056" height="60" rx="6" fill="#F9FAFB"/>
            <text x="20" y="25" class="text-dark" font-size="12" font-weight="600">Guides</text>
            <text x="20" y="45" class="text-primary" font-size="11">› Comprendre le pack Alldom</text>
            <text x="250" y="45" class="text-primary" font-size="11">› Ajouter une extension au pack</text>
          </g>
        </g>
      </g>
    </g>
  </g>
</svg>
