<svg xmlns="http://www.w3.org/2000/svg" viewBox="0 0 1440 900" width="1440" height="900">
  <defs><style>.bg-header{fill:#000E9C}.bg-main{fill:#F6F6F9}.bg-white{fill:#FFFFFF}.text-white{fill:#FFFFFF;font-family:sans-serif}.text-dark{fill:#1F2937;font-family:sans-serif}.text-muted{fill:#6B7280;font-family:sans-serif}.overlay{fill:rgba(0,0,0,0.5)}</style></defs>
  <rect width="1440" height="900" class="bg-main"/>
  <rect width="1440" height="50" class="bg-header"/>
  <rect x="0" y="50" width="1440" height="850" class="overlay"/>
  <g transform="translate(420,220)">
    <rect width="600" height="360" rx="8" class="bg-white"/>
    <rect x="0" y="0" width="600" height="50" rx="8" fill="#F9FAFB"/>
    <text x="20" y="32" class="text-dark" font-size="16" font-weight="600">Convertir mes points fidélité</text>
    <text x="570" y="32" class="text-muted" font-size="18">×</text>
    <g transform="translate(20,70)">
      <text y="20" class="text-dark" font-size="14">Points disponibles : <tspan font-weight="600">1 250 pts</tspan></text>
      <text y="45" class="text-muted" font-size="12">Taux de conversion : 100 pts = 1,00 €</text>
    </g>
    <g transform="translate(20,130)">
      <text y="15" class="text-dark" font-size="12">Points à convertir</text>
      <rect y="25" width="300" height="40" rx="4" fill="#F3F4F6" stroke="#E5E7EB"/>
      <text x="10" y="50" class="text-dark" font-size="12">1000</text>
      <text x="270" y="50" class="text-muted" font-size="12">pts</text>
    </g>
    <g transform="translate(20,210)">
      <rect width="560" height="60" rx="4" fill="#DEF7EC"/>
      <text x="15" y="25" fill="#059669" font-size="12">💰 Crédit obtenu</text>
      <text x="15" y="45" fill="#059669" font-size="16" font-weight="700">10,00 €</text>
    </g>
    <g transform="translate(20,300)">
      <rect width="100" height="40" rx="4" fill="#FFF" stroke="#E5E7EB"/><text x="50" y="26" class="text-dark" font-size="12" text-anchor="middle">Annuler</text>
      <rect x="460" width="100" height="40" rx="4" fill="#0050D7"/><text x="510" y="26" class="text-white" font-size="12" text-anchor="middle">Convertir</text>
    </g>
  </g>
</svg>
