<svg xmlns="http://www.w3.org/2000/svg" viewBox="0 0 1440 900" width="1440" height="900">
  <defs><style>.bg-header{fill:#000E9C}.bg-main{fill:#F6F6F9}.bg-white{fill:#FFFFFF}.text-white{fill:#FFFFFF;font-family:sans-serif}.text-dark{fill:#1F2937;font-family:sans-serif}.text-muted{fill:#6B7280;font-family:sans-serif}.text-primary{fill:#0050D7;font-family:sans-serif}.border{stroke:#E5E7EB;stroke-width:1;fill:none}.table-header{fill:#F9FAFB}</style></defs>
  <rect width="1440" height="900" class="bg-main"/>
  <rect width="1440" height="50" class="bg-header"/>
  <text x="40" y="32" class="text-white" font-size="14">Accueil</text>
  <rect x="0" y="50" width="1440" height="40" class="bg-white"/>
  <text x="40" y="75" class="text-primary" font-size="14" font-weight="600">Facturation</text>
  <g transform="translate(40,115)">
    <text y="0" class="text-dark" font-size="24" font-weight="600">Renouvellement automatique</text>
  </g>
  <g transform="translate(40,160)">
    <rect width="300" height="40" rx="4" fill="#F3F4F6" stroke="#E5E7EB"/>
    <text x="15" y="26" class="text-muted" font-size="12">🔍 Rechercher...</text>
    <rect x="1080" width="280" height="40" rx="4" fill="#0050D7"/><text x="1220" y="26" class="text-white" font-size="12" text-anchor="middle">Activer le renouvellement auto</text>
  </g>
  <g transform="translate(40,220)">
    <rect width="1360" height="500" rx="8" class="bg-white"/><rect width="1360" height="500" rx="8" class="border"/>
    <rect x="0" y="0" width="1360" height="45" rx="8" class="table-header"/>
    <rect x="20" y="15" width="16" height="16" rx="2" fill="#FFF" stroke="#E5E7EB"/>
    <text x="60" y="28" class="text-dark" font-size="11" font-weight="600">Service</text>
    <text x="350" y="28" class="text-dark" font-size="11" font-weight="600">Type</text>
    <text x="500" y="28" class="text-dark" font-size="11" font-weight="600">Expiration</text>
    <text x="700" y="28" class="text-dark" font-size="11" font-weight="600">Renouvellement</text>
    <text x="900" y="28" class="text-dark" font-size="11" font-weight="600">Prix</text>
    <text x="1100" y="28" class="text-dark" font-size="11" font-weight="600">Actions</text>
    <line x1="0" y1="45" x2="1360" y2="45" stroke="#E5E7EB"/>
    <rect x="20" y="65" width="16" height="16" rx="2" fill="#FFF" stroke="#E5E7EB"/>
    <text x="60" y="80" class="text-dark" font-size="12">domain.example.com</text>
    <text x="350" y="80" class="text-muted" font-size="12">Domaine</text>
    <text x="500" y="80" class="text-dark" font-size="12">15/03/2026</text>
    <rect x="700" y="65" width="44" height="24" rx="12" fill="#0050D7"/>
    <circle cx="732" cy="77" r="10" fill="#FFFFFF"/>
    <text x="760" y="82" class="text-dark" font-size="11">Activé</text>
    <text x="900" y="80" class="text-dark" font-size="12">9,99 €/an</text>
    <text x="1100" y="80" class="text-primary" font-size="12">Modifier</text>
    <line x1="20" y1="100" x2="1340" y2="100" stroke="#E5E7EB"/>
    <rect x="20" y="115" width="16" height="16" rx="2" fill="#FFF" stroke="#E5E7EB"/>
    <text x="60" y="130" class="text-dark" font-size="12">vps-cloud-456</text>
    <text x="350" y="130" class="text-muted" font-size="12">VPS</text>
    <text x="500" y="130" fill="#D97706" font-size="12">10/01/2026</text>
    <rect x="700" y="115" width="44" height="24" rx="12" fill="#E5E7EB"/>
    <circle cx="712" cy="127" r="10" fill="#FFFFFF"/>
    <text x="760" y="132" class="text-dark" font-size="11">Désactivé</text>
    <text x="900" y="130" class="text-dark" font-size="12">19,99 €/mois</text>
    <text x="1100" y="130" class="text-primary" font-size="12">Modifier</text>
  </g>
</svg>
