<svg xmlns="http://www.w3.org/2000/svg" viewBox="0 0 1440 900" width="1440" height="900">
  <defs><style>.bg-header{fill:#000E9C}.bg-main{fill:#F6F6F9}.bg-white{fill:#FFFFFF}.text-white{fill:#FFFFFF;font-family:sans-serif}.text-dark{fill:#1F2937;font-family:sans-serif}.text-muted{fill:#6B7280;font-family:sans-serif}.text-primary{fill:#0050D7;font-family:sans-serif}.border{stroke:#E5E7EB;stroke-width:1;fill:none}</style></defs>
  <rect width="1440" height="900" class="bg-main"/>
  <rect width="1440" height="50" class="bg-header"/>
  <text x="40" y="32" class="text-white" font-size="14">Accueil</text>
  <rect x="0" y="50" width="1440" height="40" class="bg-white"/>
  <text x="40" y="75" class="text-primary" font-size="14" font-weight="600">Facturation</text>
  <g transform="translate(40,115)">
    <text y="0" class="text-dark" font-size="24" font-weight="600">Moyens de paiement</text>
  </g>
  <g transform="translate(40,165)">
    <rect width="200" height="40" rx="4" fill="#0050D7"/><text x="100" y="26" class="text-white" font-size="12" text-anchor="middle">+ Ajouter un moyen</text>
  </g>
  <g transform="translate(40,230)">
    <rect width="660" height="150" rx="8" class="bg-white"/><rect width="660" height="150" rx="8" class="border"/>
    <rect x="0" y="0" width="660" height="40" rx="8" fill="#E8F0FE"/>
    <text x="20" y="26" class="text-primary" font-size="13" font-weight="600">💳 Carte bancaire - Par défaut</text>
    <text x="20" y="75" class="text-dark" font-size="14">Visa •••• •••• •••• 4242</text>
    <text x="20" y="100" class="text-muted" font-size="12">Expire le 12/2027</text>
    <text x="520" y="90" class="text-primary" font-size="12">Modifier</text>
    <text x="590" y="90" fill="#DC2626" font-size="12">Supprimer</text>
  </g>
  <g transform="translate(40,400)">
    <rect width="660" height="150" rx="8" class="bg-white"/><rect width="660" height="150" rx="8" class="border"/>
    <text x="20" y="30" class="text-dark" font-size="13" font-weight="600">🏦 Prélèvement SEPA</text>
    <text x="20" y="75" class="text-dark" font-size="14">IBAN : FR76 •••• •••• •••• •••• •••• 123</text>
    <text x="20" y="100" class="text-muted" font-size="12">BIC : BNPAFRPP</text>
    <text x="480" y="90" class="text-primary" font-size="12">Par défaut</text>
    <text x="590" y="90" fill="#DC2626" font-size="12">Supprimer</text>
  </g>
  <g transform="translate(40,570)">
    <rect width="660" height="150" rx="8" class="bg-white"/><rect width="660" height="150" rx="8" class="border"/>
    <text x="20" y="30" class="text-dark" font-size="13" font-weight="600">💰 PayPal</text>
    <text x="20" y="75" class="text-dark" font-size="14">jean.dupont@example.com</text>
    <text x="20" y="100" class="text-muted" font-size="12">Connecté</text>
    <text x="480" y="90" class="text-primary" font-size="12">Par défaut</text>
    <text x="590" y="90" fill="#DC2626" font-size="12">Supprimer</text>
  </g>
</svg>
