<svg xmlns="http://www.w3.org/2000/svg" viewBox="0 0 1440 900" width="1440" height="900">
  <defs><style>.bg-header{fill:#000E9C}.bg-main{fill:#F6F6F9}.bg-white{fill:#FFFFFF}.text-white{fill:#FFFFFF;font-family:sans-serif}.text-dark{fill:#1F2937;font-family:sans-serif}.text-muted{fill:#6B7280;font-family:sans-serif}.text-primary{fill:#0050D7;font-family:sans-serif}.border{stroke:#E5E7EB;stroke-width:1;fill:none}.table-header{fill:#F9FAFB}</style></defs>
  <rect width="1440" height="900" class="bg-main"/>
  <rect width="1440" height="50" class="bg-header"/>
  <text x="40" y="32" class="text-white" font-size="14">Accueil</text>
  <rect x="0" y="50" width="1440" height="40" class="bg-white"/>
  <text x="40" y="75" class="text-primary" font-size="14" font-weight="600">Facturation</text>
  <g transform="translate(40,115)">
    <text y="0" class="text-dark" font-size="24" font-weight="600">Mes factures</text>
  </g>
  <g transform="translate(40,160)">
    <rect width="300" height="40" rx="4" fill="#F3F4F6" stroke="#E5E7EB"/>
    <text x="15" y="26" class="text-muted" font-size="12">🔍 Rechercher une facture...</text>
    <rect x="320" width="150" height="40" rx="4" fill="#FFF" stroke="#E5E7EB"/>
    <text x="335" y="26" class="text-dark" font-size="12">Toutes les dates</text>
    <text x="455" y="26" class="text-muted" font-size="12">▼</text>
    <rect x="1210" width="150" height="40" rx="4" fill="#0050D7"/><text x="1285" y="26" class="text-white" font-size="12" text-anchor="middle">📥 Exporter</text>
  </g>
  <g transform="translate(40,220)">
    <rect width="1360" height="500" rx="8" class="bg-white"/><rect width="1360" height="500" rx="8" class="border"/>
    <rect x="0" y="0" width="1360" height="45" rx="8" class="table-header"/>
    <text x="20" y="28" class="text-dark" font-size="11" font-weight="600">Référence</text>
    <text x="200" y="28" class="text-dark" font-size="11" font-weight="600">Date</text>
    <text x="350" y="28" class="text-dark" font-size="11" font-weight="600">Période</text>
    <text x="550" y="28" class="text-dark" font-size="11" font-weight="600">Montant HT</text>
    <text x="700" y="28" class="text-dark" font-size="11" font-weight="600">TVA</text>
    <text x="850" y="28" class="text-dark" font-size="11" font-weight="600">Montant TTC</text>
    <text x="1000" y="28" class="text-dark" font-size="11" font-weight="600">Statut</text>
    <text x="1150" y="28" class="text-dark" font-size="11" font-weight="600">Actions</text>
    <line x1="0" y1="45" x2="1360" y2="45" stroke="#E5E7EB"/>
    <text x="20" y="80" class="text-primary" font-size="12">FR2026010001</text>
    <text x="200" y="80" class="text-dark" font-size="12">01/01/2026</text>
    <text x="350" y="80" class="text-dark" font-size="12">Déc. 2025</text>
    <text x="550" y="80" class="text-dark" font-size="12">74,99 €</text>
    <text x="700" y="80" class="text-dark" font-size="12">15,00 €</text>
    <text x="850" y="80" class="text-dark" font-size="12" font-weight="600">89,99 €</text>
    <rect x="1000" y="65" width="60" height="22" rx="11" fill="#DEF7EC"/><text x="1030" y="80" fill="#059669" font-size="10" text-anchor="middle">Payée</text>
    <text x="1150" y="80" class="text-primary" font-size="12">PDF</text>
    <line x1="20" y1="100" x2="1340" y2="100" stroke="#E5E7EB"/>
    <text x="20" y="130" class="text-primary" font-size="12">FR2025120001</text>
    <text x="200" y="130" class="text-dark" font-size="12">01/12/2025</text>
    <text x="350" y="130" class="text-dark" font-size="12">Nov. 2025</text>
    <text x="550" y="130" class="text-dark" font-size="12">103,75 €</text>
    <text x="700" y="130" class="text-dark" font-size="12">20,75 €</text>
    <text x="850" y="130" class="text-dark" font-size="12" font-weight="600">124,50 €</text>
    <rect x="1000" y="115" width="60" height="22" rx="11" fill="#DEF7EC"/><text x="1030" y="130" fill="#059669" font-size="10" text-anchor="middle">Payée</text>
    <text x="1150" y="130" class="text-primary" font-size="12">PDF</text>
  </g>
</svg>
