<svg xmlns="http://www.w3.org/2000/svg" viewBox="0 0 1440 900" width="1440" height="900">
  <defs><style>.bg-header{fill:#000E9C}.bg-main{fill:#F6F6F9}.bg-white{fill:#FFFFFF}.text-white{fill:#FFFFFF;font-family:sans-serif}.text-dark{fill:#1F2937;font-family:sans-serif}.text-muted{fill:#6B7280;font-family:sans-serif}.overlay{fill:rgba(0,0,0,0.5)}</style></defs>
  <rect width="1440" height="900" class="bg-main"/>
  <rect width="1440" height="50" class="bg-header"/>
  <rect x="0" y="50" width="1440" height="850" class="overlay"/>
  <g transform="translate(420,220)">
    <rect width="600" height="350" rx="8" class="bg-white"/>
    <rect x="0" y="0" width="600" height="50" rx="8" fill="#F9FAFB"/>
    <text x="20" y="32" class="text-dark" font-size="16" font-weight="600">Activer le renouvellement automatique</text>
    <text x="570" y="32" class="text-muted" font-size="18">×</text>
    <g transform="translate(20,70)">
      <text y="20" class="text-dark" font-size="14" font-weight="600">Service : domain.example.com</text>
      <text y="45" class="text-muted" font-size="12">Prix du renouvellement : 9,99 €/an</text>
    </g>
    <g transform="translate(20,130)">
      <rect width="560" height="80" rx="4" fill="#DEF7EC"/>
      <text x="15" y="30" fill="#059669" font-size="12" font-weight="600">✓ Avantages du renouvellement automatique</text>
      <text x="15" y="55" fill="#059669" font-size="11">• Votre service ne sera jamais interrompu</text>
      <text x="15" y="75" fill="#059669" font-size="11">• Paiement automatique à l'échéance</text>
    </g>
    <g transform="translate(20,230)">
      <text y="15" class="text-dark" font-size="12">Moyen de paiement utilisé</text>
      <rect y="25" width="560" height="40" rx="4" fill="#F3F4F6" stroke="#E5E7EB"/>
      <text x="10" y="50" class="text-dark" font-size="12">💳 Visa •••• 4242 (par défaut)</text>
    </g>
    <g transform="translate(20,300)">
      <rect width="100" height="40" rx="4" fill="#FFF" stroke="#E5E7EB"/><text x="50" y="26" class="text-dark" font-size="12" text-anchor="middle">Annuler</text>
      <rect x="460" width="100" height="40" rx="4" fill="#059669"/><text x="510" y="26" class="text-white" font-size="12" text-anchor="middle">Activer</text>
    </g>
  </g>
</svg>
