<svg xmlns="http://www.w3.org/2000/svg" viewBox="0 0 1440 900" width="1440" height="900">
  <defs>
    <style>
      .bg-header { fill: #000E9C; }
      .bg-muted { fill: #F9FAFB; }
      .bg-white { fill: #FFFFFF; }
      .bg-primary { fill: #0050D7; }
      .bg-primary-light { fill: #E8F0FE; }
      .text-body { font-family: 'Source Sans Pro', sans-serif; font-size: 14px; fill: #1F2937; }
      .text-muted { font-family: 'Source Sans Pro', sans-serif; font-size: 14px; fill: #6B7280; }
      .text-white { font-family: 'Source Sans Pro', sans-serif; fill: #FFFFFF; }
      .text-primary { font-family: 'Source Sans Pro', sans-serif; fill: #0050D7; }
      .text-h1 { font-family: 'Source Sans Pro', sans-serif; font-size: 24px; font-weight: 600; fill: #1F2937; }
      .text-h3 { font-family: 'Source Sans Pro', sans-serif; font-size: 18px; font-weight: 600; fill: #1F2937; }
      .text-h4 { font-family: 'Source Sans Pro', sans-serif; font-size: 16px; font-weight: 600; fill: #1F2937; }
      .text-small { font-family: 'Source Sans Pro', sans-serif; font-size: 12px; fill: #6B7280; }
      .border { stroke: #E5E7EB; stroke-width: 1; fill: none; }
      .card { fill: #FFFFFF; stroke: #E5E7EB; stroke-width: 1; }
      .tab-active { fill: #0050D7; }
      .tab-inactive { fill: transparent; }
      .badge-success { fill: #DEF7EC; }
      .badge-warning { fill: #FEF3C7; }
      .text-success { fill: #03543F; }
      .text-warning { fill: #92400E; }
    </style>
  </defs>
  
  <!-- Background -->
  <rect width="1440" height="900" class="bg-muted"/>
  
  <!-- Header OVH -->
  <rect width="1440" height="60" class="bg-header"/>
  <text x="80" y="38" class="text-white" font-size="20" font-weight="bold">OVHcloud</text>
  <text x="200" y="38" class="text-white" font-size="14">Public Cloud</text>
  
  <!-- Sidebar -->
  <rect x="0" y="60" width="240" height="840" class="bg-white"/>
  <line x1="240" y1="60" x2="240" y2="900" stroke="#E5E7EB" stroke-width="1"/>
  
  <!-- Sidebar items -->
  <text x="20" y="100" class="text-muted" font-size="12" font-weight="600">PROJET</text>
  <text x="20" y="125" class="text-body" font-size="14">Mon Projet Cloud</text>
  
  <rect x="0" y="150" width="240" height="40" class="bg-primary-light"/>
  <text x="20" y="175" class="text-primary" font-size="14" font-weight="500">AI & Machine Learning</text>
  
  <text x="40" y="215" class="text-body" font-size="14">AI Dashboard</text>
  <text x="40" y="245" class="text-muted" font-size="14">AI Notebooks</text>
  <text x="40" y="275" class="text-muted" font-size="14">AI Training</text>
  <text x="40" y="305" class="text-muted" font-size="14">AI Deploy</text>
  
  <!-- Main content -->
  <g transform="translate(280, 80)">
    <!-- Breadcrumb -->
    <text x="0" y="20" class="text-muted" font-size="14">Public Cloud > Mon Projet > AI &amp; Machine Learning</text>
    
    <!-- Title -->
    <text x="0" y="60" class="text-h1">AI Dashboard</text>
    
    <!-- Tabs -->
    <g transform="translate(0, 90)">
      <rect x="0" y="0" width="120" height="36" rx="4" class="tab-active"/>
      <text x="15" y="23" class="text-white" font-size="14">Tableau de bord</text>
      
      <text x="140" y="23" class="text-muted" font-size="14">Utilisateurs</text>
      <rect x="225" y="7" width="20" height="18" rx="9" fill="#E5E7EB"/>
      <text x="231" y="20" class="text-body" font-size="12">3</text>
      
      <text x="265" y="23" class="text-muted" font-size="14">Tokens</text>
      <rect x="315" y="7" width="20" height="18" rx="9" fill="#E5E7EB"/>
      <text x="321" y="20" class="text-body" font-size="12">2</text>
      
      <text x="355" y="23" class="text-muted" font-size="14">Docker registries</text>
      <rect x="470" y="7" width="20" height="18" rx="9" fill="#E5E7EB"/>
      <text x="476" y="20" class="text-body" font-size="12">1</text>
      
      <text x="510" y="23" class="text-muted" font-size="14">Dépots Git privés</text>
      <rect x="625" y="7" width="20" height="18" rx="9" fill="#E5E7EB"/>
      <text x="631" y="20" class="text-body" font-size="12">0</text>
      
      <text x="665" y="23" class="text-muted" font-size="14">Datastores S3</text>
      <rect x="770" y="7" width="20" height="18" rx="9" fill="#E5E7EB"/>
      <text x="776" y="20" class="text-body" font-size="12">2</text>
    </g>
    
    <!-- Card: Vos services -->
    <g transform="translate(0, 150)">
      <rect x="0" y="0" width="1100" height="200" rx="8" class="card"/>
      <text x="20" y="35" class="text-h4">🧠 Vos services</text>
      
      <!-- 4 product cards -->
      <g transform="translate(20, 60)">
        <!-- Store -->
        <rect x="0" y="0" width="250" height="120" rx="6" stroke="#E5E7EB" fill="#FAFAFA"/>
        <text x="15" y="30" class="text-h4">1. Store</text>
        <text x="15" y="55" class="text-muted" font-size="14">Object storage</text>
        <text x="15" y="100" class="text-primary" font-size="14">Accéder →</text>
        
        <!-- Explore -->
        <rect x="270" y="0" width="250" height="120" rx="6" stroke="#E5E7EB" fill="#FAFAFA"/>
        <text x="285" y="30" class="text-h4">2. Explore</text>
        <text x="285" y="55" class="text-muted" font-size="14">AI Notebooks</text>
        <rect x="285" y="70" width="80" height="22" rx="4" class="badge-success"/>
        <text x="295" y="85" class="text-success" font-size="12">2 en service</text>
        <rect x="375" y="70" width="70" height="22" rx="4" class="badge-warning"/>
        <text x="385" y="85" class="text-warning" font-size="12">1 arrêté</text>
        
        <!-- Train -->
        <rect x="540" y="0" width="250" height="120" rx="6" stroke="#E5E7EB" fill="#FAFAFA"/>
        <text x="555" y="30" class="text-h4">3. Train</text>
        <text x="555" y="55" class="text-muted" font-size="14">AI Training</text>
        <rect x="555" y="70" width="80" height="22" rx="4" class="badge-success"/>
        <text x="565" y="85" class="text-success" font-size="12">1 en service</text>
        <rect x="645" y="70" width="70" height="22" rx="4" class="badge-warning"/>
        <text x="655" y="85" class="text-warning" font-size="12">0 arrêté</text>
        
        <!-- Deploy -->
        <rect x="810" y="0" width="250" height="120" rx="6" stroke="#E5E7EB" fill="#FAFAFA"/>
        <text x="825" y="30" class="text-h4">4. Deploy</text>
        <text x="825" y="55" class="text-muted" font-size="14">AI Deploy</text>
        <rect x="825" y="70" width="80" height="22" rx="4" class="badge-success"/>
        <text x="835" y="85" class="text-success" font-size="12">3 en service</text>
        <rect x="915" y="70" width="70" height="22" rx="4" class="badge-warning"/>
        <text x="925" y="85" class="text-warning" font-size="12">0 arrêté</text>
      </g>
    </g>
    
    <!-- Card: CLI -->
    <g transform="translate(0, 380)">
      <rect x="0" y="0" width="1100" height="280" rx="8" class="card"/>
      <text x="20" y="35" class="text-h4">⌨️ Command Line Interface (CLI)</text>
      
      <text x="20" y="70" class="text-body" font-size="14">Utilisez notre interface ovhai afin d'accéder et gérer vos notebooks, jobs et apps en lignes de commande (CLI).</text>
      
      <text x="20" y="110" class="text-h4">Installation</text>
      <text x="20" y="135" class="text-muted" font-size="14">Sélectionnez la région que vous souhaitez utiliser :</text>
      
      <!-- Region selector -->
      <rect x="20" y="150" width="200" height="36" rx="4" stroke="#E5E7EB" fill="#FFFFFF"/>
      <text x="35" y="173" class="text-body" font-size="14">GRA (Gravelines)</text>
      <text x="195" y="173" class="text-muted" font-size="14">▼</text>
      
      <!-- Code block -->
      <rect x="20" y="200" width="700" height="50" rx="4" fill="#1F2937"/>
      <text x="35" y="230" fill="#10B981" font-family="monospace" font-size="13">curl -fsSL https://cli.ovh.ai | bash</text>
      <rect x="680" y="210" width="30" height="30" rx="4" fill="#374151"/>
      <text x="688" y="230" fill="#9CA3AF" font-size="12">📋</text>
      
      <text x="20" y="265" class="text-primary" font-size="14">Gérer mes utilisateurs</text>
      <text x="180" y="265" class="text-primary" font-size="14">Gérer mes tokens</text>
    </g>
  </g>
  
  <!-- Guides button (top right) -->
  <rect x="1300" y="100" width="100" height="36" rx="4" stroke="#0050D7" fill="#FFFFFF"/>
  <text x="1320" y="123" class="text-primary" font-size="14">📖 Guides</text>
</svg>