<svg xmlns="http://www.w3.org/2000/svg" viewBox="0 0 1440 850" width="1440" height="850">
  <defs>
    <style>
      .bg-muted { fill: #F9FAFB; }
      .bg-white { fill: #FFFFFF; }
      .bg-header { fill: #000E9C; }
      .bg-primary { fill: #0050D7; }
      .bg-primary-light { fill: #E8F0FE; }
      .bg-neutral-100 { fill: #F3F4F6; }
      .text-body { font-family: 'Source Sans Pro', sans-serif; font-size: 14px; fill: #1F2937; }
      .text-muted { font-family: 'Source Sans Pro', sans-serif; font-size: 12px; fill: #6B7280; }
      .text-link { font-family: 'Source Sans Pro', sans-serif; font-size: 14px; fill: #0050D7; }
      .text-white { font-family: 'Source Sans Pro', sans-serif; font-size: 14px; fill: #FFFFFF; }
      .text-title { font-family: 'Source Sans Pro', sans-serif; font-size: 20px; font-weight: 600; fill: #1F2937; }
      .text-header { font-family: 'Source Sans Pro', sans-serif; font-size: 13px; font-weight: 600; fill: #1F2937; }
      .border { stroke: #E5E7EB; stroke-width: 1; fill: none; }
      .badge-role { fill: #E8F0FE; }
      .badge-role-text { font-family: 'Source Sans Pro', sans-serif; font-size: 11px; fill: #0050D7; }
      .action-menu { fill: #FFFFFF; stroke: #E5E7EB; filter: drop-shadow(0 4px 6px rgba(0,0,0,0.1)); }
    </style>
  </defs>
  
  <!-- Background -->
  <rect width="1440" height="850" class="bg-muted"/>
  
  <!-- Header OVH -->
  <rect width="1440" height="60" class="bg-header"/>
  <text x="80" y="38" class="text-white" font-size="18" font-weight="bold">OVHcloud</text>
  
  <!-- Sidebar -->
  <rect x="0" y="60" width="240" height="790" class="bg-white"/>
  <rect x="240" y="60" width="1" height="790" class="border"/>
  
  <!-- Sidebar Navigation -->
  <text x="20" y="100" class="text-muted" font-size="11" font-weight="600">AI &amp; MACHINE LEARNING</text>
  <text x="20" y="134" class="text-body">AI Deploy</text>
  <text x="20" y="166" class="text-body">AI Training</text>
  <text x="20" y="198" class="text-body">AI Notebooks</text>
  <rect x="0" y="206" width="240" height="36" class="bg-primary-light"/>
  <text x="20" y="230" class="text-link" font-weight="600">AI Dashboard</text>
  
  <!-- Main Content -->
  <g transform="translate(280, 90)">
    <!-- Sub-tabs -->
    <g transform="translate(0, 0)">
      <text x="0" y="20" class="text-body">Home</text>
      <text x="70" y="20" class="text-body">Datastore</text>
      <text x="160" y="20" class="text-body">Docker</text>
      <text x="230" y="20" class="text-body">Git</text>
      <rect x="270" y="2" width="80" height="30" fill="#0050D7" rx="4"/>
      <text x="287" y="22" class="text-white">Tokens</text>
      <text x="370" y="20" class="text-body">Utilisateurs</text>
    </g>
    
    <!-- Guides link -->
    <text x="1000" y="20" class="text-link">📖 Guides</text>
    
    <!-- Title -->
    <text x="0" y="70" class="text-title">Gérer les accès via des tokens applicatifs</text>
    
    <!-- Description -->
    <text x="0" y="110" class="text-body">La sécurité de vos données et de vos activités est primordiale. C'est la raison pour laquelle</text>
    <text x="0" y="130" class="text-body">une authentification supplémentaire vous est demandée lorsque vous utilisez les AI Tools.</text>
    
    <text x="0" y="165" class="text-body">Les tokens sont des jetons uniques d'authentification. Ils vous permettent d'accéder à vos</text>
    <text x="0" y="185" class="text-body">notebooks, jobs et apps de façon granulaire, par exemple en effectuant une sélection par label.</text>
    
    <text x="0" y="220" class="text-body">Les tokens sont spécifiques aux AI Tools.</text>
    
    <!-- Action Button -->
    <rect x="0" y="250" width="160" height="40" rx="4" class="bg-primary"/>
    <text x="20" y="276" class="text-white">+ Créer un token</text>
    
    <!-- Table -->
    <g transform="translate(0, 320)">
      <!-- Table Header -->
      <rect x="0" y="0" width="1080" height="44" class="bg-neutral-100"/>
      <text x="20" y="28" class="text-header">Name</text>
      <text x="180" y="28" class="text-header">Sélecteur de labels</text>
      <text x="420" y="28" class="text-header">Région</text>
      <text x="550" y="28" class="text-header">Rôle</text>
      <text x="700" y="28" class="text-header">Date de création</text>
      <text x="1020" y="28" class="text-header">Actions</text>
      
      <!-- Row 1 -->
      <rect x="0" y="44" width="1080" height="56" class="bg-white"/>
      <line x1="0" y1="100" x2="1080" y2="100" stroke="#E5E7EB"/>
      <text x="20" y="78" class="text-body">token-prod-ml</text>
      <text x="180" y="78" class="text-muted">env=production</text>
      <text x="420" y="78" class="text-body">GRA</text>
      <rect x="550" y="64" width="90" height="24" rx="12" class="badge-role"/>
      <text x="565" y="81" class="badge-role-text">AI Operator</text>
      <text x="700" y="78" class="text-body">27/12/2024</text>
      <text x="1040" y="78" class="text-body" font-size="20">⋮</text>
      
      <!-- Row 2 -->
      <rect x="0" y="100" width="1080" height="56" class="bg-white"/>
      <line x1="0" y1="156" x2="1080" y2="156" stroke="#E5E7EB"/>
      <text x="20" y="134" class="text-body">token-dev-notebooks</text>
      <text x="180" y="134" class="text-muted">type=notebook</text>
      <text x="420" y="134" class="text-body">BHS</text>
      <rect x="550" y="120" width="75" height="24" rx="12" class="badge-role"/>
      <text x="565" y="137" class="badge-role-text">AI Reader</text>
      <text x="700" y="134" class="text-body">26/12/2024</text>
      <text x="1040" y="134" class="text-body" font-size="20">⋮</text>
      
      <!-- Row 3 -->
      <rect x="0" y="156" width="1080" height="56" class="bg-white"/>
      <line x1="0" y1="212" x2="1080" y2="212" stroke="#E5E7EB"/>
      <text x="20" y="190" class="text-body">ci-cd-pipeline</text>
      <text x="180" y="190" class="text-muted">-</text>
      <text x="420" y="190" class="text-body">GRA</text>
      <rect x="550" y="176" width="90" height="24" rx="12" class="badge-role"/>
      <text x="565" y="193" class="badge-role-text">AI Operator</text>
      <text x="700" y="190" class="text-body">20/12/2024</text>
      <text x="1040" y="190" class="text-body" font-size="20">⋮</text>
      
      <!-- Action Menu OUVERT sur row 2 -->
      <g transform="translate(960, 135)">
        <rect x="0" y="0" width="120" height="90" rx="4" class="action-menu"/>
        <text x="12" y="35" class="text-body">🔄 Regénérer</text>
        <line x1="0" y1="50" x2="120" y2="50" stroke="#E5E7EB"/>
        <text x="12" y="75" fill="#991B1B" font-size="13">🗑️ Supprimer</text>
      </g>
    </g>
    
    <!-- Pagination -->
    <g transform="translate(0, 560)">
      <text x="0" y="0" class="text-muted">Affichage de 1 à 3 sur 3 résultats</text>
    </g>
  </g>
</svg>