<?xml version="1.0" encoding="UTF-8"?>
<svg width="1100" height="600" viewBox="0 0 1100 600" fill="none" xmlns="http://www.w3.org/2000/svg">
  <title>IAM - SSO Configuration</title>
  <rect width="1100" height="600" fill="#F9FAFB"/>
  <g transform="translate(30, 30)"><text x="0" y="0" fill="#1F2937" font-family="system-ui, sans-serif" font-size="22" font-weight="600">Single Sign-On (SSO)</text><text x="0" y="30" fill="#6B7280" font-family="system-ui, sans-serif" font-size="13">Configuration de l'authentification fédérée.</text></g>
  <g transform="translate(30, 90)">
    <rect x="0" y="0" width="510" height="220" rx="8" fill="white" stroke="#E5E7EB"/>
    <text x="20" y="30" fill="#1F2937" font-family="system-ui, sans-serif" font-size="15" font-weight="600">Fournisseur d'identité (IdP)</text>
    <g transform="translate(20, 55)">
      <text x="0" y="15" fill="#6B7280" font-family="system-ui, sans-serif" font-size="12">Type</text>
      <g transform="translate(0, 25)"><rect x="0" y="0" width="230" height="40" rx="4" fill="white" stroke="#E5E7EB"/><text x="15" y="26" fill="#1F2937" font-family="system-ui, sans-serif" font-size="13">SAML 2.0</text><text x="205" y="26" fill="#6B7280" font-family="system-ui, sans-serif" font-size="10">▼</text></g>
      <g transform="translate(250, 0)">
        <text x="0" y="15" fill="#6B7280" font-family="system-ui, sans-serif" font-size="12">État</text>
        <g transform="translate(0, 25)"><rect x="0" y="0" width="100" height="40" rx="4" fill="#DCFCE7"/><text x="25" y="26" fill="#16A34A" font-family="system-ui, sans-serif" font-size="13">Actif</text></g>
      </g>
    </g>
    <g transform="translate(20, 145)">
      <text x="0" y="15" fill="#6B7280" font-family="system-ui, sans-serif" font-size="12">Entity ID</text>
      <g transform="translate(0, 25)"><rect x="0" y="0" width="470" height="36" rx="4" fill="#F9FAFB"/><text x="10" y="24" fill="#1F2937" font-family="monospace" font-size="11">https://sso.company.com/saml/metadata</text></g>
    </g>
  </g>
  <g transform="translate(560, 90)">
    <rect x="0" y="0" width="510" height="220" rx="8" fill="white" stroke="#E5E7EB"/>
    <text x="20" y="30" fill="#1F2937" font-family="system-ui, sans-serif" font-size="15" font-weight="600">Configuration OVHcloud (SP)</text>
    <g transform="translate(20, 55)">
      <text x="0" y="15" fill="#6B7280" font-family="system-ui, sans-serif" font-size="12">Assertion Consumer Service (ACS)</text>
      <g transform="translate(0, 25)"><rect x="0" y="0" width="470" height="36" rx="4" fill="#F9FAFB"/><text x="10" y="24" fill="#1F2937" font-family="monospace" font-size="10">https://www.ovh.com/auth/sso/saml/acs</text><g transform="translate(430, 8)"><rect x="0" y="0" width="30" height="20" rx="4" fill="white" stroke="#E5E7EB"/><text x="8" y="14" fill="#6B7280" font-family="system-ui, sans-serif" font-size="10">📋</text></g></g>
    </g>
    <g transform="translate(20, 125)">
      <text x="0" y="15" fill="#6B7280" font-family="system-ui, sans-serif" font-size="12">SP Entity ID</text>
      <g transform="translate(0, 25)"><rect x="0" y="0" width="470" height="36" rx="4" fill="#F9FAFB"/><text x="10" y="24" fill="#1F2937" font-family="monospace" font-size="10">https://www.ovh.com/auth/sso/saml</text><g transform="translate(430, 8)"><rect x="0" y="0" width="30" height="20" rx="4" fill="white" stroke="#E5E7EB"/><text x="8" y="14" fill="#6B7280" font-family="system-ui, sans-serif" font-size="10">📋</text></g></g>
    </g>
  </g>
  <g transform="translate(30, 340)">
    <rect x="0" y="0" width="1040" height="230" rx="8" fill="white" stroke="#E5E7EB"/>
    <text x="20" y="30" fill="#1F2937" font-family="system-ui, sans-serif" font-size="15" font-weight="600">Mapping des attributs</text>
    <g transform="translate(20, 55)">
      <g transform="translate(0, 0)"><text x="0" y="0" fill="#6B7280" font-family="system-ui, sans-serif" font-size="12" font-weight="500">Attribut IdP</text><text x="350" y="0" fill="#6B7280" font-family="system-ui, sans-serif" font-size="12" font-weight="500">Champ OVHcloud</text></g>
      <g transform="translate(0, 25)">
        <rect x="0" y="0" width="320" height="36" rx="4" fill="white" stroke="#E5E7EB"/>
        <text x="15" y="24" fill="#1F2937" font-family="system-ui, sans-serif" font-size="12">http://schemas.xmlsoap.org/.../emailaddress</text>
      </g>
      <text x="330" y="48" fill="#6B7280" font-family="system-ui, sans-serif" font-size="14">→</text>
      <g transform="translate(350, 25)">
        <rect x="0" y="0" width="200" height="36" rx="4" fill="#F9FAFB"/>
        <text x="15" y="24" fill="#1F2937" font-family="system-ui, sans-serif" font-size="12">email</text>
      </g>
      <g transform="translate(0, 75)">
        <rect x="0" y="0" width="320" height="36" rx="4" fill="white" stroke="#E5E7EB"/>
        <text x="15" y="24" fill="#1F2937" font-family="system-ui, sans-serif" font-size="12">http://schemas.xmlsoap.org/.../givenname</text>
      </g>
      <text x="330" y="98" fill="#6B7280" font-family="system-ui, sans-serif" font-size="14">→</text>
      <g transform="translate(350, 75)">
        <rect x="0" y="0" width="200" height="36" rx="4" fill="#F9FAFB"/>
        <text x="15" y="24" fill="#1F2937" font-family="system-ui, sans-serif" font-size="12">firstname</text>
      </g>
      <g transform="translate(0, 125)">
        <rect x="0" y="0" width="320" height="36" rx="4" fill="white" stroke="#E5E7EB"/>
        <text x="15" y="24" fill="#1F2937" font-family="system-ui, sans-serif" font-size="12">http://schemas.xmlsoap.org/.../surname</text>
      </g>
      <text x="330" y="148" fill="#6B7280" font-family="system-ui, sans-serif" font-size="14">→</text>
      <g transform="translate(350, 125)">
        <rect x="0" y="0" width="200" height="36" rx="4" fill="#F9FAFB"/>
        <text x="15" y="24" fill="#1F2937" font-family="system-ui, sans-serif" font-size="12">lastname</text>
      </g>
    </g>
    <g transform="translate(650, 70)"><rect x="0" y="0" width="160" height="36" rx="4" fill="#0050D7"/><text x="25" y="24" fill="white" font-family="system-ui, sans-serif" font-size="12">+ Ajouter mapping</text></g>
  </g>
</svg>
