<svg xmlns="http://www.w3.org/2000/svg" viewBox="0 0 1440 900" width="1440" height="900">
  <defs>
    <style>
      .bg-header { fill: #000E9C; }
      .bg-main { fill: #F6F6F9; }
      .bg-white { fill: #FFFFFF; }
      .bg-primary { fill: #0050D7; }
      .border { stroke: #E5E7EB; stroke-width: 1; fill: none; }
      .divider { stroke: #E5E7EB; stroke-width: 1; }
      .text-white { fill: #FFFFFF; font-family: 'Source Sans Pro', sans-serif; }
      .text-dark { fill: #1F2937; font-family: 'Source Sans Pro', sans-serif; }
      .text-muted { fill: #6B7280; font-family: 'Source Sans Pro', sans-serif; }
      .text-primary { fill: #0050D7; font-family: 'Source Sans Pro', sans-serif; }
      .modal-overlay { fill: rgba(0,0,0,0.5); }
    </style>
  </defs>

  <!-- Background -->
  <rect width="1440" height="900" class="bg-main"/>

  <!-- NAV1 -->
  <rect width="1440" height="50" class="bg-header"/>
  <text x="680" y="32" class="text-white" font-size="14" font-weight="600">IAM / Sécurité</text>
  <rect x="675" y="46" width="95" height="3" fill="#FFFFFF"/>

  <!-- NAV2 -->
  <rect x="0" y="50" width="1440" height="40" class="bg-white"/>
  <line x1="0" y1="89" x2="1440" y2="89" class="divider"/>

  <!-- Modal Overlay -->
  <rect width="1440" height="900" class="modal-overlay"/>

  <!-- Modal - Condition Date -->
  <g transform="translate(420, 150)">
    <rect x="0" y="0" width="600" height="500" rx="8" class="bg-white" filter="drop-shadow(0 4px 20px rgba(0,0,0,0.15))"/>

    <!-- Header -->
    <text x="24" y="38" class="text-dark" font-size="18" font-weight="600">Condition: Date</text>
    <text x="560" y="38" class="text-muted" font-size="20">×</text>
    <line x1="0" y1="60" x2="600" y2="60" class="divider"/>

    <!-- Content -->
    <g transform="translate(24, 80)">
      <!-- Type -->
      <text x="0" y="16" class="text-dark" font-size="12" font-weight="500">Type de condition</text>
      <rect x="0" y="24" width="552" height="36" rx="4" fill="#F9FAFB" stroke="#E5E7EB"/>
      <text x="12" y="48" class="text-dark" font-size="12">Date</text>

      <!-- Opérateur -->
      <g transform="translate(0, 80)">
        <text x="0" y="16" class="text-dark" font-size="12" font-weight="500">Opérateur</text>
        <rect x="0" y="24" width="552" height="36" rx="4" fill="#FFFFFF" stroke="#E5E7EB"/>
        <text x="12" y="48" class="text-dark" font-size="12">Après</text>
        <text x="530" y="48" class="text-muted" font-size="12">▼</text>
      </g>

      <!-- Date picker -->
      <g transform="translate(0, 160)">
        <text x="0" y="16" class="text-dark" font-size="12" font-weight="500">Date</text>
        <rect x="0" y="24" width="552" height="36" rx="4" fill="#FFFFFF" stroke="#E5E7EB"/>
        <text x="12" y="48" class="text-muted" font-size="12">Sélectionnez une date</text>
        <text x="520" y="48" class="text-muted" font-size="14">📅</text>
      </g>

      <!-- Calendar popup -->
      <g transform="translate(0, 200)">
        <rect x="0" y="0" width="280" height="220" rx="4" fill="#FFFFFF" stroke="#E5E7EB" filter="drop-shadow(0 2px 8px rgba(0,0,0,0.1))"/>
        <!-- Month header -->
        <rect x="0" y="0" width="280" height="36" fill="#F9FAFB"/>
        <text x="20" y="24" class="text-muted" font-size="14">◄</text>
        <text x="140" y="24" class="text-dark" font-size="12" font-weight="500" text-anchor="middle">Janvier 2026</text>
        <text x="260" y="24" class="text-muted" font-size="14">►</text>
        <!-- Days -->
        <text x="20" y="56" class="text-muted" font-size="10">Lu</text>
        <text x="60" y="56" class="text-muted" font-size="10">Ma</text>
        <text x="100" y="56" class="text-muted" font-size="10">Me</text>
        <text x="140" y="56" class="text-muted" font-size="10">Je</text>
        <text x="180" y="56" class="text-muted" font-size="10">Ve</text>
        <text x="220" y="56" class="text-muted" font-size="10">Sa</text>
        <text x="260" y="56" class="text-muted" font-size="10">Di</text>
        <!-- Week 1 -->
        <text x="60" y="80" class="text-muted" font-size="11">1</text>
        <circle cx="100" cy="76" r="12" class="bg-primary"/>
        <text x="100" y="80" class="text-white" font-size="11" text-anchor="middle">2</text>
        <text x="140" y="80" class="text-dark" font-size="11">3</text>
        <text x="180" y="80" class="text-dark" font-size="11">4</text>
        <text x="220" y="80" class="text-dark" font-size="11">5</text>
        <!-- More weeks... -->
        <text x="20" y="104" class="text-dark" font-size="11">6</text>
        <text x="60" y="104" class="text-dark" font-size="11">7</text>
      </g>

      <!-- Timezone -->
      <g transform="translate(300, 160)">
        <text x="0" y="16" class="text-dark" font-size="12" font-weight="500">Fuseau horaire</text>
        <rect x="0" y="24" width="252" height="36" rx="4" fill="#FFFFFF" stroke="#E5E7EB"/>
        <text x="12" y="48" class="text-dark" font-size="12">Europe/Paris (UTC+1)</text>
        <text x="230" y="48" class="text-muted" font-size="12">▼</text>
      </g>
    </g>

    <!-- Footer -->
    <g transform="translate(0, 440)">
      <line x1="0" y1="0" x2="600" y2="0" class="divider"/>
      <rect x="360" y="16" width="100" height="36" rx="4" stroke="#E5E7EB" fill="#FFFFFF"/>
      <text x="392" y="40" class="text-muted" font-size="13">Annuler</text>
      <rect x="470" y="16" width="106" height="36" rx="4" class="bg-primary"/>
      <text x="498" y="40" class="text-white" font-size="13">Configurer</text>
    </g>
  </g>
</svg>
