<svg xmlns="http://www.w3.org/2000/svg" viewBox="0 0 1440 900" width="1440" height="900">
  <defs>
    <style>
      .bg-header { fill: #000E9C; }
      .bg-main { fill: #F6F6F9; }
      .bg-white { fill: #FFFFFF; }
      .bg-primary { fill: #0050D7; }
      .bg-success { fill: #DEF7EC; }
      .bg-info { fill: #DBEAFE; }
      .bg-warning { fill: #FEF3C7; }
      .border { stroke: #E5E7EB; stroke-width: 1; fill: none; }
      .divider { stroke: #E5E7EB; stroke-width: 1; }
      .btn-outline { stroke: #0050D7; stroke-width: 1; fill: #FFFFFF; }
      .btn-primary { fill: #0050D7; }
      .card-selected { stroke: #0050D7; stroke-width: 2; fill: #FFFFFF; }
      .row-selected { fill: #E8F0FE; }
      .table-header { fill: #F9FAFB; }
      .text-white { fill: #FFFFFF; font-family: 'Source Sans Pro', sans-serif; }
      .text-dark { fill: #1F2937; font-family: 'Source Sans Pro', sans-serif; }
      .text-muted { fill: #6B7280; font-family: 'Source Sans Pro', sans-serif; }
      .text-primary { fill: #0050D7; font-family: 'Source Sans Pro', sans-serif; }
      .text-warning { fill: #D97706; font-family: 'Source Sans Pro', sans-serif; }
    </style>
  </defs>

  <rect width="1440" height="900" class="bg-main"/>

  <!-- NAV1 - Web Cloud actif -->
  <rect width="1440" height="50" class="bg-header"/>
  <text x="40" y="32" class="text-white" font-size="14" opacity="0.7">Accueil</text>
  <text x="110" y="32" class="text-white" font-size="14" opacity="0.7">Public Cloud</text>
  <text x="210" y="32" class="text-white" font-size="14" opacity="0.7">Hosted Private Cloud</text>
  <text x="370" y="32" class="text-white" font-size="14" opacity="0.7">Bare Metal Cloud</text>
  <text x="510" y="32" class="text-white" font-size="14" font-weight="600">Web Cloud</text>
  <rect x="505" y="46" width="75" height="3" fill="#FFFFFF"/>
  <text x="620" y="32" class="text-white" font-size="14" opacity="0.7">Network</text>
  <text x="700" y="32" class="text-white" font-size="14" opacity="0.7">IAM / Securite</text>
  <text x="810" y="32" class="text-white" font-size="14" opacity="0.7">Licences</text>

  <!-- NAV2 - Hébergement actif -->
  <rect x="0" y="50" width="1440" height="40" class="bg-white"/>
  <line x1="0" y1="89" x2="1440" y2="89" class="divider"/>
  <text x="40" y="75" class="text-muted" font-size="14">Accueil</text>
  <text x="110" y="75" class="text-muted" font-size="14">Domaines et DNS</text>
  <text x="240" y="75" class="text-primary" font-size="14" font-weight="600">Hébergement</text>
  <rect x="235" y="85" width="85" height="3" fill="#0050D7"/>
  <text x="345" y="75" class="text-muted" font-size="14">Wordpress</text>
  <text x="430" y="75" class="text-muted" font-size="14">Emails</text>
  <text x="500" y="75" class="text-muted" font-size="14">VoIP</text>
  <text x="550" y="75" class="text-muted" font-size="14">Accès</text>
  <text x="1350" y="75" class="text-primary" font-size="13">Guides</text>

  <!-- CONTENT AREA -->
  <g transform="translate(0, 105)">
    <g transform="translate(24, 0)">
      <!-- LEFT PANEL -->
      <rect x="0" y="0" width="280" height="765" rx="8" class="bg-white"/>
      <rect x="0" y="0" width="280" height="765" rx="8" class="border"/>

      <rect x="12" y="12" width="256" height="34" rx="4" fill="#F9FAFB" stroke="#E5E7EB"/>
      <text x="40" y="34" class="text-muted" font-size="12">Rechercher...</text>

      <rect x="6" y="60" width="268" height="50" rx="6" class="row-selected"/>
      <circle cx="28" cy="85" r="14" fill="#0050D7"/>
      <text x="28" y="89" class="text-white" font-size="10" text-anchor="middle">H</text>
      <text x="52" y="80" class="text-dark" font-size="12" font-weight="500">hosting-example.ovh</text>
      <text x="52" y="95" class="text-muted" font-size="10">Perso</text>
      <rect x="210" y="76" width="46" height="18" rx="9" fill="#DEF7EC"/>
      <text x="233" y="89" fill="#03543F" font-size="9" text-anchor="middle">Actif</text>
    </g>

    <g transform="translate(320, 0)">
      <rect x="0" y="0" width="1096" height="765" rx="8" class="bg-white"/>
      <rect x="0" y="0" width="1096" height="765" rx="8" class="border"/>

      <g transform="translate(20, 0)">
        <text x="0" y="24" class="text-dark" font-size="18" font-weight="600">Changer d'offre</text>
        <text x="0" y="48" class="text-muted" font-size="12">hosting-example.ovh</text>

        <!-- Breadcrumb / Wizard steps -->
        <g transform="translate(0, 70)">
          <circle cx="15" cy="10" r="10" fill="#0050D7"/>
          <text x="15" y="14" class="text-white" font-size="10" text-anchor="middle">1</text>
          <text x="35" y="14" class="text-primary" font-size="11" font-weight="600">Offre</text>

          <line x1="80" y1="10" x2="130" y2="10" stroke="#E5E7EB" stroke-width="2"/>

          <circle cx="145" cy="10" r="10" stroke="#E5E7EB" fill="#FFFFFF"/>
          <text x="145" y="14" class="text-muted" font-size="10" text-anchor="middle">2</text>
          <text x="165" y="14" class="text-muted" font-size="11">Configuration</text>

          <line x1="250" y1="10" x2="300" y2="10" stroke="#E5E7EB" stroke-width="2"/>

          <circle cx="315" cy="10" r="10" stroke="#E5E7EB" fill="#FFFFFF"/>
          <text x="315" y="14" class="text-muted" font-size="10" text-anchor="middle">3</text>
          <text x="335" y="14" class="text-muted" font-size="11">Confirmation</text>
        </g>

        <!-- Offre actuelle -->
        <g transform="translate(0, 110)">
          <rect x="0" y="0" width="1040" height="50" rx="6" class="bg-info"/>
          <text x="20" y="22" class="text-dark" font-size="11" font-weight="600">Offre actuelle :</text>
          <text x="120" y="22" class="text-dark" font-size="11">Perso</text>
          <text x="20" y="40" class="text-muted" font-size="10">100 Go d'espace disque • 10 bases de données • 100 comptes email</text>
        </g>

        <!-- Offer cards -->
        <g transform="translate(0, 180)">
          <!-- Starter -->
          <rect x="0" y="0" width="200" height="280" rx="8" stroke="#E5E7EB" fill="#FFFFFF"/>
          <text x="20" y="30" class="text-dark" font-size="14" font-weight="600">Starter</text>
          <text x="20" y="55" class="text-muted" font-size="11">100 Mo</text>
          <text x="20" y="85" class="text-dark" font-size="20" font-weight="600">1,99 €</text>
          <text x="90" y="85" class="text-muted" font-size="11">HT/mois</text>
          <line x1="20" y1="100" x2="180" y2="100" stroke="#E5E7EB"/>
          <text x="20" y="125" class="text-muted" font-size="10">• 1 site web</text>
          <text x="20" y="145" class="text-muted" font-size="10">• 1 base de données</text>
          <text x="20" y="165" class="text-muted" font-size="10">• 10 comptes email</text>
          <rect x="20" y="230" width="160" height="32" rx="4" fill="#F3F4F6"/>
          <text x="100" y="250" class="text-muted" font-size="11" text-anchor="middle">Non disponible</text>

          <!-- Perso (actuel) -->
          <rect x="220" y="0" width="200" height="280" rx="8" class="card-selected"/>
          <rect x="310" y="8" width="60" height="18" rx="9" fill="#0050D7"/>
          <text x="340" y="20" class="text-white" font-size="9" text-anchor="middle">ACTUEL</text>
          <text x="240" y="30" class="text-dark" font-size="14" font-weight="600">Perso</text>
          <text x="240" y="55" class="text-muted" font-size="11">100 Go</text>
          <text x="240" y="85" class="text-dark" font-size="20" font-weight="600">3,99 €</text>
          <text x="310" y="85" class="text-muted" font-size="11">HT/mois</text>
          <line x1="240" y1="100" x2="400" y2="100" stroke="#E5E7EB"/>
          <text x="240" y="125" class="text-muted" font-size="10">• Sites illimités</text>
          <text x="240" y="145" class="text-muted" font-size="10">• 10 bases de données</text>
          <text x="240" y="165" class="text-muted" font-size="10">• 100 comptes email</text>

          <!-- Pro -->
          <rect x="440" y="0" width="200" height="280" rx="8" stroke="#E5E7EB" fill="#FFFFFF"/>
          <text x="460" y="30" class="text-dark" font-size="14" font-weight="600">Pro</text>
          <text x="460" y="55" class="text-muted" font-size="11">250 Go</text>
          <text x="460" y="85" class="text-dark" font-size="20" font-weight="600">7,99 €</text>
          <text x="530" y="85" class="text-muted" font-size="11">HT/mois</text>
          <line x1="460" y1="100" x2="620" y2="100" stroke="#E5E7EB"/>
          <text x="460" y="125" class="text-muted" font-size="10">• Sites illimités</text>
          <text x="460" y="145" class="text-muted" font-size="10">• 25 bases de données</text>
          <text x="460" y="165" class="text-muted" font-size="10">• 500 comptes email</text>
          <text x="460" y="185" class="text-muted" font-size="10">• Web Cloud DB inclus</text>
          <rect x="460" y="230" width="160" height="32" rx="4" class="btn-primary"/>
          <text x="540" y="250" class="text-white" font-size="11" text-anchor="middle">Sélectionner</text>

          <!-- Performance 1 -->
          <rect x="660" y="0" width="200" height="280" rx="8" stroke="#E5E7EB" fill="#FFFFFF"/>
          <text x="680" y="30" class="text-dark" font-size="14" font-weight="600">Performance 1</text>
          <text x="680" y="55" class="text-muted" font-size="11">500 Go</text>
          <text x="680" y="85" class="text-dark" font-size="20" font-weight="600">15,99 €</text>
          <text x="760" y="85" class="text-muted" font-size="11">HT/mois</text>
          <line x1="680" y1="100" x2="840" y2="100" stroke="#E5E7EB"/>
          <text x="680" y="125" class="text-muted" font-size="10">• Sites illimités</text>
          <text x="680" y="145" class="text-muted" font-size="10">• 50 bases de données</text>
          <text x="680" y="165" class="text-muted" font-size="10">• 1000 comptes email</text>
          <text x="680" y="185" class="text-muted" font-size="10">• Ressources dédiées</text>
          <rect x="680" y="230" width="160" height="32" rx="4" class="btn-primary"/>
          <text x="760" y="250" class="text-white" font-size="11" text-anchor="middle">Sélectionner</text>

          <!-- Performance 2 -->
          <rect x="880" y="0" width="160" height="280" rx="8" stroke="#E5E7EB" fill="#FFFFFF"/>
          <text x="900" y="30" class="text-dark" font-size="14" font-weight="600">Perf 2</text>
          <text x="900" y="55" class="text-muted" font-size="11">500 Go</text>
          <text x="900" y="85" class="text-dark" font-size="20" font-weight="600">29,99 €</text>
          <text x="900" y="105" class="text-muted" font-size="10">HT/mois</text>
          <rect x="890" y="230" width="140" height="32" rx="4" class="btn-primary"/>
          <text x="960" y="250" class="text-white" font-size="11" text-anchor="middle">Sélectionner</text>
        </g>

        <!-- Warning -->
        <g transform="translate(0, 480)">
          <rect x="0" y="0" width="1040" height="60" rx="6" class="bg-warning"/>
          <text x="20" y="22" class="text-warning" font-size="11" font-weight="600">⚠️ Attention</text>
          <text x="20" y="42" class="text-dark" font-size="11">La migration vers une offre inférieure peut entraîner la perte de certaines fonctionnalités.</text>
        </g>

        <!-- Navigation buttons -->
        <g transform="translate(0, 560)">
          <rect x="850" y="0" width="90" height="36" rx="4" stroke="#E5E7EB" fill="#FFFFFF"/>
          <text x="895" y="23" class="text-dark" font-size="11" text-anchor="middle">Annuler</text>

          <rect x="950" y="0" width="90" height="36" rx="4" class="btn-primary"/>
          <text x="995" y="23" class="text-white" font-size="11" text-anchor="middle">Suivant</text>
        </g>
      </g>
    </g>
  </g>
</svg>
