<svg xmlns="http://www.w3.org/2000/svg" viewBox="0 0 1440 900" width="1440" height="900">
  <defs><style>.bg-header{fill:#000E9C}.bg-main{fill:#F6F6F9}.bg-white{fill:#FFFFFF}.text-white{fill:#FFFFFF;font-family:sans-serif}.text-dark{fill:#1F2937;font-family:sans-serif}.text-muted{fill:#6B7280;font-family:sans-serif}.text-primary{fill:#0050D7;font-family:sans-serif}.border{stroke:#E5E7EB;stroke-width:1;fill:none}</style></defs>
  <rect width="1440" height="900" class="bg-main"/>
  <rect width="1440" height="50" class="bg-header"/>
  <g transform="translate(40,12)">
    <rect width="100" height="26" rx="4" fill="rgba(255,255,255,0.1)"/>
    <text x="50" y="18" class="text-white" font-size="12" text-anchor="middle">Hub</text>
  </g>
  <g transform="translate(160,12)">
    <rect width="100" height="26" rx="4" fill="transparent"/>
    <text x="50" y="18" class="text-white" font-size="12" text-anchor="middle" opacity="0.7">Web Cloud</text>
  </g>
  <g transform="translate(280,12)">
    <rect width="100" height="26" rx="4" fill="transparent"/>
    <text x="50" y="18" class="text-white" font-size="12" text-anchor="middle" opacity="0.7">Bare Metal</text>
  </g>
  <g transform="translate(400,12)">
    <rect width="120" height="26" rx="4" fill="transparent"/>
    <text x="60" y="18" class="text-white" font-size="12" text-anchor="middle" opacity="0.7">Public Cloud</text>
  </g>
  <g transform="translate(540,12)">
    <rect width="100" height="26" rx="4" fill="transparent"/>
    <text x="50" y="18" class="text-white" font-size="12" text-anchor="middle" opacity="0.7">Telecom</text>
  </g>
  <g transform="translate(1200,12)">
    <text x="0" y="18" class="text-white" font-size="12" opacity="0.7">🔔</text>
    <text x="40" y="18" class="text-white" font-size="12" opacity="0.7">👤 Admin</text>
    <text x="120" y="18" class="text-white" font-size="12" opacity="0.7">▼</text>
  </g>
  <rect x="0" y="50" width="1440" height="40" class="bg-white"/>
  <g transform="translate(40,60)">
    <text x="0" y="18" class="text-primary" font-size="14" font-weight="600">Tableau de bord</text>
    <text x="150" y="18" class="text-muted" font-size="14">Facturation</text>
    <text x="260" y="18" class="text-muted" font-size="14">Mon compte</text>
    <text x="380" y="18" class="text-muted" font-size="14">Support</text>
  </g>
  <g transform="translate(40,115)">
    <text y="0" class="text-dark" font-size="20" font-weight="600">Structure de la page Hub</text>
    <text y="30" class="text-muted" font-size="12">Cette vue montre la structure générale du layout Hub OVHcloud</text>
  </g>
  <g transform="translate(40,180)">
    <rect width="1360" height="600" rx="8" class="bg-white"/><rect width="1360" height="600" rx="8" class="border"/>
    <text x="20" y="35" class="text-dark" font-size="15" font-weight="700">Zones de contenu</text>
    <line x1="0" y1="55" x2="1360" y2="55" stroke="#E5E7EB"/>
    <g transform="translate(20,80)">
      <rect width="400" height="120" rx="8" fill="#DBEAFE" stroke="#0050D7" stroke-dasharray="4"/>
      <text x="200" y="50" fill="#1E40AF" font-size="14" font-weight="600" text-anchor="middle">Bannières d'alerte</text>
      <text x="200" y="75" fill="#1E40AF" font-size="11" text-anchor="middle">KYC, Email, Siret, etc.</text>
    </g>
    <g transform="translate(440,80)">
      <rect width="300" height="120" rx="8" fill="#DEF7EC" stroke="#059669" stroke-dasharray="4"/>
      <text x="150" y="50" fill="#059669" font-size="14" font-weight="600" text-anchor="middle">Widgets statistiques</text>
      <text x="150" y="75" fill="#059669" font-size="11" text-anchor="middle">Produits, Factures, Support</text>
    </g>
    <g transform="translate(760,80)">
      <rect width="280" height="120" rx="8" fill="#FEF3C7" stroke="#D97706" stroke-dasharray="4"/>
      <text x="140" y="50" fill="#D97706" font-size="14" font-weight="600" text-anchor="middle">Suivi commandes</text>
      <text x="140" y="75" fill="#D97706" font-size="11" text-anchor="middle">OrderTracking widget</text>
    </g>
    <g transform="translate(1060,80)">
      <rect width="260" height="120" rx="8" fill="#F3E8FF" stroke="#7C3AED" stroke-dasharray="4"/>
      <text x="130" y="50" fill="#7C3AED" font-size="14" font-weight="600" text-anchor="middle">Paiement</text>
      <text x="130" y="75" fill="#7C3AED" font-size="11" text-anchor="middle">PaymentStatus widget</text>
    </g>
    <g transform="translate(20,230)">
      <rect width="640" height="300" rx="8" fill="#FEE2E2" stroke="#DC2626" stroke-dasharray="4"/>
      <text x="320" y="130" fill="#DC2626" font-size="16" font-weight="600" text-anchor="middle">Zone produits</text>
      <text x="320" y="160" fill="#DC2626" font-size="12" text-anchor="middle">Products widget - Liste des services</text>
    </g>
    <g transform="translate(680,230)">
      <rect width="640" height="300" rx="8" fill="#DBEAFE" stroke="#0050D7" stroke-dasharray="4"/>
      <text x="320" y="130" fill="#1E40AF" font-size="16" font-weight="600" text-anchor="middle">Zone support</text>
      <text x="320" y="160" fill="#1E40AF" font-size="12" text-anchor="middle">Support widget + Help widget</text>
    </g>
  </g>
</svg>
