<svg xmlns="http://www.w3.org/2000/svg" viewBox="0 0 1440 950" width="1440" height="950">
  <defs>
    <style>
      .bg-header { fill: #000E9C; }
      .bg-white { fill: #FFFFFF; }
      .bg-muted { fill: #F9FAFB; }
      .bg-primary { fill: #0050D7; }
      .bg-primary-light { fill: #E8F0FE; }
      .text-white { fill: #FFFFFF; font-family: 'Source Sans Pro', sans-serif; }
      .text-body { fill: #1F2937; font-family: 'Source Sans Pro', sans-serif; font-size: 14px; }
      .text-muted { fill: #6B7280; font-family: 'Source Sans Pro', sans-serif; font-size: 14px; }
      .text-primary { fill: #0050D7; font-family: 'Source Sans Pro', sans-serif; font-size: 14px; }
      .text-title { fill: #1F2937; font-family: 'Source Sans Pro', sans-serif; font-size: 24px; font-weight: 600; }
      .text-tile-title { fill: #1F2937; font-family: 'Source Sans Pro', sans-serif; font-size: 16px; font-weight: 600; }
      .text-small { fill: #6B7280; font-family: 'Source Sans Pro', sans-serif; font-size: 12px; }
      .border { stroke: #E5E7EB; stroke-width: 1; fill: none; }
      .card { fill: #FFFFFF; stroke: #E5E7EB; stroke-width: 1; }
      .tab-active { fill: #0050D7; }
      .badge-success { fill: #DEF7EC; }
      .badge-success-text { fill: #03543F; font-family: 'Source Sans Pro', sans-serif; font-size: 12px; }
      .badge-warning { fill: #FEF3C7; }
      .badge-warning-text { fill: #92400E; font-family: 'Source Sans Pro', sans-serif; font-size: 12px; }
      .progress-bar-bg { fill: #E5E7EB; }
      .progress-bar { fill: #0050D7; }
      .action-menu { fill: #FFFFFF; stroke: #E5E7EB; filter: drop-shadow(0 4px 6px rgba(0,0,0,0.1)); }
    </style>
  </defs>
  
  <!-- Background -->
  <rect width="1440" height="950" class="bg-muted"/>
  
  <!-- Header OVH -->
  <rect width="1440" height="60" class="bg-header"/>
  <text x="80" y="38" class="text-white" font-size="20" font-weight="bold">OVHcloud</text>
  <text x="640" y="38" class="text-white" font-size="14">Network</text>
  <rect x="630" y="50" width="60" height="3" fill="#FFFFFF"/>
  
  <!-- Sidebar -->
  <rect x="0" y="60" width="240" height="890" class="bg-white"/>
  <rect x="240" y="60" width="1" height="890" class="border"/>
  <text x="20" y="105" class="text-body">vRack Services</text>
  <text x="20" y="145" class="text-body">vRack</text>
  <text x="20" y="185" class="text-body">OVHcloud Connect</text>
  <rect x="0" y="200" width="240" height="40" class="bg-primary-light"/>
  <text x="20" y="225" class="text-primary" font-weight="600">Load Balancer</text>
  
  <!-- Main Content -->
  <g transform="translate(280, 80)">
    <!-- Breadcrumb -->
    <text x="0" y="20" class="text-muted" font-size="14">Network / Load Balancer /</text>
    <text x="160" y="20" class="text-primary" font-size="14">loadbalancer-12345</text>
    
    <!-- Title -->
    <text x="0" y="60" class="text-title">LB Production</text>
    <text x="170" y="60" class="text-muted">loadbalancer-12345</text>
    
    <!-- Tabs -->
    <g transform="translate(0, 90)">
      <text x="15" y="26" class="text-primary" font-weight="600">Accueil</text>
      <rect x="0" y="38" width="70" height="3" class="tab-active"/>
      
      <text x="100" y="26" class="text-body">Fermes de serveurs</text>
      <text x="250" y="26" class="text-body">Frontends</text>
      <text x="360" y="26" class="text-body">Certificats SSL</text>
      <text x="490" y="26" class="text-body">Tâches</text>
      <text x="560" y="26" class="text-body">Graphiques</text>
    </g>
    
    <!-- Dashboard Tiles Row 1 -->
    <g transform="translate(0, 150)">
      <!-- Status Tile -->
      <rect x="0" y="0" width="350" height="220" rx="8" class="card"/>
      <text x="20" y="35" class="text-tile-title">Statut</text>
      
      <g transform="translate(20, 60)">
        <text x="0" y="15" class="text-body">Frontends</text>
        <g transform="translate(200, 0)">
          <rect x="0" y="0" width="80" height="24" rx="12" class="badge-success"/>
          <text x="10" y="16" class="badge-success-text">3 activés</text>
        </g>
        <text x="290" y="15" class="text-muted">⋮</text>
        
        <text x="0" y="55" class="text-body">Fermes de serveurs</text>
        <g transform="translate(200, 40)">
          <rect x="0" y="0" width="80" height="24" rx="12" class="badge-success"/>
          <text x="10" y="16" class="badge-success-text">2 activées</text>
        </g>
        <text x="290" y="55" class="text-muted">⋮</text>
        
        <text x="0" y="95" class="text-body">Serveurs</text>
        <g transform="translate(200, 80)">
          <rect x="0" y="0" width="80" height="24" rx="12" class="badge-warning"/>
          <text x="10" y="16" class="badge-warning-text">4 / 5 actifs</text>
        </g>
        <text x="290" y="95" class="text-muted">⋮</text>
      </g>
      
      <!-- Usage Tile -->
      <rect x="380" y="0" width="350" height="220" rx="8" class="card"/>
      <text x="400" y="35" class="text-tile-title">Utilisation</text>
      
      <g transform="translate(400, 60)">
        <text x="0" y="15" class="text-body">🇫🇷 Gravelines (GRA)</text>
        <text x="200" y="15" class="text-small">2.4 GB / 10 GB</text>
        <rect x="0" y="25" width="310" height="8" rx="4" class="progress-bar-bg"/>
        <rect x="0" y="25" width="75" height="8" rx="4" class="progress-bar"/>
        <text x="290" y="55" class="text-muted">⋮</text>
        
        <text x="0" y="80" class="text-body">🇩🇪 Limbourg (LIM)</text>
        <text x="200" y="80" class="text-small">1.1 GB / 10 GB</text>
        <rect x="0" y="90" width="310" height="8" rx="4" class="progress-bar-bg"/>
        <rect x="0" y="90" width="35" height="8" rx="4" class="progress-bar"/>
        <text x="290" y="120" class="text-muted">⋮</text>
      </g>
      
      <!-- Graph Tile -->
      <rect x="760" y="0" width="350" height="220" rx="8" class="card"/>
      <text x="780" y="35" class="text-tile-title">Graphiques</text>
      <rect x="780" y="60" width="310" height="140" rx="4" fill="#F3F4F6"/>
      <text x="900" y="130" class="text-muted" text-anchor="middle">📊 Connexions/s</text>
    </g>
    
    <!-- Dashboard Tiles Row 2 -->
    <g transform="translate(0, 400)">
      <!-- Infos Tile -->
      <rect x="0" y="0" width="350" height="260" rx="8" class="card"/>
      <text x="20" y="35" class="text-tile-title">Informations</text>
      
      <g transform="translate(20, 60)">
        <text x="0" y="15" class="text-muted">IPv4</text>
        <text x="120" y="15" class="text-body">123.45.67.89</text>
        
        <text x="0" y="50" class="text-muted">IPv6</text>
        <text x="120" y="50" class="text-body">2001:db8::1</text>
        
        <text x="0" y="85" class="text-muted">IP Failover</text>
        <text x="120" y="85" class="text-primary">Configurer</text>
        
        <text x="0" y="120" class="text-muted">IPv4 de sortie</text>
        <text x="120" y="120" class="text-body">98.76.54.32</text>
      </g>
      
      <!-- Configuration Tile -->
      <rect x="380" y="0" width="350" height="260" rx="8" class="card"/>
      <text x="400" y="35" class="text-tile-title">Configuration</text>
      
      <g transform="translate(400, 60)">
        <text x="0" y="15" class="text-muted">Nom</text>
        <text x="150" y="15" class="text-body">LB Production</text>
        <text x="290" y="15" class="text-muted">✏️</text>
        
        <text x="0" y="50" class="text-muted">Quota par mois</text>
        <text x="150" y="50" class="text-body">Illimité</text>
        
        <text x="0" y="85" class="text-muted">Seuil de l'alerte</text>
        <text x="150" y="85" class="text-body">8 GB</text>
        <text x="290" y="85" class="text-muted">⋮</text>
        
        <text x="0" y="120" class="text-muted">Ciphers</text>
        <text x="150" y="120" class="text-body">intermediate</text>
        <text x="290" y="120" class="text-muted">⋮</text>
        
        <text x="0" y="155" class="text-muted">Zones</text>
        <text x="150" y="155" class="text-body">GRA, LIM</text>
        <text x="290" y="155" class="text-muted">⋮</text>
      </g>
      
      <!-- Subscription Tile -->
      <rect x="760" y="0" width="350" height="260" rx="8" class="card"/>
      <text x="780" y="35" class="text-tile-title">Abonnement</text>
      
      <g transform="translate(780, 60)">
        <text x="0" y="15" class="text-muted">Offre</text>
        <text x="150" y="15" class="text-body">L</text>
        <text x="290" y="15" class="text-muted">⋮</text>
        
        <text x="0" y="50" class="text-muted">Renouvellement</text>
        <text x="150" y="50" class="text-body">01/02/2025</text>
        <text x="290" y="50" class="text-muted">⋮</text>
        
        <text x="0" y="85" class="text-muted">Contacts</text>
        <text x="150" y="85" class="text-body">xx1234-ovh (Admin)</text>
        <text x="290" y="85" class="text-muted">⋮</text>
        
        <text x="0" y="120" class="text-muted">Création</text>
        <text x="150" y="120" class="text-body">15/06/2023</text>
      </g>
    </g>
  </g>
</svg>
