<svg xmlns="http://www.w3.org/2000/svg" viewBox="0 0 1440 850" width="1440" height="850">
  <defs>
    <style>
      .bg-muted { fill: #F9FAFB; }
      .bg-white { fill: #FFFFFF; }
      .bg-header { fill: #000E9C; }
      .bg-selected { fill: #EFF6FF; stroke: #0050D7; stroke-width: 2; }
      .text-body { font-family: 'Source Sans Pro', sans-serif; font-size: 14px; fill: #1F2937; }
      .text-muted { font-family: 'Source Sans Pro', sans-serif; font-size: 12px; fill: #6B7280; }
      .text-title { font-family: 'Source Sans Pro', sans-serif; font-size: 18px; font-weight: 600; fill: #1F2937; }
      .text-white { font-family: 'Source Sans Pro', sans-serif; font-size: 14px; fill: #FFFFFF; }
      .text-link { font-family: 'Source Sans Pro', sans-serif; font-size: 14px; fill: #0050D7; }
      .border { stroke: #E5E7EB; stroke-width: 1; fill: none; }
      .btn-primary { fill: #0050D7; }
      .btn-secondary { fill: #FFFFFF; stroke: #D1D5DB; }
      .card { fill: #FFFFFF; stroke: #E5E7EB; }
      .card-img { fill: #F3F4F6; }
    </style>
  </defs>
  <rect width="1440" height="850" class="bg-muted"/>
  <rect width="1440" height="60" class="bg-header"/>
  <text x="80" y="38" class="text-white" font-size="20" font-weight="bold">OVHcloud</text>
  <rect x="0" y="60" width="240" height="790" class="bg-white"/>
  <rect x="240" y="60" width="1" height="790" class="border"/>
  <text x="280" y="110" class="text-title" font-size="24">Changer le type de configuration</text>
  <text x="280" y="145" class="text-link">▶ En savoir plus sur les types de configuration</text>
  <rect x="280" y="170" width="200" height="36" rx="4" class="btn-secondary"/>
  <text x="300" y="194" class="text-body">Afficher les options expert</text>
  <rect x="280" y="230" width="270" height="240" rx="8" class="bg-selected"/>
  <rect x="300" y="250" width="230" height="80" rx="4" class="card-img"/>
  <text x="380" y="300" class="text-muted" font-size="24">→📞</text>
  <text x="300" y="360" class="text-body" font-weight="600">Redirection</text>
  <text x="300" y="385" class="text-muted" font-size="12">Redirigez les appels entrants</text>
  <text x="300" y="405" class="text-muted" font-size="12">vers un autre numéro.</text>
  <circle cx="520" cy="250" r="10" style="fill: #0050D7"/>
  <text x="516" y="254" class="text-white" font-size="10">✓</text>
  <rect x="570" y="230" width="270" height="240" rx="8" class="card"/>
  <rect x="590" y="250" width="230" height="80" rx="4" class="card-img"/>
  <text x="670" y="300" class="text-muted" font-size="24">📊📞</text>
  <text x="590" y="360" class="text-body" font-weight="600">Centre de contact</text>
  <text x="590" y="385" class="text-muted" font-size="12">File d'attente avec agents,</text>
  <text x="590" y="405" class="text-muted" font-size="12">statistiques et supervision.</text>
  <rect x="280" y="490" width="270" height="240" rx="8" class="card"/>
  <rect x="300" y="510" width="230" height="80" rx="4" class="card-img"/>
  <text x="380" y="560" class="text-muted" font-size="24">🔀📞</text>
  <text x="300" y="620" class="text-body" font-weight="600">Serveur vocal interactif</text>
  <text x="300" y="645" class="text-muted" font-size="12">Menu vocal avec choix</text>
  <text x="300" y="665" class="text-muted" font-size="12">par touches DTMF.</text>
  <rect x="570" y="490" width="270" height="240" rx="8" class="card"/>
  <rect x="590" y="510" width="230" height="80" rx="4" class="card-img"/>
  <text x="670" y="560" class="text-muted" font-size="24">👥📞</text>
  <text x="590" y="620" class="text-body" font-weight="600">Conférence</text>
  <text x="590" y="645" class="text-muted" font-size="12">Salle de conférence</text>
  <text x="590" y="665" class="text-muted" font-size="12">téléphonique.</text>
  <text x="280" y="770" class="text-link">Appliquer à plusieurs alias</text>
  <rect x="280" y="790" width="200" height="40" rx="4" class="btn-primary"/>
  <text x="310" y="816" class="text-white">Appliquer la configuration</text>
</svg>
