<svg xmlns="http://www.w3.org/2000/svg" viewBox="0 0 1440 900" width="1440" height="900">
  <defs><style>.bg-muted{fill:#F9FAFB}.bg-white{fill:#FFF}.bg-header{fill:#000E9C}.text-body{font-family:'Source Sans Pro',sans-serif;font-size:14px;fill:#1F2937}.text-muted{font-family:'Source Sans Pro',sans-serif;font-size:14px;fill:#6B7280}.text-title{font-family:'Source Sans Pro',sans-serif;font-size:28px;fill:#1F2937;font-weight:600}.text-white{font-family:'Source Sans Pro',sans-serif;fill:#FFF}.text-link{font-family:'Source Sans Pro',sans-serif;font-size:14px;fill:#0050D7}.sidebar-item{font-family:'Source Sans Pro',sans-serif;font-size:14px;fill:#374151}.sidebar-item-active{font-family:'Source Sans Pro',sans-serif;font-size:14px;fill:#0050D7;font-weight:600}.tab-active{fill:#0050D7}.tab-inactive{fill:#6B7280}</style></defs>
  <rect width="1440" height="900" class="bg-muted"/>
  <g id="header"><rect width="1440" height="60" class="bg-header"/><text x="20" y="38" class="text-white" font-size="20" font-weight="bold">OVHcloud</text><text x="140" y="38" class="text-white" font-size="14">Manager</text><circle cx="1380" cy="30" r="16" fill="#374151"/></g>
  <g id="sidebar" transform="translate(0,60)"><rect width="240" height="840" class="bg-white"/><line x1="240" y1="0" x2="240" y2="840" stroke="#E5E7EB"/><text x="20" y="34" class="sidebar-item">Accueil</text><text x="20" y="74" class="sidebar-item">Mon compte</text><text x="20" y="114" class="sidebar-item">Facturation</text><rect x="0" y="128" width="240" height="40" fill="#E8F0FE"/><text x="20" y="154" class="sidebar-item-active">Support</text></g>
  <g id="content" transform="translate(240,60)"><rect width="1200" height="840" class="bg-muted"/><g transform="translate(40,30)"><text x="0" y="30" class="text-title">Support</text><text x="0" y="55" class="text-muted">Gerez vos demandes d assistance et votre niveau de support OVHcloud.</text><text x="1050" y="30" class="text-link">Guides</text></g>
  <g transform="translate(40,90)"><rect width="1120" height="45" fill="#FFF" stroke="#E5E7EB"/><rect x="0" y="43" width="90" height="2" fill="#0050D7"/><text x="20" y="28" class="tab-active" font-size="14" font-weight="600">Mes tickets</text><text x="120" y="28" class="tab-inactive" font-size="14">Creer un nouveau ticket</text><text x="290" y="28" class="tab-inactive" font-size="14">Mon niveau de support</text><text x="470" y="28" class="tab-inactive" font-size="14">Mes communications</text><text x="630" y="28" class="tab-inactive" font-size="14">Parametres de diffusion</text></g>
  <g transform="translate(40,160)"><rect x="0" y="0" width="180" height="36" rx="4" fill="#FFF" stroke="#E5E7EB"/><text x="15" y="23" class="text-body">Tous les tickets</text><text x="200" y="23" class="text-muted">5 ticket(s)</text>
    <g transform="translate(0,55)"><rect width="1120" height="320" rx="8" class="bg-white" stroke="#E5E7EB"/><rect width="1120" height="45" fill="#F3F4F6"/><text x="20" y="28" class="text-body" font-weight="500">N Ticket</text><text x="120" y="28" class="text-body" font-weight="500">Sujet</text><text x="450" y="28" class="text-body" font-weight="500">Service</text><text x="620" y="28" class="text-body" font-weight="500">Type</text><text x="750" y="28" class="text-body" font-weight="500">Etat</text><text x="880" y="28" class="text-body" font-weight="500">Derniere mise a jour</text>
      <line x1="0" y1="45" x2="1120" y2="45" stroke="#E5E7EB"/><text x="20" y="75" class="text-link">#123456</text><text x="120" y="75" class="text-body">Probleme connexion serveur VPS</text><text x="450" y="75" class="text-body">vps-abc123</text><rect x="620" y="60" width="75" height="22" rx="11" fill="#FEF3C7"/><text x="632" y="76" fill="#92400E" font-size="12">Assistance</text><rect x="750" y="60" width="60" height="22" rx="11" fill="#DEF7EC"/><text x="762" y="76" fill="#03543F" font-size="12">Ouvert</text><text x="880" y="75" class="text-body">20 dec. 2024</text>
      <line x1="0" y1="100" x2="1120" y2="100" stroke="#E5E7EB"/><text x="20" y="130" class="text-link">#123455</text><text x="120" y="130" class="text-body">Question facturation</text><text x="450" y="130" class="text-body">-</text><rect x="620" y="115" width="80" height="22" rx="11" fill="#E8F0FE"/><text x="632" y="131" fill="#0050D7" font-size="12">Facturation</text><rect x="750" y="115" width="60" height="22" rx="11" fill="#DEF7EC"/><text x="762" y="131" fill="#03543F" font-size="12">Ouvert</text><text x="880" y="130" class="text-body">19 dec. 2024</text>
      <line x1="0" y1="155" x2="1120" y2="155" stroke="#E5E7EB"/><text x="20" y="185" class="text-link">#123400</text><text x="120" y="185" class="text-body">Incident reseau datacenter</text><text x="450" y="185" class="text-body">ns123456.ovh.net</text><rect x="620" y="170" width="60" height="22" rx="11" fill="#FEE2E2"/><text x="632" y="186" fill="#991B1B" font-size="12">Incident</text><rect x="750" y="170" width="55" height="22" rx="11" fill="#E5E7EB"/><text x="762" y="186" fill="#374151" font-size="12">Ferme</text><text x="880" y="185" class="text-body">15 dec. 2024</text></g>
    <g transform="translate(0,400)"><rect x="0" y="0" width="180" height="36" rx="4" fill="#FFF" stroke="#E5E7EB"/><text x="15" y="23" class="text-link">Centre d aide OVHcloud</text></g></g></g>
</svg>
