<svg xmlns="http://www.w3.org/2000/svg" viewBox="0 0 1440 800" width="1440" height="800">
  <defs><style>.bg-muted{fill:#F9FAFB}.bg-white{fill:#FFF}.bg-header{fill:#000E9C}.text-body{font-family:'Source Sans Pro',sans-serif;font-size:14px;fill:#1F2937}.text-muted{font-family:'Source Sans Pro',sans-serif;font-size:14px;fill:#6B7280}.text-title{font-family:'Source Sans Pro',sans-serif;font-size:28px;fill:#1F2937;font-weight:600}.text-white{font-family:'Source Sans Pro',sans-serif;fill:#FFF}.text-h2{font-family:'Source Sans Pro',sans-serif;font-size:18px;fill:#1F2937;font-weight:600}.sidebar-item{font-family:'Source Sans Pro',sans-serif;font-size:14px;fill:#374151}.sidebar-item-active{font-family:'Source Sans Pro',sans-serif;font-size:14px;fill:#0050D7;font-weight:600}.tab-active{fill:#0050D7}.tab-inactive{fill:#6B7280}</style></defs>
  <rect width="1440" height="800" class="bg-muted"/>
  <g id="header"><rect width="1440" height="60" class="bg-header"/><text x="20" y="38" class="text-white" font-size="20" font-weight="bold">OVHcloud</text><text x="140" y="38" class="text-white" font-size="14">Manager</text><circle cx="1380" cy="30" r="16" fill="#374151"/></g>
  <g id="sidebar" transform="translate(0,60)"><rect width="240" height="740" class="bg-white"/><line x1="240" y1="0" x2="240" y2="740" stroke="#E5E7EB"/><text x="20" y="34" class="sidebar-item">Accueil</text><text x="20" y="74" class="sidebar-item">Mon compte</text><text x="20" y="114" class="sidebar-item">Facturation</text><rect x="0" y="128" width="240" height="40" fill="#E8F0FE"/><text x="20" y="154" class="sidebar-item-active">Support</text></g>
  <g id="content" transform="translate(240,60)"><rect width="1200" height="740" class="bg-muted"/><g transform="translate(40,30)"><text x="0" y="30" class="text-title">Support</text></g>
  <g transform="translate(40,80)"><rect width="1120" height="45" fill="#FFF" stroke="#E5E7EB"/><text x="20" y="28" class="tab-inactive" font-size="14">Mes tickets</text><text x="115" y="28" class="tab-inactive" font-size="14">Creer un ticket</text><text x="260" y="28" class="tab-inactive" font-size="14">Mon niveau</text><rect x="370" y="43" width="140" height="2" fill="#0050D7"/><text x="380" y="28" class="tab-active" font-size="14" font-weight="600">Mes communications</text><text x="540" y="28" class="tab-inactive" font-size="14">Diffusion</text></g>
  <g transform="translate(40,150)">
    <rect width="1120" height="100" rx="8" class="bg-white" stroke="#E5E7EB"/>
    <text x="20" y="35" class="text-h2">Contacts configures</text>
    <g transform="translate(20,55)"><text x="0" y="15" class="text-muted">Email principal</text><text x="200" y="15" class="text-body">jean.dupont@example.com</text><rect x="450" y="0" width="50" height="22" rx="11" fill="#DEF7EC"/><text x="462" y="16" fill="#03543F" font-size="11">Actif</text></g>
  </g>
  <g transform="translate(40,270)">
    <text x="0" y="25" class="text-h2">Historique des communications</text>
    <g transform="translate(0,45)">
      <rect width="1120" height="350" rx="8" class="bg-white" stroke="#E5E7EB"/>
      <rect width="1120" height="45" fill="#F3F4F6"/><text x="20" y="28" class="text-body" font-weight="500">Date</text><text x="180" y="28" class="text-body" font-weight="500">Type</text><text x="320" y="28" class="text-body" font-weight="500">Sujet</text><text x="700" y="28" class="text-body" font-weight="500">Priorite</text><text x="850" y="28" class="text-body" font-weight="500">Categorie</text>
      <line x1="0" y1="45" x2="1120" y2="45" stroke="#E5E7EB"/>
      <text x="20" y="80" class="text-body">20 dec. 2024</text><text x="180" y="80" class="text-body">Email</text><text x="320" y="80" class="text-body">Maintenance planifiee - Datacenter RBX</text><rect x="700" y="65" width="60" height="22" rx="11" fill="#FEF3C7"/><text x="712" y="81" fill="#92400E" font-size="11">Medium</text><rect x="850" y="65" width="80" height="22" rx="11" fill="#E8F0FE"/><text x="862" y="81" fill="#0050D7" font-size="11">Maintenance</text>
      <line x1="0" y1="105" x2="1120" y2="105" stroke="#E5E7EB"/>
      <text x="20" y="140" class="text-body">18 dec. 2024</text><text x="180" y="140" class="text-body">Email</text><text x="320" y="140" class="text-body">Incident resolu - Service DNS</text><rect x="700" y="125" width="50" height="22" rx="11" fill="#FEE2E2"/><text x="712" y="141" fill="#991B1B" font-size="11">High</text><rect x="850" y="125" width="60" height="22" rx="11" fill="#FEE2E2"/><text x="862" y="141" fill="#991B1B" font-size="11">Incident</text>
      <line x1="0" y1="165" x2="1120" y2="165" stroke="#E5E7EB"/>
      <text x="20" y="200" class="text-body">15 dec. 2024</text><text x="180" y="200" class="text-body">Email</text><text x="320" y="200" class="text-body">Nouvelle fonctionnalite disponible</text><rect x="700" y="185" width="45" height="22" rx="11" fill="#DEF7EC"/><text x="712" y="201" fill="#03543F" font-size="11">Low</text><rect x="850" y="185" width="50" height="22" rx="11" fill="#E5E7EB"/><text x="862" y="201" fill="#374151" font-size="11">Info</text>
    </g>
  </g></g>
</svg>
