<svg xmlns="http://www.w3.org/2000/svg" viewBox="0 0 1440 900" width="1440" height="900">
  <defs>
    <style>
      .bg-muted { fill: #F9FAFB; }
      .bg-white { fill: #FFFFFF; }
      .bg-header { fill: #000E9C; }
      .text-body { font-family: 'Source Sans Pro', sans-serif; font-size: 14px; fill: #1F2937; }
      .text-muted { font-family: 'Source Sans Pro', sans-serif; font-size: 14px; fill: #6B7280; }
      .text-white { font-family: 'Source Sans Pro', sans-serif; fill: #FFFFFF; }
      .text-primary { font-family: 'Source Sans Pro', sans-serif; fill: #0050D7; }
      .text-title { font-family: 'Source Sans Pro', sans-serif; font-size: 24px; font-weight: 600; fill: #1F2937; }
      .btn-primary { fill: #0050D7; }
      .btn-outline { fill: #FFFFFF; stroke: #D1D5DB; stroke-width: 1; }
      .badge-success { fill: #DEF7EC; }
      .badge-success-text { fill: #03543F; }
      .badge-warning { fill: #FEF3C7; }
      .badge-warning-text { fill: #92400E; }
      .table-header { fill: #F3F4F6; }
      .table-row { fill: #FFFFFF; stroke: #E5E7EB; stroke-width: 1; }
    </style>
  </defs>
  
  <!-- Background -->
  <rect width="1440" height="900" class="bg-muted"/>
  
  <!-- Header OVH -->
  <rect width="1440" height="60" class="bg-header"/>
  <text x="80" y="38" class="text-white" font-size="20" font-weight="bold">OVHcloud</text>
  <text x="520" y="38" class="text-white" font-size="14" font-weight="600">Public Cloud</text>
  
  <!-- Sidebar -->
  <rect x="0" y="60" width="240" height="840" class="bg-white"/>
  <rect x="240" y="60" width="1" height="840" fill="#E5E7EB"/>
  
  <text x="20" y="100" class="text-muted" font-size="12" font-weight="600">AI &amp; MACHINE LEARNING</text>
  <text x="20" y="130" class="text-body">AI Notebooks</text>
  <text x="20" y="160" class="text-body">AI Training</text>
  <text x="20" y="190" class="text-body">AI Deploy</text>
  <rect x="0" y="205" width="240" height="32" fill="#E8F0FE"/>
  <text x="20" y="227" class="text-primary" font-weight="600">Quantum (QPU)</text>
  
  <!-- Content area -->
  <g transform="translate(280, 80)">
    <!-- Breadcrumb -->
    <text x="0" y="20" class="text-primary" font-size="14">Mon Projet</text>
    <text x="85" y="20" class="text-muted" font-size="14"> / </text>
    <text x="100" y="20" class="text-primary" font-size="14">AI &amp; Machine Learning</text>
    <text x="260" y="20" class="text-muted" font-size="14"> / </text>
    <text x="275" y="20" class="text-body" font-size="14">QPUs</text>
    
    <!-- Title and action -->
    <g transform="translate(0, 50)">
      <text x="0" y="20" class="text-title">QPUs</text>
      
      <!-- Guides button -->
      <rect x="750" y="0" width="100" height="36" rx="4" class="btn-outline"/>
      <text x="800" y="24" class="text-body" font-size="13" text-anchor="middle">📖 Guides</text>
      
      <!-- Create button -->
      <rect x="865" y="0" width="150" height="36" rx="4" class="btn-primary"/>
      <text x="940" y="24" class="text-white" font-size="13" font-weight="600" text-anchor="middle">+ Créer un notebook</text>
    </g>
    
    <!-- Search and filters -->
    <g transform="translate(0, 110)">
      <rect x="0" y="0" width="300" height="40" rx="4" fill="#FFFFFF" stroke="#E5E7EB"/>
      <text x="16" y="26" class="text-muted" font-size="14">🔍 Rechercher...</text>
    </g>
    
    <!-- Table -->
    <g transform="translate(0, 170)">
      <!-- Table header -->
      <rect x="0" y="0" width="920" height="44" rx="4" class="table-header"/>
      <text x="20" y="27" class="text-muted" font-size="13" font-weight="600">Nom</text>
      <text x="220" y="27" class="text-muted" font-size="13" font-weight="600">Framework</text>
      <text x="380" y="27" class="text-muted" font-size="13" font-weight="600">QPU</text>
      <text x="520" y="27" class="text-muted" font-size="13" font-weight="600">Région</text>
      <text x="620" y="27" class="text-muted" font-size="13" font-weight="600">Statut</text>
      <text x="750" y="27" class="text-muted" font-size="13" font-weight="600">Créé le</text>
      <text x="880" y="27" class="text-muted" font-size="13" font-weight="600">⋮</text>
      
      <!-- Row 1 -->
      <rect x="0" y="44" width="920" height="56" class="table-row"/>
      <text x="20" y="78" class="text-primary" font-size="14">qpu-notebook-001</text>
      <text x="220" y="78" class="text-body" font-size="14">Perceval</text>
      <text x="380" y="78" class="text-body" font-size="14">Quandela QPU</text>
      <text x="520" y="78" class="text-body" font-size="14">GRA</text>
      <g transform="translate(620, 63)">
        <rect x="0" y="0" width="70" height="24" rx="12" class="badge-success"/>
        <text x="35" y="16" class="badge-success-text" font-size="12" text-anchor="middle">Running</text>
      </g>
      <text x="750" y="78" class="text-muted" font-size="13">27/12/2024</text>
      <text x="890" y="78" class="text-muted" font-size="16">⋮</text>
      
      <!-- Row 2 -->
      <rect x="0" y="100" width="920" height="56" class="table-row"/>
      <text x="20" y="134" class="text-primary" font-size="14">quantum-test-02</text>
      <text x="220" y="134" class="text-body" font-size="14">Qiskit</text>
      <text x="380" y="134" class="text-body" font-size="14">IBM Quantum</text>
      <text x="520" y="134" class="text-body" font-size="14">GRA</text>
      <g transform="translate(620, 119)">
        <rect x="0" y="0" width="70" height="24" rx="12" class="badge-warning"/>
        <text x="35" y="16" class="badge-warning-text" font-size="12" text-anchor="middle">Starting</text>
      </g>
      <text x="750" y="134" class="text-muted" font-size="13">26/12/2024</text>
      <text x="890" y="134" class="text-muted" font-size="16">⋮</text>
      
      <!-- Row 3 -->
      <rect x="0" y="156" width="920" height="56" class="table-row"/>
      <text x="20" y="190" class="text-primary" font-size="14">my-perceval-nb</text>
      <text x="220" y="190" class="text-body" font-size="14">Perceval</text>
      <text x="380" y="190" class="text-body" font-size="14">Quandela QPU</text>
      <text x="520" y="190" class="text-body" font-size="14">GRA</text>
      <g transform="translate(620, 175)">
        <rect x="0" y="0" width="70" height="24" rx="12" class="badge-success"/>
        <text x="35" y="16" class="badge-success-text" font-size="12" text-anchor="middle">Running</text>
      </g>
      <text x="750" y="190" class="text-muted" font-size="13">25/12/2024</text>
      <text x="890" y="190" class="text-muted" font-size="16">⋮</text>
    </g>
    
    <!-- Pagination -->
    <g transform="translate(0, 420)">
      <text x="0" y="20" class="text-muted" font-size="13">Affichage de 1 à 3 sur 3 résultats</text>
    </g>
  </g>
</svg>
