<svg xmlns="http://www.w3.org/2000/svg" viewBox="0 0 1440 900">
  <defs>
    <style>
      .overlay { fill: rgba(0,0,0,0.5); }
      .modal { fill: #FFFFFF; }
      .modal-header { fill: #F9FAFB; }
      .text-primary { fill: #1F2937; font-family: -apple-system, BlinkMacSystemFont, 'Segoe UI', sans-serif; }
      .text-muted { fill: #6B7280; font-family: -apple-system, BlinkMacSystemFont, 'Segoe UI', sans-serif; }
      .text-white { fill: #FFFFFF; font-family: -apple-system, BlinkMacSystemFont, 'Segoe UI', sans-serif; }
      .btn-primary { fill: #0050D7; }
      .btn-secondary { fill: #FFFFFF; stroke: #D1D5DB; }
      .input { fill: #FFFFFF; stroke: #D1D5DB; }
      .radio-selected { fill: #EBF5FF; stroke: #0050D7; stroke-width: 2; }
      .radio-option { fill: #FFFFFF; stroke: #E5E7EB; }
    </style>
  </defs>
  <rect fill="#FFFFFF" width="1440" height="900"/>
  <rect fill="#000E9C" width="1440" height="60"/>
  <rect class="overlay" width="1440" height="900"/>

  <rect class="modal" x="370" y="160" width="700" height="540" rx="8" filter="url(#shadow)"/>
  <rect class="modal-header" x="370" y="160" width="700" height="56" rx="8 8 0 0"/>
  <text class="text-primary" x="395" y="196" font-size="16" font-weight="600">Ajouter une ressource</text>
  <text class="text-muted" x="1045" y="196" font-size="20">×</text>

  <!-- Type -->
  <text class="text-primary" x="395" y="250" font-size="13" font-weight="500">Type de ressource *</text>

  <rect class="radio-selected" x="395" y="265" width="310" height="70" rx="6"/>
  <circle fill="#0050D7" cx="420" cy="300" r="8"/>
  <circle fill="#FFFFFF" cx="420" cy="300" r="3"/>
  <text class="text-primary" x="445" y="295" font-size="14" font-weight="500">🏢 Salle de réunion</text>
  <text class="text-muted" x="445" y="315" font-size="12">Réservable pour des réunions</text>

  <rect class="radio-option" x="720" y="265" width="310" height="70" rx="6"/>
  <circle fill="#FFFFFF" stroke="#D1D5DB" cx="745" cy="300" r="8"/>
  <text class="text-primary" x="770" y="295" font-size="14">🖥️ Équipement</text>
  <text class="text-muted" x="770" y="315" font-size="12">Vidéoprojecteur, véhicule...</text>

  <!-- Name -->
  <text class="text-primary" x="395" y="375" font-size="13" font-weight="500">Nom de la ressource *</text>
  <rect class="input" x="395" y="385" width="650" height="40" rx="4"/>
  <text class="text-muted" x="410" y="411" font-size="14">Salle de conférence A</text>

  <!-- Email -->
  <text class="text-primary" x="395" y="460" font-size="13" font-weight="500">Adresse email *</text>
  <rect class="input" x="395" y="470" width="300" height="40" rx="4"/>
  <text class="text-muted" x="410" y="496" font-size="14">salle-a</text>
  <text class="text-muted" x="720" y="496" font-size="14">@entreprise.com</text>

  <!-- Capacity -->
  <text class="text-primary" x="395" y="545" font-size="13" font-weight="500">Capacité (optionnel)</text>
  <rect class="input" x="395" y="555" width="150" height="40" rx="4"/>
  <text class="text-muted" x="410" y="581" font-size="14">20 personnes</text>

  <!-- Options -->
  <rect fill="#0050D7" x="395" y="615" width="18" height="18" rx="3"/>
  <text fill="#FFFFFF" x="400" y="629" font-size="12" font-weight="bold">✓</text>
  <text class="text-primary" x="425" y="629" font-size="13">Accepter automatiquement les demandes</text>

  <line x1="370" y1="660" x2="1070" y2="660" stroke="#E5E7EB"/>
  <rect class="btn-secondary" x="820" y="680" width="100" height="36" rx="4"/>
  <text class="text-primary" x="870" y="704" font-size="14" text-anchor="middle">Annuler</text>
  <rect class="btn-primary" x="935" y="680" width="120" height="36" rx="4"/>
  <text class="text-white" x="995" y="704" font-size="14" font-weight="500" text-anchor="middle">Créer</text>

  <defs><filter id="shadow" x="-20%" y="-20%" width="140%" height="140%"><feDropShadow dx="0" dy="4" stdDeviation="16" flood-opacity="0.15"/></filter></defs>
</svg>
