<svg xmlns="http://www.w3.org/2000/svg" viewBox="0 0 1440 900" width="1440" height="900">
  <defs>
    <style>
      .bg-header { fill: #000E9C; }
      .bg-main { fill: #F6F6F9; }
      .bg-white { fill: #FFFFFF; }
      .bg-primary { fill: #0050D7; }
      .bg-success { fill: #DEF7EC; }
      .bg-warning { fill: #FEF3C7; }
      .bg-info { fill: #DBEAFE; }
      .border { stroke: #E5E7EB; stroke-width: 1; fill: none; }
      .btn-outline { stroke: #0050D7; stroke-width: 1; fill: #FFFFFF; }
      .btn-primary { fill: #0050D7; }
      .row-selected { fill: #E8F0FE; }
      .text-white { fill: #FFFFFF; font-family: 'Source Sans Pro', sans-serif; }
      .text-dark { fill: #1F2937; font-family: 'Source Sans Pro', sans-serif; }
      .text-muted { fill: #6B7280; font-family: 'Source Sans Pro', sans-serif; }
      .text-primary { fill: #0050D7; font-family: 'Source Sans Pro', sans-serif; }
      .text-success { fill: #059669; font-family: 'Source Sans Pro', sans-serif; }
      .text-warning { fill: #D97706; font-family: 'Source Sans Pro', sans-serif; }
      .text-info { fill: #1E40AF; font-family: 'Source Sans Pro', sans-serif; }
    </style>
  </defs>

  <rect width="1440" height="900" class="bg-main"/>
  <rect width="1440" height="50" class="bg-header"/>
  <text x="510" y="32" class="text-white" font-size="14" font-weight="600">Web Cloud</text>
  <rect x="505" y="46" width="75" height="3" fill="#FFFFFF"/>
  <rect x="0" y="50" width="1440" height="40" class="bg-white"/>
  <line x1="0" y1="89" x2="1440" y2="89" stroke="#E5E7EB"/>
  <text x="240" y="75" class="text-primary" font-size="14" font-weight="600">Hebergement</text>
  <rect x="235" y="85" width="85" height="3" fill="#0050D7"/>

  <g transform="translate(0, 90)">
    <g transform="translate(24, 15)">
      <rect x="0" y="0" width="280" height="780" rx="8" class="bg-white"/>
      <rect x="0" y="0" width="280" height="780" rx="8" class="border"/>
      <text x="16" y="30" class="text-dark" font-size="15" font-weight="700">Hebergements</text>
      <g transform="translate(6, 90)">
        <rect x="0" y="0" width="268" height="70" rx="6" class="row-selected"/>
        <text x="12" y="22" class="text-dark" font-size="13" font-weight="600">monsite.cluster031</text>
      </g>

      <rect x="296" y="0" width="1096" height="780" rx="8" class="bg-white"/>
      <rect x="296" y="0" width="1096" height="780" rx="8" class="border"/>

      <g transform="translate(316, 0)">
        <text x="0" y="28" class="text-dark" font-size="18" font-weight="600">monsite.cluster031</text>

        <g transform="translate(0, 50)">
          <rect x="857" y="0" width="75" height="26" rx="4" class="bg-primary"/>
          <text x="894" y="17" class="text-white" font-size="11" text-anchor="middle">SEO Local</text>
        </g>

        <g transform="translate(0, 95)">
          <text x="0" y="20" class="text-dark" font-size="15" font-weight="600">SEO Local - Referencement local</text>
          <rect x="920" y="0" width="136" height="32" rx="4" class="btn-primary"/>
          <text x="988" y="21" class="text-white" font-size="11" text-anchor="middle">Activer SEO Local</text>

          <!-- Status card -->
          <g transform="translate(0, 50)">
            <rect x="0" y="0" width="1056" height="100" rx="6" fill="#FFFFFF" stroke="#E5E7EB"/>
            <text x="16" y="25" class="text-dark" font-size="13" font-weight="600">ETAT DU REFERENCEMENT LOCAL</text>
            <line x1="16" y1="35" x2="1040" y2="35" stroke="#E5E7EB"/>

            <text x="16" y="60" class="text-muted" font-size="11">Statut</text>
            <circle cx="130" cy="56" r="5" fill="#F59E0B"/>
            <text x="140" y="60" class="text-warning" font-size="11">Non configure</text>

            <text x="300" y="60" class="text-muted" font-size="11">Visibilite Google</text>
            <text x="430" y="60" class="text-muted" font-size="11">-</text>

            <text x="550" y="60" class="text-muted" font-size="11">Annuaires</text>
            <text x="650" y="60" class="text-muted" font-size="11">0 / 20</text>

            <text x="16" y="85" class="text-muted" font-size="11">Derniere mise a jour</text>
            <text x="150" y="85" class="text-muted" font-size="11">-</text>
          </g>

          <!-- Features -->
          <g transform="translate(0, 170)">
            <text x="0" y="20" class="text-dark" font-size="13" font-weight="600">Fonctionnalites incluses</text>

            <g transform="translate(0, 35)">
              <rect x="0" y="0" width="340" height="100" rx="6" fill="#FFFFFF" stroke="#E5E7EB"/>
              <text x="16" y="25" class="text-dark" font-size="12" font-weight="500">Google Business Profile</text>
              <text x="16" y="50" class="text-muted" font-size="11">Synchronisation automatique</text>
              <text x="16" y="68" class="text-muted" font-size="11">de votre fiche etablissement</text>
              <rect x="16" y="75" width="70" height="18" rx="9" fill="#DEF7EC"/>
              <text x="51" y="88" class="text-success" font-size="9" text-anchor="middle">Inclus</text>
            </g>

            <g transform="translate(358, 35)">
              <rect x="0" y="0" width="340" height="100" rx="6" fill="#FFFFFF" stroke="#E5E7EB"/>
              <text x="16" y="25" class="text-dark" font-size="12" font-weight="500">Annuaires locaux</text>
              <text x="16" y="50" class="text-muted" font-size="11">Publication sur 20+ annuaires</text>
              <text x="16" y="68" class="text-muted" font-size="11">Pages Jaunes, Yelp, TripAdvisor...</text>
              <rect x="16" y="75" width="70" height="18" rx="9" fill="#DEF7EC"/>
              <text x="51" y="88" class="text-success" font-size="9" text-anchor="middle">Inclus</text>
            </g>

            <g transform="translate(716, 35)">
              <rect x="0" y="0" width="340" height="100" rx="6" fill="#FFFFFF" stroke="#E5E7EB"/>
              <text x="16" y="25" class="text-dark" font-size="12" font-weight="500">Tableau de bord</text>
              <text x="16" y="50" class="text-muted" font-size="11">Suivi de visibilite et</text>
              <text x="16" y="68" class="text-muted" font-size="11">statistiques de presence</text>
              <rect x="16" y="75" width="70" height="18" rx="9" fill="#DEF7EC"/>
              <text x="51" y="88" class="text-success" font-size="9" text-anchor="middle">Inclus</text>
            </g>
          </g>

          <!-- Info -->
          <g transform="translate(0, 310)">
            <rect x="0" y="0" width="1056" height="60" rx="6" class="bg-info"/>
            <text x="16" y="22" class="text-info" font-size="12" font-weight="500">SEO Local powered by Partoo</text>
            <text x="16" y="42" class="text-info" font-size="11">Ameliorez votre visibilite locale en synchronisant vos informations sur Google et les principaux annuaires.</text>
          </g>
        </g>
      </g>
    </g>
  </g>
</svg>
