<svg xmlns="http://www.w3.org/2000/svg" viewBox="0 0 1440 900" width="1440" height="900">
  <defs>
    <style>
      .bg-header { fill: #000E9C; }
      .bg-main { fill: #F6F6F9; }
      .bg-white { fill: #FFFFFF; }
      .bg-primary { fill: #0050D7; }
      .bg-success { fill: #DEF7EC; }
      .border { stroke: #E5E7EB; stroke-width: 1; fill: none; }
      .text-white { fill: #FFFFFF; font-family: 'Source Sans Pro', sans-serif; }
      .text-dark { fill: #1F2937; font-family: 'Source Sans Pro', sans-serif; }
      .text-muted { fill: #6B7280; font-family: 'Source Sans Pro', sans-serif; }
      .text-primary { fill: #0050D7; font-family: 'Source Sans Pro', sans-serif; }
      .text-success { fill: #059669; font-family: 'Source Sans Pro', sans-serif; }
      .btn-outline { stroke: #0050D7; stroke-width: 1; fill: #FFFFFF; }
    </style>
  </defs>

  <!-- Background -->
  <rect width="1440" height="900" class="bg-main"/>

  <!-- NAV1 - Header OVH -->
  <rect width="1440" height="50" class="bg-header"/>
  <text x="110" y="32" class="text-white" font-size="14" font-weight="600">Public Cloud</text>
  <rect x="105" y="46" width="85" height="3" fill="#FFFFFF"/>

  <!-- NAV2 -->
  <rect x="0" y="50" width="1440" height="40" class="bg-white"/>
  <line x1="0" y1="89" x2="1440" y2="89" stroke="#E5E7EB"/>
  <text x="760" y="75" class="text-primary" font-size="14" font-weight="600">Savings Plan</text>
  <rect x="755" y="85" width="90" height="3" fill="#0050D7"/>

  <!-- CONTENT AREA -->
  <g transform="translate(0, 105)">
    <!-- LEFT PANEL -->
    <g transform="translate(24, 0)">
      <rect x="0" y="0" width="280" height="765" rx="8" class="bg-white"/>
      <rect x="0" y="0" width="280" height="765" rx="8" class="border"/>
      <rect x="12" y="12" width="256" height="34" rx="4" fill="#F9FAFB" stroke="#E5E7EB"/>
      <text x="26" y="34" class="text-muted" font-size="12">Rechercher un projet...</text>
      <rect x="0" y="58" width="280" height="45" fill="#E8F0FE"/>
      <text x="16" y="85" class="text-dark" font-size="12" font-weight="500">my-project-123456</text>
    </g>

    <!-- RIGHT PANEL - Commitment Selection -->
    <g transform="translate(320, 0)">
      <rect x="0" y="0" width="1096" height="765" rx="8" class="bg-white"/>
      <rect x="0" y="0" width="1096" height="765" rx="8" class="border"/>

      <g transform="translate(20, 0)">
        <!-- Header -->
        <text x="0" y="28" class="text-dark" font-size="18" font-weight="600">Créer un Savings Plan</text>

        <!-- Section: Commitment Duration -->
        <g transform="translate(0, 60)">
          <text x="0" y="16" class="text-dark" font-size="15" font-weight="700">Sélectionner la durée d'engagement</text>
          <text x="0" y="40" class="text-muted" font-size="12">Une durée d'engagement plus longue vous accorde une remise plus importante.</text>

          <!-- Commitment Cards -->
          <g transform="translate(0, 70)">
            <!-- 6 months -->
            <rect x="0" y="0" width="200" height="120" rx="8" class="border" fill="#FFFFFF"/>
            <text x="100" y="30" class="text-dark" font-size="14" font-weight="600" text-anchor="middle">6 mois</text>
            <text x="100" y="55" class="text-dark" font-size="18" font-weight="700" text-anchor="middle">45,00 €</text>
            <text x="100" y="75" class="text-muted" font-size="11" text-anchor="middle">HT/mois</text>
            <rect x="70" y="85" width="60" height="20" rx="10" class="bg-success"/>
            <text x="100" y="99" class="text-success" font-size="10" text-anchor="middle">-15%</text>

            <!-- 12 months - Selected -->
            <rect x="220" y="0" width="200" height="120" rx="8" stroke="#0050D7" stroke-width="2" fill="#FFFFFF"/>
            <text x="320" y="30" class="text-dark" font-size="14" font-weight="600" text-anchor="middle">12 mois</text>
            <text x="320" y="55" class="text-primary" font-size="18" font-weight="700" text-anchor="middle">37,50 €</text>
            <text x="320" y="75" class="text-muted" font-size="11" text-anchor="middle">HT/mois</text>
            <rect x="290" y="85" width="60" height="20" rx="10" class="bg-success"/>
            <text x="320" y="99" class="text-success" font-size="10" text-anchor="middle">-25%</text>
            <!-- Check mark -->
            <circle cx="390" cy="20" r="12" fill="#0050D7"/>
            <text x="390" y="25" class="text-white" font-size="12" text-anchor="middle">✓</text>

            <!-- 24 months -->
            <rect x="440" y="0" width="200" height="120" rx="8" class="border" fill="#FFFFFF"/>
            <text x="540" y="30" class="text-dark" font-size="14" font-weight="600" text-anchor="middle">24 mois</text>
            <text x="540" y="55" class="text-dark" font-size="18" font-weight="700" text-anchor="middle">30,00 €</text>
            <text x="540" y="75" class="text-muted" font-size="11" text-anchor="middle">HT/mois</text>
            <rect x="510" y="85" width="60" height="20" rx="10" class="bg-success"/>
            <text x="540" y="99" class="text-success" font-size="10" text-anchor="middle">-40%</text>

            <!-- 36 months -->
            <rect x="660" y="0" width="200" height="120" rx="8" class="border" fill="#FFFFFF"/>
            <text x="760" y="30" class="text-dark" font-size="14" font-weight="600" text-anchor="middle">36 mois</text>
            <text x="760" y="55" class="text-dark" font-size="18" font-weight="700" text-anchor="middle">25,00 €</text>
            <text x="760" y="75" class="text-muted" font-size="11" text-anchor="middle">HT/mois</text>
            <rect x="730" y="85" width="60" height="20" rx="10" class="bg-success"/>
            <text x="760" y="99" class="text-success" font-size="10" text-anchor="middle">-50%</text>
          </g>
        </g>

        <!-- Section: Start Date -->
        <g transform="translate(0, 280)">
          <text x="0" y="16" class="text-dark" font-size="15" font-weight="700">Selectionner une date</text>
          <text x="0" y="40" class="text-muted" font-size="12">Indiquez la date à laquelle vous souhaitez que votre Savings Plan prenne effet</text>

          <!-- Date picker -->
          <g transform="translate(0, 60)">
            <rect x="0" y="0" width="200" height="40" rx="4" fill="#F3F4F6" stroke="#E5E7EB"/>
            <text x="16" y="26" class="text-dark" font-size="13">02/01/2026</text>
            <text x="170" y="26" class="text-muted" font-size="14">📅</text>
          </g>
        </g>

        <!-- Section: Name -->
        <g transform="translate(0, 400)">
          <text x="0" y="16" class="text-dark" font-size="15" font-weight="700">Spécifier un nom</text>

          <!-- Input -->
          <g transform="translate(0, 35)">
            <rect x="0" y="0" width="400" height="40" rx="4" fill="#F3F4F6" stroke="#E5E7EB"/>
            <text x="16" y="26" class="text-dark" font-size="13">MySavingsPlan-b3-8</text>
          </g>

          <text x="0" y="95" class="text-muted" font-size="11">Seuls les caractères alphanumériques sont autorisés, ainsi que les _ et -. Limité à 60 caractères.</text>
        </g>

        <!-- Buttons -->
        <g transform="translate(0, 530)">
          <rect x="0" y="0" width="100" height="40" rx="4" class="btn-outline"/>
          <text x="50" y="26" class="text-primary" font-size="14" text-anchor="middle">Annuler</text>
          <rect x="116" y="0" width="180" height="40" rx="4" class="bg-primary"/>
          <text x="206" y="26" class="text-white" font-size="14" text-anchor="middle">Créer un Savings Plan</text>
        </g>
      </g>
    </g>
  </g>
</svg>
