<svg xmlns="http://www.w3.org/2000/svg" viewBox="0 0 1440 900" width="1440" height="900">
  <defs>
    <style>
      .bg-header { fill: #000E9C; }
      .bg-main { fill: #F6F6F9; }
      .bg-white { fill: #FFFFFF; }
      .bg-primary { fill: #0050D7; }
      .bg-info { fill: #DBEAFE; }
      .border { stroke: #E5E7EB; stroke-width: 1; fill: none; }
      .text-white { fill: #FFFFFF; font-family: 'Source Sans Pro', sans-serif; }
      .text-dark { fill: #1F2937; font-family: 'Source Sans Pro', sans-serif; }
      .text-muted { fill: #6B7280; font-family: 'Source Sans Pro', sans-serif; }
      .text-primary { fill: #0050D7; font-family: 'Source Sans Pro', sans-serif; }
      .text-info { fill: #1E40AF; font-family: 'Source Sans Pro', sans-serif; }
      .btn-outline { stroke: #0050D7; stroke-width: 1; fill: #FFFFFF; }
    </style>
  </defs>

  <!-- Background -->
  <rect width="1440" height="900" class="bg-main"/>

  <!-- NAV1 - Header OVH -->
  <rect width="1440" height="50" class="bg-header"/>
  <text x="110" y="32" class="text-white" font-size="14" font-weight="600">Public Cloud</text>
  <rect x="105" y="46" width="85" height="3" fill="#FFFFFF"/>

  <!-- NAV2 -->
  <rect x="0" y="50" width="1440" height="40" class="bg-white"/>
  <line x1="0" y1="89" x2="1440" y2="89" stroke="#E5E7EB"/>
  <text x="620" y="75" class="text-primary" font-size="14" font-weight="600">Data Platform</text>
  <rect x="615" y="85" width="90" height="3" fill="#0050D7"/>

  <!-- CONTENT AREA -->
  <g transform="translate(0, 105)">
    <!-- LEFT PANEL -->
    <g transform="translate(24, 0)">
      <rect x="0" y="0" width="280" height="765" rx="8" class="bg-white"/>
      <rect x="0" y="0" width="280" height="765" rx="8" class="border"/>
      <rect x="12" y="12" width="256" height="34" rx="4" fill="#F9FAFB" stroke="#E5E7EB"/>
      <text x="26" y="34" class="text-muted" font-size="12">Rechercher un projet...</text>
      <rect x="0" y="58" width="280" height="45" fill="#E8F0FE"/>
      <text x="16" y="85" class="text-dark" font-size="12" font-weight="500">my-project-123456</text>
    </g>

    <!-- RIGHT PANEL -->
    <g transform="translate(320, 0)">
      <rect x="0" y="0" width="1096" height="765" rx="8" class="bg-white"/>
      <rect x="0" y="0" width="1096" height="765" rx="8" class="border"/>

      <!-- Centered content for external redirect -->
      <g transform="translate(248, 150)">
        <!-- Illustration placeholder -->
        <rect x="150" y="0" width="300" height="180" rx="8" fill="#F3F4F6"/>
        <text x="300" y="70" class="text-muted" font-size="50" text-anchor="middle">🔗</text>
        <text x="300" y="120" class="text-muted" font-size="14" text-anchor="middle">Redirection externe</text>

        <!-- Title -->
        <text x="300" y="230" class="text-dark" font-size="20" font-weight="600" text-anchor="middle">Accéder à Data Platform</text>

        <!-- Description -->
        <text x="300" y="275" class="text-muted" font-size="13" text-anchor="middle">Vous allez être redirigé vers l'interface dédiée Data Platform</text>
        <text x="300" y="295" class="text-muted" font-size="13" text-anchor="middle">pour gérer vos workflows de données.</text>

        <!-- Info box -->
        <g transform="translate(50, 330)">
          <rect x="0" y="0" width="500" height="70" rx="6" class="bg-info"/>
          <text x="20" y="25" class="text-info" font-size="12">ℹ Data Platform s'ouvre dans un nouvel onglet.</text>
          <text x="20" y="48" class="text-info" font-size="11">Vous serez automatiquement authentifié avec votre compte OVHcloud.</text>
        </g>

        <!-- Button -->
        <rect x="150" y="430" width="300" height="45" rx="4" class="bg-primary"/>
        <text x="300" y="460" class="text-white" font-size="14" text-anchor="middle">Ouvrir Data Platform ↗</text>

        <!-- Secondary link -->
        <text x="300" y="510" class="text-primary" font-size="12" text-anchor="middle">Retour au projet</text>
      </g>
    </g>
  </g>
</svg>
