<?xml version="1.0" encoding="UTF-8"?>
<svg width="1100" height="500" viewBox="0 0 1100 500" fill="none" xmlns="http://www.w3.org/2000/svg">
  <title>Public Cloud - Serverless Functions</title>
  <rect width="1100" height="500" fill="#F9FAFB"/>
  <g transform="translate(30, 30)"><text x="0" y="0" fill="#1F2937" font-family="system-ui, sans-serif" font-size="22" font-weight="600">Functions (Serverless)</text><text x="0" y="30" fill="#6B7280" font-family="system-ui, sans-serif" font-size="13">Fonctions serverless managées.</text></g>
  <g transform="translate(30, 90)"><rect x="0" y="0" width="160" height="40" rx="4" fill="#0050D7"/><text x="25" y="26" fill="white" font-family="system-ui, sans-serif" font-size="13">+ Créer fonction</text></g>
  <g transform="translate(30, 160)">
    <rect x="0" y="0" width="1040" height="300" rx="8" fill="white" stroke="#E5E7EB"/>
    <g transform="translate(0, 0)"><rect x="0" y="0" width="1040" height="45" rx="8" fill="#F9FAFB"/><text x="20" y="28" fill="#6B7280" font-family="system-ui, sans-serif" font-size="12" font-weight="500">Nom</text><text x="220" y="28" fill="#6B7280" font-family="system-ui, sans-serif" font-size="12" font-weight="500">Runtime</text><text x="350" y="28" fill="#6B7280" font-family="system-ui, sans-serif" font-size="12" font-weight="500">Région</text><text x="450" y="28" fill="#6B7280" font-family="system-ui, sans-serif" font-size="12" font-weight="500">Invocations (24h)</text><text x="600" y="28" fill="#6B7280" font-family="system-ui, sans-serif" font-size="12" font-weight="500">Durée moy.</text><text x="720" y="28" fill="#6B7280" font-family="system-ui, sans-serif" font-size="12" font-weight="500">État</text><text x="850" y="28" fill="#6B7280" font-family="system-ui, sans-serif" font-size="12" font-weight="500">URL</text><text x="980" y="28" fill="#6B7280" font-family="system-ui, sans-serif" font-size="12" font-weight="500">Actions</text></g>
    <g transform="translate(0, 50)"><line x1="0" y1="0" x2="1040" y2="0" stroke="#E5E7EB"/><text x="20" y="35" fill="#1F2937" font-family="system-ui, sans-serif" font-size="13" font-weight="500">image-resize</text><g transform="translate(220, 18)"><rect x="0" y="0" width="70" height="22" rx="4" fill="#FEF3C7"/><text x="10" y="15" fill="#92400E" font-family="system-ui, sans-serif" font-size="10">Node.js 20</text></g><text x="350" y="35" fill="#1F2937" font-family="system-ui, sans-serif" font-size="13">GRA</text><text x="450" y="35" fill="#1F2937" font-family="system-ui, sans-serif" font-size="13">12,456</text><text x="600" y="35" fill="#1F2937" font-family="system-ui, sans-serif" font-size="13">120ms</text><g transform="translate(720, 18)"><rect x="0" y="0" width="60" height="22" rx="4" fill="#DCFCE7"/><text x="15" y="15" fill="#16A34A" font-family="system-ui, sans-serif" font-size="10">Active</text></g><text x="850" y="35" fill="#0050D7" font-family="system-ui, sans-serif" font-size="11">↗</text><g transform="translate(980, 18)"><rect x="0" y="0" width="30" height="30" rx="4" fill="#F9FAFB" stroke="#E5E7EB"/><text x="11" y="22" fill="#6B7280" font-family="system-ui, sans-serif" font-size="14">⋮</text></g></g>
    <g transform="translate(0, 110)"><line x1="0" y1="0" x2="1040" y2="0" stroke="#E5E7EB"/><text x="20" y="35" fill="#1F2937" font-family="system-ui, sans-serif" font-size="13" font-weight="500">webhook-handler</text><g transform="translate(220, 18)"><rect x="0" y="0" width="70" height="22" rx="4" fill="#EFF6FF"/><text x="10" y="15" fill="#0050D7" font-family="system-ui, sans-serif" font-size="10">Python 3.11</text></g><text x="350" y="35" fill="#1F2937" font-family="system-ui, sans-serif" font-size="13">SBG</text><text x="450" y="35" fill="#1F2937" font-family="system-ui, sans-serif" font-size="13">3,421</text><text x="600" y="35" fill="#1F2937" font-family="system-ui, sans-serif" font-size="13">85ms</text><g transform="translate(720, 18)"><rect x="0" y="0" width="60" height="22" rx="4" fill="#DCFCE7"/><text x="15" y="15" fill="#16A34A" font-family="system-ui, sans-serif" font-size="10">Active</text></g><text x="850" y="35" fill="#0050D7" font-family="system-ui, sans-serif" font-size="11">↗</text><g transform="translate(980, 18)"><rect x="0" y="0" width="30" height="30" rx="4" fill="#F9FAFB" stroke="#E5E7EB"/><text x="11" y="22" fill="#6B7280" font-family="system-ui, sans-serif" font-size="14">⋮</text></g></g>
    <g transform="translate(0, 170)"><line x1="0" y1="0" x2="1040" y2="0" stroke="#E5E7EB"/><text x="20" y="35" fill="#1F2937" font-family="system-ui, sans-serif" font-size="13" font-weight="500">pdf-generator</text><g transform="translate(220, 18)"><rect x="0" y="0" width="70" height="22" rx="4" fill="#DCFCE7"/><text x="15" y="15" fill="#16A34A" font-family="system-ui, sans-serif" font-size="10">Go 1.21</text></g><text x="350" y="35" fill="#1F2937" font-family="system-ui, sans-serif" font-size="13">GRA</text><text x="450" y="35" fill="#1F2937" font-family="system-ui, sans-serif" font-size="13">891</text><text x="600" y="35" fill="#1F2937" font-family="system-ui, sans-serif" font-size="13">450ms</text><g transform="translate(720, 18)"><rect x="0" y="0" width="60" height="22" rx="4" fill="#DCFCE7"/><text x="15" y="15" fill="#16A34A" font-family="system-ui, sans-serif" font-size="10">Active</text></g><text x="850" y="35" fill="#0050D7" font-family="system-ui, sans-serif" font-size="11">↗</text><g transform="translate(980, 18)"><rect x="0" y="0" width="30" height="30" rx="4" fill="#F9FAFB" stroke="#E5E7EB"/><text x="11" y="22" fill="#6B7280" font-family="system-ui, sans-serif" font-size="14">⋮</text></g></g>
    <g transform="translate(0, 230)"><line x1="0" y1="0" x2="1040" y2="0" stroke="#E5E7EB"/><text x="20" y="35" fill="#1F2937" font-family="system-ui, sans-serif" font-size="13" font-weight="500">cron-cleanup</text><g transform="translate(220, 18)"><rect x="0" y="0" width="70" height="22" rx="4" fill="#FEF3C7"/><text x="10" y="15" fill="#92400E" font-family="system-ui, sans-serif" font-size="10">Node.js 20</text></g><text x="350" y="35" fill="#1F2937" font-family="system-ui, sans-serif" font-size="13">BHS</text><text x="450" y="35" fill="#1F2937" font-family="system-ui, sans-serif" font-size="13">24</text><text x="600" y="35" fill="#1F2937" font-family="system-ui, sans-serif" font-size="13">2.1s</text><g transform="translate(720, 18)"><rect x="0" y="0" width="60" height="22" rx="4" fill="#DCFCE7"/><text x="15" y="15" fill="#16A34A" font-family="system-ui, sans-serif" font-size="10">Active</text></g><text x="850" y="35" fill="#6B7280" font-family="system-ui, sans-serif" font-size="11">CRON</text><g transform="translate(980, 18)"><rect x="0" y="0" width="30" height="30" rx="4" fill="#F9FAFB" stroke="#E5E7EB"/><text x="11" y="22" fill="#6B7280" font-family="system-ui, sans-serif" font-size="14">⋮</text></g></g>
  </g>
</svg>
