<svg xmlns="http://www.w3.org/2000/svg" viewBox="0 0 1440 900" width="1440" height="900">
  <defs>
    <style>
      .bg-header { fill: #000E9C; }
      .bg-main { fill: #F6F6F9; }
      .bg-white { fill: #FFFFFF; }
      .bg-primary { fill: #0050D7; }
      .bg-success { fill: #DEF7EC; }
      .border { stroke: #E5E7EB; stroke-width: 1; fill: none; }
      .divider { stroke: #E5E7EB; stroke-width: 1; }
      .btn-outline { stroke: #0050D7; stroke-width: 1; fill: #FFFFFF; }
      .btn-primary { fill: #0050D7; }
      .row-selected { fill: #E8F0FE; }
      .text-white { fill: #FFFFFF; font-family: 'Source Sans Pro', sans-serif; }
      .text-dark { fill: #1F2937; font-family: 'Source Sans Pro', sans-serif; }
      .text-muted { fill: #6B7280; font-family: 'Source Sans Pro', sans-serif; }
      .text-primary { fill: #0050D7; font-family: 'Source Sans Pro', sans-serif; }
    </style>
  </defs>

  <rect width="1440" height="900" class="bg-main"/>

  <!-- NAV1 - Web Cloud actif -->
  <rect width="1440" height="50" class="bg-header"/>
  <text x="40" y="32" class="text-white" font-size="14" opacity="0.7">Accueil</text>
  <text x="110" y="32" class="text-white" font-size="14" opacity="0.7">Public Cloud</text>
  <text x="210" y="32" class="text-white" font-size="14" opacity="0.7">Hosted Private Cloud</text>
  <text x="370" y="32" class="text-white" font-size="14" opacity="0.7">Bare Metal Cloud</text>
  <text x="510" y="32" class="text-white" font-size="14" font-weight="600">Web Cloud</text>
  <rect x="505" y="46" width="75" height="3" fill="#FFFFFF"/>
  <text x="620" y="32" class="text-white" font-size="14" opacity="0.7">Network</text>
  <text x="700" y="32" class="text-white" font-size="14" opacity="0.7">IAM / Securite</text>
  <text x="810" y="32" class="text-white" font-size="14" opacity="0.7">Licences</text>

  <!-- NAV2 - Domaines et DNS actif -->
  <rect x="0" y="50" width="1440" height="40" class="bg-white"/>
  <line x1="0" y1="89" x2="1440" y2="89" class="divider"/>
  <text x="40" y="75" class="text-muted" font-size="14">Accueil</text>
  <text x="110" y="75" class="text-primary" font-size="14" font-weight="600">Domaines et DNS</text>
  <rect x="105" y="85" width="110" height="3" fill="#0050D7"/>
  <text x="240" y="75" class="text-muted" font-size="14">Hébergement</text>
  <text x="345" y="75" class="text-muted" font-size="14">Wordpress</text>
  <text x="430" y="75" class="text-muted" font-size="14">Emails</text>
  <text x="500" y="75" class="text-muted" font-size="14">VoIP</text>
  <text x="550" y="75" class="text-muted" font-size="14">Accès</text>
  <text x="1350" y="75" class="text-primary" font-size="13">Guides</text>

  <!-- CONTENT AREA -->
  <g transform="translate(0, 105)">
    <g transform="translate(24, 0)">
      <!-- LEFT PANEL -->
      <rect x="0" y="0" width="280" height="765" rx="8" class="bg-white"/>
      <rect x="0" y="0" width="280" height="765" rx="8" class="border"/>

      <rect x="12" y="12" width="256" height="34" rx="4" fill="#F9FAFB" stroke="#E5E7EB"/>
      <text x="40" y="34" class="text-muted" font-size="12">Rechercher...</text>

      <rect x="6" y="60" width="268" height="50" rx="6" class="row-selected"/>
      <text x="28" y="78" font-size="14">🌐</text>
      <text x="52" y="80" class="text-dark" font-size="12" font-weight="500">example.com</text>
      <text x="52" y="95" class="text-muted" font-size="10">Domaine + Zone</text>
      <rect x="210" y="76" width="46" height="18" rx="9" fill="#DEF7EC"/>
      <text x="233" y="89" fill="#03543F" font-size="9" text-anchor="middle">Actif</text>
    </g>

    <g transform="translate(320, 0)">
      <rect x="0" y="0" width="1096" height="765" rx="8" class="bg-white"/>
      <rect x="0" y="0" width="1096" height="765" rx="8" class="border"/>

      <g transform="translate(20, 0)">
        <text x="0" y="24" class="text-dark" font-size="18" font-weight="600">Contacts du domaine</text>
        <text x="0" y="48" class="text-muted" font-size="12">Gérez les contacts associés à votre domaine (propriétaire, administrateur, technique, facturation).</text>

        <!-- NAV3 - Contacts actif -->
        <g transform="translate(0, 62)">
          <rect x="0" y="0" width="100" height="26" rx="4" class="btn-outline"/>
          <text x="50" y="17" class="text-primary" font-size="11" text-anchor="middle">Infos générales</text>

          <rect x="104" y="0" width="70" height="26" rx="4" class="btn-outline"/>
          <text x="139" y="17" class="text-primary" font-size="11" text-anchor="middle">Zone DNS</text>

          <rect x="178" y="0" width="90" height="26" rx="4" class="btn-outline"/>
          <text x="223" y="17" class="text-primary" font-size="11" text-anchor="middle">Serveurs DNS</text>

          <rect x="272" y="0" width="85" height="26" rx="4" class="btn-outline"/>
          <text x="314" y="17" class="text-primary" font-size="11" text-anchor="middle">Redirections</text>

          <rect x="361" y="0" width="60" height="26" rx="4" class="btn-outline"/>
          <text x="391" y="17" class="text-primary" font-size="11" text-anchor="middle">DynHost</text>

          <rect x="425" y="0" width="45" height="26" rx="4" class="btn-outline"/>
          <text x="447" y="17" class="text-primary" font-size="11" text-anchor="middle">GLUE</text>

          <rect x="474" y="0" width="55" height="26" rx="4" class="btn-outline"/>
          <text x="501" y="17" class="text-primary" font-size="11" text-anchor="middle">DNSSEC</text>

          <rect x="533" y="0" width="65" height="26" rx="4" class="bg-primary"/>
          <text x="565" y="17" class="text-white" font-size="11" text-anchor="middle">Contacts</text>

          <rect x="602" y="0" width="55" height="26" rx="4" class="btn-outline"/>
          <text x="629" y="17" class="text-primary" font-size="11" text-anchor="middle">Tâches</text>

          <rect x="661" y="0" width="55" height="26" rx="4" class="btn-outline"/>
          <text x="688" y="17" class="text-primary" font-size="11" text-anchor="middle">Alldom</text>
        </g>

        <!-- CONTACT CARDS - 2x2 Grid -->
        <!-- Row 1 -->
        <g transform="translate(0, 110)">
          <!-- Card 1: Propriétaire -->
          <rect x="0" y="0" width="500" height="150" rx="8" stroke="#E5E7EB" fill="#FFFFFF"/>
          <rect x="15" y="15" width="100" height="22" rx="4" fill="#0050D7"/>
          <text x="65" y="30" class="text-white" font-size="10" text-anchor="middle">PROPRIÉTAIRE</text>
          <text x="15" y="55" class="text-dark" font-size="13" font-weight="600">Jean Dupont</text>
          <text x="15" y="72" class="text-muted" font-size="11">Ma Société SARL</text>
          <text x="15" y="89" class="text-muted" font-size="11">123 Rue de Paris, 75001 Paris</text>
          <text x="15" y="106" class="text-muted" font-size="11">📧 jean@example.com</text>
          <text x="200" y="106" class="text-muted" font-size="11">📞 +33 1 23 45 67 89</text>
          <text x="430" y="130" class="text-primary" font-size="11">Modifier →</text>

          <!-- Card 2: Administrateur -->
          <rect x="520" y="0" width="500" height="150" rx="8" stroke="#E5E7EB" fill="#FFFFFF"/>
          <rect x="535" y="15" width="60" height="22" rx="4" fill="#16A34A"/>
          <text x="565" y="30" class="text-white" font-size="10" text-anchor="middle">ADMIN</text>
          <text x="535" y="55" class="text-dark" font-size="13" font-weight="600">Jean Dupont</text>
          <text x="535" y="72" class="text-muted" font-size="11">Ma Société SARL</text>
          <text x="535" y="89" class="text-muted" font-size="11">123 Rue de Paris, 75001 Paris</text>
          <text x="535" y="106" class="text-muted" font-size="11">📧 admin@example.com</text>
          <text x="720" y="106" class="text-muted" font-size="11">📞 +33 1 23 45 67 89</text>
          <text x="950" y="130" class="text-primary" font-size="11">Modifier →</text>
        </g>

        <!-- Row 2 -->
        <g transform="translate(0, 280)">
          <!-- Card 3: Technique -->
          <rect x="0" y="0" width="500" height="150" rx="8" stroke="#E5E7EB" fill="#FFFFFF"/>
          <rect x="15" y="15" width="80" height="22" rx="4" fill="#7C3AED"/>
          <text x="55" y="30" class="text-white" font-size="10" text-anchor="middle">TECHNIQUE</text>
          <text x="15" y="55" class="text-dark" font-size="13" font-weight="600">OVHcloud</text>
          <text x="15" y="72" class="text-muted" font-size="11">OVH SAS</text>
          <text x="15" y="89" class="text-muted" font-size="11">2 Rue Kellermann, 59100 Roubaix</text>
          <text x="15" y="106" class="text-muted" font-size="11">📧 tech@ovh.net</text>
          <text x="430" y="130" class="text-primary" font-size="11">Modifier →</text>

          <!-- Card 4: Facturation -->
          <rect x="520" y="0" width="500" height="150" rx="8" stroke="#E5E7EB" fill="#FFFFFF"/>
          <rect x="535" y="15" width="95" height="22" rx="4" fill="#F59E0B"/>
          <text x="582" y="30" class="text-white" font-size="10" text-anchor="middle">FACTURATION</text>
          <text x="535" y="55" class="text-dark" font-size="13" font-weight="600">Jean Dupont</text>
          <text x="535" y="72" class="text-muted" font-size="11">Ma Société SARL</text>
          <text x="535" y="89" class="text-muted" font-size="11">123 Rue de Paris, 75001 Paris</text>
          <text x="535" y="106" class="text-muted" font-size="11">📧 billing@example.com</text>
          <text x="720" y="106" class="text-muted" font-size="11">📞 +33 1 23 45 67 89</text>
          <text x="950" y="130" class="text-primary" font-size="11">Modifier →</text>
        </g>

        <!-- Help link -->
        <g transform="translate(0, 460)">
          <text x="0" y="0" class="text-primary" font-size="11">Guide : Gérer les contacts de votre domaine ↗</text>
        </g>
      </g>
    </g>
  </g>
</svg>
