<svg xmlns="http://www.w3.org/2000/svg" viewBox="0 0 1440 900" width="1440" height="900">
  <defs>
    <style>
      .bg-muted { fill: #F9FAFB; }
      .bg-white { fill: #FFFFFF; }
      .bg-header { fill: #000E9C; }
      .text-h2 { font-family: 'Source Sans Pro', sans-serif; font-size: 20px; font-weight: 600; fill: #1F2937; }
      .text-body { font-family: 'Source Sans Pro', sans-serif; font-size: 14px; fill: #374151; }
      .text-muted { font-family: 'Source Sans Pro', sans-serif; font-size: 14px; fill: #6B7280; }
      .text-white { font-family: 'Source Sans Pro', sans-serif; font-size: 14px; fill: #FFFFFF; }
      .text-link { font-family: 'Source Sans Pro', sans-serif; font-size: 14px; fill: #0050D7; }
      .btn-primary { fill: #0050D7; }
      .table-header { fill: #F3F4F6; }
      .table-border { stroke: #E5E7EB; stroke-width: 1; }
      .action-menu { fill: #1F2937; font-family: 'Source Sans Pro', sans-serif; font-size: 18px; }
      .dropdown-bg { fill: #FFFFFF; stroke: #E5E7EB; filter: drop-shadow(0 4px 6px rgba(0,0,0,0.1)); }
      .dropdown-item { font-family: 'Source Sans Pro', sans-serif; font-size: 14px; fill: #374151; }
      .dropdown-hover { fill: #F3F4F6; }
      .breadcrumb { font-family: 'Source Sans Pro', sans-serif; font-size: 13px; fill: #6B7280; }
      .tab-active { fill: #0050D7; }
      .tab-inactive { fill: #6B7280; }
      .file-icon { fill: #6B7280; }
      .toggle-bg { fill: #E5E7EB; }
      .toggle-knob { fill: #FFFFFF; }
    </style>
  </defs>
  <rect width="1440" height="900" class="bg-muted"/>
  <rect width="1440" height="60" class="bg-header"/>
  <text x="20" y="38" class="text-white" font-size="18" font-weight="bold">OVHcloud</text>
  <rect x="0" y="60" width="240" height="840" class="bg-white"/>
  <text x="20" y="100" class="text-body">Public Cloud</text>
  <text x="20" y="130" class="text-muted">Object Storage</text>
  <rect x="0" y="140" width="240" height="36" fill="#E8F0FE"/>
  <text x="40" y="164" class="text-link">my-swift-container</text>
  
  <g transform="translate(280, 80)">
    <!-- Breadcrumb -->
    <text y="0" class="breadcrumb">Object Storage &gt; Containers &gt; my-swift-container</text>
    
    <!-- Tabs -->
    <g transform="translate(0, 30)">
      <text x="0" y="0" class="tab-inactive">Dashboard</text>
      <text x="100" y="0" class="tab-active" font-weight="600">Objets</text>
      <rect x="100" y="5" width="50" height="3" fill="#0050D7"/>
    </g>
    
    <!-- Title + Button -->
    <g transform="translate(0, 60)">
      <text y="20" class="text-h2">Objets</text>
      <rect x="900" y="0" width="160" height="36" rx="4" class="btn-primary"/>
      <text x="920" y="23" class="text-white">+ Ajouter des objets</text>
    </g>
    
    <!-- Toggle versions -->
    <g transform="translate(0, 110)">
      <rect x="0" y="0" width="44" height="24" rx="12" class="toggle-bg"/>
      <circle cx="12" cy="12" r="9" class="toggle-knob"/>
      <text x="54" y="17" class="text-body">Voir les versions</text>
    </g>
    
    <!-- Table -->
    <g transform="translate(0, 160)">
      <rect x="0" y="0" width="1100" height="44" class="table-header"/>
      <line x1="0" y1="0" x2="1100" y2="0" class="table-border"/>
      <line x1="0" y1="44" x2="1100" y2="44" class="table-border"/>
      
      <text x="20" y="28" class="text-body" font-weight="600">Nom</text>
      <text x="450" y="28" class="text-body" font-weight="600">Dernière modification</text>
      <text x="700" y="28" class="text-body" font-weight="600">Taille</text>
      <text x="850" y="28" class="text-body" font-weight="600">Type</text>
      
      <!-- Row 1 -->
      <rect x="0" y="44" width="1100" height="52" class="bg-white"/>
      <line x1="0" y1="96" x2="1100" y2="96" class="table-border"/>
      <text x="20" y="76" class="file-icon">📄</text>
      <text x="45" y="76" class="text-body">backup-2024-12-27.tar.gz</text>
      <text x="450" y="76" class="text-body">27/12/2024 10:30</text>
      <text x="700" y="76" class="text-body">1.2 GB</text>
      <text x="850" y="76" class="text-body">application/gzip</text>
      <text x="1060" y="76" class="action-menu" style="cursor:pointer">⋮</text>
      
      <!-- Row 2 -->
      <rect x="0" y="96" width="1100" height="52" class="bg-white"/>
      <line x1="0" y1="148" x2="1100" y2="148" class="table-border"/>
      <text x="20" y="128" class="file-icon">📄</text>
      <text x="45" y="128" class="text-body">config.json</text>
      <text x="450" y="128" class="text-body">25/12/2024 15:45</text>
      <text x="700" y="128" class="text-body">4.5 KB</text>
      <text x="850" y="128" class="text-body">application/json</text>
      <text x="1060" y="128" class="action-menu" style="cursor:pointer">⋮</text>
      
      <!-- Row 3 -->
      <rect x="0" y="148" width="1100" height="52" class="bg-white"/>
      <line x1="0" y1="200" x2="1100" y2="200" class="table-border"/>
      <text x="20" y="180" class="file-icon">🖼</text>
      <text x="45" y="180" class="text-body">logo.png</text>
      <text x="450" y="180" class="text-body">20/12/2024 09:00</text>
      <text x="700" y="180" class="text-body">256 KB</text>
      <text x="850" y="180" class="text-body">image/png</text>
      <text x="1060" y="180" class="action-menu" style="cursor:pointer">⋮</text>
    </g>
    
    <!-- ActionMenu OUVERT sur row 1 -->
    <g transform="translate(950, 280)">
      <rect x="0" y="0" width="140" height="80" rx="4" class="dropdown-bg"/>
      <rect x="0" y="0" width="140" height="40" rx="4 4 0 0" class="dropdown-hover"/>
      <text x="16" y="26" class="dropdown-item">Télécharger</text>
      <text x="16" y="66" class="dropdown-item" fill="#DC2626">Supprimer</text>
    </g>
    
    <!-- Pagination -->
    <g transform="translate(0, 430)">
      <text x="0" y="20" class="text-muted">1-3 sur 3 objets</text>
    </g>
  </g>
</svg>
