<svg xmlns="http://www.w3.org/2000/svg" viewBox="0 0 1440 900" width="1440" height="900">
  <defs>
    <style>
      .bg-header { fill: #000E9C; }
      .bg-main { fill: #F6F6F9; }
      .bg-white { fill: #FFFFFF; }
      .bg-primary { fill: #0050D7; }
      .bg-info { fill: #DBEAFE; }
      .bg-success { fill: #DEF7EC; }
      .border { stroke: #E5E7EB; stroke-width: 1; fill: none; }
      .btn-outline { stroke: #0050D7; stroke-width: 1; fill: #FFFFFF; }
      .btn-primary { fill: #0050D7; }
      .row-selected { fill: #E8F0FE; }
      .table-header { fill: #F9FAFB; }
      .text-white { fill: #FFFFFF; font-family: 'Source Sans Pro', sans-serif; }
      .text-dark { fill: #1F2937; font-family: 'Source Sans Pro', sans-serif; }
      .text-muted { fill: #6B7280; font-family: 'Source Sans Pro', sans-serif; }
      .text-primary { fill: #0050D7; font-family: 'Source Sans Pro', sans-serif; }
      .text-info { fill: #1E40AF; font-family: 'Source Sans Pro', sans-serif; }
      .text-success { fill: #03543F; font-family: 'Source Sans Pro', sans-serif; }
    </style>
  </defs>

  <rect width="1440" height="900" class="bg-main"/>

  <!-- NAV1 -->
  <rect width="1440" height="50" class="bg-header"/>
  <text x="40" y="32" class="text-white" font-size="14" opacity="0.7">Accueil</text>
  <text x="110" y="32" class="text-white" font-size="14" opacity="0.7">Public Cloud</text>
  <text x="210" y="32" class="text-white" font-size="14" opacity="0.7">Hosted Private Cloud</text>
  <text x="370" y="32" class="text-white" font-size="14" opacity="0.7">Bare Metal Cloud</text>
  <text x="510" y="32" class="text-white" font-size="14" font-weight="600">Web Cloud</text>
  <rect x="505" y="46" width="75" height="3" fill="#FFFFFF"/>
  <text x="620" y="32" class="text-white" font-size="14" opacity="0.7">Network</text>
  <text x="700" y="32" class="text-white" font-size="14" opacity="0.7">IAM / Securite</text>
  <text x="810" y="32" class="text-white" font-size="14" opacity="0.7">Licences</text>
  <rect x="1280" y="12" width="140" height="26" rx="13" fill="rgba(255,255,255,0.2)"/>
  <text x="1320" y="29" class="text-white" font-size="12">ab12345-ovh</text>

  <!-- NAV2 -->
  <rect x="0" y="50" width="1440" height="40" class="bg-white"/>
  <line x1="0" y1="89" x2="1440" y2="89" stroke="#E5E7EB"/>
  <text x="40" y="75" class="text-muted" font-size="14">Accueil</text>
  <text x="110" y="75" class="text-primary" font-size="14" font-weight="600">Domaines et DNS</text>
  <rect x="105" y="85" width="110" height="3" fill="#0050D7"/>
  <text x="240" y="75" class="text-muted" font-size="14">Hébergement</text>
  <text x="345" y="75" class="text-muted" font-size="14">Wordpress</text>
  <text x="430" y="75" class="text-muted" font-size="14">Emails</text>
  <text x="500" y="75" class="text-muted" font-size="14">VoIP</text>
  <text x="550" y="75" class="text-muted" font-size="14">Accès</text>
  <text x="1350" y="75" class="text-primary" font-size="13">Guides</text>

  <!-- CONTENT -->
  <g transform="translate(0, 105)">
    <!-- LEFT PANEL -->
    <g transform="translate(24, 0)">
      <rect x="0" y="0" width="280" height="765" rx="8" class="bg-white"/>
      <rect x="0" y="0" width="280" height="765" rx="8" class="border"/>

      <!-- NAV3 Groupement (TOUJOURS au-dessus de recherche) -->
      <rect x="0" y="0" width="280" height="44" rx="8" fill="#F9FAFB"/>
      <rect x="12" y="10" width="80" height="24" rx="4" fill="#FFFFFF" stroke="#E5E7EB"/>
      <text x="52" y="26" class="text-muted" font-size="11" text-anchor="middle">Général</text>
      <rect x="96" y="10" width="80" height="24" rx="4" class="bg-primary"/>
      <text x="136" y="26" class="text-white" font-size="11" text-anchor="middle">DNS</text>
      <rect x="180" y="10" width="80" height="24" rx="4" fill="#FFFFFF" stroke="#E5E7EB"/>
      <text x="220" y="26" class="text-muted" font-size="11" text-anchor="middle">Expert</text>
      <line x1="0" y1="44" x2="280" y2="44" stroke="#E5E7EB"/>

      <!-- Recherche (y=56, sous NAV3 Groupement) -->
      <rect x="12" y="56" width="256" height="34" rx="4" fill="#F9FAFB" stroke="#E5E7EB"/>
      <text x="40" y="78" class="text-muted" font-size="12">Rechercher...</text>
      <text x="24" y="78" class="text-muted" font-size="14">🔍</text>

      <!-- Compteur (y=100) -->
      <text x="12" y="112" class="text-muted" font-size="11">Filtrer ▾</text>
      <text x="268" y="112" class="text-muted" font-size="11" text-anchor="end">3 services</text>

      <!-- Service items (y=124) -->
      <rect x="6" y="124" width="268" height="64" rx="6" class="row-selected"/>
      <text x="28" y="148" font-size="16">🌐</text>
      <text x="52" y="144" class="text-dark" font-size="13" font-weight="500">example.com</text>
      <text x="52" y="160" class="text-muted" font-size="10">Domaine + Zone</text>
      <rect x="210" y="140" width="46" height="18" rx="9" fill="#DEF7EC"/>
      <text x="233" y="153" fill="#03543F" font-size="10" text-anchor="middle">Actif</text>
    </g>

    <!-- RIGHT PANEL -->
    <g transform="translate(320, 0)">
      <rect x="0" y="0" width="1096" height="765" rx="8" class="bg-white"/>
      <rect x="0" y="0" width="1096" height="765" rx="8" class="border"/>

      <g transform="translate(20, 0)">
        <text x="0" y="24" class="text-dark" font-size="18" font-weight="600">example.com</text>

        <!-- NAV3 TABS - DKIM actif -->
        <g transform="translate(0, 38)">
          <rect x="0" y="0" width="70" height="26" rx="4" class="btn-outline"/>
          <text x="35" y="17" class="text-primary" font-size="10" text-anchor="middle">Infos DNS</text>
          <rect x="74" y="0" width="85" height="26" rx="4" class="btn-outline"/>
          <text x="116" y="17" class="text-primary" font-size="10" text-anchor="middle">Serveurs DNS</text>
          <rect x="163" y="0" width="65" height="26" rx="4" class="btn-outline"/>
          <text x="195" y="17" class="text-primary" font-size="10" text-anchor="middle">Zone DNS</text>
          <rect x="232" y="0" width="55" height="26" rx="4" class="btn-outline"/>
          <text x="259" y="17" class="text-primary" font-size="10" text-anchor="middle">DNSSEC</text>
          <rect x="291" y="0" width="40" height="26" rx="4" class="btn-outline"/>
          <text x="311" y="17" class="text-primary" font-size="10" text-anchor="middle">SPF</text>
          <rect x="335" y="0" width="45" height="26" rx="4" class="btn-primary"/>
          <text x="357" y="17" class="text-white" font-size="10" text-anchor="middle">DKIM</text>
          <rect x="384" y="0" width="55" height="26" rx="4" class="btn-outline"/>
          <text x="411" y="17" class="text-primary" font-size="10" text-anchor="middle">DMARC</text>
          <rect x="443" y="0" width="40" height="26" rx="4" class="btn-outline"/>
          <text x="463" y="17" class="text-primary" font-size="10" text-anchor="middle">ARC</text>
          <rect x="487" y="0" width="45" height="26" rx="4" class="btn-outline"/>
          <text x="509" y="17" class="text-primary" font-size="10" text-anchor="middle">BIMI</text>
          <rect x="536" y="0" width="40" height="26" rx="4" class="btn-outline"/>
          <text x="556" y="17" class="text-primary" font-size="10" text-anchor="middle">CAA</text>
          <rect x="580" y="0" width="60" height="26" rx="4" class="btn-outline"/>
          <text x="610" y="17" class="text-primary" font-size="10" text-anchor="middle">DynHost</text>
        </g>

        <!-- Title + Actions -->
        <g transform="translate(0, 80)">
          <text x="0" y="20" class="text-dark" font-size="15" font-weight="700">Configuration DKIM</text>
          <text x="0" y="40" class="text-muted" font-size="12">DomainKeys Identified Mail - Signez cryptographiquement vos emails</text>
          <rect x="900" y="0" width="120" height="32" rx="4" class="btn-primary"/>
          <text x="960" y="21" class="text-white" font-size="11" text-anchor="middle">+ Ajouter clé</text>
        </g>

        <!-- DKIM Keys Table -->
        <g transform="translate(0, 140)">
          <text x="0" y="0" class="text-dark" font-size="14" font-weight="600">Clés DKIM configurées</text>

          <rect x="0" y="15" width="1020" height="220" rx="8" fill="#FFFFFF" stroke="#E5E7EB"/>
          <rect x="1" y="16" width="1018" height="35" rx="8" class="table-header"/>
          <text x="20" y="40" class="text-muted" font-size="11" font-weight="600">SÉLECTEUR</text>
          <text x="150" y="40" class="text-muted" font-size="11" font-weight="600">ALGORITHME</text>
          <text x="300" y="40" class="text-muted" font-size="11" font-weight="600">CLÉ PUBLIQUE</text>
          <text x="750" y="40" class="text-muted" font-size="11" font-weight="600">STATUT</text>
          <text x="900" y="40" class="text-muted" font-size="11" font-weight="600">ACTIONS</text>

          <line x1="0" y1="51" x2="1020" y2="51" stroke="#E5E7EB"/>
          <text x="20" y="80" class="text-dark" font-size="12" font-family="monospace">ovhex1234-selector1</text>
          <text x="150" y="80" class="text-dark" font-size="12">RSA 2048</text>
          <text x="300" y="80" class="text-muted" font-size="10" font-family="monospace">v=DKIM1; k=rsa; p=MIIBIjAN...</text>
          <rect x="750" y="65" width="60" height="22" rx="11" fill="#DEF7EC"/>
          <text x="780" y="81" fill="#03543F" font-size="10" text-anchor="middle">Actif</text>
          <text x="920" y="80" class="text-primary" font-size="11">Modifier | Supprimer</text>

          <line x1="0" y1="100" x2="1020" y2="100" stroke="#E5E7EB"/>
          <text x="20" y="130" class="text-dark" font-size="12" font-family="monospace">ovhex1234-selector2</text>
          <text x="150" y="130" class="text-dark" font-size="12">RSA 2048</text>
          <text x="300" y="130" class="text-muted" font-size="10" font-family="monospace">v=DKIM1; k=rsa; p=MIGfMA0G...</text>
          <rect x="750" y="115" width="60" height="22" rx="11" fill="#DEF7EC"/>
          <text x="780" y="131" fill="#03543F" font-size="10" text-anchor="middle">Actif</text>
          <text x="920" y="130" class="text-primary" font-size="11">Modifier | Supprimer</text>
        </g>

        <!-- DNS Record Preview -->
        <g transform="translate(0, 380)">
          <text x="0" y="20" class="text-dark" font-size="14" font-weight="600">Enregistrement DNS DKIM</text>
          <rect x="0" y="35" width="1020" height="60" rx="6" fill="#F9FAFB" stroke="#E5E7EB"/>
          <text x="20" y="55" class="text-muted" font-size="11">Sous-domaine:</text>
          <text x="100" y="55" class="text-dark" font-size="11" font-family="monospace">ovhex1234-selector1._domainkey</text>
          <text x="20" y="75" class="text-muted" font-size="11">Type: TXT</text>
          <text x="100" y="75" class="text-dark" font-size="11" font-family="monospace">v=DKIM1; k=rsa; p=MIIBIjANBgkqhki...</text>
        </g>

        <!-- Guides -->
        <g transform="translate(720, 460)">
          <text x="0" y="20" class="text-dark" font-size="13" font-weight="600">Guides</text>
          <text x="0" y="45" class="text-primary" font-size="11">› Configurer DKIM pour votre domaine</text>
          <text x="0" y="65" class="text-primary" font-size="11">› Générer une clé DKIM</text>
          <text x="0" y="85" class="text-primary" font-size="11">› Tester la signature DKIM</text>
        </g>

        <!-- Info Alert -->
        <g transform="translate(0, 480)">
          <rect x="0" y="0" width="700" height="70" rx="6" class="bg-info"/>
          <text x="20" y="25" class="text-info" font-size="12" font-weight="600">ℹ️ Qu'est-ce que DKIM ?</text>
          <text x="20" y="45" class="text-info" font-size="11">DKIM (DomainKeys Identified Mail) ajoute une signature cryptographique à vos emails,</text>
          <text x="20" y="60" class="text-info" font-size="11">permettant aux destinataires de vérifier qu'ils n'ont pas été altérés.</text>
        </g>
      </g>
    </g>
  </g>
</svg>
