<svg xmlns="http://www.w3.org/2000/svg" viewBox="0 0 1440 900" width="1440" height="900">
  <defs>
    <style>
      .bg-header { fill: #000E9C; }
      .bg-main { fill: #F6F6F9; }
      .bg-white { fill: #FFFFFF; }
      .bg-primary { fill: #0050D7; }
      .bg-success { fill: #DEF7EC; }
      .border { stroke: #E5E7EB; stroke-width: 1; fill: none; }
      .divider { stroke: #E5E7EB; stroke-width: 1; }
      .btn-outline { stroke: #0050D7; stroke-width: 1; fill: #FFFFFF; }
      .btn-primary { fill: #0050D7; }
      .row-selected { fill: #E8F0FE; }
      .text-white { fill: #FFFFFF; font-family: 'Source Sans Pro', sans-serif; }
      .text-dark { fill: #1F2937; font-family: 'Source Sans Pro', sans-serif; }
      .text-muted { fill: #6B7280; font-family: 'Source Sans Pro', sans-serif; }
      .text-primary { fill: #0050D7; font-family: 'Source Sans Pro', sans-serif; }
      .text-success { fill: #03543F; font-family: 'Source Sans Pro', sans-serif; }
    </style>
  </defs>

  <rect width="1440" height="900" class="bg-main"/>

  <!-- NAV1 - Web Cloud actif -->
  <rect width="1440" height="50" class="bg-header"/>
  <text x="40" y="32" class="text-white" font-size="14" opacity="0.7">Accueil</text>
  <text x="110" y="32" class="text-white" font-size="14" opacity="0.7">Public Cloud</text>
  <text x="210" y="32" class="text-white" font-size="14" opacity="0.7">Hosted Private Cloud</text>
  <text x="370" y="32" class="text-white" font-size="14" opacity="0.7">Bare Metal Cloud</text>
  <text x="510" y="32" class="text-white" font-size="14" font-weight="600">Web Cloud</text>
  <rect x="505" y="46" width="75" height="3" fill="#FFFFFF"/>
  <text x="620" y="32" class="text-white" font-size="14" opacity="0.7">Network</text>
  <text x="700" y="32" class="text-white" font-size="14" opacity="0.7">IAM / Securite</text>
  <text x="810" y="32" class="text-white" font-size="14" opacity="0.7">Licences</text>
  <rect x="1280" y="12" width="140" height="26" rx="13" fill="rgba(255,255,255,0.2)"/>
  <text x="1320" y="29" class="text-white" font-size="12">ab12345-ovh</text>

  <!-- NAV2 - Domaines et DNS actif -->
  <rect x="0" y="50" width="1440" height="40" class="bg-white"/>
  <line x1="0" y1="89" x2="1440" y2="89" class="divider"/>
  <text x="40" y="75" class="text-muted" font-size="14">Accueil</text>
  <text x="110" y="75" class="text-primary" font-size="14" font-weight="600">Domaines et DNS</text>
  <rect x="105" y="85" width="110" height="3" fill="#0050D7"/>
  <text x="240" y="75" class="text-muted" font-size="14">Hébergement</text>
  <text x="345" y="75" class="text-muted" font-size="14">Wordpress</text>
  <text x="430" y="75" class="text-muted" font-size="14">Emails</text>
  <text x="500" y="75" class="text-muted" font-size="14">VoIP</text>
  <text x="550" y="75" class="text-muted" font-size="14">Accès</text>
  <text x="1350" y="75" class="text-primary" font-size="13">Guides</text>

  <!-- CONTENT AREA -->
  <g transform="translate(0, 105)">
    <g transform="translate(24, 0)">
      <!-- LEFT PANEL -->
      <rect x="0" y="0" width="280" height="765" rx="8" class="bg-white"/>
      <rect x="0" y="0" width="280" height="765" rx="8" class="border"/>

      <!-- NAV3 Groupement - DNS actif -->
      <rect x="0" y="0" width="280" height="44" rx="8" fill="#F9FAFB"/>
      <rect x="12" y="10" width="80" height="24" rx="4" fill="#FFFFFF" stroke="#E5E7EB"/>
      <text x="52" y="26" class="text-muted" font-size="11" text-anchor="middle">Général</text>
      <rect x="96" y="10" width="80" height="24" rx="4" class="bg-primary"/>
      <text x="136" y="26" class="text-white" font-size="11" text-anchor="middle">DNS</text>
      <rect x="180" y="10" width="80" height="24" rx="4" fill="#FFFFFF" stroke="#E5E7EB"/>
      <text x="220" y="26" class="text-muted" font-size="11" text-anchor="middle">Expert</text>
      <line x1="0" y1="44" x2="280" y2="44" stroke="#E5E7EB"/>

      <!-- Recherche (y=56, sous NAV3 Groupement) -->
      <rect x="12" y="56" width="256" height="34" rx="4" fill="#F9FAFB" stroke="#E5E7EB"/>
      <text x="40" y="78" class="text-muted" font-size="12">Rechercher...</text>
      <text x="24" y="78" class="text-muted" font-size="14">🔍</text>

      <!-- Compteur (y=100) -->
      <text x="12" y="112" class="text-muted" font-size="11">Filtrer ▾</text>
      <text x="268" y="112" class="text-muted" font-size="11" text-anchor="end">3 services</text>

      <!-- Service items (y=124) -->
      <rect x="6" y="124" width="268" height="64" rx="6" class="row-selected"/>
      <text x="28" y="148" font-size="16">🌐</text>
      <text x="52" y="144" class="text-dark" font-size="13" font-weight="500">example.com</text>
      <text x="52" y="160" class="text-muted" font-size="10">Domaine + Zone</text>
      <rect x="210" y="140" width="46" height="18" rx="9" fill="#DEF7EC"/>
      <text x="233" y="153" fill="#03543F" font-size="10" text-anchor="middle">Actif</text>
    </g>

    <g transform="translate(320, 0)">
      <rect x="0" y="0" width="1096" height="765" rx="8" class="bg-white"/>
      <rect x="0" y="0" width="1096" height="765" rx="8" class="border"/>

      <g transform="translate(20, 0)">
        <text x="0" y="24" class="text-dark" font-size="18" font-weight="600">example.com</text>

        <!-- NAV4 TABS - Groupe DNS - Zone DNS actif -->
        <g transform="translate(0, 38)">
          <rect x="0" y="0" width="70" height="26" rx="4" class="btn-outline"/>
          <text x="35" y="17" class="text-primary" font-size="10" text-anchor="middle">Infos DNS</text>
          <rect x="74" y="0" width="85" height="26" rx="4" class="btn-outline"/>
          <text x="116" y="17" class="text-primary" font-size="10" text-anchor="middle">Serveurs DNS</text>
          <rect x="163" y="0" width="65" height="26" rx="4" class="btn-primary"/>
          <text x="195" y="17" class="text-white" font-size="10" text-anchor="middle">Zone DNS</text>
          <rect x="232" y="0" width="55" height="26" rx="4" class="btn-outline"/>
          <text x="259" y="17" class="text-primary" font-size="10" text-anchor="middle">DNSSEC</text>
          <rect x="291" y="0" width="40" height="26" rx="4" class="btn-outline"/>
          <text x="311" y="17" class="text-primary" font-size="10" text-anchor="middle">SPF</text>
          <rect x="335" y="0" width="45" height="26" rx="4" class="btn-outline"/>
          <text x="357" y="17" class="text-primary" font-size="10" text-anchor="middle">DKIM</text>
          <rect x="384" y="0" width="55" height="26" rx="4" class="btn-outline"/>
          <text x="411" y="17" class="text-primary" font-size="10" text-anchor="middle">DMARC</text>
          <rect x="443" y="0" width="40" height="26" rx="4" class="btn-outline"/>
          <text x="463" y="17" class="text-primary" font-size="10" text-anchor="middle">ARC</text>
          <rect x="487" y="0" width="40" height="26" rx="4" class="btn-outline"/>
          <text x="507" y="17" class="text-primary" font-size="10" text-anchor="middle">BIMI</text>
          <rect x="531" y="0" width="40" height="26" rx="4" class="btn-outline"/>
          <text x="551" y="17" class="text-primary" font-size="10" text-anchor="middle">CAA</text>
          <rect x="575" y="0" width="60" height="26" rx="4" class="btn-outline"/>
          <text x="605" y="17" class="text-primary" font-size="10" text-anchor="middle">DynHost</text>
          <rect x="639" y="0" width="55" height="26" rx="4" class="btn-outline"/>
          <text x="666" y="17" class="text-primary" font-size="10" text-anchor="middle">Anycast</text>
        </g>

        <!-- NAV5 - Sous-tabs Zone DNS - Historique actif -->
        <g transform="translate(0, 75)">
          <rect x="0" y="0" width="100" height="24" rx="4" class="btn-outline"/>
          <text x="50" y="16" class="text-primary" font-size="10" text-anchor="middle">Gestion Zone</text>
          <rect x="110" y="0" width="80" height="24" rx="4" class="btn-primary"/>
          <text x="150" y="16" class="text-white" font-size="10" text-anchor="middle">Historique</text>
        </g>

        <!-- Title -->
        <text x="0" y="125" class="text-dark" font-size="15" font-weight="700">Historique des modifications</text>
        <text x="0" y="145" class="text-muted" font-size="12">Consultez l'historique des modifications de votre zone DNS.</text>

        <!-- Toolbar -->
        <g transform="translate(0, 165)">
          <rect x="0" y="0" width="32" height="32" rx="4" class="btn-outline"/>
          <text x="16" y="22" class="text-primary" font-size="14" text-anchor="middle">↻</text>

          <rect x="45" y="0" width="120" height="32" rx="4" fill="#F9FAFB" stroke="#E5E7EB"/>
          <text x="60" y="21" class="text-dark" font-size="11">30 jours</text>
          <text x="150" y="21" class="text-muted" font-size="10">▼</text>
        </g>

        <!-- Timeline -->
        <g transform="translate(0, 215)">
          <!-- Entry 1 -->
          <g transform="translate(0, 0)">
            <circle cx="10" cy="25" r="8" fill="#0050D7"/>
            <line x1="10" y1="40" x2="10" y2="90" stroke="#E5E7EB" stroke-width="2"/>

            <rect x="30" y="0" width="1000" height="80" rx="6" fill="#F9FAFB" stroke="#E5E7EB"/>
            <text x="50" y="25" class="text-dark" font-size="12" font-weight="500">Ajout enregistrement A</text>
            <text x="50" y="45" class="text-muted" font-size="11">www → 203.0.113.50 (TTL: 3600)</text>
            <text x="50" y="65" class="text-muted" font-size="10">Par: ab12345-ovh</text>
            <text x="900" y="25" class="text-muted" font-size="11">30/12/2025 14:30</text>
            <rect x="900" y="40" width="80" height="24" rx="4" class="btn-outline"/>
            <text x="940" y="57" class="text-primary" font-size="10" text-anchor="middle">Restaurer</text>
          </g>

          <!-- Entry 2 -->
          <g transform="translate(0, 100)">
            <circle cx="10" cy="25" r="8" fill="#6B7280"/>
            <line x1="10" y1="40" x2="10" y2="90" stroke="#E5E7EB" stroke-width="2"/>

            <rect x="30" y="0" width="1000" height="80" rx="6" fill="#FFFFFF" stroke="#E5E7EB"/>
            <text x="50" y="25" class="text-dark" font-size="12" font-weight="500">Modification enregistrement MX</text>
            <text x="50" y="45" class="text-muted" font-size="11">@ → 10 mx1.mail.ovh.net. (TTL: 3600)</text>
            <text x="50" y="65" class="text-muted" font-size="10">Par: ab12345-ovh</text>
            <text x="900" y="25" class="text-muted" font-size="11">29/12/2025 10:15</text>
            <rect x="900" y="40" width="80" height="24" rx="4" class="btn-outline"/>
            <text x="940" y="57" class="text-primary" font-size="10" text-anchor="middle">Restaurer</text>
          </g>

          <!-- Entry 3 -->
          <g transform="translate(0, 200)">
            <circle cx="10" cy="25" r="8" fill="#6B7280"/>
            <line x1="10" y1="40" x2="10" y2="90" stroke="#E5E7EB" stroke-width="2"/>

            <rect x="30" y="0" width="1000" height="80" rx="6" fill="#FFFFFF" stroke="#E5E7EB"/>
            <text x="50" y="25" class="text-dark" font-size="12" font-weight="500">Suppression enregistrement TXT</text>
            <text x="50" y="45" class="text-muted" font-size="11">_dmarc → "v=DMARC1; p=none"</text>
            <text x="50" y="65" class="text-muted" font-size="10">Par: xy98765-ovh</text>
            <text x="900" y="25" class="text-muted" font-size="11">28/12/2025 16:45</text>
            <rect x="900" y="40" width="80" height="24" rx="4" class="btn-outline"/>
            <text x="940" y="57" class="text-primary" font-size="10" text-anchor="middle">Restaurer</text>
          </g>

          <!-- Entry 4 -->
          <g transform="translate(0, 300)">
            <circle cx="10" cy="25" r="8" fill="#6B7280"/>

            <rect x="30" y="0" width="1000" height="80" rx="6" fill="#FFFFFF" stroke="#E5E7EB"/>
            <text x="50" y="25" class="text-dark" font-size="12" font-weight="500">Réinitialisation zone</text>
            <text x="50" y="45" class="text-muted" font-size="11">Zone DNS réinitialisée aux valeurs par défaut</text>
            <text x="50" y="65" class="text-muted" font-size="10">Par: ab12345-ovh</text>
            <text x="900" y="25" class="text-muted" font-size="11">20/12/2025 09:00</text>
            <rect x="900" y="40" width="80" height="24" rx="4" class="btn-outline"/>
            <text x="940" y="57" class="text-primary" font-size="10" text-anchor="middle">Restaurer</text>
          </g>
        </g>

        <!-- Help link -->
        <g transform="translate(0, 620)">
          <text x="0" y="0" class="text-primary" font-size="11">Guide : Restaurer une configuration DNS précédente ↗</text>
        </g>
      </g>
    </g>
  </g>
</svg>
