<svg xmlns="http://www.w3.org/2000/svg" viewBox="0 0 1440 900" width="1440" height="900">
  <defs>
    <style>
      .bg-header { fill: #000E9C; }
      .bg-main { fill: #F6F6F9; }
      .bg-white { fill: #FFFFFF; }
      .bg-primary { fill: #0050D7; }
      .bg-success { fill: #DEF7EC; }
      .bg-info { fill: #DBEAFE; }
      .border { stroke: #E5E7EB; stroke-width: 1; fill: none; }
      .btn-outline { stroke: #0050D7; stroke-width: 1; fill: #FFFFFF; }
      .btn-primary { fill: #0050D7; }
      .row-selected { fill: #E8F0FE; }
      .table-header { fill: #F9FAFB; }
      .text-white { fill: #FFFFFF; font-family: 'Source Sans Pro', sans-serif; }
      .text-dark { fill: #1F2937; font-family: 'Source Sans Pro', sans-serif; }
      .text-muted { fill: #6B7280; font-family: 'Source Sans Pro', sans-serif; }
      .text-primary { fill: #0050D7; font-family: 'Source Sans Pro', sans-serif; }
      .text-success { fill: #059669; font-family: 'Source Sans Pro', sans-serif; }
    </style>
  </defs>

  <rect width="1440" height="900" class="bg-main"/>

  <!-- NAV1 -->
  <rect width="1440" height="50" class="bg-header"/>
  <text x="40" y="32" class="text-white" font-size="14" opacity="0.7">Accueil</text>
  <text x="110" y="32" class="text-white" font-size="14" opacity="0.7">Public Cloud</text>
  <text x="210" y="32" class="text-white" font-size="14" opacity="0.7">Hosted Private Cloud</text>
  <text x="370" y="32" class="text-white" font-size="14" opacity="0.7">Bare Metal Cloud</text>
  <text x="510" y="32" class="text-white" font-size="14" font-weight="600">Web Cloud</text>
  <rect x="505" y="46" width="75" height="3" fill="#FFFFFF"/>
  <text x="620" y="32" class="text-white" font-size="14" opacity="0.7">Network</text>
  <text x="700" y="32" class="text-white" font-size="14" opacity="0.7">IAM / Securite</text>
  <text x="810" y="32" class="text-white" font-size="14" opacity="0.7">Licences</text>
  <rect x="1280" y="12" width="140" height="26" rx="13" fill="rgba(255,255,255,0.2)"/>
  <text x="1320" y="29" class="text-white" font-size="12">ab12345-ovh</text>

  <!-- NAV2 -->
  <rect x="0" y="50" width="1440" height="40" class="bg-white"/>
  <line x1="0" y1="89" x2="1440" y2="89" stroke="#E5E7EB"/>
  <text x="40" y="75" class="text-muted" font-size="14">Accueil</text>
  <text x="110" y="75" class="text-primary" font-size="14" font-weight="600">Domaines et DNS</text>
  <rect x="105" y="85" width="110" height="3" fill="#0050D7"/>
  <text x="240" y="75" class="text-muted" font-size="14">Hébergement</text>
  <text x="345" y="75" class="text-muted" font-size="14">Wordpress</text>
  <text x="430" y="75" class="text-muted" font-size="14">Emails</text>
  <text x="500" y="75" class="text-muted" font-size="14">VoIP</text>
  <text x="550" y="75" class="text-muted" font-size="14">Accès</text>
  <text x="1350" y="75" class="text-primary" font-size="13">Guides</text>

  <!-- CONTENT -->
  <g transform="translate(0, 105)">
    <!-- LEFT PANEL -->
    <g transform="translate(24, 0)">
      <rect x="0" y="0" width="280" height="765" rx="8" class="bg-white"/>
      <rect x="0" y="0" width="280" height="765" rx="8" class="border"/>

      <!-- NAV3 Groupement (TOUJOURS au-dessus de recherche) -->
      <rect x="0" y="0" width="280" height="44" rx="8" fill="#F9FAFB"/>
      <rect x="12" y="10" width="80" height="24" rx="4" class="bg-primary"/>
      <text x="52" y="26" class="text-white" font-size="11" text-anchor="middle">Général</text>
      <rect x="96" y="10" width="80" height="24" rx="4" fill="#FFFFFF" stroke="#E5E7EB"/>
      <text x="136" y="26" class="text-muted" font-size="11" text-anchor="middle">DNS</text>
      <rect x="180" y="10" width="80" height="24" rx="4" fill="#FFFFFF" stroke="#E5E7EB"/>
      <text x="220" y="26" class="text-muted" font-size="11" text-anchor="middle">Expert</text>
      <line x1="0" y1="44" x2="280" y2="44" stroke="#E5E7EB"/>

      <!-- Recherche (y=56, sous NAV3 Groupement) -->
      <rect x="12" y="56" width="256" height="34" rx="4" fill="#F9FAFB" stroke="#E5E7EB"/>
      <text x="40" y="78" class="text-muted" font-size="12">Rechercher...</text>
      <text x="24" y="78" class="text-muted" font-size="14">🔍</text>

      <!-- Compteur (y=100) -->
      <text x="12" y="112" class="text-muted" font-size="11">Filtrer ▾</text>
      <text x="268" y="112" class="text-muted" font-size="11" text-anchor="end">3 services</text>

      <!-- Service items (y=124) -->
      <rect x="6" y="124" width="268" height="64" rx="6" class="row-selected"/>
      <text x="28" y="148" font-size="16">🌐</text>
      <text x="52" y="144" class="text-dark" font-size="13" font-weight="500">example.com</text>
      <text x="52" y="160" class="text-muted" font-size="10">Domaine + Zone</text>
      <rect x="210" y="140" width="46" height="18" rx="9" fill="#DEF7EC"/>
      <text x="233" y="153" fill="#03543F" font-size="10" text-anchor="middle">Actif</text>

      <!-- Service 2 -->
      <rect x="6" y="194" width="268" height="64" rx="6" fill="#FFFFFF"/>
      <text x="28" y="218" font-size="16">🌐</text>
      <text x="52" y="214" class="text-dark" font-size="13" font-weight="500">monsite.fr</text>
      <text x="52" y="230" class="text-muted" font-size="10">Domaine + Zone</text>
      <rect x="210" y="210" width="46" height="18" rx="9" fill="#DEF7EC"/>
      <text x="233" y="223" fill="#03543F" font-size="10" text-anchor="middle">Actif</text>

      <!-- Service 3 -->
      <rect x="6" y="264" width="268" height="64" rx="6" fill="#FFFFFF"/>
      <text x="28" y="288" font-size="16">🌐</text>
      <text x="52" y="284" class="text-dark" font-size="13" font-weight="500">boutique.net</text>
      <text x="52" y="300" class="text-muted" font-size="10">Zone DNS seule</text>
      <rect x="210" y="280" width="46" height="18" rx="9" fill="#DEF7EC"/>
      <text x="233" y="293" fill="#03543F" font-size="10" text-anchor="middle">Actif</text>
    </g>

    <!-- RIGHT PANEL -->
    <g transform="translate(320, 0)">
      <rect x="0" y="0" width="1096" height="765" rx="8" class="bg-white"/>
      <rect x="0" y="0" width="1096" height="765" rx="8" class="border"/>

      <g transform="translate(20, 0)">
        <text x="0" y="24" class="text-dark" font-size="18" font-weight="600">example.com</text>

        <!-- NAV4 TABS - Infos générales actif -->
        <g transform="translate(0, 38)">
          <rect x="0" y="0" width="100" height="26" rx="4" class="btn-primary"/>
          <text x="50" y="17" class="text-white" font-size="11" text-anchor="middle">Infos générales</text>
          <rect x="104" y="0" width="70" height="26" rx="4" class="btn-outline"/>
          <text x="139" y="17" class="text-primary" font-size="11" text-anchor="middle">Zone DNS</text>
          <rect x="178" y="0" width="90" height="26" rx="4" class="btn-outline"/>
          <text x="223" y="17" class="text-primary" font-size="11" text-anchor="middle">Serveurs DNS</text>
          <rect x="272" y="0" width="85" height="26" rx="4" class="btn-outline"/>
          <text x="314" y="17" class="text-primary" font-size="11" text-anchor="middle">Redirections</text>
          <rect x="361" y="0" width="60" height="26" rx="4" class="btn-outline"/>
          <text x="391" y="17" class="text-primary" font-size="11" text-anchor="middle">DynHost</text>
          <rect x="425" y="0" width="45" height="26" rx="4" class="btn-outline"/>
          <text x="447" y="17" class="text-primary" font-size="11" text-anchor="middle">GLUE</text>
          <rect x="474" y="0" width="55" height="26" rx="4" class="btn-outline"/>
          <text x="501" y="17" class="text-primary" font-size="11" text-anchor="middle">DNSSEC</text>
          <rect x="533" y="0" width="65" height="26" rx="4" class="btn-outline"/>
          <text x="565" y="17" class="text-primary" font-size="11" text-anchor="middle">Contacts</text>
          <rect x="602" y="0" width="55" height="26" rx="4" class="btn-outline"/>
          <text x="629" y="17" class="text-primary" font-size="11" text-anchor="middle">Tâches</text>
          <rect x="661" y="0" width="55" height="26" rx="4" class="btn-outline"/>
          <text x="688" y="17" class="text-primary" font-size="11" text-anchor="middle">Alldom</text>
        </g>

        <!-- Content Section - 3 columns layout -->
        <g transform="translate(0, 80)">
          <!-- Column 1: Informations générales -->
          <rect x="0" y="0" width="330" height="320" rx="8" fill="#FFFFFF" stroke="#E5E7EB"/>
          <text x="20" y="28" class="text-dark" font-size="14" font-weight="600">Informations générales</text>

          <text x="20" y="60" class="text-muted" font-size="11">Statut</text>
          <rect x="20" y="70" width="46" height="18" rx="9" fill="#DEF7EC"/>
          <text x="43" y="83" fill="#03543F" font-size="10" text-anchor="middle">Actif</text>

          <text x="20" y="110" class="text-muted" font-size="11">Gestion DNS</text>
          <rect x="20" y="120" width="80" height="18" rx="9" fill="#DEF7EC"/>
          <text x="60" y="133" fill="#03543F" font-size="10" text-anchor="middle">OVHcloud OK</text>
          <text x="290" y="133" class="text-muted" font-size="14">⋮</text>

          <text x="20" y="160" class="text-muted" font-size="11">DNS Anycast</text>
          <text x="20" y="180" class="text-dark" font-size="12">Non activé</text>

          <text x="20" y="210" class="text-muted" font-size="11">Hébergement web commandé</text>
          <text x="20" y="230" class="text-dark" font-size="12">Aucun</text>
          <text x="290" y="230" class="text-muted" font-size="14">⋮</text>

          <text x="20" y="260" class="text-muted" font-size="11">Hébergements web associés</text>
          <text x="20" y="280" class="text-primary" font-size="12">hosting-123456</text>

          <!-- Column 2: Sécurité -->
          <rect x="345" y="0" width="330" height="320" rx="8" fill="#FFFFFF" stroke="#E5E7EB"/>
          <text x="365" y="28" class="text-dark" font-size="14" font-weight="600">Sécurité</text>

          <text x="365" y="60" class="text-muted" font-size="11">Protection transfert</text>
          <rect x="365" y="70" width="40" height="20" rx="10" fill="#0050D7"/>
          <circle cx="395" cy="80" r="8" fill="#FFFFFF"/>
          <rect x="415" y="72" width="60" height="16" rx="8" fill="#DEF7EC"/>
          <text x="445" y="84" fill="#03543F" font-size="9" text-anchor="middle">Protégé</text>
          <text x="490" y="84" class="text-primary" font-size="11">Authinfo</text>

          <text x="365" y="115" class="text-muted" font-size="11">DNSSEC</text>
          <rect x="365" y="125" width="40" height="20" rx="10" fill="#0050D7"/>
          <circle cx="395" cy="135" r="8" fill="#FFFFFF"/>
          <rect x="415" y="127" width="50" height="16" rx="8" fill="#DEF7EC"/>
          <text x="440" y="139" fill="#03543F" font-size="9" text-anchor="middle">Activé</text>

          <text x="365" y="175" class="text-muted" font-size="11">Configuration Whois</text>
          <rect x="365" y="185" width="100" height="28" rx="4" fill="#FFFFFF" stroke="#E5E7EB"/>
          <text x="390" y="204" class="text-dark" font-size="11">Configurer</text>

          <text x="365" y="235" class="text-muted" font-size="11">Email masqué</text>
          <rect x="365" y="245" width="100" height="28" rx="4" fill="#FFFFFF" stroke="#E5E7EB"/>
          <text x="390" y="264" class="text-dark" font-size="11">Regénérer</text>

          <!-- Column 3: Offre -->
          <rect x="690" y="0" width="330" height="320" rx="8" fill="#FFFFFF" stroke="#E5E7EB"/>
          <text x="710" y="28" class="text-dark" font-size="14" font-weight="600">Offre</text>

          <text x="710" y="60" class="text-muted" font-size="11">Renouvellement</text>
          <text x="710" y="80" class="text-dark" font-size="12">Automatique - 15/12/2025</text>
          <text x="985" y="80" class="text-muted" font-size="14">⋮</text>

          <text x="710" y="115" class="text-muted" font-size="11">Contacts</text>
          <text x="710" y="135" class="text-dark" font-size="11">ab12345-ovh: Admin</text>
          <text x="710" y="155" class="text-dark" font-size="11">ab12345-ovh: Tech</text>
          <text x="710" y="175" class="text-dark" font-size="11">ab12345-ovh: Billing</text>
          <text x="985" y="155" class="text-muted" font-size="14">⋮</text>

          <text x="710" y="210" class="text-muted" font-size="11">Date de création</text>
          <text x="710" y="230" class="text-dark" font-size="12">15/12/2020</text>

          <text x="710" y="265" class="text-muted" font-size="11">Date d'expiration</text>
          <text x="710" y="285" class="text-dark" font-size="12">15/12/2025</text>
        </g>

        <!-- Row 2: Guides + Options -->
        <g transform="translate(0, 420)">
          <!-- Guides -->
          <rect x="0" y="0" width="500" height="130" rx="8" fill="#FFFFFF" stroke="#E5E7EB"/>
          <text x="20" y="28" class="text-dark" font-size="14" font-weight="600">Guides</text>
          <text x="20" y="55" class="text-primary" font-size="12">› Configurer les serveurs DNS</text>
          <text x="20" y="80" class="text-primary" font-size="12">› Activer DNSSEC sur votre domaine</text>
          <text x="20" y="105" class="text-primary" font-size="12">› Configurer une redirection</text>

          <!-- Options -->
          <rect x="520" y="0" width="500" height="130" rx="8" fill="#FFFFFF" stroke="#E5E7EB"/>
          <text x="540" y="28" class="text-dark" font-size="14" font-weight="600">Options</text>
          <text x="540" y="55" class="text-muted" font-size="11">DNS Anycast</text>
          <text x="540" y="75" class="text-dark" font-size="12">Non disponible</text>
          <text x="985" y="65" class="text-muted" font-size="14">⋮</text>
          <text x="540" y="105" class="text-muted" font-size="11">DNSSEC délégation</text>
          <text x="540" y="120" class="text-primary" font-size="12">Configurer</text>
        </g>
      </g>
    </g>
  </g>
</svg>
