<svg xmlns="http://www.w3.org/2000/svg" viewBox="0 0 1440 900">
  <defs>
    <style>
      .bg { fill: #F5F6FA; }
      .header { fill: #000E9C; }
      .sidebar { fill: #FFFFFF; }
      .card { fill: #FFFFFF; }
      .text-white { fill: #FFFFFF; font-family: -apple-system, BlinkMacSystemFont, 'Segoe UI', sans-serif; }
      .text-primary { fill: #1F2937; font-family: -apple-system, BlinkMacSystemFont, 'Segoe UI', sans-serif; }
      .text-muted { fill: #6B7280; font-family: -apple-system, BlinkMacSystemFont, 'Segoe UI', sans-serif; }
      .text-blue { fill: #0050D7; font-family: -apple-system, BlinkMacSystemFont, 'Segoe UI', sans-serif; }
      .nav-active { fill: #EBF5FF; }
      .badge-success { fill: #D1FAE5; }
      .text-success { fill: #059669; }
      .btn-primary { fill: #0050D7; }
      .table-header { fill: #F9FAFB; }
    </style>
  </defs>

  <rect class="bg" width="1440" height="900"/>
  <rect class="header" width="1440" height="60"/>
  <text class="text-white" x="80" y="38" font-size="18" font-weight="600">OVHcloud</text>

  <rect class="sidebar" x="0" y="60" width="220" height="840"/>
  <text class="text-muted" x="20" y="100" font-size="12">NETWORK</text>
  <rect class="nav-active" x="0" y="110" width="220" height="40"/>
  <text class="text-blue" x="20" y="136" font-size="14" font-weight="500">🔗 vRack</text>
  <text class="text-muted" x="20" y="180" font-size="14">🌐 IP</text>
  <text class="text-muted" x="20" y="220" font-size="14">⚖️ Load Balancer</text>
  <text class="text-muted" x="20" y="260" font-size="14">🚀 CDN</text>
  <text class="text-muted" x="20" y="300" font-size="14">🛡️ Network Security</text>

  <!-- Main content -->
  <text class="text-primary" x="250" y="110" font-size="24" font-weight="600">vRack - Private Network</text>

  <!-- Stats cards -->
  <rect class="card" x="250" y="140" width="180" height="90" rx="8" filter="url(#shadow)"/>
  <text class="text-muted" x="275" y="170" font-size="12">vRacks</text>
  <text class="text-primary" x="275" y="210" font-size="28" font-weight="600">3</text>

  <rect class="card" x="450" y="140" width="180" height="90" rx="8" filter="url(#shadow)"/>
  <text class="text-muted" x="475" y="170" font-size="12">Services connectés</text>
  <text class="text-primary" x="475" y="210" font-size="28" font-weight="600">24</text>

  <rect class="card" x="650" y="140" width="180" height="90" rx="8" filter="url(#shadow)"/>
  <text class="text-muted" x="675" y="170" font-size="12">Datacenters</text>
  <text class="text-primary" x="675" y="210" font-size="28" font-weight="600">4</text>

  <!-- Actions -->
  <rect class="btn-primary" x="1050" y="155" width="140" height="36" rx="4"/>
  <text class="text-white" x="1120" y="179" font-size="13" text-anchor="middle">+ Créer vRack</text>

  <!-- vRack list -->
  <rect class="card" x="250" y="250" width="940" height="500" rx="8" filter="url(#shadow)"/>

  <!-- vRack 1 -->
  <rect fill="#F9FAFB" x="265" y="265" width="910" height="140" rx="6"/>
  <text class="text-primary" x="290" y="300" font-size="16" font-weight="500">pn-123456</text>
  <text class="text-muted" x="290" y="320" font-size="12">vRack Production</text>
  <rect class="badge-success" x="450" y="287" width="55" height="22" rx="11"/>
  <text class="text-success" x="478" y="302" font-size="10" text-anchor="middle">Active</text>

  <text class="text-muted" x="290" y="355" font-size="11">Services connectés :</text>
  <text class="text-primary" x="400" y="355" font-size="11">8 Serveurs dédiés</text>
  <text class="text-primary" x="540" y="355" font-size="11">2 Public Cloud</text>
  <text class="text-primary" x="660" y="355" font-size="11">1 Load Balancer</text>

  <text class="text-muted" x="290" y="380" font-size="11">VLAN IDs : 10, 20, 30</text>
  <text class="text-muted" x="500" y="380" font-size="11">Datacenters : GRA, RBX, SBG</text>
  <text class="text-blue" x="1100" y="300" font-size="13">⚙️</text>

  <!-- vRack 2 -->
  <rect fill="#FFFFFF" x="265" y="420" width="910" height="140" rx="6" stroke="#E5E7EB"/>
  <text class="text-primary" x="290" y="455" font-size="16" font-weight="500">pn-789012</text>
  <text class="text-muted" x="290" y="475" font-size="12">vRack Staging</text>
  <rect class="badge-success" x="450" y="442" width="55" height="22" rx="11"/>
  <text class="text-success" x="478" y="457" font-size="10" text-anchor="middle">Active</text>

  <text class="text-muted" x="290" y="510" font-size="11">Services connectés :</text>
  <text class="text-primary" x="400" y="510" font-size="11">4 Serveurs dédiés</text>
  <text class="text-primary" x="540" y="510" font-size="11">1 Public Cloud</text>

  <text class="text-muted" x="290" y="535" font-size="11">VLAN IDs : 100, 110</text>
  <text class="text-muted" x="500" y="535" font-size="11">Datacenters : GRA</text>
  <text class="text-blue" x="1100" y="455" font-size="13">⚙️</text>

  <!-- vRack 3 -->
  <rect fill="#F9FAFB" x="265" y="575" width="910" height="140" rx="6"/>
  <text class="text-primary" x="290" y="610" font-size="16" font-weight="500">pn-345678</text>
  <text class="text-muted" x="290" y="630" font-size="12">vRack Dev/Test</text>
  <rect class="badge-success" x="450" y="597" width="55" height="22" rx="11"/>
  <text class="text-success" x="478" y="612" font-size="10" text-anchor="middle">Active</text>

  <text class="text-muted" x="290" y="665" font-size="11">Services connectés :</text>
  <text class="text-primary" x="400" y="665" font-size="11">6 VPS</text>
  <text class="text-primary" x="470" y="665" font-size="11">2 NAS-HA</text>

  <text class="text-muted" x="290" y="690" font-size="11">VLAN IDs : 200</text>
  <text class="text-muted" x="420" y="690" font-size="11">Datacenters : RBX, FRA</text>
  <text class="text-blue" x="1100" y="610" font-size="13">⚙️</text>

  <!-- Info -->
  <rect fill="#EBF5FF" x="250" y="770" width="940" height="60" rx="8"/>
  <text class="text-primary" x="275" y="798" font-size="13" font-weight="500">🔗 vRack - Réseau privé multi-datacenter</text>
  <text class="text-muted" x="275" y="818" font-size="12">Connectez vos services OVHcloud dans un réseau privé sécurisé à travers tous les datacenters</text>

  <defs><filter id="shadow" x="-5%" y="-5%" width="110%" height="120%"><feDropShadow dx="0" dy="2" stdDeviation="4" flood-opacity="0.1"/></filter></defs>
</svg>
