<?xml version="1.0" encoding="UTF-8"?>
<svg width="1100" height="500" viewBox="0 0 1100 500" fill="none" xmlns="http://www.w3.org/2000/svg">
  <title>Public Cloud - Kubernetes Node Pools</title>
  <rect width="1100" height="500" fill="#F9FAFB"/>
  <g transform="translate(30, 30)"><text x="0" y="0" fill="#1F2937" font-family="system-ui, sans-serif" font-size="22" font-weight="600">Node Pools</text><text x="0" y="30" fill="#6B7280" font-family="system-ui, sans-serif" font-size="13">cluster-production • GRA7</text></g>
  <g transform="translate(30, 90)"><rect x="0" y="0" width="160" height="40" rx="4" fill="#0050D7"/><text x="25" y="26" fill="white" font-family="system-ui, sans-serif" font-size="13">+ Ajouter pool</text></g>
  <g transform="translate(30, 160)">
    <rect x="0" y="0" width="1040" height="300" rx="8" fill="white" stroke="#E5E7EB"/>
    <g transform="translate(0, 0)"><rect x="0" y="0" width="1040" height="45" rx="8" fill="#F9FAFB"/><text x="20" y="28" fill="#6B7280" font-family="system-ui, sans-serif" font-size="12" font-weight="500">Nom</text><text x="180" y="28" fill="#6B7280" font-family="system-ui, sans-serif" font-size="12" font-weight="500">Flavor</text><text x="320" y="28" fill="#6B7280" font-family="system-ui, sans-serif" font-size="12" font-weight="500">Nodes</text><text x="420" y="28" fill="#6B7280" font-family="system-ui, sans-serif" font-size="12" font-weight="500">Autoscaling</text><text x="560" y="28" fill="#6B7280" font-family="system-ui, sans-serif" font-size="12" font-weight="500">Anti-affinity</text><text x="700" y="28" fill="#6B7280" font-family="system-ui, sans-serif" font-size="12" font-weight="500">État</text><text x="850" y="28" fill="#6B7280" font-family="system-ui, sans-serif" font-size="12" font-weight="500">Coût</text><text x="970" y="28" fill="#6B7280" font-family="system-ui, sans-serif" font-size="12" font-weight="500">Actions</text></g>
    <g transform="translate(0, 50)"><line x1="0" y1="0" x2="1040" y2="0" stroke="#E5E7EB"/><text x="20" y="35" fill="#1F2937" font-family="system-ui, sans-serif" font-size="13" font-weight="500">pool-general</text><text x="180" y="35" fill="#1F2937" font-family="system-ui, sans-serif" font-size="13">b2-15</text><text x="320" y="35" fill="#1F2937" font-family="system-ui, sans-serif" font-size="13">4</text><g transform="translate(420, 18)"><rect x="0" y="0" width="80" height="22" rx="4" fill="#DCFCE7"/><text x="15" y="15" fill="#16A34A" font-family="system-ui, sans-serif" font-size="10">2 - 8 nodes</text></g><g transform="translate(560, 18)"><rect x="0" y="0" width="50" height="22" rx="4" fill="#DCFCE7"/><text x="15" y="15" fill="#16A34A" font-family="system-ui, sans-serif" font-size="10">Oui</text></g><g transform="translate(700, 18)"><circle cx="6" cy="6" r="6" fill="#16A34A"/><text x="18" y="10" fill="#16A34A" font-family="system-ui, sans-serif" font-size="11">Ready</text></g><text x="850" y="35" fill="#1F2937" font-family="system-ui, sans-serif" font-size="13">€100/m</text><g transform="translate(970, 18)"><rect x="0" y="0" width="30" height="30" rx="4" fill="#F9FAFB" stroke="#E5E7EB"/><text x="11" y="22" fill="#6B7280" font-family="system-ui, sans-serif" font-size="14">⋮</text></g></g>
    <g transform="translate(0, 110)"><line x1="0" y1="0" x2="1040" y2="0" stroke="#E5E7EB"/><text x="20" y="35" fill="#1F2937" font-family="system-ui, sans-serif" font-size="13" font-weight="500">pool-memory</text><text x="180" y="35" fill="#1F2937" font-family="system-ui, sans-serif" font-size="13">r2-60</text><text x="320" y="35" fill="#1F2937" font-family="system-ui, sans-serif" font-size="13">2</text><g transform="translate(420, 18)"><rect x="0" y="0" width="80" height="22" rx="4" fill="#FEF3C7"/><text x="25" y="15" fill="#92400E" font-family="system-ui, sans-serif" font-size="10">Off</text></g><g transform="translate(560, 18)"><rect x="0" y="0" width="50" height="22" rx="4" fill="#FEE2E2"/><text x="12" y="15" fill="#DC2626" font-family="system-ui, sans-serif" font-size="10">Non</text></g><g transform="translate(700, 18)"><circle cx="6" cy="6" r="6" fill="#16A34A"/><text x="18" y="10" fill="#16A34A" font-family="system-ui, sans-serif" font-size="11">Ready</text></g><text x="850" y="35" fill="#1F2937" font-family="system-ui, sans-serif" font-size="13">€170/m</text><g transform="translate(970, 18)"><rect x="0" y="0" width="30" height="30" rx="4" fill="#F9FAFB" stroke="#E5E7EB"/><text x="11" y="22" fill="#6B7280" font-family="system-ui, sans-serif" font-size="14">⋮</text></g></g>
    <g transform="translate(0, 170)"><line x1="0" y1="0" x2="1040" y2="0" stroke="#E5E7EB"/><text x="20" y="35" fill="#1F2937" font-family="system-ui, sans-serif" font-size="13" font-weight="500">pool-gpu</text><text x="180" y="35" fill="#1F2937" font-family="system-ui, sans-serif" font-size="13">t1-45-gpu</text><text x="320" y="35" fill="#1F2937" font-family="system-ui, sans-serif" font-size="13">1</text><g transform="translate(420, 18)"><rect x="0" y="0" width="80" height="22" rx="4" fill="#DCFCE7"/><text x="15" y="15" fill="#16A34A" font-family="system-ui, sans-serif" font-size="10">1 - 3 nodes</text></g><g transform="translate(560, 18)"><rect x="0" y="0" width="50" height="22" rx="4" fill="#DCFCE7"/><text x="15" y="15" fill="#16A34A" font-family="system-ui, sans-serif" font-size="10">Oui</text></g><g transform="translate(700, 18)"><circle cx="6" cy="6" r="6" fill="#F59E0B"/><text x="18" y="10" fill="#F59E0B" font-family="system-ui, sans-serif" font-size="11">Scaling</text></g><text x="850" y="35" fill="#1F2937" font-family="system-ui, sans-serif" font-size="13">€120/m</text><g transform="translate(970, 18)"><rect x="0" y="0" width="30" height="30" rx="4" fill="#F9FAFB" stroke="#E5E7EB"/><text x="11" y="22" fill="#6B7280" font-family="system-ui, sans-serif" font-size="14">⋮</text></g></g>
  </g>
</svg>
