<?xml version="1.0" encoding="UTF-8"?>
<svg width="700" height="500" viewBox="0 0 700 500" fill="none" xmlns="http://www.w3.org/2000/svg">
  <title>Email Pro - Modal Délégations</title>

  <!-- Overlay -->
  <rect width="700" height="500" fill="#000000" opacity="0.5"/>

  <!-- Modal -->
  <rect x="50" y="30" width="600" height="440" rx="8" fill="white"/>

  <!-- Header -->
  <rect x="50" y="30" width="600" height="56" rx="8" fill="#F9FAFB"/>
  <text x="75" y="66" fill="#1F2937" font-family="system-ui, sans-serif" font-size="18" font-weight="600">Délégations - admin@example.com</text>
  <text x="620" y="66" fill="#6B7280" font-family="system-ui, sans-serif" font-size="20">×</text>

  <!-- Tabs -->
  <rect x="75" y="100" width="120" height="36" rx="4" fill="#0050D7"/>
  <text x="95" y="123" fill="white" font-family="system-ui, sans-serif" font-size="13">Envoyer en tant que</text>
  <rect x="200" y="100" width="100" height="36" rx="4" fill="white" stroke="#E5E7EB"/>
  <text x="215" y="123" fill="#6B7280" font-family="system-ui, sans-serif" font-size="13">Accès complet</text>

  <!-- Info -->
  <rect x="75" y="150" width="550" height="40" rx="4" fill="#EFF6FF"/>
  <text x="90" y="175" fill="#1E40AF" font-family="system-ui, sans-serif" font-size="12">Sélectionnez les comptes autorisés à envoyer des e-mails au nom de ce compte.</text>

  <!-- Table -->
  <rect x="75" y="205" width="550" height="200" rx="4" fill="white" stroke="#E5E7EB"/>

  <!-- Table header -->
  <rect x="75" y="205" width="550" height="36" rx="4" fill="#F9FAFB"/>
  <text x="95" y="228" fill="#6B7280" font-family="system-ui, sans-serif" font-size="13">Compte</text>
  <text x="400" y="228" fill="#6B7280" font-family="system-ui, sans-serif" font-size="13">Autoriser</text>

  <!-- Row 1 -->
  <line x1="75" y1="241" x2="625" y2="241" stroke="#E5E7EB"/>
  <text x="95" y="270" fill="#1F2937" font-family="system-ui, sans-serif" font-size="14">contact@example.com</text>
  <rect x="400" y="253" width="20" height="20" rx="4" fill="#0050D7"/>
  <path d="M405 263 L409 267 L415 259" stroke="white" stroke-width="2" fill="none"/>

  <!-- Row 2 -->
  <line x1="75" y1="290" x2="625" y2="290" stroke="#E5E7EB"/>
  <text x="95" y="320" fill="#1F2937" font-family="system-ui, sans-serif" font-size="14">support@example.com</text>
  <rect x="400" y="303" width="20" height="20" rx="4" fill="white" stroke="#E5E7EB"/>

  <!-- Row 3 -->
  <line x1="75" y1="340" x2="625" y2="340" stroke="#E5E7EB"/>
  <text x="95" y="370" fill="#1F2937" font-family="system-ui, sans-serif" font-size="14">info@example.com</text>
  <rect x="400" y="353" width="20" height="20" rx="4" fill="white" stroke="#E5E7EB"/>

  <!-- Buttons -->
  <rect x="410" y="420" width="100" height="36" rx="4" fill="white" stroke="#E5E7EB"/>
  <text x="440" y="443" fill="#6B7280" font-family="system-ui, sans-serif" font-size="14">Annuler</text>
  <rect x="520" y="420" width="100" height="36" rx="4" fill="#0050D7"/>
  <text x="537" y="443" fill="white" font-family="system-ui, sans-serif" font-size="14">Enregistrer</text>
</svg>
