<svg xmlns="http://www.w3.org/2000/svg" viewBox="0 0 1440 900" width="1440" height="900">
  <defs>
    <style>
      .bg-header { fill: #000E9C; }
      .bg-main { fill: #F6F6F9; }
      .bg-white { fill: #FFFFFF; }
      .bg-primary { fill: #0050D7; }
      .bg-success { fill: #DEF7EC; }
      .bg-exchange { fill: #FEF3C7; }
      .border { stroke: #E5E7EB; stroke-width: 1; fill: none; }
      .btn-outline { stroke: #0050D7; stroke-width: 1; fill: #FFFFFF; }
      .btn-primary { fill: #0050D7; }
      .row-selected { fill: #E8F0FE; }
      .table-header { fill: #F9FAFB; }
      .text-white { fill: #FFFFFF; font-family: 'Source Sans Pro', sans-serif; }
      .text-dark { fill: #1F2937; font-family: 'Source Sans Pro', sans-serif; }
      .text-muted { fill: #6B7280; font-family: 'Source Sans Pro', sans-serif; }
      .text-primary { fill: #0050D7; font-family: 'Source Sans Pro', sans-serif; }
      .text-success { fill: #059669; font-family: 'Source Sans Pro', sans-serif; }
      .text-exchange { fill: #D97706; font-family: 'Source Sans Pro', sans-serif; }
    </style>
  </defs>

  <rect width="1440" height="900" class="bg-main"/>

  <!-- NAV1 -->
  <rect width="1440" height="50" class="bg-header"/>
  <text x="40" y="32" class="text-white" font-size="14" opacity="0.7">Accueil</text>
  <text x="110" y="32" class="text-white" font-size="14" opacity="0.7">Public Cloud</text>
  <text x="210" y="32" class="text-white" font-size="14" opacity="0.7">Hosted Private Cloud</text>
  <text x="370" y="32" class="text-white" font-size="14" opacity="0.7">Bare Metal Cloud</text>
  <text x="510" y="32" class="text-white" font-size="14" font-weight="600">Web Cloud</text>
  <rect x="505" y="46" width="75" height="3" fill="#FFFFFF"/>
  <text x="620" y="32" class="text-white" font-size="14" opacity="0.7">Network</text>

  <!-- NAV2 -->
  <rect x="0" y="50" width="1440" height="40" class="bg-white"/>
  <line x1="0" y1="89" x2="1440" y2="89" stroke="#E5E7EB"/>
  <text x="40" y="75" class="text-muted" font-size="14">Accueil</text>
  <text x="110" y="75" class="text-muted" font-size="14">Domaines et DNS</text>
  <text x="240" y="75" class="text-muted" font-size="14">Hébergement</text>
  <text x="345" y="75" class="text-muted" font-size="14">Wordpress</text>
  <text x="430" y="75" class="text-primary" font-size="14" font-weight="600">Emails</text>
  <rect x="425" y="85" width="50" height="3" fill="#0050D7"/>
  <text x="500" y="75" class="text-muted" font-size="14">VoIP</text>
  <text x="550" y="75" class="text-muted" font-size="14">Accès</text>

  <!-- MAIN CONTENT -->
  <g transform="translate(0, 105)">
    <g transform="translate(24, 0)">
      <!-- LEFT PANEL -->
      <rect x="0" y="0" width="280" height="780" rx="8" class="bg-white"/>
      <rect x="0" y="0" width="280" height="780" rx="8" class="border"/>
      
      <g transform="translate(12, 12)">
        <rect x="0" y="0" width="256" height="34" rx="4" fill="#F3F4F6"/>
        <rect x="2" y="2" width="126" height="30" rx="3" class="bg-white"/>
        <text x="65" y="22" class="text-dark" font-size="11" text-anchor="middle" font-weight="500">Par domaine</text>
        <text x="191" y="22" class="text-muted" font-size="11" text-anchor="middle">Par licence</text>
      </g>
      
      <rect x="12" y="58" width="256" height="34" rx="4" fill="#F9FAFB" stroke="#E5E7EB"/>
      <text x="40" y="80" class="text-muted" font-size="12">Rechercher...</text>
      <text x="24" y="80" class="text-muted" font-size="14">🔍</text>
      
      <rect x="6" y="126" width="268" height="50" rx="6" class="row-selected"/>
      <circle cx="28" cy="151" r="14" fill="#F59E0B"/>
      <text x="28" y="155" class="text-white" font-size="10" text-anchor="middle">Ex</text>
      <text x="52" y="145" class="text-dark" font-size="13" font-weight="500">monentreprise.com</text>
      <text x="52" y="161" class="text-muted" font-size="10">Exchange - 25 boîtes</text>

      <!-- RIGHT PANEL -->
      <rect x="296" y="0" width="1096" height="780" rx="8" class="bg-white"/>
      <rect x="296" y="0" width="1096" height="780" rx="8" class="border"/>

      <g transform="translate(316, 0)">
        <text x="0" y="28" class="text-dark" font-size="18" font-weight="600">monentreprise.com</text>
        <rect x="180" y="12" width="70" height="22" rx="11" class="bg-exchange"/>
        <text x="215" y="27" class="text-exchange" font-size="10" text-anchor="middle">Exchange</text>

        <!-- NAV3 TABS - Redirections active -->
        <g transform="translate(0, 56)">
          <rect x="0" y="0" width="75" height="26" rx="4" class="btn-outline"/>
          <text x="37" y="17" class="text-primary" font-size="11" text-anchor="middle">Boîtes mail</text>
          <rect x="79" y="0" width="85" height="26" rx="4" class="bg-primary"/>
          <text x="121" y="17" class="text-white" font-size="11" text-anchor="middle">Redirections</text>
          <rect x="168" y="0" width="80" height="26" rx="4" class="btn-outline"/>
          <text x="208" y="17" class="text-primary" font-size="11" text-anchor="middle">Répondeurs</text>
          <rect x="252" y="0" width="55" height="26" rx="4" class="btn-outline"/>
          <text x="279" y="17" class="text-primary" font-size="11" text-anchor="middle">Listes</text>
          <rect x="311" y="0" width="60" height="26" rx="4" class="btn-outline"/>
          <text x="341" y="17" class="text-primary" font-size="11" text-anchor="middle">Sécurité</text>
          <rect x="375" y="0" width="60" height="26" rx="4" class="btn-outline"/>
          <text x="405" y="17" class="text-primary" font-size="11" text-anchor="middle">Avancé</text>
          <rect x="439" y="0" width="65" height="26" rx="4" class="btn-outline"/>
          <text x="471" y="17" class="text-primary" font-size="11" text-anchor="middle">Licences</text>
          <rect x="508" y="0" width="55" height="26" rx="4" class="btn-outline"/>
          <text x="535" y="17" class="text-primary" font-size="11" text-anchor="middle">Tâches</text>
        </g>

        <!-- TOOLBAR -->
        <g transform="translate(0, 100)">
          <rect x="0" y="0" width="32" height="32" rx="4" class="btn-outline"/>
          <text x="16" y="22" class="text-primary" font-size="14" text-anchor="middle">↻</text>
          <rect x="40" y="0" width="200" height="32" rx="4" fill="#F9FAFB" stroke="#E5E7EB"/>
          <text x="60" y="21" class="text-muted" font-size="11">Rechercher...</text>
          <rect x="860" y="0" width="196" height="32" rx="4" class="btn-primary"/>
          <text x="958" y="21" class="text-white" font-size="11" text-anchor="middle">+ Créer une redirection</text>
        </g>

        <!-- TABLE -->
        <g transform="translate(0, 150)">
          <rect x="0" y="0" width="1056" height="40" class="table-header"/>
          <text x="20" y="26" class="text-muted" font-size="11" font-weight="600">Adresse source</text>
          <text x="350" y="26" class="text-muted" font-size="11" font-weight="600">Destination</text>
          <text x="700" y="26" class="text-muted" font-size="11" font-weight="600">Copie locale</text>
          <text x="850" y="26" class="text-muted" font-size="11" font-weight="600">Statut</text>
          <text x="1000" y="26" class="text-muted" font-size="11" font-weight="600">Actions</text>
          
          <!-- Row 1 -->
          <line x1="0" y1="40" x2="1056" y2="40" stroke="#E5E7EB"/>
          <text x="20" y="68" class="text-dark" font-size="11">info@monentreprise.com</text>
          <text x="350" y="68" class="text-dark" font-size="11">contact@monentreprise.com</text>
          <text x="700" y="68" class="text-success" font-size="11">Oui</text>
          <rect x="850" y="55" width="46" height="18" rx="9" fill="#DEF7EC"/>
          <text x="873" y="68" fill="#03543F" font-size="10" text-anchor="middle">Actif</text>
          <text x="1010" y="68" class="text-primary" font-size="11">⋯</text>
          
          <!-- Row 2 -->
          <line x1="0" y1="85" x2="1056" y2="85" stroke="#E5E7EB"/>
          <text x="20" y="113" class="text-dark" font-size="11">ventes@monentreprise.com</text>
          <text x="350" y="113" class="text-dark" font-size="11">commercial@monentreprise.com</text>
          <text x="700" y="113" class="text-muted" font-size="11">Non</text>
          <rect x="850" y="100" width="46" height="18" rx="9" fill="#DEF7EC"/>
          <text x="873" y="113" fill="#03543F" font-size="10" text-anchor="middle">Actif</text>
          <text x="1010" y="113" class="text-primary" font-size="11">⋯</text>
          
          <!-- Row 3 -->
          <line x1="0" y1="130" x2="1056" y2="130" stroke="#E5E7EB"/>
          <text x="20" y="158" class="text-dark" font-size="11">admin@monentreprise.com</text>
          <text x="350" y="158" class="text-dark" font-size="11">direction@monentreprise.com</text>
          <text x="700" y="158" class="text-success" font-size="11">Oui</text>
          <rect x="850" y="145" width="46" height="18" rx="9" fill="#DEF7EC"/>
          <text x="873" y="158" fill="#03543F" font-size="10" text-anchor="middle">Actif</text>
          <text x="1010" y="158" class="text-primary" font-size="11">⋯</text>
          
          <line x1="0" y1="175" x2="1056" y2="175" stroke="#E5E7EB"/>
        </g>

        <!-- PAGINATION -->
        <g transform="translate(0, 350)">
          <text x="0" y="15" class="text-muted" font-size="11">8 redirections</text>
        </g>
      </g>
    </g>
  </g>
</svg>
