<svg xmlns="http://www.w3.org/2000/svg" viewBox="0 0 1440 900" width="1440" height="900">
  <defs>
    <style>
      .bg-header { fill: #000E9C; }
      .bg-main { fill: #F6F6F9; }
      .bg-white { fill: #FFFFFF; }
      .bg-primary { fill: #0050D7; }
      .bg-neutral-100 { fill: #F3F4F6; }
      .bg-success { fill: #DEF7EC; }
      .bg-info { fill: #DBEAFE; }
      .border { stroke: #E5E7EB; stroke-width: 1; fill: none; }
      .btn-outline { stroke: #0050D7; stroke-width: 1; fill: #FFFFFF; }
      .btn-primary { fill: #0050D7; }
      .row-selected { fill: #E8F0FE; }
      .table-header { fill: #F9FAFB; }
      .text-white { fill: #FFFFFF; font-family: 'Source Sans Pro', sans-serif; }
      .text-dark { fill: #1F2937; font-family: 'Source Sans Pro', sans-serif; }
      .text-muted { fill: #6B7280; font-family: 'Source Sans Pro', sans-serif; }
      .text-primary { fill: #0050D7; font-family: 'Source Sans Pro', sans-serif; }
      .text-info { fill: #1E40AF; font-family: 'Source Sans Pro', sans-serif; }
      .text-success { fill: #059669; font-family: 'Source Sans Pro', sans-serif; }
    </style>
  </defs>

  <!-- Background -->
  <rect width="1440" height="900" class="bg-main"/>

  <!-- NAV1 - Header OVH -->
  <rect width="1440" height="50" class="bg-header"/>
  <text x="40" y="32" class="text-white" font-size="14" opacity="0.7">Accueil</text>
  <text x="110" y="32" class="text-white" font-size="14" opacity="0.7">Public Cloud</text>
  <text x="210" y="32" class="text-white" font-size="14" opacity="0.7">Hosted Private Cloud</text>
  <text x="370" y="32" class="text-white" font-size="14" opacity="0.7">Bare Metal Cloud</text>
  <text x="510" y="32" class="text-white" font-size="14" font-weight="600">Web Cloud</text>
  <rect x="505" y="46" width="75" height="3" fill="#FFFFFF"/>
  <text x="620" y="32" class="text-white" font-size="14" opacity="0.7">Network</text>
  <text x="700" y="32" class="text-white" font-size="14" opacity="0.7">IAM / Securite</text>
  <text x="810" y="32" class="text-white" font-size="14" opacity="0.7">Licences</text>
  <rect x="1280" y="12" width="140" height="26" rx="13" fill="rgba(255,255,255,0.2)"/>
  <rect x="1285" y="15" width="26" height="20" rx="10" fill="#DEF7EC"/>
  <text x="1292" y="29" fill="#03543F" font-size="10" font-weight="600">OK</text>
  <text x="1320" y="29" class="text-white" font-size="12">ab12345-ovh</text>

  <!-- NAV2 - Web Cloud (Emails actif) -->
  <rect x="0" y="50" width="1440" height="40" class="bg-white"/>
  <line x1="0" y1="89" x2="1440" y2="89" stroke="#E5E7EB"/>
  <text x="40" y="75" class="text-muted" font-size="14">Accueil</text>
  <text x="110" y="75" class="text-muted" font-size="14">Domaines et DNS</text>
  <text x="240" y="75" class="text-muted" font-size="14">Hébergement</text>
  <text x="345" y="75" class="text-muted" font-size="14">Wordpress</text>
  <text x="430" y="75" class="text-primary" font-size="14" font-weight="600">Emails</text>
  <rect x="425" y="85" width="50" height="3" fill="#0050D7"/>
  <text x="500" y="75" class="text-muted" font-size="14">VoIP</text>
  <text x="550" y="75" class="text-muted" font-size="14">Accès</text>
  <text x="1350" y="75" class="text-primary" font-size="13">Guides</text>

  <!-- CONTENT AREA -->
  <g transform="translate(0, 105)">
    <g transform="translate(24, 0)">

      <!-- LEFT PANEL -->
      <rect x="0" y="0" width="280" height="765" rx="8" class="bg-white"/>
      <rect x="0" y="0" width="280" height="765" rx="8" class="border"/>

      <!-- NAV3 Toggle: [General] [Packs] - Packs actif -->
      <rect x="0" y="0" width="280" height="44" rx="8" fill="#F9FAFB"/>
      <g transform="translate(12, 10)">
        <rect x="0" y="0" width="256" height="24" rx="4" fill="#F3F4F6"/>
        <text x="64" y="16" class="text-muted" font-size="11" text-anchor="middle">General</text>
        <rect x="130" y="2" width="124" height="20" rx="3" fill="#0050D7"/>
        <text x="191" y="16" class="text-white" font-size="11" text-anchor="middle" font-weight="500">Packs</text>
      </g>
      <line x1="0" y1="44" x2="280" y2="44" stroke="#E5E7EB"/>

      <rect x="12" y="56" width="256" height="34" rx="4" fill="#F9FAFB" stroke="#E5E7EB"/>
      <text x="26" y="78" class="text-muted" font-size="12">🔍 Rechercher...</text>

      <text x="12" y="112" class="text-muted" font-size="11">5 domaines</text>

      <g transform="translate(6, 124)">
        <rect x="0" y="0" width="268" height="120" rx="6" class="row-selected"/>
        <text x="12" y="20" font-size="14">📧</text>
        <text x="32" y="20" class="text-dark" font-size="13" font-weight="600">example.com</text>
        <g transform="translate(12, 32)">
          <circle cx="6" cy="6" r="5" fill="#F59E0B"/>
          <text x="16" y="10" class="text-dark" font-size="10">5  Exchange</text>
          <circle cx="6" cy="20" r="5" fill="#3B82F6"/>
          <text x="16" y="24" class="text-dark" font-size="10">4  Pro</text>
          <circle cx="6" cy="34" r="5" fill="#8B5CF6"/>
          <text x="16" y="38" class="text-dark" font-size="10">2  Zimbra</text>
          <circle cx="6" cy="48" r="5" fill="#6B7280"/>
          <text x="16" y="52" class="text-dark" font-size="10">1  MX Plan</text>
        </g>
        <line x1="12" y1="100" x2="256" y2="100" stroke="#E5E7EB"/>
        <text x="12" y="114" class="text-muted" font-size="10">12 boîtes · 67 Go</text>
      </g>

      <g transform="translate(12, 700)">
        <rect x="0" y="0" width="256" height="36" rx="4" class="btn-outline"/>
        <text x="128" y="23" class="text-primary" font-size="12" text-anchor="middle">+ Ajouter domaine</text>
      </g>

    </g>

    <!-- RIGHT PANEL -->
    <g transform="translate(320, 0)">
      <rect x="0" y="0" width="1096" height="765" rx="8" class="bg-white"/>
      <rect x="0" y="0" width="1096" height="765" rx="8" class="border"/>

      <g transform="translate(20, 0)">
        <!-- HEADER PAGE -->
        <text x="0" y="24" class="text-dark" font-size="18" font-weight="600">example.com</text>
        <text x="0" y="42" class="text-muted" font-size="11">12 boîtes · 4 offres · 67 Go utilisés</text>
        <rect x="950" y="8" width="110" height="32" rx="4" class="btn-outline"/>
        <text x="1005" y="29" class="text-primary" font-size="11" text-anchor="middle">↗ Webmail</text>

        <!-- NAV4 TABS - 7 tabs (pas de Licences) - Boîtes mail actif -->
        <g transform="translate(0, 56)">
          <rect x="0" y="0" width="85" height="26" rx="4" class="bg-primary"/>
          <text x="42" y="17" class="text-white" font-size="11" text-anchor="middle">Boîtes mail</text>

          <rect x="89" y="0" width="90" height="26" rx="4" class="btn-outline"/>
          <text x="134" y="17" class="text-primary" font-size="11" text-anchor="middle">Redirections</text>

          <rect x="183" y="0" width="80" height="26" rx="4" class="btn-outline"/>
          <text x="223" y="17" class="text-primary" font-size="11" text-anchor="middle">Répondeurs</text>

          <rect x="267" y="0" width="50" height="26" rx="4" class="btn-outline"/>
          <text x="292" y="17" class="text-primary" font-size="11" text-anchor="middle">Listes</text>

          <rect x="321" y="0" width="65" height="26" rx="4" class="btn-outline"/>
          <text x="353" y="17" class="text-primary" font-size="11" text-anchor="middle">Sécurité</text>

          <rect x="390" y="0" width="55" height="26" rx="4" class="btn-outline"/>
          <text x="417" y="17" class="text-primary" font-size="11" text-anchor="middle">Avancé</text>

          <rect x="449" y="0" width="55" height="26" rx="4" class="btn-outline"/>
          <text x="476" y="17" class="text-primary" font-size="11" text-anchor="middle">Tâches</text>
        </g>

        <!-- NAV4 - À la carte actif -->
        <g transform="translate(0, 96)">
          <text x="0" y="16" class="text-muted" font-size="12">Vue globale</text>
          <text x="95" y="16" class="text-primary" font-size="12" font-weight="600">À la carte</text>
          <rect x="95" y="22" width="60" height="2" fill="#0050D7"/>
          <text x="175" y="16" class="text-muted" font-size="12">Historique</text>
        </g>

        <!-- INFO BANNER -->
        <g transform="translate(0, 130)">
          <rect x="0" y="0" width="1036" height="40" rx="6" class="bg-info"/>
          <text x="20" y="25" class="text-info" font-size="12">ℹ️ Commander des licences supplémentaires ou des options pour vos comptes email existants.</text>
        </g>

        <!-- SECTION - Commander une licence -->
        <g transform="translate(0, 190)">
          <text x="0" y="20" class="text-dark" font-size="15" font-weight="600">Commander une licence</text>

          <!-- Offer cards row -->
          <g transform="translate(0, 40)">
            <!-- Exchange Card -->
            <rect x="0" y="0" width="250" height="200" rx="8" stroke="#E5E7EB" fill="#FFFFFF"/>
            <rect x="0" y="0" width="250" height="50" rx="8" fill="#FFFBEB"/>
            <rect x="0" y="40" width="250" height="10" fill="#FFFBEB"/>
            <circle cx="30" cy="25" r="14" fill="#F59E0B"/>
            <text x="30" y="30" class="text-white" font-size="12" text-anchor="middle" font-weight="600">E</text>
            <text x="55" y="30" class="text-dark" font-size="14" font-weight="600">Exchange</text>
            <text x="20" y="70" class="text-muted" font-size="11">Messagerie professionnelle</text>
            <text x="20" y="90" class="text-muted" font-size="11">complète avec calendrier partagé</text>
            <text x="20" y="120" class="text-dark" font-size="11">✓ 50 Go de stockage</text>
            <text x="20" y="140" class="text-dark" font-size="11">✓ Calendrier et contacts</text>
            <text x="20" y="160" class="text-dark" font-size="11">✓ ActiveSync</text>
            <text x="20" y="185" class="text-primary" font-size="14" font-weight="600">9,99 €/mois</text>
            <rect x="150" y="168" width="80" height="26" rx="4" class="btn-primary"/>
            <text x="190" y="185" class="text-white" font-size="11" text-anchor="middle">Commander</text>

            <!-- Email Pro Card -->
            <rect x="265" y="0" width="250" height="200" rx="8" stroke="#E5E7EB" fill="#FFFFFF"/>
            <rect x="265" y="0" width="250" height="50" rx="8" fill="#EFF6FF"/>
            <rect x="265" y="40" width="250" height="10" fill="#EFF6FF"/>
            <circle cx="295" cy="25" r="14" fill="#3B82F6"/>
            <text x="295" y="30" class="text-white" font-size="12" text-anchor="middle" font-weight="600">P</text>
            <text x="320" y="30" class="text-dark" font-size="14" font-weight="600">Email Pro</text>
            <text x="285" y="70" class="text-muted" font-size="11">Email professionnel simple</text>
            <text x="285" y="90" class="text-muted" font-size="11">et efficace</text>
            <text x="285" y="120" class="text-dark" font-size="11">✓ 10 Go de stockage</text>
            <text x="285" y="140" class="text-dark" font-size="11">✓ Webmail moderne</text>
            <text x="285" y="160" class="text-dark" font-size="11">✓ IMAP/POP3</text>
            <text x="285" y="185" class="text-primary" font-size="14" font-weight="600">3,99 €/mois</text>
            <rect x="415" y="168" width="80" height="26" rx="4" class="btn-primary"/>
            <text x="455" y="185" class="text-white" font-size="11" text-anchor="middle">Commander</text>

            <!-- Zimbra Card -->
            <rect x="530" y="0" width="250" height="200" rx="8" stroke="#E5E7EB" fill="#FFFFFF"/>
            <rect x="530" y="0" width="250" height="50" rx="8" fill="#F5F3FF"/>
            <rect x="530" y="40" width="250" height="10" fill="#F5F3FF"/>
            <circle cx="560" cy="25" r="14" fill="#8B5CF6"/>
            <text x="560" y="30" class="text-white" font-size="12" text-anchor="middle" font-weight="600">Z</text>
            <text x="585" y="30" class="text-dark" font-size="14" font-weight="600">Zimbra</text>
            <text x="550" y="70" class="text-muted" font-size="11">Alternative open source</text>
            <text x="550" y="90" class="text-muted" font-size="11">complète et flexible</text>
            <text x="550" y="120" class="text-dark" font-size="11">✓ 25 Go de stockage</text>
            <text x="550" y="140" class="text-dark" font-size="11">✓ Suite collaborative</text>
            <text x="550" y="160" class="text-dark" font-size="11">✓ Calendrier partagé</text>
            <text x="550" y="185" class="text-primary" font-size="14" font-weight="600">4,99 €/mois</text>
            <rect x="680" y="168" width="80" height="26" rx="4" class="btn-primary"/>
            <text x="720" y="185" class="text-white" font-size="11" text-anchor="middle">Commander</text>

            <!-- Quota Upgrade Card -->
            <rect x="795" y="0" width="240" height="200" rx="8" stroke="#E5E7EB" fill="#FFFFFF"/>
            <rect x="795" y="0" width="240" height="50" rx="8" fill="#F3F4F6"/>
            <rect x="795" y="40" width="240" height="10" fill="#F3F4F6"/>
            <text x="820" y="30" font-size="20">📦</text>
            <text x="850" y="30" class="text-dark" font-size="14" font-weight="600">Espace +</text>
            <text x="815" y="70" class="text-muted" font-size="11">Augmentez le quota</text>
            <text x="815" y="90" class="text-muted" font-size="11">de vos boîtes existantes</text>
            <text x="815" y="120" class="text-dark" font-size="11">+ 10 Go</text>
            <text x="920" y="120" class="text-muted" font-size="10">1,99 €/mois</text>
            <text x="815" y="145" class="text-dark" font-size="11">+ 25 Go</text>
            <text x="920" y="145" class="text-muted" font-size="10">3,99 €/mois</text>
            <text x="815" y="170" class="text-dark" font-size="11">+ 50 Go</text>
            <text x="920" y="170" class="text-muted" font-size="10">6,99 €/mois</text>
            <rect x="815" y="180" width="80" height="22" rx="4" class="btn-outline"/>
            <text x="855" y="195" class="text-primary" font-size="10" text-anchor="middle">Ajouter</text>
          </g>
        </g>

        <!-- SECTION - Options disponibles -->
        <g transform="translate(0, 460)">
          <text x="0" y="20" class="text-dark" font-size="15" font-weight="600">Options disponibles</text>

          <g transform="translate(0, 40)">
            <!-- Archivage Card -->
            <rect x="0" y="0" width="340" height="100" rx="6" stroke="#E5E7EB" fill="#FFFFFF"/>
            <text x="20" y="25" class="text-dark" font-size="13" font-weight="600">🗄️ Archivage emails</text>
            <text x="20" y="45" class="text-muted" font-size="11">Conservation longue durée de vos emails</text>
            <text x="20" y="65" class="text-muted" font-size="11">Stockage illimité · Recherche avancée</text>
            <text x="20" y="85" class="text-primary" font-size="12" font-weight="600">2,99 €/mois/compte</text>
            <rect x="230" y="60" width="90" height="26" rx="4" class="btn-outline"/>
            <text x="275" y="77" class="text-primary" font-size="11" text-anchor="middle">Activer</text>

            <!-- Anti-spam Pro Card -->
            <rect x="355" y="0" width="340" height="100" rx="6" stroke="#E5E7EB" fill="#FFFFFF"/>
            <text x="375" y="25" class="text-dark" font-size="13" font-weight="600">🛡️ Anti-spam Pro</text>
            <text x="375" y="45" class="text-muted" font-size="11">Protection renforcée contre le spam</text>
            <text x="375" y="65" class="text-muted" font-size="11">Filtrage IA · Quarantaine personnalisée</text>
            <text x="375" y="85" class="text-primary" font-size="12" font-weight="600">1,49 €/mois/domaine</text>
            <rect x="585" y="60" width="90" height="26" rx="4" class="btn-outline"/>
            <text x="630" y="77" class="text-primary" font-size="11" text-anchor="middle">Activer</text>

            <!-- Backup Card -->
            <rect x="710" y="0" width="325" height="100" rx="6" stroke="#E5E7EB" fill="#FFFFFF"/>
            <text x="730" y="25" class="text-dark" font-size="13" font-weight="600">💾 Sauvegarde quotidienne</text>
            <text x="730" y="45" class="text-muted" font-size="11">Backup automatique de vos boîtes</text>
            <text x="730" y="65" class="text-muted" font-size="11">Rétention 30 jours · Restauration facile</text>
            <text x="730" y="85" class="text-primary" font-size="12" font-weight="600">0,99 €/mois/compte</text>
            <rect x="925" y="60" width="90" height="26" rx="4" class="btn-outline"/>
            <text x="970" y="77" class="text-primary" font-size="11" text-anchor="middle">Activer</text>
          </g>
        </g>

      </g>
    </g>
  </g>
</svg>
