<svg xmlns="http://www.w3.org/2000/svg" viewBox="0 0 1440 900" width="1440" height="900">
  <defs>
    <style>
      .bg-header { fill: #000E9C; }
      .bg-main { fill: #F6F6F9; }
      .bg-white { fill: #FFFFFF; }
      .bg-primary { fill: #0050D7; }
      .bg-neutral-100 { fill: #F3F4F6; }
      .bg-success { fill: #DEF7EC; }
      .bg-warning { fill: #FEF3C7; }
      .bg-info { fill: #DBEAFE; }
      .border { stroke: #E5E7EB; stroke-width: 1; fill: none; }
      .btn-outline { stroke: #0050D7; stroke-width: 1; fill: #FFFFFF; }
      .btn-primary { fill: #0050D7; }
      .row-selected { fill: #E8F0FE; }
      .table-header { fill: #F9FAFB; }
      .text-white { fill: #FFFFFF; font-family: 'Source Sans Pro', sans-serif; }
      .text-dark { fill: #1F2937; font-family: 'Source Sans Pro', sans-serif; }
      .text-muted { fill: #6B7280; font-family: 'Source Sans Pro', sans-serif; }
      .text-primary { fill: #0050D7; font-family: 'Source Sans Pro', sans-serif; }
      .text-info { fill: #1E40AF; font-family: 'Source Sans Pro', sans-serif; }
      .text-warning { fill: #D97706; font-family: 'Source Sans Pro', sans-serif; }
    </style>
  </defs>

  <!-- Background -->
  <rect width="1440" height="900" class="bg-main"/>

  <!-- NAV1 - Header OVH -->
  <rect width="1440" height="50" class="bg-header"/>
  <text x="40" y="32" class="text-white" font-size="14" opacity="0.7">Accueil</text>
  <text x="110" y="32" class="text-white" font-size="14" opacity="0.7">Public Cloud</text>
  <text x="210" y="32" class="text-white" font-size="14" opacity="0.7">Hosted Private Cloud</text>
  <text x="370" y="32" class="text-white" font-size="14" opacity="0.7">Bare Metal Cloud</text>
  <text x="510" y="32" class="text-white" font-size="14" font-weight="600">Web Cloud</text>
  <rect x="505" y="46" width="75" height="3" fill="#FFFFFF"/>
  <text x="620" y="32" class="text-white" font-size="14" opacity="0.7">Network</text>
  <text x="700" y="32" class="text-white" font-size="14" opacity="0.7">IAM / Securite</text>
  <text x="810" y="32" class="text-white" font-size="14" opacity="0.7">Licences</text>
  <rect x="1280" y="12" width="140" height="26" rx="13" fill="rgba(255,255,255,0.2)"/>
  <rect x="1285" y="15" width="26" height="20" rx="10" fill="#DEF7EC"/>
  <text x="1292" y="29" fill="#03543F" font-size="10" font-weight="600">OK</text>
  <text x="1320" y="29" class="text-white" font-size="12">ab12345-ovh</text>

  <!-- NAV2 - Web Cloud (Emails actif) -->
  <rect x="0" y="50" width="1440" height="40" class="bg-white"/>
  <line x1="0" y1="89" x2="1440" y2="89" stroke="#E5E7EB"/>
  <text x="40" y="75" class="text-muted" font-size="14">Accueil</text>
  <text x="110" y="75" class="text-muted" font-size="14">Domaines et DNS</text>
  <text x="240" y="75" class="text-muted" font-size="14">Hebergement</text>
  <text x="345" y="75" class="text-muted" font-size="14">Wordpress</text>
  <text x="430" y="75" class="text-primary" font-size="14" font-weight="600">Emails</text>
  <rect x="425" y="85" width="50" height="3" fill="#0050D7"/>
  <text x="500" y="75" class="text-muted" font-size="14">VoIP</text>
  <text x="550" y="75" class="text-muted" font-size="14">Acces</text>
  <text x="1350" y="75" class="text-primary" font-size="13">Guides</text>

  <!-- CONTENT AREA -->
  <g transform="translate(0, 105)">
    <g transform="translate(24, 0)">

      <!-- LEFT PANEL -->
      <rect x="0" y="0" width="280" height="765" rx="8" class="bg-white"/>
      <rect x="0" y="0" width="280" height="765" rx="8" class="border"/>

      <g transform="translate(12, 12)">
        <rect x="0" y="0" width="256" height="32" rx="6" fill="#F3F4F6"/>
        <rect x="2" y="2" width="125" height="28" rx="5" fill="#FFFFFF"/>
        <text x="64" y="21" class="text-dark" font-size="11" text-anchor="middle" font-weight="500">Par domaine</text>
        <text x="191" y="21" class="text-muted" font-size="11" text-anchor="middle">Par licence</text>
      </g>

      <rect x="12" y="56" width="256" height="34" rx="4" fill="#F9FAFB" stroke="#E5E7EB"/>
      <text x="26" y="78" class="text-muted" font-size="12">Rechercher...</text>

      <text x="12" y="112" class="text-muted" font-size="11">5 domaines</text>

      <g transform="translate(6, 124)">
        <rect x="0" y="0" width="268" height="120" rx="6" class="row-selected"/>
        <text x="12" y="20" class="text-dark" font-size="13" font-weight="600">example.com</text>
        <g transform="translate(12, 32)">
          <circle cx="6" cy="6" r="5" fill="#F59E0B"/>
          <text x="16" y="10" class="text-dark" font-size="10">5  Exchange</text>
          <circle cx="6" cy="20" r="5" fill="#3B82F6"/>
          <text x="16" y="24" class="text-dark" font-size="10">4  Pro</text>
          <circle cx="6" cy="34" r="5" fill="#8B5CF6"/>
          <text x="16" y="38" class="text-dark" font-size="10">2  Zimbra</text>
          <circle cx="6" cy="48" r="5" fill="#6B7280"/>
          <text x="16" y="52" class="text-dark" font-size="10">1  MX Plan</text>
        </g>
        <line x1="12" y1="100" x2="256" y2="100" stroke="#E5E7EB"/>
        <text x="12" y="114" class="text-muted" font-size="10">12 boites - 67 Go</text>
      </g>

      <g transform="translate(12, 700)">
        <rect x="0" y="0" width="256" height="36" rx="4" class="btn-outline"/>
        <text x="128" y="23" class="text-primary" font-size="12" text-anchor="middle">+ Ajouter domaine</text>
      </g>

    </g>

    <!-- RIGHT PANEL -->
    <g transform="translate(320, 0)">
      <rect x="0" y="0" width="1096" height="765" rx="8" class="bg-white"/>
      <rect x="0" y="0" width="1096" height="765" rx="8" class="border"/>

      <g transform="translate(20, 0)">
        <!-- HEADER PAGE -->
        <text x="0" y="24" class="text-dark" font-size="18" font-weight="600">example.com</text>
        <text x="0" y="42" class="text-muted" font-size="11">12 boites - 4 offres - 67 Go utilises</text>
        <rect x="950" y="8" width="110" height="32" rx="4" class="btn-outline"/>
        <text x="1005" y="29" class="text-primary" font-size="11" text-anchor="middle">Webmail</text>

        <!-- NAV3 TABS - Repondeurs actif -->
        <g transform="translate(0, 56)">
          <rect x="0" y="0" width="85" height="26" rx="4" class="btn-outline"/>
          <text x="42" y="17" class="text-primary" font-size="11" text-anchor="middle">Boites mail</text>

          <rect x="89" y="0" width="90" height="26" rx="4" class="btn-outline"/>
          <text x="134" y="17" class="text-primary" font-size="11" text-anchor="middle">Redirections</text>

          <!-- Active tab -->
          <rect x="183" y="0" width="80" height="26" rx="4" class="bg-primary"/>
          <text x="223" y="17" class="text-white" font-size="11" text-anchor="middle">Repondeurs</text>

          <rect x="267" y="0" width="50" height="26" rx="4" class="btn-outline"/>
          <text x="292" y="17" class="text-primary" font-size="11" text-anchor="middle">Listes</text>

          <rect x="321" y="0" width="65" height="26" rx="4" class="btn-outline"/>
          <text x="353" y="17" class="text-primary" font-size="11" text-anchor="middle">Securite</text>

          <rect x="390" y="0" width="55" height="26" rx="4" class="btn-outline"/>
          <text x="417" y="17" class="text-primary" font-size="11" text-anchor="middle">Avance</text>

          <rect x="449" y="0" width="65" height="26" rx="4" class="btn-outline"/>
          <text x="481" y="17" class="text-primary" font-size="11" text-anchor="middle">Licences</text>

          <rect x="518" y="0" width="55" height="26" rx="4" class="btn-outline"/>
          <text x="545" y="17" class="text-primary" font-size="11" text-anchor="middle">Taches</text>
        </g>

        <!-- TOOLBAR -->
        <g transform="translate(0, 96)">
          <rect x="0" y="0" width="160" height="32" rx="4" class="btn-primary"/>
          <text x="80" y="21" class="text-white" font-size="11" text-anchor="middle">+ Creer repondeur</text>

          <rect x="780" y="0" width="200" height="32" rx="4" fill="#F9FAFB" stroke="#E5E7EB"/>
          <text x="795" y="21" class="text-muted" font-size="11">Filtrer...</text>

          <rect x="988" y="0" width="32" height="32" rx="4" class="btn-outline"/>
          <text x="1004" y="22" class="text-primary" font-size="14" text-anchor="middle">↻</text>
        </g>

        <!-- INFO BANNER -->
        <g transform="translate(0, 145)">
          <rect x="0" y="0" width="1036" height="40" rx="6" class="bg-info"/>
          <text x="20" y="25" class="text-info" font-size="12">Les repondeurs envoient automatiquement une reponse aux emails recus (absence, vacances...).</text>
        </g>

        <!-- TABLE HEADER -->
        <g transform="translate(0, 200)">
          <rect x="0" y="0" width="1036" height="36" rx="4" class="table-header"/>
          <text x="20" y="23" class="text-dark" font-size="11" font-weight="600">Compte email</text>
          <text x="280" y="23" class="text-dark" font-size="11" font-weight="600">Message</text>
          <text x="580" y="23" class="text-dark" font-size="11" font-weight="600">Periode</text>
          <text x="780" y="23" class="text-dark" font-size="11" font-weight="600">Statut</text>
          <text x="900" y="23" class="text-dark" font-size="11" font-weight="600">Actions</text>
        </g>

        <!-- TABLE ROWS -->
        <g transform="translate(0, 236)">
          <!-- Row 1 - Active -->
          <rect x="0" y="0" width="1036" height="60" fill="#FFFFFF"/>
          <line x1="0" y1="60" x2="1036" y2="60" stroke="#E5E7EB"/>
          <text x="20" y="30" class="text-primary" font-size="12">ceo@example.com</text>
          <circle cx="234" cy="26" r="6" fill="#F59E0B"/>
          <text x="280" y="25" class="text-dark" font-size="11">Je suis absent du bureau jusqu'au 5 janvier...</text>
          <text x="280" y="42" class="text-muted" font-size="10">Apercu du message de reponse</text>
          <text x="580" y="30" class="text-dark" font-size="11">24/12/2025 - 05/01/2026</text>
          <rect x="780" y="17" width="60" height="20" rx="10" fill="#DEF7EC"/>
          <text x="810" y="31" fill="#03543F" font-size="10" text-anchor="middle">Actif</text>
          <text x="900" y="35" class="text-primary" font-size="12">Modifier</text>
          <text x="960" y="35" fill="#EF4444" font-size="12">Supprimer</text>

          <!-- Row 2 - Scheduled -->
          <rect x="0" y="60" width="1036" height="60" fill="#F9FAFB"/>
          <line x1="0" y1="120" x2="1036" y2="120" stroke="#E5E7EB"/>
          <text x="20" y="90" class="text-primary" font-size="12">contact@example.com</text>
          <circle cx="254" cy="86" r="6" fill="#3B82F6"/>
          <text x="280" y="85" class="text-dark" font-size="11">Merci pour votre message. Nous vous...</text>
          <text x="280" y="102" class="text-muted" font-size="10">Reponse automatique permanente</text>
          <text x="580" y="90" class="text-dark" font-size="11">Permanent</text>
          <rect x="780" y="77" width="70" height="20" rx="10" fill="#FEF3C7"/>
          <text x="815" y="91" class="text-warning" font-size="10" text-anchor="middle">Planifie</text>
          <text x="900" y="95" class="text-primary" font-size="12">Modifier</text>
          <text x="960" y="95" fill="#EF4444" font-size="12">Supprimer</text>

          <!-- Row 3 - Inactive -->
          <rect x="0" y="120" width="1036" height="60" fill="#FFFFFF"/>
          <line x1="0" y1="180" x2="1036" y2="180" stroke="#E5E7EB"/>
          <text x="20" y="150" class="text-primary" font-size="12">support@example.com</text>
          <circle cx="254" cy="146" r="6" fill="#F59E0B"/>
          <text x="280" y="145" class="text-dark" font-size="11">Notre service support est ferme pour...</text>
          <text x="280" y="162" class="text-muted" font-size="10">Derniere utilisation: ete 2024</text>
          <text x="580" y="150" class="text-muted" font-size="11">-</text>
          <rect x="780" y="137" width="60" height="20" rx="10" fill="#F3F4F6"/>
          <text x="810" y="151" class="text-muted" font-size="10" text-anchor="middle">Inactif</text>
          <text x="900" y="155" class="text-primary" font-size="12">Modifier</text>
          <text x="960" y="155" fill="#EF4444" font-size="12">Supprimer</text>
        </g>

        <!-- PAGINATION -->
        <g transform="translate(0, 680)">
          <text x="0" y="16" class="text-muted" font-size="11">Affichage 1-3 sur 3</text>
        </g>

      </g>
    </g>
  </g>
</svg>
