<svg xmlns="http://www.w3.org/2000/svg" viewBox="0 0 1440 900" width="1440" height="900">
  <defs>
    <style>
      .bg-header { fill: #000E9C; }
      .bg-main { fill: #F6F6F9; }
      .bg-white { fill: #FFFFFF; }
      .bg-primary { fill: #0050D7; }
      .bg-neutral-100 { fill: #F3F4F6; }
      .bg-success { fill: #DEF7EC; }
      .bg-warning { fill: #FEF3C7; }
      .border { stroke: #E5E7EB; stroke-width: 1; fill: none; }
      .divider { stroke: #E5E7EB; stroke-width: 1; }
      .btn-outline { stroke: #0050D7; stroke-width: 1; fill: #FFFFFF; }
      .btn-primary { fill: #0050D7; }
      .table-header { fill: #F9FAFB; }
      .text-white { fill: #FFFFFF; font-family: 'Source Sans Pro', sans-serif; }
      .text-dark { fill: #1F2937; font-family: 'Source Sans Pro', sans-serif; }
      .text-muted { fill: #6B7280; font-family: 'Source Sans Pro', sans-serif; }
      .text-primary { fill: #0050D7; font-family: 'Source Sans Pro', sans-serif; }
      .text-success { fill: #059669; font-family: 'Source Sans Pro', sans-serif; }
      .text-warning { fill: #D97706; font-family: 'Source Sans Pro', sans-serif; }
    </style>
  </defs>

  <!-- Background -->
  <rect width="1440" height="900" class="bg-main"/>

  <!-- NAV1 - Header OVH -->
  <rect width="1440" height="50" class="bg-header"/>
  <text x="40" y="32" class="text-white" font-size="14" opacity="0.7">Accueil</text>
  <text x="110" y="32" class="text-white" font-size="14" opacity="0.7">Public Cloud</text>
  <text x="210" y="32" class="text-white" font-size="14" opacity="0.7">Hosted Private Cloud</text>
  <text x="370" y="32" class="text-white" font-size="14" opacity="0.7">Bare Metal Cloud</text>
  <text x="510" y="32" class="text-white" font-size="14" font-weight="600">Web Cloud</text>
  <rect x="505" y="46" width="75" height="3" fill="#FFFFFF"/>
  <text x="620" y="32" class="text-white" font-size="14" opacity="0.7">Network</text>
  <text x="700" y="32" class="text-white" font-size="14" opacity="0.7">IAM / Securite</text>
  <text x="810" y="32" class="text-white" font-size="14" opacity="0.7">Licences</text>
  <rect x="1280" y="12" width="140" height="26" rx="13" fill="rgba(255,255,255,0.2)"/>
  <rect x="1285" y="15" width="26" height="20" rx="10" fill="#DEF7EC"/>
  <text x="1292" y="29" fill="#03543F" font-size="10" font-weight="600">OK</text>
  <text x="1320" y="29" class="text-white" font-size="12">ab12345-ovh</text>

  <!-- NAV2 - Emails actif -->
  <rect x="0" y="50" width="1440" height="40" class="bg-white"/>
  <line x1="0" y1="89" x2="1440" y2="89" stroke="#E5E7EB"/>
  <text x="40" y="75" class="text-muted" font-size="14">Accueil</text>
  <text x="110" y="75" class="text-muted" font-size="14">Domaines et DNS</text>
  <text x="240" y="75" class="text-muted" font-size="14">Hebergement</text>
  <text x="345" y="75" class="text-muted" font-size="14">Wordpress</text>
  <text x="430" y="75" class="text-primary" font-size="14" font-weight="600">Emails</text>
  <rect x="425" y="85" width="50" height="3" fill="#0050D7"/>
  <text x="500" y="75" class="text-muted" font-size="14">VoIP</text>
  <text x="550" y="75" class="text-muted" font-size="14">Acces</text>
  <text x="1350" y="75" class="text-primary" font-size="13">Guides</text>

  <!-- CONTENT AREA -->
  <g transform="translate(0, 105)">
    <g transform="translate(24, 0)">

      <!-- LEFT PANEL -->
      <rect x="0" y="0" width="280" height="765" rx="8" class="bg-white"/>
      <rect x="0" y="0" width="280" height="765" rx="8" class="border"/>

      <!-- NAV3 Toggle - PACKS actif -->
      <rect x="0" y="0" width="280" height="44" rx="8" fill="#F9FAFB"/>
      <g transform="translate(12, 10)">
        <rect x="0" y="0" width="256" height="24" rx="4" fill="#F3F4F6"/>
        <text x="64" y="16" class="text-muted" font-size="11" text-anchor="middle">General</text>
        <rect x="130" y="2" width="124" height="20" rx="3" fill="#0050D7"/>
        <text x="191" y="16" class="text-white" font-size="11" text-anchor="middle" font-weight="500">Packs</text>
      </g>
      <line x1="0" y1="44" x2="280" y2="44" class="divider"/>

      <!-- Info packs -->
      <g transform="translate(12, 56)">
        <text x="0" y="16" class="text-dark" font-size="12" font-weight="600">Vos abonnements</text>
        <text x="0" y="36" class="text-muted" font-size="11">3 packs actifs</text>
        <text x="0" y="52" class="text-muted" font-size="11">15 licences totales</text>
      </g>

      <!-- Resume packs -->
      <g transform="translate(12, 120)">
        <rect x="0" y="0" width="256" height="80" rx="6" fill="#F9FAFB"/>
        <text x="12" y="24" class="text-dark" font-size="11" font-weight="500">Exchange</text>
        <text x="220" y="24" class="text-dark" font-size="11">5</text>
        <line x1="12" y1="36" x2="244" y2="36" stroke="#E5E7EB"/>
        <text x="12" y="52" class="text-dark" font-size="11" font-weight="500">Email Pro</text>
        <text x="220" y="52" class="text-dark" font-size="11">8</text>
        <line x1="12" y1="64" x2="244" y2="64" stroke="#E5E7EB"/>
        <text x="12" y="76" class="text-dark" font-size="11" font-weight="500">Zimbra</text>
        <text x="220" y="76" class="text-dark" font-size="11">2</text>
      </g>

    </g>

    <!-- RIGHT PANEL -->
    <g transform="translate(320, 0)">
      <rect x="0" y="0" width="1096" height="765" rx="8" class="bg-white"/>
      <rect x="0" y="0" width="1096" height="765" rx="8" class="border"/>

      <g transform="translate(20, 0)">
        <text x="0" y="24" class="text-dark" font-size="18" font-weight="600">Historique des commandes</text>
        <text x="0" y="42" class="text-muted" font-size="11">Consultez l'historique de vos commandes de licences email</text>

        <!-- NAV4 TABS MODE PACKS - Historique actif -->
        <g transform="translate(0, 56)">
          <rect x="0" y="0" width="75" height="26" rx="4" class="btn-outline"/>
          <text x="37" y="17" class="text-primary" font-size="11" text-anchor="middle">Mes packs</text>
          <rect x="79" y="0" width="75" height="26" rx="4" class="btn-outline"/>
          <text x="116" y="17" class="text-primary" font-size="11" text-anchor="middle">A la carte</text>
          <rect x="158" y="0" width="75" height="26" rx="4" class="bg-primary"/>
          <text x="195" y="17" class="text-white" font-size="11" text-anchor="middle">Historique</text>
        </g>

        <!-- FILTERS -->
        <g transform="translate(0, 100)">
          <text x="0" y="20" class="text-muted" font-size="11">Periode:</text>
          <rect x="60" y="4" width="140" height="28" rx="4" fill="#F9FAFB" stroke="#E5E7EB"/>
          <text x="75" y="22" class="text-dark" font-size="11">12 derniers mois</text>
          <text x="185" y="22" class="text-muted" font-size="10">▼</text>

          <text x="230" y="20" class="text-muted" font-size="11">Type:</text>
          <rect x="270" y="4" width="120" height="28" rx="4" fill="#F9FAFB" stroke="#E5E7EB"/>
          <text x="285" y="22" class="text-dark" font-size="11">Tous</text>
          <text x="375" y="22" class="text-muted" font-size="10">▼</text>

          <rect x="900" y="4" width="100" height="28" rx="4" class="btn-outline"/>
          <text x="950" y="22" class="text-primary" font-size="11" text-anchor="middle">Exporter</text>
        </g>

        <!-- TABLE HEADER -->
        <g transform="translate(0, 150)">
          <rect x="0" y="0" width="1036" height="36" rx="4" class="table-header"/>
          <text x="20" y="23" class="text-dark" font-size="11" font-weight="600">Date</text>
          <text x="150" y="23" class="text-dark" font-size="11" font-weight="600">Ref. commande</text>
          <text x="350" y="23" class="text-dark" font-size="11" font-weight="600">Type</text>
          <text x="500" y="23" class="text-dark" font-size="11" font-weight="600">Detail</text>
          <text x="750" y="23" class="text-dark" font-size="11" font-weight="600">Montant</text>
          <text x="900" y="23" class="text-dark" font-size="11" font-weight="600">Statut</text>
        </g>

        <!-- TABLE ROWS -->
        <g transform="translate(0, 186)">
          <rect x="0" y="0" width="1036" height="50" fill="#FFFFFF"/>
          <line x1="0" y1="50" x2="1036" y2="50" stroke="#E5E7EB"/>
          <text x="20" y="30" class="text-muted" font-size="11">02/01/2026</text>
          <text x="150" y="30" class="text-primary" font-size="11">WE123456789</text>
          <rect x="350" y="15" width="70" height="18" rx="4" fill="#F59E0B" opacity="0.2"/>
          <text x="385" y="28" fill="#B45309" font-size="10" text-anchor="middle">Exchange</text>
          <text x="500" y="30" class="text-dark" font-size="11">+2 licences Exchange</text>
          <text x="750" y="30" class="text-dark" font-size="11">9,98 € HT</text>
          <rect x="900" y="15" width="70" height="18" rx="9" fill="#DEF7EC"/>
          <text x="935" y="28" fill="#03543F" font-size="10" text-anchor="middle">Complete</text>

          <rect x="0" y="50" width="1036" height="50" fill="#F9FAFB"/>
          <line x1="0" y1="100" x2="1036" y2="100" stroke="#E5E7EB"/>
          <text x="20" y="80" class="text-muted" font-size="11">28/12/2025</text>
          <text x="150" y="80" class="text-primary" font-size="11">WE123456788</text>
          <rect x="350" y="65" width="70" height="18" rx="4" fill="#8B5CF6" opacity="0.2"/>
          <text x="385" y="78" fill="#6D28D9" font-size="10" text-anchor="middle">Email Pro</text>
          <text x="500" y="80" class="text-dark" font-size="11">+5 licences Email Pro</text>
          <text x="750" y="80" class="text-dark" font-size="11">9,95 € HT</text>
          <rect x="900" y="65" width="70" height="18" rx="9" fill="#DEF7EC"/>
          <text x="935" y="78" fill="#03543F" font-size="10" text-anchor="middle">Complete</text>

          <rect x="0" y="100" width="1036" height="50" fill="#FFFFFF"/>
          <line x1="0" y1="150" x2="1036" y2="150" stroke="#E5E7EB"/>
          <text x="20" y="130" class="text-muted" font-size="11">15/12/2025</text>
          <text x="150" y="130" class="text-primary" font-size="11">WE123456787</text>
          <rect x="350" y="115" width="70" height="18" rx="4" fill="#10B981" opacity="0.2"/>
          <text x="385" y="128" fill="#047857" font-size="10" text-anchor="middle">Zimbra</text>
          <text x="500" y="130" class="text-dark" font-size="11">+2 licences Zimbra</text>
          <text x="750" y="130" class="text-dark" font-size="11">5,98 € HT</text>
          <rect x="900" y="115" width="70" height="18" rx="9" fill="#DEF7EC"/>
          <text x="935" y="128" fill="#03543F" font-size="10" text-anchor="middle">Complete</text>

          <rect x="0" y="150" width="1036" height="50" fill="#F9FAFB"/>
          <line x1="0" y1="200" x2="1036" y2="200" stroke="#E5E7EB"/>
          <text x="20" y="180" class="text-muted" font-size="11">01/11/2025</text>
          <text x="150" y="180" class="text-primary" font-size="11">WE123456700</text>
          <rect x="350" y="165" width="70" height="18" rx="4" fill="#F59E0B" opacity="0.2"/>
          <text x="385" y="178" fill="#B45309" font-size="10" text-anchor="middle">Exchange</text>
          <text x="500" y="180" class="text-dark" font-size="11">+3 licences Exchange</text>
          <text x="750" y="180" class="text-dark" font-size="11">14,97 € HT</text>
          <rect x="900" y="165" width="70" height="18" rx="9" fill="#DEF7EC"/>
          <text x="935" y="178" fill="#03543F" font-size="10" text-anchor="middle">Complete</text>
        </g>

        <!-- PAGINATION -->
        <g transform="translate(0, 700)">
          <text x="0" y="16" class="text-muted" font-size="11">Affichage 1-4 sur 12</text>
          <g transform="translate(880, 0)">
            <rect x="0" y="0" width="28" height="26" rx="4" fill="#E5E7EB"/>
            <text x="14" y="17" class="text-muted" font-size="12" text-anchor="middle">‹</text>
            <rect x="34" y="0" width="28" height="26" rx="4" class="bg-primary"/>
            <text x="48" y="17" class="text-white" font-size="11" text-anchor="middle">1</text>
            <rect x="68" y="0" width="28" height="26" rx="4" class="btn-outline"/>
            <text x="82" y="17" class="text-primary" font-size="11" text-anchor="middle">2</text>
            <rect x="102" y="0" width="28" height="26" rx="4" class="btn-outline"/>
            <text x="116" y="17" class="text-primary" font-size="11" text-anchor="middle">3</text>
            <rect x="136" y="0" width="28" height="26" rx="4" class="btn-outline"/>
            <text x="150" y="17" class="text-primary" font-size="12" text-anchor="middle">›</text>
          </g>
        </g>
      </g>
    </g>
  </g>
</svg>
