<svg xmlns="http://www.w3.org/2000/svg" viewBox="0 0 1440 900" width="1440" height="900">
  <defs>
    <style>
      .bg-header { fill: #000E9C; }
      .bg-main { fill: #F6F6F9; }
      .bg-white { fill: #FFFFFF; }
      .bg-primary { fill: #0050D7; }
      .bg-neutral-100 { fill: #F3F4F6; }
      .bg-info { fill: #DBEAFE; }
      .bg-success { fill: #DEF7EC; }
      .bg-error { fill: #FEE2E2; }
      .border { stroke: #E5E7EB; stroke-width: 1; fill: none; }
      .btn-outline { stroke: #0050D7; stroke-width: 1; fill: #FFFFFF; }
      .btn-primary { fill: #0050D7; }
      .table-header { fill: #F9FAFB; }
      .text-white { fill: #FFFFFF; font-family: 'Source Sans Pro', sans-serif; }
      .text-dark { fill: #1F2937; font-family: 'Source Sans Pro', sans-serif; }
      .text-muted { fill: #6B7280; font-family: 'Source Sans Pro', sans-serif; }
      .text-primary { fill: #0050D7; font-family: 'Source Sans Pro', sans-serif; }
      .text-success { fill: #059669; font-family: 'Source Sans Pro', sans-serif; }
      .text-error { fill: #DC2626; font-family: 'Source Sans Pro', sans-serif; }
    </style>
  </defs>

  <!-- Background -->
  <rect width="1440" height="900" class="bg-main"/>

  <!-- NAV1 - Header OVH (Web Cloud actif) -->
  <rect width="1440" height="50" fill="#000E9C"/>
  <text x="40" y="32" fill="#FFFFFF" font-family="Source Sans Pro" font-size="14" opacity="0.7">Accueil</text>
  <text x="110" y="32" fill="#FFFFFF" font-family="Source Sans Pro" font-size="14" opacity="0.7">Public Cloud</text>
  <text x="210" y="32" fill="#FFFFFF" font-family="Source Sans Pro" font-size="14" opacity="0.7">Hosted Private Cloud</text>
  <text x="370" y="32" fill="#FFFFFF" font-family="Source Sans Pro" font-size="14" opacity="0.7">Bare Metal Cloud</text>
  <text x="510" y="32" fill="#FFFFFF" font-family="Source Sans Pro" font-size="14" font-weight="600">Web Cloud</text>
  <rect x="505" y="46" width="75" height="3" fill="#FFFFFF"/>
  <text x="620" y="32" fill="#FFFFFF" font-family="Source Sans Pro" font-size="14" opacity="0.7">Network</text>
  <text x="700" y="32" fill="#FFFFFF" font-family="Source Sans Pro" font-size="14" opacity="0.7">IAM / Securite</text>
  <text x="810" y="32" fill="#FFFFFF" font-family="Source Sans Pro" font-size="14" opacity="0.7">Licences</text>
  <rect x="1280" y="12" width="140" height="26" rx="13" fill="rgba(255,255,255,0.2)"/>
  <rect x="1285" y="15" width="26" height="20" rx="10" fill="#DEF7EC"/>
  <text x="1292" y="29" fill="#03543F" font-size="10" font-weight="600">OK</text>
  <text x="1320" y="29" fill="#FFFFFF" font-size="12">ab12345-ovh</text>

  <!-- NAV2 - Web Cloud (VoIP actif) -->
  <rect x="0" y="50" width="1440" height="40" fill="#FFFFFF"/>
  <line x1="0" y1="89" x2="1440" y2="89" stroke="#E5E7EB"/>
  <text x="40" y="75" fill="#6B7280" font-family="Source Sans Pro" font-size="14">Accueil</text>
  <text x="110" y="75" fill="#6B7280" font-family="Source Sans Pro" font-size="14">Domaines et DNS</text>
  <text x="240" y="75" fill="#6B7280" font-family="Source Sans Pro" font-size="14">Hébergement</text>
  <text x="345" y="75" fill="#6B7280" font-family="Source Sans Pro" font-size="14">Wordpress</text>
  <text x="430" y="75" fill="#6B7280" font-family="Source Sans Pro" font-size="14">Emails</text>
  <text x="500" y="75" fill="#0050D7" font-family="Source Sans Pro" font-size="14" font-weight="600">VoIP</text>
  <rect x="495" y="85" width="35" height="3" fill="#0050D7"/>
  <text x="550" y="75" fill="#6B7280" font-family="Source Sans Pro" font-size="14">Accès</text>
  <text x="1350" y="75" fill="#0050D7" font-family="Source Sans Pro" font-size="13">Guides</text>

  <!-- CONTENT AREA -->
  <g transform="translate(0, 105)">
    <g transform="translate(24, 0)">

      <!-- LEFT PANEL -->
      <rect x="0" y="0" width="280" height="765" rx="8" class="bg-white"/>
      <rect x="0" y="0" width="280" height="765" rx="8" class="border"/>

      <!-- Recherche -->
      <rect x="12" y="12" width="256" height="34" rx="4" fill="#F9FAFB" stroke="#E5E7EB"/>
      <text x="40" y="34" class="text-muted" font-size="12">Rechercher un numéro...</text>
      <text x="26" y="34" class="text-muted" font-size="14">🔍</text>

      <!-- Compteur -->
      <text x="12" y="68" class="text-muted" font-size="11">6 numéros</text>

      <!-- Service item sélectionné (Queue) -->
      <g transform="translate(6, 80)">
        <rect x="0" y="0" width="268" height="60" rx="6" fill="#E8F0FE"/>
        <text x="16" y="24" class="text-muted" font-size="10">🔢</text>
        <text x="36" y="24" class="text-dark" font-size="12" font-weight="500">0033 9 72 10 99 99</text>
        <text x="36" y="40" class="text-muted" font-size="11">Accueil principal</text>
        <rect x="180" y="16" width="60" height="18" rx="9" fill="#FEF3C7"/>
        <text x="210" y="29" fill="#D97706" font-size="10" text-anchor="middle">Queue</text>
      </g>

      <!-- Autres items -->
      <g transform="translate(6, 150)">
        <rect x="0" y="0" width="268" height="60" rx="6" fill="#FFFFFF"/>
        <text x="16" y="24" class="text-muted" font-size="10">🔢</text>
        <text x="36" y="24" class="text-dark" font-size="12">0033 9 72 10 80 00</text>
        <text x="36" y="40" class="text-muted" font-size="11">Salle de conférence</text>
        <rect x="180" y="16" width="60" height="18" rx="9" fill="#DBEAFE"/>
        <text x="210" y="29" fill="#1E40AF" font-size="10" text-anchor="middle">Conf</text>
      </g>

    </g>

    <g transform="translate(320, 0)">

      <!-- RIGHT PANEL -->
      <rect x="0" y="0" width="1096" height="765" rx="8" class="bg-white"/>
      <rect x="0" y="0" width="1096" height="765" rx="8" class="border"/>

      <g transform="translate(20, 0)">
        <!-- HEADER PAGE -->
        <text x="0" y="24" class="text-dark" font-size="18" font-weight="600">0033 9 72 10 99 99</text>
        <text x="180" y="24" class="text-muted" font-size="12">Accueil principal · File d'attente</text>

        <!-- NAV3 TABS - Numéros (4 tabs) - Configuration actif -->
        <g transform="translate(0, 38)">
          <rect x="0" y="0" width="60" height="26" rx="4" fill="#FFFFFF" stroke="#0050D7"/>
          <text x="30" y="17" fill="#0050D7" font-size="11" text-anchor="middle">Général</text>

          <rect x="64" y="0" width="95" height="26" rx="4" fill="#0050D7"/>
          <text x="111" y="17" fill="#FFFFFF" font-size="11" text-anchor="middle">Configuration</text>

          <rect x="163" y="0" width="80" height="26" rx="4" fill="#FFFFFF" stroke="#0050D7"/>
          <text x="203" y="17" fill="#0050D7" font-size="11" text-anchor="middle">Portabilité</text>

          <rect x="247" y="0" width="80" height="26" rx="4" fill="#FFFFFF" stroke="#0050D7"/>
          <text x="287" y="17" fill="#0050D7" font-size="11" text-anchor="middle">Statistiques</text>
        </g>

        <!-- NAV4 - Sous-tabs Queue - Membres actif -->
        <g transform="translate(0, 70)">
          <text x="0" y="14" fill="#0050D7" font-size="12" font-weight="500">Membres</text>
          <rect x="0" y="18" width="55" height="2" fill="#0050D7"/>

          <text x="75" y="14" fill="#6B7280" font-size="12">Stratégie</text>
          <text x="145" y="14" fill="#6B7280" font-size="12">Musique</text>
        </g>

        <!-- CONTENU - Configuration Queue -->
        <g transform="translate(0, 100)">

          <!-- Titre + bouton ajouter -->
          <text x="0" y="20" class="text-dark" font-size="13" font-weight="600">Membres de la file d'attente</text>
          <g transform="translate(900, 0)">
            <rect x="0" y="0" width="136" height="32" rx="4" fill="#0050D7"/>
            <text x="68" y="21" fill="#FFFFFF" font-size="11" text-anchor="middle">+ Ajouter membre</text>
          </g>

          <!-- Table des membres -->
          <g transform="translate(0, 40)">
            <!-- Header -->
            <rect x="0" y="0" width="1036" height="40" rx="4" fill="#F9FAFB"/>
            <text x="20" y="26" class="text-dark" font-size="11" font-weight="600">#</text>
            <text x="60" y="26" class="text-dark" font-size="11" font-weight="600">Type</text>
            <text x="160" y="26" class="text-dark" font-size="11" font-weight="600">Numéro</text>
            <text x="340" y="26" class="text-dark" font-size="11" font-weight="600">Description</text>
            <text x="520" y="26" class="text-dark" font-size="11" font-weight="600">Timeout</text>
            <text x="620" y="26" class="text-dark" font-size="11" font-weight="600">Wrap-up</text>
            <text x="720" y="26" class="text-dark" font-size="11" font-weight="600">Simult.</text>
            <text x="800" y="26" class="text-dark" font-size="11" font-weight="600">Statut</text>
            <text x="920" y="26" class="text-dark" font-size="11" font-weight="600">Actions</text>

            <!-- Row 1 -->
            <g transform="translate(0, 50)">
              <text x="20" y="18" class="text-muted" font-size="11">▲▼</text>
              <text x="60" y="18" class="text-dark" font-size="11">Interne</text>
              <text x="160" y="18" class="text-primary" font-size="11">0033 9 72 10 12 34</text>
              <text x="340" y="18" class="text-dark" font-size="11">Support niveau 1</text>
              <text x="520" y="18" class="text-dark" font-size="11">20 sec</text>
              <text x="620" y="18" class="text-dark" font-size="11">10 sec</text>
              <text x="720" y="18" class="text-dark" font-size="11">2</text>
              <rect x="800" y="4" width="46" height="18" rx="9" fill="#DEF7EC"/>
              <text x="823" y="17" fill="#03543F" font-size="10" text-anchor="middle">Actif</text>
              <text x="920" y="18" class="text-primary" font-size="11">✎</text>
              <text x="945" y="18" class="text-muted" font-size="11">↑</text>
              <text x="970" y="18" class="text-muted" font-size="11">↓</text>
              <text x="995" y="18" class="text-error" font-size="11">×</text>
              <line x1="0" y1="35" x2="1036" y2="35" stroke="#E5E7EB"/>
            </g>

            <!-- Row 2 -->
            <g transform="translate(0, 95)">
              <text x="20" y="18" class="text-muted" font-size="11">▲▼</text>
              <text x="60" y="18" class="text-dark" font-size="11">Interne</text>
              <text x="160" y="18" class="text-primary" font-size="11">0033 9 72 10 12 35</text>
              <text x="340" y="18" class="text-dark" font-size="11">Support niveau 2</text>
              <text x="520" y="18" class="text-dark" font-size="11">30 sec</text>
              <text x="620" y="18" class="text-dark" font-size="11">15 sec</text>
              <text x="720" y="18" class="text-dark" font-size="11">1</text>
              <rect x="800" y="4" width="46" height="18" rx="9" fill="#DEF7EC"/>
              <text x="823" y="17" fill="#03543F" font-size="10" text-anchor="middle">Actif</text>
              <text x="920" y="18" class="text-primary" font-size="11">✎</text>
              <text x="945" y="18" class="text-muted" font-size="11">↑</text>
              <text x="970" y="18" class="text-muted" font-size="11">↓</text>
              <text x="995" y="18" class="text-error" font-size="11">×</text>
              <line x1="0" y1="35" x2="1036" y2="35" stroke="#E5E7EB"/>
            </g>

            <!-- Row 3 -->
            <g transform="translate(0, 140)">
              <text x="20" y="18" class="text-muted" font-size="11">▲</text>
              <text x="60" y="18" class="text-dark" font-size="11">Externe</text>
              <text x="160" y="18" class="text-primary" font-size="11">0033 6 12 34 56 78</text>
              <text x="340" y="18" class="text-dark" font-size="11">Astreinte mobile</text>
              <text x="520" y="18" class="text-dark" font-size="11">45 sec</text>
              <text x="620" y="18" class="text-dark" font-size="11">0 sec</text>
              <text x="720" y="18" class="text-dark" font-size="11">1</text>
              <rect x="800" y="4" width="46" height="18" rx="9" fill="#DEF7EC"/>
              <text x="823" y="17" fill="#03543F" font-size="10" text-anchor="middle">Actif</text>
              <text x="920" y="18" class="text-primary" font-size="11">✎</text>
              <text x="945" y="18" class="text-muted" font-size="11">↑</text>
              <text x="970" y="18" class="text-muted" font-size="11">↓</text>
              <text x="995" y="18" class="text-error" font-size="11">×</text>
            </g>
          </g>

          <!-- Options formulaire -->
          <g transform="translate(0, 280)">
            <line x1="0" y1="0" x2="1036" y2="0" stroke="#E5E7EB"/>

            <!-- Select numéro affiché -->
            <g transform="translate(0, 20)">
              <text x="0" y="0" class="text-muted" font-size="11">Numéro affiché à l'appelé</text>
              <rect x="0" y="8" width="300" height="36" rx="4" fill="#FFFFFF" stroke="#E5E7EB"/>
              <text x="12" y="31" class="text-dark" font-size="11">Numéro de la file d'attente</text>
              <text x="275" y="31" class="text-muted" font-size="10">▼</text>
            </g>

            <!-- Select stratégie -->
            <g transform="translate(350, 20)">
              <text x="0" y="0" class="text-muted" font-size="11">Stratégie de distribution</text>
              <rect x="0" y="8" width="300" height="36" rx="4" fill="#FFFFFF" stroke="#E5E7EB"/>
              <text x="12" y="31" class="text-dark" font-size="11">Round-robin</text>
              <text x="275" y="31" class="text-muted" font-size="10">▼</text>
              <text x="0" y="60" class="text-muted" font-size="10">Les appels sont distribués à tour de rôle entre les lignes.</text>
            </g>

            <!-- Checkbox renvois -->
            <g transform="translate(0, 110)">
              <rect x="0" y="0" width="18" height="18" fill="#FFFFFF" stroke="#E5E7EB" rx="3"/>
              <text x="26" y="14" class="text-dark" font-size="11">Appliquer les renvois d'appel configurés sur les lignes</text>
            </g>
          </g>

          <!-- Boutons -->
          <g transform="translate(0, 420)">
            <rect x="0" y="0" width="100" height="36" rx="4" fill="#FFFFFF" stroke="#E5E7EB"/>
            <text x="50" y="23" class="text-dark" font-size="11" text-anchor="middle">Annuler</text>
            <rect x="110" y="0" width="100" height="36" rx="4" fill="#0050D7"/>
            <text x="160" y="23" fill="#FFFFFF" font-size="11" text-anchor="middle">Valider</text>
          </g>

          <!-- Bannière info -->
          <g transform="translate(0, 480)">
            <rect x="0" y="0" width="1036" height="40" rx="6" fill="#DBEAFE"/>
            <text x="20" y="25" fill="#1E40AF" font-size="12">ℹ️ Les appels sont distribués selon la stratégie "Round-robin". Modifiez l'ordre avec les flèches ↑↓.</text>
          </g>

        </g>
      </g>

    </g>
  </g>
</svg>
