<svg xmlns="http://www.w3.org/2000/svg" viewBox="0 0 1440 900" width="1440" height="900">
  <defs>
    <style>
      .bg-header { fill: #000E9C; }
      .bg-main { fill: #F6F6F9; }
      .bg-white { fill: #FFFFFF; }
      .bg-primary { fill: #0050D7; }
      .bg-success { fill: #DEF7EC; }
      .bg-info { fill: #DBEAFE; }
      .border { stroke: #E5E7EB; stroke-width: 1; fill: none; }
      .btn-outline { stroke: #0050D7; stroke-width: 1; fill: #FFFFFF; }
      .btn-primary { fill: #0050D7; }
      .table-header { fill: #F9FAFB; }
      .text-white { fill: #FFFFFF; font-family: 'Source Sans Pro', sans-serif; }
      .text-dark { fill: #1F2937; font-family: 'Source Sans Pro', sans-serif; }
      .text-muted { fill: #6B7280; font-family: 'Source Sans Pro', sans-serif; }
      .text-primary { fill: #0050D7; font-family: 'Source Sans Pro', sans-serif; }
      .text-success { fill: #059669; font-family: 'Source Sans Pro', sans-serif; }
    </style>
  </defs>

  <!-- Background -->
  <rect width="1440" height="900" class="bg-main"/>

  <!-- NAV1 -->
  <rect width="1440" height="50" class="bg-header"/>
  <text x="40" y="32" class="text-white" font-size="14" opacity="0.7">Accueil</text>
  <text x="110" y="32" class="text-white" font-size="14" opacity="0.7">Public Cloud</text>
  <text x="210" y="32" class="text-white" font-size="14" opacity="0.7">Hosted Private Cloud</text>
  <text x="370" y="32" class="text-white" font-size="14" opacity="0.7">Bare Metal Cloud</text>
  <text x="510" y="32" class="text-white" font-size="14" font-weight="600">Web Cloud</text>
  <rect x="505" y="46" width="75" height="3" fill="#FFFFFF"/>
  <text x="620" y="32" class="text-white" font-size="14" opacity="0.7">Network</text>
  <text x="700" y="32" class="text-white" font-size="14" opacity="0.7">IAM / Securite</text>
  <text x="810" y="32" class="text-white" font-size="14" opacity="0.7">Licences</text>
  <rect x="1280" y="12" width="140" height="26" rx="13" fill="rgba(255,255,255,0.2)"/>
  <text x="1320" y="29" class="text-white" font-size="12">{nicHandle}</text>

  <!-- NAV2 -->
  <rect x="0" y="50" width="1440" height="40" fill="#FFFFFF"/>
  <line x1="0" y1="89" x2="1440" y2="89" stroke="#E5E7EB"/>
  <text x="40" y="75" class="text-muted" font-size="14">Accueil</text>
  <text x="110" y="75" class="text-muted" font-size="14">Domaines et DNS</text>
  <text x="240" y="75" class="text-muted" font-size="14">Hébergement</text>
  <text x="345" y="75" class="text-muted" font-size="14">Wordpress</text>
  <text x="430" y="75" class="text-muted" font-size="14">Emails</text>
  <text x="500" y="75" class="text-primary" font-size="14" font-weight="600">VoIP</text>
  <rect x="495" y="85" width="35" height="3" fill="#0050D7"/>
  <text x="550" y="75" class="text-muted" font-size="14">Accès</text>
  <text x="1350" y="75" class="text-primary" font-size="13">Guides</text>

  <!-- CONTENT AREA -->
  <g transform="translate(0, 105)">
    <g transform="translate(24, 0)">
      <!-- LEFT PANEL -->
      <rect x="0" y="0" width="280" height="765" rx="8" class="bg-white"/>
      <rect x="0" y="0" width="280" height="765" rx="8" class="border"/>
      <rect x="12" y="12" width="256" height="34" rx="4" fill="#F9FAFB" stroke="#E5E7EB"/>
      <text x="26" y="34" class="text-muted" font-size="12">Rechercher...</text>

      <g transform="translate(6, 60)">
        <rect x="0" y="0" width="268" height="65" rx="6" fill="#E8F0FE"/>
        <text x="12" y="22" class="text-dark" font-size="13" font-weight="500">🔢 0033800123456</text>
        <text x="12" y="40" class="text-muted" font-size="11">Numéro vert</text>
        <text x="12" y="56" class="text-muted" font-size="10">easyHunting</text>
      </g>
    </g>

    <g transform="translate(320, 0)">
      <!-- RIGHT PANEL -->
      <rect x="0" y="0" width="1096" height="765" rx="8" class="bg-white"/>
      <rect x="0" y="0" width="1096" height="765" rx="8" class="border"/>

      <g transform="translate(20, 0)">
        <!-- HEADER -->
        <text x="0" y="28" class="text-dark" font-size="18" font-weight="600">+33 800 123 456</text>
        <rect x="160" y="12" width="80" height="22" rx="11" fill="#DEF7EC"/>
        <text x="200" y="27" fill="#03543F" font-size="10" text-anchor="middle">easyHunting</text>
        <text x="260" y="28" class="text-muted" font-size="14">Numéro vert / Sons</text>

        <!-- NAV3 TABS -->
        <g transform="translate(0, 50)">
          <rect x="0" y="0" width="60" height="26" rx="4" fill="#FFFFFF" stroke="#0050D7"/>
          <text x="30" y="17" class="text-primary" font-size="11" text-anchor="middle">Général</text>

          <rect x="64" y="0" width="90" height="26" rx="4" fill="#FFFFFF" stroke="#0050D7"/>
          <text x="109" y="17" class="text-primary" font-size="11" text-anchor="middle">Configuration</text>

          <rect x="158" y="0" width="60" height="26" rx="4" fill="#FFFFFF" stroke="#0050D7"/>
          <text x="188" y="17" class="text-primary" font-size="11" text-anchor="middle">Agents</text>

          <rect x="222" y="0" width="75" height="26" rx="4" fill="#FFFFFF" stroke="#0050D7"/>
          <text x="259" y="17" class="text-primary" font-size="11" text-anchor="middle">Statistiques</text>

          <rect x="301" y="0" width="50" height="26" rx="4" fill="#0050D7"/>
          <text x="326" y="17" class="text-white" font-size="11" text-anchor="middle">Sons</text>

          <rect x="355" y="0" width="70" height="26" rx="4" fill="#FFFFFF" stroke="#0050D7"/>
          <text x="390" y="17" class="text-primary" font-size="11" text-anchor="middle">Horaires</text>
        </g>

        <!-- CONTENU SONS -->
        <g transform="translate(0, 95)">

          <!-- Bannière info -->
          <rect x="0" y="0" width="1036" height="40" rx="6" class="bg-info"/>
          <text x="20" y="25" fill="#1E40AF" font-size="12">ℹ️ Les fichiers audio sont utilisés pour l'accueil, l'attente et les annonces de votre numéro.</text>

          <!-- Toolbar -->
          <g transform="translate(0, 55)">
            <rect x="0" y="0" width="32" height="32" rx="4" class="btn-outline"/>
            <text x="16" y="22" class="text-primary" font-size="14" text-anchor="middle">↻</text>

            <rect x="40" y="0" width="180" height="32" rx="4" fill="#F9FAFB" stroke="#E5E7EB"/>
            <text x="52" y="21" class="text-muted" font-size="11">Rechercher un son...</text>

            <rect x="900" y="0" width="136" height="32" rx="4" class="btn-primary"/>
            <text x="968" y="21" class="text-white" font-size="11" text-anchor="middle">+ Ajouter un son</text>
          </g>

          <!-- Table sons -->
          <rect x="0" y="105" width="1036" height="500" rx="6" fill="#FFFFFF" stroke="#E5E7EB"/>

          <!-- Header table -->
          <rect x="1" y="106" width="1034" height="40" rx="6" class="table-header"/>
          <text x="20" y="130" class="text-muted" font-size="11" font-weight="600">Nom</text>
          <text x="300" y="130" class="text-muted" font-size="11" font-weight="600">Type</text>
          <text x="450" y="130" class="text-muted" font-size="11" font-weight="600">Durée</text>
          <text x="550" y="130" class="text-muted" font-size="11" font-weight="600">Taille</text>
          <text x="650" y="130" class="text-muted" font-size="11" font-weight="600">Utilisé dans</text>
          <text x="850" y="130" class="text-muted" font-size="11" font-weight="600">Actions</text>

          <!-- Row 1 -->
          <line x1="1" y1="146" x2="1035" y2="146" stroke="#E5E7EB"/>
          <text x="20" y="175" class="text-dark" font-size="12">🔊 accueil_principal.wav</text>
          <rect x="300" y="160" width="70" height="20" rx="10" fill="#DEF7EC"/>
          <text x="335" y="175" fill="#03543F" font-size="10" text-anchor="middle">Accueil</text>
          <text x="450" y="175" class="text-muted" font-size="11">0:42</text>
          <text x="550" y="175" class="text-muted" font-size="11">1.2 MB</text>
          <text x="650" y="175" class="text-primary" font-size="11">Accueil principal</text>
          <text x="850" y="175" class="text-primary" font-size="11">▶</text>
          <text x="890" y="175" class="text-primary" font-size="11">⬇</text>
          <text x="930" y="175" class="text-primary" font-size="11">✎</text>
          <text x="970" y="175" fill="#DC2626" font-size="11">✕</text>

          <!-- Row 2 -->
          <line x1="1" y1="191" x2="1035" y2="191" stroke="#E5E7EB"/>
          <text x="20" y="220" class="text-dark" font-size="12">🔊 attente_musique.wav</text>
          <rect x="300" y="205" width="70" height="20" rx="10" fill="#DBEAFE"/>
          <text x="335" y="220" fill="#1E40AF" font-size="10" text-anchor="middle">Attente</text>
          <text x="450" y="220" class="text-muted" font-size="11">3:15</text>
          <text x="550" y="220" class="text-muted" font-size="11">4.8 MB</text>
          <text x="650" y="220" class="text-primary" font-size="11">Musique d'attente</text>
          <text x="850" y="220" class="text-primary" font-size="11">▶</text>
          <text x="890" y="220" class="text-primary" font-size="11">⬇</text>
          <text x="930" y="220" class="text-primary" font-size="11">✎</text>
          <text x="970" y="220" fill="#DC2626" font-size="11">✕</text>

          <!-- Row 3 -->
          <line x1="1" y1="236" x2="1035" y2="236" stroke="#E5E7EB"/>
          <text x="20" y="265" class="text-dark" font-size="12">🔊 fermeture_horaires.wav</text>
          <rect x="300" y="250" width="80" height="20" rx="10" fill="#FEF3C7"/>
          <text x="340" y="265" fill="#D97706" font-size="10" text-anchor="middle">Fermeture</text>
          <text x="450" y="265" class="text-muted" font-size="11">0:28</text>
          <text x="550" y="265" class="text-muted" font-size="11">0.8 MB</text>
          <text x="650" y="265" class="text-primary" font-size="11">Horaires fermés</text>
          <text x="850" y="265" class="text-primary" font-size="11">▶</text>
          <text x="890" y="265" class="text-primary" font-size="11">⬇</text>
          <text x="930" y="265" class="text-primary" font-size="11">✎</text>
          <text x="970" y="265" fill="#DC2626" font-size="11">✕</text>

          <!-- Row 4 -->
          <line x1="1" y1="281" x2="1035" y2="281" stroke="#E5E7EB"/>
          <text x="20" y="310" class="text-dark" font-size="12">🔊 menu_svi.wav</text>
          <rect x="300" y="295" width="50" height="20" rx="10" fill="#F3E8FF"/>
          <text x="325" y="310" fill="#7C3AED" font-size="10" text-anchor="middle">SVI</text>
          <text x="450" y="310" class="text-muted" font-size="11">1:05</text>
          <text x="550" y="310" class="text-muted" font-size="11">1.5 MB</text>
          <text x="650" y="310" class="text-primary" font-size="11">Menu principal SVI</text>
          <text x="850" y="310" class="text-primary" font-size="11">▶</text>
          <text x="890" y="310" class="text-primary" font-size="11">⬇</text>
          <text x="930" y="310" class="text-primary" font-size="11">✎</text>
          <text x="970" y="310" fill="#DC2626" font-size="11">✕</text>

          <!-- Row 5 -->
          <line x1="1" y1="326" x2="1035" y2="326" stroke="#E5E7EB"/>
          <text x="20" y="355" class="text-dark" font-size="12">🔊 file_attente_position.wav</text>
          <rect x="300" y="340" width="70" height="20" rx="10" fill="#DBEAFE"/>
          <text x="335" y="355" fill="#1E40AF" font-size="10" text-anchor="middle">Attente</text>
          <text x="450" y="355" class="text-muted" font-size="11">0:15</text>
          <text x="550" y="355" class="text-muted" font-size="11">0.4 MB</text>
          <text x="650" y="355" class="text-primary" font-size="11">Annonce position file</text>
          <text x="850" y="355" class="text-primary" font-size="11">▶</text>
          <text x="890" y="355" class="text-primary" font-size="11">⬇</text>
          <text x="930" y="355" class="text-primary" font-size="11">✎</text>
          <text x="970" y="355" fill="#DC2626" font-size="11">✕</text>

          <!-- Pagination -->
          <g transform="translate(0, 520)">
            <text x="20" y="15" class="text-muted" font-size="11">5 sons sur 12</text>
            <g transform="translate(880, 0)">
              <rect x="0" y="0" width="28" height="28" rx="4" fill="#F9FAFB" stroke="#E5E7EB"/>
              <text x="14" y="18" class="text-muted" font-size="11" text-anchor="middle">‹</text>
              <rect x="32" y="0" width="28" height="28" rx="4" class="btn-primary"/>
              <text x="46" y="18" class="text-white" font-size="11" text-anchor="middle">1</text>
              <rect x="64" y="0" width="28" height="28" rx="4" fill="#F9FAFB" stroke="#E5E7EB"/>
              <text x="78" y="18" class="text-muted" font-size="11" text-anchor="middle">2</text>
              <rect x="96" y="0" width="28" height="28" rx="4" fill="#F9FAFB" stroke="#E5E7EB"/>
              <text x="110" y="18" class="text-muted" font-size="11" text-anchor="middle">3</text>
              <rect x="128" y="0" width="28" height="28" rx="4" fill="#F9FAFB" stroke="#E5E7EB"/>
              <text x="142" y="18" class="text-muted" font-size="11" text-anchor="middle">›</text>
            </g>
          </g>

        </g>
      </g>
    </g>
  </g>
</svg>
