<svg xmlns="http://www.w3.org/2000/svg" viewBox="0 0 1440 900" width="1440" height="900">
  <defs>
    <style>
      .bg-header { fill: #000E9C; }
      .bg-main { fill: #F6F6F9; }
      .bg-white { fill: #FFFFFF; }
      .bg-primary { fill: #0050D7; }
      .border { stroke: #E5E7EB; stroke-width: 1; fill: none; }
      .btn-outline { stroke: #0050D7; stroke-width: 1; fill: #FFFFFF; }
      .btn-primary { fill: #0050D7; }
      .btn-disabled { fill: #E5E7EB; }
      .row-selected { fill: #E8F0FE; }
      .table-header { fill: #F9FAFB; }
      .text-white { fill: #FFFFFF; font-family: 'Source Sans Pro', sans-serif; }
      .text-dark { fill: #1F2937; font-family: 'Source Sans Pro', sans-serif; }
      .text-muted { fill: #6B7280; font-family: 'Source Sans Pro', sans-serif; }
      .text-primary { fill: #0050D7; font-family: 'Source Sans Pro', sans-serif; }
      .text-success { fill: #059669; font-family: 'Source Sans Pro', sans-serif; }
      .text-error { fill: #DC2626; font-family: 'Source Sans Pro', sans-serif; }
    </style>
  </defs>

  <rect width="1440" height="900" class="bg-main"/>

  <!-- NAV1 -->
  <rect width="1440" height="50" class="bg-header"/>
  <text x="40" y="32" class="text-white" font-size="14" opacity="0.7">Accueil</text>
  <text x="110" y="32" class="text-white" font-size="14" opacity="0.7">Public Cloud</text>
  <text x="210" y="32" class="text-white" font-size="14" opacity="0.7">Hosted Private Cloud</text>
  <text x="370" y="32" class="text-white" font-size="14" opacity="0.7">Bare Metal Cloud</text>
  <text x="510" y="32" class="text-white" font-size="14" font-weight="600">Web Cloud</text>
  <rect x="505" y="46" width="75" height="3" fill="#FFFFFF"/>
  <text x="620" y="32" class="text-white" font-size="14" opacity="0.7">Network</text>
  <text x="700" y="32" class="text-white" font-size="14" opacity="0.7">IAM / Securite</text>
  <text x="810" y="32" class="text-white" font-size="14" opacity="0.7">Licences</text>
  <rect x="1280" y="12" width="140" height="26" rx="13" fill="rgba(255,255,255,0.2)"/>
  <text x="1320" y="29" class="text-white" font-size="12">ab12345-ovh</text>

  <!-- NAV2 -->
  <rect x="0" y="50" width="1440" height="40" class="bg-white"/>
  <line x1="0" y1="89" x2="1440" y2="89" stroke="#E5E7EB"/>
  <text x="40" y="75" class="text-muted" font-size="14">Accueil</text>
  <text x="110" y="75" class="text-muted" font-size="14">Domaines et DNS</text>
  <text x="240" y="75" class="text-muted" font-size="14">Hebergement</text>
  <text x="345" y="75" class="text-muted" font-size="14">Wordpress</text>
  <text x="430" y="75" class="text-primary" font-size="14" font-weight="600">Emails</text>
  <rect x="425" y="85" width="50" height="3" fill="#0050D7"/>
  <text x="500" y="75" class="text-muted" font-size="14">VoIP</text>
  <text x="550" y="75" class="text-muted" font-size="14">Acces</text>
  <text x="1350" y="75" class="text-primary" font-size="13">Guides</text>

  <!-- CONTENT -->
  <g transform="translate(0, 105)">
    <g transform="translate(24, 0)">
      <!-- LEFT PANEL -->
      <rect x="0" y="0" width="280" height="765" rx="8" class="bg-white"/>
      <rect x="0" y="0" width="280" height="765" rx="8" class="border"/>
      <g transform="translate(12, 12)">
        <rect x="0" y="0" width="256" height="32" rx="6" fill="#F3F4F6"/>
        <rect x="2" y="2" width="125" height="28" rx="5" fill="#FFFFFF"/>
        <text x="64" y="21" class="text-dark" font-size="11" text-anchor="middle" font-weight="500">Par domaine</text>
        <text x="191" y="21" class="text-muted" font-size="11" text-anchor="middle">Par licence</text>
      </g>
      <rect x="12" y="56" width="256" height="34" rx="4" fill="#F9FAFB" stroke="#E5E7EB"/>
      <text x="26" y="78" class="text-muted" font-size="12">Rechercher...</text>
      <g transform="translate(6, 120)">
        <rect x="0" y="0" width="268" height="50" rx="6" class="row-selected"/>
        <text x="12" y="30" class="text-dark" font-size="13" font-weight="600">example.com</text>
      </g>
    </g>

    <!-- RIGHT PANEL -->
    <g transform="translate(320, 0)">
      <rect x="0" y="0" width="1096" height="765" rx="8" class="bg-white"/>
      <rect x="0" y="0" width="1096" height="765" rx="8" class="border"/>

      <g transform="translate(20, 0)">
        <text x="0" y="28" class="text-dark" font-size="18" font-weight="600">example.com</text>
        <text x="0" y="48" class="text-muted" font-size="12">Repondeurs automatiques</text>

        <!-- NAV3 - Repondeurs actif -->
        <g transform="translate(0, 60)">
          <rect x="0" y="0" width="85" height="26" rx="4" class="btn-outline"/>
          <text x="42" y="17" class="text-primary" font-size="11" text-anchor="middle">Boites mail</text>
          <rect x="89" y="0" width="90" height="26" rx="4" class="btn-outline"/>
          <text x="134" y="17" class="text-primary" font-size="11" text-anchor="middle">Redirections</text>
          <rect x="183" y="0" width="80" height="26" rx="4" class="bg-primary"/>
          <text x="223" y="17" class="text-white" font-size="11" text-anchor="middle">Repondeurs</text>
          <rect x="267" y="0" width="50" height="26" rx="4" class="btn-outline"/>
          <text x="292" y="17" class="text-primary" font-size="11" text-anchor="middle">Listes</text>
          <rect x="321" y="0" width="65" height="26" rx="4" class="btn-outline"/>
          <text x="353" y="17" class="text-primary" font-size="11" text-anchor="middle">Securite</text>
          <rect x="390" y="0" width="55" height="26" rx="4" class="btn-outline"/>
          <text x="417" y="17" class="text-primary" font-size="11" text-anchor="middle">Avance</text>
          <rect x="449" y="0" width="65" height="26" rx="4" class="btn-outline"/>
          <text x="481" y="17" class="text-primary" font-size="11" text-anchor="middle">Licences</text>
          <rect x="518" y="0" width="55" height="26" rx="4" class="btn-outline"/>
          <text x="545" y="17" class="text-primary" font-size="11" text-anchor="middle">Taches</text>
        </g>

        <!-- Contenu Repondeurs -->
        <g transform="translate(0, 100)">
          <!-- Toolbar -->
          <rect x="0" y="0" width="140" height="32" rx="4" class="btn-primary"/>
          <text x="70" y="21" class="text-white" font-size="11" text-anchor="middle">+ Configurer repondeur</text>
          <rect x="750" y="0" width="200" height="32" rx="4" fill="#F9FAFB" stroke="#E5E7EB"/>
          <text x="765" y="21" class="text-muted" font-size="11">Filtrer...</text>

          <!-- Table Header -->
          <g transform="translate(0, 50)">
            <rect x="0" y="0" width="1036" height="36" class="table-header"/>
            <text x="20" y="23" class="text-muted" font-size="11" font-weight="600">Compte</text>
            <text x="250" y="23" class="text-muted" font-size="11" font-weight="600">Statut</text>
            <text x="350" y="23" class="text-muted" font-size="11" font-weight="600">Periode</text>
            <text x="550" y="23" class="text-muted" font-size="11" font-weight="600">Message (apercu)</text>
            <text x="900" y="23" class="text-muted" font-size="11" font-weight="600">Actions</text>
          </g>

          <!-- Rows -->
          <g transform="translate(0, 86)">
            <rect x="0" y="0" width="1036" height="50" fill="#FFFFFF"/>
            <line x1="0" y1="49" x2="1036" y2="49" stroke="#E5E7EB"/>
            <text x="20" y="30" class="text-dark" font-size="12">ceo@example.com</text>
            <rect x="250" y="14" width="46" height="18" rx="9" fill="#DEF7EC"/>
            <text x="273" y="27" fill="#03543F" font-size="10" text-anchor="middle">Actif</text>
            <text x="350" y="22" class="text-dark" font-size="11">23/12 - 02/01</text>
            <text x="350" y="38" class="text-muted" font-size="10">Vacances Noel</text>
            <text x="550" y="30" class="text-muted" font-size="11">Je suis absent du bureau jusqu'au...</text>
            <text x="900" y="30" class="text-primary" font-size="11">Modifier</text>
            <text x="960" y="30" class="text-error" font-size="11">Desactiver</text>
          </g>

          <g transform="translate(0, 136)">
            <rect x="0" y="0" width="1036" height="50" fill="#FFFFFF"/>
            <line x1="0" y1="49" x2="1036" y2="49" stroke="#E5E7EB"/>
            <text x="20" y="30" class="text-dark" font-size="12">contact@example.com</text>
            <rect x="250" y="14" width="46" height="18" rx="9" fill="#F3F4F6"/>
            <text x="273" y="27" fill="#6B7280" font-size="10" text-anchor="middle">Inactif</text>
            <text x="350" y="30" class="text-muted" font-size="11">-</text>
            <text x="550" y="30" class="text-muted" font-size="11">-</text>
            <text x="900" y="30" class="text-primary" font-size="11">Configurer</text>
          </g>

          <g transform="translate(0, 186)">
            <rect x="0" y="0" width="1036" height="50" fill="#FFFFFF"/>
            <line x1="0" y1="49" x2="1036" y2="49" stroke="#E5E7EB"/>
            <text x="20" y="30" class="text-dark" font-size="12">support@example.com</text>
            <rect x="250" y="14" width="46" height="18" rx="9" fill="#DEF7EC"/>
            <text x="273" y="27" fill="#03543F" font-size="10" text-anchor="middle">Actif</text>
            <text x="350" y="22" class="text-dark" font-size="11">Permanent</text>
            <text x="350" y="38" class="text-muted" font-size="10">Reponse auto</text>
            <text x="550" y="30" class="text-muted" font-size="11">Merci pour votre message. Notre equipe...</text>
            <text x="900" y="30" class="text-primary" font-size="11">Modifier</text>
            <text x="960" y="30" class="text-error" font-size="11">Desactiver</text>
          </g>

          <!-- Pagination -->
          <g transform="translate(0, 450)">
            <text x="0" y="16" class="text-muted" font-size="11">Affichage 1-3 sur 3</text>
          </g>
        </g>
      </g>
    </g>
  </g>
</svg>
