<svg xmlns="http://www.w3.org/2000/svg" viewBox="0 0 1440 900" width="1440" height="900">
  <defs>
    <style>
      .bg-header { fill: #000E9C; }
      .bg-main { fill: #F6F6F9; }
      .bg-white { fill: #FFFFFF; }
      .bg-primary { fill: #0050D7; }
      .bg-info { fill: #DBEAFE; }
      .border { stroke: #E5E7EB; stroke-width: 1; fill: none; }
      .divider { stroke: #E5E7EB; stroke-width: 1; }
      .btn-outline { stroke: #0050D7; stroke-width: 1; fill: #FFFFFF; }
      .row-selected { fill: #E8F0FE; }
      .text-white { fill: #FFFFFF; font-family: 'Source Sans Pro', sans-serif; }
      .text-dark { fill: #1F2937; font-family: 'Source Sans Pro', sans-serif; }
      .text-muted { fill: #6B7280; font-family: 'Source Sans Pro', sans-serif; }
      .text-primary { fill: #0050D7; font-family: 'Source Sans Pro', sans-serif; }
      .text-info { fill: #1E40AF; font-family: 'Source Sans Pro', sans-serif; }
    </style>
  </defs>

  <rect width="1440" height="900" class="bg-main"/>

  <!-- NAV1 -->
  <rect width="1440" height="50" class="bg-header"/>
  <text x="510" y="32" class="text-white" font-size="14" font-weight="600">Web Cloud</text>
  <rect x="505" y="46" width="75" height="3" fill="#FFFFFF"/>

  <!-- NAV2 -->
  <rect x="0" y="50" width="1440" height="40" class="bg-white"/>
  <line x1="0" y1="89" x2="1440" y2="89" stroke="#E5E7EB"/>
  <text x="550" y="75" class="text-primary" font-size="14" font-weight="600">Accès</text>
  <rect x="545" y="85" width="40" height="3" fill="#0050D7"/>

  <!-- CONTENT -->
  <g transform="translate(0, 105)">
    <g transform="translate(24, 0)">
      <rect x="0" y="0" width="160" height="36" rx="6" class="bg-primary"/>
      <text x="80" y="23" class="text-white" font-size="13" text-anchor="middle">🌐 Connexions  4</text>
    </g>

    <g transform="translate(24, 50)">
      <rect x="0" y="0" width="280" height="715" rx="8" class="bg-white"/>
      <rect x="0" y="0" width="280" height="715" rx="8" class="border"/>
      <g transform="translate(6, 80)">
        <rect x="0" y="0" width="268" height="90" rx="6" class="row-selected"/>
        <text x="32" y="20" class="text-dark" font-size="13" font-weight="600">VDSL Bureau Lyon</text>
        <text x="12" y="38" class="text-muted" font-size="11">VDSL2 · Accès seul</text>
      </g>
    </g>

    <g transform="translate(320, 50)">
      <rect x="0" y="0" width="1096" height="715" rx="8" class="bg-white"/>
      <rect x="0" y="0" width="1096" height="715" rx="8" class="border"/>

      <g transform="translate(20, 0)">
        <text x="0" y="28" class="text-dark" font-size="18" font-weight="600">Profil de ligne</text>

        <!-- NAV3 - Options actif -->
        <g transform="translate(0, 65)">
          <rect x="310" y="0" width="60" height="26" rx="4" class="bg-primary"/>
          <text x="340" y="17" class="text-white" font-size="11" text-anchor="middle">Options</text>
        </g>

        <!-- Bannière info -->
        <g transform="translate(0, 105)">
          <rect x="0" y="0" width="1036" height="50" rx="6" class="bg-info"/>
          <text x="20" y="30" class="text-info" font-size="12">ℹ️ Le profil de ligne définit les caractéristiques de synchronisation de votre accès xDSL.</text>
        </g>

        <!-- Profil actuel -->
        <g transform="translate(0, 175)">
          <rect x="0" y="0" width="1036" height="180" rx="6" class="bg-white" stroke="#E5E7EB"/>
          <text x="20" y="28" class="text-dark" font-size="15" font-weight="700">PROFIL ACTUEL</text>
          <line x1="20" y1="45" x2="1016" y2="45" class="divider"/>

          <g transform="translate(20, 60)">
            <text x="0" y="15" class="text-muted" font-size="11">Profil:</text>
            <text x="150" y="15" class="text-dark" font-size="12" font-weight="500">Standard (recommandé)</text>

            <text x="0" y="45" class="text-muted" font-size="11">Débit max théorique:</text>
            <text x="150" y="45" class="text-dark" font-size="11">↓ 100 Mbps  ↑ 40 Mbps</text>

            <text x="0" y="75" class="text-muted" font-size="11">Marge de bruit cible:</text>
            <text x="150" y="75" class="text-dark" font-size="11">6 dB</text>

            <text x="0" y="105" class="text-muted" font-size="11">Interleave:</text>
            <text x="150" y="105" class="text-dark" font-size="11">Automatique</text>
          </g>

          <g transform="translate(500, 60)">
            <text x="0" y="15" class="text-muted" font-size="11">Dernière modification:</text>
            <text x="150" y="15" class="text-dark" font-size="11">15/12/2025 à 14:30</text>

            <text x="0" y="45" class="text-muted" font-size="11">Modifié par:</text>
            <text x="150" y="45" class="text-dark" font-size="11">Automatique (OVH)</text>
          </g>
        </g>

        <!-- Changer profil -->
        <g transform="translate(0, 375)">
          <rect x="0" y="0" width="1036" height="220" rx="6" class="bg-white" stroke="#E5E7EB"/>
          <text x="20" y="28" class="text-dark" font-size="15" font-weight="700">CHANGER DE PROFIL</text>
          <line x1="20" y1="45" x2="1016" y2="45" class="divider"/>

          <!-- Profil 1 - sélectionné -->
          <g transform="translate(20, 60)">
            <rect x="0" y="0" width="320" height="80" rx="4" fill="#E8F0FE" stroke="#0050D7"/>
            <circle cx="25" cy="40" r="8" fill="#0050D7"/>
            <circle cx="25" cy="40" r="4" fill="#FFFFFF"/>
            <text x="45" y="25" class="text-dark" font-size="12" font-weight="500">Standard (recommandé)</text>
            <text x="45" y="45" class="text-muted" font-size="10">Équilibre débit/stabilité</text>
            <text x="45" y="60" class="text-muted" font-size="10">SNR cible: 6 dB</text>
          </g>

          <!-- Profil 2 -->
          <g transform="translate(360, 60)">
            <rect x="0" y="0" width="320" height="80" rx="4" class="bg-white" stroke="#E5E7EB"/>
            <circle cx="25" cy="40" r="8" fill="#FFFFFF" stroke="#E5E7EB"/>
            <text x="45" y="25" class="text-dark" font-size="12" font-weight="500">Performance</text>
            <text x="45" y="45" class="text-muted" font-size="10">Maximum de débit</text>
            <text x="45" y="60" class="text-muted" font-size="10">SNR cible: 3 dB (moins stable)</text>
          </g>

          <!-- Profil 3 -->
          <g transform="translate(700, 60)">
            <rect x="0" y="0" width="320" height="80" rx="4" class="bg-white" stroke="#E5E7EB"/>
            <circle cx="25" cy="40" r="8" fill="#FFFFFF" stroke="#E5E7EB"/>
            <text x="45" y="25" class="text-dark" font-size="12" font-weight="500">Stabilité</text>
            <text x="45" y="45" class="text-muted" font-size="10">Maximum de stabilité</text>
            <text x="45" y="60" class="text-muted" font-size="10">SNR cible: 9 dB (débit réduit)</text>
          </g>

          <!-- Action -->
          <g transform="translate(20, 160)">
            <rect x="0" y="0" width="180" height="36" rx="4" class="bg-primary"/>
            <text x="90" y="23" class="text-white" font-size="11" text-anchor="middle">Appliquer le profil</text>
            <text x="200" y="23" class="text-muted" font-size="10">(Resync automatique après modification)</text>
          </g>
        </g>

        <!-- Historique -->
        <g transform="translate(0, 615)">
          <rect x="0" y="0" width="1036" height="70" rx="6" class="bg-white" stroke="#E5E7EB"/>
          <text x="20" y="28" class="text-dark" font-size="15" font-weight="700">HISTORIQUE DES MODIFICATIONS</text>
          <rect x="880" y="15" width="130" height="28" rx="4" class="btn-outline"/>
          <text x="945" y="34" class="text-primary" font-size="11" text-anchor="middle">Voir historique</text>
        </g>
      </g>
    </g>
  </g>
</svg>
