<svg xmlns="http://www.w3.org/2000/svg" viewBox="0 0 1440 900" width="1440" height="900">
  <defs>
    <style>
      .bg-header { fill: #000E9C; }
      .bg-main { fill: #F6F6F9; }
      .bg-white { fill: #FFFFFF; }
      .bg-primary { fill: #0050D7; }
      .border { stroke: #E5E7EB; stroke-width: 1; fill: none; }
      .divider { stroke: #E5E7EB; stroke-width: 1; }
      .row-selected { fill: #E8F0FE; }
      .table-header { fill: #F9FAFB; }
      .text-white { fill: #FFFFFF; font-family: 'Source Sans Pro', sans-serif; }
      .text-dark { fill: #1F2937; font-family: 'Source Sans Pro', sans-serif; }
      .text-muted { fill: #6B7280; font-family: 'Source Sans Pro', sans-serif; }
      .text-primary { fill: #0050D7; font-family: 'Source Sans Pro', sans-serif; }
      .text-error { fill: #DC2626; font-family: 'Source Sans Pro', sans-serif; }
    </style>
  </defs>

  <rect width="1440" height="900" class="bg-main"/>

  <!-- NAV1 -->
  <rect width="1440" height="50" class="bg-header"/>
  <text x="510" y="32" class="text-white" font-size="14" font-weight="600">Web Cloud</text>
  <rect x="505" y="46" width="75" height="3" fill="#FFFFFF"/>

  <!-- NAV2 -->
  <rect x="0" y="50" width="1440" height="40" class="bg-white"/>
  <text x="550" y="75" class="text-primary" font-size="14" font-weight="600">Accès</text>
  <rect x="545" y="85" width="40" height="3" fill="#0050D7"/>

  <g transform="translate(0, 105)">
    <g transform="translate(24, 0)">
      <rect x="0" y="0" width="160" height="36" rx="6" class="bg-primary"/>
      <text x="80" y="23" class="text-white" font-size="13" text-anchor="middle">🌐 Connexions  4</text>
      <rect x="168" y="0" width="160" height="36" rx="6" fill="#F3F4F6" stroke="#E5E7EB"/>
      <text x="248" y="23" fill="#6B7280" font-size="13" text-anchor="middle">📦 OverTheBox  1</text>
    </g>

    <g transform="translate(24, 50)">
      <rect x="0" y="0" width="280" height="715" rx="8" class="bg-white"/>
      <rect x="0" y="0" width="280" height="715" rx="8" class="border"/>
      <g transform="translate(6, 80)">
        <rect x="0" y="0" width="268" height="90" rx="6" class="row-selected"/>
        <text x="32" y="20" class="text-dark" font-size="13" font-weight="600">ADSL Pro Paris</text>
      </g>
    </g>

    <g transform="translate(320, 50)">
      <rect x="0" y="0" width="1096" height="715" rx="8" class="bg-white"/>
      <rect x="0" y="0" width="1096" height="715" rx="8" class="border"/>

      <g transform="translate(20, 0)">
        <text x="0" y="28" class="text-dark" font-size="18" font-weight="600">Templates de modem</text>

        <!-- NAV3 - Modem actif -->
        <g transform="translate(0, 65)">
          <rect x="128" y="0" width="55" height="26" rx="4" class="bg-primary"/>
          <text x="155" y="17" class="text-white" font-size="11" text-anchor="middle">Modem</text>
        </g>

        <!-- Templates Table -->
        <g transform="translate(0, 100)">
          <rect x="0" y="0" width="1000" height="40" class="table-header"/>
          <text x="20" y="26" class="text-muted" font-size="11" font-weight="600">Nom du template</text>
          <text x="400" y="26" class="text-muted" font-size="11" font-weight="600">Date de création</text>
          <text x="700" y="26" class="text-muted" font-size="11" font-weight="600">Actions</text>

          <!-- Row 1 -->
          <rect x="0" y="40" width="1000" height="45" class="bg-white"/>
          <line x1="0" y1="85" x2="1000" y2="85" class="divider"/>
          <text x="20" y="68" class="text-primary" font-size="12">template-bureau</text>
          <text x="400" y="68" class="text-dark" font-size="11">15/03/2024 14:32:00</text>
          <text x="700" y="68" class="text-primary" font-size="11">✎ Modifier</text>
          <text x="780" y="68" class="text-error" font-size="11">× Supprimer</text>

          <!-- Row 2 -->
          <rect x="0" y="85" width="1000" height="45" class="table-header"/>
          <line x1="0" y1="130" x2="1000" y2="130" class="divider"/>
          <text x="20" y="113" class="text-dark" font-size="12">template-maison</text>
          <text x="400" y="113" class="text-dark" font-size="11">10/02/2024 09:15:00</text>
          <text x="700" y="113" class="text-primary" font-size="11">✎ Modifier</text>
          <text x="780" y="113" class="text-error" font-size="11">× Supprimer</text>
        </g>

        <!-- Template Detail -->
        <g transform="translate(0, 250)">
          <line x1="0" y1="0" x2="1000" y2="0" stroke="#E5E7EB" stroke-width="2"/>
          <text x="0" y="30" class="text-dark" font-size="15" font-weight="600">Détail de la configuration du template "template-bureau"</text>

          <!-- DHCP Section -->
          <g transform="translate(0, 50)">
            <text x="0" y="15" class="text-dark" font-size="13" font-weight="600">DHCP</text>
            <rect x="0" y="30" width="1000" height="35" class="table-header"/>
            <text x="20" y="52" class="text-muted" font-size="10" font-weight="500">Serveur</text>
            <text x="120" y="52" class="text-muted" font-size="10" font-weight="500">Passerelle</text>
            <text x="240" y="52" class="text-muted" font-size="10" font-weight="500">DNS primaire</text>
            <text x="380" y="52" class="text-muted" font-size="10" font-weight="500">DNS secondaire</text>
            <text x="520" y="52" class="text-muted" font-size="10" font-weight="500">Plage</text>

            <rect x="0" y="65" width="1000" height="30" class="bg-white"/>
            <text x="20" y="85" class="text-dark" font-size="10">lan</text>
            <text x="120" y="85" class="text-dark" font-size="10">192.168.1.1</text>
            <text x="240" y="85" class="text-dark" font-size="10">213.186.33.99</text>
            <text x="380" y="85" class="text-dark" font-size="10">8.8.8.8</text>
            <text x="520" y="85" class="text-dark" font-size="10">192.168.1.64 - .253</text>
          </g>

          <!-- WiFi Section -->
          <g transform="translate(0, 155)">
            <text x="0" y="15" class="text-dark" font-size="13" font-weight="600">WiFi</text>
            <rect x="0" y="30" width="1000" height="35" class="table-header"/>
            <text x="20" y="52" class="text-muted" font-size="10" font-weight="500">Nom du WiFi</text>
            <text x="180" y="52" class="text-muted" font-size="10" font-weight="500">Sécurité</text>
            <text x="300" y="52" class="text-muted" font-size="10" font-weight="500">Canal</text>
            <text x="400" y="52" class="text-muted" font-size="10" font-weight="500">Fréquence</text>

            <rect x="0" y="65" width="1000" height="30" class="bg-white"/>
            <text x="20" y="85" class="text-dark" font-size="10">MonWifi-5GHz</text>
            <text x="180" y="85" class="text-dark" font-size="10">WPA3</text>
            <text x="300" y="85" class="text-dark" font-size="10">Auto</text>
            <text x="400" y="85" class="text-dark" font-size="10">5 GHz</text>
          </g>
        </g>
      </g>
    </g>
  </g>
</svg>
