<svg xmlns="http://www.w3.org/2000/svg" viewBox="0 0 1440 900" width="1440" height="900">
  <defs>
    <style>
      .bg-header { fill: #000E9C; }
      .bg-main { fill: #F6F6F9; }
      .bg-white { fill: #FFFFFF; }
      .bg-primary { fill: #0050D7; }
      .border { stroke: #E5E7EB; stroke-width: 1; fill: none; }
      .divider { stroke: #E5E7EB; stroke-width: 1; }
      .btn-outline { stroke: #0050D7; stroke-width: 1; fill: #FFFFFF; }
      .row-selected { fill: #E8F0FE; }
      .text-white { fill: #FFFFFF; font-family: 'Source Sans Pro', sans-serif; }
      .text-dark { fill: #1F2937; font-family: 'Source Sans Pro', sans-serif; }
      .text-muted { fill: #6B7280; font-family: 'Source Sans Pro', sans-serif; }
      .text-primary { fill: #0050D7; font-family: 'Source Sans Pro', sans-serif; }
    </style>
  </defs>

  <rect width="1440" height="900" class="bg-main"/>

  <!-- NAV1 -->
  <rect width="1440" height="50" class="bg-header"/>
  <text x="40" y="32" class="text-white" font-size="14" opacity="0.7">Accueil</text>
  <text x="510" y="32" class="text-white" font-size="14" font-weight="600">Web Cloud</text>
  <rect x="505" y="46" width="75" height="3" fill="#FFFFFF"/>
  <rect x="1280" y="12" width="140" height="26" rx="13" fill="rgba(255,255,255,0.2)"/>
  <text x="1320" y="29" class="text-white" font-size="12">ab12345-ovh</text>

  <!-- NAV2 -->
  <rect x="0" y="50" width="1440" height="40" class="bg-white"/>
  <line x1="0" y1="89" x2="1440" y2="89" stroke="#E5E7EB"/>
  <text x="550" y="75" class="text-primary" font-size="14" font-weight="600">Accès</text>
  <rect x="545" y="85" width="40" height="3" fill="#0050D7"/>

  <!-- CONTENT -->
  <g transform="translate(0, 105)">
    <g transform="translate(24, 0)">
      <rect x="0" y="0" width="160" height="36" rx="6" class="bg-primary"/>
      <text x="80" y="23" class="text-white" font-size="13" text-anchor="middle">🌐 Connexions  4</text>
    </g>

    <g transform="translate(24, 50)">
      <!-- LEFT PANEL -->
      <rect x="0" y="0" width="280" height="715" rx="8" class="bg-white"/>
      <rect x="0" y="0" width="280" height="715" rx="8" class="border"/>
      <rect x="12" y="12" width="256" height="34" rx="4" fill="#F9FAFB" stroke="#E5E7EB"/>
      <text x="26" y="34" class="text-muted" font-size="12">🔍 Rechercher...</text>

      <g transform="translate(6, 80)">
        <rect x="0" y="0" width="268" height="90" rx="6" class="row-selected"/>
        <text x="32" y="20" class="text-dark" font-size="13" font-weight="600">Fibre Pro Paris</text>
        <text x="12" y="38" class="text-muted" font-size="11">FTTH · Pack Pro</text>
      </g>
    </g>

    <g transform="translate(320, 50)">
      <!-- RIGHT PANEL -->
      <rect x="0" y="0" width="1096" height="715" rx="8" class="bg-white"/>
      <rect x="0" y="0" width="1096" height="715" rx="8" class="border"/>

      <g transform="translate(20, 0)">
        <text x="0" y="28" class="text-dark" font-size="18" font-weight="600">Fibre Pro Paris</text>

        <!-- NAV3 - Ligne actif -->
        <g transform="translate(0, 65)">
          <rect x="0" y="0" width="65" height="26" rx="4" class="btn-outline"/>
          <text x="32" y="17" class="text-primary" font-size="11" text-anchor="middle">Général</text>
          <rect x="69" y="0" width="55" height="26" rx="4" class="bg-primary"/>
          <text x="96" y="17" class="text-white" font-size="11" text-anchor="middle">Ligne</text>
        </g>

        <!-- NAV4 - Statistiques actif -->
        <g transform="translate(0, 100)">
          <text x="0" y="14" class="text-muted" font-size="12">Statut</text>
          <text x="60" y="14" class="text-muted" font-size="12">Diagnostic</text>
          <text x="140" y="14" class="text-primary" font-size="12" font-weight="500">Statistiques</text>
          <rect x="140" y="18" width="75" height="2" fill="#0050D7"/>
          <text x="230" y="14" class="text-muted" font-size="12">Alertes</text>
        </g>

        <!-- Toolbar -->
        <g transform="translate(0, 135)">
          <text x="0" y="18" class="text-muted" font-size="11">Période:</text>
          <rect x="60" y="0" width="140" height="30" rx="4" fill="#F9FAFB" stroke="#E5E7EB"/>
          <text x="80" y="20" class="text-dark" font-size="11">Dernières 24h</text>
          <text x="175" y="20" class="text-muted" font-size="10">▼</text>

          <rect x="920" y="0" width="100" height="30" rx="4" class="btn-outline"/>
          <text x="970" y="20" class="text-primary" font-size="11" text-anchor="middle">📤 Exporter</text>
        </g>

        <!-- Graphique Synchronisation -->
        <g transform="translate(0, 180)">
          <rect x="0" y="0" width="1036" height="180" rx="6" class="bg-white" stroke="#E5E7EB"/>
          <text x="20" y="28" class="text-dark" font-size="13" font-weight="600">SYNCHRONISATION</text>
          <line x1="20" y1="40" x2="1016" y2="40" class="divider"/>

          <!-- Graphique placeholder -->
          <rect x="20" y="50" width="996" height="110" rx="4" fill="#F9FAFB"/>
          <polyline points="40,130 150,120 260,125 370,100 480,115 590,90 700,105 810,80 920,95 990,85"
                    fill="none" stroke="#0050D7" stroke-width="2"/>
          <polyline points="40,145 150,140 260,138 370,130 480,135 590,125 700,128 810,118 920,122 990,115"
                    fill="none" stroke="#10B981" stroke-width="2"/>

          <!-- Légende -->
          <g transform="translate(850, 55)">
            <rect x="0" y="0" width="12" height="12" fill="#0050D7"/>
            <text x="20" y="10" class="text-muted" font-size="10">Download</text>
            <rect x="0" y="18" width="12" height="12" fill="#10B981"/>
            <text x="20" y="28" class="text-muted" font-size="10">Upload</text>
          </g>
        </g>

        <!-- Graphique Trafic -->
        <g transform="translate(0, 375)">
          <rect x="0" y="0" width="1036" height="180" rx="6" class="bg-white" stroke="#E5E7EB"/>
          <text x="20" y="28" class="text-dark" font-size="13" font-weight="600">TRAFIC</text>
          <line x1="20" y1="40" x2="1016" y2="40" class="divider"/>

          <rect x="20" y="50" width="996" height="110" rx="4" fill="#F9FAFB"/>
          <!-- Barres -->
          <g transform="translate(80, 140)">
            <rect x="0" y="-70" width="40" height="70" fill="#0050D7" opacity="0.8"/>
            <rect x="50" y="-25" width="40" height="25" fill="#10B981" opacity="0.8"/>
            <text x="45" y="15" text-anchor="middle" class="text-muted" font-size="9">Lun</text>
          </g>
          <g transform="translate(200, 140)">
            <rect x="0" y="-85" width="40" height="85" fill="#0050D7" opacity="0.8"/>
            <rect x="50" y="-35" width="40" height="35" fill="#10B981" opacity="0.8"/>
            <text x="45" y="15" text-anchor="middle" class="text-muted" font-size="9">Mar</text>
          </g>
          <g transform="translate(320, 140)">
            <rect x="0" y="-75" width="40" height="75" fill="#0050D7" opacity="0.8"/>
            <rect x="50" y="-30" width="40" height="30" fill="#10B981" opacity="0.8"/>
            <text x="45" y="15" text-anchor="middle" class="text-muted" font-size="9">Mer</text>
          </g>
        </g>

        <!-- Graphique Latence -->
        <g transform="translate(0, 570)">
          <rect x="0" y="0" width="500" height="120" rx="6" class="bg-white" stroke="#E5E7EB"/>
          <text x="20" y="28" class="text-dark" font-size="13" font-weight="600">LATENCE (PING)</text>
          <line x1="20" y1="40" x2="480" y2="40" class="divider"/>
          <rect x="20" y="50" width="460" height="55" rx="4" fill="#F9FAFB"/>
          <polyline points="40,85 120,80 200,83 280,78 360,82 440,77"
                    fill="none" stroke="#F59E0B" stroke-width="2"/>
          <text x="380" y="65" class="text-muted" font-size="10">~15ms</text>

          <!-- Erreurs -->
          <rect x="520" y="0" width="516" height="120" rx="6" class="bg-white" stroke="#E5E7EB"/>
          <text x="540" y="28" class="text-dark" font-size="13" font-weight="600">ERREURS (HEC/FEC/CRC)</text>
          <line x1="540" y1="40" x2="1016" y2="40" class="divider"/>
          <rect x="540" y="50" width="476" height="55" rx="4" fill="#F9FAFB"/>
          <text x="778" y="85" text-anchor="middle" class="text-muted" font-size="11">Aucune erreur détectée</text>
        </g>
      </g>
    </g>
  </g>
</svg>
