<svg xmlns="http://www.w3.org/2000/svg" viewBox="0 0 1440 900" width="1440" height="900">
  <defs>
    <style>
      .bg-header { fill: #000E9C; }
      .bg-main { fill: #F6F6F9; }
      .bg-white { fill: #FFFFFF; }
      .bg-primary { fill: #0050D7; }
      .bg-warning { fill: #FEF3C7; }
      .border { stroke: #E5E7EB; stroke-width: 1; fill: none; }
      .divider { stroke: #E5E7EB; stroke-width: 1; }
      .btn-outline { stroke: #0050D7; stroke-width: 1; fill: #FFFFFF; }
      .row-selected { fill: #E8F0FE; }
      .text-white { fill: #FFFFFF; font-family: 'Source Sans Pro', sans-serif; }
      .text-dark { fill: #1F2937; font-family: 'Source Sans Pro', sans-serif; }
      .text-muted { fill: #6B7280; font-family: 'Source Sans Pro', sans-serif; }
      .text-primary { fill: #0050D7; font-family: 'Source Sans Pro', sans-serif; }
      .text-warning { fill: #D97706; font-family: 'Source Sans Pro', sans-serif; }
    </style>
  </defs>

  <rect width="1440" height="900" class="bg-main"/>

  <!-- NAV1 -->
  <rect width="1440" height="50" class="bg-header"/>
  <text x="510" y="32" class="text-white" font-size="14" font-weight="600">Web Cloud</text>
  <rect x="505" y="46" width="75" height="3" fill="#FFFFFF"/>

  <!-- NAV2 -->
  <rect x="0" y="50" width="1440" height="40" class="bg-white"/>
  <text x="550" y="75" class="text-primary" font-size="14" font-weight="600">Accès</text>
  <rect x="545" y="85" width="40" height="3" fill="#0050D7"/>

  <g transform="translate(0, 105)">
    <g transform="translate(24, 0)">
      <rect x="0" y="0" width="160" height="36" rx="6" class="bg-primary"/>
      <text x="80" y="23" class="text-white" font-size="13" text-anchor="middle">🌐 Connexions  4</text>
    </g>

    <g transform="translate(24, 50)">
      <rect x="0" y="0" width="280" height="715" rx="8" class="bg-white"/>
      <rect x="0" y="0" width="280" height="715" rx="8" class="border"/>
      <g transform="translate(6, 80)">
        <rect x="0" y="0" width="268" height="90" rx="6" class="row-selected"/>
        <text x="32" y="20" class="text-dark" font-size="13" font-weight="600">Fibre Pro Paris</text>
      </g>
    </g>

    <g transform="translate(320, 50)">
      <rect x="0" y="0" width="1096" height="715" rx="8" class="bg-white"/>
      <rect x="0" y="0" width="1096" height="715" rx="8" class="border"/>

      <g transform="translate(20, 0)">
        <text x="0" y="28" class="text-dark" font-size="18" font-weight="600">Échange de confort du modem</text>

        <!-- NAV3 - Options actif -->
        <g transform="translate(0, 65)">
          <rect x="310" y="0" width="60" height="26" rx="4" class="bg-primary"/>
          <text x="340" y="17" class="text-white" font-size="11" text-anchor="middle">Options</text>
        </g>

        <!-- Warning -->
        <g transform="translate(0, 105)">
          <rect x="0" y="0" width="880" height="60" rx="4" class="bg-warning"/>
          <text x="20" y="22" class="text-warning" font-size="11">⚠️ Attention : L'échange de confort du modem entraîne des frais.</text>
          <text x="20" y="42" class="text-warning" font-size="11">Votre ancien modem devra être retourné sous 15 jours.</text>
        </g>

        <!-- Contact de livraison -->
        <g transform="translate(0, 185)">
          <rect x="0" y="0" width="500" height="250" rx="6" class="bg-white" stroke="#E5E7EB"/>
          <text x="20" y="28" class="text-dark" font-size="15" font-weight="700">CONTACT DE LIVRAISON</text>
          <line x1="20" y1="45" x2="480" y2="45" class="divider"/>

          <g transform="translate(20, 60)">
            <text x="0" y="15" class="text-muted" font-size="11">Nom</text>
            <text x="0" y="35" class="text-dark" font-size="12" font-weight="500">Jean Dupont</text>

            <text x="0" y="65" class="text-muted" font-size="11">Adresse</text>
            <text x="0" y="85" class="text-dark" font-size="12">12 rue de Paris</text>
            <text x="0" y="102" class="text-dark" font-size="12">75001 Paris, France</text>

            <text x="0" y="132" class="text-muted" font-size="11">Téléphone</text>
            <text x="0" y="152" class="text-dark" font-size="12">+33 1 23 45 67 89</text>

            <text x="350" y="170" class="text-primary" font-size="11" text-decoration="underline">Modifier le contact</text>
          </g>
        </g>

        <!-- Confirmation -->
        <g transform="translate(0, 455)">
          <rect x="0" y="0" width="500" height="140" rx="6" class="bg-white" stroke="#E5E7EB"/>
          <text x="20" y="28" class="text-dark" font-size="15" font-weight="700">CONFIRMER L'ÉCHANGE</text>
          <line x1="20" y1="45" x2="480" y2="45" class="divider"/>

          <g transform="translate(20, 60)">
            <text x="0" y="15" class="text-muted" font-size="11">En cliquant sur le bouton ci-dessous, vous confirmez</text>
            <text x="0" y="32" class="text-muted" font-size="11">votre demande d'échange de modem.</text>

            <rect x="0" y="50" width="160" height="40" rx="4" class="bg-primary"/>
            <text x="80" y="75" class="text-white" font-size="12" text-anchor="middle">Échanger le modem</text>
          </g>
        </g>

        <!-- Informations tarif -->
        <g transform="translate(520, 185)">
          <rect x="0" y="0" width="496" height="250" rx="6" class="bg-white" stroke="#E5E7EB"/>
          <text x="20" y="28" class="text-dark" font-size="15" font-weight="700">INFORMATIONS TARIFAIRES</text>
          <line x1="20" y1="45" x2="476" y2="45" class="divider"/>

          <g transform="translate(20, 60)">
            <text x="0" y="15" class="text-muted" font-size="11">Frais d'échange</text>
            <text x="200" y="15" class="text-dark" font-size="12" font-weight="600">49,99 € HT</text>

            <text x="0" y="45" class="text-muted" font-size="11">Livraison</text>
            <text x="200" y="45" class="text-dark" font-size="12">Gratuite</text>

            <text x="0" y="75" class="text-muted" font-size="11">Délai de livraison</text>
            <text x="200" y="75" class="text-dark" font-size="12">3-5 jours ouvrés</text>

            <text x="0" y="105" class="text-muted" font-size="11">Retour ancien modem</text>
            <text x="200" y="105" class="text-dark" font-size="12">Obligatoire sous 15 jours</text>

            <rect x="0" y="130" width="456" height="50" rx="4" fill="#F9FAFB"/>
            <text x="15" y="150" class="text-muted" font-size="10">ℹ Un bon de retour prépayé sera inclus dans le colis</text>
            <text x="15" y="168" class="text-muted" font-size="10">pour renvoyer votre ancien modem.</text>
          </g>
        </g>
      </g>
    </g>
  </g>
</svg>
