<svg xmlns="http://www.w3.org/2000/svg" viewBox="0 0 1440 900" width="1440" height="900">
  <defs>
    <style>
      .bg-header { fill: #000E9C; }
      .bg-main { fill: #F6F6F9; }
      .bg-white { fill: #FFFFFF; }
      .bg-primary { fill: #0050D7; }
      .bg-success { fill: #10B981; }
      .border { stroke: #E5E7EB; stroke-width: 1; fill: none; }
      .divider { stroke: #E5E7EB; stroke-width: 1; }
      .row-selected { fill: #E8F0FE; }
      .table-header { fill: #F9FAFB; }
      .text-white { fill: #FFFFFF; font-family: 'Source Sans Pro', sans-serif; }
      .text-dark { fill: #1F2937; font-family: 'Source Sans Pro', sans-serif; }
      .text-muted { fill: #6B7280; font-family: 'Source Sans Pro', sans-serif; }
      .text-primary { fill: #0050D7; font-family: 'Source Sans Pro', sans-serif; }
    </style>
  </defs>

  <rect width="1440" height="900" class="bg-main"/>

  <!-- NAV1 -->
  <rect width="1440" height="50" class="bg-header"/>
  <text x="510" y="32" class="text-white" font-size="14" font-weight="600">Web Cloud</text>
  <rect x="505" y="46" width="75" height="3" fill="#FFFFFF"/>

  <!-- NAV2 -->
  <rect x="0" y="50" width="1440" height="40" class="bg-white"/>
  <text x="550" y="75" class="text-primary" font-size="14" font-weight="600">Accès</text>
  <rect x="545" y="85" width="40" height="3" fill="#0050D7"/>

  <g transform="translate(0, 105)">
    <g transform="translate(24, 0)">
      <rect x="0" y="0" width="160" height="36" rx="6" class="bg-primary"/>
      <text x="80" y="23" class="text-white" font-size="13" text-anchor="middle">🌐 Connexions  4</text>
    </g>

    <g transform="translate(24, 50)">
      <rect x="0" y="0" width="280" height="715" rx="8" class="bg-white"/>
      <rect x="0" y="0" width="280" height="715" rx="8" class="border"/>
      <g transform="translate(6, 80)">
        <rect x="0" y="0" width="268" height="90" rx="6" class="row-selected"/>
        <text x="32" y="20" class="text-dark" font-size="13" font-weight="600">ADSL Pro Paris</text>
      </g>
    </g>

    <g transform="translate(320, 50)">
      <rect x="0" y="0" width="1096" height="715" rx="8" class="bg-white"/>
      <rect x="0" y="0" width="1096" height="715" rx="8" class="border"/>

      <g transform="translate(20, 0)">
        <text x="0" y="28" class="text-dark" font-size="18" font-weight="600">Configuration réseau</text>

        <!-- NAV3 - Modem actif -->
        <g transform="translate(0, 65)">
          <rect x="128" y="0" width="55" height="26" rx="4" class="bg-primary"/>
          <text x="155" y="17" class="text-white" font-size="11" text-anchor="middle">Modem</text>
        </g>

        <!-- LAN Section -->
        <g transform="translate(0, 110)">
          <rect x="0" y="0" width="1000" height="110" rx="6" class="table-header" stroke="#E5E7EB"/>
          <text x="20" y="28" class="text-dark" font-size="13" font-weight="600">LAN</text>

          <g transform="translate(20, 45)">
            <text x="0" y="0" class="text-muted" font-size="10">Adresse IP</text>
            <rect x="0" y="10" width="180" height="34" rx="4" fill="#FFFFFF" stroke="#E5E7EB"/>
            <text x="12" y="32" class="text-dark" font-size="11">192.168.1.1</text>

            <text x="200" y="0" class="text-muted" font-size="10">Masque de sous-réseau</text>
            <rect x="200" y="10" width="180" height="34" rx="4" fill="#FFFFFF" stroke="#E5E7EB"/>
            <text x="212" y="32" class="text-dark" font-size="11">255.255.255.0</text>
          </g>
        </g>

        <!-- DHCP Section -->
        <g transform="translate(0, 235)">
          <rect x="0" y="0" width="1000" height="180" rx="6" class="table-header" stroke="#E5E7EB"/>
          <text x="20" y="28" class="text-dark" font-size="13" font-weight="600">DHCP</text>

          <!-- Toggle -->
          <rect x="80" y="15" width="40" height="20" rx="10" class="bg-success"/>
          <circle cx="110" cy="25" r="8" fill="#FFFFFF"/>
          <text x="130" y="28" class="text-dark" font-size="11">Serveur DHCP activé</text>

          <g transform="translate(20, 50)">
            <text x="0" y="0" class="text-muted" font-size="10">Passerelle</text>
            <rect x="0" y="10" width="150" height="32" rx="4" fill="#FFFFFF" stroke="#E5E7EB"/>
            <text x="12" y="30" class="text-dark" font-size="11">192.168.1.1</text>

            <text x="170" y="0" class="text-muted" font-size="10">DNS Primaire</text>
            <rect x="170" y="10" width="150" height="32" rx="4" fill="#FFFFFF" stroke="#E5E7EB"/>
            <text x="182" y="30" class="text-dark" font-size="11">213.186.33.99</text>

            <text x="340" y="0" class="text-muted" font-size="10">DNS Secondaire</text>
            <rect x="340" y="10" width="150" height="32" rx="4" fill="#FFFFFF" stroke="#E5E7EB"/>
            <text x="352" y="30" class="text-dark" font-size="11">8.8.8.8</text>
          </g>

          <g transform="translate(20, 105)">
            <text x="0" y="0" class="text-muted" font-size="10">Plage DHCP</text>
            <rect x="0" y="10" width="150" height="32" rx="4" fill="#FFFFFF" stroke="#E5E7EB"/>
            <text x="12" y="30" class="text-dark" font-size="11">192.168.1.64</text>
            <text x="160" y="30" class="text-muted" font-size="11">à</text>
            <rect x="175" y="10" width="150" height="32" rx="4" fill="#FFFFFF" stroke="#E5E7EB"/>
            <text x="187" y="30" class="text-dark" font-size="11">192.168.1.253</text>
          </g>
        </g>

        <!-- Ports Section -->
        <g transform="translate(0, 430)">
          <rect x="0" y="0" width="1000" height="110" rx="6" class="table-header" stroke="#E5E7EB"/>
          <text x="20" y="28" class="text-dark" font-size="13" font-weight="600">Redirections de ports</text>

          <text x="20" y="55" class="text-muted" font-size="11">Aucune redirection configurée</text>

          <rect x="20" y="70" width="180" height="34" rx="4" class="bg-primary"/>
          <text x="110" y="92" class="text-white" font-size="11" text-anchor="middle">+ Ajouter une redirection</text>
        </g>
      </g>
    </g>
  </g>
</svg>
