<svg xmlns="http://www.w3.org/2000/svg" viewBox="0 0 1440 900" width="1440" height="900">
  <defs>
    <style>
      .bg-header { fill: #000E9C; }
      .bg-main { fill: #F6F6F9; }
      .bg-white { fill: #FFFFFF; }
      .bg-primary { fill: #0050D7; }
      .bg-success { fill: #DEF7EC; }
      .bg-info { fill: #DBEAFE; }
      .border { stroke: #E5E7EB; stroke-width: 1; fill: none; }
      .divider { stroke: #E5E7EB; stroke-width: 1; }
      .btn-outline { stroke: #0050D7; stroke-width: 1; fill: #FFFFFF; }
      .row-selected { fill: #E8F0FE; }
      .table-header { fill: #F9FAFB; }
      .text-white { fill: #FFFFFF; font-family: 'Source Sans Pro', sans-serif; }
      .text-dark { fill: #1F2937; font-family: 'Source Sans Pro', sans-serif; }
      .text-muted { fill: #6B7280; font-family: 'Source Sans Pro', sans-serif; }
      .text-primary { fill: #0050D7; font-family: 'Source Sans Pro', sans-serif; }
      .text-error { fill: #DC2626; font-family: 'Source Sans Pro', sans-serif; }
      .text-success { fill: #059669; font-family: 'Source Sans Pro', sans-serif; }
    </style>
  </defs>

  <rect width="1440" height="900" class="bg-main"/>

  <!-- NAV1 -->
  <rect width="1440" height="50" class="bg-header"/>
  <text x="510" y="32" class="text-white" font-size="14" font-weight="600">Web Cloud</text>
  <rect x="505" y="46" width="75" height="3" fill="#FFFFFF"/>

  <!-- NAV2 -->
  <rect x="0" y="50" width="1440" height="40" class="bg-white"/>
  <text x="550" y="75" class="text-primary" font-size="14" font-weight="600">Accès</text>
  <rect x="545" y="85" width="40" height="3" fill="#0050D7"/>

  <g transform="translate(0, 105)">
    <g transform="translate(24, 0)">
      <rect x="0" y="0" width="160" height="36" rx="6" class="bg-primary"/>
      <text x="80" y="23" class="text-white" font-size="13" text-anchor="middle">🌐 Connexions  4</text>
      <rect x="168" y="0" width="160" height="36" rx="6" fill="#F3F4F6" stroke="#E5E7EB"/>
      <text x="248" y="23" fill="#6B7280" font-size="13" text-anchor="middle">📦 OverTheBox  1</text>
    </g>

    <g transform="translate(24, 50)">
      <rect x="0" y="0" width="280" height="715" rx="8" class="bg-white"/>
      <rect x="0" y="0" width="280" height="715" rx="8" class="border"/>
      <g transform="translate(6, 80)">
        <rect x="0" y="0" width="268" height="90" rx="6" class="row-selected"/>
        <text x="32" y="20" class="text-dark" font-size="13" font-weight="600">Fibre Pro Paris</text>
      </g>
    </g>

    <g transform="translate(320, 50)">
      <rect x="0" y="0" width="1096" height="715" rx="8" class="bg-white"/>
      <rect x="0" y="0" width="1096" height="715" rx="8" class="border"/>

      <g transform="translate(20, 0)">
        <text x="0" y="28" class="text-dark" font-size="18" font-weight="600">Templates de configuration</text>

        <!-- NAV3 - Modem actif -->
        <g transform="translate(0, 65)">
          <rect x="128" y="0" width="55" height="26" rx="4" class="bg-primary"/>
          <text x="155" y="17" class="text-white" font-size="11" text-anchor="middle">Modem</text>
        </g>

        <!-- Success message -->
        <g transform="translate(0, 105)">
          <rect x="0" y="0" width="500" height="35" rx="4" class="bg-success" stroke="#10B981"/>
          <text x="15" y="22" class="text-success" font-size="11">✓ Template "Config-Bureau" créé avec succès.</text>
        </g>

        <!-- Créer template -->
        <g transform="translate(0, 160)">
          <rect x="0" y="0" width="500" height="150" rx="6" class="bg-white" stroke="#E5E7EB"/>
          <text x="20" y="28" class="text-dark" font-size="15" font-weight="700">CRÉER UN TEMPLATE</text>
          <text x="20" y="48" class="text-muted" font-size="11">Sauvegardez la configuration actuelle du modem</text>
          <line x1="20" y1="60" x2="480" y2="60" class="divider"/>

          <g transform="translate(20, 75)">
            <rect x="0" y="0" width="280" height="40" rx="4" fill="#F9FAFB" stroke="#E5E7EB"/>
            <text x="15" y="26" class="text-muted" font-size="11">Nom du template...</text>

            <rect x="300" y="0" width="140" height="40" rx="4" class="bg-primary"/>
            <text x="370" y="26" class="text-white" font-size="11" text-anchor="middle">Créer le template</text>
          </g>
        </g>

        <!-- Appliquer template -->
        <g transform="translate(0, 330)">
          <rect x="0" y="0" width="500" height="150" rx="6" class="bg-white" stroke="#E5E7EB"/>
          <text x="20" y="28" class="text-dark" font-size="15" font-weight="700">APPLIQUER UN TEMPLATE</text>
          <text x="20" y="48" class="text-muted" font-size="11">Restaurez une configuration sauvegardée</text>
          <line x1="20" y1="60" x2="480" y2="60" class="divider"/>

          <g transform="translate(20, 75)">
            <rect x="0" y="0" width="280" height="40" rx="4" fill="#F9FAFB" stroke="#E5E7EB"/>
            <text x="15" y="26" class="text-dark" font-size="11">Config-Bureau</text>
            <text x="250" y="26" class="text-muted" font-size="11">▼</text>

            <rect x="300" y="0" width="140" height="40" rx="4" fill="#E5E7EB"/>
            <text x="370" y="26" class="text-muted" font-size="11" text-anchor="middle">Appliquer</text>
          </g>
        </g>

        <!-- Liste templates -->
        <g transform="translate(520, 160)">
          <rect x="0" y="0" width="496" height="320" rx="6" class="bg-white" stroke="#E5E7EB"/>
          <text x="20" y="28" class="text-dark" font-size="15" font-weight="700">MES TEMPLATES</text>
          <line x1="20" y1="45" x2="476" y2="45" class="divider"/>

          <!-- Table header -->
          <rect x="20" y="55" width="456" height="30" rx="4" class="table-header"/>
          <text x="35" y="75" class="text-dark" font-size="10" font-weight="600">Nom</text>
          <text x="220" y="75" class="text-dark" font-size="10" font-weight="600">Date création</text>
          <text x="380" y="75" class="text-dark" font-size="10" font-weight="600">Actions</text>

          <!-- Template 1 -->
          <g transform="translate(20, 90)">
            <text x="15" y="18" class="text-dark" font-size="11">Config-Bureau</text>
            <text x="200" y="18" class="text-muted" font-size="11">25/12/2025</text>
            <text x="360" y="18" class="text-error" font-size="11">🗑</text>
          </g>

          <!-- Template 2 -->
          <g transform="translate(20, 120)">
            <text x="15" y="18" class="text-dark" font-size="11">Config-Maison</text>
            <text x="200" y="18" class="text-muted" font-size="11">20/12/2025</text>
            <text x="360" y="18" class="text-error" font-size="11">🗑</text>
          </g>

          <!-- Template 3 -->
          <g transform="translate(20, 150)">
            <text x="15" y="18" class="text-dark" font-size="11">Backup-Initial</text>
            <text x="200" y="18" class="text-muted" font-size="11">15/11/2025</text>
            <text x="360" y="18" class="text-error" font-size="11">🗑</text>
          </g>

          <!-- Info -->
          <g transform="translate(20, 200)">
            <rect x="0" y="0" width="456" height="50" rx="4" class="bg-info"/>
            <text x="15" y="18" fill="#1E40AF" font-size="10">ℹ Les templates sauvegardent : WiFi, DHCP, LAN, ports,</text>
            <text x="15" y="35" fill="#1E40AF" font-size="10">DMZ, firewall et paramètres avancés.</text>
          </g>
        </g>
      </g>
    </g>
  </g>
</svg>
