<svg xmlns="http://www.w3.org/2000/svg" viewBox="0 0 1440 900" width="1440" height="900">
  <defs>
    <style>
      .bg-header { fill: #000E9C; }
      .bg-main { fill: #F6F6F9; }
      .bg-white { fill: #FFFFFF; }
      .bg-primary { fill: #0050D7; }
      .bg-success { fill: #DEF7EC; }
      .bg-info { fill: #DBEAFE; }
      .bg-warning { fill: #FEF3C7; }
      .bg-error { fill: #FEE2E2; }
      .border { stroke: #E5E7EB; stroke-width: 1; fill: none; }
      .divider { stroke: #E5E7EB; stroke-width: 1; }
      .btn-outline { stroke: #0050D7; stroke-width: 1; fill: #FFFFFF; }
      .row-selected { fill: #E8F0FE; }
      .table-header { fill: #F9FAFB; }
      .text-white { fill: #FFFFFF; font-family: 'Source Sans Pro', sans-serif; }
      .text-dark { fill: #1F2937; font-family: 'Source Sans Pro', sans-serif; }
      .text-muted { fill: #6B7280; font-family: 'Source Sans Pro', sans-serif; }
      .text-primary { fill: #0050D7; font-family: 'Source Sans Pro', sans-serif; }
    </style>
  </defs>

  <rect width="1440" height="900" class="bg-main"/>

  <!-- NAV1 -->
  <rect width="1440" height="50" class="bg-header"/>
  <text x="510" y="32" class="text-white" font-size="14" font-weight="600">Web Cloud</text>
  <rect x="505" y="46" width="75" height="3" fill="#FFFFFF"/>

  <!-- NAV2 -->
  <rect x="0" y="50" width="1440" height="40" class="bg-white"/>
  <text x="550" y="75" class="text-primary" font-size="14" font-weight="600">Accès</text>
  <rect x="545" y="85" width="40" height="3" fill="#0050D7"/>

  <g transform="translate(0, 105)">
    <g transform="translate(24, 0)">
      <rect x="0" y="0" width="160" height="36" rx="6" class="bg-primary"/>
      <text x="80" y="23" class="text-white" font-size="13" text-anchor="middle">🌐 Connexions  4</text>
    </g>

    <g transform="translate(24, 50)">
      <rect x="0" y="0" width="280" height="715" rx="8" class="bg-white"/>
      <rect x="0" y="0" width="280" height="715" rx="8" class="border"/>
      <g transform="translate(6, 80)">
        <rect x="0" y="0" width="268" height="90" rx="6" class="row-selected"/>
        <text x="32" y="20" class="text-dark" font-size="13" font-weight="600">Fibre Pro Paris</text>
      </g>
    </g>

    <g transform="translate(320, 50)">
      <rect x="0" y="0" width="1096" height="715" rx="8" class="bg-white"/>
      <rect x="0" y="0" width="1096" height="715" rx="8" class="border"/>

      <g transform="translate(20, 0)">
        <text x="0" y="28" class="text-dark" font-size="18" font-weight="600">Liste des tâches</text>

        <!-- NAV3 -->
        <g transform="translate(0, 65)">
          <rect x="374" y="0" width="55" height="26" rx="4" class="bg-primary"/>
          <text x="401" y="17" class="text-white" font-size="11" text-anchor="middle">Tâches</text>
        </g>

        <!-- Toolbar -->
        <g transform="translate(0, 100)">
          <rect x="0" y="0" width="32" height="32" rx="4" class="btn-outline"/>
          <text x="16" y="22" class="text-primary" font-size="14" text-anchor="middle">↻</text>
        </g>

        <!-- Table -->
        <g transform="translate(0, 150)">
          <rect x="0" y="0" width="1036" height="500" rx="6" class="bg-white" stroke="#E5E7EB"/>

          <!-- Table header -->
          <rect x="0" y="0" width="1036" height="40" rx="6" class="table-header"/>
          <text x="30" y="26" class="text-dark" font-size="11" font-weight="600">ID</text>
          <text x="120" y="26" class="text-dark" font-size="11" font-weight="600">Nom de la tâche</text>
          <text x="450" y="26" class="text-dark" font-size="11" font-weight="600">Statut</text>
          <text x="600" y="26" class="text-dark" font-size="11" font-weight="600">Date création</text>
          <text x="780" y="26" class="text-dark" font-size="11" font-weight="600">Date MAJ</text>

          <!-- Row 1 - Terminée -->
          <g transform="translate(0, 45)">
            <line x1="0" y1="45" x2="1036" y2="45" class="divider"/>
            <text x="30" y="30" class="text-dark" font-size="11">12847</text>
            <text x="120" y="30" class="text-dark" font-size="11">changeModemConfigWLAN</text>
            <g transform="translate(450, 15)">
              <rect x="0" y="0" width="70" height="22" rx="11" class="bg-success"/>
              <text x="35" y="15" fill="#03543F" font-size="10" text-anchor="middle">Terminée</text>
            </g>
            <text x="600" y="30" class="text-muted" font-size="11">28/12/2025 14:30</text>
            <text x="780" y="30" class="text-dark" font-size="11">28/12/2025 14:32</text>
          </g>

          <!-- Row 2 - En cours -->
          <g transform="translate(0, 90)">
            <line x1="0" y1="45" x2="1036" y2="45" class="divider"/>
            <text x="30" y="30" class="text-dark" font-size="11">12848</text>
            <text x="120" y="30" class="text-dark" font-size="11">resetModem</text>
            <g transform="translate(450, 15)">
              <rect x="0" y="0" width="70" height="22" rx="11" class="bg-info"/>
              <text x="35" y="15" fill="#1E40AF" font-size="10" text-anchor="middle">En cours</text>
            </g>
            <text x="600" y="30" class="text-muted" font-size="11">28/12/2025 14:45</text>
            <text x="780" y="30" class="text-dark" font-size="11">28/12/2025 14:45</text>
          </g>

          <!-- Row 3 - À faire -->
          <g transform="translate(0, 135)">
            <line x1="0" y1="45" x2="1036" y2="45" class="divider"/>
            <text x="30" y="30" class="text-dark" font-size="11">12849</text>
            <text x="120" y="30" class="text-dark" font-size="11">changeModemConfigFirmware</text>
            <g transform="translate(450, 15)">
              <rect x="0" y="0" width="70" height="22" rx="11" fill="#E0E7FF"/>
              <text x="35" y="15" fill="#3730A3" font-size="10" text-anchor="middle">À faire</text>
            </g>
            <text x="600" y="30" class="text-muted" font-size="11">28/12/2025 14:50</text>
            <text x="780" y="30" class="text-dark" font-size="11">28/12/2025 14:50</text>
          </g>

          <!-- Row 4 - Erreur -->
          <g transform="translate(0, 180)">
            <line x1="0" y1="45" x2="1036" y2="45" class="divider"/>
            <text x="30" y="30" class="text-dark" font-size="11">12850</text>
            <text x="120" y="30" class="text-dark" font-size="11">changeModemConfigDMZ</text>
            <g transform="translate(450, 15)">
              <rect x="0" y="0" width="70" height="22" rx="11" class="bg-error"/>
              <text x="35" y="15" fill="#991B1B" font-size="10" text-anchor="middle">Erreur</text>
            </g>
            <text x="600" y="30" class="text-muted" font-size="11">28/12/2025 13:20</text>
            <text x="780" y="30" class="text-dark" font-size="11">28/12/2025 13:25</text>
          </g>

          <!-- Row 5 - Terminée -->
          <g transform="translate(0, 225)">
            <line x1="0" y1="45" x2="1036" y2="45" class="divider"/>
            <text x="30" y="30" class="text-dark" font-size="11">12851</text>
            <text x="120" y="30" class="text-dark" font-size="11">dslamProfileChange</text>
            <g transform="translate(450, 15)">
              <rect x="0" y="0" width="70" height="22" rx="11" class="bg-success"/>
              <text x="35" y="15" fill="#03543F" font-size="10" text-anchor="middle">Terminée</text>
            </g>
            <text x="600" y="30" class="text-muted" font-size="11">28/12/2025 12:00</text>
            <text x="780" y="30" class="text-dark" font-size="11">28/12/2025 12:05</text>
          </g>

          <!-- Pagination -->
          <g transform="translate(0, 450)">
            <text x="30" y="20" class="text-muted" font-size="11">Affichage 1-5 sur 12</text>
            <g transform="translate(850, 5)">
              <rect x="0" y="0" width="28" height="26" rx="4" fill="#E5E7EB"/>
              <text x="14" y="17" class="text-muted" font-size="12" text-anchor="middle">‹</text>
              <rect x="34" y="0" width="28" height="26" rx="4" class="bg-primary"/>
              <text x="48" y="17" class="text-white" font-size="11" text-anchor="middle">1</text>
              <rect x="68" y="0" width="28" height="26" rx="4" class="btn-outline"/>
              <text x="82" y="17" class="text-primary" font-size="11" text-anchor="middle">2</text>
              <rect x="102" y="0" width="28" height="26" rx="4" class="btn-outline"/>
              <text x="116" y="17" class="text-primary" font-size="11" text-anchor="middle">3</text>
              <rect x="136" y="0" width="28" height="26" rx="4" class="btn-outline"/>
              <text x="150" y="17" class="text-primary" font-size="12" text-anchor="middle">›</text>
            </g>
          </g>
        </g>
      </g>
    </g>
  </g>
</svg>
