<svg xmlns="http://www.w3.org/2000/svg" viewBox="0 0 1440 900" width="1440" height="900">
  <defs>
    <style>
      .bg-header { fill: #000E9C; }
      .bg-main { fill: #F6F6F9; }
      .bg-white { fill: #FFFFFF; }
      .bg-primary { fill: #0050D7; }
      .bg-success { fill: #DEF7EC; }
      .bg-warning { fill: #FEF3C7; }
      .border { stroke: #E5E7EB; stroke-width: 1; fill: none; }
      .divider { stroke: #E5E7EB; stroke-width: 1; }
      .btn-outline { stroke: #0050D7; stroke-width: 1; fill: #FFFFFF; }
      .btn-disabled { fill: #E5E7EB; }
      .row-selected { fill: #E8F0FE; }
      .text-white { fill: #FFFFFF; font-family: 'Source Sans Pro', sans-serif; }
      .text-dark { fill: #1F2937; font-family: 'Source Sans Pro', sans-serif; }
      .text-muted { fill: #6B7280; font-family: 'Source Sans Pro', sans-serif; }
      .text-primary { fill: #0050D7; font-family: 'Source Sans Pro', sans-serif; }
      .text-success { fill: #059669; font-family: 'Source Sans Pro', sans-serif; }
      .text-warning { fill: #D97706; font-family: 'Source Sans Pro', sans-serif; }
    </style>
  </defs>

  <rect width="1440" height="900" class="bg-main"/>

  <!-- NAV1 -->
  <rect width="1440" height="50" class="bg-header"/>
  <text x="510" y="32" class="text-white" font-size="14" font-weight="600">Web Cloud</text>
  <rect x="505" y="46" width="75" height="3" fill="#FFFFFF"/>

  <!-- NAV2 -->
  <rect x="0" y="50" width="1440" height="40" class="bg-white"/>
  <text x="550" y="75" class="text-primary" font-size="14" font-weight="600">Accès</text>
  <rect x="545" y="85" width="40" height="3" fill="#0050D7"/>

  <g transform="translate(0, 105)">
    <g transform="translate(24, 0)">
      <rect x="0" y="0" width="160" height="36" rx="6" class="bg-primary"/>
      <text x="80" y="23" class="text-white" font-size="13" text-anchor="middle">🌐 Connexions  4</text>
    </g>

    <g transform="translate(24, 50)">
      <rect x="0" y="0" width="280" height="715" rx="8" class="bg-white"/>
      <rect x="0" y="0" width="280" height="715" rx="8" class="border"/>
      <g transform="translate(6, 80)">
        <rect x="0" y="0" width="268" height="90" rx="6" class="row-selected"/>
        <text x="32" y="20" class="text-dark" font-size="13" font-weight="600">Fibre Pro Paris</text>
      </g>
    </g>

    <g transform="translate(320, 50)">
      <rect x="0" y="0" width="1096" height="715" rx="8" class="bg-white"/>
      <rect x="0" y="0" width="1096" height="715" rx="8" class="border"/>

      <g transform="translate(20, 0)">
        <text x="0" y="28" class="text-dark" font-size="18" font-weight="600">Mise à jour du Firmware</text>

        <!-- NAV3 -->
        <g transform="translate(0, 65)">
          <rect x="128" y="0" width="55" height="26" rx="4" class="bg-primary"/>
          <text x="155" y="17" class="text-white" font-size="11" text-anchor="middle">Modem</text>
        </g>

        <!-- NAV4 - Dashboard (firmware dans dashboard) -->
        <g transform="translate(0, 100)">
          <text x="0" y="14" class="text-primary" font-size="12" font-weight="500">Dashboard</text>
          <rect x="0" y="18" width="65" height="2" fill="#0050D7"/>
          <text x="90" y="14" class="text-muted" font-size="12">WiFi</text>
          <text x="140" y="14" class="text-muted" font-size="12">DHCP</text>
          <text x="195" y="14" class="text-muted" font-size="12">NAT/Ports</text>
          <text x="275" y="14" class="text-muted" font-size="12">Routeur</text>
        </g>

        <!-- Version actuelle -->
        <g transform="translate(0, 135)">
          <rect x="0" y="0" width="500" height="180" rx="6" class="bg-white" stroke="#E5E7EB"/>
          <text x="20" y="28" class="text-dark" font-size="15" font-weight="700">VERSION ACTUELLE</text>
          <line x1="20" y1="50" x2="480" y2="50" class="divider"/>

          <g transform="translate(20, 65)">
            <text x="0" y="15" class="text-muted" font-size="11">Version firmware</text>
            <text x="150" y="15" class="text-dark" font-size="11" font-weight="600">v3.2.1</text>
            <rect x="210" y="0" width="60" height="22" rx="11" class="bg-success"/>
            <text x="240" y="15" fill="#03543F" font-size="10" text-anchor="middle">À jour</text>

            <text x="0" y="45" class="text-muted" font-size="11">Date installation</text>
            <text x="150" y="45" class="text-dark" font-size="11">15/12/2025</text>

            <text x="0" y="75" class="text-muted" font-size="11">Modèle modem</text>
            <text x="150" y="75" class="text-dark" font-size="11">TG799vac Xtream</text>

            <text x="0" y="105" class="text-muted" font-size="11">Géré par OVH</text>
            <text x="150" y="105" class="text-dark" font-size="11">Oui (mises à jour automatiques)</text>
          </g>
        </g>

        <!-- Sélection version -->
        <g transform="translate(520, 135)">
          <rect x="0" y="0" width="516" height="180" rx="6" class="bg-white" stroke="#E5E7EB"/>
          <text x="20" y="28" class="text-dark" font-size="15" font-weight="700">CHANGER DE VERSION</text>
          <line x1="20" y1="50" x2="496" y2="50" class="divider"/>

          <g transform="translate(20, 65)">
            <text x="0" y="15" class="text-muted" font-size="11">Sélectionner une version</text>

            <rect x="0" y="25" width="350" height="40" rx="4" fill="#F9FAFB" stroke="#E5E7EB"/>
            <text x="15" y="52" class="text-dark" font-size="12">v3.2.1 (dernière version)</text>
            <text x="320" y="52" class="text-muted" font-size="12">▼</text>

            <!-- Dropdown simulé -->
            <g transform="translate(0, 70)">
              <rect x="0" y="0" width="350" height="55" rx="4" fill="#FFFFFF" stroke="#E5E7EB"/>
              <rect x="0" y="0" width="350" height="28" fill="#E8F0FE"/>
              <text x="15" y="18" class="text-primary" font-size="11">v3.2.1 (dernière version) ✓</text>
              <text x="15" y="45" class="text-dark" font-size="11">v3.2.0</text>
            </g>
          </g>

          <!-- Bouton désactivé car déjà à jour -->
          <g transform="translate(380, 65)">
            <rect x="0" y="25" width="100" height="40" rx="4" class="btn-disabled"/>
            <text x="50" y="52" class="text-muted" font-size="11" text-anchor="middle">Appliquer</text>
          </g>
        </g>

        <!-- Warning mise à jour -->
        <g transform="translate(0, 335)">
          <rect x="0" y="0" width="1036" height="80" rx="6" class="bg-warning" stroke="#F59E0B"/>
          <g transform="translate(20, 15)">
            <text x="0" y="15" class="text-warning" font-size="11" font-weight="600">⚠️ Informations importantes sur les mises à jour</text>
            <text x="0" y="38" class="text-warning" font-size="11">• Le modem redémarrera automatiquement après la mise à jour (2-3 minutes d'interruption)</text>
            <text x="0" y="55" class="text-warning" font-size="11">• Ne débranchez pas le modem pendant l'installation</text>
          </g>
        </g>

        <!-- Historique versions -->
        <g transform="translate(0, 435)">
          <rect x="0" y="0" width="1036" height="180" rx="6" class="bg-white" stroke="#E5E7EB"/>
          <text x="20" y="28" class="text-dark" font-size="15" font-weight="700">HISTORIQUE DES VERSIONS</text>
          <line x1="20" y1="50" x2="1016" y2="50" class="divider"/>

          <g transform="translate(20, 65)">
            <text x="0" y="0" class="text-dark" font-size="10" font-weight="600">Version</text>
            <text x="100" y="0" class="text-dark" font-size="10" font-weight="600">Date sortie</text>
            <text x="220" y="0" class="text-dark" font-size="10" font-weight="600">Changements</text>

            <text x="0" y="25" class="text-dark" font-size="10" font-weight="500">v3.2.1</text>
            <text x="100" y="25" class="text-muted" font-size="10">01/12/2025</text>
            <text x="220" y="25" class="text-muted" font-size="10">Correctifs sécurité, amélioration stabilité WiFi</text>

            <text x="0" y="50" class="text-dark" font-size="10">v3.2.0</text>
            <text x="100" y="50" class="text-muted" font-size="10">15/10/2025</text>
            <text x="220" y="50" class="text-muted" font-size="10">Support WPA3, nouvelle interface web</text>

            <text x="0" y="75" class="text-dark" font-size="10">v3.1.5</text>
            <text x="100" y="75" class="text-muted" font-size="10">01/08/2025</text>
            <text x="220" y="75" class="text-muted" font-size="10">Amélioration performances DHCP</text>

            <text x="0" y="100" class="text-dark" font-size="10">v3.1.4</text>
            <text x="100" y="100" class="text-muted" font-size="10">15/06/2025</text>
            <text x="220" y="100" class="text-muted" font-size="10">Correctifs NAT, support IPv6 amélioré</text>
          </g>
        </g>
      </g>
    </g>
  </g>
</svg>
