<svg xmlns="http://www.w3.org/2000/svg" viewBox="0 0 1440 900" width="1440" height="900">
  <defs><style>.bg-header{fill:#000E9C}.bg-main{fill:#F6F6F9}.bg-white{fill:#FFFFFF}.text-white{fill:#FFFFFF;font-family:sans-serif}.text-dark{fill:#1F2937;font-family:sans-serif}.text-muted{fill:#6B7280;font-family:sans-serif}.text-primary{fill:#0050D7;font-family:sans-serif}.border{stroke:#E5E7EB;stroke-width:1;fill:none}</style></defs>
  <rect width="1440" height="900" class="bg-main"/>
  <rect width="1440" height="50" class="bg-header"/>
  <text x="40" y="32" class="text-white" font-size="14">Accueil</text>
  <rect x="0" y="50" width="1440" height="40" class="bg-white"/>
  <text x="40" y="75" class="text-primary" font-size="14" font-weight="600">IAM - Groupes de ressources</text>
  <g transform="translate(40,115)">
    <text y="0" class="text-dark" font-size="24" font-weight="600">Politiques d'accès</text>
    <g transform="translate(0,40)">
      <rect width="140" height="32" rx="4" fill="#FFF" stroke="#E5E7EB"/><text x="70" y="21" class="text-muted" font-size="12" text-anchor="middle">Mes politiques</text>
      <rect x="150" width="140" height="32" rx="4" fill="#FFF" stroke="#E5E7EB"/><text x="220" y="21" class="text-muted" font-size="12" text-anchor="middle">Politiques OVH</text>
      <rect x="300" width="180" height="32" rx="4" fill="#0050D7"/><text x="390" y="21" class="text-white" font-size="12" text-anchor="middle">Groupes de ressources</text>
    </g>
    <rect x="1120" y="25" width="240" height="36" rx="4" fill="#0050D7"/><text x="1240" y="48" class="text-white" font-size="12" text-anchor="middle">+ Créer un groupe de ressources</text>
  </g>
  <g transform="translate(40,210)">
    <rect width="1360" height="120" rx="8" fill="#DBEAFE"/><rect width="1360" height="120" rx="8" stroke="#0050D7" fill="none"/>
    <text x="20" y="35" fill="#1E40AF" font-size="14" font-weight="600">Groupes de ressources</text>
    <text x="20" y="65" fill="#1E40AF" font-size="12">Les groupes de ressources permettent de regrouper vos services OVHcloud et d'appliquer</text>
    <text x="20" y="85" fill="#1E40AF" font-size="12">des politiques d'accès de manière granulaire sur ces groupes.</text>
  </g>
  <g transform="translate(40,360)">
    <rect width="1360" height="350" rx="8" class="bg-white"/><rect width="1360" height="350" rx="8" class="border"/>
    <text x="20" y="35" class="text-dark" font-size="15" font-weight="700">Mes groupes de ressources</text>
    <line x1="0" y1="55" x2="1360" y2="55" stroke="#E5E7EB"/>
    <text x="20" y="90" class="text-dark" font-size="13" font-weight="600">production</text>
    <text x="200" y="90" class="text-dark" font-size="12">Ressources de production</text>
    <text x="550" y="90" class="text-muted" font-size="11">15 services</text>
    <text x="700" y="90" class="text-muted" font-size="11">3 politiques assignées</text>
    <text x="1100" y="90" class="text-primary" font-size="12">Voir</text>
    <text x="1160" y="90" class="text-primary" font-size="12">Modifier</text>
    <text x="1240" y="90" fill="#DC2626" font-size="12">Supprimer</text>
    <line x1="20" y1="110" x2="1340" y2="110" stroke="#E5E7EB"/>
    <text x="20" y="140" class="text-dark" font-size="13" font-weight="600">staging</text>
    <text x="200" y="140" class="text-dark" font-size="12">Environnement de pré-production</text>
    <text x="550" y="140" class="text-muted" font-size="11">8 services</text>
    <text x="700" y="140" class="text-muted" font-size="11">2 politiques assignées</text>
    <text x="1100" y="140" class="text-primary" font-size="12">Voir</text>
    <text x="1160" y="140" class="text-primary" font-size="12">Modifier</text>
    <text x="1240" y="140" fill="#DC2626" font-size="12">Supprimer</text>
    <line x1="20" y1="160" x2="1340" y2="160" stroke="#E5E7EB"/>
    <text x="20" y="190" class="text-dark" font-size="13" font-weight="600">development</text>
    <text x="200" y="190" class="text-dark" font-size="12">Environnement de développement</text>
    <text x="550" y="190" class="text-muted" font-size="11">12 services</text>
    <text x="700" y="190" class="text-muted" font-size="11">1 politique assignée</text>
    <text x="1100" y="190" class="text-primary" font-size="12">Voir</text>
    <text x="1160" y="190" class="text-primary" font-size="12">Modifier</text>
    <text x="1240" y="190" fill="#DC2626" font-size="12">Supprimer</text>
  </g>
</svg>
