<svg xmlns="http://www.w3.org/2000/svg" viewBox="0 0 1440 900" width="1440" height="900">
  <defs><style>.bg-header{fill:#000E9C}.bg-main{fill:#F6F6F9}.bg-white{fill:#FFFFFF}.text-white{fill:#FFFFFF;font-family:sans-serif}.text-dark{fill:#1F2937;font-family:sans-serif}.text-muted{fill:#6B7280;font-family:sans-serif}.text-primary{fill:#0050D7;font-family:sans-serif}.border{stroke:#E5E7EB;stroke-width:1;fill:none}</style></defs>
  <rect width="1440" height="900" class="bg-main"/>
  <rect width="1440" height="50" class="bg-header"/>
  <text x="40" y="32" class="text-white" font-size="14">Accueil</text>
  <rect x="0" y="50" width="1440" height="40" class="bg-white"/>
  <text x="40" y="75" class="text-primary" font-size="14" font-weight="600">IAM - Gestion des accès</text>
  <g transform="translate(40,115)">
    <text y="0" class="text-dark" font-size="24" font-weight="600">Identity and Access Management</text>
    <text y="30" class="text-muted" font-size="13">Gérez les utilisateurs, groupes, politiques et accès API de votre compte OVHcloud</text>
    <g transform="translate(0,60)">
      <rect width="130" height="32" rx="4" fill="#0050D7"/><text x="65" y="21" class="text-white" font-size="12" text-anchor="middle">Identités</text>
      <rect x="140" width="100" height="32" rx="4" fill="#FFF" stroke="#E5E7EB"/><text x="190" y="21" class="text-muted" font-size="12" text-anchor="middle">Politiques</text>
      <rect x="250" width="100" height="32" rx="4" fill="#FFF" stroke="#E5E7EB"/><text x="300" y="21" class="text-muted" font-size="12" text-anchor="middle">Clés API</text>
      <rect x="360" width="80" height="32" rx="4" fill="#FFF" stroke="#E5E7EB"/><text x="400" y="21" class="text-muted" font-size="12" text-anchor="middle">Logs</text>
    </g>
  </g>
  <g transform="translate(40,240)">
    <rect width="440" height="200" rx="8" class="bg-white"/><rect width="440" height="200" rx="8" class="border"/>
    <text x="20" y="35" class="text-dark" font-size="15" font-weight="700">Utilisateurs</text>
    <text x="20" y="70" class="text-dark" font-size="36" font-weight="600">8</text>
    <text x="20" y="95" class="text-muted" font-size="12">utilisateurs actifs</text>
    <text x="20" y="130" class="text-muted" font-size="11">2 administrateurs</text>
    <text x="20" y="150" class="text-muted" font-size="11">6 utilisateurs standards</text>
    <rect x="280" y="140" width="140" height="36" rx="4" fill="#0050D7"/><text x="350" y="163" class="text-white" font-size="12" text-anchor="middle">Gérer →</text>
  </g>
  <g transform="translate(500,240)">
    <rect width="440" height="200" rx="8" class="bg-white"/><rect width="440" height="200" rx="8" class="border"/>
    <text x="20" y="35" class="text-dark" font-size="15" font-weight="700">Groupes</text>
    <text x="20" y="70" class="text-dark" font-size="36" font-weight="600">3</text>
    <text x="20" y="95" class="text-muted" font-size="12">groupes configurés</text>
    <text x="20" y="130" class="text-muted" font-size="11">Admin (2 membres)</text>
    <text x="20" y="150" class="text-muted" font-size="11">Developers (4 membres)</text>
    <rect x="280" y="140" width="140" height="36" rx="4" fill="#0050D7"/><text x="350" y="163" class="text-white" font-size="12" text-anchor="middle">Gérer →</text>
  </g>
  <g transform="translate(960,240)">
    <rect width="440" height="200" rx="8" class="bg-white"/><rect width="440" height="200" rx="8" class="border"/>
    <text x="20" y="35" class="text-dark" font-size="15" font-weight="700">SSO</text>
    <text x="20" y="70" class="text-dark" font-size="36" font-weight="600">1</text>
    <text x="20" y="95" class="text-muted" font-size="12">fournisseur d'identité</text>
    <rect x="20" y="120" width="80" height="22" rx="11" fill="#DEF7EC"/><text x="60" y="135" fill="#059669" font-size="10" text-anchor="middle">Actif</text>
    <text x="20" y="165" class="text-muted" font-size="11">Azure AD configuré</text>
    <rect x="280" y="140" width="140" height="36" rx="4" fill="#0050D7"/><text x="350" y="163" class="text-white" font-size="12" text-anchor="middle">Configurer →</text>
  </g>
  <g transform="translate(40,470)">
    <rect width="660" height="200" rx="8" class="bg-white"/><rect width="660" height="200" rx="8" class="border"/>
    <text x="20" y="35" class="text-dark" font-size="15" font-weight="700">Politiques d'accès</text>
    <text x="20" y="70" class="text-dark" font-size="13">12 politiques actives</text>
    <text x="20" y="100" class="text-muted" font-size="12">3 politiques OVHcloud</text>
    <text x="20" y="120" class="text-muted" font-size="12">9 politiques personnalisées</text>
    <rect x="20" y="150" width="150" height="32" rx="4" fill="#0050D7"/><text x="95" y="171" class="text-white" font-size="11" text-anchor="middle">Gérer les politiques</text>
  </g>
  <g transform="translate(720,470)">
    <rect width="680" height="200" rx="8" class="bg-white"/><rect width="680" height="200" rx="8" class="border"/>
    <text x="20" y="35" class="text-dark" font-size="15" font-weight="700">Activité récente</text>
    <text x="20" y="70" class="text-muted" font-size="11">02/01 10:30 - admin@company.com s'est connecté</text>
    <text x="20" y="95" class="text-muted" font-size="11">02/01 09:15 - Nouvelle politique "ReadOnly" créée</text>
    <text x="20" y="120" class="text-muted" font-size="11">01/01 16:42 - Utilisateur john.doe ajouté au groupe Developers</text>
    <text x="20" y="165" class="text-primary" font-size="12">Voir tous les logs →</text>
  </g>
</svg>
