<svg xmlns="http://www.w3.org/2000/svg" viewBox="0 0 1440 900" width="1440" height="900">
  <defs><style>.bg-header{fill:#000E9C}.bg-main{fill:#F6F6F9}.bg-white{fill:#FFFFFF}.text-white{fill:#FFFFFF;font-family:sans-serif}.text-dark{fill:#1F2937;font-family:sans-serif}.text-muted{fill:#6B7280;font-family:sans-serif}.text-primary{fill:#0050D7;font-family:sans-serif}.border{stroke:#E5E7EB;stroke-width:1;fill:none}.table-header{fill:#F9FAFB}</style></defs>
  <rect width="1440" height="900" class="bg-main"/>
  <rect width="1440" height="50" class="bg-header"/>
  <text x="40" y="32" class="text-white" font-size="14">Accueil</text>
  <rect x="0" y="50" width="1440" height="40" class="bg-white"/>
  <text x="40" y="75" class="text-primary" font-size="14" font-weight="600">IAM - Logs d'audit</text>
  <g transform="translate(40,115)">
    <text y="0" class="text-dark" font-size="24" font-weight="600">Logs d'audit IAM</text>
    <text y="30" class="text-muted" font-size="13">Historique des actions IAM sur votre compte</text>
    <g transform="translate(0,50)">
      <rect width="250" height="36" rx="4" fill="#F9FAFB" stroke="#E5E7EB"/>
      <text x="15" y="23" class="text-muted" font-size="12">🔍 Rechercher...</text>
      <rect x="260" width="150" height="36" rx="4" fill="#FFF" stroke="#E5E7EB"/>
      <text x="275" y="23" class="text-muted" font-size="12">Type d'action ▼</text>
      <rect x="420" width="150" height="36" rx="4" fill="#FFF" stroke="#E5E7EB"/>
      <text x="435" y="23" class="text-muted" font-size="12">Utilisateur ▼</text>
      <rect x="580" width="150" height="36" rx="4" fill="#FFF" stroke="#E5E7EB"/>
      <text x="595" y="23" class="text-muted" font-size="12">Période ▼</text>
      <rect x="1200" width="160" height="36" rx="4" fill="#FFF" stroke="#0050D7"/><text x="1280" y="23" class="text-primary" font-size="12" text-anchor="middle">Exporter CSV</text>
    </g>
  </g>
  <g transform="translate(40,230)">
    <rect width="1360" height="500" rx="8" class="bg-white"/><rect width="1360" height="500" rx="8" class="border"/>
    <rect x="0" y="0" width="1360" height="45" rx="8" class="table-header"/>
    <text x="20" y="28" class="text-dark" font-size="11" font-weight="600">Date/Heure</text>
    <text x="180" y="28" class="text-dark" font-size="11" font-weight="600">Utilisateur</text>
    <text x="380" y="28" class="text-dark" font-size="11" font-weight="600">Action</text>
    <text x="600" y="28" class="text-dark" font-size="11" font-weight="600">Ressource</text>
    <text x="900" y="28" class="text-dark" font-size="11" font-weight="600">IP Source</text>
    <text x="1050" y="28" class="text-dark" font-size="11" font-weight="600">Statut</text>
    <text x="1200" y="28" class="text-dark" font-size="11" font-weight="600">Détails</text>
    <line x1="0" y1="45" x2="1360" y2="45" stroke="#E5E7EB"/>
    <text x="20" y="80" class="text-dark" font-size="11">02/01/2026 10:30:45</text>
    <text x="180" y="80" class="text-dark" font-size="12">admin@company.com</text>
    <rect x="380" y="65" width="100" height="22" rx="11" fill="#DEF7EC"/><text x="430" y="80" fill="#059669" font-size="10" text-anchor="middle">Connexion</text>
    <text x="600" y="80" class="text-muted" font-size="11">Session utilisateur</text>
    <text x="900" y="80" class="text-muted" font-size="11">192.168.1.100</text>
    <rect x="1050" y="65" width="60" height="22" rx="11" fill="#DEF7EC"/><text x="1080" y="80" fill="#059669" font-size="10" text-anchor="middle">OK</text>
    <text x="1200" y="80" class="text-primary" font-size="12">Voir</text>
    <line x1="20" y1="100" x2="1340" y2="100" stroke="#E5E7EB"/>
    <text x="20" y="130" class="text-dark" font-size="11">02/01/2026 09:15:22</text>
    <text x="180" y="130" class="text-dark" font-size="12">admin@company.com</text>
    <rect x="380" y="115" width="120" height="22" rx="11" fill="#DBEAFE"/><text x="440" y="130" fill="#1E40AF" font-size="10" text-anchor="middle">Création politique</text>
    <text x="600" y="130" class="text-muted" font-size="11">ReadOnly</text>
    <text x="900" y="130" class="text-muted" font-size="11">192.168.1.100</text>
    <rect x="1050" y="115" width="60" height="22" rx="11" fill="#DEF7EC"/><text x="1080" y="130" fill="#059669" font-size="10" text-anchor="middle">OK</text>
    <text x="1200" y="130" class="text-primary" font-size="12">Voir</text>
    <line x1="20" y1="150" x2="1340" y2="150" stroke="#E5E7EB"/>
    <text x="20" y="180" class="text-dark" font-size="11">01/01/2026 23:15:08</text>
    <text x="180" y="180" class="text-dark" font-size="12">unknown@external.com</text>
    <rect x="380" y="165" width="100" height="22" rx="11" fill="#FEE2E2"/><text x="430" y="180" fill="#DC2626" font-size="10" text-anchor="middle">Connexion</text>
    <text x="600" y="180" class="text-muted" font-size="11">Session utilisateur</text>
    <text x="900" y="180" class="text-muted" font-size="11">45.67.89.123</text>
    <rect x="1050" y="165" width="60" height="22" rx="11" fill="#FEE2E2"/><text x="1080" y="180" fill="#DC2626" font-size="10" text-anchor="middle">Échec</text>
    <text x="1200" y="180" class="text-primary" font-size="12">Voir</text>
    <line x1="20" y1="200" x2="1340" y2="200" stroke="#E5E7EB"/>
    <text x="20" y="230" class="text-dark" font-size="11">01/01/2026 16:42:33</text>
    <text x="180" y="230" class="text-dark" font-size="12">admin@company.com</text>
    <rect x="380" y="215" width="140" height="22" rx="11" fill="#FEF3C7"/><text x="450" y="230" fill="#D97706" font-size="10" text-anchor="middle">Ajout utilisateur</text>
    <text x="600" y="230" class="text-muted" font-size="11">john.doe → Developers</text>
    <text x="900" y="230" class="text-muted" font-size="11">192.168.1.100</text>
    <rect x="1050" y="215" width="60" height="22" rx="11" fill="#DEF7EC"/><text x="1080" y="230" fill="#059669" font-size="10" text-anchor="middle">OK</text>
    <text x="1200" y="230" class="text-primary" font-size="12">Voir</text>
  </g>
</svg>
