<?xml version="1.0" encoding="UTF-8"?>
<svg width="1100" height="550" viewBox="0 0 1100 550" fill="none" xmlns="http://www.w3.org/2000/svg">
  <title>Public Cloud - Managed Databases</title>
  <rect width="1100" height="550" fill="#F9FAFB"/>
  <g transform="translate(30, 30)"><text x="0" y="0" fill="#1F2937" font-family="system-ui, sans-serif" font-size="22" font-weight="600">Managed Databases</text><text x="0" y="30" fill="#6B7280" font-family="system-ui, sans-serif" font-size="13">Bases de données managées (MySQL, PostgreSQL, MongoDB, Redis...).</text></g>
  <g transform="translate(30, 90)"><rect x="0" y="0" width="180" height="40" rx="4" fill="#0050D7"/><text x="25" y="26" fill="white" font-family="system-ui, sans-serif" font-size="13">+ Créer database</text></g>
  <g transform="translate(30, 160)">
    <g transform="translate(0, 0)">
      <rect x="0" y="0" width="330" height="180" rx="8" fill="white" stroke="#E5E7EB"/>
      <g transform="translate(20, 20)"><rect x="0" y="0" width="50" height="25" rx="4" fill="#336791"/><text x="5" y="17" fill="white" font-family="system-ui, sans-serif" font-size="10">PgSQL</text></g>
      <g transform="translate(250, 20)"><circle cx="6" cy="6" r="6" fill="#16A34A"/></g>
      <text x="20" y="65" fill="#1F2937" font-family="system-ui, sans-serif" font-size="15" font-weight="600">db-production</text>
      <text x="20" y="88" fill="#6B7280" font-family="system-ui, sans-serif" font-size="12">PostgreSQL 16 • GRA</text>
      <text x="20" y="110" fill="#6B7280" font-family="system-ui, sans-serif" font-size="11">db-optimized-15 • 4 vCPU • 15 GB</text>
      <g transform="translate(20, 130)"><text x="0" y="0" fill="#6B7280" font-family="system-ui, sans-serif" font-size="11">Stockage: 100 GB</text><text x="130" y="0" fill="#0050D7" font-family="system-ui, sans-serif" font-size="11" font-weight="500">€95/m</text></g>
      <g transform="translate(20, 150)"><rect x="0" y="0" width="80" height="26" rx="4" fill="#EFF6FF"/><text x="15" y="18" fill="#0050D7" font-family="system-ui, sans-serif" font-size="10">Accéder</text><rect x="90" y="0" width="80" height="26" rx="4" fill="white" stroke="#E5E7EB"/><text x="105" y="18" fill="#6B7280" font-family="system-ui, sans-serif" font-size="10">Gérer</text></g>
    </g>
    <g transform="translate(355, 0)">
      <rect x="0" y="0" width="330" height="180" rx="8" fill="white" stroke="#E5E7EB"/>
      <g transform="translate(20, 20)"><rect x="0" y="0" width="50" height="25" rx="4" fill="#00758F"/><text x="5" y="17" fill="white" font-family="system-ui, sans-serif" font-size="10">MySQL</text></g>
      <g transform="translate(250, 20)"><circle cx="6" cy="6" r="6" fill="#16A34A"/></g>
      <text x="20" y="65" fill="#1F2937" font-family="system-ui, sans-serif" font-size="15" font-weight="600">db-legacy</text>
      <text x="20" y="88" fill="#6B7280" font-family="system-ui, sans-serif" font-size="12">MySQL 8.0 • SBG</text>
      <text x="20" y="110" fill="#6B7280" font-family="system-ui, sans-serif" font-size="11">db-essential-4 • 2 vCPU • 4 GB</text>
      <g transform="translate(20, 130)"><text x="0" y="0" fill="#6B7280" font-family="system-ui, sans-serif" font-size="11">Stockage: 50 GB</text><text x="130" y="0" fill="#0050D7" font-family="system-ui, sans-serif" font-size="11" font-weight="500">€35/m</text></g>
      <g transform="translate(20, 150)"><rect x="0" y="0" width="80" height="26" rx="4" fill="#EFF6FF"/><text x="15" y="18" fill="#0050D7" font-family="system-ui, sans-serif" font-size="10">Accéder</text><rect x="90" y="0" width="80" height="26" rx="4" fill="white" stroke="#E5E7EB"/><text x="105" y="18" fill="#6B7280" font-family="system-ui, sans-serif" font-size="10">Gérer</text></g>
    </g>
    <g transform="translate(710, 0)">
      <rect x="0" y="0" width="330" height="180" rx="8" fill="white" stroke="#E5E7EB"/>
      <g transform="translate(20, 20)"><rect x="0" y="0" width="50" height="25" rx="4" fill="#DC382D"/><text x="8" y="17" fill="white" font-family="system-ui, sans-serif" font-size="10">Redis</text></g>
      <g transform="translate(250, 20)"><circle cx="6" cy="6" r="6" fill="#16A34A"/></g>
      <text x="20" y="65" fill="#1F2937" font-family="system-ui, sans-serif" font-size="15" font-weight="600">cache-redis</text>
      <text x="20" y="88" fill="#6B7280" font-family="system-ui, sans-serif" font-size="12">Redis 7.2 • GRA</text>
      <text x="20" y="110" fill="#6B7280" font-family="system-ui, sans-serif" font-size="11">db-essential-4 • 2 vCPU • 4 GB</text>
      <g transform="translate(20, 130)"><text x="0" y="0" fill="#6B7280" font-family="system-ui, sans-serif" font-size="11">Cluster: 3 nodes</text><text x="130" y="0" fill="#0050D7" font-family="system-ui, sans-serif" font-size="11" font-weight="500">€65/m</text></g>
      <g transform="translate(20, 150)"><rect x="0" y="0" width="80" height="26" rx="4" fill="#EFF6FF"/><text x="15" y="18" fill="#0050D7" font-family="system-ui, sans-serif" font-size="10">Accéder</text><rect x="90" y="0" width="80" height="26" rx="4" fill="white" stroke="#E5E7EB"/><text x="105" y="18" fill="#6B7280" font-family="system-ui, sans-serif" font-size="10">Gérer</text></g>
    </g>
  </g>
  <g transform="translate(30, 370)">
    <g transform="translate(0, 0)">
      <rect x="0" y="0" width="330" height="140" rx="8" fill="white" stroke="#E5E7EB"/>
      <g transform="translate(20, 20)"><rect x="0" y="0" width="60" height="25" rx="4" fill="#47A248"/><text x="5" y="17" fill="white" font-family="system-ui, sans-serif" font-size="10">MongoDB</text></g>
      <g transform="translate(250, 20)"><circle cx="6" cy="6" r="6" fill="#F59E0B"/></g>
      <text x="20" y="65" fill="#1F2937" font-family="system-ui, sans-serif" font-size="15" font-weight="600">logs-mongo</text>
      <text x="20" y="88" fill="#6B7280" font-family="system-ui, sans-serif" font-size="12">MongoDB 7.0 • BHS</text>
      <g transform="translate(20, 105)"><rect x="0" y="0" width="80" height="20" rx="4" fill="#FEF3C7"/><text x="12" y="14" fill="#92400E" font-family="system-ui, sans-serif" font-size="10">Maintenance</text></g>
    </g>
  </g>
</svg>
