<svg xmlns="http://www.w3.org/2000/svg" viewBox="0 0 1440 900" width="1440" height="900">
  <defs>
    <style>
      .bg-header { fill: #000E9C; }
      .bg-main { fill: #F6F6F9; }
      .bg-white { fill: #FFFFFF; }
      .bg-primary { fill: #0050D7; }
      .bg-overlay { fill: rgba(0,0,0,0.5); }
      .border { stroke: #E5E7EB; stroke-width: 1; fill: none; }
      .divider { stroke: #E5E7EB; stroke-width: 1; }
      .text-white { fill: #FFFFFF; font-family: 'Source Sans Pro', sans-serif; }
      .text-dark { fill: #1F2937; font-family: 'Source Sans Pro', sans-serif; }
      .text-muted { fill: #6B7280; font-family: 'Source Sans Pro', sans-serif; }
      .text-primary { fill: #0050D7; font-family: 'Source Sans Pro', sans-serif; }
    </style>
  </defs>

  <rect width="1440" height="900" class="bg-main"/>

  <!-- NAV1 -->
  <rect width="1440" height="50" class="bg-header"/>
  <text x="510" y="32" class="text-white" font-size="14" font-weight="600">Web Cloud</text>
  <rect x="505" y="46" width="75" height="3" fill="#FFFFFF"/>

  <!-- NAV2 -->
  <rect x="0" y="50" width="1440" height="40" class="bg-white"/>
  <text x="550" y="75" class="text-primary" font-size="14" font-weight="600">Accès</text>
  <rect x="545" y="85" width="40" height="3" fill="#0050D7"/>

  <!-- Overlay semi-transparent -->
  <rect x="0" y="90" width="1440" height="810" fill="#000000" opacity="0.4"/>

  <!-- Modal -->
  <g transform="translate(320, 180)">
    <rect x="0" y="0" width="800" height="520" rx="8" class="bg-white"/>
    <rect x="0" y="0" width="800" height="520" rx="8" class="border"/>

    <!-- Modal header -->
    <text x="30" y="40" class="text-dark" font-size="18" font-weight="600">Configuration OverTheBox</text>
    <text x="760" y="40" class="text-muted" font-size="18" style="cursor:pointer">✕</text>
    <line x1="0" y1="60" x2="800" y2="60" class="divider"/>

    <!-- Section 1: Redémarrage -->
    <g transform="translate(30, 80)">
      <rect x="0" y="0" width="740" height="180" rx="6" fill="#F9FAFB" stroke="#E5E7EB"/>

      <text x="20" y="30" class="text-dark" font-size="15" font-weight="600">Vous avez redémarré votre OverTheBox</text>

      <g transform="translate(20, 50)">
        <text x="0" y="0" class="text-muted" font-size="12">Votre équipement a changé son identifiant. Vous devez maintenant</text>
        <text x="0" y="18" class="text-muted" font-size="12">rattacher ce dernier à un service existant :</text>
      </g>

      <!-- Service link -->
      <g transform="translate(30, 100)">
        <text x="0" y="0" class="text-primary" font-size="12">• otb-abc123-xyz</text>
        <text x="0" y="22" class="text-primary" font-size="12">• otb-def456-uvw</text>
      </g>

      <!-- Button -->
      <g transform="translate(20, 140)">
        <rect x="0" y="0" width="140" height="32" rx="4" class="bg-primary"/>
        <text x="70" y="21" class="text-white" font-size="11" text-anchor="middle">Rattacher au service</text>
      </g>
    </g>

    <!-- Section 2: Nouvelle commande -->
    <g transform="translate(30, 280)">
      <rect x="0" y="0" width="740" height="180" rx="6" fill="#F9FAFB" stroke="#E5E7EB"/>

      <text x="20" y="30" class="text-dark" font-size="15" font-weight="600">Vous avez reçu votre nouvelle OverTheBox</text>

      <g transform="translate(20, 50)">
        <text x="0" y="0" class="text-muted" font-size="12">Vous avez fait l'acquisition d'un nouvel équipement.</text>
        <text x="0" y="18" class="text-muted" font-size="12">Vous devez souscrire à un nouveau service.</text>
      </g>

      <!-- Button -->
      <g transform="translate(20, 90)">
        <rect x="0" y="0" width="180" height="32" rx="4" class="bg-primary"/>
        <text x="90" y="21" class="text-white" font-size="11" text-anchor="middle">Souscrire à un service</text>
      </g>

      <!-- Help link -->
      <g transform="translate(20, 140)">
        <text x="0" y="0" class="text-primary" font-size="11">📖 Guide d'installation OverTheBox</text>
      </g>
    </g>
  </g>
</svg>
