<svg xmlns="http://www.w3.org/2000/svg" viewBox="0 0 1440 900" width="1440" height="900">
  <defs>
    <style>
      .bg-header { fill: #000E9C; }
      .bg-main { fill: #F6F6F9; }
      .bg-white { fill: #FFFFFF; }
      .bg-primary { fill: #0050D7; }
      .bg-success { fill: #DEF7EC; }
      .bg-error { fill: #FEE2E2; }
      .bg-info { fill: #DBEAFE; }
      .border { stroke: #E5E7EB; stroke-width: 1; fill: none; }
      .divider { stroke: #E5E7EB; stroke-width: 1; }
      .btn-outline { stroke: #0050D7; stroke-width: 1; fill: #FFFFFF; }
      .row-selected { fill: #E8F0FE; }
      .table-header { fill: #F9FAFB; }
      .text-white { fill: #FFFFFF; font-family: 'Source Sans Pro', sans-serif; }
      .text-dark { fill: #1F2937; font-family: 'Source Sans Pro', sans-serif; }
      .text-muted { fill: #6B7280; font-family: 'Source Sans Pro', sans-serif; }
      .text-primary { fill: #0050D7; font-family: 'Source Sans Pro', sans-serif; }
      .text-success { fill: #059669; font-family: 'Source Sans Pro', sans-serif; }
    </style>
  </defs>

  <rect width="1440" height="900" class="bg-main"/>

  <!-- NAV1 -->
  <rect width="1440" height="50" class="bg-header"/>
  <text x="40" y="32" class="text-white" font-size="14" opacity="0.7">Accueil</text>
  <text x="110" y="32" class="text-white" font-size="14" opacity="0.7">Public Cloud</text>
  <text x="210" y="32" class="text-white" font-size="14" opacity="0.7">Hosted Private Cloud</text>
  <text x="370" y="32" class="text-white" font-size="14" opacity="0.7">Bare Metal Cloud</text>
  <text x="510" y="32" class="text-white" font-size="14" font-weight="600">Web Cloud</text>
  <rect x="505" y="46" width="75" height="3" fill="#FFFFFF"/>
  <text x="620" y="32" class="text-white" font-size="14" opacity="0.7">Network</text>

  <!-- NAV2 -->
  <rect x="0" y="50" width="1440" height="40" class="bg-white"/>
  <line x1="0" y1="89" x2="1440" y2="89" stroke="#E5E7EB"/>
  <text x="40" y="75" class="text-muted" font-size="14">Accueil</text>
  <text x="110" y="75" class="text-muted" font-size="14">Domaines et DNS</text>
  <text x="240" y="75" class="text-muted" font-size="14">Hébergement</text>
  <text x="345" y="75" class="text-muted" font-size="14">Wordpress</text>
  <text x="430" y="75" class="text-muted" font-size="14">Emails</text>
  <text x="500" y="75" class="text-muted" font-size="14">VoIP</text>
  <text x="550" y="75" class="text-primary" font-size="14" font-weight="600">Accès</text>
  <rect x="545" y="85" width="40" height="3" fill="#0050D7"/>
  <text x="1350" y="75" class="text-primary" font-size="13">Guides</text>

  <!-- CONTENT -->
  <g transform="translate(0, 105)">
    <g transform="translate(24, 0)">
      <!-- LEFT PANEL -->
      <rect x="0" y="0" width="280" height="765" rx="8" class="bg-white"/>
      <rect x="0" y="0" width="280" height="765" rx="8" class="border"/>

      <rect x="12" y="12" width="256" height="34" rx="4" fill="#F9FAFB" stroke="#E5E7EB"/>
      <text x="26" y="34" class="text-muted" font-size="12">🔍 Rechercher...</text>
      <text x="12" y="68" class="text-muted" font-size="11">2 services OverTheBox</text>

      <!-- Service item selected -->
      <g transform="translate(6, 80)">
        <rect x="0" y="0" width="268" height="80" rx="6" class="row-selected"/>
        <text x="12" y="22" class="text-dark" font-size="13" font-weight="600">📦 otb-xxx123</text>
        <text x="12" y="42" class="text-muted" font-size="11">OverTheBox Plus</text>
        <circle cx="18" cy="58" r="5" fill="#10B981"/>
        <text x="28" y="62" class="text-dark" font-size="11">Actif · 3 WAN</text>
      </g>

      <g transform="translate(6, 165)">
        <rect x="0" y="0" width="268" height="80" rx="6" fill="#FFFFFF" stroke="#E5E7EB"/>
        <text x="12" y="22" class="text-dark" font-size="13" font-weight="600">📦 otb-xxx456</text>
        <text x="12" y="42" class="text-muted" font-size="11">OverTheBox IT v1</text>
        <circle cx="18" cy="58" r="5" fill="#10B981"/>
        <text x="28" y="62" class="text-dark" font-size="11">Actif · 2 WAN</text>
      </g>
    </g>

    <!-- RIGHT PANEL -->
    <g transform="translate(320, 0)">
      <rect x="0" y="0" width="1096" height="765" rx="8" class="bg-white"/>
      <rect x="0" y="0" width="1096" height="765" rx="8" class="border"/>

      <g transform="translate(20, 0)">
        <text x="0" y="24" class="text-dark" font-size="18" font-weight="600">otb-xxx123</text>
        <text x="0" y="44" class="text-muted" font-size="12">OverTheBox Plus · 3 connexions agrégées</text>

        <!-- NAV3 -->
        <g transform="translate(0, 60)">
          <rect x="0" y="0" width="65" height="26" rx="4" class="bg-primary"/>
          <text x="32" y="17" class="text-white" font-size="11" text-anchor="middle">Général</text>

          <rect x="69" y="0" width="85" height="26" rx="4" class="btn-outline"/>
          <text x="111" y="17" class="text-primary" font-size="11" text-anchor="middle">Connexions</text>

          <rect x="158" y="0" width="55" height="26" rx="4" class="btn-outline"/>
          <text x="185" y="17" class="text-primary" font-size="11" text-anchor="middle">Tâches</text>
        </g>

        <!-- Info banner -->
        <g transform="translate(0, 100)">
          <rect x="0" y="0" width="1036" height="36" rx="6" class="bg-info"/>
          <text x="20" y="23" fill="#1E40AF" font-size="12">ℹ Une mise à jour est disponible pour votre OverTheBox.</text>
          <text x="950" y="23" class="text-primary" font-size="11">Mettre à jour</text>
        </g>

        <!-- Two column layout -->
        <g transform="translate(0, 150)">
          <!-- Left column - Informations générales -->
          <g transform="translate(0, 0)">
            <rect x="0" y="0" width="500" height="280" rx="6" class="bg-white" stroke="#E5E7EB"/>
            <text x="20" y="28" class="text-dark" font-size="15" font-weight="700">INFORMATIONS GÉNÉRALES</text>
            <line x1="20" y1="45" x2="480" y2="45" class="divider"/>

            <g transform="translate(20, 60)">
              <text x="0" y="15" class="text-muted" font-size="11">État de l'appareil</text>
              <g transform="translate(150, 0)">
                <rect x="0" y="2" width="50" height="18" rx="9" fill="#DEF7EC"/>
                <text x="25" y="15" fill="#03543F" font-size="10" text-anchor="middle">Actif</text>
              </g>

              <text x="0" y="50" class="text-muted" font-size="11">Date de facturation</text>
              <text x="150" y="50" class="text-dark" font-size="11">15/01/2026</text>

              <text x="0" y="85" class="text-muted" font-size="11">Offre</text>
              <text x="150" y="85" class="text-dark" font-size="11" font-weight="600">OverTheBox Plus</text>
            </g>

            <g transform="translate(20, 170)">
              <rect x="0" y="0" width="100" height="30" rx="4" class="btn-outline"/>
              <text x="50" y="20" class="text-primary" font-size="11" text-anchor="middle">Résilier</text>

              <rect x="110" y="0" width="130" height="30" rx="4" class="btn-outline"/>
              <text x="175" y="20" class="text-primary" font-size="11" text-anchor="middle">Changer d'offre</text>
            </g>
          </g>

          <!-- Right column - Informations appareil -->
          <g transform="translate(520, 0)">
            <rect x="0" y="0" width="500" height="280" rx="6" class="bg-white" stroke="#E5E7EB"/>
            <text x="20" y="28" class="text-dark" font-size="15" font-weight="700">INFORMATIONS APPAREIL</text>
            <line x1="20" y1="45" x2="480" y2="45" class="divider"/>

            <g transform="translate(20, 60)">
              <text x="0" y="15" class="text-muted" font-size="11">Identifiant service</text>
              <text x="180" y="15" class="text-dark" font-size="11">otb-xxx123</text>

              <text x="0" y="50" class="text-muted" font-size="11">Identifiant appareil</text>
              <text x="180" y="50" class="text-dark" font-size="11">device-abc123def456</text>

              <text x="0" y="85" class="text-muted" font-size="11">Version système</text>
              <text x="180" y="85" class="text-dark" font-size="11">v0.9.12</text>

              <text x="0" y="120" class="text-muted" font-size="11">Adresse IP publique</text>
              <text x="180" y="120" class="text-dark" font-size="11">91.134.xxx.xxx</text>

              <text x="0" y="155" class="text-muted" font-size="11">IPv6</text>
              <g transform="translate(180, 140)">
                <rect x="0" y="0" width="50" height="24" rx="12" fill="#0050D7"/>
                <circle cx="38" cy="12" r="9" fill="#FFFFFF"/>
              </g>
            </g>
          </g>
        </g>

        <!-- Interfaces réseau -->
        <g transform="translate(0, 450)">
          <rect x="0" y="0" width="1036" height="280" rx="6" class="bg-white" stroke="#E5E7EB"/>
          <text x="20" y="28" class="text-dark" font-size="15" font-weight="700">INTERFACES RÉSEAU</text>
          <line x1="20" y1="45" x2="1016" y2="45" class="divider"/>

          <!-- Table header -->
          <g transform="translate(20, 55)">
            <rect x="0" y="0" width="996" height="35" rx="4" class="table-header"/>
            <text x="20" y="23" class="text-dark" font-size="11" font-weight="600">Interface</text>
            <text x="120" y="23" class="text-dark" font-size="11" font-weight="600">Type</text>
            <text x="250" y="23" class="text-dark" font-size="11" font-weight="600">IP</text>
            <text x="400" y="23" class="text-dark" font-size="11" font-weight="600">Passerelle</text>
            <text x="550" y="23" class="text-dark" font-size="11" font-weight="600">Débit</text>
            <text x="780" y="23" class="text-dark" font-size="11" font-weight="600">Statut</text>
          </g>

          <!-- Row 1 -->
          <g transform="translate(20, 95)">
            <text x="20" y="18" class="text-dark" font-size="11" font-weight="600">if0</text>
            <text x="120" y="18" class="text-dark" font-size="11">WAN (DHCP)</text>
            <text x="250" y="18" class="text-dark" font-size="11">192.168.1.100</text>
            <text x="400" y="18" class="text-dark" font-size="11">192.168.1.1</text>
            <text x="550" y="18" class="text-dark" font-size="11">↓ 100 Mbps / ↑ 50 Mbps</text>
            <rect x="780" y="3" width="50" height="18" rx="9" fill="#DEF7EC"/>
            <text x="805" y="16" fill="#03543F" font-size="10" text-anchor="middle">Actif</text>
            <line x1="0" y1="35" x2="996" y2="35" class="divider"/>
          </g>

          <!-- Row 2 -->
          <g transform="translate(20, 135)">
            <text x="20" y="18" class="text-dark" font-size="11" font-weight="600">if1</text>
            <text x="120" y="18" class="text-dark" font-size="11">WAN (PPPoE)</text>
            <text x="250" y="18" class="text-dark" font-size="11">80.12.xxx.xxx</text>
            <text x="400" y="18" class="text-dark" font-size="11">-</text>
            <text x="550" y="18" class="text-dark" font-size="11">↓ 25 Mbps / ↑ 5 Mbps</text>
            <rect x="780" y="3" width="50" height="18" rx="9" fill="#DEF7EC"/>
            <text x="805" y="16" fill="#03543F" font-size="10" text-anchor="middle">Actif</text>
            <line x1="0" y1="35" x2="996" y2="35" class="divider"/>
          </g>

          <!-- Row 3 -->
          <g transform="translate(20, 175)">
            <text x="20" y="18" class="text-dark" font-size="11" font-weight="600">if2</text>
            <text x="120" y="18" class="text-dark" font-size="11">4G (USB)</text>
            <text x="250" y="18" class="text-dark" font-size="11">10.0.0.1</text>
            <text x="400" y="18" class="text-dark" font-size="11">10.0.0.254</text>
            <text x="550" y="18" class="text-dark" font-size="11">↓ 30 Mbps / ↑ 10 Mbps</text>
            <rect x="780" y="3" width="50" height="18" rx="9" fill="#FEE2E2"/>
            <text x="805" y="16" fill="#DC2626" font-size="10" text-anchor="middle">Inactif</text>
            <line x1="0" y1="35" x2="996" y2="35" class="divider"/>
          </g>
        </g>
      </g>
    </g>
  </g>
</svg>
