<?xml version="1.0" encoding="UTF-8"?>
<svg width="1100" height="700" viewBox="0 0 1100 700" fill="none" xmlns="http://www.w3.org/2000/svg">
  <title>Private Storage - Dashboard</title>
  <rect width="1100" height="700" fill="#F9FAFB"/>
  <g transform="translate(30, 30)">
    <text x="0" y="0" fill="#1F2937" font-family="system-ui, sans-serif" font-size="22" font-weight="600">NAS-HA zpool-xxxxx</text>
    <rect x="200" y="-15" width="60" height="24" rx="4" fill="#DCFCE7"/>
    <text x="215" y="3" fill="#16A34A" font-family="system-ui, sans-serif" font-size="11">Actif</text>
    <text x="0" y="28" fill="#6B7280" font-family="system-ui, sans-serif" font-size="13">10 To • Gravelines (GRA)</text>
  </g>
  <g transform="translate(30, 85)">
    <rect x="0" y="0" width="330" height="130" rx="8" fill="white" stroke="#E5E7EB"/>
    <text x="20" y="30" fill="#6B7280" font-family="system-ui, sans-serif" font-size="12">Espace total</text>
    <text x="20" y="70" fill="#1F2937" font-family="system-ui, sans-serif" font-size="36" font-weight="600">10 To</text>
    <rect x="20" y="95" width="290" height="10" rx="3" fill="#E5E7EB"/>
    <rect x="20" y="95" width="174" height="10" rx="3" fill="#0050D7"/>
    <text x="20" y="120" fill="#6B7280" font-family="system-ui, sans-serif" font-size="11">Utilisé: 6 To (60%)</text>
    <rect x="355" y="0" width="330" height="130" rx="8" fill="white" stroke="#E5E7EB"/>
    <text x="375" y="30" fill="#6B7280" font-family="system-ui, sans-serif" font-size="12">Partitions</text>
    <text x="375" y="70" fill="#1F2937" font-family="system-ui, sans-serif" font-size="36" font-weight="600">5</text>
    <text x="410" y="70" fill="#6B7280" font-family="system-ui, sans-serif" font-size="14">partitions</text>
    <text x="375" y="100" fill="#6B7280" font-family="system-ui, sans-serif" font-size="11">NFS: 3 • CIFS: 1 • NFS+CIFS: 1</text>
    <rect x="710" y="0" width="330" height="130" rx="8" fill="white" stroke="#E5E7EB"/>
    <text x="730" y="30" fill="#6B7280" font-family="system-ui, sans-serif" font-size="12">Snapshots</text>
    <text x="730" y="70" fill="#1F2937" font-family="system-ui, sans-serif" font-size="36" font-weight="600">42</text>
    <text x="790" y="70" fill="#6B7280" font-family="system-ui, sans-serif" font-size="14">snapshots</text>
    <text x="730" y="100" fill="#6B7280" font-family="system-ui, sans-serif" font-size="11">Espace: 1.2 To</text>
  </g>
  <g transform="translate(30, 240)">
    <text x="0" y="0" fill="#1F2937" font-family="system-ui, sans-serif" font-size="16" font-weight="600">Informations générales</text>
    <rect x="0" y="20" width="500" height="200" rx="8" fill="white" stroke="#E5E7EB"/>
    <g transform="translate(20, 50)">
      <text x="0" y="0" fill="#6B7280" font-family="system-ui, sans-serif" font-size="12">Service</text>
      <text x="150" y="0" fill="#1F2937" font-family="system-ui, sans-serif" font-size="13">zpool-xxxxx</text>
    </g>
    <g transform="translate(20, 80)">
      <text x="0" y="0" fill="#6B7280" font-family="system-ui, sans-serif" font-size="12">Localisation</text>
      <text x="150" y="0" fill="#1F2937" font-family="system-ui, sans-serif" font-size="13">Gravelines (GRA)</text>
    </g>
    <g transform="translate(20, 110)">
      <text x="0" y="0" fill="#6B7280" font-family="system-ui, sans-serif" font-size="12">IP de connexion</text>
      <text x="150" y="0" fill="#0050D7" font-family="system-ui, sans-serif" font-size="13">zpool-xxxxx.nasha.ovh.net</text>
    </g>
    <g transform="translate(20, 140)">
      <text x="0" y="0" fill="#6B7280" font-family="system-ui, sans-serif" font-size="12">Capacité</text>
      <text x="150" y="0" fill="#1F2937" font-family="system-ui, sans-serif" font-size="13">10 To</text>
    </g>
    <g transform="translate(20, 170)">
      <text x="0" y="0" fill="#6B7280" font-family="system-ui, sans-serif" font-size="12">Compression ZFS</text>
      <text x="150" y="0" fill="#1F2937" font-family="system-ui, sans-serif" font-size="13">lz4 (actif)</text>
    </g>
  </g>
  <g transform="translate(560, 240)">
    <text x="0" y="0" fill="#1F2937" font-family="system-ui, sans-serif" font-size="16" font-weight="600">Actions rapides</text>
    <rect x="0" y="20" width="480" height="200" rx="8" fill="white" stroke="#E5E7EB"/>
    <g transform="translate(20, 50)">
      <rect x="0" y="0" width="200" height="45" rx="4" fill="#0050D7"/>
      <text x="30" y="29" fill="white" font-family="system-ui, sans-serif" font-size="13">+ Créer une partition</text>
    </g>
    <g transform="translate(240, 50)">
      <rect x="0" y="0" width="200" height="45" rx="4" fill="white" stroke="#E5E7EB"/>
      <text x="50" y="29" fill="#1F2937" font-family="system-ui, sans-serif" font-size="13">Métriques</text>
    </g>
    <g transform="translate(20, 110)">
      <rect x="0" y="0" width="200" height="45" rx="4" fill="white" stroke="#E5E7EB"/>
      <text x="45" y="29" fill="#1F2937" font-family="system-ui, sans-serif" font-size="13">Modifier le nom</text>
    </g>
    <g transform="translate(240, 110)">
      <rect x="0" y="0" width="200" height="45" rx="4" fill="white" stroke="#E5E7EB"/>
      <text x="35" y="29" fill="#1F2937" font-family="system-ui, sans-serif" font-size="13">Tâches en cours</text>
    </g>
  </g>
  <g transform="translate(30, 470)">
    <text x="0" y="0" fill="#1F2937" font-family="system-ui, sans-serif" font-size="16" font-weight="600">Partitions</text>
    <rect x="0" y="20" width="1040" height="180" rx="8" fill="white" stroke="#E5E7EB"/>
    <rect x="0" y="20" width="1040" height="40" rx="8" fill="#F3F4F6"/>
    <text x="20" y="48" fill="#1F2937" font-family="system-ui, sans-serif" font-size="12" font-weight="600">Nom</text>
    <text x="200" y="48" fill="#1F2937" font-family="system-ui, sans-serif" font-size="12" font-weight="600">Protocole</text>
    <text x="320" y="48" fill="#1F2937" font-family="system-ui, sans-serif" font-size="12" font-weight="600">Taille</text>
    <text x="420" y="48" fill="#1F2937" font-family="system-ui, sans-serif" font-size="12" font-weight="600">Utilisation</text>
    <text x="620" y="48" fill="#1F2937" font-family="system-ui, sans-serif" font-size="12" font-weight="600">Snapshots</text>
    <line x1="0" y1="60" x2="1040" y2="60" stroke="#E5E7EB"/>
    <text x="20" y="90" fill="#0050D7" font-family="system-ui, sans-serif" font-size="13">backup-prod</text>
    <text x="200" y="90" fill="#1F2937" font-family="system-ui, sans-serif" font-size="13">NFS</text>
    <text x="320" y="90" fill="#1F2937" font-family="system-ui, sans-serif" font-size="13">3 To</text>
    <rect x="420" y="77" width="160" height="16" rx="2" fill="#E5E7EB"/>
    <rect x="420" y="77" width="128" height="16" rx="2" fill="#0050D7"/>
    <text x="490" y="90" fill="white" font-family="system-ui, sans-serif" font-size="9">80%</text>
    <text x="620" y="90" fill="#1F2937" font-family="system-ui, sans-serif" font-size="13">7</text>
    <line x1="0" y1="110" x2="1040" y2="110" stroke="#E5E7EB"/>
    <text x="20" y="140" fill="#0050D7" font-family="system-ui, sans-serif" font-size="13">data-share</text>
    <text x="200" y="140" fill="#1F2937" font-family="system-ui, sans-serif" font-size="13">CIFS</text>
    <text x="320" y="140" fill="#1F2937" font-family="system-ui, sans-serif" font-size="13">2 To</text>
    <rect x="420" y="127" width="160" height="16" rx="2" fill="#E5E7EB"/>
    <rect x="420" y="127" width="80" height="16" rx="2" fill="#0050D7"/>
    <text x="490" y="140" fill="white" font-family="system-ui, sans-serif" font-size="9">50%</text>
    <text x="620" y="140" fill="#1F2937" font-family="system-ui, sans-serif" font-size="13">14</text>
    <text x="480" y="175" fill="#0050D7" font-family="system-ui, sans-serif" font-size="13">Voir toutes les partitions →</text>
  </g>
</svg>
