<svg xmlns="http://www.w3.org/2000/svg" viewBox="0 0 1440 900" width="1440" height="900">
  <defs>
    <style>
      .bg-header { fill: #000E9C; }
      .bg-main { fill: #F6F6F9; }
      .bg-white { fill: #FFFFFF; }
      .border { stroke: #E5E7EB; stroke-width: 1; fill: none; }
      .divider { stroke: #E5E7EB; stroke-width: 1; }
      .text-white { fill: #FFFFFF; font-family: 'Source Sans Pro', sans-serif; }
      .text-dark { fill: #1F2937; font-family: 'Source Sans Pro', sans-serif; }
      .text-muted { fill: #6B7280; font-family: 'Source Sans Pro', sans-serif; }
      .text-primary { fill: #0050D7; font-family: 'Source Sans Pro', sans-serif; }
    </style>
  </defs>
  <rect width="1440" height="900" class="bg-main"/>
  <rect width="1440" height="50" class="bg-header"/>
  <rect x="0" y="50" width="1440" height="40" class="bg-white"/>
  <text x="40" y="75" class="text-primary" font-size="14" font-weight="600">Mon compte</text>

  <g transform="translate(40, 115)">
    <text x="0" y="0" class="text-dark" font-size="24" font-weight="600">Historique des emails</text>
    <text x="0" y="25" class="text-muted" font-size="13">Consultez les emails envoyés par OVHcloud</text>
  </g>

  <g transform="translate(40, 180)">
    <rect x="0" y="0" width="1360" height="650" rx="8" class="bg-white"/>
    <rect x="0" y="0" width="1360" height="650" rx="8" class="border"/>

    <!-- Filters -->
    <g transform="translate(20, 20)">
      <rect x="0" y="0" width="200" height="36" rx="4" fill="#F9FAFB" stroke="#E5E7EB"/>
      <text x="15" y="23" class="text-muted" font-size="12">🔍 Rechercher...</text>
      
      <rect x="220" y="0" width="150" height="36" rx="4" fill="#F9FAFB" stroke="#E5E7EB"/>
      <text x="235" y="23" class="text-muted" font-size="12">Type: Tous</text>
      <text x="355" y="23" class="text-muted" font-size="10">▼</text>
    </g>

    <!-- Table -->
    <g transform="translate(0, 75)">
      <rect x="0" y="0" width="1360" height="40" fill="#F9FAFB"/>
      <text x="30" y="26" class="text-muted" font-size="11" font-weight="600">DATE</text>
      <text x="180" y="26" class="text-muted" font-size="11" font-weight="600">SUJET</text>
      <text x="700" y="26" class="text-muted" font-size="11" font-weight="600">DESTINATAIRE</text>
      <text x="1000" y="26" class="text-muted" font-size="11" font-weight="600">STATUT</text>
      <text x="1200" y="26" class="text-muted" font-size="11" font-weight="600">ACTIONS</text>

      <!-- Row 1 -->
      <rect x="0" y="40" width="1360" height="50" class="bg-white"/>
      <line x1="0" y1="90" x2="1360" y2="90" class="divider"/>
      <text x="30" y="70" class="text-dark" font-size="12">02/01/2026 10:30</text>
      <text x="180" y="70" class="text-dark" font-size="12">Votre facture FR202601001 est disponible</text>
      <text x="700" y="70" class="text-dark" font-size="12">jean.dupont@example.com</text>
      <rect x="1000" y="55" width="60" height="22" rx="11" fill="#DEF7EC"/>
      <text x="1030" y="70" fill="#059669" font-size="10" text-anchor="middle">Envoyé</text>
      <text x="1220" y="70" class="text-primary" font-size="12">Voir détails</text>

      <!-- Row 2 -->
      <rect x="0" y="90" width="1360" height="50" class="bg-white"/>
      <line x1="0" y1="140" x2="1360" y2="140" class="divider"/>
      <text x="30" y="120" class="text-dark" font-size="12">01/01/2026 14:22</text>
      <text x="180" y="120" class="text-dark" font-size="12">Confirmation de commande #123456</text>
      <text x="700" y="120" class="text-dark" font-size="12">jean.dupont@example.com</text>
      <rect x="1000" y="105" width="60" height="22" rx="11" fill="#DEF7EC"/>
      <text x="1030" y="120" fill="#059669" font-size="10" text-anchor="middle">Envoyé</text>
      <text x="1220" y="120" class="text-primary" font-size="12">Voir détails</text>

      <!-- Row 3 -->
      <rect x="0" y="140" width="1360" height="50" class="bg-white"/>
      <line x1="0" y1="190" x2="1360" y2="190" class="divider"/>
      <text x="30" y="170" class="text-dark" font-size="12">28/12/2025 09:15</text>
      <text x="180" y="170" class="text-dark" font-size="12">Alerte de sécurité - Nouvelle connexion détectée</text>
      <text x="700" y="170" class="text-dark" font-size="12">jean.dupont@example.com</text>
      <rect x="1000" y="155" width="60" height="22" rx="11" fill="#DEF7EC"/>
      <text x="1030" y="170" fill="#059669" font-size="10" text-anchor="middle">Envoyé</text>
      <text x="1220" y="170" class="text-primary" font-size="12">Voir détails</text>
    </g>

    <!-- Pagination -->
    <g transform="translate(20, 600)">
      <text x="0" y="15" class="text-muted" font-size="11">Affichage 1-3 sur 156</text>
      <g transform="translate(1200, 0)">
        <rect x="0" y="0" width="28" height="26" rx="4" fill="#E5E7EB"/>
        <text x="14" y="17" class="text-muted" font-size="12" text-anchor="middle">‹</text>
        <rect x="34" y="0" width="28" height="26" rx="4" fill="#0050D7"/>
        <text x="48" y="17" class="text-white" font-size="11" text-anchor="middle">1</text>
        <rect x="68" y="0" width="28" height="26" rx="4" fill="#FFFFFF" stroke="#E5E7EB"/>
        <text x="82" y="17" class="text-muted" font-size="11" text-anchor="middle">2</text>
        <rect x="102" y="0" width="28" height="26" rx="4" fill="#E5E7EB"/>
        <text x="116" y="17" class="text-muted" font-size="12" text-anchor="middle">›</text>
      </g>
    </g>
  </g>
</svg>
