<svg xmlns="http://www.w3.org/2000/svg" viewBox="0 0 1440 900" width="1440" height="900">
  <defs>
    <style>
      .bg-page { fill: #F6F6F9; }
      .bg-header { fill: #000E9C; }
      .bg-nav2 { fill: #FFFFFF; }
      .bg-white { fill: #FFFFFF; }
      .bg-primary { fill: #0050D7; }
      .text-white { fill: #FFFFFF; font-family: 'Source Sans Pro', sans-serif; }
      .text-dark { fill: #1F2937; font-family: 'Source Sans Pro', sans-serif; }
      .text-muted { fill: #6B7280; font-family: 'Source Sans Pro', sans-serif; }
      .text-primary { fill: #0050D7; font-family: 'Source Sans Pro', sans-serif; }
      .text-danger { fill: #DC2626; font-family: 'Source Sans Pro', sans-serif; }
      .border { stroke: #E5E7EB; stroke-width: 1; fill: none; }
      .input-bg { fill: #FFFFFF; stroke: #E5E7EB; }
    </style>
  </defs>

  <!-- Background -->
  <rect width="1440" height="900" class="bg-page"/>

  <!-- NAV1 Header -->
  <rect width="1440" height="50" class="bg-header"/>
  <text x="24" y="32" class="text-white" font-size="14" font-weight="600">OVHcloud</text>
  <text x="200" y="32" class="text-white" font-size="14" font-weight="600">Espace client</text>

  <!-- NAV2 -->
  <rect y="50" width="1440" height="40" class="bg-nav2"/>
  <line x1="0" y1="90" x2="1440" y2="90" class="border"/>
  <text x="24" y="76" class="text-dark" font-size="14">Mon compte</text>
  <text x="130" y="76" class="text-muted" font-size="14">›</text>
  <text x="150" y="76" class="text-dark" font-size="14">Contacts</text>
  <text x="230" y="76" class="text-muted" font-size="14">›</text>
  <text x="250" y="76" class="text-primary" font-size="14">Propriétaire</text>

  <!-- LEFT PANEL -->
  <rect x="24" y="105" width="280" height="765" rx="8" class="bg-white"/>

  <!-- NAV3 Selector -->
  <rect x="36" y="117" width="256" height="36" rx="4" fill="#F9FAFB"/>
  <rect x="40" y="121" width="80" height="28" rx="4" class="bg-primary"/>
  <text x="60" y="140" class="text-white" font-size="11">Général</text>
  <text x="145" y="140" class="text-muted" font-size="11">Services</text>
  <text x="215" y="140" class="text-muted" font-size="11">Demandes</text>

  <!-- Search -->
  <rect x="36" y="165" width="256" height="36" rx="4" class="input-bg"/>
  <text x="52" y="188" class="text-muted" font-size="13">🔍 Rechercher...</text>

  <!-- RIGHT PANEL - Form -->
  <rect x="320" y="105" width="1096" height="765" rx="8" class="bg-white"/>

  <!-- Title -->
  <text x="344" y="145" class="text-dark" font-size="18" font-weight="600">Détails du contact propriétaire</text>

  <!-- Form - 2 Columns -->
  <!-- Col 1 -->
  <text x="344" y="190" class="text-dark" font-size="12" font-weight="500">Forme juridique <tspan class="text-danger">*</tspan></text>
  <rect x="344" y="200" width="350" height="36" rx="4" class="input-bg"/>
  <text x="356" y="224" class="text-dark" font-size="13">Particulier</text>
  <text x="670" y="224" class="text-muted" font-size="12">▼</text>

  <text x="344" y="260" class="text-dark" font-size="12" font-weight="500">Prénom <tspan class="text-danger">*</tspan></text>
  <rect x="344" y="270" width="350" height="36" rx="4" class="input-bg"/>
  <text x="356" y="294" class="text-dark" font-size="13">Jean</text>

  <text x="344" y="330" class="text-dark" font-size="12" font-weight="500">Nom <tspan class="text-danger">*</tspan></text>
  <rect x="344" y="340" width="350" height="36" rx="4" class="input-bg"/>
  <text x="356" y="364" class="text-dark" font-size="13">Dupont</text>

  <text x="344" y="400" class="text-dark" font-size="12" font-weight="500">Genre</text>
  <rect x="344" y="410" width="350" height="36" rx="4" class="input-bg"/>
  <text x="356" y="434" class="text-dark" font-size="13">Monsieur</text>
  <text x="670" y="434" class="text-muted" font-size="12">▼</text>

  <text x="344" y="470" class="text-dark" font-size="12" font-weight="500">Date de naissance</text>
  <rect x="344" y="480" width="350" height="36" rx="4" class="input-bg"/>
  <text x="356" y="504" class="text-dark" font-size="13">15/06/1985</text>

  <text x="344" y="540" class="text-dark" font-size="12" font-weight="500">Nationalité</text>
  <rect x="344" y="550" width="350" height="36" rx="4" class="input-bg"/>
  <text x="356" y="574" class="text-dark" font-size="13">France</text>
  <text x="670" y="574" class="text-muted" font-size="12">▼</text>

  <text x="344" y="610" class="text-dark" font-size="12" font-weight="500">Langue <tspan class="text-danger">*</tspan></text>
  <rect x="344" y="620" width="350" height="36" rx="4" class="input-bg"/>
  <text x="356" y="644" class="text-dark" font-size="13">Français</text>
  <text x="670" y="644" class="text-muted" font-size="12">▼</text>

  <!-- Col 2 -->
  <text x="720" y="190" class="text-dark" font-size="12" font-weight="500">Adresse ligne 1 <tspan class="text-danger">*</tspan></text>
  <rect x="720" y="200" width="350" height="36" rx="4" class="input-bg"/>
  <text x="732" y="224" class="text-dark" font-size="13">123 rue de la République</text>

  <text x="720" y="260" class="text-dark" font-size="12" font-weight="500">Adresse ligne 2</text>
  <rect x="720" y="270" width="350" height="36" rx="4" class="input-bg"/>
  <text x="732" y="294" class="text-muted" font-size="13">-</text>

  <text x="720" y="330" class="text-dark" font-size="12" font-weight="500">Code postal <tspan class="text-danger">*</tspan></text>
  <rect x="720" y="340" width="160" height="36" rx="4" class="input-bg"/>
  <text x="732" y="364" class="text-dark" font-size="13">75001</text>

  <text x="900" y="330" class="text-dark" font-size="12" font-weight="500">Ville <tspan class="text-danger">*</tspan></text>
  <rect x="900" y="340" width="170" height="36" rx="4" class="input-bg"/>
  <text x="912" y="364" class="text-dark" font-size="13">Paris</text>

  <text x="720" y="400" class="text-dark" font-size="12" font-weight="500">Pays <tspan class="text-danger">*</tspan></text>
  <rect x="720" y="410" width="350" height="36" rx="4" class="input-bg"/>
  <text x="732" y="434" class="text-dark" font-size="13">France</text>
  <text x="1046" y="434" class="text-muted" font-size="12">▼</text>

  <text x="720" y="470" class="text-dark" font-size="12" font-weight="500">Téléphone <tspan class="text-danger">*</tspan></text>
  <rect x="720" y="480" width="350" height="36" rx="4" class="input-bg"/>
  <text x="732" y="504" class="text-dark" font-size="13">+33 1 23 45 67 89</text>

  <text x="720" y="540" class="text-dark" font-size="12" font-weight="500">Email <tspan class="text-danger">*</tspan></text>
  <rect x="720" y="550" width="350" height="36" rx="4" class="input-bg"/>
  <text x="732" y="574" class="text-dark" font-size="13">jean.dupont@email.com</text>

  <!-- External Link -->
  <text x="720" y="630" class="text-primary" font-size="13">↗ Changer de propriétaire</text>

  <!-- Footer Buttons -->
  <line x1="320" y1="820" x2="1416" y2="820" class="border"/>
  <rect x="1170" y="835" width="100" height="36" rx="4" fill="#FFFFFF" stroke="#E5E7EB"/>
  <text x="1195" y="859" class="text-dark" font-size="13">Annuler</text>
  <rect x="1280" y="835" width="120" height="36" rx="4" class="bg-primary"/>
  <text x="1310" y="859" class="text-white" font-size="13">Modifier</text>
</svg>
