<svg xmlns="http://www.w3.org/2000/svg" viewBox="0 0 1440 900" width="1440" height="900">
  <defs>
    <style>
      .bg-header { fill: #000E9C; }
      .bg-main { fill: #F6F6F9; }
      .bg-white { fill: #FFFFFF; }
      .bg-primary { fill: #0050D7; }
      .bg-info { fill: #DBEAFE; }
      .bg-success { fill: #DEF7EC; }
      .border { stroke: #E5E7EB; stroke-width: 1; fill: none; }
      .divider { stroke: #E5E7EB; stroke-width: 1; }
      .text-white { fill: #FFFFFF; font-family: 'Source Sans Pro', sans-serif; }
      .text-dark { fill: #1F2937; font-family: 'Source Sans Pro', sans-serif; }
      .text-muted { fill: #6B7280; font-family: 'Source Sans Pro', sans-serif; }
      .text-primary { fill: #0050D7; font-family: 'Source Sans Pro', sans-serif; }
      .text-info { fill: #1E40AF; font-family: 'Source Sans Pro', sans-serif; }
      .text-success { fill: #059669; font-family: 'Source Sans Pro', sans-serif; }
    </style>
  </defs>

  <!-- Background -->
  <rect width="1440" height="900" class="bg-main"/>

  <!-- NAV1 -->
  <rect width="1440" height="50" class="bg-header"/>
  <text x="40" y="32" class="text-white" font-size="14" opacity="0.7">Accueil</text>

  <!-- NAV2 -->
  <rect x="0" y="50" width="1440" height="40" class="bg-white"/>
  <line x1="0" y1="89" x2="1440" y2="89" class="divider"/>
  <text x="40" y="75" class="text-primary" font-size="14" font-weight="600">Mon compte</text>

  <!-- Page header + tabs -->
  <g transform="translate(40, 115)">
    <text x="0" y="0" class="text-dark" font-size="24" font-weight="600">Mon profil</text>
    <g transform="translate(0, 40)">
      <rect x="0" y="0" width="100" height="32" rx="4" fill="#FFFFFF" stroke="#E5E7EB"/>
      <text x="50" y="21" class="text-muted" font-size="12" text-anchor="middle">Tableau de bord</text>
      <rect x="110" y="0" width="80" height="32" rx="4" fill="#0050D7"/>
      <text x="150" y="21" class="text-white" font-size="12" text-anchor="middle">Sécurité</text>
    </g>
  </g>

  <!-- Security content -->
  <g transform="translate(40, 200)">
    <!-- Info banner -->
    <rect x="0" y="0" width="1360" height="60" rx="6" class="bg-info"/>
    <text x="20" y="25" class="text-info" font-size="13" font-weight="600">⚠️ Important</text>
    <text x="20" y="45" class="text-info" font-size="12">Pour renforcer la sécurité de votre compte, nous vous recommandons d'activer la double authentification.</text>

    <!-- Security box -->
    <rect x="0" y="80" width="1360" height="580" rx="8" class="bg-white"/>
    <rect x="0" y="80" width="1360" height="580" rx="8" class="border"/>

    <!-- Password section -->
    <g transform="translate(30, 110)">
      <text x="30" y="0" class="text-dark" font-size="15" font-weight="600">🔑 Mot de passe</text>
      <rect x="1200" y="-15" width="100" height="32" rx="4" fill="#0050D7"/>
      <text x="1250" y="6" class="text-white" font-size="11" text-anchor="middle">Modifier</text>
    </g>
    <line x1="30" y1="210" x2="1330" y2="210" class="divider"/>

    <!-- Double auth section -->
    <g transform="translate(30, 160)">
      <text x="30" y="0" class="text-dark" font-size="15" font-weight="600">🔐 Double authentification</text>
      <rect x="280" y="-12" width="50" height="20" rx="10" class="bg-success"/>
      <text x="305" y="3" class="text-success" font-size="10" text-anchor="middle">ACTIF</text>
    </g>

    <!-- 2FA Methods -->
    <g transform="translate(60, 250)">
      <!-- SMS -->
      <g transform="translate(0, 0)">
        <rect x="0" y="0" width="42" height="42" rx="4" fill="#F3F4F6"/>
        <text x="21" y="28" font-size="20" text-anchor="middle">📱</text>
        <text x="60" y="15" class="text-dark" font-size="13" font-weight="500">✓ SMS</text>
        <text x="60" y="35" class="text-muted" font-size="11">Vérification par SMS</text>
        
        <!-- Table -->
        <g transform="translate(0, 55)">
          <rect x="0" y="0" width="600" height="30" fill="#F9FAFB"/>
          <text x="10" y="20" class="text-muted" font-size="10" font-weight="600">NUMÉRO</text>
          <text x="200" y="20" class="text-muted" font-size="10" font-weight="600">DESCRIPTION</text>
          <rect x="0" y="30" width="600" height="35" class="bg-white"/>
          <text x="10" y="52" class="text-dark" font-size="11">+33 6 XX XX XX XX</text>
          <text x="200" y="52" class="text-muted" font-size="11">Téléphone principal</text>
          <text x="570" y="52" class="text-muted" font-size="14">⋮</text>
        </g>
        <rect x="0" y="130" width="140" height="28" rx="4" fill="#FFFFFF" stroke="#E5E7EB"/>
        <text x="70" y="148" class="text-muted" font-size="11" text-anchor="middle">+ Ajouter un SMS</text>
      </g>

      <!-- TOTP -->
      <g transform="translate(0, 180)">
        <rect x="0" y="0" width="42" height="42" rx="4" fill="#F3F4F6"/>
        <text x="21" y="28" font-size="20" text-anchor="middle">📲</text>
        <text x="60" y="15" class="text-dark" font-size="13" font-weight="500">✓ Application mobile (TOTP)</text>
        <text x="60" y="35" class="text-muted" font-size="11">Google Authenticator, Authy...</text>
        <rect x="0" y="50" width="180" height="28" rx="4" fill="#FFFFFF" stroke="#E5E7EB"/>
        <text x="90" y="68" class="text-muted" font-size="11" text-anchor="middle">+ Ajouter une application</text>
      </g>

      <!-- U2F -->
      <g transform="translate(650, 0)">
        <rect x="0" y="0" width="42" height="42" rx="4" fill="#F3F4F6"/>
        <text x="21" y="28" font-size="20" text-anchor="middle">🔐</text>
        <text x="60" y="15" class="text-dark" font-size="13" font-weight="500">Clé de sécurité (U2F)</text>
        <text x="60" y="35" class="text-muted" font-size="11">YubiKey, Titan...</text>
        <rect x="0" y="50" width="140" height="28" rx="4" fill="#FFFFFF" stroke="#E5E7EB"/>
        <text x="70" y="68" class="text-muted" font-size="11" text-anchor="middle">+ Ajouter une clé</text>
      </g>

      <!-- Backup codes -->
      <g transform="translate(650, 120)">
        <rect x="0" y="0" width="42" height="42" rx="4" fill="#F3F4F6"/>
        <text x="21" y="28" font-size="20" text-anchor="middle">📋</text>
        <text x="60" y="15" class="text-dark" font-size="13" font-weight="500">✓ Codes de secours</text>
        <text x="60" y="35" class="text-muted" font-size="11">8 codes restants</text>
        <rect x="0" y="50" width="100" height="28" rx="4" fill="#FFFFFF" stroke="#E5E7EB"/>
        <text x="50" y="68" class="text-muted" font-size="11" text-anchor="middle">Gérer</text>
        <rect x="110" y="50" width="100" height="28" rx="4" fill="#FFFFFF" stroke="#E5E7EB"/>
        <text x="160" y="68" class="text-muted" font-size="11" text-anchor="middle">Supprimer</text>
      </g>
    </g>

    <!-- IP Restrictions section -->
    <line x1="30" y1="520" x2="1330" y2="520" class="divider"/>
    <g transform="translate(30, 550)">
      <text x="30" y="0" class="text-dark" font-size="15" font-weight="600">🌐 Restrictions IP</text>
      <rect x="1200" y="-15" width="100" height="32" rx="4" fill="#0050D7"/>
      <text x="1250" y="6" class="text-white" font-size="11" text-anchor="middle">Activer</text>
    </g>
  </g>
</svg>
