<svg xmlns="http://www.w3.org/2000/svg" viewBox="0 0 1440 900" width="1440" height="900">
  <defs>
    <style>
      .bg-main { fill: #F6F6F9; }
      .bg-header { fill: #000E9C; }
      .bg-white { fill: #FFFFFF; }
      .border { stroke: #E5E7EB; stroke-width: 1; fill: none; }
      .btn-primary { fill: #0050D7; }
      .text-white { fill: #FFFFFF; font-family: 'Source Sans Pro', sans-serif; }
      .text-dark { fill: #1F2937; font-family: 'Source Sans Pro', sans-serif; }
      .text-muted { fill: #6B7280; font-family: 'Source Sans Pro', sans-serif; }
      .text-primary { fill: #0050D7; font-family: 'Source Sans Pro', sans-serif; }
      .table-header { fill: #F9FAFB; }
      .row-hover { fill: #F3F4F6; }
    </style>
  </defs>

  <!-- Background -->
  <rect width="1440" height="900" class="bg-main"/>

  <!-- NAV1 - Header OVH -->
  <rect width="1440" height="50" class="bg-header"/>
  <text x="40" y="32" class="text-white" font-size="14" opacity="0.7">Accueil</text>
  <text x="700" y="32" class="text-white" font-size="14" font-weight="600">Espace client</text>
  <rect x="695" y="46" width="90" height="3" fill="#FFFFFF"/>

  <!-- NAV2 -->
  <rect x="0" y="50" width="1440" height="40" class="bg-white"/>
  <line x1="0" y1="89" x2="1440" y2="89" stroke="#E5E7EB"/>
  <text x="40" y="75" class="text-primary" font-size="14" font-weight="600">Mon compte</text>
  <rect x="35" y="85" width="85" height="3" fill="#0050D7"/>
  <text x="150" y="75" class="text-muted" font-size="14">Facturation</text>
  <text x="240" y="75" class="text-muted" font-size="14">Support</text>

  <!-- Content Area -->
  <g transform="translate(24, 105)">
    <!-- LEFT PANEL -->
    <rect x="0" y="0" width="280" height="765" rx="8" class="bg-white"/>
    <rect x="0" y="0" width="280" height="765" rx="8" class="border"/>

    <!-- Search -->
    <rect x="12" y="12" width="256" height="34" rx="4" fill="#F9FAFB" stroke="#E5E7EB"/>
    <text x="26" y="34" class="text-muted" font-size="12">🔍 Rechercher...</text>

    <!-- Menu items -->
    <text x="16" y="75" class="text-dark" font-size="13" font-weight="600">Mon compte</text>
    <text x="16" y="100" class="text-muted" font-size="12">Informations personnelles</text>
    <text x="16" y="125" class="text-muted" font-size="12">Sécurité</text>
    <rect x="0" y="132" width="280" height="32" fill="#E8F0FE"/>
    <text x="16" y="153" class="text-primary" font-size="12">Contacts / Services</text>
    <text x="16" y="180" class="text-muted" font-size="12">Demandes de contacts</text>

    <!-- RIGHT PANEL -->
    <g transform="translate(296, 0)">
      <rect x="0" y="0" width="1096" height="765" rx="8" class="bg-white"/>
      <rect x="0" y="0" width="1096" height="765" rx="8" class="border"/>

      <g transform="translate(24, 24)">
        <!-- Header -->
        <text x="0" y="0" class="text-dark" font-size="18" font-weight="600">Gestion des contacts par service</text>

        <!-- Description -->
        <text x="0" y="30" class="text-muted" font-size="12">Gérez les contacts administratif, technique et facturation de vos services.</text>

        <!-- NAV4 Tabs -->
        <g transform="translate(0, 50)">
          <rect x="0" y="0" width="150" height="36" rx="4" fill="#0050D7"/>
          <text x="75" y="23" class="text-white" font-size="12" text-anchor="middle">Par service</text>

          <rect x="160" y="0" width="150" height="36" rx="4" fill="#F9FAFB" stroke="#E5E7EB"/>
          <text x="235" y="23" class="text-muted" font-size="12" text-anchor="middle">Demandes envoyées</text>

          <rect x="320" y="0" width="150" height="36" rx="4" fill="#F9FAFB" stroke="#E5E7EB"/>
          <text x="395" y="23" class="text-muted" font-size="12" text-anchor="middle">Demandes reçues</text>
        </g>

        <!-- Datagrid -->
        <g transform="translate(0, 110)">
          <!-- Table Header -->
          <rect x="0" y="0" width="1048" height="40" class="table-header"/>
          <line x1="0" y1="40" x2="1048" y2="40" stroke="#E5E7EB"/>

          <text x="16" y="25" class="text-dark" font-size="11" font-weight="600">Nom du service</text>
          <text x="250" y="25" class="text-dark" font-size="11" font-weight="600">Service</text>
          <text x="400" y="25" class="text-dark" font-size="11" font-weight="600">Contact Admin</text>
          <text x="560" y="25" class="text-dark" font-size="11" font-weight="600">Contact Tech</text>
          <text x="720" y="25" class="text-dark" font-size="11" font-weight="600">Contact Facturation</text>
          <text x="920" y="25" class="text-dark" font-size="11" font-weight="600">Actions</text>

          <!-- Row 1 -->
          <rect x="0" y="40" width="1048" height="45" fill="#FFFFFF"/>
          <line x1="0" y1="85" x2="1048" y2="85" stroke="#E5E7EB"/>
          <text x="16" y="68" class="text-dark" font-size="11">ns1234567.ip-12-34-56.eu</text>
          <rect x="250" y="53" width="80" height="20" rx="10" fill="#DBEAFE"/>
          <text x="290" y="67" fill="#1E40AF" font-size="10" text-anchor="middle">Dédié</text>
          <text x="400" y="68" class="text-dark" font-size="11">xx12345-ovh</text>
          <text x="560" y="68" class="text-dark" font-size="11">xx12345-ovh</text>
          <text x="720" y="68" class="text-dark" font-size="11">xx12345-ovh</text>
          <text x="936" y="68" class="text-primary" font-size="11">⋮</text>

          <!-- Row 2 -->
          <rect x="0" y="85" width="1048" height="45" class="row-hover"/>
          <line x1="0" y1="130" x2="1048" y2="130" stroke="#E5E7EB"/>
          <text x="16" y="113" class="text-dark" font-size="11">example.com</text>
          <rect x="250" y="98" width="80" height="20" rx="10" fill="#DEF7EC"/>
          <text x="290" y="112" fill="#03543F" font-size="10" text-anchor="middle">Domaine</text>
          <text x="400" y="113" class="text-dark" font-size="11">xx12345-ovh</text>
          <text x="560" y="113" class="text-dark" font-size="11">xx12345-ovh</text>
          <text x="720" y="113" class="text-dark" font-size="11">xx12345-ovh</text>
          <text x="936" y="113" class="text-primary" font-size="11">⋮</text>

          <!-- Row 3 -->
          <rect x="0" y="130" width="1048" height="45" fill="#FFFFFF"/>
          <line x1="0" y1="175" x2="1048" y2="175" stroke="#E5E7EB"/>
          <text x="16" y="158" class="text-dark" font-size="11">hostingpro123.cluster042.hosting.ovh.net</text>
          <rect x="250" y="143" width="80" height="20" rx="10" fill="#FEF3C7"/>
          <text x="290" y="157" fill="#92400E" font-size="10" text-anchor="middle">Hosting</text>
          <text x="400" y="158" class="text-dark" font-size="11">xx12345-ovh</text>
          <text x="560" y="158" class="text-dark" font-size="11">contact-tech</text>
          <text x="720" y="158" class="text-dark" font-size="11">billing-nic</text>
          <text x="936" y="158" class="text-primary" font-size="11">⋮</text>

          <!-- Row 4 -->
          <rect x="0" y="175" width="1048" height="45" class="row-hover"/>
          <line x1="0" y1="220" x2="1048" y2="220" stroke="#E5E7EB"/>
          <text x="16" y="203" class="text-dark" font-size="11">vps-12345678.vps.ovh.net</text>
          <rect x="250" y="188" width="60" height="20" rx="10" fill="#E0E7FF"/>
          <text x="280" y="202" fill="#3730A3" font-size="10" text-anchor="middle">VPS</text>
          <text x="400" y="203" class="text-dark" font-size="11">xx12345-ovh</text>
          <text x="560" y="203" class="text-dark" font-size="11">xx12345-ovh</text>
          <text x="720" y="203" class="text-dark" font-size="11">xx12345-ovh</text>
          <text x="936" y="203" class="text-primary" font-size="11">⋮</text>
        </g>

        <!-- Pagination -->
        <g transform="translate(0, 420)">
          <text x="0" y="0" class="text-muted" font-size="11">Affichage 1 - 10 sur 42 services</text>
          <g transform="translate(900, -10)">
            <rect x="0" y="0" width="28" height="28" rx="4" fill="#F9FAFB" stroke="#E5E7EB"/>
            <text x="14" y="18" class="text-muted" font-size="11" text-anchor="middle">‹</text>
            <rect x="32" y="0" width="28" height="28" rx="4" fill="#0050D7"/>
            <text x="46" y="18" class="text-white" font-size="11" text-anchor="middle">1</text>
            <rect x="64" y="0" width="28" height="28" rx="4" fill="#F9FAFB" stroke="#E5E7EB"/>
            <text x="78" y="18" class="text-muted" font-size="11" text-anchor="middle">2</text>
            <rect x="96" y="0" width="28" height="28" rx="4" fill="#F9FAFB" stroke="#E5E7EB"/>
            <text x="110" y="18" class="text-muted" font-size="11" text-anchor="middle">3</text>
            <rect x="128" y="0" width="28" height="28" rx="4" fill="#F9FAFB" stroke="#E5E7EB"/>
            <text x="142" y="18" class="text-muted" font-size="11" text-anchor="middle">›</text>
          </g>
        </g>
      </g>
    </g>
  </g>
</svg>
