<svg xmlns="http://www.w3.org/2000/svg" viewBox="0 0 1440 900" width="1440" height="900">
  <defs>
    <style>
      .bg-header { fill: #000E9C; }
      .bg-main { fill: #F6F6F9; }
      .bg-white { fill: #FFFFFF; }
      .bg-info { fill: #DBEAFE; }
      .border { stroke: #E5E7EB; stroke-width: 1; fill: none; }
      .border-dashed { stroke: #E5E7EB; stroke-width: 2; stroke-dasharray: 8,4; fill: none; }
      .divider { stroke: #E5E7EB; stroke-width: 1; }
      .text-white { fill: #FFFFFF; font-family: 'Source Sans Pro', sans-serif; }
      .text-dark { fill: #1F2937; font-family: 'Source Sans Pro', sans-serif; }
      .text-muted { fill: #6B7280; font-family: 'Source Sans Pro', sans-serif; }
      .text-primary { fill: #0050D7; font-family: 'Source Sans Pro', sans-serif; }
      .text-info { fill: #1E40AF; font-family: 'Source Sans Pro', sans-serif; }
    </style>
  </defs>
  <rect width="1440" height="900" class="bg-main"/>
  <rect width="1440" height="50" class="bg-header"/>
  <rect x="0" y="50" width="1440" height="40" class="bg-white"/>
  <text x="40" y="75" class="text-primary" font-size="14" font-weight="600">Mon compte</text>

  <g transform="translate(40, 115)">
    <text x="0" y="0" class="text-dark" font-size="24" font-weight="600">Documents d'identité</text>
    <text x="0" y="25" class="text-muted" font-size="13">Vérification de votre identité (KYC)</text>
  </g>

  <g transform="translate(40, 180)">
    <!-- Info banner -->
    <rect x="0" y="0" width="1360" height="70" rx="6" class="bg-info"/>
    <text x="30" y="30" class="text-info" font-size="13" font-weight="500">ℹ️ Pourquoi devez-vous fournir ces documents ?</text>
    <text x="30" y="50" class="text-info" font-size="11">Pour des raisons de sécurité et de conformité, nous devons vérifier votre identité. Vos documents sont traités de manière sécurisée.</text>

    <!-- Main content -->
    <rect x="0" y="90" width="1360" height="560" rx="8" class="bg-white"/>
    <rect x="0" y="90" width="1360" height="560" rx="8" class="border"/>

    <!-- Upload section -->
    <g transform="translate(30, 120)">
      <text x="0" y="0" class="text-dark" font-size="16" font-weight="600">Pièce d'identité</text>
      <text x="0" y="25" class="text-muted" font-size="12">Carte d'identité, passeport ou permis de conduire</text>

      <!-- Upload zone -->
      <rect x="0" y="50" width="600" height="150" rx="8" class="border-dashed"/>
      <text x="300" y="100" class="text-muted" font-size="32" text-anchor="middle">📄</text>
      <text x="300" y="135" class="text-muted" font-size="12" text-anchor="middle">Glissez-déposez votre fichier ici</text>
      <text x="300" y="155" class="text-muted" font-size="11" text-anchor="middle">ou</text>
      <rect x="220" y="165" width="160" height="28" rx="4" fill="#0050D7"/>
      <text x="300" y="184" class="text-white" font-size="11" text-anchor="middle">Parcourir les fichiers</text>

      <text x="0" y="230" class="text-muted" font-size="10">Formats acceptés : JPG, PNG, PDF - Max 5 Mo</text>
    </g>

    <!-- Justificatif de domicile -->
    <g transform="translate(700, 120)">
      <text x="0" y="0" class="text-dark" font-size="16" font-weight="600">Justificatif de domicile</text>
      <text x="0" y="25" class="text-muted" font-size="12">Facture d'énergie, relevé bancaire (moins de 3 mois)</text>

      <rect x="0" y="50" width="600" height="150" rx="8" class="border-dashed"/>
      <text x="300" y="100" class="text-muted" font-size="32" text-anchor="middle">📄</text>
      <text x="300" y="135" class="text-muted" font-size="12" text-anchor="middle">Glissez-déposez votre fichier ici</text>
      <text x="300" y="155" class="text-muted" font-size="11" text-anchor="middle">ou</text>
      <rect x="220" y="165" width="160" height="28" rx="4" fill="#0050D7"/>
      <text x="300" y="184" class="text-white" font-size="11" text-anchor="middle">Parcourir les fichiers</text>
    </g>

    <!-- Status section -->
    <line x1="30" y1="410" x2="1330" y2="410" class="divider"/>
    <g transform="translate(30, 440)">
      <text x="0" y="0" class="text-dark" font-size="16" font-weight="600">Statut de la vérification</text>

      <g transform="translate(0, 30)">
        <rect x="0" y="0" width="1300" height="40" fill="#F9FAFB"/>
        <text x="20" y="26" class="text-muted" font-size="11" font-weight="600">DOCUMENT</text>
        <text x="400" y="26" class="text-muted" font-size="11" font-weight="600">DATE</text>
        <text x="600" y="26" class="text-muted" font-size="11" font-weight="600">STATUT</text>

        <rect x="0" y="40" width="1300" height="50" class="bg-white"/>
        <text x="20" y="70" class="text-dark" font-size="12">Pièce d'identité</text>
        <text x="400" y="70" class="text-muted" font-size="12">-</text>
        <rect x="600" y="55" width="100" height="22" rx="11" fill="#FEF3C7"/>
        <text x="650" y="70" fill="#D97706" font-size="10" text-anchor="middle">En attente</text>

        <rect x="0" y="90" width="1300" height="50" class="bg-white"/>
        <text x="20" y="120" class="text-dark" font-size="12">Justificatif de domicile</text>
        <text x="400" y="120" class="text-muted" font-size="12">-</text>
        <rect x="600" y="105" width="100" height="22" rx="11" fill="#FEF3C7"/>
        <text x="650" y="120" fill="#D97706" font-size="10" text-anchor="middle">En attente</text>
      </g>
    </g>
  </g>
</svg>
