<svg xmlns="http://www.w3.org/2000/svg" viewBox="0 0 1440 900" width="1440" height="900">
  <defs>
    <style>
      .bg-header { fill: #000E9C; }
      .bg-main { fill: #F6F6F9; }
      .bg-white { fill: #FFFFFF; }
      .bg-primary { fill: #0050D7; }
      .bg-neutral-100 { fill: #F3F4F6; }
      .bg-info { fill: #DBEAFE; }
      .bg-success { fill: #DEF7EC; }
      .border { stroke: #E5E7EB; stroke-width: 1; fill: none; }
      .divider { stroke: #E5E7EB; stroke-width: 1; }
      .btn-outline { stroke: #0050D7; stroke-width: 1; fill: #FFFFFF; }
      .btn-primary { fill: #0050D7; }
      .row-selected { fill: #E8F0FE; }
      .text-white { fill: #FFFFFF; font-family: 'Source Sans Pro', sans-serif; }
      .text-dark { fill: #1F2937; font-family: 'Source Sans Pro', sans-serif; }
      .text-muted { fill: #6B7280; font-family: 'Source Sans Pro', sans-serif; }
      .text-primary { fill: #0050D7; font-family: 'Source Sans Pro', sans-serif; }
      .text-success { fill: #059669; font-family: 'Source Sans Pro', sans-serif; }
      .progress-bg { fill: #E5E7EB; }
      .progress-bar { fill: #10B981; }
    </style>
  </defs>

  <!-- Background -->
  <rect width="1440" height="900" class="bg-main"/>

  <!-- NAV1 - Header OVH -->
  <rect width="1440" height="50" class="bg-header"/>
  <text x="40" y="32" class="text-white" font-size="14" opacity="0.7">Accueil</text>
  <text x="110" y="32" class="text-white" font-size="14" opacity="0.7">Public Cloud</text>
  <text x="210" y="32" class="text-white" font-size="14" opacity="0.7">Hosted Private Cloud</text>
  <text x="370" y="32" class="text-white" font-size="14" opacity="0.7">Bare Metal Cloud</text>
  <text x="510" y="32" class="text-white" font-size="14" font-weight="600">Web Cloud</text>
  <rect x="505" y="46" width="75" height="3" fill="#FFFFFF"/>
  <text x="620" y="32" class="text-white" font-size="14" opacity="0.7">Network</text>
  <text x="700" y="32" class="text-white" font-size="14" opacity="0.7">IAM / Securite</text>
  <text x="810" y="32" class="text-white" font-size="14" opacity="0.7">Licences</text>
  <rect x="1280" y="12" width="140" height="26" rx="13" fill="rgba(255,255,255,0.2)"/>
  <rect x="1285" y="15" width="26" height="20" rx="10" fill="#DEF7EC"/>
  <text x="1292" y="29" fill="#03543F" font-size="10" font-weight="600">OK</text>
  <text x="1320" y="29" class="text-white" font-size="12">{nicHandle}</text>

  <!-- NAV2 WEB CLOUD -->
  <rect x="0" y="50" width="1440" height="40" class="bg-white"/>
  <line x1="0" y1="89" x2="1440" y2="89" stroke="#E5E7EB"/>
  <text x="40" y="75" class="text-muted" font-size="14">Accueil</text>
  <text x="110" y="75" class="text-muted" font-size="14">Domaines et DNS</text>
  <text x="240" y="75" class="text-primary" font-size="14" font-weight="600">Hébergement</text>
  <rect x="235" y="85" width="85" height="3" fill="#0050D7"/>
  <text x="345" y="75" class="text-muted" font-size="14">Wordpress</text>
  <text x="430" y="75" class="text-muted" font-size="14">Emails</text>
  <text x="500" y="75" class="text-muted" font-size="14">VoIP</text>
  <text x="550" y="75" class="text-muted" font-size="14">Accès</text>
  <text x="1350" y="75" class="text-primary" font-size="13">Guides</text>

  <!-- CONTENT AREA -->
  <g transform="translate(0, 105)">
    <g transform="translate(24, 0)">
      
      <!-- LEFT PANEL -->
      <rect x="0" y="0" width="280" height="765" rx="8" class="bg-white"/>
      <rect x="0" y="0" width="280" height="765" rx="8" class="border"/>
      
      <!-- Search -->
      <rect x="12" y="12" width="256" height="34" rx="4" fill="#F9FAFB" stroke="#E5E7EB"/>
      <text x="40" y="34" class="text-muted" font-size="12">Rechercher...</text>
      <text x="24" y="34" class="text-muted" font-size="14">O</text>
      
      <!-- Filter -->
      <text x="12" y="68" class="text-muted" font-size="11">Filtrer par statut</text>
      <text x="268" y="68" class="text-muted" font-size="11" text-anchor="end">3 services</text>
      
      <!-- Service sélectionné -->
      <rect x="6" y="80" width="268" height="56" rx="6" class="row-selected"/>
      <circle cx="28" cy="108" r="14" fill="#0050D7"/>
      <text x="28" y="112" class="text-white" font-size="12" text-anchor="middle">W</text>
      <text x="52" y="100" class="text-dark" font-size="13" font-weight="500">monsite.example.com</text>
      <text x="52" y="116" class="text-muted" font-size="11">Performance 1</text>
      <rect x="210" y="96" width="46" height="18" rx="9" fill="#DEF7EC"/>
      <text x="233" y="109" fill="#03543F" font-size="10" text-anchor="middle">Actif</text>
      
      <!-- Service 2 -->
      <rect x="6" y="142" width="268" height="56" rx="6" fill="#FFFFFF"/>
      <circle cx="28" cy="170" r="14" fill="#0050D7"/>
      <text x="28" y="174" class="text-white" font-size="12" text-anchor="middle">W</text>
      <text x="52" y="162" class="text-dark" font-size="13" font-weight="500">blog.example.com</text>
      <text x="52" y="178" class="text-muted" font-size="11">Perso</text>
      <rect x="210" y="158" width="46" height="18" rx="9" fill="#DEF7EC"/>
      <text x="233" y="171" fill="#03543F" font-size="10" text-anchor="middle">Actif</text>
      
      <!-- Service 3 -->
      <rect x="6" y="204" width="268" height="56" rx="6" fill="#FFFFFF"/>
      <circle cx="28" cy="232" r="14" fill="#0050D7"/>
      <text x="28" y="236" class="text-white" font-size="12" text-anchor="middle">W</text>
      <text x="52" y="224" class="text-dark" font-size="13" font-weight="500">shop.example.com</text>
      <text x="52" y="240" class="text-muted" font-size="11">Pro</text>
      <rect x="210" y="220" width="46" height="18" rx="9" fill="#DEF7EC"/>
      <text x="233" y="233" fill="#03543F" font-size="10" text-anchor="middle">Actif</text>
    </g>
    
    <g transform="translate(320, 0)">
      <!-- RIGHT PANEL -->
      <rect x="0" y="0" width="1096" height="765" rx="8" class="bg-white"/>
      <rect x="0" y="0" width="1096" height="765" rx="8" class="border"/>
      
      <g transform="translate(20, 0)">
        <!-- HEADER PAGE -->
        <text x="0" y="28" class="text-dark" font-size="18" font-weight="600">monsite.example.com</text>
        <text x="240" y="28" class="text-muted" font-size="12">(blog.example.com, shop.example.com +1)</text>
        
        <!-- NAV3 TABS -->
        <g transform="translate(0, 42)">
          <rect x="0" y="0" width="50" height="26" rx="4" class="bg-primary"/>
          <text x="25" y="17" class="text-white" font-size="11" text-anchor="middle">Home</text>
          
          <rect x="54" y="0" width="70" height="26" rx="4" class="btn-outline"/>
          <text x="89" y="17" class="text-primary" font-size="11" text-anchor="middle">Multisite</text>
          
          <rect x="128" y="0" width="60" height="26" rx="4" class="btn-outline"/>
          <text x="158" y="17" class="text-primary" font-size="11" text-anchor="middle">FTP-SSH</text>
          
          <rect x="192" y="0" width="60" height="26" rx="4" class="btn-outline"/>
          <text x="222" y="17" class="text-primary" font-size="11" text-anchor="middle">Modules</text>
          
          <rect x="256" y="0" width="55" height="26" rx="4" class="btn-outline"/>
          <text x="283" y="17" class="text-primary" font-size="11" text-anchor="middle">Taches</text>
          
          <rect x="315" y="0" width="50" height="26" rx="4" class="btn-outline"/>
          <text x="340" y="17" class="text-primary" font-size="11" text-anchor="middle">Emails</text>
          
          <rect x="369" y="0" width="65" height="26" rx="4" class="btn-outline"/>
          <text x="401" y="17" class="text-primary" font-size="11" text-anchor="middle">Variables</text>
          
          <rect x="438" y="0" width="65" height="26" rx="4" class="btn-outline"/>
          <text x="470" y="17" class="text-primary" font-size="11" text-anchor="middle">Runtimes</text>
          
          <rect x="507" y="0" width="35" height="26" rx="4" class="btn-outline"/>
          <text x="524" y="17" class="text-primary" font-size="11" text-anchor="middle">SSL</text>
          
          <rect x="546" y="0" width="40" height="26" rx="4" class="btn-outline"/>
          <text x="566" y="17" class="text-primary" font-size="11" text-anchor="middle">CDN</text>
          
          <rect x="590" y="0" width="45" height="26" rx="4" class="btn-outline"/>
          <text x="612" y="17" class="text-primary" font-size="11" text-anchor="middle">Boost</text>
          
          <rect x="639" y="0" width="40" height="26" rx="4" class="btn-outline"/>
          <text x="659" y="17" class="text-primary" font-size="11" text-anchor="middle">Logs</text>
          
          <rect x="683" y="0" width="40" height="26" rx="4" class="btn-outline"/>
          <text x="703" y="17" class="text-primary" font-size="11" text-anchor="middle">BDD</text>
          
          <rect x="727" y="0" width="75" height="26" rx="4" class="btn-outline"/>
          <text x="764" y="17" class="text-primary" font-size="11" text-anchor="middle">BDD Cloud</text>
          
          <rect x="806" y="0" width="45" height="26" rx="4" class="btn-outline"/>
          <text x="828" y="17" class="text-primary" font-size="11" text-anchor="middle">Cron</text>
          
          <rect x="855" y="0" width="40" height="26" rx="4" class="btn-outline"/>
          <text x="875" y="17" class="text-primary" font-size="11" text-anchor="middle">SEO</text>
        </g>
        
        <!-- NAV4 SOUS-TABS -->
        <g transform="translate(0, 78)">
          <text x="0" y="14" class="text-primary" font-size="12" font-weight="500">Général</text>
          <rect x="0" y="18" width="48" height="2" fill="#0050D7"/>
          <text x="70" y="14" class="text-muted" font-size="12">Statistiques</text>
          <text x="145" y="14" class="text-muted" font-size="12">Indy</text>
          <text x="180" y="14" class="text-muted" font-size="12">Offre</text>
          <text x="225" y="14" class="text-muted" font-size="12">OvhConfig</text>
          <text x="295" y="14" class="text-muted" font-size="12">Migration</text>
          <text x="365" y="14" class="text-muted" font-size="12">Résiliation</text>
        </g>
        
        <!-- CONTENT - 4 BLOCS -->
        <g transform="translate(0, 110)">
          <!-- BLOC 1: Informations générales -->
          <rect x="0" y="0" width="520" height="200" rx="8" fill="#FFFFFF" stroke="#E5E7EB"/>
          <text x="16" y="28" class="text-dark" font-size="15" font-weight="700">Informations générales</text>
          
          <text x="16" y="55" class="text-muted" font-size="10" font-weight="600">ÉTAT</text>
          <rect x="16" y="62" width="46" height="18" rx="9" fill="#DEF7EC"/>
          <text x="39" y="75" fill="#03543F" font-size="10" text-anchor="middle">Actif</text>
          
          <text x="100" y="55" class="text-muted" font-size="10" font-weight="600">IPV4</text>
          <text x="100" y="75" class="text-dark" font-size="11">213.186.33.5</text>
          
          <text x="220" y="55" class="text-muted" font-size="10" font-weight="600">IPV6</text>
          <text x="220" y="75" class="text-dark" font-size="11">2001:41d0:1:1b00::1</text>
          
          <text x="400" y="55" class="text-muted" font-size="10" font-weight="600">DATACENTER</text>
          <text x="400" y="75" class="text-dark" font-size="11">gra3</text>
          
          <text x="16" y="105" class="text-muted" font-size="10" font-weight="600">ESPACE DISQUE</text>
          <rect x="16" y="115" width="488" height="8" rx="4" class="progress-bg"/>
          <rect x="16" y="115" width="171" height="8" rx="4" class="progress-bar"/>
          <text x="16" y="140" class="text-muted" font-size="10">3.5 Go / 10 Go (35%)</text>
          
          <text x="16" y="165" class="text-muted" font-size="10" font-weight="600">CLUSTER</text>
          <text x="16" y="185" class="text-dark" font-size="11">cluster027.hosting.ovh.net</text>
          
          <!-- BLOC 2: Configuration -->
          <g transform="translate(536, 0)">
            <rect x="0" y="0" width="520" height="200" rx="8" fill="#FFFFFF" stroke="#E5E7EB"/>
            <text x="16" y="28" class="text-dark" font-size="15" font-weight="700">Configuration</text>
            
            <text x="16" y="55" class="text-muted" font-size="10" font-weight="600">VERSION PHP</text>
            <text x="16" y="75" class="text-dark" font-size="11">8.2</text>
            <text x="45" y="75" class="text-primary" font-size="11">Modifier</text>
            
            <text x="160" y="55" class="text-muted" font-size="10" font-weight="600">SSL</text>
            <rect x="160" y="62" width="46" height="18" rx="9" fill="#DEF7EC"/>
            <text x="183" y="75" fill="#03543F" font-size="10" text-anchor="middle">Actif</text>
            <text x="220" y="75" class="text-dark" font-size="11">Let's Encrypt</text>
            
            <text x="350" y="55" class="text-muted" font-size="10" font-weight="600">CDN</text>
            <rect x="350" y="62" width="55" height="18" rx="9" fill="#DEF7EC"/>
            <text x="377" y="75" fill="#03543F" font-size="10" text-anchor="middle">Activé</text>
            
            <text x="16" y="105" class="text-muted" font-size="10" font-weight="600">OFFRE EMAIL</text>
            <text x="16" y="125" class="text-dark" font-size="11">Active - 200 emails/jour</text>
            
            <text x="200" y="105" class="text-muted" font-size="10" font-weight="600">FIREWALL</text>
            <text x="200" y="125" class="text-dark" font-size="11">Actif</text>
            
            <text x="16" y="155" class="text-muted" font-size="10" font-weight="600">ENVIRONNEMENT</text>
            <text x="16" y="175" class="text-dark" font-size="11">production</text>
            
            <text x="200" y="155" class="text-muted" font-size="10" font-weight="600">MOTEUR</text>
            <text x="200" y="175" class="text-dark" font-size="11">php</text>
          </g>
          
          <!-- BLOC 3: Résumé -->
          <g transform="translate(0, 216)">
            <rect x="0" y="0" width="520" height="180" rx="8" fill="#FFFFFF" stroke="#E5E7EB"/>
            <text x="16" y="28" class="text-dark" font-size="15" font-weight="700">Résumé</text>
            
            <text x="16" y="55" class="text-muted" font-size="10" font-weight="600">SITES WEB</text>
            <text x="16" y="75" class="text-dark" font-size="11">3 sur 5 recommandés</text>
            
            <text x="160" y="55" class="text-muted" font-size="10" font-weight="600">BASES DE DONNÉES</text>
            <text x="160" y="75" class="text-dark" font-size="11">2 / 5</text>
            
            <text x="300" y="55" class="text-muted" font-size="10" font-weight="600">MODULES 1 CLIC</text>
            <text x="300" y="75" class="text-dark" font-size="11">1</text>
            
            <text x="400" y="55" class="text-muted" font-size="10" font-weight="600">CLOUD DB</text>
            <text x="400" y="75" class="text-dark" font-size="11">0</text>
            <text x="420" y="75" class="text-primary" font-size="11">Commander</text>
            
            <text x="16" y="115" class="text-muted" font-size="10" font-weight="600">UTILISATEURS FTP</text>
            <text x="16" y="135" class="text-dark" font-size="11">2</text>
            
            <text x="160" y="115" class="text-muted" font-size="10" font-weight="600">CRONS</text>
            <text x="160" y="135" class="text-dark" font-size="11">3</text>
            
            <text x="300" y="115" class="text-muted" font-size="10" font-weight="600">RUNTIMES</text>
            <text x="300" y="135" class="text-dark" font-size="11">1 (défaut)</text>
          </g>
          
          <!-- BLOC 4: Abonnement -->
          <g transform="translate(536, 216)">
            <rect x="0" y="0" width="520" height="180" rx="8" fill="#FFFFFF" stroke="#E5E7EB"/>
            <text x="16" y="28" class="text-dark" font-size="15" font-weight="700">Abonnement</text>
            
            <text x="16" y="55" class="text-muted" font-size="10" font-weight="600">OFFRE</text>
            <text x="16" y="75" class="text-dark" font-size="11">Performance 1</text>
            <text x="100" y="75" class="text-primary" font-size="11">Changer d'offre</text>
            
            <text x="280" y="55" class="text-muted" font-size="10" font-weight="600">RENOUVELLEMENT</text>
            <text x="280" y="75" class="text-dark" font-size="11">Automatique</text>
            
            <text x="16" y="105" class="text-muted" font-size="10" font-weight="600">CRÉATION</text>
            <text x="16" y="125" class="text-dark" font-size="11">15/01/2023</text>
            
            <text x="160" y="105" class="text-muted" font-size="10" font-weight="600">EXPIRATION</text>
            <text x="160" y="125" class="text-dark" font-size="11">15/01/2026</text>
            
            <text x="300" y="105" class="text-muted" font-size="10" font-weight="600">BOOST</text>
            <text x="300" y="125" class="text-dark" font-size="11">Désactivé</text>
            
            <text x="16" y="155" class="text-muted" font-size="10" font-weight="600">CONTACTS</text>
            <text x="16" y="175" class="text-dark" font-size="10">Admin: ab12345-ovh | Tech: ab12345-ovh | Billing: ab12345-ovh</text>
          </g>
          
          <!-- BLOC 5: Liens utiles -->
          <g transform="translate(0, 412)">
            <rect x="0" y="0" width="520" height="120" rx="8" fill="#FFFFFF" stroke="#E5E7EB"/>
            <text x="16" y="28" class="text-dark" font-size="15" font-weight="700">Liens utiles</text>
            
            <text x="16" y="55" class="text-primary" font-size="12">› Statistiques de visites</text>
            <text x="16" y="80" class="text-primary" font-size="12">› Accès HTTP au cluster</text>
            <text x="16" y="105" class="text-primary" font-size="12">› Versions des langages disponibles</text>
            
            <text x="280" y="55" class="text-primary" font-size="12">› Documentation hébergement</text>
            <text x="280" y="80" class="text-primary" font-size="12">› Guides OVHcloud</text>
          </g>
        </g>
      </g>
    </g>
  </g>
</svg>
