<?xml version="1.0" encoding="UTF-8"?>
<svg width="1100" height="600" viewBox="0 0 1100 600" fill="none" xmlns="http://www.w3.org/2000/svg">
  <title>Private Cloud - Onboarding</title>
  <rect width="1100" height="600" fill="#F9FAFB"/>
  <g transform="translate(30, 30)">
    <text x="0" y="0" fill="#1F2937" font-family="system-ui, sans-serif" font-size="22" font-weight="600">Hosted Private Cloud VMware</text>
    <text x="0" y="28" fill="#6B7280" font-family="system-ui, sans-serif" font-size="13">Infrastructure dédiée VMware managée</text>
  </g>
  <g transform="translate(300, 100)">
    <rect x="0" y="0" width="500" height="380" rx="8" fill="white" stroke="#E5E7EB"/>
    <g transform="translate(150, 40)">
      <rect x="0" y="0" width="200" height="120" rx="8" fill="#EFF6FF"/>
      <text x="70" y="50" fill="#0050D7" font-family="system-ui, sans-serif" font-size="48">☁️</text>
      <text x="50" y="90" fill="#0050D7" font-family="system-ui, sans-serif" font-size="14">Private Cloud</text>
    </g>
    <g transform="translate(50, 180)">
      <text x="115" y="0" fill="#1F2937" font-family="system-ui, sans-serif" font-size="18" font-weight="600">Aucune infrastructure</text>
      <text x="40" y="30" fill="#6B7280" font-family="system-ui, sans-serif" font-size="13">Déployez votre premier Hosted Private Cloud</text>
      <text x="60" y="50" fill="#6B7280" font-family="system-ui, sans-serif" font-size="13">VMware avec vSphere, NSX et vSAN.</text>
    </g>
    <g transform="translate(100, 280)">
      <rect x="0" y="0" width="300" height="50" rx="4" fill="#0050D7"/>
      <text x="60" y="32" fill="white" font-family="system-ui, sans-serif" font-size="14" font-weight="500">Commander Private Cloud</text>
    </g>
  </g>
  <g transform="translate(30, 510)">
    <rect x="0" y="0" width="1040" height="70" rx="8" fill="white" stroke="#E5E7EB"/>
    <g transform="translate(30, 25)">
      <text x="0" y="0" fill="#16A34A" font-family="system-ui, sans-serif" font-size="16">✓</text>
      <text x="25" y="0" fill="#1F2937" font-family="system-ui, sans-serif" font-size="12">vSphere 7/8</text>
    </g>
    <g transform="translate(180, 25)">
      <text x="0" y="0" fill="#16A34A" font-family="system-ui, sans-serif" font-size="16">✓</text>
      <text x="25" y="0" fill="#1F2937" font-family="system-ui, sans-serif" font-size="12">NSX inclus</text>
    </g>
    <g transform="translate(330, 25)">
      <text x="0" y="0" fill="#16A34A" font-family="system-ui, sans-serif" font-size="16">✓</text>
      <text x="25" y="0" fill="#1F2937" font-family="system-ui, sans-serif" font-size="12">vSAN HCI</text>
    </g>
    <g transform="translate(480, 25)">
      <text x="0" y="0" fill="#16A34A" font-family="system-ui, sans-serif" font-size="16">✓</text>
      <text x="25" y="0" fill="#1F2937" font-family="system-ui, sans-serif" font-size="12">SecNumCloud</text>
    </g>
    <g transform="translate(650, 25)">
      <text x="0" y="0" fill="#16A34A" font-family="system-ui, sans-serif" font-size="16">✓</text>
      <text x="25" y="0" fill="#1F2937" font-family="system-ui, sans-serif" font-size="12">Backup Veeam</text>
    </g>
    <g transform="translate(820, 25)">
      <text x="0" y="0" fill="#16A34A" font-family="system-ui, sans-serif" font-size="16">✓</text>
      <text x="25" y="0" fill="#1F2937" font-family="system-ui, sans-serif" font-size="12">Support 24/7</text>
    </g>
  </g>
</svg>
