<?xml version="1.0" encoding="UTF-8"?>
<svg width="1100" height="550" viewBox="0 0 1100 550" fill="none" xmlns="http://www.w3.org/2000/svg">
  <title>Private Cloud - API Access</title>
  <rect width="1100" height="550" fill="#F9FAFB"/>
  <g transform="translate(30, 30)"><text x="0" y="0" fill="#1F2937" font-family="system-ui, sans-serif" font-size="22" font-weight="600">Accès API</text><text x="0" y="30" fill="#6B7280" font-family="system-ui, sans-serif" font-size="13">Gérez l'accès programmatique à votre infrastructure.</text></g>
  <g transform="translate(30, 90)">
    <rect x="0" y="0" width="500" height="150" rx="8" fill="white" stroke="#E5E7EB"/>
    <text x="20" y="30" fill="#1F2937" font-family="system-ui, sans-serif" font-size="14" font-weight="500">vCenter API</text>
    <text x="20" y="60" fill="#6B7280" font-family="system-ui, sans-serif" font-size="12">Endpoint:</text>
    <g transform="translate(20, 75)"><rect x="0" y="0" width="460" height="35" rx="4" fill="#F9FAFB" stroke="#E5E7EB"/><text x="15" y="23" fill="#1F2937" font-family="system-ui, sans-serif" font-size="12" font-family="monospace">https://pcc-xxx.ovh.com/api</text><text x="400" y="23" fill="#0050D7" font-family="system-ui, sans-serif" font-size="11" cursor="pointer">Copier</text></g>
    <text x="20" y="135" fill="#6B7280" font-family="system-ui, sans-serif" font-size="11">Version: vSphere 8.0 Update 2 API</text>
  </g>
  <g transform="translate(550, 90)">
    <rect x="0" y="0" width="500" height="150" rx="8" fill="white" stroke="#E5E7EB"/>
    <text x="20" y="30" fill="#1F2937" font-family="system-ui, sans-serif" font-size="14" font-weight="500">NSX-T API</text>
    <text x="20" y="60" fill="#6B7280" font-family="system-ui, sans-serif" font-size="12">Endpoint:</text>
    <g transform="translate(20, 75)"><rect x="0" y="0" width="460" height="35" rx="4" fill="#F9FAFB" stroke="#E5E7EB"/><text x="15" y="23" fill="#1F2937" font-family="system-ui, sans-serif" font-size="12" font-family="monospace">https://nsx-xxx.ovh.com/api/v1</text><text x="400" y="23" fill="#0050D7" font-family="system-ui, sans-serif" font-size="11" cursor="pointer">Copier</text></g>
    <text x="20" y="135" fill="#6B7280" font-family="system-ui, sans-serif" font-size="11">Version: NSX-T 4.1 API</text>
  </g>
  <g transform="translate(30, 270)">
    <rect x="0" y="0" width="1040" height="240" rx="8" fill="white" stroke="#E5E7EB"/>
    <text x="20" y="30" fill="#1F2937" font-family="system-ui, sans-serif" font-size="14" font-weight="500">Tokens API</text>
    <g transform="translate(880, 10)"><rect x="0" y="0" width="140" height="32" rx="4" fill="#0050D7"/><text x="18" y="21" fill="white" font-family="system-ui, sans-serif" font-size="12">+ Créer token</text></g>
    <g transform="translate(0, 55)"><rect x="0" y="0" width="1040" height="35" fill="#F9FAFB"/><text x="20" y="23" fill="#6B7280" font-family="system-ui, sans-serif" font-size="11" font-weight="500">Nom</text><text x="250" y="23" fill="#6B7280" font-family="system-ui, sans-serif" font-size="11" font-weight="500">Scope</text><text x="450" y="23" fill="#6B7280" font-family="system-ui, sans-serif" font-size="11" font-weight="500">Créé le</text><text x="600" y="23" fill="#6B7280" font-family="system-ui, sans-serif" font-size="11" font-weight="500">Expire le</text><text x="780" y="23" fill="#6B7280" font-family="system-ui, sans-serif" font-size="11" font-weight="500">État</text><text x="920" y="23" fill="#6B7280" font-family="system-ui, sans-serif" font-size="11" font-weight="500">Actions</text></g>
    <g transform="translate(0, 95)"><line x1="0" y1="0" x2="1040" y2="0" stroke="#E5E7EB"/><text x="20" y="30" fill="#1F2937" font-family="system-ui, sans-serif" font-size="12" font-weight="500">terraform-token</text><text x="250" y="30" fill="#1F2937" font-family="system-ui, sans-serif" font-size="12">Full Access</text><text x="450" y="30" fill="#1F2937" font-family="system-ui, sans-serif" font-size="12">01/12/2024</text><text x="600" y="30" fill="#1F2937" font-family="system-ui, sans-serif" font-size="12">01/12/2025</text><g transform="translate(780, 15)"><rect x="0" y="0" width="50" height="20" rx="4" fill="#DCFCE7"/><text x="12" y="14" fill="#16A34A" font-family="system-ui, sans-serif" font-size="10">Actif</text></g><g transform="translate(920, 12)"><rect x="0" y="0" width="30" height="30" rx="4" fill="#F9FAFB" stroke="#E5E7EB"/><text x="11" y="22" fill="#6B7280" font-family="system-ui, sans-serif" font-size="14">⋮</text></g></g>
    <g transform="translate(0, 145)"><line x1="0" y1="0" x2="1040" y2="0" stroke="#E5E7EB"/><text x="20" y="30" fill="#1F2937" font-family="system-ui, sans-serif" font-size="12" font-weight="500">monitoring-read</text><text x="250" y="30" fill="#1F2937" font-family="system-ui, sans-serif" font-size="12">Read Only</text><text x="450" y="30" fill="#1F2937" font-family="system-ui, sans-serif" font-size="12">15/10/2024</text><text x="600" y="30" fill="#1F2937" font-family="system-ui, sans-serif" font-size="12">15/01/2025</text><g transform="translate(780, 15)"><rect x="0" y="0" width="60" height="20" rx="4" fill="#FEF3C7"/><text x="8" y="14" fill="#92400E" font-family="system-ui, sans-serif" font-size="10">Expire bientôt</text></g><g transform="translate(920, 12)"><rect x="0" y="0" width="30" height="30" rx="4" fill="#F9FAFB" stroke="#E5E7EB"/><text x="11" y="22" fill="#6B7280" font-family="system-ui, sans-serif" font-size="14">⋮</text></g></g>
  </g>
</svg>
