<?xml version="1.0" encoding="UTF-8"?>
<svg width="1200" height="600" viewBox="0 0 1200 600" fill="none" xmlns="http://www.w3.org/2000/svg">
  <title>Private Cloud - VM Listing</title>

  <!-- Background -->
  <rect width="1200" height="600" fill="#F9FAFB"/>

  <!-- Header -->
  <g transform="translate(30, 30)">
    <text x="0" y="0" fill="#1F2937" font-family="system-ui, sans-serif" font-size="22" font-weight="600">Machines virtuelles</text>
    <text x="0" y="30" fill="#6B7280" font-family="system-ui, sans-serif" font-size="13">Gérez vos VMs dans le cloud privé.</text>
  </g>

  <!-- Actions bar -->
  <g transform="translate(30, 90)">
    <rect x="0" y="0" width="130" height="40" rx="4" fill="#0050D7"/>
    <text x="20" y="26" fill="white" font-family="system-ui, sans-serif" font-size="13">+ Créer une VM</text>

    <!-- Search -->
    <g transform="translate(800, 0)">
      <rect x="0" y="0" width="340" height="40" rx="4" fill="white" stroke="#E5E7EB"/>
      <text x="15" y="26" fill="#6B7280" font-family="system-ui, sans-serif" font-size="13">🔍 Rechercher...</text>
    </g>
  </g>

  <!-- VMs table -->
  <g transform="translate(30, 160)">
    <rect x="0" y="0" width="1140" height="400" rx="8" fill="white" stroke="#E5E7EB"/>

    <!-- Table header -->
    <g transform="translate(0, 0)">
      <rect x="0" y="0" width="1140" height="45" rx="8" fill="#F9FAFB"/>
      <text x="20" y="28" fill="#6B7280" font-family="system-ui, sans-serif" font-size="12" font-weight="500">Nom</text>
      <text x="200" y="28" fill="#6B7280" font-family="system-ui, sans-serif" font-size="12" font-weight="500">État</text>
      <text x="300" y="28" fill="#6B7280" font-family="system-ui, sans-serif" font-size="12" font-weight="500">vCPU</text>
      <text x="380" y="28" fill="#6B7280" font-family="system-ui, sans-serif" font-size="12" font-weight="500">RAM</text>
      <text x="460" y="28" fill="#6B7280" font-family="system-ui, sans-serif" font-size="12" font-weight="500">Stockage</text>
      <text x="560" y="28" fill="#6B7280" font-family="system-ui, sans-serif" font-size="12" font-weight="500">IP</text>
      <text x="720" y="28" fill="#6B7280" font-family="system-ui, sans-serif" font-size="12" font-weight="500">OS</text>
      <text x="900" y="28" fill="#6B7280" font-family="system-ui, sans-serif" font-size="12" font-weight="500">Hôte</text>
      <text x="1050" y="28" fill="#6B7280" font-family="system-ui, sans-serif" font-size="12" font-weight="500">Actions</text>
    </g>

    <!-- Row 1 -->
    <g transform="translate(0, 50)">
      <line x1="0" y1="0" x2="1140" y2="0" stroke="#E5E7EB"/>
      <text x="20" y="35" fill="#1F2937" font-family="system-ui, sans-serif" font-size="13" font-weight="500">web-server-01</text>
      <g transform="translate(200, 18)">
        <rect x="0" y="0" width="70" height="22" rx="4" fill="#DCFCE7"/>
        <text x="10" y="15" fill="#16A34A" font-family="system-ui, sans-serif" font-size="11">Running</text>
      </g>
      <text x="300" y="35" fill="#1F2937" font-family="system-ui, sans-serif" font-size="13">4</text>
      <text x="380" y="35" fill="#1F2937" font-family="system-ui, sans-serif" font-size="13">8 Go</text>
      <text x="460" y="35" fill="#1F2937" font-family="system-ui, sans-serif" font-size="13">100 Go</text>
      <text x="560" y="35" fill="#1F2937" font-family="system-ui, sans-serif" font-size="13">192.168.1.10</text>
      <text x="720" y="35" fill="#1F2937" font-family="system-ui, sans-serif" font-size="13">Ubuntu 22.04</text>
      <text x="900" y="35" fill="#6B7280" font-family="system-ui, sans-serif" font-size="12">esxi-host-01</text>
      <g transform="translate(1050, 18)">
        <rect x="0" y="0" width="30" height="30" rx="4" fill="#F9FAFB" stroke="#E5E7EB"/>
        <text x="11" y="22" fill="#6B7280" font-family="system-ui, sans-serif" font-size="14">⋮</text>
      </g>
    </g>

    <!-- Row 2 -->
    <g transform="translate(0, 115)">
      <line x1="0" y1="0" x2="1140" y2="0" stroke="#E5E7EB"/>
      <text x="20" y="35" fill="#1F2937" font-family="system-ui, sans-serif" font-size="13" font-weight="500">db-master</text>
      <g transform="translate(200, 18)">
        <rect x="0" y="0" width="70" height="22" rx="4" fill="#DCFCE7"/>
        <text x="10" y="15" fill="#16A34A" font-family="system-ui, sans-serif" font-size="11">Running</text>
      </g>
      <text x="300" y="35" fill="#1F2937" font-family="system-ui, sans-serif" font-size="13">8</text>
      <text x="380" y="35" fill="#1F2937" font-family="system-ui, sans-serif" font-size="13">32 Go</text>
      <text x="460" y="35" fill="#1F2937" font-family="system-ui, sans-serif" font-size="13">500 Go</text>
      <text x="560" y="35" fill="#1F2937" font-family="system-ui, sans-serif" font-size="13">192.168.1.20</text>
      <text x="720" y="35" fill="#1F2937" font-family="system-ui, sans-serif" font-size="13">Debian 12</text>
      <text x="900" y="35" fill="#6B7280" font-family="system-ui, sans-serif" font-size="12">esxi-host-02</text>
      <!-- Action menu OPEN -->
      <g transform="translate(1050, 18)">
        <rect x="0" y="0" width="30" height="30" rx="4" fill="#F9FAFB" stroke="#0050D7"/>
        <text x="11" y="22" fill="#0050D7" font-family="system-ui, sans-serif" font-size="14">⋮</text>
      </g>
      <!-- Dropdown -->
      <g transform="translate(930, 53)">
        <rect x="0" y="0" width="150" height="175" rx="4" fill="white" stroke="#E5E7EB" filter="url(#shadow)"/>
        <text x="15" y="27" fill="#1F2937" font-family="system-ui, sans-serif" font-size="12">Console</text>
        <text x="15" y="52" fill="#1F2937" font-family="system-ui, sans-serif" font-size="12">Redémarrer</text>
        <text x="15" y="77" fill="#1F2937" font-family="system-ui, sans-serif" font-size="12">Arrêter</text>
        <text x="15" y="102" fill="#1F2937" font-family="system-ui, sans-serif" font-size="12">Snapshot</text>
        <text x="15" y="127" fill="#1F2937" font-family="system-ui, sans-serif" font-size="12">Migrer</text>
        <line x1="10" y1="145" x2="140" y2="145" stroke="#E5E7EB"/>
        <text x="15" y="165" fill="#DC2626" font-family="system-ui, sans-serif" font-size="12">Supprimer</text>
      </g>
    </g>

    <!-- Row 3 -->
    <g transform="translate(0, 180)">
      <line x1="0" y1="0" x2="1140" y2="0" stroke="#E5E7EB"/>
      <text x="20" y="35" fill="#1F2937" font-family="system-ui, sans-serif" font-size="13" font-weight="500">dev-env</text>
      <g transform="translate(200, 18)">
        <rect x="0" y="0" width="70" height="22" rx="4" fill="#E5E7EB"/>
        <text x="12" y="15" fill="#6B7280" font-family="system-ui, sans-serif" font-size="11">Stopped</text>
      </g>
      <text x="300" y="35" fill="#1F2937" font-family="system-ui, sans-serif" font-size="13">2</text>
      <text x="380" y="35" fill="#1F2937" font-family="system-ui, sans-serif" font-size="13">4 Go</text>
      <text x="460" y="35" fill="#1F2937" font-family="system-ui, sans-serif" font-size="13">50 Go</text>
      <text x="560" y="35" fill="#6B7280" font-family="system-ui, sans-serif" font-size="13">-</text>
      <text x="720" y="35" fill="#1F2937" font-family="system-ui, sans-serif" font-size="13">Windows 11</text>
      <text x="900" y="35" fill="#6B7280" font-family="system-ui, sans-serif" font-size="12">esxi-host-01</text>
      <g transform="translate(1050, 18)">
        <rect x="0" y="0" width="30" height="30" rx="4" fill="#F9FAFB" stroke="#E5E7EB"/>
        <text x="11" y="22" fill="#6B7280" font-family="system-ui, sans-serif" font-size="14">⋮</text>
      </g>
    </g>

    <!-- Row 4 -->
    <g transform="translate(0, 245)">
      <line x1="0" y1="0" x2="1140" y2="0" stroke="#E5E7EB"/>
      <text x="20" y="35" fill="#1F2937" font-family="system-ui, sans-serif" font-size="13" font-weight="500">monitoring</text>
      <g transform="translate(200, 18)">
        <rect x="0" y="0" width="70" height="22" rx="4" fill="#DCFCE7"/>
        <text x="10" y="15" fill="#16A34A" font-family="system-ui, sans-serif" font-size="11">Running</text>
      </g>
      <text x="300" y="35" fill="#1F2937" font-family="system-ui, sans-serif" font-size="13">4</text>
      <text x="380" y="35" fill="#1F2937" font-family="system-ui, sans-serif" font-size="13">16 Go</text>
      <text x="460" y="35" fill="#1F2937" font-family="system-ui, sans-serif" font-size="13">200 Go</text>
      <text x="560" y="35" fill="#1F2937" font-family="system-ui, sans-serif" font-size="13">192.168.1.30</text>
      <text x="720" y="35" fill="#1F2937" font-family="system-ui, sans-serif" font-size="13">CentOS 9</text>
      <text x="900" y="35" fill="#6B7280" font-family="system-ui, sans-serif" font-size="12">esxi-host-03</text>
      <g transform="translate(1050, 18)">
        <rect x="0" y="0" width="30" height="30" rx="4" fill="#F9FAFB" stroke="#E5E7EB"/>
        <text x="11" y="22" fill="#6B7280" font-family="system-ui, sans-serif" font-size="14">⋮</text>
      </g>
    </g>
  </g>

  <!-- Pagination -->
  <g transform="translate(30, 575)">
    <text x="0" y="0" fill="#6B7280" font-family="system-ui, sans-serif" font-size="12">1 - 4 sur 24 machines virtuelles</text>
  </g>

  <!-- Shadow filter -->
  <defs>
    <filter id="shadow" x="-10%" y="-10%" width="120%" height="130%">
      <feDropShadow dx="0" dy="2" stdDeviation="4" flood-opacity="0.15"/>
    </filter>
  </defs>
</svg>
