<?xml version="1.0" encoding="UTF-8"?>
<svg width="600" height="550" viewBox="0 0 600 550" fill="none" xmlns="http://www.w3.org/2000/svg">
  <title>Private Cloud - Order Host Modal</title>
  <rect width="600" height="550" fill="#F9FAFB"/>
  <g transform="translate(50, 30)">
    <rect x="0" y="0" width="500" height="490" rx="8" fill="white" stroke="#E5E7EB" filter="url(#shadow)"/>
    <rect x="0" y="0" width="500" height="55" rx="8" fill="#F3F4F6"/>
    <text x="20" y="35" fill="#1F2937" font-family="system-ui, sans-serif" font-size="18" font-weight="600">Commander un host ESXi</text>
    <text x="460" y="35" fill="#6B7280" font-family="system-ui, sans-serif" font-size="20">×</text>
    <g transform="translate(20, 75)">
      <text x="0" y="0" fill="#1F2937" font-family="system-ui, sans-serif" font-size="13" font-weight="500">Datacenter *</text>
      <rect x="0" y="10" width="460" height="40" rx="4" fill="white" stroke="#E5E7EB"/>
      <text x="15" y="38" fill="#1F2937" font-family="system-ui, sans-serif" font-size="13">DC1 - Paris</text>
      <text x="430" y="38" fill="#6B7280" font-family="system-ui, sans-serif" font-size="12">▼</text>
    </g>
    <g transform="translate(20, 150)">
      <text x="0" y="0" fill="#1F2937" font-family="system-ui, sans-serif" font-size="13" font-weight="500">Gamme *</text>
      <rect x="0" y="15" width="145" height="60" rx="4" fill="white" stroke="#E5E7EB"/>
      <circle cx="25" cy="45" r="8" fill="white" stroke="#E5E7EB"/>
      <text x="45" y="40" fill="#1F2937" font-family="system-ui, sans-serif" font-size="12">Essentials</text>
      <text x="45" y="55" fill="#6B7280" font-family="system-ui, sans-serif" font-size="10">vSphere</text>
      <rect x="160" y="15" width="145" height="60" rx="4" fill="white" stroke="#0050D7" stroke-width="2"/>
      <circle cx="185" cy="45" r="8" fill="#0050D7"/>
      <circle cx="185" cy="45" r="4" fill="white"/>
      <text x="205" y="40" fill="#1F2937" font-family="system-ui, sans-serif" font-size="12" font-weight="500">SDDC</text>
      <text x="205" y="55" fill="#6B7280" font-family="system-ui, sans-serif" font-size="10">vSphere + NSX</text>
      <rect x="320" y="15" width="140" height="60" rx="4" fill="white" stroke="#E5E7EB"/>
      <circle cx="345" cy="45" r="8" fill="white" stroke="#E5E7EB"/>
      <text x="365" y="40" fill="#1F2937" font-family="system-ui, sans-serif" font-size="12">Premier</text>
      <text x="365" y="55" fill="#6B7280" font-family="system-ui, sans-serif" font-size="10">+ vSAN + Backup</text>
    </g>
    <g transform="translate(20, 250)">
      <text x="0" y="0" fill="#1F2937" font-family="system-ui, sans-serif" font-size="13" font-weight="500">Configuration *</text>
      <rect x="0" y="10" width="460" height="40" rx="4" fill="white" stroke="#E5E7EB"/>
      <text x="15" y="38" fill="#1F2937" font-family="system-ui, sans-serif" font-size="13">AMD EPYC 7313 - 32 cores - 256 Go RAM</text>
      <text x="430" y="38" fill="#6B7280" font-family="system-ui, sans-serif" font-size="12">▼</text>
    </g>
    <g transform="translate(20, 325)">
      <text x="0" y="0" fill="#1F2937" font-family="system-ui, sans-serif" font-size="13" font-weight="500">Facturation</text>
      <rect x="0" y="15" width="220" height="45" rx="4" fill="white" stroke="#E5E7EB"/>
      <circle cx="25" cy="37" r="8" fill="white" stroke="#E5E7EB"/>
      <text x="45" y="42" fill="#1F2937" font-family="system-ui, sans-serif" font-size="13">Horaire</text>
      <rect x="240" y="15" width="220" height="45" rx="4" fill="white" stroke="#0050D7" stroke-width="2"/>
      <circle cx="265" cy="37" r="8" fill="#0050D7"/>
      <circle cx="265" cy="37" r="4" fill="white"/>
      <text x="285" y="42" fill="#1F2937" font-family="system-ui, sans-serif" font-size="13" font-weight="500">Mensuel (-20%)</text>
    </g>
    <g transform="translate(20, 400)">
      <rect x="0" y="0" width="460" height="45" rx="4" fill="#F3F4F6"/>
      <text x="15" y="28" fill="#6B7280" font-family="system-ui, sans-serif" font-size="13">Prix estimé :</text>
      <text x="350" y="28" fill="#1F2937" font-family="system-ui, sans-serif" font-size="14" font-weight="600">450,00 € HT/mois</text>
    </g>
    <g transform="translate(20, 455)">
      <rect x="0" y="0" width="100" height="40" rx="4" fill="white" stroke="#E5E7EB"/>
      <text x="25" y="26" fill="#1F2937" font-family="system-ui, sans-serif" font-size="13">Annuler</text>
      <rect x="350" y="0" width="110" height="40" rx="4" fill="#0050D7"/>
      <text x="370" y="26" fill="white" font-family="system-ui, sans-serif" font-size="13" font-weight="500">Commander</text>
    </g>
  </g>
  <defs>
    <filter id="shadow" x="-20%" y="-20%" width="140%" height="140%">
      <feDropShadow dx="0" dy="4" stdDeviation="8" flood-opacity="0.15"/>
    </filter>
  </defs>
</svg>
