<svg xmlns="http://www.w3.org/2000/svg" viewBox="0 0 1440 600" width="1440" height="600">
  <defs>
    <style>
      .bg-header { fill: #000E9C; }
      .bg-white { fill: #FFFFFF; }
      .bg-muted { fill: #F9FAFB; }
      .text-dark { font-family: 'Source Sans Pro', sans-serif; font-size: 14px; fill: #1F2937; }
      .text-muted { font-family: 'Source Sans Pro', sans-serif; font-size: 13px; fill: #6B7280; }
      .text-white { font-family: 'Source Sans Pro', sans-serif; fill: #FFFFFF; }
      .text-title { font-family: 'Source Sans Pro', sans-serif; font-size: 18px; font-weight: 600; fill: #1F2937; }
      .border { stroke: #E5E7EB; stroke-width: 1; fill: none; }
      .btn-primary { fill: #0050D7; }
      .btn-secondary { fill: #FFFFFF; stroke: #D1D5DB; }
    </style>
  </defs>

  <!-- Background -->
  <rect width="1440" height="600" class="bg-muted"/>

  <!-- Header -->
  <rect width="1440" height="60" class="bg-header"/>
  <text x="80" y="38" class="text-white" font-size="18" font-weight="600">OVHcloud</text>
  <text x="200" y="38" class="text-white" font-size="14">Telecom</text>

  <!-- Main content -->
  <g transform="translate(80, 80)">
    <rect x="0" y="0" width="1100" height="480" rx="8" class="bg-white" stroke="#E5E7EB"/>

    <!-- Title section -->
    <text x="25" y="40" class="text-title">Numéros abrégés</text>
    <text x="25" y="65" class="text-muted">Configurez des numéros courts pour joindre rapidement vos collaborateurs.</text>

    <!-- Action buttons -->
    <g transform="translate(25, 90)">
      <rect x="0" y="0" width="140" height="36" rx="4" class="btn-primary"/>
      <text x="70" y="24" text-anchor="middle" class="text-white" font-size="13">+ Ajouter</text>

      <rect x="150" y="0" width="120" height="36" rx="4" class="btn-secondary"/>
      <text x="210" y="24" text-anchor="middle" class="text-dark" font-size="13">Importer CSV</text>

      <rect x="280" y="0" width="120" height="36" rx="4" class="btn-secondary"/>
      <text x="340" y="24" text-anchor="middle" class="text-dark" font-size="13">Exporter CSV</text>
    </g>

    <!-- Table header -->
    <g transform="translate(25, 150)">
      <rect x="0" y="0" width="1050" height="40" fill="#F9FAFB"/>
      <text x="20" y="26" class="text-muted" font-weight="600">N° abrégé</text>
      <text x="150" y="26" class="text-muted" font-weight="600">Destination</text>
      <text x="400" y="26" class="text-muted" font-weight="600">Nom</text>
      <text x="650" y="26" class="text-muted" font-weight="600">Prénom</text>
      <text x="850" y="26" class="text-muted" font-weight="600">Actions</text>
    </g>

    <!-- Row 1 -->
    <g transform="translate(25, 190)">
      <rect x="0" y="0" width="1050" height="50" class="bg-white"/>
      <line x1="0" y1="50" x2="1050" y2="50" stroke="#E5E7EB"/>

      <text x="20" y="30" class="text-dark" font-weight="600">100</text>
      <text x="150" y="30" class="text-dark">+33 1 23 45 67 89</text>
      <text x="400" y="30" class="text-dark">Dupont</text>
      <text x="650" y="30" class="text-dark">Marie</text>

      <g transform="translate(850, 12)">
        <rect x="0" y="0" width="32" height="28" rx="4" fill="#FFFFFF" stroke="#D1D5DB"/>
        <text x="16" y="18" text-anchor="middle" class="text-dark" font-size="12">✎</text>
        <rect x="40" y="0" width="32" height="28" rx="4" fill="#FFFFFF" stroke="#DC2626"/>
        <text x="56" y="18" text-anchor="middle" fill="#DC2626" font-size="12">×</text>
      </g>
    </g>

    <!-- Row 2 -->
    <g transform="translate(25, 240)">
      <rect x="0" y="0" width="1050" height="50" class="bg-white"/>
      <line x1="0" y1="50" x2="1050" y2="50" stroke="#E5E7EB"/>

      <text x="20" y="30" class="text-dark" font-weight="600">101</text>
      <text x="150" y="30" class="text-dark">+33 1 23 45 67 90</text>
      <text x="400" y="30" class="text-dark">Martin</text>
      <text x="650" y="30" class="text-dark">Jean</text>

      <g transform="translate(850, 12)">
        <rect x="0" y="0" width="32" height="28" rx="4" fill="#FFFFFF" stroke="#D1D5DB"/>
        <text x="16" y="18" text-anchor="middle" class="text-dark" font-size="12">✎</text>
        <rect x="40" y="0" width="32" height="28" rx="4" fill="#FFFFFF" stroke="#DC2626"/>
        <text x="56" y="18" text-anchor="middle" fill="#DC2626" font-size="12">×</text>
      </g>
    </g>

    <!-- Row 3 -->
    <g transform="translate(25, 290)">
      <rect x="0" y="0" width="1050" height="50" class="bg-white"/>
      <line x1="0" y1="50" x2="1050" y2="50" stroke="#E5E7EB"/>

      <text x="20" y="30" class="text-dark" font-weight="600">200</text>
      <text x="150" y="30" class="text-dark">+33 1 00 00 00 00</text>
      <text x="400" y="30" class="text-dark">Standard</text>
      <text x="650" y="30" class="text-dark">-</text>

      <g transform="translate(850, 12)">
        <rect x="0" y="0" width="32" height="28" rx="4" fill="#FFFFFF" stroke="#D1D5DB"/>
        <text x="16" y="18" text-anchor="middle" class="text-dark" font-size="12">✎</text>
        <rect x="40" y="0" width="32" height="28" rx="4" fill="#FFFFFF" stroke="#DC2626"/>
        <text x="56" y="18" text-anchor="middle" fill="#DC2626" font-size="12">×</text>
      </g>
    </g>

    <!-- Row 4 -->
    <g transform="translate(25, 340)">
      <rect x="0" y="0" width="1050" height="50" class="bg-white"/>
      <line x1="0" y1="50" x2="1050" y2="50" stroke="#E5E7EB"/>

      <text x="20" y="30" class="text-dark" font-weight="600">300</text>
      <text x="150" y="30" class="text-dark">+33 8 00 12 34 56</text>
      <text x="400" y="30" class="text-dark">Support</text>
      <text x="650" y="30" class="text-dark">-</text>

      <g transform="translate(850, 12)">
        <rect x="0" y="0" width="32" height="28" rx="4" fill="#FFFFFF" stroke="#D1D5DB"/>
        <text x="16" y="18" text-anchor="middle" class="text-dark" font-size="12">✎</text>
        <rect x="40" y="0" width="32" height="28" rx="4" fill="#FFFFFF" stroke="#DC2626"/>
        <text x="56" y="18" text-anchor="middle" fill="#DC2626" font-size="12">×</text>
      </g>
    </g>

    <!-- Info -->
    <g transform="translate(25, 410)">
      <rect x="0" y="0" width="1050" height="50" rx="4" fill="#EFF6FF" stroke="#BFDBFE"/>
      <text x="20" y="30" fill="#1E40AF" font-size="13">ℹ Les numéros abrégés sont disponibles dans la plage 100-7999. Chaque numéro peut pointer vers une ligne ou un numéro externe.</text>
    </g>
  </g>
</svg>
