<?xml version="1.0" encoding="UTF-8"?>
<svg width="1100" height="550" viewBox="0 0 1100 550" fill="none" xmlns="http://www.w3.org/2000/svg">
  <title>IAM - Advanced User Search</title>
  <rect width="1100" height="550" fill="#F9FAFB"/>
  <g transform="translate(30, 30)"><text x="0" y="0" fill="#1F2937" font-family="system-ui, sans-serif" font-size="22" font-weight="600">Recherche avancée</text><text x="0" y="30" fill="#6B7280" font-family="system-ui, sans-serif" font-size="13">Trouvez des utilisateurs avec des critères multiples.</text></g>
  <g transform="translate(30, 90)">
    <rect x="0" y="0" width="1040" height="100" rx="8" fill="white" stroke="#E5E7EB"/>
    <g transform="translate(20, 20)">
      <text x="0" y="15" fill="#1F2937" font-family="system-ui, sans-serif" font-size="12" font-weight="500">Nom ou email</text>
      <rect x="0" y="25" width="220" height="40" rx="4" fill="white" stroke="#E5E7EB"/>
      <text x="15" y="52" fill="#9CA3AF" font-family="system-ui, sans-serif" font-size="12">Rechercher...</text>
    </g>
    <g transform="translate(260, 20)">
      <text x="0" y="15" fill="#1F2937" font-family="system-ui, sans-serif" font-size="12" font-weight="500">Rôle</text>
      <rect x="0" y="25" width="150" height="40" rx="4" fill="white" stroke="#E5E7EB"/>
      <text x="15" y="52" fill="#6B7280" font-family="system-ui, sans-serif" font-size="12">Tous</text>
      <text x="130" y="52" fill="#6B7280" font-family="system-ui, sans-serif" font-size="12">▼</text>
    </g>
    <g transform="translate(430, 20)">
      <text x="0" y="15" fill="#1F2937" font-family="system-ui, sans-serif" font-size="12" font-weight="500">Groupe</text>
      <rect x="0" y="25" width="150" height="40" rx="4" fill="white" stroke="#E5E7EB"/>
      <text x="15" y="52" fill="#6B7280" font-family="system-ui, sans-serif" font-size="12">Tous</text>
      <text x="130" y="52" fill="#6B7280" font-family="system-ui, sans-serif" font-size="12">▼</text>
    </g>
    <g transform="translate(600, 20)">
      <text x="0" y="15" fill="#1F2937" font-family="system-ui, sans-serif" font-size="12" font-weight="500">2FA</text>
      <rect x="0" y="25" width="120" height="40" rx="4" fill="white" stroke="#E5E7EB"/>
      <text x="15" y="52" fill="#6B7280" font-family="system-ui, sans-serif" font-size="12">Tous</text>
      <text x="100" y="52" fill="#6B7280" font-family="system-ui, sans-serif" font-size="12">▼</text>
    </g>
    <g transform="translate(740, 20)">
      <text x="0" y="15" fill="#1F2937" font-family="system-ui, sans-serif" font-size="12" font-weight="500">Dernière connexion</text>
      <rect x="0" y="25" width="150" height="40" rx="4" fill="white" stroke="#E5E7EB"/>
      <text x="15" y="52" fill="#6B7280" font-family="system-ui, sans-serif" font-size="12">Tous</text>
      <text x="130" y="52" fill="#6B7280" font-family="system-ui, sans-serif" font-size="12">▼</text>
    </g>
    <g transform="translate(910, 45)">
      <rect x="0" y="0" width="110" height="40" rx="4" fill="#0050D7"/>
      <text x="25" y="26" fill="white" font-family="system-ui, sans-serif" font-size="13">🔍 Rechercher</text>
    </g>
  </g>
  <g transform="translate(30, 210)">
    <text x="0" y="0" fill="#6B7280" font-family="system-ui, sans-serif" font-size="13">23 résultats trouvés</text>
  </g>
  <g transform="translate(30, 240)">
    <rect x="0" y="0" width="1040" height="290" rx="8" fill="white" stroke="#E5E7EB"/>
    <g transform="translate(0, 0)">
      <rect x="0" y="0" width="1040" height="45" rx="8" fill="#F9FAFB"/>
      <rect x="20" y="15" width="18" height="18" rx="3" fill="white" stroke="#E5E7EB"/>
      <text x="60" y="28" fill="#6B7280" font-family="system-ui, sans-serif" font-size="11" font-weight="600">UTILISATEUR</text>
      <text x="300" y="28" fill="#6B7280" font-family="system-ui, sans-serif" font-size="11" font-weight="600">RÔLE</text>
      <text x="430" y="28" fill="#6B7280" font-family="system-ui, sans-serif" font-size="11" font-weight="600">GROUPES</text>
      <text x="600" y="28" fill="#6B7280" font-family="system-ui, sans-serif" font-size="11" font-weight="600">2FA</text>
      <text x="700" y="28" fill="#6B7280" font-family="system-ui, sans-serif" font-size="11" font-weight="600">DERNIÈRE CONNEXION</text>
      <text x="900" y="28" fill="#6B7280" font-family="system-ui, sans-serif" font-size="11" font-weight="600">STATUT</text>
    </g>
    <g transform="translate(0, 55)">
      <rect x="20" y="5" width="18" height="18" rx="3" fill="#0050D7"/>
      <text x="26" y="19" fill="white" font-family="system-ui, sans-serif" font-size="12">✓</text>
      <circle cx="75" cy="14" r="14" fill="#16A34A"/><text x="75" y="18" fill="white" font-family="system-ui, sans-serif" font-size="8" font-weight="600" text-anchor="middle">NB</text>
      <text x="100" y="12" fill="#1F2937" font-family="system-ui, sans-serif" font-size="12" font-weight="500">Nicolas Bernard</text>
      <text x="100" y="28" fill="#6B7280" font-family="system-ui, sans-serif" font-size="10">nicolas.bernard@company.com</text>
      <rect x="300" y="3" width="70" height="22" rx="4" fill="#DBEAFE"/><text x="313" y="19" fill="#0050D7" font-family="system-ui, sans-serif" font-size="10">Developer</text>
      <text x="430" y="18" fill="#6B7280" font-family="system-ui, sans-serif" font-size="11">Developers, DevOps</text>
      <rect x="600" y="3" width="50" height="22" rx="4" fill="#DCFCE7"/><text x="612" y="19" fill="#16A34A" font-family="system-ui, sans-serif" font-size="10">Oui</text>
      <text x="700" y="18" fill="#6B7280" font-family="system-ui, sans-serif" font-size="11">Il y a 2h</text>
      <rect x="900" y="3" width="50" height="22" rx="4" fill="#DCFCE7"/><text x="912" y="19" fill="#16A34A" font-family="system-ui, sans-serif" font-size="10">Actif</text>
    </g>
    <line x1="20" y1="95" x2="1020" y2="95" stroke="#E5E7EB"/>
    <g transform="translate(0, 105)">
      <rect x="20" y="5" width="18" height="18" rx="3" fill="white" stroke="#E5E7EB"/>
      <circle cx="75" cy="14" r="14" fill="#F59E0B"/><text x="75" y="18" fill="white" font-family="system-ui, sans-serif" font-size="8" font-weight="600" text-anchor="middle">LM</text>
      <text x="100" y="12" fill="#1F2937" font-family="system-ui, sans-serif" font-size="12" font-weight="500">Laura Martin</text>
      <text x="100" y="28" fill="#6B7280" font-family="system-ui, sans-serif" font-size="10">laura.martin@company.com</text>
      <rect x="300" y="3" width="50" height="22" rx="4" fill="#FEE2E2"/><text x="312" y="19" fill="#DC2626" font-family="system-ui, sans-serif" font-size="10">Admin</text>
      <text x="430" y="18" fill="#6B7280" font-family="system-ui, sans-serif" font-size="11">Admins</text>
      <rect x="600" y="3" width="50" height="22" rx="4" fill="#DCFCE7"/><text x="612" y="19" fill="#16A34A" font-family="system-ui, sans-serif" font-size="10">Oui</text>
      <text x="700" y="18" fill="#6B7280" font-family="system-ui, sans-serif" font-size="11">Il y a 4h</text>
      <rect x="900" y="3" width="50" height="22" rx="4" fill="#DCFCE7"/><text x="912" y="19" fill="#16A34A" font-family="system-ui, sans-serif" font-size="10">Actif</text>
    </g>
    <line x1="20" y1="145" x2="1020" y2="145" stroke="#E5E7EB"/>
    <g transform="translate(0, 155)">
      <rect x="20" y="5" width="18" height="18" rx="3" fill="white" stroke="#E5E7EB"/>
      <circle cx="75" cy="14" r="14" fill="#DC2626"/><text x="75" y="18" fill="white" font-family="system-ui, sans-serif" font-size="8" font-weight="600" text-anchor="middle">YD</text>
      <text x="100" y="12" fill="#1F2937" font-family="system-ui, sans-serif" font-size="12" font-weight="500">Yann Dupont</text>
      <text x="100" y="28" fill="#6B7280" font-family="system-ui, sans-serif" font-size="10">yann.dupont@company.com</text>
      <rect x="300" y="3" width="50" height="22" rx="4" fill="#F3E8FF"/><text x="312" y="19" fill="#7C3AED" font-family="system-ui, sans-serif" font-size="10">Viewer</text>
      <text x="430" y="18" fill="#6B7280" font-family="system-ui, sans-serif" font-size="11">Viewers</text>
      <rect x="600" y="3" width="50" height="22" rx="4" fill="#FEF3C7"/><text x="612" y="19" fill="#92400E" font-family="system-ui, sans-serif" font-size="10">Non</text>
      <text x="700" y="18" fill="#6B7280" font-family="system-ui, sans-serif" font-size="11">Il y a 2j</text>
      <rect x="900" y="3" width="50" height="22" rx="4" fill="#DCFCE7"/><text x="912" y="19" fill="#16A34A" font-family="system-ui, sans-serif" font-size="10">Actif</text>
    </g>
    <g transform="translate(400, 240)">
      <text x="80" y="15" fill="#6B7280" font-family="system-ui, sans-serif" font-size="12">Page 1 sur 5</text>
      <rect x="160" y="0" width="30" height="30" rx="4" fill="white" stroke="#E5E7EB"/><text x="170" y="21" fill="#6B7280" font-family="system-ui, sans-serif" font-size="12">‹</text>
      <rect x="200" y="0" width="30" height="30" rx="4" fill="#0050D7"/><text x="210" y="21" fill="white" font-family="system-ui, sans-serif" font-size="12">1</text>
      <rect x="240" y="0" width="30" height="30" rx="4" fill="white" stroke="#E5E7EB"/><text x="250" y="21" fill="#6B7280" font-family="system-ui, sans-serif" font-size="12">›</text>
    </g>
  </g>
</svg>
