<svg xmlns="http://www.w3.org/2000/svg" viewBox="0 0 1440 900" width="1440" height="900">
  <defs>
    <style>
      .bg-header { fill: #000E9C; }
      .bg-main { fill: #F6F6F9; }
      .bg-white { fill: #FFFFFF; }
      .bg-primary { fill: #0050D7; }
      .bg-success { fill: #DEF7EC; }
      .border { stroke: #E5E7EB; stroke-width: 1; fill: none; }
      .btn-outline { stroke: #0050D7; stroke-width: 1; fill: #FFFFFF; }
      .btn-primary { fill: #0050D7; }
      .row-selected { fill: #E8F0FE; }
      .text-white { fill: #FFFFFF; font-family: 'Source Sans Pro', sans-serif; }
      .text-dark { fill: #1F2937; font-family: 'Source Sans Pro', sans-serif; }
      .text-muted { fill: #6B7280; font-family: 'Source Sans Pro', sans-serif; }
      .text-primary { fill: #0050D7; font-family: 'Source Sans Pro', sans-serif; }
    </style>
  </defs>

  <rect width="1440" height="900" class="bg-main"/>
  <rect width="1440" height="50" class="bg-header"/>
  <text x="510" y="32" class="text-white" font-size="14" font-weight="600">Web Cloud</text>
  <rect x="505" y="46" width="75" height="3" fill="#FFFFFF"/>
  <rect x="0" y="50" width="1440" height="40" class="bg-white"/>
  <line x1="0" y1="89" x2="1440" y2="89" stroke="#E5E7EB"/>
  <text x="240" y="75" class="text-primary" font-size="14" font-weight="600">Hébergement</text>
  <rect x="235" y="85" width="85" height="3" fill="#0050D7"/>

  <g transform="translate(0, 105)">
    <g transform="translate(24, 0)">
      <rect x="0" y="0" width="280" height="765" rx="8" class="bg-white"/>
      <rect x="0" y="0" width="280" height="765" rx="8" class="border"/>
      <rect x="6" y="80" width="268" height="56" rx="6" class="row-selected"/>
      <text x="52" y="100" class="text-dark" font-size="13" font-weight="500">monsite.example.com</text>
    </g>
    
    <g transform="translate(320, 0)">
      <rect x="0" y="0" width="1096" height="765" rx="8" class="bg-white"/>
      <rect x="0" y="0" width="1096" height="765" rx="8" class="border"/>
      
      <g transform="translate(20, 0)">
        <text x="0" y="28" class="text-dark" font-size="18" font-weight="600">monsite.example.com</text>
        
        <!-- NAV3 - CDN actif -->
        <g transform="translate(0, 42)">
          <rect x="0" y="0" width="50" height="26" rx="4" class="btn-outline"/>
          <text x="25" y="17" class="text-primary" font-size="11" text-anchor="middle">Home</text>
          <rect x="546" y="0" width="40" height="26" rx="4" class="bg-primary"/>
          <text x="566" y="17" class="text-white" font-size="11" text-anchor="middle">CDN</text>
        </g>
        
        <!-- NAV4 -->
        <g transform="translate(0, 78)">
          <text x="0" y="14" class="text-primary" font-size="12" font-weight="500">État</text>
          <rect x="0" y="18" width="28" height="2" fill="#0050D7"/>
          <text x="50" y="14" class="text-muted" font-size="12">Paramètres</text>
        </g>
        
        <!-- TOOLBAR -->
        <g transform="translate(0, 110)">
          <rect x="0" y="0" width="120" height="32" rx="4" class="btn-outline"/>
          <text x="60" y="21" class="text-primary" font-size="11" text-anchor="middle">Vider le cache</text>
          <rect x="130" y="0" width="150" height="32" rx="4" class="btn-outline"/>
          <text x="205" y="21" class="text-primary" font-size="11" text-anchor="middle">Désactiver le CDN</text>
        </g>
        
        <!-- BLOC CDN STATUS -->
        <g transform="translate(0, 160)">
          <rect x="0" y="0" width="1056" height="250" rx="8" fill="#FFFFFF" stroke="#E5E7EB"/>
          <text x="16" y="28" class="text-dark" font-size="15" font-weight="700">CDN</text>
          
          <text x="16" y="60" class="text-muted" font-size="10" font-weight="600">ÉTAT</text>
          <rect x="16" y="68" width="55" height="18" rx="9" fill="#DEF7EC"/>
          <text x="43" y="81" fill="#03543F" font-size="10" text-anchor="middle">Activé</text>
          
          <text x="100" y="60" class="text-muted" font-size="10" font-weight="600">OFFRE</text>
          <text x="100" y="80" class="text-dark" font-size="11">CDN Basic</text>
          
          <text x="250" y="60" class="text-muted" font-size="10" font-weight="600">REQUÊTES (24H)</text>
          <text x="250" y="80" class="text-dark" font-size="11">15,234</text>
          
          <text x="400" y="60" class="text-muted" font-size="10" font-weight="600">CACHE HIT RATIO</text>
          <text x="400" y="80" class="text-dark" font-size="11">87%</text>
          
          <text x="550" y="60" class="text-muted" font-size="10" font-weight="600">BANDE PASSANTE (24H)</text>
          <text x="550" y="80" class="text-dark" font-size="11">2.4 GB</text>
          
          <text x="16" y="120" class="text-muted" font-size="10" font-weight="600">DOMAINES CDN ACTIVÉS</text>
          <text x="16" y="145" class="text-dark" font-size="11">monsite.example.com</text>
          <text x="220" y="145" class="text-dark" font-size="11">www.monsite.example.com</text>
          
          <text x="16" y="180" class="text-muted" font-size="10" font-weight="600">DERNIÈRE PURGE</text>
          <text x="16" y="200" class="text-dark" font-size="11">29/12/2025 15:30</text>
          
          <text x="250" y="180" class="text-muted" font-size="10" font-weight="600">PROCHAINE EXPIRATION CACHE</text>
          <text x="250" y="200" class="text-dark" font-size="11">30/12/2025 15:30</text>
        </g>
      </g>
    </g>
  </g>
</svg>
