<svg xmlns="http://www.w3.org/2000/svg" viewBox="0 0 1440 900" width="1440" height="900">
  <defs>
    <style>
      .bg-header { fill: #000E9C; }
      .bg-main { fill: #F6F6F9; }
      .bg-white { fill: #FFFFFF; }
      .bg-primary { fill: #0050D7; }
      .bg-success { fill: #DEF7EC; }
      .bg-info { fill: #DBEAFE; }
      .border { stroke: #E5E7EB; stroke-width: 1; fill: none; }
      .btn-outline { stroke: #0050D7; stroke-width: 1; fill: #FFFFFF; }
      .btn-primary { fill: #0050D7; }
      .row-selected { fill: #E8F0FE; }
      .text-white { fill: #FFFFFF; font-family: 'Source Sans Pro', sans-serif; }
      .text-dark { fill: #1F2937; font-family: 'Source Sans Pro', sans-serif; }
      .text-muted { fill: #6B7280; font-family: 'Source Sans Pro', sans-serif; }
      .text-primary { fill: #0050D7; font-family: 'Source Sans Pro', sans-serif; }
      .text-success { fill: #059669; font-family: 'Source Sans Pro', sans-serif; }
    </style>
  </defs>

  <rect width="1440" height="900" class="bg-main"/>

  <!-- NAV1 -->
  <rect width="1440" height="50" class="bg-header"/>
  <text x="40" y="32" class="text-white" font-size="14" opacity="0.7">Accueil</text>
  <text x="110" y="32" class="text-white" font-size="14" opacity="0.7">Public Cloud</text>
  <text x="210" y="32" class="text-white" font-size="14" opacity="0.7">Hosted Private Cloud</text>
  <text x="370" y="32" class="text-white" font-size="14" opacity="0.7">Bare Metal Cloud</text>
  <text x="510" y="32" class="text-white" font-size="14" font-weight="600">Web Cloud</text>
  <rect x="505" y="46" width="75" height="3" fill="#FFFFFF"/>
  <text x="620" y="32" class="text-white" font-size="14" opacity="0.7">Network</text>
  <text x="700" y="32" class="text-white" font-size="14" opacity="0.7">IAM / Securite</text>
  <text x="810" y="32" class="text-white" font-size="14" opacity="0.7">Licences</text>

  <!-- NAV2 -->
  <rect x="0" y="50" width="1440" height="40" class="bg-white"/>
  <line x1="0" y1="89" x2="1440" y2="89" stroke="#E5E7EB"/>
  <text x="40" y="75" class="text-muted" font-size="14">Accueil</text>
  <text x="110" y="75" class="text-primary" font-size="14" font-weight="600">Domaines et DNS</text>
  <rect x="105" y="85" width="110" height="3" fill="#0050D7"/>
  <text x="240" y="75" class="text-muted" font-size="14">Hebergement</text>
  <text x="345" y="75" class="text-muted" font-size="14">Wordpress</text>
  <text x="430" y="75" class="text-muted" font-size="14">Emails</text>
  <text x="500" y="75" class="text-muted" font-size="14">VoIP</text>
  <text x="550" y="75" class="text-muted" font-size="14">Acces</text>
  <text x="1350" y="75" class="text-primary" font-size="13">Guides</text>

  <!-- CONTENT -->
  <g transform="translate(0, 105)">
    <g transform="translate(24, 0)">
      <!-- LEFT PANEL -->
      <rect x="0" y="0" width="280" height="765" rx="8" class="bg-white"/>
      <rect x="0" y="0" width="280" height="765" rx="8" class="border"/>
      <rect x="12" y="12" width="256" height="34" rx="4" fill="#F9FAFB" stroke="#E5E7EB"/>
      <text x="40" y="34" class="text-muted" font-size="12">Rechercher...</text>
      <text x="12" y="68" class="text-muted" font-size="11">Filtrer ▼</text>
      <text x="268" y="68" class="text-muted" font-size="11" text-anchor="end">5 services</text>

      <rect x="6" y="80" width="268" height="64" rx="6" class="row-selected"/>
      <text x="28" y="104" font-size="16">🌐</text>
      <text x="52" y="100" class="text-dark" font-size="13" font-weight="500">example.com</text>
      <text x="52" y="116" class="text-muted" font-size="10">Domaine + Zone</text>
      <rect x="210" y="96" width="46" height="18" rx="9" fill="#DEF7EC"/>
      <text x="233" y="109" fill="#03543F" font-size="10" text-anchor="middle">Actif</text>

      <g transform="translate(6, 150)">
        <text x="22" y="20" font-size="14">🌐</text>
        <text x="46" y="18" class="text-dark" font-size="12">monsite.fr</text>
        <text x="46" y="34" class="text-muted" font-size="10">Domaine + Zone</text>
      </g>
    </g>

    <g transform="translate(320, 0)">
      <!-- RIGHT PANEL -->
      <rect x="0" y="0" width="1096" height="765" rx="8" class="bg-white"/>
      <rect x="0" y="0" width="1096" height="765" rx="8" class="border"/>

      <g transform="translate(20, 0)">
        <text x="0" y="28" class="text-dark" font-size="18" font-weight="600">example.com</text>
        <rect x="160" y="12" width="46" height="18" rx="9" fill="#DEF7EC"/>
        <text x="183" y="25" fill="#03543F" font-size="10" text-anchor="middle">Actif</text>

        <!-- NAV3 - Dashboard actif (pas de tabs, vue dashboard) -->
        <g transform="translate(0, 50)">
          <!-- 2x2 Grid of tiles -->

          <!-- Tile 1: Informations generales -->
          <rect x="0" y="0" width="510" height="280" rx="8" class="bg-white" stroke="#E5E7EB"/>
          <text x="20" y="30" class="text-dark" font-size="14" font-weight="600">Informations generales</text>

          <text x="20" y="65" class="text-muted" font-size="11">Statut</text>
          <rect x="150" y="52" width="46" height="18" rx="9" fill="#DEF7EC"/>
          <text x="173" y="65" fill="#03543F" font-size="10" text-anchor="middle">Actif</text>

          <text x="20" y="95" class="text-muted" font-size="11">Serveurs DNS</text>
          <rect x="150" y="82" width="46" height="18" rx="9" fill="#DEF7EC"/>
          <text x="173" y="95" fill="#03543F" font-size="10" text-anchor="middle">Actifs</text>

          <text x="20" y="125" class="text-muted" font-size="11">Date de creation</text>
          <text x="150" y="125" class="text-dark" font-size="11">15/01/2020</text>

          <text x="20" y="155" class="text-muted" font-size="11">Date d'expiration</text>
          <text x="150" y="155" class="text-dark" font-size="11">15/01/2025</text>

          <text x="20" y="185" class="text-muted" font-size="11">Protection</text>
          <rect x="150" y="172" width="55" height="18" rx="9" fill="#DEF7EC"/>
          <text x="177" y="185" fill="#03543F" font-size="10" text-anchor="middle">Activee</text>

          <text x="20" y="215" class="text-muted" font-size="11">DNSSEC</text>
          <rect x="150" y="202" width="50" height="18" rx="9" fill="#DEF7EC"/>
          <text x="175" y="215" fill="#03543F" font-size="10" text-anchor="middle">Active</text>

          <text x="20" y="260" class="text-primary" font-size="11">Voir les details →</text>

          <!-- Tile 2: Securite -->
          <rect x="530" y="0" width="510" height="280" rx="8" class="bg-white" stroke="#E5E7EB"/>
          <text x="550" y="30" class="text-dark" font-size="14" font-weight="600">Securite</text>

          <text x="550" y="65" class="text-muted" font-size="11">Protection contre le transfert</text>
          <rect x="750" y="52" width="55" height="18" rx="9" fill="#DEF7EC"/>
          <text x="777" y="65" fill="#03543F" font-size="10" text-anchor="middle">Activee</text>
          <text x="950" y="65" class="text-primary" font-size="11">Modifier</text>

          <text x="550" y="100" class="text-muted" font-size="11">Delegation Securisee - DNSSEC</text>
          <rect x="750" y="87" width="50" height="18" rx="9" fill="#DEF7EC"/>
          <text x="775" y="100" fill="#03543F" font-size="10" text-anchor="middle">Active</text>
          <text x="950" y="100" class="text-primary" font-size="11">Modifier</text>

          <text x="550" y="135" class="text-muted" font-size="11">Code AUTH/INFO</text>
          <text x="950" y="135" class="text-primary" font-size="11">Afficher</text>

          <text x="550" y="170" class="text-muted" font-size="11">Affichage du WHOIS</text>
          <text x="950" y="170" class="text-primary" font-size="11">Configurer</text>

          <text x="550" y="205" class="text-muted" font-size="11">Adresses Anti-spam</text>
          <text x="950" y="205" class="text-primary" font-size="11">Gerer</text>

          <!-- Tile 3: Hebergement Web et e-mail -->
          <rect x="0" y="300" width="510" height="200" rx="8" class="bg-white" stroke="#E5E7EB"/>
          <text x="20" y="330" class="text-dark" font-size="14" font-weight="600">Hebergement Web et e-mail</text>

          <text x="20" y="365" class="text-muted" font-size="11">Hebergements associes</text>
          <text x="20" y="385" class="text-primary" font-size="11">hosting-example.cluster001.hosting.ovh.net</text>

          <text x="20" y="420" class="text-muted" font-size="11">Sous-domaines et multisites</text>
          <text x="20" y="440" class="text-dark" font-size="11">www.example.com</text>
          <text x="200" y="440" class="text-primary" font-size="11">Tout afficher</text>

          <!-- Tile 4: Resume des options -->
          <rect x="530" y="300" width="510" height="200" rx="8" class="bg-white" stroke="#E5E7EB"/>
          <text x="550" y="330" class="text-dark" font-size="14" font-weight="600">Resume des options</text>

          <text x="550" y="365" class="text-muted" font-size="11">DNS Anycast</text>
          <rect x="750" y="352" width="50" height="18" rx="9" fill="#DEF7EC"/>
          <text x="775" y="365" fill="#03543F" font-size="10" text-anchor="middle">Active</text>
          <text x="950" y="365" class="text-primary" font-size="11">Resilier</text>

          <text x="550" y="400" class="text-muted" font-size="11">Date d'effet</text>
          <text x="750" y="400" class="text-dark" font-size="11">15/01/2025</text>
        </g>
      </g>
    </g>
  </g>
</svg>
