<svg xmlns="http://www.w3.org/2000/svg" viewBox="0 0 1440 900" width="1440" height="900">
  <defs>
    <style>
      .bg-header { fill: #000E9C; }
      .bg-main { fill: #F6F6F9; }
      .bg-white { fill: #FFFFFF; }
      .bg-primary { fill: #0050D7; }
      .bg-neutral-100 { fill: #F3F4F6; }
      .bg-info { fill: #DBEAFE; }
      .bg-success { fill: #DEF7EC; }
      .bg-error { fill: #FEE2E2; }
      .bg-warning { fill: #FEF3C7; }
      .border { stroke: #E5E7EB; stroke-width: 1; fill: none; }
      .btn-outline { stroke: #0050D7; stroke-width: 1; fill: #FFFFFF; }
      .btn-primary { fill: #0050D7; }
      .btn-disabled { fill: #E5E7EB; }
      .row-selected { fill: #E8F0FE; }
      .table-header { fill: #F9FAFB; }
      .text-white { fill: #FFFFFF; font-family: 'Source Sans Pro', sans-serif; }
      .text-dark { fill: #1F2937; font-family: 'Source Sans Pro', sans-serif; }
      .text-muted { fill: #6B7280; font-family: 'Source Sans Pro', sans-serif; }
      .text-primary { fill: #0050D7; font-family: 'Source Sans Pro', sans-serif; }
      .text-success { fill: #059669; font-family: 'Source Sans Pro', sans-serif; }
      .text-error { fill: #DC2626; font-family: 'Source Sans Pro', sans-serif; }
      .text-info { fill: #1E40AF; font-family: 'Source Sans Pro', sans-serif; }
      .text-warning { fill: #D97706; font-family: 'Source Sans Pro', sans-serif; }
    </style>
  </defs>

  <rect width="1440" height="900" class="bg-main"/>

  <!-- NAV1 -->
  <rect width="1440" height="50" class="bg-header"/>
  <text x="40" y="32" class="text-white" font-size="14" opacity="0.7">Accueil</text>
  <text x="110" y="32" class="text-white" font-size="14" opacity="0.7">Public Cloud</text>
  <text x="210" y="32" class="text-white" font-size="14" opacity="0.7">Hosted Private Cloud</text>
  <text x="370" y="32" class="text-white" font-size="14" opacity="0.7">Bare Metal Cloud</text>
  <text x="510" y="32" class="text-white" font-size="14" font-weight="600">Web Cloud</text>
  <rect x="505" y="46" width="75" height="3" fill="#FFFFFF"/>
  <text x="620" y="32" class="text-white" font-size="14" opacity="0.7">Network</text>
  <text x="700" y="32" class="text-white" font-size="14" opacity="0.7">IAM / Securite</text>
  <text x="810" y="32" class="text-white" font-size="14" opacity="0.7">Licences</text>

  <!-- NAV2 -->
  <rect x="0" y="50" width="1440" height="40" class="bg-white"/>
  <line x1="0" y1="89" x2="1440" y2="89" stroke="#E5E7EB"/>
  <text x="40" y="75" class="text-muted" font-size="14">Accueil</text>
  <text x="110" y="75" class="text-primary" font-size="14" font-weight="600">Domaines et DNS</text>
  <rect x="105" y="85" width="110" height="3" fill="#0050D7"/>
  <text x="240" y="75" class="text-muted" font-size="14">Hebergement</text>
  <text x="345" y="75" class="text-muted" font-size="14">Wordpress</text>
  <text x="430" y="75" class="text-muted" font-size="14">Emails</text>
  <text x="500" y="75" class="text-muted" font-size="14">VoIP</text>
  <text x="550" y="75" class="text-muted" font-size="14">Acces</text>
  <text x="1350" y="75" class="text-primary" font-size="13">Guides</text>

  <!-- CONTENT -->
  <g transform="translate(0, 105)">
    <g transform="translate(24, 0)">
      <!-- LEFT PANEL -->
      <rect x="0" y="0" width="280" height="765" rx="8" class="bg-white"/>
      <rect x="0" y="0" width="280" height="765" rx="8" class="border"/>
      <rect x="12" y="12" width="256" height="34" rx="4" fill="#F9FAFB" stroke="#E5E7EB"/>
      <text x="40" y="34" class="text-muted" font-size="12">Rechercher...</text>
      <text x="12" y="68" class="text-muted" font-size="11">Filtrer ▼</text>
      <text x="268" y="68" class="text-muted" font-size="11" text-anchor="end">12 services</text>

      <rect x="6" y="80" width="268" height="64" rx="6" class="row-selected"/>
      <text x="28" y="104" font-size="16">🌐</text>
      <text x="52" y="100" class="text-dark" font-size="13" font-weight="500">example.com</text>
      <text x="52" y="116" class="text-muted" font-size="10">Domaine + Zone</text>
      <rect x="210" y="96" width="46" height="18" rx="9" fill="#DEF7EC"/>
      <text x="233" y="109" fill="#03543F" font-size="10" text-anchor="middle">Actif</text>
    </g>

    <g transform="translate(320, 0)">
      <!-- RIGHT PANEL -->
      <rect x="0" y="0" width="1096" height="765" rx="8" class="bg-white"/>
      <rect x="0" y="0" width="1096" height="765" rx="8" class="border"/>

      <g transform="translate(20, 0)">
        <text x="0" y="28" class="text-dark" font-size="18" font-weight="600">example.com</text>
        <rect x="160" y="12" width="46" height="18" rx="9" fill="#DEF7EC"/>
        <text x="183" y="25" fill="#03543F" font-size="10" text-anchor="middle">Actif</text>

        <!-- NAV3 - Taches actif -->
        <g transform="translate(0, 38)">
          <rect x="0" y="0" width="100" height="26" rx="4" class="btn-outline"/>
          <text x="50" y="17" class="text-primary" font-size="11" text-anchor="middle">Infos generales</text>
          <rect x="104" y="0" width="70" height="26" rx="4" class="btn-outline"/>
          <text x="139" y="17" class="text-primary" font-size="11" text-anchor="middle">Zone DNS</text>
          <rect x="178" y="0" width="90" height="26" rx="4" class="btn-outline"/>
          <text x="223" y="17" class="text-primary" font-size="11" text-anchor="middle">Serveurs DNS</text>
          <rect x="272" y="0" width="85" height="26" rx="4" class="btn-outline"/>
          <text x="314" y="17" class="text-primary" font-size="11" text-anchor="middle">Redirections</text>
          <rect x="361" y="0" width="60" height="26" rx="4" class="btn-outline"/>
          <text x="391" y="17" class="text-primary" font-size="11" text-anchor="middle">DynHost</text>
          <rect x="425" y="0" width="45" height="26" rx="4" class="btn-outline"/>
          <text x="447" y="17" class="text-primary" font-size="11" text-anchor="middle">GLUE</text>
          <rect x="474" y="0" width="55" height="26" rx="4" class="btn-outline"/>
          <text x="501" y="17" class="text-primary" font-size="11" text-anchor="middle">DNSSEC</text>
          <rect x="533" y="0" width="65" height="26" rx="4" class="btn-outline"/>
          <text x="565" y="17" class="text-primary" font-size="11" text-anchor="middle">Contacts</text>
          <rect x="602" y="0" width="55" height="26" rx="4" class="bg-primary"/>
          <text x="629" y="17" class="text-white" font-size="11" text-anchor="middle">Taches</text>
          <rect x="661" y="0" width="55" height="26" rx="4" class="btn-outline"/>
          <text x="688" y="17" class="text-primary" font-size="11" text-anchor="middle">Alldom</text>
        </g>

        <!-- CONTENU -->
        <g transform="translate(0, 80)">
          <text x="0" y="20" class="text-dark" font-size="14" font-weight="600">Taches recentes</text>

          <!-- Table Header -->
          <g transform="translate(0, 40)">
            <rect x="0" y="0" width="1056" height="36" class="table-header"/>
            <text x="20" y="23" class="text-muted" font-size="11" font-weight="600">TACHE</text>
            <text x="250" y="23" class="text-muted" font-size="11" font-weight="600">DATE</text>
            <text x="400" y="23" class="text-muted" font-size="11" font-weight="600">DETAIL TECHNIQUE</text>
            <text x="750" y="23" class="text-muted" font-size="11" font-weight="600">STATUT</text>
            <text x="1000" y="23" class="text-muted" font-size="11" font-weight="600">ACTIONS</text>
          </g>

          <!-- Rows -->
          <g transform="translate(0, 76)">
            <!-- Row 1 - Terminee -->
            <rect x="0" y="0" width="1056" height="50" fill="#FFFFFF"/>
            <line x1="0" y1="50" x2="1056" y2="50" stroke="#E5E7EB"/>
            <text x="20" y="30" class="text-dark" font-size="12">DomainDnsUpdate</text>
            <text x="250" y="30" class="text-muted" font-size="11">27 dec. 2025</text>
            <text x="400" y="30" class="text-dark" font-size="11">Mise a jour zone DNS</text>
            <rect x="750" y="15" width="70" height="20" rx="10" fill="#DEF7EC"/>
            <text x="785" y="29" fill="#03543F" font-size="10" text-anchor="middle">Terminee</text>
            <text x="1010" y="30" class="text-muted" font-size="11">⋮</text>

            <!-- Row 2 - En cours -->
            <rect x="0" y="50" width="1056" height="50" fill="#FFFFFF"/>
            <line x1="0" y1="100" x2="1056" y2="100" stroke="#E5E7EB"/>
            <text x="20" y="80" class="text-dark" font-size="12">DomainIncomingTransfer</text>
            <text x="250" y="80" class="text-muted" font-size="11">26 dec. 2025</text>
            <text x="400" y="80" class="text-dark" font-size="11">Transfert entrant</text>
            <rect x="750" y="65" width="70" height="20" rx="10" fill="#DBEAFE"/>
            <text x="785" y="79" fill="#1E40AF" font-size="10" text-anchor="middle">En cours</text>
            <text x="1010" y="80" class="text-muted" font-size="11">⋮</text>

            <!-- Row 3 - Planifiee -->
            <rect x="0" y="100" width="1056" height="50" fill="#FFFFFF"/>
            <line x1="0" y1="150" x2="1056" y2="150" stroke="#E5E7EB"/>
            <text x="20" y="130" class="text-dark" font-size="12">DomainHostCreate</text>
            <text x="250" y="130" class="text-muted" font-size="11">25 dec. 2025</text>
            <text x="400" y="130" class="text-dark" font-size="11">Creation GLUE</text>
            <rect x="750" y="115" width="70" height="20" rx="10" fill="#DBEAFE"/>
            <text x="785" y="129" fill="#1E40AF" font-size="10" text-anchor="middle">Planifiee</text>
            <text x="1010" y="130" class="text-muted" font-size="11">⋮</text>

            <!-- Row 4 - A traiter -->
            <rect x="0" y="150" width="1056" height="50" fill="#FFFFFF"/>
            <line x1="0" y1="200" x2="1056" y2="200" stroke="#E5E7EB"/>
            <text x="20" y="180" class="text-dark" font-size="12">DomainDnssecEnable</text>
            <text x="250" y="180" class="text-muted" font-size="11">24 dec. 2025</text>
            <text x="400" y="180" class="text-dark" font-size="11">Activation DNSSEC</text>
            <rect x="750" y="165" width="70" height="20" rx="10" fill="#FEF3C7"/>
            <text x="785" y="179" fill="#92400E" font-size="10" text-anchor="middle">A traiter</text>
            <text x="1010" y="180" class="text-muted" font-size="11">⋮</text>

            <!-- Row 5 - Echouee -->
            <rect x="0" y="200" width="1056" height="50" fill="#FFFFFF"/>
            <line x1="0" y1="250" x2="1056" y2="250" stroke="#E5E7EB"/>
            <text x="20" y="230" class="text-dark" font-size="12">DomainOutgoingTransfer</text>
            <text x="250" y="230" class="text-muted" font-size="11">23 dec. 2025</text>
            <text x="400" y="230" class="text-dark" font-size="11">Transfert sortant</text>
            <rect x="750" y="215" width="70" height="20" rx="10" fill="#FEE2E2"/>
            <text x="785" y="229" fill="#991B1B" font-size="10" text-anchor="middle">Echouee</text>
            <text x="1010" y="230" class="text-muted" font-size="11">⋮</text>
          </g>

          <!-- Pagination -->
          <g transform="translate(0, 350)">
            <text x="0" y="20" class="text-muted" font-size="11">5 taches</text>
          </g>
        </g>
      </g>
    </g>
  </g>
</svg>
