<svg xmlns="http://www.w3.org/2000/svg" viewBox="0 0 1440 900" width="1440" height="900">
  <defs><style>.bg-header{fill:#000E9C}.bg-muted{fill:#F9FAFB}.bg-white{fill:#FFF}.text-dark{font-family:'Source Sans Pro',sans-serif;font-size:14px;fill:#1F2937}.text-muted{font-family:'Source Sans Pro',sans-serif;font-size:13px;fill:#6B7280}.text-white{font-family:'Source Sans Pro',sans-serif;fill:#FFF}.text-primary{font-family:'Source Sans Pro',sans-serif;font-size:14px;fill:#0050D7}.text-title{font-family:'Source Sans Pro',sans-serif;font-size:18px;font-weight:600;fill:#1F2937}.border{stroke:#E5E7EB;stroke-width:1;fill:none}.table-header{fill:#F3F4F6}.table-row{fill:#FFF}.table-row-alt{fill:#F9FAFB}.btn-primary{fill:#0050D7}.badge-success{fill:#DEF7EC}.badge-warning{fill:#FEF3C7}.badge-error{fill:#FEE2E2}</style></defs>
  <rect width="1440" height="900" class="bg-muted"/>
  <rect width="1440" height="60" class="bg-header"/>
  <text x="80" y="38" class="text-white" font-size="18" font-weight="bold">OVHcloud</text>
  <text x="520" y="38" class="text-white" font-size="14" font-weight="600">Web Cloud</text>
  <rect x="0" y="60" width="240" height="840" class="bg-white"/>
  <rect x="240" y="60" width="1" height="840" fill="#E5E7EB"/>
  <text x="20" y="100" class="text-muted" font-size="12" font-weight="600">NOMS DE DOMAINE</text>
  <text x="20" y="130" class="text-dark">Tous les domaines</text>
  <text x="280" y="100" class="text-muted">Web Cloud ›</text>
  <text x="360" y="100" class="text-dark" font-weight="500">Noms de domaine</text>
  <text x="280" y="145" class="text-title">Mes noms de domaine</text>
  <!-- Actions bar -->
  <rect x="280" y="170" width="1120" height="50" class="bg-white" rx="4"/>
  <rect x="290" y="180" width="180" height="32" class="btn-primary" rx="4"/>
  <text x="310" y="201" class="text-white" font-size="13">+ Commander un domaine</text>
  <rect x="490" y="180" width="140" height="32" fill="#FFF" stroke="#E5E7EB" rx="4"/>
  <text x="510" y="201" class="text-dark" font-size="13">Transférer</text>
  <rect x="650" y="180" width="140" height="32" fill="#FFF" stroke="#E5E7EB" rx="4"/>
  <text x="670" y="201" class="text-dark" font-size="13">Exporter CSV</text>
  <!-- Filter -->
  <rect x="1100" y="180" width="280" height="32" fill="#FFF" stroke="#E5E7EB" rx="4"/>
  <text x="1120" y="201" class="text-muted" font-size="13">🔍 Rechercher un domaine...</text>
  <!-- Table -->
  <rect x="280" y="240" width="1120" height="550" class="bg-white" rx="8"/>
  <rect x="280" y="240" width="1120" height="550" class="border" rx="8"/>
  <rect x="280" y="240" width="1120" height="45" class="table-header" rx="8"/>
  <rect x="295" y="255" width="18" height="18" fill="#FFF" stroke="#D1D5DB" rx="3"/>
  <text x="330" y="268" class="text-dark" font-weight="600">Nom de domaine</text>
  <text x="600" y="268" class="text-dark" font-weight="600">Extension</text>
  <text x="720" y="268" class="text-dark" font-weight="600">État</text>
  <text x="850" y="268" class="text-dark" font-weight="600">Expiration</text>
  <text x="1000" y="268" class="text-dark" font-weight="600">Renouvellement</text>
  <text x="1320" y="268" class="text-dark" font-weight="600">Actions</text>
  <!-- Row 1 -->
  <rect x="280" y="285" width="1120" height="50" class="table-row"/>
  <rect x="295" y="302" width="18" height="18" fill="#FFF" stroke="#D1D5DB" rx="3"/>
  <text x="330" y="315" class="text-primary" font-weight="500">example.com</text>
  <text x="600" y="315" class="text-muted">.com</text>
  <rect x="720" y="300" width="50" height="22" rx="4" class="badge-success"/>
  <text x="732" y="315" font-family="Source Sans Pro" font-size="12" fill="#03543F">Actif</text>
  <text x="850" y="315" class="text-dark">15/03/2026</text>
  <text x="1000" y="315" class="text-dark">Automatique</text>
  <text x="1340" y="315" class="text-muted" font-size="18">⋮</text>
  <!-- Row 2 -->
  <rect x="280" y="335" width="1120" height="50" class="table-row-alt"/>
  <rect x="295" y="352" width="18" height="18" fill="#FFF" stroke="#D1D5DB" rx="3"/>
  <text x="330" y="365" class="text-primary" font-weight="500">monsite.fr</text>
  <text x="600" y="365" class="text-muted">.fr</text>
  <rect x="720" y="350" width="50" height="22" rx="4" class="badge-success"/>
  <text x="732" y="365" font-family="Source Sans Pro" font-size="12" fill="#03543F">Actif</text>
  <text x="850" y="365" class="text-dark">22/08/2025</text>
  <text x="1000" y="365" class="text-dark">Automatique</text>
  <text x="1340" y="365" class="text-muted" font-size="18">⋮</text>
  <!-- Row 3 -->
  <rect x="280" y="385" width="1120" height="50" class="table-row"/>
  <rect x="295" y="402" width="18" height="18" fill="#FFF" stroke="#D1D5DB" rx="3"/>
  <text x="330" y="415" class="text-primary" font-weight="500">boutique.eu</text>
  <text x="600" y="415" class="text-muted">.eu</text>
  <rect x="720" y="400" width="50" height="22" rx="4" class="badge-success"/>
  <text x="732" y="415" font-family="Source Sans Pro" font-size="12" fill="#03543F">Actif</text>
  <text x="850" y="415" class="text-dark">10/12/2025</text>
  <text x="1000" y="415" class="text-dark">Manuel</text>
  <text x="1340" y="415" class="text-muted" font-size="18">⋮</text>
  <!-- Row 4 -->
  <rect x="280" y="435" width="1120" height="50" class="table-row-alt"/>
  <rect x="295" y="452" width="18" height="18" fill="#FFF" stroke="#D1D5DB" rx="3"/>
  <text x="330" y="465" class="text-primary" font-weight="500">projet-test.org</text>
  <text x="600" y="465" class="text-muted">.org</text>
  <rect x="720" y="450" width="75" height="22" rx="4" class="badge-warning"/>
  <text x="728" y="465" font-family="Source Sans Pro" font-size="12" fill="#92400E">Expire bientôt</text>
  <text x="850" y="465" class="text-dark" fill="#92400E">05/01/2025</text>
  <text x="1000" y="465" class="text-dark">Manuel</text>
  <text x="1340" y="465" class="text-muted" font-size="18">⋮</text>
  <!-- Row 5 -->
  <rect x="280" y="485" width="1120" height="50" class="table-row"/>
  <rect x="295" y="502" width="18" height="18" fill="#FFF" stroke="#D1D5DB" rx="3"/>
  <text x="330" y="515" class="text-primary" font-weight="500">old-domain.net</text>
  <text x="600" y="515" class="text-muted">.net</text>
  <rect x="720" y="500" width="55" height="22" rx="4" class="badge-error"/>
  <text x="728" y="515" font-family="Source Sans Pro" font-size="12" fill="#991B1B">Expiré</text>
  <text x="850" y="515" class="text-dark" fill="#991B1B">15/11/2024</text>
  <text x="1000" y="515" class="text-dark">-</text>
  <text x="1340" y="515" class="text-muted" font-size="18">⋮</text>
  <!-- Action menu -->
  <g id="action-menu">
    <rect x="1180" y="470" width="200" height="150" fill="#FFF" stroke="#E5E7EB" rx="4" filter="drop-shadow(0 4px 6px rgba(0,0,0,0.1))"/>
    <text x="1196" y="500" class="text-dark">Gérer le domaine</text>
    <text x="1196" y="530" class="text-dark">Zone DNS</text>
    <text x="1196" y="560" class="text-dark">Renouveler</text>
    <text x="1196" y="590" class="text-dark">Transférer</text>
  </g>
  <!-- Pagination -->
  <text x="280" y="830" class="text-muted">Affichage 1-5 sur 5 domaines</text>
  <text x="1330" y="830" class="text-primary">1</text>
</svg>
