<svg xmlns="http://www.w3.org/2000/svg" viewBox="0 0 1440 900" width="1440" height="900">
  <defs>
    <style>
      .bg-header { fill: #000E9C; }
      .bg-main { fill: #F6F6F9; }
      .bg-white { fill: #FFFFFF; }
      .bg-primary { fill: #0050D7; }
      .bg-neutral-100 { fill: #F3F4F6; }
      .bg-info { fill: #DBEAFE; }
      .bg-success { fill: #DEF7EC; }
      .bg-error { fill: #FEE2E2; }
      .bg-warning { fill: #FEF3C7; }
      .border { stroke: #E5E7EB; stroke-width: 1; fill: none; }
      .divider { stroke: #E5E7EB; stroke-width: 1; }
      .btn-outline { stroke: #0050D7; stroke-width: 1; fill: #FFFFFF; }
      .btn-primary { fill: #0050D7; }
      .btn-disabled { fill: #E5E7EB; }
      .row-selected { fill: #E8F0FE; }
      .table-header { fill: #F9FAFB; }
      .text-white { fill: #FFFFFF; font-family: 'Source Sans Pro', sans-serif; }
      .text-dark { fill: #1F2937; font-family: 'Source Sans Pro', sans-serif; }
      .text-muted { fill: #6B7280; font-family: 'Source Sans Pro', sans-serif; }
      .text-primary { fill: #0050D7; font-family: 'Source Sans Pro', sans-serif; }
      .text-success { fill: #059669; font-family: 'Source Sans Pro', sans-serif; }
      .text-error { fill: #DC2626; font-family: 'Source Sans Pro', sans-serif; }
      .text-info { fill: #1E40AF; font-family: 'Source Sans Pro', sans-serif; }
      .text-warning { fill: #D97706; font-family: 'Source Sans Pro', sans-serif; }
    </style>
  </defs>

  <!-- Background -->
  <rect width="1440" height="900" class="bg-main"/>

  <!-- NAV1 - Header OVH -->
  <rect width="1440" height="50" class="bg-header"/>
  <text x="40" y="32" class="text-white" font-size="14" opacity="0.7">Accueil</text>
  <text x="110" y="32" class="text-white" font-size="14" opacity="0.7">Public Cloud</text>
  <text x="210" y="32" class="text-white" font-size="14" opacity="0.7">Hosted Private Cloud</text>
  <text x="370" y="32" class="text-white" font-size="14" opacity="0.7">Bare Metal Cloud</text>
  <text x="510" y="32" class="text-white" font-size="14" font-weight="600">Web Cloud</text>
  <rect x="505" y="46" width="75" height="3" fill="#FFFFFF"/>
  <text x="620" y="32" class="text-white" font-size="14" opacity="0.7">Network</text>
  <text x="700" y="32" class="text-white" font-size="14" opacity="0.7">IAM / Securite</text>
  <text x="810" y="32" class="text-white" font-size="14" opacity="0.7">Licences</text>
  <rect x="1280" y="12" width="140" height="26" rx="13" fill="rgba(255,255,255,0.2)"/>
  <text x="1320" y="29" class="text-white" font-size="12">xx-ovh</text>

  <!-- NAV2 - Web Cloud -->
  <rect x="0" y="50" width="1440" height="40" class="bg-white"/>
  <line x1="0" y1="89" x2="1440" y2="89" stroke="#E5E7EB"/>
  <text x="40" y="75" class="text-muted" font-size="14">Accueil</text>
  <text x="110" y="75" class="text-primary" font-size="14" font-weight="600">Domaines et DNS</text>
  <rect x="105" y="85" width="110" height="3" fill="#0050D7"/>
  <text x="240" y="75" class="text-muted" font-size="14">Hebergement</text>
  <text x="345" y="75" class="text-muted" font-size="14">Wordpress</text>
  <text x="430" y="75" class="text-muted" font-size="14">Emails</text>
  <text x="500" y="75" class="text-muted" font-size="14">VoIP</text>
  <text x="550" y="75" class="text-muted" font-size="14">Acces</text>
  <text x="1350" y="75" class="text-primary" font-size="13">Guides</text>

  <!-- CONTENT AREA -->
  <g transform="translate(0, 105)">
    <g transform="translate(24, 0)">

      <!-- LEFT PANEL -->
      <rect x="0" y="0" width="280" height="765" rx="8" class="bg-white"/>
      <rect x="0" y="0" width="280" height="765" rx="8" class="border"/>

      <!-- Search -->
      <rect x="12" y="12" width="256" height="34" rx="4" fill="#F9FAFB" stroke="#E5E7EB"/>
      <text x="40" y="34" class="text-muted" font-size="12">Rechercher...</text>
      <text x="26" y="34" class="text-muted" font-size="14">🔍</text>

      <!-- Filter + Count -->
      <text x="12" y="68" class="text-muted" font-size="11">Filtrer ▼</text>
      <text x="268" y="68" class="text-muted" font-size="11" text-anchor="end">12 services</text>

      <!-- Domain item selected -->
      <rect x="6" y="80" width="268" height="64" rx="6" class="row-selected"/>
      <text x="28" y="104" font-size="16">🌐</text>
      <text x="52" y="100" class="text-dark" font-size="13" font-weight="500">example.com</text>
      <text x="52" y="116" class="text-muted" font-size="10">Domaine + Zone</text>
      <rect x="52" y="124" width="32" height="14" rx="3" fill="#E8F0FE"/>
      <text x="58" y="134" class="text-primary" font-size="9">.com</text>
      <rect x="210" y="96" width="46" height="18" rx="9" fill="#DEF7EC"/>
      <text x="233" y="109" fill="#03543F" font-size="10" text-anchor="middle">Actif</text>

      <!-- Other domain items -->
      <rect x="6" y="150" width="268" height="64" rx="6" fill="#FFFFFF"/>
      <text x="28" y="174" font-size="16">📋</text>
      <text x="52" y="170" class="text-dark" font-size="13" font-weight="500">externe.org</text>
      <text x="52" y="186" class="text-muted" font-size="10">Zone DNS</text>
      <rect x="210" y="166" width="46" height="18" rx="9" fill="#DEF7EC"/>
      <text x="233" y="179" fill="#03543F" font-size="10" text-anchor="middle">Actif</text>
    </g>

    <g transform="translate(320, 0)">

      <!-- RIGHT PANEL -->
      <rect x="0" y="0" width="1096" height="765" rx="8" class="bg-white"/>
      <rect x="0" y="0" width="1096" height="765" rx="8" class="border"/>

      <g transform="translate(20, 0)">
        <!-- HEADER PAGE -->
        <text x="0" y="28" class="text-dark" font-size="18" font-weight="600">example.com</text>
        <rect x="160" y="12" width="46" height="18" rx="9" fill="#DEF7EC"/>
        <text x="183" y="25" fill="#03543F" font-size="10" text-anchor="middle">Actif</text>

        <!-- NAV3 TABS - 10 onglets, Zone DNS actif -->
        <g transform="translate(0, 38)">
          <rect x="0" y="0" width="100" height="26" rx="4" class="btn-outline"/>
          <text x="50" y="17" class="text-primary" font-size="11" text-anchor="middle">Infos generales</text>

          <rect x="104" y="0" width="70" height="26" rx="4" class="bg-primary"/>
          <text x="139" y="17" class="text-white" font-size="11" text-anchor="middle">Zone DNS</text>

          <rect x="178" y="0" width="90" height="26" rx="4" class="btn-outline"/>
          <text x="223" y="17" class="text-primary" font-size="11" text-anchor="middle">Serveurs DNS</text>

          <rect x="272" y="0" width="85" height="26" rx="4" class="btn-outline"/>
          <text x="314" y="17" class="text-primary" font-size="11" text-anchor="middle">Redirections</text>

          <rect x="361" y="0" width="60" height="26" rx="4" class="btn-outline"/>
          <text x="391" y="17" class="text-primary" font-size="11" text-anchor="middle">DynHost</text>

          <rect x="425" y="0" width="45" height="26" rx="4" class="btn-outline"/>
          <text x="447" y="17" class="text-primary" font-size="11" text-anchor="middle">GLUE</text>

          <rect x="474" y="0" width="55" height="26" rx="4" class="btn-outline"/>
          <text x="501" y="17" class="text-primary" font-size="11" text-anchor="middle">DNSSEC</text>

          <rect x="533" y="0" width="65" height="26" rx="4" class="btn-outline"/>
          <text x="565" y="17" class="text-primary" font-size="11" text-anchor="middle">Contacts</text>

          <rect x="602" y="0" width="55" height="26" rx="4" class="btn-outline"/>
          <text x="629" y="17" class="text-primary" font-size="11" text-anchor="middle">Taches</text>

          <rect x="661" y="0" width="55" height="26" rx="4" class="btn-outline"/>
          <text x="688" y="17" class="text-primary" font-size="11" text-anchor="middle">Alldom</text>
        </g>

        <!-- CONTENU ZONE DNS -->
        <g transform="translate(0, 80)">
          <!-- Info banner -->
          <rect x="0" y="0" width="1056" height="40" rx="6" class="bg-info"/>
          <text x="20" y="25" class="text-info" font-size="12">Vous pouvez voir ici la configuration des diverses entrees de votre domaine.</text>

          <!-- Toolbar -->
          <g transform="translate(0, 56)">
            <rect x="0" y="0" width="130" height="32" rx="4" class="btn-primary"/>
            <text x="65" y="21" class="text-white" font-size="11" text-anchor="middle">+ Ajouter une entree</text>

            <rect x="140" y="0" width="110" height="32" rx="4" class="btn-outline"/>
            <text x="195" y="21" class="text-primary" font-size="11" text-anchor="middle">Mode textuel</text>

            <rect x="260" y="0" width="100" height="32" rx="4" class="btn-outline"/>
            <text x="310" y="21" class="text-primary" font-size="11" text-anchor="middle">Modifier TTL</text>

            <rect x="370" y="0" width="100" height="32" rx="4" class="btn-outline"/>
            <text x="420" y="21" class="text-primary" font-size="11" text-anchor="middle">Reinitialiser</text>

            <rect x="480" y="0" width="80" height="32" rx="4" class="btn-outline"/>
            <text x="520" y="21" class="text-primary" font-size="11" text-anchor="middle">Historique</text>

            <!-- Search + Filter -->
            <rect x="700" y="0" width="200" height="32" rx="4" fill="#F9FAFB" stroke="#E5E7EB"/>
            <text x="720" y="21" class="text-muted" font-size="11">Rechercher...</text>

            <rect x="910" y="0" width="80" height="32" rx="4" fill="#F9FAFB" stroke="#E5E7EB"/>
            <text x="930" y="21" class="text-dark" font-size="11">Tous ▼</text>
          </g>

          <!-- Table Header -->
          <g transform="translate(0, 104)">
            <rect x="0" y="0" width="1056" height="36" rx="0" class="table-header"/>
            <text x="20" y="23" class="text-muted" font-size="11" font-weight="600">SOUS-DOMAINE</text>
            <text x="280" y="23" class="text-muted" font-size="11" font-weight="600">TYPE</text>
            <text x="360" y="23" class="text-muted" font-size="11" font-weight="600">TTL</text>
            <text x="440" y="23" class="text-muted" font-size="11" font-weight="600">CIBLE</text>
            <text x="1000" y="23" class="text-muted" font-size="11" font-weight="600">ACTIONS</text>
          </g>

          <!-- Table Rows -->
          <g transform="translate(0, 140)">
            <!-- Row 1: A record -->
            <rect x="0" y="0" width="1056" height="45" fill="#FFFFFF"/>
            <line x1="0" y1="45" x2="1056" y2="45" stroke="#E5E7EB"/>
            <text x="20" y="28" class="text-dark" font-size="11">@</text>
            <rect x="280" y="12" width="30" height="20" rx="4" fill="#DBEAFE"/>
            <text x="295" y="27" fill="#1E40AF" font-size="10" text-anchor="middle">A</text>
            <text x="360" y="28" class="text-dark" font-size="11">3600</text>
            <text x="440" y="28" class="text-dark" font-size="11">203.0.113.50</text>
            <text x="980" y="28" class="text-primary" font-size="11">✎</text>
            <text x="1020" y="28" class="text-error" font-size="11">×</text>

            <!-- Row 2: AAAA record -->
            <rect x="0" y="45" width="1056" height="45" fill="#FFFFFF"/>
            <line x1="0" y1="90" x2="1056" y2="90" stroke="#E5E7EB"/>
            <text x="20" y="73" class="text-dark" font-size="11">@</text>
            <rect x="280" y="57" width="45" height="20" rx="4" fill="#DBEAFE"/>
            <text x="302" y="72" fill="#1E40AF" font-size="10" text-anchor="middle">AAAA</text>
            <text x="360" y="73" class="text-dark" font-size="11">3600</text>
            <text x="440" y="73" class="text-dark" font-size="11">2001:db8::1</text>
            <text x="980" y="73" class="text-primary" font-size="11">✎</text>
            <text x="1020" y="73" class="text-error" font-size="11">×</text>

            <!-- Row 3: CNAME record -->
            <rect x="0" y="90" width="1056" height="45" fill="#FFFFFF"/>
            <line x1="0" y1="135" x2="1056" y2="135" stroke="#E5E7EB"/>
            <text x="20" y="118" class="text-dark" font-size="11">www</text>
            <rect x="280" y="102" width="50" height="20" rx="4" fill="#F3E8FF"/>
            <text x="305" y="117" fill="#7C3AED" font-size="10" text-anchor="middle">CNAME</text>
            <text x="360" y="118" class="text-dark" font-size="11">3600</text>
            <text x="440" y="118" class="text-dark" font-size="11">example.com.</text>
            <text x="980" y="118" class="text-primary" font-size="11">✎</text>
            <text x="1020" y="118" class="text-error" font-size="11">×</text>

            <!-- Row 4: MX record -->
            <rect x="0" y="135" width="1056" height="45" fill="#FFFFFF"/>
            <line x1="0" y1="180" x2="1056" y2="180" stroke="#E5E7EB"/>
            <text x="20" y="163" class="text-dark" font-size="11">@</text>
            <rect x="280" y="147" width="30" height="20" rx="4" fill="#DEF7EC"/>
            <text x="295" y="162" fill="#059669" font-size="10" text-anchor="middle">MX</text>
            <text x="360" y="163" class="text-dark" font-size="11">3600</text>
            <text x="440" y="163" class="text-dark" font-size="11">10 mx1.mail.ovh.net.</text>
            <text x="980" y="163" class="text-primary" font-size="11">✎</text>
            <text x="1020" y="163" class="text-error" font-size="11">×</text>

            <!-- Row 5: TXT record -->
            <rect x="0" y="180" width="1056" height="45" fill="#FFFFFF"/>
            <line x1="0" y1="225" x2="1056" y2="225" stroke="#E5E7EB"/>
            <text x="20" y="208" class="text-dark" font-size="11">@</text>
            <rect x="280" y="192" width="32" height="20" rx="4" fill="#F3F4F6"/>
            <text x="296" y="207" fill="#6B7280" font-size="10" text-anchor="middle">TXT</text>
            <text x="360" y="208" class="text-dark" font-size="11">3600</text>
            <text x="440" y="208" class="text-dark" font-size="11">"v=spf1 include:mx.ovh.com ~all"</text>
            <text x="980" y="208" class="text-primary" font-size="11">✎</text>
            <text x="1020" y="208" class="text-error" font-size="11">×</text>

            <!-- Row 6: NS record -->
            <rect x="0" y="225" width="1056" height="45" fill="#FFFFFF"/>
            <line x1="0" y1="270" x2="1056" y2="270" stroke="#E5E7EB"/>
            <text x="20" y="253" class="text-dark" font-size="11">@</text>
            <rect x="280" y="237" width="28" height="20" rx="4" fill="#FEE2E2"/>
            <text x="294" y="252" fill="#DC2626" font-size="10" text-anchor="middle">NS</text>
            <text x="360" y="253" class="text-dark" font-size="11">86400</text>
            <text x="440" y="253" class="text-dark" font-size="11">dns100.ovh.net.</text>
            <text x="980" y="253" class="text-primary" font-size="11">✎</text>
            <text x="1020" y="253" class="text-error" font-size="11">×</text>
          </g>

          <!-- Pagination -->
          <g transform="translate(0, 430)">
            <text x="0" y="16" class="text-muted" font-size="11">Affichage 1-6 sur 12</text>
            <text x="200" y="16" class="text-muted" font-size="11">Par page:</text>
            <rect x="260" y="0" width="50" height="26" rx="4" stroke="#E5E7EB" fill="#FFFFFF"/>
            <text x="278" y="17" class="text-dark" font-size="11">10</text>
            <text x="300" y="17" class="text-muted" font-size="10">▼</text>
            <g transform="translate(900, 0)">
              <rect x="0" y="0" width="28" height="26" rx="4" class="btn-disabled"/>
              <text x="14" y="17" class="text-muted" font-size="12" text-anchor="middle">‹</text>
              <rect x="34" y="0" width="28" height="26" rx="4" class="bg-primary"/>
              <text x="48" y="17" class="text-white" font-size="11" text-anchor="middle">1</text>
              <rect x="68" y="0" width="28" height="26" rx="4" class="btn-outline"/>
              <text x="82" y="17" class="text-primary" font-size="11" text-anchor="middle">2</text>
              <rect x="102" y="0" width="28" height="26" rx="4" class="btn-outline"/>
              <text x="116" y="17" class="text-primary" font-size="12" text-anchor="middle">›</text>
            </g>
          </g>
        </g>
      </g>
    </g>
  </g>
</svg>
