<svg xmlns="http://www.w3.org/2000/svg" viewBox="0 0 1440 900" width="1440" height="900">
  <defs>
    <style>
      .bg-header { fill: #000E9C; }
      .bg-main { fill: #F6F6F9; }
      .bg-white { fill: #FFFFFF; }
      .bg-primary { fill: #0050D7; }
      .bg-success { fill: #DEF7EC; }
      .border { stroke: #E5E7EB; stroke-width: 1; fill: none; }
      .btn-outline { stroke: #0050D7; stroke-width: 1; fill: #FFFFFF; }
      .btn-primary { fill: #0050D7; }
      .row-selected { fill: #E8F0FE; }
      .text-white { fill: #FFFFFF; font-family: 'Source Sans Pro', sans-serif; }
      .text-dark { fill: #1F2937; font-family: 'Source Sans Pro', sans-serif; }
      .text-muted { fill: #6B7280; font-family: 'Source Sans Pro', sans-serif; }
      .text-primary { fill: #0050D7; font-family: 'Source Sans Pro', sans-serif; }
    </style>
  </defs>

  <rect width="1440" height="900" class="bg-main"/>

  <!-- NAV1 -->
  <rect width="1440" height="50" class="bg-header"/>
  <text x="40" y="32" class="text-white" font-size="14" opacity="0.7">Accueil</text>
  <text x="110" y="32" class="text-white" font-size="14" opacity="0.7">Public Cloud</text>
  <text x="210" y="32" class="text-white" font-size="14" opacity="0.7">Hosted Private Cloud</text>
  <text x="370" y="32" class="text-white" font-size="14" opacity="0.7">Bare Metal Cloud</text>
  <text x="510" y="32" class="text-white" font-size="14" font-weight="600">Web Cloud</text>
  <rect x="505" y="46" width="75" height="3" fill="#FFFFFF"/>
  <text x="620" y="32" class="text-white" font-size="14" opacity="0.7">Network</text>
  <text x="700" y="32" class="text-white" font-size="14" opacity="0.7">IAM / Securite</text>
  <text x="810" y="32" class="text-white" font-size="14" opacity="0.7">Licences</text>

  <!-- NAV2 -->
  <rect x="0" y="50" width="1440" height="40" class="bg-white"/>
  <line x1="0" y1="89" x2="1440" y2="89" stroke="#E5E7EB"/>
  <text x="40" y="75" class="text-muted" font-size="14">Accueil</text>
  <text x="110" y="75" class="text-primary" font-size="14" font-weight="600">Domaines et DNS</text>
  <rect x="105" y="85" width="110" height="3" fill="#0050D7"/>
  <text x="240" y="75" class="text-muted" font-size="14">Hebergement</text>
  <text x="345" y="75" class="text-muted" font-size="14">Wordpress</text>
  <text x="430" y="75" class="text-muted" font-size="14">Emails</text>
  <text x="500" y="75" class="text-muted" font-size="14">VoIP</text>
  <text x="550" y="75" class="text-muted" font-size="14">Acces</text>
  <text x="1350" y="75" class="text-primary" font-size="13">Guides</text>

  <!-- CONTENT -->
  <g transform="translate(0, 105)">
    <g transform="translate(24, 0)">
      <!-- LEFT PANEL -->
      <rect x="0" y="0" width="280" height="765" rx="8" class="bg-white"/>
      <rect x="0" y="0" width="280" height="765" rx="8" class="border"/>
      <rect x="12" y="12" width="256" height="34" rx="4" fill="#F9FAFB" stroke="#E5E7EB"/>
      <text x="40" y="34" class="text-muted" font-size="12">Rechercher...</text>
      <text x="12" y="68" class="text-muted" font-size="11">Filtrer ▼</text>
      <text x="268" y="68" class="text-muted" font-size="11" text-anchor="end">5 services</text>

      <rect x="6" y="80" width="268" height="64" rx="6" class="row-selected"/>
      <text x="28" y="104" font-size="16">🌐</text>
      <text x="52" y="100" class="text-dark" font-size="13" font-weight="500">example.com</text>
      <text x="52" y="116" class="text-muted" font-size="10">Domaine + Zone</text>
      <rect x="210" y="96" width="46" height="18" rx="9" fill="#DEF7EC"/>
      <text x="233" y="109" fill="#03543F" font-size="10" text-anchor="middle">Actif</text>
    </g>

    <g transform="translate(320, 0)">
      <!-- RIGHT PANEL -->
      <rect x="0" y="0" width="1096" height="765" rx="8" class="bg-white"/>
      <rect x="0" y="0" width="1096" height="765" rx="8" class="border"/>

      <g transform="translate(20, 0)">
        <text x="0" y="28" class="text-dark" font-size="18" font-weight="600">example.com</text>
        <rect x="160" y="12" width="46" height="18" rx="9" fill="#DEF7EC"/>
        <text x="183" y="25" fill="#03543F" font-size="10" text-anchor="middle">Actif</text>

        <!-- NAV3 - Infos generales actif -->
        <g transform="translate(0, 38)">
          <rect x="0" y="0" width="100" height="26" rx="4" class="bg-primary"/>
          <text x="50" y="17" class="text-white" font-size="11" text-anchor="middle">Infos generales</text>
          <rect x="104" y="0" width="70" height="26" rx="4" class="btn-outline"/>
          <text x="139" y="17" class="text-primary" font-size="11" text-anchor="middle">Zone DNS</text>
          <rect x="178" y="0" width="90" height="26" rx="4" class="btn-outline"/>
          <text x="223" y="17" class="text-primary" font-size="11" text-anchor="middle">Serveurs DNS</text>
          <rect x="272" y="0" width="85" height="26" rx="4" class="btn-outline"/>
          <text x="314" y="17" class="text-primary" font-size="11" text-anchor="middle">Redirections</text>
          <rect x="361" y="0" width="60" height="26" rx="4" class="btn-outline"/>
          <text x="391" y="17" class="text-primary" font-size="11" text-anchor="middle">DynHost</text>
          <rect x="425" y="0" width="45" height="26" rx="4" class="btn-outline"/>
          <text x="447" y="17" class="text-primary" font-size="11" text-anchor="middle">GLUE</text>
          <rect x="474" y="0" width="55" height="26" rx="4" class="btn-outline"/>
          <text x="501" y="17" class="text-primary" font-size="11" text-anchor="middle">DNSSEC</text>
          <rect x="533" y="0" width="65" height="26" rx="4" class="btn-outline"/>
          <text x="565" y="17" class="text-primary" font-size="11" text-anchor="middle">Contacts</text>
          <rect x="602" y="0" width="55" height="26" rx="4" class="btn-outline"/>
          <text x="629" y="17" class="text-primary" font-size="11" text-anchor="middle">Taches</text>
          <rect x="661" y="0" width="55" height="26" rx="4" class="btn-outline"/>
          <text x="688" y="17" class="text-primary" font-size="11" text-anchor="middle">Alldom</text>
        </g>

        <!-- CONTENU - Grille 3 tuiles -->
        <g transform="translate(0, 80)">
          <!-- Tuile 1: Informations generales -->
          <rect x="0" y="0" width="340" height="280" rx="8" fill="#FFFFFF" stroke="#E5E7EB"/>
          <text x="20" y="30" class="text-dark" font-size="13" font-weight="600">Informations generales</text>

          <text x="20" y="65" class="text-muted" font-size="10">Etat du domaine</text>
          <rect x="20" y="75" width="46" height="18" rx="9" fill="#DEF7EC"/>
          <text x="43" y="88" fill="#03543F" font-size="10" text-anchor="middle">Actif</text>

          <text x="20" y="120" class="text-muted" font-size="10">Extension</text>
          <text x="20" y="138" class="text-dark" font-size="11">.com (gTLD)</text>

          <text x="20" y="165" class="text-muted" font-size="10">Registrar</text>
          <text x="20" y="183" class="text-dark" font-size="11">OVHcloud</text>

          <text x="20" y="210" class="text-muted" font-size="10">Date de creation</text>
          <text x="20" y="228" class="text-dark" font-size="11">15 mars 2020</text>

          <text x="20" y="255" class="text-muted" font-size="10">Date d'expiration</text>
          <text x="20" y="273" class="text-dark" font-size="11">15 mars 2026</text>

          <!-- Tuile 2: Configuration DNS -->
          <rect x="355" y="0" width="340" height="280" rx="8" fill="#FFFFFF" stroke="#E5E7EB"/>
          <text x="375" y="30" class="text-dark" font-size="13" font-weight="600">Configuration DNS</text>

          <text x="375" y="65" class="text-muted" font-size="10">Serveurs DNS</text>
          <text x="375" y="83" class="text-dark" font-size="11">dns1.ovh.net</text>
          <text x="375" y="101" class="text-dark" font-size="11">dns2.ovh.net</text>
          <text x="660" y="83" class="text-muted" font-size="14">⋮</text>

          <text x="375" y="135" class="text-muted" font-size="10">DNSSEC</text>
          <rect x="375" y="145" width="50" height="18" rx="9" fill="#DEF7EC"/>
          <text x="400" y="158" fill="#03543F" font-size="10" text-anchor="middle">Active</text>
          <text x="660" y="155" class="text-muted" font-size="14">⋮</text>

          <text x="375" y="190" class="text-muted" font-size="10">Anycast DNS</text>
          <text x="375" y="208" class="text-dark" font-size="11">Non active</text>
          <text x="660" y="200" class="text-muted" font-size="14">⋮</text>

          <text x="375" y="240" class="text-muted" font-size="10">Zone DNS</text>
          <text x="375" y="258" class="text-dark" font-size="11">12 enregistrements</text>
          <text x="375" y="276" class="text-primary" font-size="10">› Gerer la zone DNS</text>

          <!-- Tuile 3: Securite -->
          <rect x="710" y="0" width="340" height="280" rx="8" fill="#FFFFFF" stroke="#E5E7EB"/>
          <text x="730" y="30" class="text-dark" font-size="13" font-weight="600">Securite</text>

          <text x="730" y="65" class="text-muted" font-size="10">Transfert sortant</text>
          <rect x="730" y="75" width="65" height="18" rx="9" fill="#DEF7EC"/>
          <text x="762" y="88" fill="#03543F" font-size="10" text-anchor="middle">Verrouille</text>
          <text x="1015" y="85" class="text-muted" font-size="14">⋮</text>

          <text x="730" y="120" class="text-muted" font-size="10">Protection Whois</text>
          <rect x="730" y="130" width="55" height="18" rx="9" fill="#DEF7EC"/>
          <text x="757" y="143" fill="#03543F" font-size="10" text-anchor="middle">Activee</text>
          <text x="1015" y="140" class="text-muted" font-size="14">⋮</text>

          <text x="730" y="175" class="text-muted" font-size="10">Auth Code</text>
          <text x="730" y="193" class="text-dark" font-size="11">••••••••••</text>
          <text x="820" y="193" class="text-primary" font-size="10">Afficher</text>

          <text x="730" y="225" class="text-muted" font-size="10">OwO (Owner Change)</text>
          <text x="730" y="243" class="text-dark" font-size="11">Autoriser les changements</text>

          <!-- Tuile 4: Abonnement -->
          <rect x="0" y="300" width="520" height="160" rx="8" fill="#FFFFFF" stroke="#E5E7EB"/>
          <text x="20" y="330" class="text-dark" font-size="13" font-weight="600">Abonnement</text>

          <text x="20" y="365" class="text-muted" font-size="10">Offre</text>
          <text x="20" y="383" class="text-dark" font-size="11">Nom de domaine</text>

          <text x="200" y="365" class="text-muted" font-size="10">Prix</text>
          <text x="200" y="383" class="text-dark" font-size="11">9,99 € HT/an</text>

          <text x="20" y="420" class="text-muted" font-size="10">Renouvellement</text>
          <text x="20" y="438" class="text-dark" font-size="11">Automatique - 15/03/2026</text>
          <text x="480" y="430" class="text-muted" font-size="14">⋮</text>

          <!-- Tuile 5: Contacts -->
          <rect x="535" y="300" width="515" height="160" rx="8" fill="#FFFFFF" stroke="#E5E7EB"/>
          <text x="555" y="330" class="text-dark" font-size="13" font-weight="600">Contacts</text>

          <text x="555" y="365" class="text-dark" font-size="11">ab12345-ovh : Proprietaire</text>
          <text x="555" y="387" class="text-dark" font-size="11">ab12345-ovh : Admin</text>
          <text x="555" y="409" class="text-dark" font-size="11">ab12345-ovh : Technique</text>
          <text x="555" y="431" class="text-dark" font-size="11">ab12345-ovh : Facturation</text>
          <text x="1015" y="385" class="text-muted" font-size="14">⋮</text>
        </g>
      </g>
    </g>
  </g>
</svg>
