<svg xmlns="http://www.w3.org/2000/svg" viewBox="0 0 1440 900" width="1440" height="900">
  <defs>
    <style>
      .bg-header { fill: #000E9C; }
      .bg-main { fill: #F6F6F9; }
      .bg-white { fill: #FFFFFF; }
      .bg-primary { fill: #0050D7; }
      .bg-info { fill: #DBEAFE; }
      .bg-success { fill: #DEF7EC; }
      .border { stroke: #E5E7EB; stroke-width: 1; fill: none; }
      .btn-outline { stroke: #0050D7; stroke-width: 1; fill: #FFFFFF; }
      .btn-primary { fill: #0050D7; }
      .row-selected { fill: #E8F0FE; }
      .table-header { fill: #F9FAFB; }
      .text-white { fill: #FFFFFF; font-family: 'Source Sans Pro', sans-serif; }
      .text-dark { fill: #1F2937; font-family: 'Source Sans Pro', sans-serif; }
      .text-muted { fill: #6B7280; font-family: 'Source Sans Pro', sans-serif; }
      .text-primary { fill: #0050D7; font-family: 'Source Sans Pro', sans-serif; }
      .text-success { fill: #059669; font-family: 'Source Sans Pro', sans-serif; }
      .text-info { fill: #1E40AF; font-family: 'Source Sans Pro', sans-serif; }
      .text-error { fill: #DC2626; font-family: 'Source Sans Pro', sans-serif; }
    </style>
  </defs>

  <rect width="1440" height="900" class="bg-main"/>

  <!-- NAV1 -->
  <rect width="1440" height="50" class="bg-header"/>
  <text x="40" y="32" class="text-white" font-size="14" opacity="0.7">Accueil</text>
  <text x="110" y="32" class="text-white" font-size="14" opacity="0.7">Public Cloud</text>
  <text x="210" y="32" class="text-white" font-size="14" opacity="0.7">Hosted Private Cloud</text>
  <text x="370" y="32" class="text-white" font-size="14" opacity="0.7">Bare Metal Cloud</text>
  <text x="510" y="32" class="text-white" font-size="14" font-weight="600">Web Cloud</text>
  <rect x="505" y="46" width="75" height="3" fill="#FFFFFF"/>
  <text x="620" y="32" class="text-white" font-size="14" opacity="0.7">Network</text>

  <!-- NAV2 -->
  <rect x="0" y="50" width="1440" height="40" class="bg-white"/>
  <line x1="0" y1="89" x2="1440" y2="89" stroke="#E5E7EB"/>
  <text x="40" y="75" class="text-muted" font-size="14">Accueil</text>
  <text x="110" y="75" class="text-primary" font-size="14" font-weight="600">Domaines et DNS</text>
  <rect x="105" y="85" width="110" height="3" fill="#0050D7"/>
  <text x="240" y="75" class="text-muted" font-size="14">Hébergement</text>

  <!-- MAIN CONTENT -->
  <g transform="translate(0, 90)">
    <g transform="translate(24, 15)">

      <!-- LEFT PANEL -->
      <rect x="0" y="0" width="280" height="780" rx="8" class="bg-white"/>
      <rect x="0" y="0" width="280" height="780" rx="8" class="border"/>
      <rect x="12" y="12" width="256" height="34" rx="4" fill="#F9FAFB" stroke="#E5E7EB"/>
      <text x="40" y="34" class="text-muted" font-size="12">Rechercher...</text>
      <rect x="6" y="80" width="268" height="64" rx="6" class="row-selected"/>
      <text x="28" y="104" font-size="16">🌐</text>
      <text x="52" y="100" class="text-dark" font-size="13" font-weight="500">example.com</text>
      <text x="52" y="116" class="text-muted" font-size="10">Domaine + Zone</text>

      <!-- RIGHT PANEL -->
      <rect x="296" y="0" width="1096" height="780" rx="8" class="bg-white"/>
      <rect x="296" y="0" width="1096" height="780" rx="8" class="border"/>

      <g transform="translate(316, 0)">
        <text x="0" y="28" class="text-dark" font-size="18" font-weight="600">example.com</text>

        <!-- NAV3 Tabs - Redirections active -->
        <g transform="translate(0, 42)">
          <rect x="0" y="0" width="100" height="26" rx="4" class="btn-outline"/>
          <text x="50" y="17" class="text-primary" font-size="11" text-anchor="middle">Infos générales</text>
          <rect x="104" y="0" width="70" height="26" rx="4" class="btn-outline"/>
          <text x="139" y="17" class="text-primary" font-size="11" text-anchor="middle">Zone DNS</text>
          <rect x="178" y="0" width="90" height="26" rx="4" class="btn-outline"/>
          <text x="223" y="17" class="text-primary" font-size="11" text-anchor="middle">Serveurs DNS</text>
          <rect x="272" y="0" width="85" height="26" rx="4" class="bg-primary"/>
          <text x="314" y="17" class="text-white" font-size="11" text-anchor="middle">Redirections</text>
          <rect x="361" y="0" width="60" height="26" rx="4" class="btn-outline"/>
          <text x="391" y="17" class="text-primary" font-size="11" text-anchor="middle">DynHost</text>
          <rect x="425" y="0" width="45" height="26" rx="4" class="btn-outline"/>
          <text x="447" y="17" class="text-primary" font-size="11" text-anchor="middle">GLUE</text>
          <rect x="474" y="0" width="55" height="26" rx="4" class="btn-outline"/>
          <text x="501" y="17" class="text-primary" font-size="11" text-anchor="middle">DNSSEC</text>
          <rect x="533" y="0" width="65" height="26" rx="4" class="btn-outline"/>
          <text x="565" y="17" class="text-primary" font-size="11" text-anchor="middle">Contacts</text>
          <rect x="602" y="0" width="55" height="26" rx="4" class="btn-outline"/>
          <text x="629" y="17" class="text-primary" font-size="11" text-anchor="middle">Tâches</text>
          <rect x="661" y="0" width="55" height="26" rx="4" class="btn-outline"/>
          <text x="688" y="17" class="text-primary" font-size="11" text-anchor="middle">Alldom</text>
        </g>

        <!-- Content -->
        <g transform="translate(0, 90)">
          <!-- Toolbar -->
          <rect x="0" y="0" width="150" height="32" rx="4" class="btn-primary"/>
          <text x="75" y="21" class="text-white" font-size="11" text-anchor="middle">+ Ajouter redirection</text>
          <rect x="160" y="0" width="32" height="32" rx="4" class="btn-outline"/>
          <text x="176" y="21" class="text-primary" font-size="14" text-anchor="middle">↻</text>

          <!-- Table -->
          <g transform="translate(0, 50)">
            <rect x="0" y="0" width="1056" height="36" class="table-header"/>
            <line x1="0" y1="36" x2="1056" y2="36" stroke="#E5E7EB"/>
            <text x="15" y="23" class="text-muted" font-size="10" font-weight="600">SOURCE</text>
            <text x="300" y="23" class="text-muted" font-size="10" font-weight="600">TYPE</text>
            <text x="420" y="23" class="text-muted" font-size="10" font-weight="600">DESTINATION</text>
            <text x="750" y="23" class="text-muted" font-size="10" font-weight="600">TITRE</text>
            <text x="950" y="23" class="text-muted" font-size="10" font-weight="600">ACTIONS</text>

            <!-- Row 1 -->
            <rect x="0" y="36" width="1056" height="50" fill="#FFFFFF"/>
            <line x1="0" y1="86" x2="1056" y2="86" stroke="#E5E7EB"/>
            <text x="15" y="66" class="text-dark" font-size="12">www.example.com</text>
            <rect x="300" y="51" width="80" height="20" rx="10" fill="#DEF7EC"/>
            <text x="340" y="65" fill="#03543F" font-size="10" text-anchor="middle">301 Permanent</text>
            <text x="420" y="66" class="text-dark" font-size="12">https://example.com</text>
            <text x="750" y="66" class="text-muted" font-size="11">-</text>
            <text x="950" y="66" class="text-primary" font-size="12">✎</text>
            <text x="990" y="66" class="text-error" font-size="12">×</text>

            <!-- Row 2 -->
            <rect x="0" y="86" width="1056" height="50" fill="#F9FAFB"/>
            <line x1="0" y1="136" x2="1056" y2="136" stroke="#E5E7EB"/>
            <text x="15" y="116" class="text-dark" font-size="12">blog.example.com</text>
            <rect x="300" y="101" width="80" height="20" rx="10" fill="#DBEAFE"/>
            <text x="340" y="115" class="text-info" font-size="10" text-anchor="middle">302 Temporaire</text>
            <text x="420" y="116" class="text-dark" font-size="12">https://blog.external.com</text>
            <text x="750" y="116" class="text-muted" font-size="11">-</text>
            <text x="950" y="116" class="text-primary" font-size="12">✎</text>
            <text x="990" y="116" class="text-error" font-size="12">×</text>

            <!-- Row 3 -->
            <rect x="0" y="136" width="1056" height="50" fill="#FFFFFF"/>
            <line x1="0" y1="186" x2="1056" y2="186" stroke="#E5E7EB"/>
            <text x="15" y="166" class="text-dark" font-size="12">promo.example.com</text>
            <rect x="300" y="151" width="55" height="20" rx="10" fill="#FEF3C7"/>
            <text x="327" y="165" fill="#92400E" font-size="10" text-anchor="middle">Frame</text>
            <text x="420" y="166" class="text-dark" font-size="12">https://shop.example.com/promo</text>
            <text x="750" y="166" class="text-muted" font-size="11">Promo été 2025</text>
            <text x="950" y="166" class="text-primary" font-size="12">✎</text>
            <text x="990" y="166" class="text-error" font-size="12">×</text>
          </g>

          <!-- Info -->
          <g transform="translate(0, 280)">
            <rect x="0" y="0" width="1056" height="50" rx="6" class="bg-info"/>
            <text x="20" y="30" class="text-info" font-size="11">💡 Les redirections permettent de rediriger les visiteurs d'un sous-domaine vers une autre URL. Types: 301 (permanent), 302 (temporaire), Frame (invisible).</text>
          </g>
        </g>
      </g>
    </g>
  </g>
</svg>
