<svg xmlns="http://www.w3.org/2000/svg" viewBox="0 0 1440 900" width="1440" height="900">
  <defs>
    <style>
      .bg-header { fill: #000E9C; }
      .bg-main { fill: #F6F6F9; }
      .bg-white { fill: #FFFFFF; }
      .bg-primary { fill: #0050D7; }
      .bg-success { fill: #DEF7EC; }
      .bg-warning { fill: #FEF3C7; }
      .bg-error { fill: #FEE2E2; }
      .border { stroke: #E5E7EB; stroke-width: 1; fill: none; }
      .btn-outline { stroke: #0050D7; stroke-width: 1; fill: #FFFFFF; }
      .btn-primary { fill: #0050D7; }
      .row-selected { fill: #E8F0FE; }
      .table-header { fill: #F9FAFB; }
      .text-white { fill: #FFFFFF; font-family: 'Source Sans Pro', sans-serif; }
      .text-dark { fill: #1F2937; font-family: 'Source Sans Pro', sans-serif; }
      .text-muted { fill: #6B7280; font-family: 'Source Sans Pro', sans-serif; }
      .text-primary { fill: #0050D7; font-family: 'Source Sans Pro', sans-serif; }
      .text-success { fill: #059669; font-family: 'Source Sans Pro', sans-serif; }
      .text-warning { fill: #D97706; font-family: 'Source Sans Pro', sans-serif; }
      .text-error { fill: #DC2626; font-family: 'Source Sans Pro', sans-serif; }
    </style>
  </defs>

  <rect width="1440" height="900" class="bg-main"/>

  <!-- NAV1 -->
  <rect width="1440" height="50" class="bg-header"/>
  <text x="40" y="32" class="text-white" font-size="14" opacity="0.7">Accueil</text>
  <text x="110" y="32" class="text-white" font-size="14" opacity="0.7">Public Cloud</text>
  <text x="210" y="32" class="text-white" font-size="14" opacity="0.7">Hosted Private Cloud</text>
  <text x="370" y="32" class="text-white" font-size="14" opacity="0.7">Bare Metal Cloud</text>
  <text x="510" y="32" class="text-white" font-size="14" font-weight="600">Web Cloud</text>
  <rect x="505" y="46" width="75" height="3" fill="#FFFFFF"/>
  <text x="620" y="32" class="text-white" font-size="14" opacity="0.7">Network</text>
  <text x="700" y="32" class="text-white" font-size="14" opacity="0.7">IAM / Securite</text>
  <text x="810" y="32" class="text-white" font-size="14" opacity="0.7">Licences</text>

  <!-- NAV2 -->
  <rect x="0" y="50" width="1440" height="40" class="bg-white"/>
  <line x1="0" y1="89" x2="1440" y2="89" stroke="#E5E7EB"/>
  <text x="40" y="75" class="text-muted" font-size="14">Accueil</text>
  <text x="110" y="75" class="text-primary" font-size="14" font-weight="600">Domaines et DNS</text>
  <rect x="105" y="85" width="110" height="3" fill="#0050D7"/>
  <text x="240" y="75" class="text-muted" font-size="14">Hebergement</text>
  <text x="345" y="75" class="text-muted" font-size="14">Wordpress</text>
  <text x="430" y="75" class="text-muted" font-size="14">Emails</text>
  <text x="500" y="75" class="text-muted" font-size="14">VoIP</text>
  <text x="550" y="75" class="text-muted" font-size="14">Acces</text>
  <text x="1350" y="75" class="text-primary" font-size="13">Guides</text>

  <!-- CONTENT -->
  <g transform="translate(0, 105)">
    <g transform="translate(24, 0)">
      <!-- LEFT PANEL -->
      <rect x="0" y="0" width="280" height="765" rx="8" class="bg-white"/>
      <rect x="0" y="0" width="280" height="765" rx="8" class="border"/>
      <rect x="12" y="12" width="256" height="34" rx="4" fill="#F9FAFB" stroke="#E5E7EB"/>
      <text x="40" y="34" class="text-muted" font-size="12">Rechercher...</text>
      <text x="12" y="68" class="text-muted" font-size="11">Filtrer ▼</text>
      <text x="268" y="68" class="text-muted" font-size="11" text-anchor="end">5 services</text>

      <!-- Domain items -->
      <g transform="translate(6, 80)">
        <rect x="0" y="0" width="268" height="50" rx="6" fill="#F9FAFB"/>
        <text x="22" y="20" font-size="14">🌐</text>
        <text x="46" y="18" class="text-muted" font-size="12">Tous les domaines</text>
        <text x="46" y="34" class="text-muted" font-size="10">5 domaines</text>
      </g>

      <g transform="translate(6, 140)">
        <text x="22" y="20" font-size="14">🌐</text>
        <text x="46" y="18" class="text-dark" font-size="12">example.com</text>
        <text x="46" y="34" class="text-muted" font-size="10">Domaine + Zone</text>
        <rect x="200" y="6" width="46" height="18" rx="9" fill="#DEF7EC"/>
        <text x="223" y="19" fill="#03543F" font-size="10" text-anchor="middle">Actif</text>
      </g>

      <g transform="translate(6, 195)">
        <text x="22" y="20" font-size="14">🌐</text>
        <text x="46" y="18" class="text-dark" font-size="12">monsite.fr</text>
        <text x="46" y="34" class="text-muted" font-size="10">Domaine + Zone</text>
        <rect x="200" y="6" width="46" height="18" rx="9" fill="#DEF7EC"/>
        <text x="223" y="19" fill="#03543F" font-size="10" text-anchor="middle">Actif</text>
      </g>
    </g>

    <g transform="translate(320, 0)">
      <!-- RIGHT PANEL -->
      <rect x="0" y="0" width="1096" height="765" rx="8" class="bg-white"/>
      <rect x="0" y="0" width="1096" height="765" rx="8" class="border"/>

      <g transform="translate(20, 0)">
        <text x="0" y="28" class="text-dark" font-size="18" font-weight="600">Mes noms de domaine</text>

        <!-- Toolbar -->
        <g transform="translate(0, 45)">
          <rect x="0" y="0" width="180" height="32" rx="4" class="btn-primary"/>
          <text x="90" y="21" class="text-white" font-size="11" text-anchor="middle">+ Commander un domaine</text>

          <rect x="190" y="0" width="100" height="32" rx="4" class="btn-outline"/>
          <text x="240" y="21" class="text-primary" font-size="11" text-anchor="middle">Transferer</text>

          <rect x="300" y="0" width="100" height="32" rx="4" class="btn-outline"/>
          <text x="350" y="21" class="text-primary" font-size="11" text-anchor="middle">Exporter CSV</text>

          <rect x="850" y="0" width="200" height="32" rx="4" fill="#F9FAFB" stroke="#E5E7EB"/>
          <text x="870" y="21" class="text-muted" font-size="11">🔍 Rechercher...</text>
        </g>

        <!-- Table Header -->
        <g transform="translate(0, 95)">
          <rect x="0" y="0" width="1056" height="40" class="table-header"/>
          <rect x="15" y="12" width="16" height="16" rx="3" fill="#FFFFFF" stroke="#D1D5DB"/>
          <text x="50" y="26" class="text-muted" font-size="11" font-weight="600">NOM DE DOMAINE</text>
          <text x="300" y="26" class="text-muted" font-size="11" font-weight="600">EXTENSION</text>
          <text x="420" y="26" class="text-muted" font-size="11" font-weight="600">ETAT</text>
          <text x="560" y="26" class="text-muted" font-size="11" font-weight="600">EXPIRATION</text>
          <text x="720" y="26" class="text-muted" font-size="11" font-weight="600">RENOUVELLEMENT</text>
          <text x="1000" y="26" class="text-muted" font-size="11" font-weight="600">ACTIONS</text>
        </g>

        <!-- Rows -->
        <g transform="translate(0, 135)">
          <!-- Row 1 -->
          <rect x="0" y="0" width="1056" height="50" fill="#FFFFFF"/>
          <line x1="0" y1="50" x2="1056" y2="50" stroke="#E5E7EB"/>
          <rect x="15" y="17" width="16" height="16" rx="3" fill="#FFFFFF" stroke="#D1D5DB"/>
          <text x="50" y="30" class="text-primary" font-size="12">example.com</text>
          <text x="300" y="30" class="text-muted" font-size="11">.com</text>
          <rect x="420" y="15" width="46" height="20" rx="10" fill="#DEF7EC"/>
          <text x="443" y="29" fill="#03543F" font-size="10" text-anchor="middle">Actif</text>
          <text x="560" y="30" class="text-muted" font-size="11">15/03/2026</text>
          <text x="720" y="30" class="text-dark" font-size="11">Automatique</text>
          <text x="1010" y="30" class="text-muted" font-size="14">⋮</text>

          <!-- Row 2 -->
          <rect x="0" y="50" width="1056" height="50" fill="#FFFFFF"/>
          <line x1="0" y1="100" x2="1056" y2="100" stroke="#E5E7EB"/>
          <rect x="15" y="67" width="16" height="16" rx="3" fill="#FFFFFF" stroke="#D1D5DB"/>
          <text x="50" y="80" class="text-primary" font-size="12">monsite.fr</text>
          <text x="300" y="80" class="text-muted" font-size="11">.fr</text>
          <rect x="420" y="65" width="46" height="20" rx="10" fill="#DEF7EC"/>
          <text x="443" y="79" fill="#03543F" font-size="10" text-anchor="middle">Actif</text>
          <text x="560" y="80" class="text-muted" font-size="11">22/08/2025</text>
          <text x="720" y="80" class="text-dark" font-size="11">Automatique</text>
          <text x="1010" y="80" class="text-muted" font-size="14">⋮</text>

          <!-- Row 3 -->
          <rect x="0" y="100" width="1056" height="50" fill="#FFFFFF"/>
          <line x1="0" y1="150" x2="1056" y2="150" stroke="#E5E7EB"/>
          <rect x="15" y="117" width="16" height="16" rx="3" fill="#FFFFFF" stroke="#D1D5DB"/>
          <text x="50" y="130" class="text-primary" font-size="12">boutique.eu</text>
          <text x="300" y="130" class="text-muted" font-size="11">.eu</text>
          <rect x="420" y="115" width="46" height="20" rx="10" fill="#DEF7EC"/>
          <text x="443" y="129" fill="#03543F" font-size="10" text-anchor="middle">Actif</text>
          <text x="560" y="130" class="text-muted" font-size="11">10/12/2025</text>
          <text x="720" y="130" class="text-dark" font-size="11">Manuel</text>
          <text x="1010" y="130" class="text-muted" font-size="14">⋮</text>

          <!-- Row 4 - Warning -->
          <rect x="0" y="150" width="1056" height="50" fill="#FFFFFF"/>
          <line x1="0" y1="200" x2="1056" y2="200" stroke="#E5E7EB"/>
          <rect x="15" y="167" width="16" height="16" rx="3" fill="#FFFFFF" stroke="#D1D5DB"/>
          <text x="50" y="180" class="text-primary" font-size="12">projet-test.org</text>
          <text x="300" y="180" class="text-muted" font-size="11">.org</text>
          <rect x="420" y="165" width="80" height="20" rx="10" fill="#FEF3C7"/>
          <text x="460" y="179" fill="#92400E" font-size="10" text-anchor="middle">Expire bientot</text>
          <text x="560" y="180" class="text-warning" font-size="11">05/01/2025</text>
          <text x="720" y="180" class="text-dark" font-size="11">Manuel</text>
          <text x="1010" y="180" class="text-muted" font-size="14">⋮</text>

          <!-- Row 5 - Error -->
          <rect x="0" y="200" width="1056" height="50" fill="#FFFFFF"/>
          <line x1="0" y1="250" x2="1056" y2="250" stroke="#E5E7EB"/>
          <rect x="15" y="217" width="16" height="16" rx="3" fill="#FFFFFF" stroke="#D1D5DB"/>
          <text x="50" y="230" class="text-primary" font-size="12">old-domain.net</text>
          <text x="300" y="230" class="text-muted" font-size="11">.net</text>
          <rect x="420" y="215" width="50" height="20" rx="10" fill="#FEE2E2"/>
          <text x="445" y="229" fill="#991B1B" font-size="10" text-anchor="middle">Expire</text>
          <text x="560" y="230" class="text-error" font-size="11">15/11/2024</text>
          <text x="720" y="230" class="text-muted" font-size="11">-</text>
          <text x="1010" y="230" class="text-muted" font-size="14">⋮</text>
        </g>

        <!-- Pagination -->
        <g transform="translate(0, 400)">
          <text x="0" y="20" class="text-muted" font-size="11">Affichage 1-5 sur 5 domaines</text>
        </g>
      </g>
    </g>
  </g>
</svg>
