<svg xmlns="http://www.w3.org/2000/svg" viewBox="0 0 1440 900" width="1440" height="900">
  <defs>
    <style>
      .bg-header { fill: #000E9C; }
      .bg-main { fill: #F6F6F9; }
      .bg-white { fill: #FFFFFF; }
      .bg-primary { fill: #0050D7; }
      .bg-neutral-100 { fill: #F3F4F6; }
      .bg-info { fill: #DBEAFE; }
      .bg-success { fill: #DEF7EC; }
      .bg-error { fill: #FEE2E2; }
      .bg-warning { fill: #FEF3C7; }
      .border { stroke: #E5E7EB; stroke-width: 1; fill: none; }
      .btn-outline { stroke: #0050D7; stroke-width: 1; fill: #FFFFFF; }
      .btn-primary { fill: #0050D7; }
      .btn-disabled { fill: #E5E7EB; }
      .row-selected { fill: #E8F0FE; }
      .table-header { fill: #F9FAFB; }
      .text-white { fill: #FFFFFF; font-family: 'Source Sans Pro', sans-serif; }
      .text-dark { fill: #1F2937; font-family: 'Source Sans Pro', sans-serif; }
      .text-muted { fill: #6B7280; font-family: 'Source Sans Pro', sans-serif; }
      .text-primary { fill: #0050D7; font-family: 'Source Sans Pro', sans-serif; }
      .text-success { fill: #059669; font-family: 'Source Sans Pro', sans-serif; }
      .text-error { fill: #DC2626; font-family: 'Source Sans Pro', sans-serif; }
    </style>
  </defs>

  <rect width="1440" height="900" class="bg-main"/>

  <!-- NAV1 -->
  <rect width="1440" height="50" class="bg-header"/>
  <text x="40" y="32" class="text-white" font-size="14" opacity="0.7">Accueil</text>
  <text x="110" y="32" class="text-white" font-size="14" opacity="0.7">Public Cloud</text>
  <text x="210" y="32" class="text-white" font-size="14" opacity="0.7">Hosted Private Cloud</text>
  <text x="370" y="32" class="text-white" font-size="14" opacity="0.7">Bare Metal Cloud</text>
  <text x="510" y="32" class="text-white" font-size="14" font-weight="600">Web Cloud</text>
  <rect x="505" y="46" width="75" height="3" fill="#FFFFFF"/>
  <text x="620" y="32" class="text-white" font-size="14" opacity="0.7">Network</text>
  <text x="700" y="32" class="text-white" font-size="14" opacity="0.7">IAM / Securite</text>
  <text x="810" y="32" class="text-white" font-size="14" opacity="0.7">Licences</text>
  <rect x="1280" y="12" width="140" height="26" rx="13" fill="rgba(255,255,255,0.2)"/>
  <text x="1320" y="29" class="text-white" font-size="12">ab12345-ovh</text>

  <!-- NAV2 -->
  <rect x="0" y="50" width="1440" height="40" class="bg-white"/>
  <line x1="0" y1="89" x2="1440" y2="89" stroke="#E5E7EB"/>
  <text x="40" y="75" class="text-muted" font-size="14">Accueil</text>
  <text x="110" y="75" class="text-muted" font-size="14">Domaines et DNS</text>
  <text x="240" y="75" class="text-muted" font-size="14">Hebergement</text>
  <text x="345" y="75" class="text-muted" font-size="14">Wordpress</text>
  <text x="430" y="75" class="text-primary" font-size="14" font-weight="600">Emails</text>
  <rect x="425" y="85" width="50" height="3" fill="#0050D7"/>
  <text x="500" y="75" class="text-muted" font-size="14">VoIP</text>
  <text x="550" y="75" class="text-muted" font-size="14">Acces</text>
  <text x="1350" y="75" class="text-primary" font-size="13">Guides</text>

  <!-- CONTENT -->
  <g transform="translate(0, 105)">
    <g transform="translate(24, 0)">
      <!-- LEFT PANEL -->
      <rect x="0" y="0" width="280" height="765" rx="8" class="bg-white"/>
      <rect x="0" y="0" width="280" height="765" rx="8" class="border"/>

      <!-- Toggle -->
      <g transform="translate(12, 12)">
        <rect x="0" y="0" width="256" height="32" rx="6" fill="#F3F4F6"/>
        <rect x="2" y="2" width="125" height="28" rx="5" fill="#FFFFFF"/>
        <text x="64" y="21" class="text-dark" font-size="11" text-anchor="middle" font-weight="500">Par domaine</text>
        <text x="191" y="21" class="text-muted" font-size="11" text-anchor="middle">Par licence</text>
      </g>

      <!-- Recherche -->
      <rect x="12" y="56" width="256" height="34" rx="4" fill="#F9FAFB" stroke="#E5E7EB"/>
      <text x="26" y="78" class="text-muted" font-size="12">Rechercher...</text>

      <text x="12" y="110" class="text-muted" font-size="11">5 domaines</text>

      <!-- Service selectionne -->
      <g transform="translate(6, 120)">
        <rect x="0" y="0" width="268" height="120" rx="6" class="row-selected"/>
        <text x="12" y="22" class="text-dark" font-size="13" font-weight="600">example.com</text>
        <g transform="translate(12, 34)">
          <circle cx="6" cy="6" r="5" fill="#F59E0B"/>
          <text x="16" y="10" class="text-dark" font-size="10">5 Exchange</text>
          <circle cx="6" cy="22" r="5" fill="#3B82F6"/>
          <text x="16" y="26" class="text-dark" font-size="10">4 Pro</text>
          <circle cx="6" cy="38" r="5" fill="#8B5CF6"/>
          <text x="16" y="42" class="text-dark" font-size="10">2 Zimbra</text>
          <circle cx="6" cy="54" r="5" fill="#6B7280"/>
          <text x="16" y="58" class="text-dark" font-size="10">1 MX Plan</text>
        </g>
        <line x1="12" y1="102" x2="256" y2="102" stroke="#E5E7EB"/>
        <text x="12" y="116" class="text-muted" font-size="10">12 boites - 67 Go</text>
      </g>
    </g>

    <!-- RIGHT PANEL -->
    <g transform="translate(320, 0)">
      <rect x="0" y="0" width="1096" height="765" rx="8" class="bg-white"/>
      <rect x="0" y="0" width="1096" height="765" rx="8" class="border"/>

      <g transform="translate(20, 0)">
        <text x="0" y="28" class="text-dark" font-size="18" font-weight="600">example.com</text>
        <text x="0" y="48" class="text-muted" font-size="12">12 boites - 4 offres - 67 Go utilises</text>
        <rect x="950" y="10" width="100" height="32" rx="4" class="btn-outline"/>
        <text x="1000" y="31" class="text-primary" font-size="11" text-anchor="middle">Webmail</text>

        <!-- NAV3 - Boites mail actif -->
        <g transform="translate(0, 60)">
          <rect x="0" y="0" width="85" height="26" rx="4" class="bg-primary"/>
          <text x="42" y="17" class="text-white" font-size="11" text-anchor="middle">Boites mail</text>
          <rect x="89" y="0" width="90" height="26" rx="4" class="btn-outline"/>
          <text x="134" y="17" class="text-primary" font-size="11" text-anchor="middle">Redirections</text>
          <rect x="183" y="0" width="80" height="26" rx="4" class="btn-outline"/>
          <text x="223" y="17" class="text-primary" font-size="11" text-anchor="middle">Repondeurs</text>
          <rect x="267" y="0" width="50" height="26" rx="4" class="btn-outline"/>
          <text x="292" y="17" class="text-primary" font-size="11" text-anchor="middle">Listes</text>
          <rect x="321" y="0" width="65" height="26" rx="4" class="btn-outline"/>
          <text x="353" y="17" class="text-primary" font-size="11" text-anchor="middle">Securite</text>
          <rect x="390" y="0" width="55" height="26" rx="4" class="btn-outline"/>
          <text x="417" y="17" class="text-primary" font-size="11" text-anchor="middle">Avance</text>
          <rect x="449" y="0" width="65" height="26" rx="4" class="btn-outline"/>
          <text x="481" y="17" class="text-primary" font-size="11" text-anchor="middle">Licences</text>
          <rect x="518" y="0" width="55" height="26" rx="4" class="btn-outline"/>
          <text x="545" y="17" class="text-primary" font-size="11" text-anchor="middle">Taches</text>
        </g>

        <!-- Contenu Boites mail -->
        <g transform="translate(0, 100)">
          <!-- Toolbar -->
          <rect x="0" y="0" width="120" height="32" rx="4" class="btn-primary"/>
          <text x="60" y="21" class="text-white" font-size="11" text-anchor="middle">+ Creer boite</text>
          <rect x="128" y="0" width="90" height="32" rx="4" class="btn-outline"/>
          <text x="173" y="21" class="text-primary" font-size="11" text-anchor="middle">Importer</text>
          <rect x="226" y="0" width="90" height="32" rx="4" class="btn-outline"/>
          <text x="271" y="21" class="text-primary" font-size="11" text-anchor="middle">Exporter</text>
          <rect x="750" y="0" width="200" height="32" rx="4" fill="#F9FAFB" stroke="#E5E7EB"/>
          <text x="765" y="21" class="text-muted" font-size="11">Filtrer...</text>

          <!-- Filtres -->
          <g transform="translate(0, 44)">
            <rect x="0" y="0" width="60" height="24" rx="12" fill="#E8F0FE"/>
            <text x="30" y="16" class="text-primary" font-size="10" text-anchor="middle">Toutes</text>
            <rect x="68" y="0" width="75" height="24" rx="12" fill="#FEF3C7"/>
            <circle cx="82" cy="12" r="5" fill="#F59E0B"/>
            <text x="105" y="16" fill="#92400E" font-size="10">Exchange</text>
            <rect x="151" y="0" width="55" height="24" rx="12" fill="#DBEAFE"/>
            <circle cx="165" cy="12" r="5" fill="#3B82F6"/>
            <text x="188" y="16" fill="#1E40AF" font-size="10">Pro</text>
            <rect x="214" y="0" width="60" height="24" rx="12" fill="#EDE9FE"/>
            <circle cx="228" cy="12" r="5" fill="#8B5CF6"/>
            <text x="251" y="16" fill="#5B21B6" font-size="10">Zimbra</text>
            <rect x="282" y="0" width="65" height="24" rx="12" fill="#F3F4F6"/>
            <circle cx="296" cy="12" r="5" fill="#6B7280"/>
            <text x="319" y="16" fill="#374151" font-size="10">MX Plan</text>
          </g>

          <!-- Table -->
          <g transform="translate(0, 80)">
            <rect x="0" y="0" width="1036" height="36" class="table-header"/>
            <text x="20" y="23" class="text-muted" font-size="11" font-weight="600">Email</text>
            <text x="300" y="23" class="text-muted" font-size="11" font-weight="600">Offre</text>
            <text x="420" y="23" class="text-muted" font-size="11" font-weight="600">Licence / Pack</text>
            <text x="600" y="23" class="text-muted" font-size="11" font-weight="600">Quota</text>
            <text x="720" y="23" class="text-muted" font-size="11" font-weight="600">Statut</text>
            <text x="820" y="23" class="text-muted" font-size="11" font-weight="600">Actions</text>
          </g>

          <!-- Rows -->
          <g transform="translate(0, 116)">
            <rect x="0" y="0" width="1036" height="45" fill="#FFFFFF"/>
            <line x1="0" y1="44" x2="1036" y2="44" stroke="#E5E7EB"/>
            <text x="20" y="18" class="text-dark" font-size="12" font-weight="500">ceo@example.com</text>
            <text x="20" y="34" class="text-muted" font-size="10">3 alias, MFA</text>
            <circle cx="310" cy="18" r="5" fill="#F59E0B"/>
            <text x="322" y="22" class="text-dark" font-size="11">Exchange</text>
            <text x="420" y="22" class="text-dark" font-size="11">Pack Biz 10</text>
            <rect x="600" y="12" width="80" height="6" rx="3" fill="#E5E7EB"/>
            <rect x="600" y="12" width="56" height="6" rx="3" fill="#F59E0B"/>
            <text x="600" y="32" class="text-muted" font-size="9">35/50 Go</text>
            <rect x="720" y="8" width="40" height="16" rx="8" fill="#DEF7EC"/>
            <text x="740" y="20" fill="#03543F" font-size="9" text-anchor="middle">Actif</text>
            <text x="820" y="22" class="text-primary" font-size="11">Edit</text>
            <text x="850" y="22" class="text-primary" font-size="11">MDP</text>
            <text x="885" y="22" class="text-primary" font-size="11">Alias</text>
            <text x="920" y="22" class="text-primary" font-size="11">MFA</text>
            <text x="955" y="22" class="text-muted" font-size="11">...</text>
          </g>

          <g transform="translate(0, 161)">
            <rect x="0" y="0" width="1036" height="45" fill="#FFFFFF"/>
            <line x1="0" y1="44" x2="1036" y2="44" stroke="#E5E7EB"/>
            <text x="20" y="18" class="text-dark" font-size="12" font-weight="500">contact@example.com</text>
            <text x="20" y="34" class="text-muted" font-size="10">2 alias</text>
            <circle cx="310" cy="18" r="5" fill="#3B82F6"/>
            <text x="322" y="22" class="text-dark" font-size="11">Email Pro</text>
            <text x="420" y="22" class="text-dark" font-size="11">Pack Pro 5</text>
            <rect x="600" y="12" width="80" height="6" rx="3" fill="#E5E7EB"/>
            <rect x="600" y="12" width="32" height="6" rx="3" fill="#3B82F6"/>
            <text x="600" y="32" class="text-muted" font-size="9">4/10 Go</text>
            <rect x="720" y="8" width="40" height="16" rx="8" fill="#DEF7EC"/>
            <text x="740" y="20" fill="#03543F" font-size="9" text-anchor="middle">Actif</text>
            <text x="820" y="22" class="text-primary" font-size="11">Edit</text>
            <text x="850" y="22" class="text-primary" font-size="11">MDP</text>
            <text x="885" y="22" class="text-primary" font-size="11">Alias</text>
            <text x="955" y="22" class="text-muted" font-size="11">...</text>
          </g>

          <g transform="translate(0, 206)">
            <rect x="0" y="0" width="1036" height="45" fill="#FFFFFF"/>
            <line x1="0" y1="44" x2="1036" y2="44" stroke="#E5E7EB"/>
            <text x="20" y="18" class="text-dark" font-size="12" font-weight="500">dev@example.com</text>
            <text x="20" y="34" class="text-muted" font-size="10">1 alias</text>
            <circle cx="310" cy="18" r="5" fill="#8B5CF6"/>
            <text x="322" y="22" class="text-dark" font-size="11">Zimbra</text>
            <text x="420" y="22" class="text-dark" font-size="11">A la carte</text>
            <rect x="600" y="12" width="80" height="6" rx="3" fill="#E5E7EB"/>
            <rect x="600" y="12" width="16" height="6" rx="3" fill="#8B5CF6"/>
            <text x="600" y="32" class="text-muted" font-size="9">2/10 Go</text>
            <rect x="720" y="8" width="40" height="16" rx="8" fill="#DEF7EC"/>
            <text x="740" y="20" fill="#03543F" font-size="9" text-anchor="middle">Actif</text>
            <text x="820" y="22" class="text-primary" font-size="11">Edit</text>
            <text x="850" y="22" class="text-primary" font-size="11">MDP</text>
            <text x="885" y="22" class="text-primary" font-size="11">Alias</text>
            <text x="955" y="22" class="text-muted" font-size="11">...</text>
          </g>

          <g transform="translate(0, 251)">
            <rect x="0" y="0" width="1036" height="45" fill="#FFFFFF"/>
            <line x1="0" y1="44" x2="1036" y2="44" stroke="#E5E7EB"/>
            <text x="20" y="22" class="text-dark" font-size="12" font-weight="500">info@example.com</text>
            <circle cx="310" cy="18" r="5" fill="#6B7280"/>
            <text x="322" y="22" class="text-dark" font-size="11">MX Plan</text>
            <text x="420" y="22" class="text-dark" font-size="11">Inclus</text>
            <rect x="600" y="12" width="80" height="6" rx="3" fill="#E5E7EB"/>
            <rect x="600" y="12" width="8" height="6" rx="3" fill="#6B7280"/>
            <text x="600" y="32" class="text-muted" font-size="9">0.5/5 Go</text>
            <rect x="720" y="8" width="40" height="16" rx="8" fill="#DEF7EC"/>
            <text x="740" y="20" fill="#03543F" font-size="9" text-anchor="middle">Actif</text>
            <text x="820" y="22" class="text-primary" font-size="11">Edit</text>
            <text x="850" y="22" class="text-primary" font-size="11">MDP</text>
            <text x="955" y="22" class="text-muted" font-size="11">...</text>
          </g>

          <!-- Pagination -->
          <g transform="translate(0, 520)">
            <text x="0" y="16" class="text-muted" font-size="11">Affichage 1-12 sur 12</text>
            <g transform="translate(880, 0)">
              <rect x="0" y="0" width="28" height="26" rx="4" class="btn-disabled"/>
              <text x="14" y="17" class="text-muted" font-size="12" text-anchor="middle">&lt;</text>
              <rect x="34" y="0" width="28" height="26" rx="4" class="bg-primary"/>
              <text x="48" y="17" class="text-white" font-size="11" text-anchor="middle">1</text>
              <rect x="68" y="0" width="28" height="26" rx="4" class="btn-outline"/>
              <text x="82" y="17" class="text-primary" font-size="12" text-anchor="middle">&gt;</text>
            </g>
          </g>
        </g>
      </g>
    </g>
  </g>
</svg>
