<svg xmlns="http://www.w3.org/2000/svg" viewBox="0 0 1440 900" width="1440" height="900">
  <defs>
    <style>
      .bg-header { fill: #000E9C; }
      .bg-white { fill: #FFFFFF; }
      .bg-muted { fill: #F9FAFB; }
      .bg-neutral-100 { fill: #F3F4F6; }
      .text-white { fill: #FFFFFF; font-family: 'Source Sans Pro', sans-serif; }
      .text-body { fill: #1F2937; font-family: 'Source Sans Pro', sans-serif; font-size: 14px; }
      .text-muted { fill: #6B7280; font-family: 'Source Sans Pro', sans-serif; font-size: 14px; }
      .text-primary { fill: #0050D7; font-family: 'Source Sans Pro', sans-serif; font-size: 14px; }
      .text-title { fill: #1F2937; font-family: 'Source Sans Pro', sans-serif; font-size: 20px; font-weight: 600; }
      .border { stroke: #E5E7EB; stroke-width: 1; fill: none; }
      .btn-primary { fill: #0050D7; }
      .btn-outline { fill: #FFFFFF; stroke: #E5E7EB; stroke-width: 1; }
      .btn-outline-primary { fill: #FFFFFF; stroke: #0050D7; stroke-width: 1; }
      .modal { fill: #FFFFFF; filter: drop-shadow(0 25px 50px rgba(0,0,0,0.25)); }
      .toggle-on { fill: #0050D7; }
      .toggle-off { fill: #E5E7EB; }
      .badge-success { fill: #DEF7EC; }
      .badge-success-text { fill: #03543F; font-family: 'Source Sans Pro', sans-serif; font-size: 12px; }
      .badge-error { fill: #FEE2E2; }
      .badge-error-text { fill: #991B1B; font-family: 'Source Sans Pro', sans-serif; font-size: 12px; }
    </style>
  </defs>
  
  <!-- Background page (dimmed) -->
  <rect width="1440" height="900" class="bg-muted"/>
  <rect width="1440" height="60" class="bg-header"/>
  <rect x="0" y="60" width="240" height="840" class="bg-white"/>
  
  <!-- Overlay -->
  <rect width="1440" height="900" fill="rgba(0,0,0,0.5)"/>
  
  <!-- Modal (larger for firewall config) -->
  <g transform="translate(320, 100)">
    <rect x="0" y="0" width="800" height="650" rx="12" class="modal"/>
    
    <!-- Header -->
    <text x="30" y="45" class="text-title">Configurer le firewall - 123.45.67.89</text>
    <text x="750" y="45" class="text-muted" font-size="20" style="cursor:pointer">✕</text>
    
    <line x1="0" y1="70" x2="800" y2="70" stroke="#E5E7EB"/>
    
    <!-- Toggle Firewall -->
    <g transform="translate(30, 90)">
      <text x="0" y="20" class="text-body" font-weight="600">État du firewall</text>
      <!-- Toggle switch ON -->
      <rect x="150" y="5" width="50" height="26" rx="13" class="toggle-on"/>
      <circle cx="188" cy="18" r="10" fill="#FFFFFF"/>
      <text x="210" y="22" class="text-primary" font-weight="500">Activé</text>
    </g>
    
    <!-- Add Rule Button -->
    <rect x="30" y="140" width="180" height="36" rx="4" class="btn-outline-primary"/>
    <text x="45" y="163" class="text-primary" font-size="14">+ Ajouter une règle</text>
    
    <!-- Rules DataGrid -->
    <g transform="translate(30, 200)">
      <!-- Header -->
      <rect x="0" y="0" width="740" height="40" class="bg-neutral-100"/>
      <text x="15" y="26" class="text-body" font-weight="600">#</text>
      <text x="60" y="26" class="text-body" font-weight="600">Action</text>
      <text x="150" y="26" class="text-body" font-weight="600">Protocole</text>
      <text x="260" y="26" class="text-body" font-weight="600">Source</text>
      <text x="420" y="26" class="text-body" font-weight="600">Port</text>
      <text x="520" y="26" class="text-body" font-weight="600">Statut</text>
      <text x="650" y="26" class="text-body" font-weight="600"></text>
      
      <!-- Rule 1 -->
      <rect x="0" y="40" width="740" height="50" class="bg-white"/>
      <line x1="0" y1="90" x2="740" y2="90" class="border"/>
      <text x="15" y="70" class="text-body">1</text>
      <g transform="translate(60, 55)">
        <rect x="0" y="0" width="60" height="24" rx="12" class="badge-success"/>
        <text x="10" y="16" class="badge-success-text">ACCEPT</text>
      </g>
      <text x="150" y="70" class="text-body">TCP</text>
      <text x="260" y="70" class="text-body">0.0.0.0/0</text>
      <text x="420" y="70" class="text-body">22</text>
      <g transform="translate(520, 55)">
        <rect x="0" y="0" width="50" height="24" rx="12" class="badge-success"/>
        <text x="10" y="16" class="badge-success-text">Actif</text>
      </g>
      <text x="650" y="70" class="text-muted">✏️</text>
      <text x="690" y="70" fill="#991B1B" font-family="Source Sans Pro" font-size="14">🗑️</text>
      
      <!-- Rule 2 -->
      <rect x="0" y="90" width="740" height="50" class="bg-white"/>
      <line x1="0" y1="140" x2="740" y2="140" class="border"/>
      <text x="15" y="120" class="text-body">2</text>
      <g transform="translate(60, 105)">
        <rect x="0" y="0" width="60" height="24" rx="12" class="badge-success"/>
        <text x="10" y="16" class="badge-success-text">ACCEPT</text>
      </g>
      <text x="150" y="120" class="text-body">TCP</text>
      <text x="260" y="120" class="text-body">0.0.0.0/0</text>
      <text x="420" y="120" class="text-body">80, 443</text>
      <g transform="translate(520, 105)">
        <rect x="0" y="0" width="50" height="24" rx="12" class="badge-success"/>
        <text x="10" y="16" class="badge-success-text">Actif</text>
      </g>
      <text x="650" y="120" class="text-muted">✏️</text>
      <text x="690" y="120" fill="#991B1B" font-family="Source Sans Pro" font-size="14">🗑️</text>
      
      <!-- Rule 3 -->
      <rect x="0" y="140" width="740" height="50" class="bg-white"/>
      <line x1="0" y1="190" x2="740" y2="190" class="border"/>
      <text x="15" y="170" class="text-body">3</text>
      <g transform="translate(60, 155)">
        <rect x="0" y="0" width="50" height="24" rx="12" class="badge-error"/>
        <text x="10" y="16" class="badge-error-text">DROP</text>
      </g>
      <text x="150" y="170" class="text-body">ICMP</text>
      <text x="260" y="170" class="text-body">0.0.0.0/0</text>
      <text x="420" y="170" class="text-muted">—</text>
      <g transform="translate(520, 155)">
        <rect x="0" y="0" width="50" height="24" rx="12" class="badge-success"/>
        <text x="10" y="16" class="badge-success-text">Actif</text>
      </g>
      <text x="650" y="170" class="text-muted">✏️</text>
      <text x="690" y="170" fill="#991B1B" font-family="Source Sans Pro" font-size="14">🗑️</text>
      
      <!-- Default rule info -->
      <text x="0" y="230" class="text-muted" font-size="12">Règle par défaut : Tout le trafic non autorisé est bloqué (DROP)</text>
    </g>
    
    <!-- Footer -->
    <line x1="0" y1="580" x2="800" y2="580" stroke="#E5E7EB"/>
    <g transform="translate(30, 600)">
      <rect x="0" y="0" width="100" height="36" rx="4" class="btn-outline"/>
      <text x="25" y="23" class="text-body">Fermer</text>
      
      <rect x="590" y="0" width="150" height="36" rx="4" class="btn-primary"/>
      <text x="605" y="23" class="text-white" font-size="14">Appliquer les règles</text>
    </g>
  </g>
</svg>
