<svg xmlns="http://www.w3.org/2000/svg" viewBox="0 0 1440 1400" width="1440" height="1400">
  <defs>
    <style>
      .bg-header { fill: #000E9C; }
      .bg-muted { fill: #F9FAFB; }
      .bg-white { fill: #FFFFFF; }
      .bg-primary { fill: #0050D7; }
      .bg-primary-light { fill: #E8F0FE; }
      .bg-tab-active { fill: #FFFFFF; }
      .bg-tab-inactive { fill: #F3F4F6; }
      .text-heading { font-family: 'Source Sans Pro', sans-serif; font-size: 24px; font-weight: 600; fill: #1F2937; }
      .text-subheading { font-family: 'Source Sans Pro', sans-serif; font-size: 18px; font-weight: 600; fill: #0050D7; }
      .text-body { font-family: 'Source Sans Pro', sans-serif; font-size: 14px; fill: #1F2937; }
      .text-muted { font-family: 'Source Sans Pro', sans-serif; font-size: 14px; fill: #6B7280; }
      .text-white { font-family: 'Source Sans Pro', sans-serif; font-size: 14px; fill: #FFFFFF; }
      .text-link { font-family: 'Source Sans Pro', sans-serif; font-size: 14px; fill: #0050D7; }
      .border { stroke: #E5E7EB; stroke-width: 1; fill: none; }
      .border-primary { stroke: #0050D7; stroke-width: 2; fill: none; }
      .shadow { filter: drop-shadow(0 1px 3px rgba(0,0,0,0.1)); }
      .badge-released { fill: #DEF7EC; }
      .badge-released-text { font-family: 'Source Sans Pro', sans-serif; font-size: 11px; fill: #03543F; }
      .badge-beta { fill: #FEF3C7; }
      .badge-beta-text { font-family: 'Source Sans Pro', sans-serif; font-size: 11px; fill: #92400E; }
    </style>
  </defs>
  <rect width="1440" height="1400" class="bg-muted"/>
  <g id="header">
    <rect width="1440" height="60" class="bg-header"/>
    <text x="80" y="38" class="text-white" font-size="18" font-weight="700">OVHcloud</text>
    <text x="1200" y="38" class="text-white">Mon compte</text>
  </g>
  <g id="content" transform="translate(40, 100)">
    <g id="breadcrumb">
      <text x="0" y="0" class="text-link">Accueil</text>
      <text x="60" y="0" class="text-muted">/</text>
      <text x="80" y="0" class="text-muted">Roadmap et Changelog</text>
    </g>
    <text x="0" y="50" class="text-heading">Roadmap et Changelog</text>
    <g id="section-changelog" transform="translate(0, 90)">
      <text x="0" y="0" class="text-subheading">Consultez notre Changelog</text>
      <text x="0" y="30" class="text-body">OVHcloud publie un Changelog qui liste toutes les nouvelles fonctionnalites,</text>
      <text x="0" y="50" class="text-body">ameliorations et localisations rendues disponibles pour chacun de nos produits.</text>
    </g>
    <g id="datagrid-changelog" transform="translate(0, 180)">
      <g id="tabs">
        <rect x="0" y="0" width="200" height="40" rx="4" class="bg-tab-active"/>
        <rect x="0" y="0" width="200" height="40" rx="4" class="border-primary"/>
        <text x="30" y="26" class="text-link" font-weight="600">Changelog Cloud</text>
        <rect x="210" y="0" width="280" height="40" rx="4" class="bg-tab-inactive"/>
        <text x="230" y="26" class="text-muted">Hosting, Telco et Collaboration</text>
      </g>
      <g id="table" transform="translate(0, 50)">
        <rect x="0" y="0" width="1360" height="300" rx="8" class="bg-white shadow"/>
        <rect x="0" y="0" width="1360" height="300" rx="8" class="border"/>
        <rect x="0" y="0" width="1360" height="44" rx="8" fill="#F3F4F6"/>
        <text x="24" y="28" class="text-body" font-weight="600">Produit</text>
        <text x="250" y="28" class="text-body" font-weight="600">Changelog</text>
        <text x="800" y="28" class="text-body" font-weight="600">Date de release</text>
        <text x="1000" y="28" class="text-body" font-weight="600">Status</text>
        <text x="1200" y="28" class="text-body" font-weight="600">Lien</text>
        <g id="row1" transform="translate(0, 52)">
          <text x="24" y="24" class="text-body">Public Cloud</text>
          <text x="250" y="24" class="text-body">Nouvelle region WAW disponible</text>
          <text x="800" y="24" class="text-muted">20/12/2024</text>
          <rect x="1000" y="8" width="70" height="22" rx="4" class="badge-released"/>
          <text x="1012" y="24" class="badge-released-text">Released</text>
          <text x="1200" y="24" class="text-link">Voir</text>
        </g>
        <g id="row2" transform="translate(0, 96)">
          <text x="24" y="24" class="text-body">Kubernetes</text>
          <text x="250" y="24" class="text-body">Support Kubernetes 1.29</text>
          <text x="800" y="24" class="text-muted">18/12/2024</text>
          <rect x="1000" y="8" width="70" height="22" rx="4" class="badge-released"/>
          <text x="1012" y="24" class="badge-released-text">Released</text>
          <text x="1200" y="24" class="text-link">Voir</text>
        </g>
        <g id="row3" transform="translate(0, 140)">
          <text x="24" y="24" class="text-body">Databases</text>
          <text x="250" y="24" class="text-body">PostgreSQL 16 disponible</text>
          <text x="800" y="24" class="text-muted">15/12/2024</text>
          <rect x="1000" y="8" width="50" height="22" rx="4" class="badge-beta"/>
          <text x="1012" y="24" class="badge-beta-text">Beta</text>
          <text x="1200" y="24" class="text-link">Voir</text>
        </g>
        <g id="row4" transform="translate(0, 184)">
          <text x="24" y="24" class="text-body">Object Storage</text>
          <text x="250" y="24" class="text-body">S3 compatible API improvements</text>
          <text x="800" y="24" class="text-muted">12/12/2024</text>
          <rect x="1000" y="8" width="70" height="22" rx="4" class="badge-released"/>
          <text x="1012" y="24" class="badge-released-text">Released</text>
          <text x="1200" y="24" class="text-link">Voir</text>
        </g>
        <g id="row5" transform="translate(0, 228)">
          <text x="24" y="24" class="text-body">AI Notebooks</text>
          <text x="250" y="24" class="text-body">GPU H100 disponible</text>
          <text x="800" y="24" class="text-muted">10/12/2024</text>
          <rect x="1000" y="8" width="70" height="22" rx="4" class="badge-released"/>
          <text x="1012" y="24" class="badge-released-text">Released</text>
          <text x="1200" y="24" class="text-link">Voir</text>
        </g>
      </g>
    </g>
    <g id="section-roadmap" transform="translate(0, 560)">
      <text x="0" y="0" class="text-subheading">Consultez et participez a notre Roadmap</text>
      <text x="0" y="30" class="text-body">OVHcloud partage publiquement la feuille de route agile de chacun de ses produits.</text>
      <text x="0" y="50" class="text-body">Vous pouvez proposer de nouvelles fonctionnalites et voter pour celles qui existent.</text>
    </g>
    <g id="roadmap-tiles" transform="translate(0, 650)">
      <g id="tabs-roadmap">
        <rect x="0" y="0" width="160" height="40" rx="4" class="bg-tab-active"/>
        <rect x="0" y="0" width="160" height="40" rx="4" class="border-primary"/>
        <text x="24" y="26" class="text-link" font-weight="600">Roadmap Cloud</text>
        <rect x="170" y="0" width="280" height="40" rx="4" class="bg-tab-inactive"/>
        <text x="190" y="26" class="text-muted">Hosting, Telco et Collaboration</text>
      </g>
      <g id="tiles-grid" transform="translate(0, 60)">
        <g id="tile-roadmap">
          <rect x="0" y="0" width="320" height="140" rx="8" class="bg-white shadow"/>
          <rect x="0" y="0" width="320" height="140" rx="8" class="border"/>
          <text x="24" y="36" class="text-body" font-weight="600">Roadmap</text>
          <text x="24" y="70" class="text-link">Consulter la feuille de route</text>
          <text x="24" y="90" class="text-link">des produits Cloud</text>
          <text x="24" y="120" class="text-muted" font-size="12">github.com/ovh/public-cloud-roadmap</text>
        </g>
        <g id="tile-feature" transform="translate(340, 0)">
          <rect x="0" y="0" width="320" height="140" rx="8" class="bg-white shadow"/>
          <rect x="0" y="0" width="320" height="140" rx="8" class="border"/>
          <text x="24" y="36" class="text-body" font-weight="600">Feature Request</text>
          <text x="24" y="70" class="text-link">Demander une nouvelle</text>
          <text x="24" y="90" class="text-link">fonctionnalite Public Cloud</text>
          <text x="24" y="120" class="text-muted" font-size="12">github.com/ovh/public-cloud-roadmap/issues</text>
        </g>
        <g id="tile-infra" transform="translate(680, 0)">
          <rect x="0" y="0" width="320" height="140" rx="8" class="bg-white shadow"/>
          <rect x="0" y="0" width="320" height="140" rx="8" class="border"/>
          <text x="24" y="36" class="text-body" font-weight="600">Infrastructure</text>
          <text x="24" y="70" class="text-link">Demander une fonctionnalite</text>
          <text x="24" y="90" class="text-link">serveurs dedies, reseau</text>
          <text x="24" y="120" class="text-muted" font-size="12">Serveurs dedies, NAS-HA, EFS</text>
        </g>
      </g>
    </g>
    <g id="info-box" transform="translate(0, 900)">
      <rect x="0" y="0" width="660" height="280" rx="8" class="bg-primary-light"/>
      <text x="32" y="40" class="text-body" font-weight="600">Comment rediger une bonne feature request</text>
      <text x="32" y="80" class="text-body">1. Utilisez la roadmap uniquement pour les demandes de</text>
      <text x="32" y="100" class="text-body">   nouvelles fonctionnalites.</text>
      <text x="32" y="140" class="text-body">2. Si vous detectez un bug, utilisez le centre d aide.</text>
      <text x="32" y="180" class="text-body">3. Pour les problemes de securite, utilisez Bug Bounty.</text>
      <text x="32" y="220" class="text-body">4. Consultez les issues existantes avant de creer.</text>
      <text x="32" y="260" class="text-link">En savoir plus -></text>
    </g>
  </g>
</svg>
