<?xml version="1.0" encoding="UTF-8"?>
<svg width="1100" height="550" viewBox="0 0 1100 550" fill="none" xmlns="http://www.w3.org/2000/svg">
  <title>Network - IP Blocks</title>
  <rect width="1100" height="550" fill="#F9FAFB"/>
  <g transform="translate(30, 30)"><text x="0" y="0" fill="#1F2937" font-family="system-ui, sans-serif" font-size="22" font-weight="600">Blocs IP</text><text x="0" y="30" fill="#6B7280" font-family="system-ui, sans-serif" font-size="13">Plages d'adresses IP allouées à vos services.</text></g>
  <g transform="translate(30, 90)"><rect x="0" y="0" width="160" height="40" rx="4" fill="#0050D7"/><text x="25" y="26" fill="white" font-family="system-ui, sans-serif" font-size="13">+ Commander bloc</text></g>
  <g transform="translate(30, 160)">
    <rect x="0" y="0" width="1040" height="350" rx="8" fill="white" stroke="#E5E7EB"/>
    <g transform="translate(0, 0)"><rect x="0" y="0" width="1040" height="45" rx="8" fill="#F9FAFB"/><text x="20" y="28" fill="#6B7280" font-family="system-ui, sans-serif" font-size="12" font-weight="500">Bloc</text><text x="200" y="28" fill="#6B7280" font-family="system-ui, sans-serif" font-size="12" font-weight="500">Type</text><text x="320" y="28" fill="#6B7280" font-family="system-ui, sans-serif" font-size="12" font-weight="500">Taille</text><text x="440" y="28" fill="#6B7280" font-family="system-ui, sans-serif" font-size="12" font-weight="500">Utilisées</text><text x="560" y="28" fill="#6B7280" font-family="system-ui, sans-serif" font-size="12" font-weight="500">Service</text><text x="760" y="28" fill="#6B7280" font-family="system-ui, sans-serif" font-size="12" font-weight="500">Région</text><text x="900" y="28" fill="#6B7280" font-family="system-ui, sans-serif" font-size="12" font-weight="500">Actions</text></g>
    <g transform="translate(0, 50)"><line x1="0" y1="0" x2="1040" y2="0" stroke="#E5E7EB"/><text x="20" y="35" fill="#1F2937" font-family="system-ui, sans-serif" font-size="13" font-weight="500">141.94.100.0/28</text><g transform="translate(200, 18)"><rect x="0" y="0" width="60" height="22" rx="4" fill="#DBEAFE"/><text x="15" y="15" fill="#1E40AF" font-family="system-ui, sans-serif" font-size="10">IPv4</text></g><text x="320" y="35" fill="#1F2937" font-family="system-ui, sans-serif" font-size="13">/28 (16 IPs)</text><text x="440" y="35" fill="#1F2937" font-family="system-ui, sans-serif" font-size="13">12/16</text><text x="560" y="35" fill="#1F2937" font-family="system-ui, sans-serif" font-size="13">Dedicated Server</text><text x="760" y="35" fill="#1F2937" font-family="system-ui, sans-serif" font-size="13">GRA7</text><g transform="translate(900, 12)"><rect x="0" y="0" width="30" height="30" rx="4" fill="#F9FAFB" stroke="#E5E7EB"/><text x="11" y="22" fill="#6B7280" font-family="system-ui, sans-serif" font-size="14">⋮</text></g></g>
    <g transform="translate(0, 110)"><line x1="0" y1="0" x2="1040" y2="0" stroke="#E5E7EB"/><text x="20" y="35" fill="#1F2937" font-family="system-ui, sans-serif" font-size="13" font-weight="500">51.210.45.0/24</text><g transform="translate(200, 18)"><rect x="0" y="0" width="60" height="22" rx="4" fill="#DBEAFE"/><text x="15" y="15" fill="#1E40AF" font-family="system-ui, sans-serif" font-size="10">IPv4</text></g><text x="320" y="35" fill="#1F2937" font-family="system-ui, sans-serif" font-size="13">/24 (256 IPs)</text><text x="440" y="35" fill="#1F2937" font-family="system-ui, sans-serif" font-size="13">45/256</text><text x="560" y="35" fill="#1F2937" font-family="system-ui, sans-serif" font-size="13">Public Cloud</text><text x="760" y="35" fill="#1F2937" font-family="system-ui, sans-serif" font-size="13">SBG5</text><g transform="translate(900, 12)"><rect x="0" y="0" width="30" height="30" rx="4" fill="#F9FAFB" stroke="#E5E7EB"/><text x="11" y="22" fill="#6B7280" font-family="system-ui, sans-serif" font-size="14">⋮</text></g></g>
    <g transform="translate(0, 170)"><line x1="0" y1="0" x2="1040" y2="0" stroke="#E5E7EB"/><text x="20" y="35" fill="#1F2937" font-family="system-ui, sans-serif" font-size="13" font-weight="500">2001:41d0::/48</text><g transform="translate(200, 18)"><rect x="0" y="0" width="60" height="22" rx="4" fill="#DCFCE7"/><text x="15" y="15" fill="#16A34A" font-family="system-ui, sans-serif" font-size="10">IPv6</text></g><text x="320" y="35" fill="#1F2937" font-family="system-ui, sans-serif" font-size="13">/48</text><text x="440" y="35" fill="#1F2937" font-family="system-ui, sans-serif" font-size="13">8 subnets</text><text x="560" y="35" fill="#1F2937" font-family="system-ui, sans-serif" font-size="13">Dedicated Server</text><text x="760" y="35" fill="#1F2937" font-family="system-ui, sans-serif" font-size="13">GRA7</text><g transform="translate(900, 12)"><rect x="0" y="0" width="30" height="30" rx="4" fill="#F9FAFB" stroke="#E5E7EB"/><text x="11" y="22" fill="#6B7280" font-family="system-ui, sans-serif" font-size="14">⋮</text></g></g>
    <g transform="translate(0, 230)"><line x1="0" y1="0" x2="1040" y2="0" stroke="#E5E7EB"/><text x="20" y="35" fill="#1F2937" font-family="system-ui, sans-serif" font-size="13" font-weight="500">192.168.0.0/16</text><g transform="translate(200, 18)"><rect x="0" y="0" width="60" height="22" rx="4" fill="#FEF3C7"/><text x="10" y="15" fill="#92400E" font-family="system-ui, sans-serif" font-size="10">Private</text></g><text x="320" y="35" fill="#1F2937" font-family="system-ui, sans-serif" font-size="13">/16 (65K IPs)</text><text x="440" y="35" fill="#1F2937" font-family="system-ui, sans-serif" font-size="13">128 used</text><text x="560" y="35" fill="#1F2937" font-family="system-ui, sans-serif" font-size="13">vRack</text><text x="760" y="35" fill="#1F2937" font-family="system-ui, sans-serif" font-size="13">Multi-DC</text><g transform="translate(900, 12)"><rect x="0" y="0" width="30" height="30" rx="4" fill="#F9FAFB" stroke="#E5E7EB"/><text x="11" y="22" fill="#6B7280" font-family="system-ui, sans-serif" font-size="14">⋮</text></g></g>
  </g>
</svg>
