<svg xmlns="http://www.w3.org/2000/svg" viewBox="0 0 1440 900" width="1440" height="900">
  <defs>
    <style>
      .bg-header { fill: #000E9C; }
      .bg-main { fill: #F6F6F9; }
      .bg-white { fill: #FFFFFF; }
      .bg-primary { fill: #0050D7; }
      .bg-info { fill: #DBEAFE; }
      .bg-success { fill: #DEF7EC; }
      .border { stroke: #E5E7EB; stroke-width: 1; fill: none; }
      .btn-outline { stroke: #0050D7; stroke-width: 1; fill: #FFFFFF; }
      .btn-primary { fill: #0050D7; }
      .row-selected { fill: #E8F0FE; }
      .text-white { fill: #FFFFFF; font-family: 'Source Sans Pro', sans-serif; }
      .text-dark { fill: #1F2937; font-family: 'Source Sans Pro', sans-serif; }
      .text-muted { fill: #6B7280; font-family: 'Source Sans Pro', sans-serif; }
      .text-primary { fill: #0050D7; font-family: 'Source Sans Pro', sans-serif; }
    </style>
  </defs>

  <!-- Background -->
  <rect width="1440" height="900" class="bg-main"/>

  <!-- NAV1 - Header OVH -->
  <rect width="1440" height="50" class="bg-header"/>
  <text x="40" y="32" class="text-white" font-size="14" opacity="0.7">Accueil</text>
  <text x="110" y="32" class="text-white" font-size="14" opacity="0.7">Public Cloud</text>
  <text x="210" y="32" class="text-white" font-size="14" opacity="0.7">Hosted Private Cloud</text>
  <text x="370" y="32" class="text-white" font-size="14" opacity="0.7">Bare Metal Cloud</text>
  <text x="510" y="32" class="text-white" font-size="14" font-weight="600">Web Cloud</text>
  <rect x="505" y="46" width="75" height="3" fill="#FFFFFF"/>
  <text x="620" y="32" class="text-white" font-size="14" opacity="0.7">Network</text>
  <rect x="1280" y="12" width="140" height="26" rx="13" fill="rgba(255,255,255,0.2)"/>
  <text x="1320" y="29" class="text-white" font-size="12">ab12345-ovh</text>

  <!-- NAV2 - Domaines et DNS actif -->
  <rect x="0" y="50" width="1440" height="40" class="bg-white"/>
  <line x1="0" y1="89" x2="1440" y2="89" stroke="#E5E7EB"/>
  <text x="40" y="75" class="text-muted" font-size="14">Accueil</text>
  <text x="110" y="75" class="text-primary" font-size="14" font-weight="600">Domaines et DNS</text>
  <rect x="105" y="85" width="110" height="3" fill="#0050D7"/>
  <text x="240" y="75" class="text-muted" font-size="14">Hebergement</text>
  <text x="345" y="75" class="text-muted" font-size="14">Wordpress</text>
  <text x="430" y="75" class="text-muted" font-size="14">Emails</text>
  <text x="500" y="75" class="text-muted" font-size="14">VoIP</text>
  <text x="1350" y="75" class="text-primary" font-size="13">Guides</text>

  <!-- CONTENT AREA -->
  <g transform="translate(0, 105)">
    <!-- LEFT PANEL -->
    <g transform="translate(24, 0)">
      <rect x="0" y="0" width="280" height="765" rx="8" class="bg-white"/>
      <rect x="0" y="0" width="280" height="765" rx="8" class="border"/>

      <rect x="12" y="12" width="256" height="34" rx="4" fill="#F9FAFB" stroke="#E5E7EB"/>
      <text x="40" y="34" class="text-muted" font-size="12">Rechercher...</text>
      <text x="24" y="34" class="text-muted" font-size="14">🔍</text>

      <text x="12" y="68" class="text-muted" font-size="11">Filtrer</text>
      <text x="268" y="68" class="text-muted" font-size="11" text-anchor="end">3 services</text>

      <rect x="6" y="80" width="268" height="64" rx="6" class="row-selected"/>
      <text x="28" y="104" font-size="16">🌐</text>
      <text x="52" y="100" class="text-dark" font-size="13" font-weight="500">example.com</text>
      <text x="52" y="116" class="text-muted" font-size="10">Domaine + Zone</text>
      <rect x="210" y="96" width="46" height="18" rx="9" fill="#DEF7EC"/>
      <text x="233" y="109" fill="#03543F" font-size="10" text-anchor="middle">Actif</text>
    </g>

    <!-- RIGHT PANEL -->
    <g transform="translate(320, 0)">
      <rect x="0" y="0" width="1096" height="765" rx="8" class="bg-white"/>
      <rect x="0" y="0" width="1096" height="765" rx="8" class="border"/>

      <g transform="translate(20, 0)">
        <!-- Header -->
        <text x="0" y="24" class="text-dark" font-size="18" font-weight="600">example.com</text>

        <!-- NAV3 TABS -->
        <g transform="translate(0, 38)">
          <rect x="0" y="0" width="100" height="26" rx="4" class="btn-outline"/>
          <text x="50" y="17" class="text-primary" font-size="11" text-anchor="middle">Infos generales</text>

          <rect x="104" y="0" width="70" height="26" rx="4" class="btn-outline"/>
          <text x="139" y="17" class="text-primary" font-size="11" text-anchor="middle">Zone DNS</text>

          <rect x="178" y="0" width="90" height="26" rx="4" class="btn-outline"/>
          <text x="223" y="17" class="text-primary" font-size="11" text-anchor="middle">Serveurs DNS</text>

          <rect x="272" y="0" width="85" height="26" rx="4" class="btn-outline"/>
          <text x="314" y="17" class="text-primary" font-size="11" text-anchor="middle">Redirections</text>

          <rect x="361" y="0" width="60" height="26" rx="4" class="btn-outline"/>
          <text x="391" y="17" class="text-primary" font-size="11" text-anchor="middle">DynHost</text>

          <rect x="425" y="0" width="45" height="26" rx="4" class="btn-outline"/>
          <text x="447" y="17" class="text-primary" font-size="11" text-anchor="middle">GLUE</text>

          <rect x="474" y="0" width="55" height="26" rx="4" class="btn-outline"/>
          <text x="501" y="17" class="text-primary" font-size="11" text-anchor="middle">DNSSEC</text>

          <rect x="533" y="0" width="65" height="26" rx="4" class="btn-primary"/>
          <text x="565" y="17" class="text-white" font-size="11" text-anchor="middle">Contacts</text>

          <rect x="602" y="0" width="55" height="26" rx="4" class="btn-outline"/>
          <text x="629" y="17" class="text-primary" font-size="11" text-anchor="middle">Taches</text>

          <rect x="661" y="0" width="55" height="26" rx="4" class="btn-outline"/>
          <text x="688" y="17" class="text-primary" font-size="11" text-anchor="middle">Alldom</text>
        </g>

        <!-- Content -->
        <g transform="translate(0, 90)">
          <!-- Description -->
          <text x="0" y="20" class="text-dark" font-size="14" font-weight="600">Gestion des contacts</text>
          <text x="0" y="45" class="text-muted" font-size="12">Consultez et modifiez les contacts associes a votre nom de domaine.</text>

          <!-- Reassign button -->
          <rect x="0" y="60" width="180" height="32" rx="4" class="btn-outline"/>
          <text x="90" y="81" class="text-primary" font-size="11" text-anchor="middle">Reattribuer les contacts</text>

          <!-- Contact Cards Grid -->
          <g transform="translate(0, 110)">
            <!-- Proprietaire -->
            <rect x="0" y="0" width="250" height="180" rx="8" fill="#FFFFFF" stroke="#E5E7EB"/>
            <text x="20" y="25" class="text-dark" font-size="13" font-weight="600">Proprietaire</text>
            <text x="20" y="50" class="text-dark" font-size="12" font-weight="500">John DOE</text>
            <text x="20" y="70" class="text-muted" font-size="11">john.doe@email.com</text>
            <text x="20" y="90" class="text-muted" font-size="11">+33 6 12 34 56 78</text>
            <text x="20" y="120" class="text-muted" font-size="10">Le proprietaire est le titulaire legal</text>
            <text x="20" y="135" class="text-muted" font-size="10">du nom de domaine.</text>
            <text x="20" y="165" class="text-primary" font-size="11">Modifier</text>

            <!-- Administrateur -->
            <rect x="265" y="0" width="250" height="180" rx="8" fill="#FFFFFF" stroke="#E5E7EB"/>
            <text x="285" y="25" class="text-dark" font-size="13" font-weight="600">Administrateur</text>
            <text x="285" y="50" class="text-dark" font-size="12" font-weight="500">ab12345-ovh</text>
            <text x="285" y="70" class="text-muted" font-size="11">John DOE</text>
            <text x="285" y="90" class="text-muted" font-size="11">admin@email.com</text>
            <text x="285" y="120" class="text-muted" font-size="10">L'administrateur gere les aspects</text>
            <text x="285" y="135" class="text-muted" font-size="10">techniques et administratifs.</text>
            <text x="285" y="165" class="text-primary" font-size="11">Modifier</text>

            <!-- Technique -->
            <rect x="530" y="0" width="250" height="180" rx="8" fill="#FFFFFF" stroke="#E5E7EB"/>
            <text x="550" y="25" class="text-dark" font-size="13" font-weight="600">Technique</text>
            <text x="550" y="50" class="text-dark" font-size="12" font-weight="500">ab12345-ovh</text>
            <text x="550" y="70" class="text-muted" font-size="11">John DOE</text>
            <text x="550" y="90" class="text-muted" font-size="11">tech@email.com</text>
            <text x="550" y="120" class="text-muted" font-size="10">Le contact technique gere la</text>
            <text x="550" y="135" class="text-muted" font-size="10">configuration DNS et serveurs.</text>
            <text x="550" y="165" class="text-primary" font-size="11">Modifier</text>

            <!-- Facturation -->
            <rect x="795" y="0" width="250" height="180" rx="8" fill="#FFFFFF" stroke="#E5E7EB"/>
            <text x="815" y="25" class="text-dark" font-size="13" font-weight="600">Facturation</text>
            <text x="815" y="50" class="text-dark" font-size="12" font-weight="500">ab12345-ovh</text>
            <text x="815" y="70" class="text-muted" font-size="11">John DOE</text>
            <text x="815" y="90" class="text-muted" font-size="11">billing@email.com</text>
            <text x="815" y="120" class="text-muted" font-size="10">Le contact de facturation recoit</text>
            <text x="815" y="135" class="text-muted" font-size="10">les factures et gere les paiements.</text>
            <text x="815" y="165" class="text-primary" font-size="11">Modifier</text>
          </g>

          <!-- WHOIS section -->
          <g transform="translate(0, 310)">
            <text x="0" y="20" class="text-dark" font-size="14" font-weight="600">Configuration WHOIS / OWO</text>
            <text x="0" y="45" class="text-muted" font-size="12">Gerez la visibilite de vos informations personnelles dans le WHOIS.</text>

            <rect x="0" y="60" width="140" height="32" rx="4" class="btn-outline"/>
            <text x="70" y="81" class="text-primary" font-size="11" text-anchor="middle">Configurer OWO</text>
          </g>
        </g>
      </g>
    </g>
  </g>
</svg>
