<svg xmlns="http://www.w3.org/2000/svg" viewBox="0 0 1440 900" width="1440" height="900">
  <defs><style>.bg-header{fill:#000E9C}.bg-main{fill:#F6F6F9}.bg-white{fill:#FFFFFF}.text-white{fill:#FFFFFF;font-family:sans-serif}.text-dark{fill:#1F2937;font-family:sans-serif}.text-muted{fill:#6B7280;font-family:sans-serif}.text-primary{fill:#0050D7;font-family:sans-serif}.border{stroke:#E5E7EB;stroke-width:1;fill:none}.table-header{fill:#F9FAFB}</style></defs>
  <rect width="1440" height="900" class="bg-main"/>
  <rect width="1440" height="50" class="bg-header"/>
  <text x="40" y="32" class="text-white" font-size="14">Accueil</text>
  <rect x="0" y="50" width="1440" height="40" class="bg-white"/>
  <text x="40" y="75" class="text-primary" font-size="14" font-weight="600">Mon compte</text>
  <g transform="translate(40,115)">
    <text y="0" class="text-dark" font-size="24" font-weight="600">Clés SSH</text>
  </g>
  <g transform="translate(40,160)">
    <rect width="150" height="36" rx="4" fill="#0050D7"/><text x="75" y="23" class="text-white" font-size="12" text-anchor="middle">+ Ajouter une clé</text>
  </g>
  <g transform="translate(40,220)">
    <rect width="1360" height="400" rx="8" class="bg-white"/><rect width="1360" height="400" rx="8" class="border"/>
    <rect x="0" y="0" width="1360" height="45" rx="8" class="table-header"/>
    <text x="20" y="28" class="text-dark" font-size="11" font-weight="600">Nom</text>
    <text x="250" y="28" class="text-dark" font-size="11" font-weight="600">Type</text>
    <text x="400" y="28" class="text-dark" font-size="11" font-weight="600">Empreinte</text>
    <text x="800" y="28" class="text-dark" font-size="11" font-weight="600">Ajoutée le</text>
    <text x="1000" y="28" class="text-dark" font-size="11" font-weight="600">Actions</text>
    <line x1="0" y1="45" x2="1360" y2="45" stroke="#E5E7EB"/>
    <text x="20" y="80" class="text-dark" font-size="12">Ma clé principale</text>
    <text x="250" y="80" class="text-dark" font-size="12">RSA 4096</text>
    <text x="400" y="80" class="text-dark" font-size="11" font-family="monospace">SHA256:abc123def456...</text>
    <text x="800" y="80" class="text-dark" font-size="12">15/12/2025</text>
    <text x="1000" y="80" class="text-primary" font-size="12">Voir</text>
    <text x="1060" y="80" fill="#DC2626" font-size="12">Supprimer</text>
    <line x1="20" y1="100" x2="1340" y2="100" stroke="#E5E7EB"/>
    <text x="20" y="130" class="text-dark" font-size="12">Clé serveur prod</text>
    <text x="250" y="130" class="text-dark" font-size="12">ED25519</text>
    <text x="400" y="130" class="text-dark" font-size="11" font-family="monospace">SHA256:xyz789ghi012...</text>
    <text x="800" y="130" class="text-dark" font-size="12">10/11/2025</text>
    <text x="1000" y="130" class="text-primary" font-size="12">Voir</text>
    <text x="1060" y="130" fill="#DC2626" font-size="12">Supprimer</text>
  </g>
</svg>
