<svg xmlns="http://www.w3.org/2000/svg" viewBox="0 0 1440 850" width="1440" height="850">
  <defs><style>.bg-muted{fill:#F9FAFB}.bg-white{fill:#FFF}.bg-header{fill:#000E9C}.text-body{font-family:'Source Sans Pro',sans-serif;font-size:14px;fill:#1F2937}.text-muted{font-family:'Source Sans Pro',sans-serif;font-size:14px;fill:#6B7280}.text-link{font-family:'Source Sans Pro',sans-serif;font-size:14px;fill:#0050D7}.text-white{font-family:'Source Sans Pro',sans-serif;fill:#FFF}.text-title{font-family:'Source Sans Pro',sans-serif;font-size:24px;font-weight:600;fill:#1F2937}.text-th{font-family:'Source Sans Pro',sans-serif;font-size:13px;font-weight:600;fill:#374151}.text-td{font-family:'Source Sans Pro',sans-serif;font-size:13px;fill:#1F2937}</style></defs>
  <rect width="1440" height="850" class="bg-muted"/>
  <g id="header"><rect width="1440" height="60" class="bg-header"/><text x="20" y="38" class="text-white" font-size="20" font-weight="bold">OVHcloud</text><text x="1350" y="38" class="text-white" font-size="14">ab12345-ovh</text></g>
  <g id="sidebar" transform="translate(0,60)"><rect width="240" height="790" class="bg-white"/><line x1="240" y1="0" x2="240" y2="790" stroke="#E5E7EB"/><g transform="translate(0,20)"><rect x="0" y="0" width="240" height="40" fill="#E8F0FE"/><rect x="0" y="0" width="4" height="40" fill="#0050D7"/><text x="50" y="26" class="text-body" fill="#0050D7" font-weight="500">Mon compte</text></g></g>
  <g id="content" transform="translate(240,60)">
    <g transform="translate(40,20)"><text class="text-link" font-size="13">Accueil</text><text class="text-muted" font-size="13" x="55">›</text><text class="text-link" font-size="13" x="70">Mon compte</text><text class="text-muted" font-size="13" x="155">›</text><text class="text-body" font-size="13" x="170">Emails reçus</text></g>
    <g transform="translate(40,50)"><text class="text-title">Historique de vos emails</text><text class="text-muted" y="35">Retrouvez ici l'ensemble des emails qu'OVH vous a envoyé, exceptées les demandes d'assistance.</text></g>
    <g transform="translate(40,130)">
      <g transform="translate(900,0)"><rect x="0" y="0" width="220" height="36" rx="4" fill="#FFF" stroke="#E5E7EB"/><text x="15" y="23" class="text-muted" font-size="13">🔍 Rechercher...</text></g>
      <rect x="1140" y="0" width="36" height="36" rx="4" fill="#FFF" stroke="#E5E7EB"/><text x="1150" y="24" class="text-muted">↻</text>
    </g>
    <g transform="translate(40,185)">
      <rect x="0" y="0" width="1160" height="44" fill="#F3F4F6"/><line x1="0" y1="44" x2="1160" y2="44" stroke="#E5E7EB"/>
      <text x="20" y="28" class="text-th">Date</text>
      <text x="200" y="28" class="text-th">Sujet</text>
      <text x="1100" y="28" class="text-th">Actions</text>
      <g transform="translate(0,44)"><rect x="0" y="0" width="1160" height="50" fill="#FFF"/><line x1="0" y1="50" x2="1160" y2="50" stroke="#E5E7EB"/><text x="20" y="32" class="text-td">16/12/2024 10:30</text><text x="200" y="32" class="text-td text-link">Confirmation de paiement - Facture FR12345678</text><text x="1115" y="32" class="text-muted" font-size="18">⋮</text></g>
      <g transform="translate(0,94)"><rect x="0" y="0" width="1160" height="50" fill="#FFF"/><line x1="0" y1="50" x2="1160" y2="50" stroke="#E5E7EB"/><text x="20" y="32" class="text-td">15/12/2024 14:22</text><text x="200" y="32" class="text-td text-link">Votre facture FR12345678 est disponible</text><text x="1115" y="32" class="text-muted" font-size="18">⋮</text></g>
      <g transform="translate(0,144)"><rect x="0" y="0" width="1160" height="50" fill="#FFF"/><line x1="0" y1="50" x2="1160" y2="50" stroke="#E5E7EB"/><text x="20" y="32" class="text-td">10/12/2024 09:15</text><text x="200" y="32" class="text-td text-link">Renouvellement automatique de votre service domain.com</text><text x="1115" y="32" class="text-muted" font-size="18">⋮</text></g>
      <g transform="translate(0,194)"><rect x="0" y="0" width="1160" height="50" fill="#FFF"/><line x1="0" y1="50" x2="1160" y2="50" stroke="#E5E7EB"/><text x="20" y="32" class="text-td">05/12/2024 16:45</text><text x="200" y="32" class="text-td text-link">Notification de connexion depuis un nouvel appareil</text><text x="1115" y="32" class="text-muted" font-size="18">⋮</text></g>
      <g transform="translate(0,244)"><rect x="0" y="0" width="1160" height="50" fill="#FFF"/><line x1="0" y1="50" x2="1160" y2="50" stroke="#E5E7EB"/><text x="20" y="32" class="text-td">01/12/2024 11:00</text><text x="200" y="32" class="text-td text-link">Confirmation de paiement - Facture FR12345677</text><text x="1115" y="32" class="text-muted" font-size="18">⋮</text></g>
      <g transform="translate(0,310)"><text x="0" y="20" class="text-muted" font-size="13">Affichage 1-5 sur 89 résultats</text><g transform="translate(1000,0)"><rect x="0" y="0" width="32" height="32" rx="4" fill="#FFF" stroke="#E5E7EB"/><text x="11" y="22" class="text-muted" font-size="14">‹</text><rect x="40" y="0" width="32" height="32" rx="4" fill="#0050D7"/><text x="52" y="22" fill="#FFF" font-size="14">1</text><rect x="80" y="0" width="32" height="32" rx="4" fill="#FFF" stroke="#E5E7EB"/><text x="92" y="22" class="text-body" font-size="14">2</text><rect x="120" y="0" width="32" height="32" rx="4" fill="#FFF" stroke="#E5E7EB"/><text x="131" y="22" class="text-muted" font-size="14">›</text></g></g>
    </g>
  </g>
</svg>
