<svg xmlns="http://www.w3.org/2000/svg" viewBox="0 0 1440 900" width="1440" height="900">
  <defs>
    <style>
      .bg-header { fill: #000E9C; }
      .bg-main { fill: #F6F6F9; }
      .bg-white { fill: #FFFFFF; }
      .bg-primary { fill: #0050D7; }
      .border { stroke: #E5E7EB; stroke-width: 1; fill: none; }
      .btn-outline { stroke: #0050D7; stroke-width: 1; fill: #FFFFFF; }
      .btn-primary { fill: #0050D7; }
      .row-selected { fill: #E8F0FE; }
      .table-header { fill: #F9FAFB; }
      .text-white { fill: #FFFFFF; font-family: 'Source Sans Pro', sans-serif; }
      .text-dark { fill: #1F2937; font-family: 'Source Sans Pro', sans-serif; }
      .text-muted { fill: #6B7280; font-family: 'Source Sans Pro', sans-serif; }
      .text-primary { fill: #0050D7; font-family: 'Source Sans Pro', sans-serif; }
      .text-success { fill: #059669; font-family: 'Source Sans Pro', sans-serif; }
      .text-error { fill: #DC2626; font-family: 'Source Sans Pro', sans-serif; }
    </style>
  </defs>

  <rect width="1440" height="900" class="bg-main"/>

  <!-- NAV1 -->
  <rect width="1440" height="50" class="bg-header"/>
  <text x="40" y="32" class="text-white" font-size="14" opacity="0.7">Accueil</text>
  <text x="110" y="32" class="text-white" font-size="14" opacity="0.7">Public Cloud</text>
  <text x="210" y="32" class="text-white" font-size="14" opacity="0.7">Hosted Private Cloud</text>
  <text x="370" y="32" class="text-white" font-size="14" opacity="0.7">Bare Metal Cloud</text>
  <text x="510" y="32" class="text-white" font-size="14" font-weight="600">Web Cloud</text>
  <rect x="505" y="46" width="75" height="3" fill="#FFFFFF"/>
  <text x="620" y="32" class="text-white" font-size="14" opacity="0.7">Network</text>
  <text x="700" y="32" class="text-white" font-size="14" opacity="0.7">IAM / Securite</text>
  <text x="810" y="32" class="text-white" font-size="14" opacity="0.7">Licences</text>
  <rect x="1280" y="12" width="140" height="26" rx="13" fill="rgba(255,255,255,0.2)"/>
  <text x="1320" y="29" class="text-white" font-size="12">ab12345-ovh</text>

  <!-- NAV2 -->
  <rect x="0" y="50" width="1440" height="40" class="bg-white"/>
  <line x1="0" y1="89" x2="1440" y2="89" stroke="#E5E7EB"/>
  <text x="40" y="75" class="text-muted" font-size="14">Accueil</text>
  <text x="110" y="75" class="text-muted" font-size="14">Domaines et DNS</text>
  <text x="240" y="75" class="text-muted" font-size="14">Hebergement</text>
  <text x="345" y="75" class="text-muted" font-size="14">Wordpress</text>
  <text x="430" y="75" class="text-primary" font-size="14" font-weight="600">Emails</text>
  <rect x="425" y="85" width="50" height="3" fill="#0050D7"/>
  <text x="500" y="75" class="text-muted" font-size="14">VoIP</text>
  <text x="550" y="75" class="text-muted" font-size="14">Acces</text>
  <text x="1350" y="75" class="text-primary" font-size="13">Guides</text>

  <!-- CONTENT -->
  <g transform="translate(0, 105)">
    <g transform="translate(24, 0)">
      <!-- LEFT PANEL - Vue licence -->
      <rect x="0" y="0" width="280" height="765" rx="8" class="bg-white"/>
      <rect x="0" y="0" width="280" height="765" rx="8" class="border"/>
      <g transform="translate(12, 12)">
        <rect x="0" y="0" width="256" height="32" rx="6" fill="#F3F4F6"/>
        <text x="64" y="21" class="text-muted" font-size="11" text-anchor="middle">Par domaine</text>
        <rect x="129" y="2" width="125" height="28" rx="5" fill="#FFFFFF"/>
        <text x="191" y="21" class="text-dark" font-size="11" text-anchor="middle" font-weight="500">Par licence</text>
      </g>

      <!-- Section PACKS -->
      <text x="12" y="70" class="text-muted" font-size="10" font-weight="600">PACKS</text>
      <g transform="translate(6, 80)">
        <rect x="0" y="0" width="268" height="55" rx="6" fill="#F9FAFB"/>
        <text x="12" y="22" class="text-dark" font-size="12" font-weight="500">Exchange Business 10</text>
        <rect x="12" y="32" width="150" height="6" rx="3" fill="#E5E7EB"/>
        <rect x="12" y="32" width="105" height="6" rx="3" fill="#0050D7"/>
        <text x="170" y="40" class="text-muted" font-size="9">7/10</text>
      </g>

      <!-- Section A LA CARTE -->
      <text x="12" y="165" class="text-muted" font-size="10" font-weight="600">A LA CARTE</text>
      <g transform="translate(6, 175)">
        <rect x="0" y="0" width="268" height="45" rx="6" fill="#F9FAFB"/>
        <text x="12" y="28" class="text-dark" font-size="12">3 licences individuelles</text>
      </g>

      <!-- Boutons -->
      <g transform="translate(12, 680)">
        <rect x="0" y="0" width="256" height="32" rx="4" class="btn-primary"/>
        <text x="128" y="21" class="text-white" font-size="11" text-anchor="middle">+ Commander pack</text>
        <rect x="0" y="40" width="256" height="32" rx="4" class="btn-outline"/>
        <text x="128" y="61" class="text-primary" font-size="11" text-anchor="middle">+ Ajouter licence</text>
      </g>
    </g>

    <!-- RIGHT PANEL -->
    <g transform="translate(320, 0)">
      <rect x="0" y="0" width="1096" height="765" rx="8" class="bg-white"/>
      <rect x="0" y="0" width="1096" height="765" rx="8" class="border"/>

      <g transform="translate(20, 0)">
        <text x="0" y="28" class="text-dark" font-size="18" font-weight="600">Historique des licences</text>
        <text x="0" y="48" class="text-muted" font-size="12">Commandes, modifications et resiliations</text>

        <!-- NAV3 - Licences actif -->
        <g transform="translate(0, 60)">
          <rect x="0" y="0" width="85" height="26" rx="4" class="btn-outline"/>
          <text x="42" y="17" class="text-primary" font-size="11" text-anchor="middle">Boites mail</text>
          <rect x="89" y="0" width="90" height="26" rx="4" class="btn-outline"/>
          <text x="134" y="17" class="text-primary" font-size="11" text-anchor="middle">Redirections</text>
          <rect x="183" y="0" width="80" height="26" rx="4" class="btn-outline"/>
          <text x="223" y="17" class="text-primary" font-size="11" text-anchor="middle">Repondeurs</text>
          <rect x="267" y="0" width="50" height="26" rx="4" class="btn-outline"/>
          <text x="292" y="17" class="text-primary" font-size="11" text-anchor="middle">Listes</text>
          <rect x="321" y="0" width="65" height="26" rx="4" class="btn-outline"/>
          <text x="353" y="17" class="text-primary" font-size="11" text-anchor="middle">Securite</text>
          <rect x="390" y="0" width="55" height="26" rx="4" class="btn-outline"/>
          <text x="417" y="17" class="text-primary" font-size="11" text-anchor="middle">Avance</text>
          <rect x="449" y="0" width="65" height="26" rx="4" class="bg-primary"/>
          <text x="481" y="17" class="text-white" font-size="11" text-anchor="middle">Licences</text>
          <rect x="518" y="0" width="55" height="26" rx="4" class="btn-outline"/>
          <text x="545" y="17" class="text-primary" font-size="11" text-anchor="middle">Taches</text>
        </g>

        <!-- NAV4 - Historique actif -->
        <g transform="translate(0, 96)">
          <text x="0" y="14" class="text-muted" font-size="12">Mes packs</text>
          <text x="80" y="14" class="text-muted" font-size="12">A la carte</text>
          <text x="150" y="14" class="text-primary" font-size="12" font-weight="500">Historique</text>
          <rect x="150" y="18" width="65" height="2" fill="#0050D7"/>
        </g>

        <!-- Contenu Historique -->
        <g transform="translate(0, 130)">
          <!-- Filtres -->
          <rect x="0" y="0" width="120" height="32" rx="4" fill="#F9FAFB" stroke="#E5E7EB"/>
          <text x="15" y="21" class="text-muted" font-size="11">Tous types ▼</text>
          <rect x="130" y="0" width="140" height="32" rx="4" fill="#F9FAFB" stroke="#E5E7EB"/>
          <text x="145" y="21" class="text-muted" font-size="11">12 derniers mois ▼</text>
          <rect x="800" y="0" width="100" height="32" rx="4" class="btn-outline"/>
          <text x="850" y="21" class="text-primary" font-size="11" text-anchor="middle">Exporter</text>

          <!-- Table Header -->
          <g transform="translate(0, 50)">
            <rect x="0" y="0" width="1036" height="36" class="table-header"/>
            <text x="20" y="23" class="text-muted" font-size="11" font-weight="600">Date</text>
            <text x="150" y="23" class="text-muted" font-size="11" font-weight="600">Type</text>
            <text x="300" y="23" class="text-muted" font-size="11" font-weight="600">Description</text>
            <text x="600" y="23" class="text-muted" font-size="11" font-weight="600">Montant</text>
            <text x="750" y="23" class="text-muted" font-size="11" font-weight="600">Statut</text>
            <text x="900" y="23" class="text-muted" font-size="11" font-weight="600">Facture</text>
          </g>

          <!-- Rows -->
          <g transform="translate(0, 86)">
            <rect x="0" y="0" width="1036" height="45" fill="#FFFFFF"/>
            <line x1="0" y1="44" x2="1036" y2="44" stroke="#E5E7EB"/>
            <text x="20" y="28" class="text-dark" font-size="11">15/12/2025</text>
            <rect x="150" y="12" width="70" height="18" rx="9" fill="#DEF7EC"/>
            <text x="185" y="25" fill="#03543F" font-size="10" text-anchor="middle">Commande</text>
            <text x="300" y="28" class="text-dark" font-size="11">Exchange Business 10 - Renouvellement annuel</text>
            <text x="600" y="28" class="text-dark" font-size="11">599,00 EUR</text>
            <rect x="750" y="12" width="55" height="18" rx="9" fill="#DEF7EC"/>
            <text x="777" y="25" fill="#03543F" font-size="10" text-anchor="middle">Paye</text>
            <text x="900" y="28" class="text-primary" font-size="11">FR-2025-12345</text>
          </g>

          <g transform="translate(0, 131)">
            <rect x="0" y="0" width="1036" height="45" fill="#FFFFFF"/>
            <line x1="0" y1="44" x2="1036" y2="44" stroke="#E5E7EB"/>
            <text x="20" y="28" class="text-dark" font-size="11">01/12/2025</text>
            <rect x="150" y="12" width="60" height="18" rx="9" fill="#DBEAFE"/>
            <text x="180" y="25" fill="#1E40AF" font-size="10" text-anchor="middle">Ajout</text>
            <text x="300" y="28" class="text-dark" font-size="11">Licence Email Pro - stagiaire@example.com</text>
            <text x="600" y="28" class="text-dark" font-size="11">2,99 EUR</text>
            <rect x="750" y="12" width="55" height="18" rx="9" fill="#DEF7EC"/>
            <text x="777" y="25" fill="#03543F" font-size="10" text-anchor="middle">Paye</text>
            <text x="900" y="28" class="text-primary" font-size="11">FR-2025-12340</text>
          </g>

          <g transform="translate(0, 176)">
            <rect x="0" y="0" width="1036" height="45" fill="#FFFFFF"/>
            <line x1="0" y1="44" x2="1036" y2="44" stroke="#E5E7EB"/>
            <text x="20" y="28" class="text-dark" font-size="11">15/11/2025</text>
            <rect x="150" y="12" width="70" height="18" rx="9" fill="#FEE2E2"/>
            <text x="185" y="25" fill="#DC2626" font-size="10" text-anchor="middle">Resiliation</text>
            <text x="300" y="28" class="text-dark" font-size="11">Licence Zimbra - ancien@example.com</text>
            <text x="600" y="28" class="text-muted" font-size="11">-</text>
            <rect x="750" y="12" width="55" height="18" rx="9" fill="#F3F4F6"/>
            <text x="777" y="25" fill="#6B7280" font-size="10" text-anchor="middle">Cloture</text>
            <text x="900" y="28" class="text-muted" font-size="11">-</text>
          </g>

          <g transform="translate(0, 221)">
            <rect x="0" y="0" width="1036" height="45" fill="#FFFFFF"/>
            <line x1="0" y1="44" x2="1036" y2="44" stroke="#E5E7EB"/>
            <text x="20" y="28" class="text-dark" font-size="11">01/10/2025</text>
            <rect x="150" y="12" width="70" height="18" rx="9" fill="#FEF3C7"/>
            <text x="185" y="25" fill="#D97706" font-size="10" text-anchor="middle">Upgrade</text>
            <text x="300" y="28" class="text-dark" font-size="11">Email Pro → Exchange - admin@example.com</text>
            <text x="600" y="28" class="text-dark" font-size="11">+2,00 EUR</text>
            <rect x="750" y="12" width="55" height="18" rx="9" fill="#DEF7EC"/>
            <text x="777" y="25" fill="#03543F" font-size="10" text-anchor="middle">Paye</text>
            <text x="900" y="28" class="text-primary" font-size="11">FR-2025-11890</text>
          </g>

          <!-- Pagination -->
          <g transform="translate(0, 380)">
            <text x="0" y="16" class="text-muted" font-size="11">Affichage 1-20 sur 45 operations</text>
            <g transform="translate(900, 0)">
              <rect x="0" y="0" width="28" height="28" rx="4" class="btn-outline"/>
              <text x="14" y="18" class="text-primary" font-size="11" text-anchor="middle">‹</text>
              <rect x="32" y="0" width="28" height="28" rx="4" class="bg-primary"/>
              <text x="46" y="18" class="text-white" font-size="11" text-anchor="middle">1</text>
              <rect x="64" y="0" width="28" height="28" rx="4" class="btn-outline"/>
              <text x="78" y="18" class="text-primary" font-size="11" text-anchor="middle">2</text>
              <rect x="96" y="0" width="28" height="28" rx="4" class="btn-outline"/>
              <text x="110" y="18" class="text-primary" font-size="11" text-anchor="middle">›</text>
            </g>
          </g>
        </g>
      </g>
    </g>
  </g>
</svg>
