<svg xmlns="http://www.w3.org/2000/svg" viewBox="0 0 1440 900" width="1440" height="900">
  <defs>
    <style>
      .bg-header { fill: #000E9C; }
      .bg-sidebar { fill: #FFFFFF; }
      .bg-main { fill: #F9FAFB; }
      .bg-white { fill: #FFFFFF; }
      .bg-primary { fill: #0050D7; }
      .bg-primary-light { fill: #E8F0FE; }
      .border { stroke: #E5E7EB; stroke-width: 1; fill: none; }
      .text-white { fill: #FFFFFF; font-family: 'Source Sans Pro', sans-serif; }
      .text-dark { fill: #1F2937; font-family: 'Source Sans Pro', sans-serif; }
      .text-muted { fill: #6B7280; font-family: 'Source Sans Pro', sans-serif; }
      .text-primary { fill: #0050D7; font-family: 'Source Sans Pro', sans-serif; }
      .badge-success { fill: #DEF7EC; }
      .badge-success-text { fill: #03543F; }
      .table-header { fill: #F9FAFB; }
      .info-banner { fill: #EFF6FF; }
    </style>
  </defs>
  <rect width="1440" height="900" class="bg-main"/>
  <rect width="1440" height="60" class="bg-header"/>
  <text x="80" y="38" class="text-white" font-size="20" font-weight="bold">OVHcloud</text>
  <circle cx="1380" cy="30" r="16" fill="#4F46E5"/>
  <text x="1380" y="35" class="text-white" font-size="12" text-anchor="middle">AB</text>
  <rect x="0" y="60" width="240" height="840" class="bg-sidebar"/>
  <rect x="240" y="60" width="1" height="840" fill="#E5E7EB"/>
  <text x="20" y="100" class="text-muted" font-size="11" font-weight="600">WEB CLOUD</text>
  <text x="44" y="135" class="text-dark" font-size="14">🌐 Hébergements Web</text>
  <rect x="8" y="148" width="224" height="36" rx="6" class="bg-primary-light"/>
  <text x="44" y="171" class="text-primary" font-size="14" font-weight="500">🗄️ Web Cloud Databases</text>
  <g transform="translate(240, 60)">
    <rect width="1200" height="50" class="bg-white"/>
    <text x="40" y="32" class="text-muted" font-size="13">Accueil › Web Cloud › Web Cloud Databases › sqlprive-abc123</text>
    <rect x="0" y="50" width="1200" height="70" class="bg-white"/>
    <text x="40" y="85" class="text-dark" font-size="22" font-weight="600">sqlprive-abc123</text>
    <text x="40" y="105" class="text-muted" font-size="13">sqlprive-abc123.mysql.db</text>
    <rect x="0" y="120" width="1200" height="45" class="bg-white"/>
    <line x1="0" y1="164" x2="1200" y2="164" stroke="#E5E7EB"/>
    <text x="40" y="148" class="text-muted" font-size="13">Informations générales</text>
    <text x="200" y="148" class="text-muted" font-size="13">Bases de données</text>
    <text x="330" y="148" class="text-muted" font-size="13">Utilisateurs</text>
    <text x="430" y="148" class="text-primary" font-size="13" font-weight="500">Whitelist</text>
    <rect x="430" y="161" width="60" height="3" fill="#0050D7"/>
    <text x="520" y="148" class="text-muted" font-size="13">Métriques</text>
    <text x="610" y="148" class="text-muted" font-size="13">Logs</text>
    <text x="670" y="148" class="text-muted" font-size="13">Configuration</text>
    <text x="780" y="148" class="text-muted" font-size="13">Tâches</text>
    <g transform="translate(24, 180)">
      <text x="0" y="24" class="text-dark" font-size="18" font-weight="600">Whitelist IP</text>
      <text x="0" y="48" class="text-muted" font-size="13">Autorisez les adresses IP à se connecter à votre base de données.</text>
      <rect x="950" y="4" width="170" height="36" rx="4" fill="#0050D7"/>
      <text x="1035" y="28" class="text-white" font-size="12" text-anchor="middle">+ Ajouter une adresse IP</text>
      <!-- Info banner with current IP -->
      <g transform="translate(0, 65)">
        <rect x="0" y="0" width="1130" height="50" rx="6" class="info-banner"/>
        <text x="16" y="20" class="text-primary" font-size="13">ℹ️ Votre adresse IP actuelle :</text>
        <rect x="200" y="6" width="160" height="28" rx="4" fill="#FFFFFF" stroke="#E5E7EB"/>
        <text x="280" y="26" class="text-dark" font-size="13" font-family="monospace" text-anchor="middle">91.134.123.45</text>
        <text x="375" y="26" class="text-primary" font-size="11">📋</text>
        <text x="16" y="42" class="text-muted" font-size="11">Ajoutez cette adresse pour vous connecter depuis votre emplacement actuel.</text>
      </g>
      <!-- Search -->
      <g transform="translate(0, 130)">
        <rect x="0" y="0" width="300" height="36" rx="4" fill="#FFFFFF" stroke="#E5E7EB"/>
        <text x="16" y="23" class="text-muted" font-size="13">🔍 Rechercher...</text>
        <text x="1050" y="23" class="text-muted" font-size="12">3 adresse(s)</text>
      </g>
      <!-- Table -->
      <g transform="translate(0, 180)">
        <rect x="0" y="0" width="1130" height="40" class="table-header"/>
        <line x1="0" y1="40" x2="1130" y2="40" stroke="#E5E7EB"/>
        <text x="16" y="26" class="text-muted" font-size="12" font-weight="500">Adresse IP</text>
        <text x="250" y="26" class="text-muted" font-size="12" font-weight="500">Nom / Description</text>
        <text x="500" y="26" class="text-muted" font-size="12" font-weight="500">Service autorisé</text>
        <text x="700" y="26" class="text-muted" font-size="12" font-weight="500">SFTP</text>
        <text x="800" y="26" class="text-muted" font-size="12" font-weight="500">Date d'ajout</text>
        <text x="1000" y="26" class="text-muted" font-size="12" font-weight="500">Actions</text>
        <!-- Row 1 -->
        <rect x="0" y="40" width="1130" height="55" fill="#FFFFFF"/>
        <line x1="0" y1="95" x2="1130" y2="95" stroke="#E5E7EB"/>
        <text x="16" y="72" class="text-dark" font-size="14" font-weight="500" font-family="monospace">91.134.123.45</text>
        <text x="250" y="72" class="text-dark" font-size="12">Bureau Paris</text>
        <text x="500" y="72" class="text-dark" font-size="12">mysql</text>
        <rect x="700" y="57" width="48" height="20" rx="10" class="badge-success"/>
        <text x="724" y="71" class="badge-success-text" font-size="10" text-anchor="middle">Oui</text>
        <text x="800" y="72" class="text-dark" font-size="12">12 mars 2023</text>
        <rect x="1000" y="55" width="32" height="28" rx="4" fill="#FEE2E2" stroke="#FECACA"/>
        <text x="1016" y="74" font-size="12" text-anchor="middle">🗑</text>
        <!-- Row 2 -->
        <rect x="0" y="95" width="1130" height="55" fill="#FFFFFF"/>
        <line x1="0" y1="150" x2="1130" y2="150" stroke="#E5E7EB"/>
        <text x="16" y="127" class="text-dark" font-size="14" font-weight="500" font-family="monospace">185.234.xx.0/24</text>
        <text x="250" y="127" class="text-dark" font-size="12">Serveur de production</text>
        <text x="500" y="127" class="text-dark" font-size="12">mysql</text>
        <rect x="700" y="112" width="48" height="20" rx="10" fill="#F3F4F6"/>
        <text x="724" y="126" class="text-muted" font-size="10" text-anchor="middle">Non</text>
        <text x="800" y="127" class="text-dark" font-size="12">15 juin 2023</text>
        <rect x="1000" y="110" width="32" height="28" rx="4" fill="#FEE2E2" stroke="#FECACA"/>
        <text x="1016" y="129" font-size="12" text-anchor="middle">🗑</text>
        <!-- Row 3 -->
        <rect x="0" y="150" width="1130" height="55" fill="#FFFFFF"/>
        <line x1="0" y1="205" x2="1130" y2="205" stroke="#E5E7EB"/>
        <text x="16" y="182" class="text-dark" font-size="14" font-weight="500" font-family="monospace">10.0.0.0/8</text>
        <text x="250" y="182" class="text-dark" font-size="12">Réseau interne</text>
        <text x="500" y="182" class="text-dark" font-size="12">mysql, sftp</text>
        <rect x="700" y="167" width="48" height="20" rx="10" class="badge-success"/>
        <text x="724" y="181" class="badge-success-text" font-size="10" text-anchor="middle">Oui</text>
        <text x="800" y="182" class="text-dark" font-size="12">20 oct. 2024</text>
        <rect x="1000" y="165" width="32" height="28" rx="4" fill="#FEE2E2" stroke="#FECACA"/>
        <text x="1016" y="184" font-size="12" text-anchor="middle">🗑</text>
      </g>
      <!-- Info card -->
      <g transform="translate(0, 420)">
        <rect x="0" y="0" width="550" height="120" rx="8" class="bg-white"/>
        <rect x="0" y="0" width="550" height="120" rx="8" class="border"/>
        <text x="20" y="28" class="text-dark" font-size="14" font-weight="600">À propos de la whitelist</text>
        <text x="20" y="52" class="text-muted" font-size="12">Seules les adresses IP autorisées peuvent se connecter</text>
        <text x="20" y="70" class="text-muted" font-size="12">à votre base de données. Vous pouvez autoriser :</text>
        <text x="20" y="92" class="text-muted" font-size="12">• Une adresse IP unique (ex: 91.134.123.45)</text>
        <text x="20" y="110" class="text-muted" font-size="12">• Une plage d'adresses (ex: 91.134.123.0/24)</text>
      </g>
    </g>
  </g>
</svg>
