<svg xmlns="http://www.w3.org/2000/svg" viewBox="0 0 1440 900">
  <defs>
    <style>
      .overlay { fill: rgba(0,0,0,0.5); }
      .modal { fill: #FFFFFF; }
      .modal-header { fill: #F9FAFB; }
      .text-primary { fill: #1F2937; font-family: -apple-system, BlinkMacSystemFont, 'Segoe UI', sans-serif; }
      .text-muted { fill: #6B7280; font-family: -apple-system, BlinkMacSystemFont, 'Segoe UI', sans-serif; }
      .text-white { fill: #FFFFFF; font-family: -apple-system, BlinkMacSystemFont, 'Segoe UI', sans-serif; }
      .btn-primary { fill: #0050D7; }
      .btn-secondary { fill: #FFFFFF; stroke: #D1D5DB; }
      .input { fill: #FFFFFF; stroke: #D1D5DB; }
      .input-disabled { fill: #F3F4F6; stroke: #D1D5DB; }
    </style>
  </defs>
  <rect fill="#FFFFFF" width="1440" height="900"/>
  <rect fill="#000E9C" width="1440" height="60"/>
  <rect class="overlay" width="1440" height="900"/>

  <rect class="modal" x="420" y="220" width="600" height="420" rx="8" filter="url(#shadow)"/>
  <rect class="modal-header" x="420" y="220" width="600" height="56" rx="8 8 0 0"/>
  <text class="text-primary" x="445" y="256" font-size="16" font-weight="600">Modifier l'utilisateur FTP</text>
  <text class="text-muted" x="995" y="256" font-size="20">×</text>

  <!-- Login (readonly) -->
  <text class="text-primary" x="445" y="310" font-size="13" font-weight="500">Identifiant</text>
  <rect class="input-disabled" x="445" y="320" width="550" height="40" rx="4"/>
  <text class="text-muted" x="460" y="346" font-size="14">monsite-user1</text>

  <!-- Root folder -->
  <text class="text-primary" x="445" y="395" font-size="13" font-weight="500">Dossier racine</text>
  <rect class="input" x="445" y="405" width="550" height="40" rx="4"/>
  <text class="text-primary" x="460" y="431" font-size="14">/www/</text>

  <!-- SSH State -->
  <text class="text-primary" x="445" y="480" font-size="13" font-weight="500">Accès SSH</text>
  <rect class="input" x="445" y="490" width="300" height="40" rx="4"/>
  <text class="text-primary" x="460" y="516" font-size="14">SFTP uniquement</text>
  <text class="text-muted" x="720" y="516" font-size="12">▼</text>

  <line x1="420" y1="580" x2="1020" y2="580" stroke="#E5E7EB"/>
  <rect class="btn-secondary" x="770" y="600" width="100" height="36" rx="4"/>
  <text class="text-primary" x="820" y="624" font-size="14" text-anchor="middle">Annuler</text>
  <rect class="btn-primary" x="885" y="600" width="120" height="36" rx="4"/>
  <text class="text-white" x="945" y="624" font-size="14" font-weight="500" text-anchor="middle">Enregistrer</text>

  <defs><filter id="shadow" x="-20%" y="-20%" width="140%" height="140%"><feDropShadow dx="0" dy="4" stdDeviation="16" flood-opacity="0.15"/></filter></defs>
</svg>
