<svg xmlns="http://www.w3.org/2000/svg" viewBox="0 0 1440 900" width="1440" height="900">
  <defs>
    <style>
      .bg-header { fill: #000E9C; }
      .bg-sidebar { fill: #FFFFFF; }
      .bg-main { fill: #F9FAFB; }
      .bg-white { fill: #FFFFFF; }
      .bg-primary { fill: #0050D7; }
      .bg-primary-light { fill: #E8F0FE; }
      .border { stroke: #E5E7EB; stroke-width: 1; fill: none; }
      .text-white { fill: #FFFFFF; font-family: 'Source Sans Pro', sans-serif; }
      .text-dark { fill: #1F2937; font-family: 'Source Sans Pro', sans-serif; }
      .text-muted { fill: #6B7280; font-family: 'Source Sans Pro', sans-serif; }
      .text-primary { fill: #0050D7; font-family: 'Source Sans Pro', sans-serif; }
      .badge-success { fill: #DEF7EC; }
      .badge-success-text { fill: #03543F; }
      .row-hover { fill: #F9FAFB; }
      .row-selected { fill: #E8F0FE; }
    </style>
  </defs>

  <!-- Background -->
  <rect width="1440" height="900" class="bg-main"/>

  <!-- Header OVH 60px -->
  <rect width="1440" height="60" class="bg-header"/>
  <text x="80" y="38" class="text-white" font-size="20" font-weight="bold">OVHcloud</text>
  <text x="200" y="38" class="text-white" font-size="14">Manager</text>
  
  <!-- User menu -->
  <circle cx="1380" cy="30" r="16" fill="#4F46E5"/>
  <text x="1380" y="35" class="text-white" font-size="12" text-anchor="middle">AB</text>

  <!-- Sidebar 240px -->
  <rect x="0" y="60" width="240" height="840" class="bg-sidebar"/>
  <rect x="240" y="60" width="1" height="840" fill="#E5E7EB"/>
  
  <!-- Sidebar navigation -->
  <text x="20" y="100" class="text-muted" font-size="11" font-weight="600">WEB CLOUD</text>
  
  <!-- Nav item: Hébergements (actif) -->
  <rect x="8" y="112" width="224" height="36" rx="6" class="bg-primary-light"/>
  <text x="44" y="135" class="text-primary" font-size="14" font-weight="500">🌐 Hébergements Web</text>
  
  <!-- Nav item: Web Cloud Databases -->
  <text x="44" y="171" class="text-dark" font-size="14">🗄️ Web Cloud Databases</text>
  
  <!-- Nav item: Domaines -->
  <text x="44" y="207" class="text-dark" font-size="14">🔗 Noms de domaine</text>
  
  <!-- Nav item: Emails -->
  <text x="44" y="243" class="text-dark" font-size="14">📧 Emails</text>

  <!-- Main Content Area -->
  <g transform="translate(240, 60)">
    <!-- Breadcrumb -->
    <rect width="1200" height="50" class="bg-white"/>
    <text x="40" y="32" class="text-muted" font-size="13">
      <tspan>Accueil</tspan>
      <tspan dx="8" fill="#9CA3AF">›</tspan>
      <tspan dx="8">Web Cloud</tspan>
      <tspan dx="8" fill="#9CA3AF">›</tspan>
      <tspan dx="8" class="text-dark" font-weight="500">Hébergements Web</tspan>
    </text>

    <!-- Page Header -->
    <rect x="0" y="50" width="1200" height="100" class="bg-white"/>
    <text x="40" y="90" class="text-dark" font-size="24" font-weight="600">Hébergements Web</text>
    <text x="40" y="115" class="text-muted" font-size="14">Gérez vos hébergements web, bases de données et certificats SSL.</text>
    
    <!-- Guide link -->
    <text x="1060" y="90" class="text-primary" font-size="13">📖 Consulter les guides</text>

    <!-- Content with split layout -->
    <g transform="translate(0, 160)">
      <!-- Left Panel: Liste des services (320px) -->
      <rect x="24" y="0" width="320" height="580" rx="8" class="bg-white"/>
      <rect x="24" y="0" width="320" height="580" rx="8" class="border"/>
      
      <!-- Search box -->
      <rect x="40" y="16" width="288" height="36" rx="4" fill="#F9FAFB" stroke="#E5E7EB"/>
      <text x="56" y="40" class="text-muted" font-size="13">🔍 Rechercher...</text>
      
      <!-- Count -->
      <text x="280" y="76" class="text-muted" font-size="12" text-anchor="end">3 hébergement(s)</text>
      
      <!-- Service list -->
      <!-- Item 1 (selected) -->
      <rect x="32" y="88" width="304" height="64" rx="6" class="row-selected"/>
      <circle cx="56" cy="120" r="16" fill="#0050D7"/>
      <text x="56" y="125" class="text-white" font-size="11" text-anchor="middle">🌐</text>
      <text x="84" y="112" class="text-dark" font-size="14" font-weight="500">mon-site.fr</text>
      <text x="84" y="130" class="text-muted" font-size="12">Performance 1</text>
      <rect x="260" y="108" width="52" height="20" rx="10" class="badge-success"/>
      <text x="286" y="122" class="badge-success-text" font-size="11" text-anchor="middle">Actif</text>
      
      <!-- Item 2 -->
      <rect x="32" y="160" width="304" height="64" rx="6" fill="transparent"/>
      <circle cx="56" cy="192" r="16" fill="#6B7280"/>
      <text x="56" y="197" class="text-white" font-size="11" text-anchor="middle">🌐</text>
      <text x="84" y="184" class="text-dark" font-size="14" font-weight="500">blog.exemple.com</text>
      <text x="84" y="202" class="text-muted" font-size="12">Pro 2024</text>
      <rect x="260" y="180" width="52" height="20" rx="10" class="badge-success"/>
      <text x="286" y="194" class="badge-success-text" font-size="11" text-anchor="middle">Actif</text>
      
      <!-- Item 3 -->
      <rect x="32" y="232" width="304" height="64" rx="6" fill="transparent"/>
      <circle cx="56" cy="264" r="16" fill="#6B7280"/>
      <text x="56" y="269" class="text-white" font-size="11" text-anchor="middle">🌐</text>
      <text x="84" y="256" class="text-dark" font-size="14" font-weight="500">shop.mondomaine.fr</text>
      <text x="84" y="274" class="text-muted" font-size="12">Perso 2024</text>
      <rect x="260" y="252" width="52" height="20" rx="10" class="badge-success"/>
      <text x="286" y="266" class="badge-success-text" font-size="11" text-anchor="middle">Actif</text>

      <!-- Right Panel: Detail (820px) -->
      <rect x="360" y="0" width="816" height="580" rx="8" class="bg-white"/>
      <rect x="360" y="0" width="816" height="580" rx="8" class="border"/>
      
      <!-- Detail Header -->
      <text x="392" y="40" class="text-dark" font-size="20" font-weight="600">mon-site.fr</text>
      <text x="392" y="62" class="text-muted" font-size="13">ns1234567.ip-00-00-000.eu</text>
      
      <!-- Tabs -->
      <line x1="360" y1="90" x2="1176" y2="90" stroke="#E5E7EB" stroke-width="1"/>
      
      <!-- Tab: Informations générales (active) -->
      <text x="392" y="115" class="text-primary" font-size="13" font-weight="500">Informations générales</text>
      <rect x="392" y="122" width="130" height="3" fill="#0050D7"/>
      
      <!-- Tab: Multisite -->
      <text x="540" y="115" class="text-muted" font-size="13">Multisite</text>
      
      <!-- Tab: SSL -->
      <text x="620" y="115" class="text-muted" font-size="13">Certificats SSL</text>
      
      <!-- Tab: Modules -->
      <text x="730" y="115" class="text-muted" font-size="13">Modules en 1 clic</text>
      
      <!-- Tab: Logs -->
      <text x="855" y="115" class="text-muted" font-size="13">Statistiques et logs</text>
      
      <!-- Tab: More -->
      <text x="990" y="115" class="text-muted" font-size="13">FTP - SSH</text>
      
      <!-- Tab: ... -->
      <text x="1080" y="115" class="text-muted" font-size="13">...</text>

      <!-- Quick Info Cards (3 columns) -->
      <g transform="translate(376, 140)">
        <!-- Card 1: Infos serveur -->
        <rect x="0" y="0" width="250" height="200" rx="6" fill="#FFFFFF" stroke="#E5E7EB"/>
        <text x="16" y="28" class="text-dark" font-size="14" font-weight="600">Informations serveur</text>
        
        <text x="16" y="56" class="text-muted" font-size="12">Nom du service</text>
        <text x="16" y="74" class="text-dark" font-size="13">ns1234567.ip-00-00-000.eu</text>
        
        <text x="16" y="100" class="text-muted" font-size="12">Offre</text>
        <text x="16" y="118" class="text-dark" font-size="13" font-weight="500">Performance 1</text>
        
        <text x="16" y="144" class="text-muted" font-size="12">Datacenter</text>
        <text x="16" y="162" class="text-dark" font-size="13">GRA3 (Gravelines)</text>
        
        <text x="16" y="188" class="text-muted" font-size="12">IPv4</text>
        <text x="100" y="188" class="text-dark" font-size="12" font-family="monospace">91.134.XXX.XXX</text>

        <!-- Card 2: Configuration -->
        <rect x="266" y="0" width="250" height="200" rx="6" fill="#FFFFFF" stroke="#E5E7EB"/>
        <text x="282" y="28" class="text-dark" font-size="14" font-weight="600">Configuration</text>
        
        <text x="282" y="56" class="text-muted" font-size="12">Version PHP</text>
        <text x="282" y="74" class="text-dark" font-size="13" font-family="monospace">8.2</text>
        <text x="320" y="74" class="text-primary" font-size="11" style="cursor:pointer">✏️</text>
        
        <text x="282" y="100" class="text-muted" font-size="12">Certificat SSL</text>
        <rect x="282" y="108" width="52" height="18" rx="9" class="badge-success"/>
        <text x="308" y="120" class="badge-success-text" font-size="10" text-anchor="middle">Actif</text>
        
        <text x="282" y="148" class="text-muted" font-size="12">Option CDN</text>
        <rect x="282" y="156" width="52" height="18" rx="9" class="badge-success"/>
        <text x="308" y="168" class="badge-success-text" font-size="10" text-anchor="middle">Actif</text>
        
        <text x="282" y="196" class="text-muted" font-size="12">Bases de données</text>
        <text x="400" y="196" class="text-dark" font-size="12">2 / 5</text>

        <!-- Card 3: Abonnement -->
        <rect x="532" y="0" width="250" height="200" rx="6" fill="#FFFFFF" stroke="#E5E7EB"/>
        <text x="548" y="28" class="text-dark" font-size="14" font-weight="600">Abonnement</text>
        
        <text x="548" y="56" class="text-muted" font-size="12">Offre</text>
        <text x="548" y="74" class="text-dark" font-size="13" font-weight="500">Performance 1</text>
        <text x="680" y="74" class="text-primary" font-size="11">⬆️ Changer</text>
        
        <text x="548" y="100" class="text-muted" font-size="12">Renouvellement</text>
        <rect x="548" y="108" width="72" height="18" rx="9" class="badge-success"/>
        <text x="584" y="120" class="badge-success-text" font-size="10" text-anchor="middle">Automatique</text>
        
        <text x="548" y="148" class="text-muted" font-size="12">Date d'expiration</text>
        <text x="548" y="166" class="text-dark" font-size="13">15 janvier 2026</text>
        
        <text x="548" y="196" class="text-muted" font-size="12">Date de création</text>
        <text x="548" y="210" class="text-dark" font-size="12">12 mars 2022</text>
      </g>

      <!-- Action buttons row -->
      <g transform="translate(376, 360)">
        <rect x="0" y="0" width="784" height="50" rx="6" fill="#F9FAFB"/>
        <text x="16" y="30" class="text-dark" font-size="13" font-weight="500">Actions rapides :</text>
        
        <rect x="140" y="10" width="140" height="30" rx="4" fill="#0050D7"/>
        <text x="210" y="30" class="text-white" font-size="12" text-anchor="middle">📸 Restaurer snapshot</text>
        
        <rect x="296" y="10" width="130" height="30" rx="4" fill="#FFFFFF" stroke="#E5E7EB"/>
        <text x="361" y="30" class="text-dark" font-size="12" text-anchor="middle">⚙️ .ovhconfig</text>
        
        <rect x="442" y="10" width="100" height="30" rx="4" fill="#FFFFFF" stroke="#E5E7EB"/>
        <text x="492" y="30" class="text-dark" font-size="12" text-anchor="middle">🔒 SSL</text>
      </g>

      <!-- Quota disk usage -->
      <g transform="translate(376, 430)">
        <text x="0" y="20" class="text-dark" font-size="14" font-weight="500">Espace disque</text>
        <rect x="0" y="32" width="400" height="8" rx="4" fill="#E5E7EB"/>
        <rect x="0" y="32" width="120" height="8" rx="4" fill="#0050D7"/>
        <text x="0" y="58" class="text-muted" font-size="12">1.2 Go utilisés sur 100 Go</text>
      </g>
    </g>
  </g>
</svg>
