<svg xmlns="http://www.w3.org/2000/svg" viewBox="0 0 1440 900" width="1440" height="900">
  <defs>
    <style>
      .bg-header { fill: #000E9C; }
      .bg-sidebar { fill: #FFFFFF; }
      .bg-main { fill: #F9FAFB; }
      .bg-white { fill: #FFFFFF; }
      .bg-primary { fill: #0050D7; }
      .bg-primary-light { fill: #E8F0FE; }
      .bg-danger { fill: #DC2626; }
      .border { stroke: #E5E7EB; stroke-width: 1; fill: none; }
      .text-white { fill: #FFFFFF; font-family: 'Source Sans Pro', sans-serif; }
      .text-dark { fill: #1F2937; font-family: 'Source Sans Pro', sans-serif; }
      .text-muted { fill: #6B7280; font-family: 'Source Sans Pro', sans-serif; }
      .text-primary { fill: #0050D7; font-family: 'Source Sans Pro', sans-serif; }
      .badge-success { fill: #DEF7EC; }
      .badge-success-text { fill: #03543F; }
      .badge-inactive { fill: #F3F4F6; }
      .badge-inactive-text { fill: #6B7280; }
      .table-header { fill: #F9FAFB; }
      .dropdown-shadow { filter: drop-shadow(0 4px 6px rgba(0,0,0,0.1)); }
    </style>
  </defs>
  <rect width="1440" height="900" class="bg-main"/>
  <rect width="1440" height="60" class="bg-header"/>
  <text x="80" y="38" class="text-white" font-size="20" font-weight="bold">OVHcloud</text>
  <circle cx="1380" cy="30" r="16" fill="#4F46E5"/>
  <text x="1380" y="35" class="text-white" font-size="12" text-anchor="middle">AB</text>
  <rect x="0" y="60" width="240" height="840" class="bg-sidebar"/>
  <rect x="240" y="60" width="1" height="840" fill="#E5E7EB"/>
  <text x="20" y="100" class="text-muted" font-size="11" font-weight="600">WEB CLOUD</text>
  <rect x="8" y="112" width="224" height="36" rx="6" class="bg-primary-light"/>
  <text x="44" y="135" class="text-primary" font-size="14" font-weight="500">🌐 Hébergements Web</text>
  <g transform="translate(240, 60)">
    <rect width="1200" height="50" class="bg-white"/>
    <text x="40" y="32" class="text-muted" font-size="13">Accueil › Web Cloud › Hébergements Web › mon-site.fr</text>
    <rect x="0" y="50" width="1200" height="70" class="bg-white"/>
    <text x="40" y="85" class="text-dark" font-size="22" font-weight="600">mon-site.fr</text>
    <text x="40" y="105" class="text-muted" font-size="13">ns1234567.ip-00-00-000.eu</text>
    <rect x="0" y="120" width="1200" height="45" class="bg-white"/>
    <line x1="0" y1="164" x2="1200" y2="164" stroke="#E5E7EB"/>
    <text x="40" y="148" class="text-muted" font-size="13">Informations générales</text>
    <text x="200" y="148" class="text-muted" font-size="13">Multisite</text>
    <text x="280" y="148" class="text-muted" font-size="13">FTP - SSH</text>
    <text x="370" y="148" class="text-muted" font-size="13">Bases de données</text>
    <text x="510" y="148" class="text-muted" font-size="13">Modules</text>
    <text x="590" y="148" class="text-primary" font-size="13" font-weight="500">Certificats SSL</text>
    <rect x="590" y="161" width="90" height="3" fill="#0050D7"/>
    <text x="710" y="148" class="text-muted" font-size="13">...</text>
    <g transform="translate(24, 180)">
      <text x="0" y="24" class="text-dark" font-size="18" font-weight="600">Certificats SSL</text>
      <text x="0" y="48" class="text-muted" font-size="13">Sécurisez vos sites avec HTTPS.</text>
      <!-- Dropdown button with menu open -->
      <rect x="900" y="4" width="200" height="36" rx="4" fill="#0050D7"/>
      <text x="1000" y="28" class="text-white" font-size="12" text-anchor="middle">Commander un certificat ▼</text>
      <!-- Dropdown menu OUVERT -->
      <g class="dropdown-shadow">
        <rect x="900" y="44" width="230" height="140" rx="6" fill="#FFFFFF" stroke="#E5E7EB"/>
        <rect x="908" y="52" width="214" height="32" rx="4" fill="#F9FAFB"/>
        <text x="924" y="74" class="text-dark" font-size="12">🔒 Générer Let's Encrypt (gratuit)</text>
        <rect x="908" y="88" width="214" height="32" rx="4" fill="transparent"/>
        <text x="924" y="110" class="text-dark" font-size="12">🛡️ Commander Sectigo (payant)</text>
        <line x1="908" y1="125" x2="1122" y2="125" stroke="#E5E7EB"/>
        <rect x="908" y="130" width="214" height="32" rx="4" fill="transparent"/>
        <text x="924" y="152" class="text-dark" font-size="12">📥 Importer un certificat</text>
      </g>
      <!-- Certificat actuel card -->
      <g transform="translate(0, 80)">
        <rect x="0" y="0" width="1130" height="130" rx="8" class="bg-white"/>
        <rect x="0" y="0" width="1130" height="130" rx="8" class="border"/>
        <text x="20" y="28" class="text-dark" font-size="15" font-weight="600">Certificat actuel</text>
        <rect x="980" y="10" width="100" height="28" rx="4" fill="#FFFFFF" stroke="#E5E7EB"/>
        <text x="1030" y="29" class="text-dark" font-size="11" text-anchor="middle">Régénérer</text>
        <rect x="1090" y="10" width="28" height="28" rx="4" fill="#FEE2E2"/>
        <text x="1104" y="29" font-size="12" text-anchor="middle">🗑</text>
        <g transform="translate(20, 50)">
          <text x="0" y="14" class="text-muted" font-size="12">Type</text>
          <text x="0" y="34" class="text-dark" font-size="13">Let's Encrypt</text>
          <text x="200" y="14" class="text-muted" font-size="12">Fournisseur</text>
          <text x="200" y="34" class="text-dark" font-size="13">Let's Encrypt</text>
          <text x="400" y="14" class="text-muted" font-size="12">Statut</text>
          <rect x="400" y="20" width="48" height="20" rx="10" class="badge-success"/>
          <text x="424" y="34" class="badge-success-text" font-size="10" text-anchor="middle">Actif</text>
          <text x="600" y="14" class="text-muted" font-size="12">Date d'expiration</text>
          <text x="600" y="34" class="text-dark" font-size="13">15 mars 2026</text>
        </g>
      </g>
      <!-- Table domaines SSL -->
      <g transform="translate(0, 230)">
        <rect x="0" y="0" width="1130" height="40" class="table-header"/>
        <line x1="0" y1="40" x2="1130" y2="40" stroke="#E5E7EB"/>
        <text x="16" y="26" class="text-muted" font-size="12" font-weight="500">Domaine</text>
        <text x="350" y="26" class="text-muted" font-size="12" font-weight="500">Type</text>
        <text x="500" y="26" class="text-muted" font-size="12" font-weight="500">Statut</text>
        <text x="650" y="26" class="text-muted" font-size="12" font-weight="500">Expiration</text>
        <text x="850" y="26" class="text-muted" font-size="12" font-weight="500">Rapport</text>
        <!-- Row 1 -->
        <rect x="0" y="40" width="1130" height="50" fill="#FFFFFF"/>
        <line x1="0" y1="90" x2="1130" y2="90" stroke="#E5E7EB"/>
        <text x="16" y="70" class="text-dark" font-size="13" font-family="monospace">mon-site.fr</text>
        <text x="350" y="70" class="text-dark" font-size="12">Let's Encrypt</text>
        <rect x="500" y="55" width="48" height="20" rx="10" class="badge-success"/>
        <text x="524" y="69" class="badge-success-text" font-size="10" text-anchor="middle">Actif</text>
        <text x="650" y="70" class="text-dark" font-size="12">15 mars 2026</text>
        <text x="850" y="70" class="text-primary" font-size="12">Voir le rapport ↗</text>
        <!-- Row 2 -->
        <rect x="0" y="90" width="1130" height="50" fill="#FFFFFF"/>
        <line x1="0" y1="140" x2="1130" y2="140" stroke="#E5E7EB"/>
        <text x="16" y="120" class="text-dark" font-size="13" font-family="monospace">www.mon-site.fr</text>
        <text x="350" y="120" class="text-dark" font-size="12">Let's Encrypt</text>
        <rect x="500" y="105" width="48" height="20" rx="10" class="badge-success"/>
        <text x="524" y="119" class="badge-success-text" font-size="10" text-anchor="middle">Actif</text>
        <text x="650" y="120" class="text-dark" font-size="12">15 mars 2026</text>
        <text x="850" y="120" class="text-primary" font-size="12">Voir le rapport ↗</text>
        <!-- Row 3 -->
        <rect x="0" y="140" width="1130" height="50" fill="#FFFFFF"/>
        <line x1="0" y1="190" x2="1130" y2="190" stroke="#E5E7EB"/>
        <text x="16" y="170" class="text-dark" font-size="13" font-family="monospace">blog.mon-site.fr</text>
        <text x="350" y="170" class="text-dark" font-size="12">Let's Encrypt</text>
        <rect x="500" y="155" width="72" height="20" rx="10" class="badge-inactive"/>
        <text x="536" y="169" class="badge-inactive-text" font-size="10" text-anchor="middle">Non activé</text>
        <text x="650" y="170" class="text-muted" font-size="12">-</text>
        <text x="850" y="170" class="text-muted" font-size="12">-</text>
      </g>
    </g>
  </g>
</svg>
