<?xml version="1.0" encoding="UTF-8"?>
<svg width="1100" height="500" viewBox="0 0 1100 500" fill="none" xmlns="http://www.w3.org/2000/svg">
  <title>Private Cloud - Storage Encryption</title>
  <rect width="1100" height="500" fill="#F9FAFB"/>
  <g transform="translate(30, 30)"><text x="0" y="0" fill="#1F2937" font-family="system-ui, sans-serif" font-size="22" font-weight="600">Chiffrement du stockage</text><text x="0" y="30" fill="#6B7280" font-family="system-ui, sans-serif" font-size="13">Gérez le chiffrement des données au repos.</text></g>
  <g transform="translate(30, 90)">
    <rect x="0" y="0" width="500" height="120" rx="8" fill="white" stroke="#E5E7EB"/>
    <text x="20" y="30" fill="#1F2937" font-family="system-ui, sans-serif" font-size="14" font-weight="500">Serveur de clés (KMS)</text>
    <g transform="translate(20, 50)"><circle cx="6" cy="6" r="6" fill="#16A34A"/><text x="20" y="10" fill="#16A34A" font-family="system-ui, sans-serif" font-size="12">Connecté</text></g>
    <text x="20" y="85" fill="#6B7280" font-family="system-ui, sans-serif" font-size="12">Serveur: kms.ovh.net:5696</text>
    <text x="20" y="105" fill="#6B7280" font-family="system-ui, sans-serif" font-size="11">Algorithme: AES-256-XTS</text>
    <g transform="translate(350, 50)"><rect x="0" y="0" width="120" height="32" rx="4" fill="white" stroke="#E5E7EB"/><text x="20" y="21" fill="#6B7280" font-family="system-ui, sans-serif" font-size="12">Configurer</text></g>
  </g>
  <g transform="translate(550, 90)">
    <rect x="0" y="0" width="500" height="120" rx="8" fill="white" stroke="#E5E7EB"/>
    <text x="20" y="30" fill="#1F2937" font-family="system-ui, sans-serif" font-size="14" font-weight="500">Statistiques de chiffrement</text>
    <g transform="translate(20, 55)"><text x="0" y="0" fill="#6B7280" font-family="system-ui, sans-serif" font-size="12">VMs chiffrées</text><text x="0" y="25" fill="#1F2937" font-family="system-ui, sans-serif" font-size="24" font-weight="600">18</text><text x="45" y="25" fill="#6B7280" font-family="system-ui, sans-serif" font-size="14">/ 24</text></g>
    <g transform="translate(200, 55)"><text x="0" y="0" fill="#6B7280" font-family="system-ui, sans-serif" font-size="12">Datastores chiffrés</text><text x="0" y="25" fill="#1F2937" font-family="system-ui, sans-serif" font-size="24" font-weight="600">3</text><text x="25" y="25" fill="#6B7280" font-family="system-ui, sans-serif" font-size="14">/ 4</text></g>
    <g transform="translate(380, 55)"><text x="0" y="0" fill="#6B7280" font-family="system-ui, sans-serif" font-size="12">Couverture</text><text x="0" y="25" fill="#16A34A" font-family="system-ui, sans-serif" font-size="24" font-weight="600">75%</text></g>
  </g>
  <g transform="translate(30, 240)">
    <rect x="0" y="0" width="1040" height="220" rx="8" fill="white" stroke="#E5E7EB"/>
    <text x="20" y="30" fill="#1F2937" font-family="system-ui, sans-serif" font-size="14" font-weight="500">Clés de chiffrement</text>
    <g transform="translate(880, 10)"><rect x="0" y="0" width="140" height="32" rx="4" fill="#0050D7"/><text x="18" y="21" fill="white" font-family="system-ui, sans-serif" font-size="12">+ Générer clé</text></g>
    <g transform="translate(0, 55)"><rect x="0" y="0" width="1040" height="35" fill="#F9FAFB"/><text x="20" y="23" fill="#6B7280" font-family="system-ui, sans-serif" font-size="11" font-weight="500">ID de la clé</text><text x="300" y="23" fill="#6B7280" font-family="system-ui, sans-serif" font-size="11" font-weight="500">Créée le</text><text x="450" y="23" fill="#6B7280" font-family="system-ui, sans-serif" font-size="11" font-weight="500">Utilisée par</text><text x="650" y="23" fill="#6B7280" font-family="system-ui, sans-serif" font-size="11" font-weight="500">État</text><text x="800" y="23" fill="#6B7280" font-family="system-ui, sans-serif" font-size="11" font-weight="500">Rotation</text><text x="950" y="23" fill="#6B7280" font-family="system-ui, sans-serif" font-size="11" font-weight="500">Actions</text></g>
    <g transform="translate(0, 95)"><line x1="0" y1="0" x2="1040" y2="0" stroke="#E5E7EB"/><text x="20" y="30" fill="#1F2937" font-family="system-ui, sans-serif" font-size="12" font-family="monospace">key-prod-001</text><text x="300" y="30" fill="#1F2937" font-family="system-ui, sans-serif" font-size="12">01/06/2024</text><text x="450" y="30" fill="#1F2937" font-family="system-ui, sans-serif" font-size="12">12 VMs, 2 datastores</text><g transform="translate(650, 15)"><rect x="0" y="0" width="50" height="20" rx="4" fill="#DCFCE7"/><text x="12" y="14" fill="#16A34A" font-family="system-ui, sans-serif" font-size="10">Active</text></g><text x="800" y="30" fill="#6B7280" font-family="system-ui, sans-serif" font-size="12">Dans 180j</text><g transform="translate(950, 12)"><rect x="0" y="0" width="30" height="30" rx="4" fill="#F9FAFB" stroke="#E5E7EB"/><text x="11" y="22" fill="#6B7280" font-family="system-ui, sans-serif" font-size="14">⋮</text></g></g>
    <g transform="translate(0, 145)"><line x1="0" y1="0" x2="1040" y2="0" stroke="#E5E7EB"/><text x="20" y="30" fill="#1F2937" font-family="system-ui, sans-serif" font-size="12" font-family="monospace">key-dev-002</text><text x="300" y="30" fill="#1F2937" font-family="system-ui, sans-serif" font-size="12">15/09/2024</text><text x="450" y="30" fill="#1F2937" font-family="system-ui, sans-serif" font-size="12">6 VMs, 1 datastore</text><g transform="translate(650, 15)"><rect x="0" y="0" width="50" height="20" rx="4" fill="#DCFCE7"/><text x="12" y="14" fill="#16A34A" font-family="system-ui, sans-serif" font-size="10">Active</text></g><text x="800" y="30" fill="#6B7280" font-family="system-ui, sans-serif" font-size="12">Dans 285j</text><g transform="translate(950, 12)"><rect x="0" y="0" width="30" height="30" rx="4" fill="#F9FAFB" stroke="#E5E7EB"/><text x="11" y="22" fill="#6B7280" font-family="system-ui, sans-serif" font-size="14">⋮</text></g></g>
  </g>
</svg>
