<?xml version="1.0" encoding="UTF-8"?>
<svg width="1100" height="550" viewBox="0 0 1100 550" fill="none" xmlns="http://www.w3.org/2000/svg">
  <title>Web Cloud - Database Users</title>
  <rect width="1100" height="550" fill="#F9FAFB"/>
  <g transform="translate(30, 30)">
    <text x="0" y="0" fill="#6B7280" font-family="system-ui, sans-serif" font-size="12">← Retour à myapp_production</text>
  </g>
  <g transform="translate(30, 60)">
    <text x="0" y="0" fill="#1F2937" font-family="system-ui, sans-serif" font-size="22" font-weight="600">Utilisateurs</text>
    <text x="0" y="28" fill="#6B7280" font-family="system-ui, sans-serif" font-size="13">myapp_production • MySQL 8.0 • Gérez les accès à votre base</text>
  </g>
  <g transform="translate(850, 55)"><rect x="0" y="0" width="180" height="40" rx="4" fill="#0050D7"/><text x="25" y="26" fill="white" font-family="system-ui, sans-serif" font-size="13">+ Créer un utilisateur</text></g>
  <!-- Connection info -->
  <g transform="translate(30, 110)">
    <rect x="0" y="0" width="1040" height="80" rx="8" fill="white" stroke="#E5E7EB"/>
    <g transform="translate(20, 20)">
      <text x="0" y="0" fill="#6B7280" font-family="system-ui, sans-serif" font-size="11">SERVEUR</text>
      <text x="0" y="20" fill="#1F2937" font-family="monospace" font-size="12">mysql001.hosting.ovh.net</text>
    </g>
    <g transform="translate(300, 20)">
      <text x="0" y="0" fill="#6B7280" font-family="system-ui, sans-serif" font-size="11">PORT</text>
      <text x="0" y="20" fill="#1F2937" font-family="monospace" font-size="12">3306</text>
    </g>
    <g transform="translate(450, 20)">
      <text x="0" y="0" fill="#6B7280" font-family="system-ui, sans-serif" font-size="11">BASE DE DONNÉES</text>
      <text x="0" y="20" fill="#1F2937" font-family="monospace" font-size="12">myapp_production</text>
    </g>
    <g transform="translate(700, 20)">
      <text x="0" y="0" fill="#6B7280" font-family="system-ui, sans-serif" font-size="11">UTILISATEURS</text>
      <text x="0" y="20" fill="#1F2937" font-family="system-ui, sans-serif" font-size="14" font-weight="500">3 / 5</text>
    </g>
    <g transform="translate(850, 25)">
      <rect x="0" y="0" width="140" height="32" rx="4" fill="#F9FAFB"/>
      <text x="15" y="21" fill="#0050D7" font-family="system-ui, sans-serif" font-size="12">Accéder à phpMyAdmin</text>
    </g>
  </g>
  <!-- Users list -->
  <g transform="translate(30, 210)">
    <rect x="0" y="0" width="1040" height="320" rx="8" fill="white" stroke="#E5E7EB"/>
    <text x="20" y="30" fill="#1F2937" font-family="system-ui, sans-serif" font-size="14" font-weight="600">Utilisateurs (3)</text>
    <g transform="translate(20, 55)">
      <text x="0" y="0" fill="#6B7280" font-family="system-ui, sans-serif" font-size="11" font-weight="500">UTILISATEUR</text>
      <text x="250" y="0" fill="#6B7280" font-family="system-ui, sans-serif" font-size="11" font-weight="500">HÔTE AUTORISÉ</text>
      <text x="450" y="0" fill="#6B7280" font-family="system-ui, sans-serif" font-size="11" font-weight="500">PRIVILÈGES</text>
      <text x="700" y="0" fill="#6B7280" font-family="system-ui, sans-serif" font-size="11" font-weight="500">CRÉÉ LE</text>
      <text x="880" y="0" fill="#6B7280" font-family="system-ui, sans-serif" font-size="11" font-weight="500">ACTIONS</text>
    </g>
    <line x1="20" y1="70" x2="1000" y2="70" stroke="#E5E7EB"/>
    <g transform="translate(20, 95)">
      <text x="0" y="0" fill="#1F2937" font-family="monospace" font-size="13" font-weight="500">myapp_admin</text>
      <rect x="150" y="-10" width="60" height="20" rx="4" fill="#0050D7"/><text x="160" y="5" fill="white" font-family="system-ui, sans-serif" font-size="9">Principal</text>
      <text x="250" y="0" fill="#6B7280" font-family="monospace" font-size="12">%</text>
      <rect x="450" y="-10" width="90" height="20" rx="4" fill="#DCFCE7"/><text x="460" y="5" fill="#16A34A" font-family="system-ui, sans-serif" font-size="10">ALL PRIVILEGES</text>
      <text x="700" y="0" fill="#6B7280" font-family="system-ui, sans-serif" font-size="12">15/01/2024</text>
      <text x="880" y="0" fill="#0050D7" font-family="system-ui, sans-serif" font-size="11">Mot de passe</text>
    </g>
    <line x1="20" y1="120" x2="1000" y2="120" stroke="#F3F4F6"/>
    <g transform="translate(20, 145)">
      <text x="0" y="0" fill="#1F2937" font-family="monospace" font-size="13" font-weight="500">myapp_readonly</text>
      <text x="250" y="0" fill="#6B7280" font-family="monospace" font-size="12">192.168.1.%</text>
      <rect x="450" y="-10" width="90" height="20" rx="4" fill="#EFF6FF"/><text x="465" y="5" fill="#0050D7" font-family="system-ui, sans-serif" font-size="10">SELECT ONLY</text>
      <text x="700" y="0" fill="#6B7280" font-family="system-ui, sans-serif" font-size="12">20/02/2024</text>
      <text x="880" y="0" fill="#0050D7" font-family="system-ui, sans-serif" font-size="11">Modifier</text>
      <text x="950" y="0" fill="#DC2626" font-family="system-ui, sans-serif" font-size="11">Supprimer</text>
    </g>
    <line x1="20" y1="170" x2="1000" y2="170" stroke="#F3F4F6"/>
    <g transform="translate(20, 195)">
      <text x="0" y="0" fill="#1F2937" font-family="monospace" font-size="13" font-weight="500">backup_user</text>
      <text x="250" y="0" fill="#6B7280" font-family="monospace" font-size="12">localhost</text>
      <rect x="450" y="-10" width="120" height="20" rx="4" fill="#FEF3C7"/><text x="460" y="5" fill="#F59E0B" font-family="system-ui, sans-serif" font-size="10">SELECT, LOCK TABLES</text>
      <text x="700" y="0" fill="#6B7280" font-family="system-ui, sans-serif" font-size="12">05/03/2024</text>
      <text x="880" y="0" fill="#0050D7" font-family="system-ui, sans-serif" font-size="11">Modifier</text>
      <text x="950" y="0" fill="#DC2626" font-family="system-ui, sans-serif" font-size="11">Supprimer</text>
    </g>
    <!-- Empty state hint -->
    <g transform="translate(20, 260)">
      <rect x="0" y="0" width="980" height="40" rx="4" fill="#F9FAFB"/>
      <text x="15" y="26" fill="#6B7280" font-family="system-ui, sans-serif" font-size="12">💡 Conseil : Créez des utilisateurs avec des privilèges limités pour vos applications en production.</text>
    </g>
  </g>
</svg>
