<svg xmlns="http://www.w3.org/2000/svg" viewBox="0 0 1440 900" width="1440" height="900">
  <defs>
    <style>
      .bg-header { fill: #000E9C; }
      .bg-main { fill: #F6F6F9; }
      .bg-white { fill: #FFFFFF; }
      .bg-primary { fill: #0050D7; }
      .bg-success { fill: #DEF7EC; }
      .bg-info { fill: #DBEAFE; }
      .border { stroke: #E5E7EB; stroke-width: 1; fill: none; }
      .btn-outline { stroke: #0050D7; stroke-width: 1; fill: #FFFFFF; }
      .btn-primary { fill: #0050D7; }
      .row-selected { fill: #E8F0FE; }
      .text-white { fill: #FFFFFF; font-family: 'Source Sans Pro', sans-serif; }
      .text-dark { fill: #1F2937; font-family: 'Source Sans Pro', sans-serif; }
      .text-muted { fill: #6B7280; font-family: 'Source Sans Pro', sans-serif; }
      .text-primary { fill: #0050D7; font-family: 'Source Sans Pro', sans-serif; }
      .text-success { fill: #059669; font-family: 'Source Sans Pro', sans-serif; }
      .text-info { fill: #1E40AF; font-family: 'Source Sans Pro', sans-serif; }
    </style>
  </defs>

  <rect width="1440" height="900" class="bg-main"/>
  <rect width="1440" height="50" class="bg-header"/>
  <text x="510" y="32" class="text-white" font-size="14" font-weight="600">Web Cloud</text>
  <rect x="505" y="46" width="75" height="3" fill="#FFFFFF"/>
  <rect x="0" y="50" width="1440" height="40" class="bg-white"/>
  <line x1="0" y1="89" x2="1440" y2="89" stroke="#E5E7EB"/>
  <text x="550" y="75" class="text-primary" font-size="14" font-weight="600">Acces</text>
  <rect x="545" y="85" width="40" height="3" fill="#0050D7"/>

  <g transform="translate(0, 90)">
    <g transform="translate(24, 15)">
      <rect x="0" y="0" width="160" height="36" rx="6" fill="#0050D7"/>
      <text x="80" y="23" fill="#FFFFFF" font-size="13" text-anchor="middle" font-weight="500">Connexions  4</text>

      <rect x="168" y="0" width="160" height="36" rx="6" fill="#F3F4F6" stroke="#E5E7EB"/>
      <text x="248" y="23" fill="#6B7280" font-size="13" text-anchor="middle">OverTheBox  1</text>
    </g>

    <g transform="translate(24, 65)">
      <rect x="0" y="0" width="280" height="720" rx="8" class="bg-white"/>
      <rect x="0" y="0" width="280" height="720" rx="8" class="border"/>
      <text x="16" y="30" class="text-dark" font-size="15" font-weight="700">Connexions Internet</text>

      <g transform="translate(6, 50)">
        <rect x="0" y="0" width="268" height="100" rx="6" class="row-selected"/>
        <text x="12" y="22" class="text-dark" font-size="13" font-weight="600">Fibre Pro Paris</text>
        <text x="12" y="40" class="text-muted" font-size="11">FTTH · Pack Pro</text>
        <circle cx="18" cy="56" r="5" fill="#10B981"/>
        <text x="28" y="60" class="text-dark" font-size="11">Connecte</text>
        <text x="12" y="78" class="text-muted" font-size="10">↓ 1 Gbps  ↑ 500 Mbps</text>
        <text x="12" y="94" class="text-muted" font-size="10">Livebox 6</text>
      </g>

      <rect x="296" y="0" width="1096" height="720" rx="8" class="bg-white"/>
      <rect x="296" y="0" width="1096" height="720" rx="8" class="border"/>

      <g transform="translate(316, 0)">
        <text x="0" y="28" class="text-dark" font-size="18" font-weight="600">Fibre Pro Paris</text>
        <text x="0" y="48" class="text-muted" font-size="12">FTTH · Pack Pro · 12 rue Example, 75001 Paris</text>

        <!-- NAV3 -->
        <g transform="translate(0, 65)">
          <rect x="0" y="0" width="65" height="26" rx="4" class="bg-primary"/>
          <text x="32" y="17" class="text-white" font-size="11" text-anchor="middle">General</text>

          <rect x="69" y="0" width="55" height="26" rx="4" class="btn-outline"/>
          <text x="96" y="17" class="text-primary" font-size="11" text-anchor="middle">Ligne</text>

          <rect x="128" y="0" width="55" height="26" rx="4" class="btn-outline"/>
          <text x="155" y="17" class="text-primary" font-size="11" text-anchor="middle">Modem</text>

          <rect x="187" y="0" width="70" height="26" rx="4" class="btn-outline"/>
          <text x="222" y="17" class="text-primary" font-size="11" text-anchor="middle">Services</text>

          <rect x="261" y="0" width="45" height="26" rx="4" class="btn-outline"/>
          <text x="283" y="17" class="text-primary" font-size="11" text-anchor="middle">VoIP</text>

          <rect x="310" y="0" width="60" height="26" rx="4" class="btn-outline"/>
          <text x="340" y="17" class="text-primary" font-size="11" text-anchor="middle">Options</text>

          <rect x="374" y="0" width="55" height="26" rx="4" class="btn-outline"/>
          <text x="401" y="17" class="text-primary" font-size="11" text-anchor="middle">Taches</text>
        </g>

        <!-- Content -->
        <g transform="translate(0, 110)">
          <!-- Status card -->
          <rect x="0" y="0" width="520" height="180" rx="6" fill="#FFFFFF" stroke="#E5E7EB"/>
          <text x="16" y="25" class="text-dark" font-size="13" font-weight="600">STATUT CONNEXION</text>
          <line x1="16" y1="35" x2="504" y2="35" stroke="#E5E7EB"/>

          <circle cx="30" cy="60" r="8" fill="#10B981"/>
          <text x="45" y="65" class="text-success" font-size="14" font-weight="600">Connecte</text>
          <text x="150" y="65" class="text-muted" font-size="11">depuis 127 jours</text>

          <text x="16" y="95" class="text-muted" font-size="11">Technologie</text>
          <text x="150" y="95" class="text-dark" font-size="11">FTTH (Fibre optique)</text>

          <text x="16" y="115" class="text-muted" font-size="11">Offre</text>
          <text x="150" y="115" class="text-dark" font-size="11">Pack Pro Fibre</text>

          <text x="16" y="135" class="text-muted" font-size="11">Adresse</text>
          <text x="150" y="135" class="text-dark" font-size="11">12 rue Example, 75001 Paris</text>

          <text x="16" y="155" class="text-muted" font-size="11">NRO</text>
          <text x="150" y="155" class="text-dark" font-size="11">PAR-CHATELET-1</text>

          <text x="350" y="95" class="text-muted" font-size="11">Debit ↓</text>
          <text x="430" y="95" class="text-dark" font-size="13" font-weight="600">1 Gbps</text>

          <text x="350" y="120" class="text-muted" font-size="11">Debit ↑</text>
          <text x="430" y="120" class="text-dark" font-size="13" font-weight="600">500 Mbps</text>

          <!-- Modem card -->
          <g transform="translate(536, 0)">
            <rect x="0" y="0" width="520" height="180" rx="6" fill="#FFFFFF" stroke="#E5E7EB"/>
            <text x="16" y="25" class="text-dark" font-size="13" font-weight="600">EQUIPEMENT</text>
            <line x1="16" y1="35" x2="504" y2="35" stroke="#E5E7EB"/>

            <text x="16" y="65" class="text-muted" font-size="11">Modem</text>
            <text x="150" y="65" class="text-dark" font-size="11">Livebox 6 Pro</text>
            <rect x="280" y="52" width="50" height="18" rx="9" fill="#DEF7EC"/>
            <text x="305" y="65" class="text-success" font-size="9" text-anchor="middle">OVH</text>

            <text x="16" y="90" class="text-muted" font-size="11">MAC</text>
            <text x="150" y="90" class="text-dark" font-size="11">AA:BB:CC:DD:EE:FF</text>

            <text x="16" y="115" class="text-muted" font-size="11">Firmware</text>
            <text x="150" y="115" class="text-dark" font-size="11">4.12.0 (a jour)</text>

            <text x="16" y="140" class="text-muted" font-size="11">WiFi</text>
            <circle cx="156" cy="136" r="5" fill="#10B981"/>
            <text x="168" y="140" class="text-dark" font-size="11">Active</text>

            <rect x="350" y="110" width="100" height="28" rx="4" class="btn-outline"/>
            <text x="400" y="129" class="text-primary" font-size="10" text-anchor="middle">Configurer</text>
          </g>

          <!-- IP card -->
          <g transform="translate(0, 200)">
            <rect x="0" y="0" width="520" height="150" rx="6" fill="#FFFFFF" stroke="#E5E7EB"/>
            <text x="16" y="25" class="text-dark" font-size="13" font-weight="600">ADRESSES IP</text>
            <line x1="16" y1="35" x2="504" y2="35" stroke="#E5E7EB"/>

            <text x="16" y="60" class="text-muted" font-size="11">IPv4 WAN</text>
            <text x="150" y="60" class="text-dark" font-size="11">91.121.123.45</text>

            <text x="16" y="85" class="text-muted" font-size="11">IPv6</text>
            <text x="150" y="85" class="text-dark" font-size="11">2001:41d0:1234::1/64</text>

            <text x="16" y="110" class="text-muted" font-size="11">Gateway</text>
            <text x="150" y="110" class="text-dark" font-size="11">91.121.123.1</text>

            <text x="16" y="135" class="text-muted" font-size="11">DNS</text>
            <text x="150" y="135" class="text-dark" font-size="11">213.186.33.99, 213.186.33.98</text>

            <text x="400" y="135" class="text-primary" font-size="11">⚙ Gerer IPs</text>
          </g>

          <!-- Services card -->
          <g transform="translate(536, 200)">
            <rect x="0" y="0" width="520" height="150" rx="6" fill="#FFFFFF" stroke="#E5E7EB"/>
            <text x="16" y="25" class="text-dark" font-size="13" font-weight="600">SERVICES INCLUS</text>
            <line x1="16" y1="35" x2="504" y2="35" stroke="#E5E7EB"/>

            <circle cx="30" cy="60" r="5" fill="#10B981"/>
            <text x="45" y="65" class="text-dark" font-size="11">VoIP - 1 ligne</text>

            <circle cx="30" cy="85" r="5" fill="#10B981"/>
            <text x="45" y="90" class="text-dark" font-size="11">TV - Bouquet basique</text>

            <circle cx="30" cy="110" r="5" fill="#10B981"/>
            <text x="45" y="115" class="text-dark" font-size="11">IPv6 natif</text>

            <circle cx="250" cy="60" r="5" fill="#10B981"/>
            <text x="265" y="65" class="text-dark" font-size="11">Reverse DNS</text>

            <circle cx="250" cy="85" r="5" fill="#6B7280"/>
            <text x="265" y="90" class="text-muted" font-size="11">IPs failover</text>
            <text x="380" y="90" class="text-primary" font-size="10">Commander</text>
          </g>

          <!-- Info banner -->
          <g transform="translate(0, 370)">
            <rect x="0" y="0" width="1056" height="40" rx="6" class="bg-info"/>
            <text x="20" y="25" class="text-info" font-size="12">ℹ Votre connexion fonctionne normalement. Derniere verification: il y a 5 minutes.</text>
          </g>

          <!-- Quick actions -->
          <g transform="translate(0, 430)">
            <text x="0" y="15" class="text-dark" font-size="13" font-weight="600">ACTIONS RAPIDES</text>

            <rect x="0" y="30" width="200" height="60" rx="6" fill="#FFFFFF" stroke="#E5E7EB"/>
            <text x="16" y="55" class="text-dark" font-size="11">Diagnostic ligne</text>
            <text x="16" y="75" class="text-muted" font-size="10">Tester la qualite</text>
            <text x="160" y="65" class="text-primary" font-size="12">→</text>

            <rect x="220" y="30" width="200" height="60" rx="6" fill="#FFFFFF" stroke="#E5E7EB"/>
            <text x="236" y="55" class="text-dark" font-size="11">Redemarrer modem</text>
            <text x="236" y="75" class="text-muted" font-size="10">Reboot a distance</text>
            <text x="380" y="65" class="text-primary" font-size="12">→</text>

            <rect x="440" y="30" width="200" height="60" rx="6" fill="#FFFFFF" stroke="#E5E7EB"/>
            <text x="456" y="55" class="text-dark" font-size="11">Modifier mot de passe</text>
            <text x="456" y="75" class="text-muted" font-size="10">WiFi ou admin</text>
            <text x="600" y="65" class="text-primary" font-size="12">→</text>
          </g>
        </g>
      </g>
    </g>
  </g>
</svg>
