<svg xmlns="http://www.w3.org/2000/svg" viewBox="0 0 1440 750" width="1440" height="750">
  <defs>
    <style>
      .bg-header { fill: #000E9C; }
      .bg-muted { fill: #F9FAFB; }
      .bg-white { fill: #FFFFFF; }
      .bg-neutral { fill: #F3F4F6; }
      .text-body { font-family: 'Source Sans Pro', sans-serif; font-size: 14px; fill: #1F2937; }
      .text-title { font-family: 'Source Sans Pro', sans-serif; font-size: 24px; font-weight: 600; fill: #1F2937; }
      .text-muted { font-family: 'Source Sans Pro', sans-serif; font-size: 14px; fill: #6B7280; }
      .text-white { font-family: 'Source Sans Pro', sans-serif; font-size: 14px; fill: #FFFFFF; }
      .text-link { font-family: 'Source Sans Pro', sans-serif; font-size: 14px; fill: #0050D7; }
      .text-header { font-family: 'Source Sans Pro', sans-serif; font-size: 13px; font-weight: 600; fill: #374151; }
      .border { stroke: #E5E7EB; stroke-width: 1; fill: none; }
      .btn-primary { fill: #0050D7; }
      .btn-text { font-family: 'Source Sans Pro', sans-serif; font-size: 14px; fill: #FFFFFF; }
      .badge-done { fill: #DEF7EC; }
      .badge-done-text { font-family: 'Source Sans Pro', sans-serif; font-size: 12px; fill: #03543F; }
      .badge-progress { fill: #DBEAFE; }
      .badge-progress-text { font-family: 'Source Sans Pro', sans-serif; font-size: 12px; fill: #1E40AF; }
      .badge-scheduled { fill: #FEF3C7; }
      .badge-scheduled-text { font-family: 'Source Sans Pro', sans-serif; font-size: 12px; fill: #92400E; }
      .tile { fill: #FFFFFF; stroke: #E5E7EB; }
      .tab-active { fill: #0050D7; }
      .tab-inactive { fill: #6B7280; }
    </style>
  </defs>
  <rect width="1440" height="750" class="bg-muted"/>
  <rect width="1440" height="60" class="bg-header"/>
  <text x="80" y="38" class="text-white" font-size="18" font-weight="bold">OVHcloud</text>
  <rect x="0" y="60" width="240" height="690" class="bg-white"/>
  <rect x="240" y="60" width="1" height="690" class="border"/>
  <text x="20" y="100" class="text-muted" font-size="12">BARE METAL CLOUD</text>
  <rect x="0" y="115" width="240" height="40" fill="#E8F0FE"/>
  <text x="20" y="140" class="text-link" font-weight="600">Serveurs dédiés</text>
  <text x="40" y="175" class="text-body">ns1234567.ip-1-2-3.eu</text>
  <g transform="translate(280, 100)">
    <text x="0" y="0" class="text-title">ns1234567.ip-1-2-3.eu</text>
    <g transform="translate(0, 50)">
      <text x="0" y="0" class="tab-inactive">Informations générales</text>
      <text x="170" y="0" class="tab-inactive">Réseau</text>
      <text x="250" y="0" class="tab-inactive">IPMI</text>
      <text x="310" y="0" class="tab-inactive">Reinstall</text>
      <text x="400" y="0" class="tab-inactive">Backup</text>
      <text x="480" y="0" class="tab-inactive">Firewall</text>
      <text x="560" y="0" class="tab-inactive">DNS secondaire</text>
      <text x="680" y="0" class="tab-active" font-weight="600">Interventions</text>
      <rect x="680" y="8" width="85" height="3" fill="#0050D7"/>
    </g>
    <line x1="0" y1="65" x2="1100" y2="65" stroke="#E5E7EB"/>
    <g transform="translate(0, 90)">
      <rect x="0" y="0" width="1100" height="80" rx="8" class="tile"/>
      <text x="20" y="30" class="text-body" font-weight="600">Demander une intervention</text>
      <text x="20" y="55" class="text-muted">Intervention matérielle en datacenter (remplacement disque, RAM, etc.)</text>
      <g transform="translate(850, 20)">
        <rect x="0" y="0" width="230" height="36" rx="4" class="btn-primary"/>
        <text x="30" y="24" class="btn-text">Nouvelle intervention</text>
      </g>
    </g>
    <g transform="translate(0, 200)">
      <rect x="0" y="0" width="1100" height="400" rx="8" class="tile"/>
      <text x="20" y="35" class="text-body" font-weight="600">Historique des interventions</text>
      <line x1="0" y1="55" x2="1100" y2="55" stroke="#E5E7EB"/>
      <g transform="translate(0, 70)">
        <rect x="0" y="0" width="1100" height="35" class="bg-neutral"/>
        <text x="20" y="24" class="text-header">N° Ticket</text>
        <text x="150" y="24" class="text-header">Date</text>
        <text x="300" y="24" class="text-header">Type</text>
        <text x="500" y="24" class="text-header">Description</text>
        <text x="850" y="24" class="text-header">Statut</text>
        <text x="1000" y="24" class="text-header">Actions</text>
      </g>
      <g transform="translate(0, 105)">
        <text x="20" y="24" class="text-link">#INT-2025-12-4567</text>
        <text x="150" y="24" class="text-muted">15/12/2025</text>
        <text x="300" y="24" class="text-body">Remplacement disque</text>
        <text x="500" y="24" class="text-muted">Disque SSD slot 1 défaillant</text>
        <g transform="translate(850, 7)">
          <rect x="0" y="0" width="65" height="22" rx="11" class="badge-done"/>
          <text x="10" y="15" class="badge-done-text">Terminé</text>
        </g>
        <text x="1000" y="24" class="text-link">Détails</text>
      </g>
      <line x1="20" y1="145" x2="1080" y2="145" stroke="#E5E7EB"/>
      <g transform="translate(0, 160)">
        <text x="20" y="24" class="text-link">#INT-2025-11-4123</text>
        <text x="150" y="24" class="text-muted">20/11/2025</text>
        <text x="300" y="24" class="text-body">Ajout RAM</text>
        <text x="500" y="24" class="text-muted">Extension mémoire +32 Go</text>
        <g transform="translate(850, 7)">
          <rect x="0" y="0" width="65" height="22" rx="11" class="badge-done"/>
          <text x="10" y="15" class="badge-done-text">Terminé</text>
        </g>
        <text x="1000" y="24" class="text-link">Détails</text>
      </g>
      <line x1="20" y1="200" x2="1080" y2="200" stroke="#E5E7EB"/>
      <g transform="translate(0, 215)">
        <text x="20" y="24" class="text-link">#INT-2025-09-3890</text>
        <text x="150" y="24" class="text-muted">05/09/2025</text>
        <text x="300" y="24" class="text-body">Diagnostic matériel</text>
        <text x="500" y="24" class="text-muted">Vérification composants après alerte</text>
        <g transform="translate(850, 7)">
          <rect x="0" y="0" width="65" height="22" rx="11" class="badge-done"/>
          <text x="10" y="15" class="badge-done-text">Terminé</text>
        </g>
        <text x="1000" y="24" class="text-link">Détails</text>
      </g>
      <line x1="20" y1="255" x2="1080" y2="255" stroke="#E5E7EB"/>
      <g transform="translate(0, 270)">
        <text x="20" y="24" class="text-link">#INT-2025-06-2567</text>
        <text x="150" y="24" class="text-muted">12/06/2025</text>
        <text x="300" y="24" class="text-body">Remplacement alimentation</text>
        <text x="500" y="24" class="text-muted">PSU redondante défaillante</text>
        <g transform="translate(850, 7)">
          <rect x="0" y="0" width="65" height="22" rx="11" class="badge-done"/>
          <text x="10" y="15" class="badge-done-text">Terminé</text>
        </g>
        <text x="1000" y="24" class="text-link">Détails</text>
      </g>
    </g>
  </g>
</svg>
