<svg xmlns="http://www.w3.org/2000/svg" viewBox="0 0 1200 850" width="1200" height="850">
  <defs>
    <style>
      .bg-page { fill: #F9FAFB; }
      .bg-white { fill: #FFFFFF; }
      .bg-header { fill: #000E9C; }
      .bg-primary { fill: #0050D7; }
      .bg-info { fill: #EFF6FF; }
      .text-white { fill: #FFFFFF; font-family: 'Source Sans Pro', sans-serif; }
      .text-body { fill: #1F2937; font-family: 'Source Sans Pro', sans-serif; font-size: 14px; }
      .text-title { fill: #1F2937; font-family: 'Source Sans Pro', sans-serif; font-size: 18px; font-weight: 600; }
      .text-muted { fill: #6B7280; font-family: 'Source Sans Pro', sans-serif; font-size: 13px; }
      .text-link { fill: #0050D7; font-family: 'Source Sans Pro', sans-serif; font-size: 14px; }
      .text-info { fill: #1E40AF; font-family: 'Source Sans Pro', sans-serif; font-size: 13px; }
      .border { stroke: #E5E7EB; stroke-width: 1; fill: none; }
      .border-primary { stroke: #0050D7; stroke-width: 2; fill: none; }
      .card { fill: #FFFFFF; }
    </style>
  </defs>

  <!-- Background -->
  <rect width="1200" height="850" class="bg-page"/>

  <!-- Header OVHcloud -->
  <rect width="1200" height="56" class="bg-header"/>
  <text x="20" y="35" class="text-white" font-size="18" font-weight="bold">OVHcloud</text>

  <!-- Breadcrumb -->
  <g transform="translate(40, 80)">
    <text class="text-muted" font-size="13">
      <tspan>Télécom</tspan>
      <tspan dx="5">›</tspan>
      <tspan dx="5" class="text-link">Groupe VoIP</tspan>
      <tspan dx="5">›</tspan>
      <tspan dx="5" class="text-link">Numéro alias 0033972XXXXXX</tspan>
      <tspan dx="5">›</tspan>
      <tspan dx="5">Configuration du numéro</tspan>
    </text>
  </g>

  <!-- Page Title -->
  <text x="40" y="130" class="text-title" font-size="24">Configuration du numéro</text>

  <!-- Collapsible section -->
  <g transform="translate(40, 160)">
    <rect width="800" height="40" rx="4" class="card"/>
    <rect width="800" height="40" rx="4" class="border"/>
    <text x="15" y="26" class="text-body" font-weight="600">À quoi sert la configuration du numéro ?</text>
    <text x="770" y="26" class="text-muted">▼</text>
  </g>

  <!-- Mode toggle button -->
  <g transform="translate(40, 220)">
    <rect width="200" height="36" rx="4" class="card"/>
    <rect width="200" height="36" rx="4" class="border"/>
    <text x="100" y="23" text-anchor="middle" class="text-body">Passer en mode expert</text>
  </g>

  <!-- Feature type cards - Row 1 -->
  <!-- Card 1: Redirection -->
  <g transform="translate(40, 280)">
    <rect width="360" height="220" rx="8" class="card"/>
    <rect width="360" height="220" rx="8" class="border-primary"/>

    <!-- Radio selected -->
    <circle cx="30" cy="30" r="10" fill="white" stroke="#0050D7" stroke-width="2"/>
    <circle cx="30" cy="30" r="5" fill="#0050D7"/>

    <text x="50" y="35" class="text-title">Redirection</text>

    <!-- Schema placeholder -->
    <g transform="translate(20, 55)">
      <rect width="320" height="80" rx="4" fill="#EFF6FF"/>
      <!-- Simplified redirect schema -->
      <circle cx="50" cy="40" r="20" fill="#0050D7" opacity="0.2"/>
      <text x="50" y="45" text-anchor="middle" fill="#0050D7" font-size="20">📞</text>
      <line x1="80" y1="40" x2="140" y2="40" stroke="#0050D7" stroke-width="2" stroke-dasharray="5,3"/>
      <text x="160" y="45" fill="#0050D7" font-size="16">→</text>
      <circle cx="220" cy="40" r="20" fill="#0050D7" opacity="0.2"/>
      <text x="220" y="45" text-anchor="middle" fill="#0050D7" font-size="20">📱</text>
    </g>

    <text x="20" y="165" class="text-body" font-size="13">Redirigez les appels entrants vers</text>
    <text x="20" y="185" class="text-body" font-size="13">un autre numéro ou une ligne.</text>
  </g>

  <!-- Card 2: File d'appels (Contact Center Solution) -->
  <g transform="translate(420, 280)">
    <rect width="360" height="220" rx="8" class="card"/>
    <rect width="360" height="220" rx="8" class="border"/>

    <!-- Radio unselected -->
    <circle cx="30" cy="30" r="10" fill="white" stroke="#E5E7EB" stroke-width="2"/>

    <text x="50" y="35" class="text-title">File d'appels</text>

    <!-- Schema placeholder -->
    <g transform="translate(20, 55)">
      <rect width="320" height="80" rx="4" fill="#EFF6FF"/>
      <!-- Simplified queue schema -->
      <circle cx="40" cy="40" r="15" fill="#0050D7" opacity="0.2"/>
      <text x="40" y="45" text-anchor="middle" fill="#0050D7" font-size="14">📞</text>
      <line x1="65" y1="40" x2="100" y2="40" stroke="#0050D7" stroke-width="2"/>
      <rect x="110" y="25" width="80" height="30" rx="4" fill="#0050D7" opacity="0.2"/>
      <text x="150" y="45" text-anchor="middle" fill="#0050D7" font-size="10">File</text>
      <line x1="200" y1="30" x2="250" y2="20" stroke="#0050D7" stroke-width="1"/>
      <line x1="200" y1="40" x2="250" y2="40" stroke="#0050D7" stroke-width="1"/>
      <line x1="200" y1="50" x2="250" y2="60" stroke="#0050D7" stroke-width="1"/>
      <circle cx="270" cy="20" r="12" fill="#0050D7" opacity="0.2"/>
      <circle cx="270" cy="40" r="12" fill="#0050D7" opacity="0.2"/>
      <circle cx="270" cy="60" r="12" fill="#0050D7" opacity="0.2"/>
    </g>

    <text x="20" y="165" class="text-body" font-size="13">Gérez vos appels entrants avec une</text>
    <text x="20" y="185" class="text-body" font-size="13">file d'attente et des agents.</text>
  </g>

  <!-- Row 2 -->
  <!-- Card 3: Serveur Vocal Interactif -->
  <g transform="translate(40, 520)">
    <rect width="360" height="220" rx="8" class="card"/>
    <rect width="360" height="220" rx="8" class="border"/>

    <!-- Radio unselected -->
    <circle cx="30" cy="30" r="10" fill="white" stroke="#E5E7EB" stroke-width="2"/>

    <text x="50" y="35" class="text-title">Serveur Vocal Interactif</text>

    <!-- Schema placeholder -->
    <g transform="translate(20, 55)">
      <rect width="320" height="80" rx="4" fill="#EFF6FF"/>
      <!-- Simplified IVR schema -->
      <circle cx="50" cy="40" r="20" fill="#0050D7" opacity="0.2"/>
      <text x="50" y="45" text-anchor="middle" fill="#0050D7" font-size="16">📞</text>
      <line x1="80" y1="40" x2="120" y2="40" stroke="#0050D7" stroke-width="2"/>
      <rect x="130" y="20" width="60" height="40" rx="4" fill="#0050D7" opacity="0.3"/>
      <text x="160" y="45" text-anchor="middle" fill="#0050D7" font-size="10">Menu</text>
      <text x="210" y="30" fill="#0050D7" font-size="10">1→</text>
      <text x="210" y="45" fill="#0050D7" font-size="10">2→</text>
      <text x="210" y="60" fill="#0050D7" font-size="10">3→</text>
    </g>

    <text x="20" y="165" class="text-body" font-size="13">Créez un menu interactif pour</text>
    <text x="20" y="185" class="text-body" font-size="13">orienter vos appelants.</text>
  </g>

  <!-- Card 4: Conférence -->
  <g transform="translate(420, 520)">
    <rect width="360" height="220" rx="8" class="card"/>
    <rect width="360" height="220" rx="8" class="border"/>

    <!-- Radio unselected -->
    <circle cx="30" cy="30" r="10" fill="white" stroke="#E5E7EB" stroke-width="2"/>

    <text x="50" y="35" class="text-title">Conférence</text>

    <!-- Schema placeholder -->
    <g transform="translate(20, 55)">
      <rect width="320" height="80" rx="4" fill="#EFF6FF"/>
      <!-- Simplified conference schema -->
      <circle cx="160" cy="40" r="25" fill="#0050D7" opacity="0.2"/>
      <text x="160" y="45" text-anchor="middle" fill="#0050D7" font-size="12">Conf</text>
      <circle cx="80" cy="25" r="15" fill="#0050D7" opacity="0.2"/>
      <circle cx="80" cy="55" r="15" fill="#0050D7" opacity="0.2"/>
      <circle cx="240" cy="25" r="15" fill="#0050D7" opacity="0.2"/>
      <circle cx="240" cy="55" r="15" fill="#0050D7" opacity="0.2"/>
      <line x1="100" y1="30" x2="135" y2="35" stroke="#0050D7" stroke-width="1"/>
      <line x1="100" y1="50" x2="135" y2="45" stroke="#0050D7" stroke-width="1"/>
      <line x1="185" y1="35" x2="220" y2="30" stroke="#0050D7" stroke-width="1"/>
      <line x1="185" y1="45" x2="220" y2="50" stroke="#0050D7" stroke-width="1"/>
    </g>

    <text x="20" y="165" class="text-body" font-size="13">Organisez des conférences</text>
    <text x="20" y="185" class="text-body" font-size="13">téléphoniques multiparticipants.</text>
  </g>

  <!-- Bulk action link -->
  <text x="40" y="770" class="text-link" font-size="13">Appliquer à plusieurs services</text>

  <!-- Submit button -->
  <g transform="translate(40, 790)">
    <rect width="140" height="40" rx="4" fill="#0050D7"/>
    <text x="70" y="26" text-anchor="middle" class="text-white" font-size="14">Paramétrer</text>
  </g>
</svg>
