<svg xmlns="http://www.w3.org/2000/svg" viewBox="0 0 1440 900" width="1440" height="900">
  <defs>
    <style>
      .bg-header { fill: #000E9C; }
      .bg-main { fill: #F6F6F9; }
      .bg-white { fill: #FFFFFF; }
      .bg-primary { fill: #0050D7; }
      .border { stroke: #E5E7EB; stroke-width: 1; fill: none; }
      .table-header { fill: #F9FAFB; }
      .text-white { fill: #FFFFFF; font-family: 'Source Sans Pro', sans-serif; }
      .text-dark { fill: #1F2937; font-family: 'Source Sans Pro', sans-serif; }
      .text-muted { fill: #6B7280; font-family: 'Source Sans Pro', sans-serif; }
      .text-primary { fill: #0050D7; font-family: 'Source Sans Pro', sans-serif; }
      .text-error { fill: #DC2626; font-family: 'Source Sans Pro', sans-serif; }
    </style>
  </defs>

  <rect width="1440" height="900" class="bg-main"/>

  <!-- NAV1 -->
  <rect width="1440" height="50" class="bg-header"/>
  <text x="40" y="32" class="text-white" font-size="14" opacity="0.7">Accueil</text>
  <text x="110" y="32" class="text-white" font-size="14" opacity="0.7">Public Cloud</text>
  <text x="210" y="32" class="text-white" font-size="14" opacity="0.7">Hosted Private Cloud</text>
  <text x="370" y="32" class="text-white" font-size="14" opacity="0.7">Bare Metal Cloud</text>
  <text x="510" y="32" class="text-white" font-size="14" font-weight="600">Web Cloud</text>
  <rect x="505" y="46" width="75" height="3" fill="#FFFFFF"/>
  <text x="620" y="32" class="text-white" font-size="14" opacity="0.7">Network</text>
  <text x="700" y="32" class="text-white" font-size="14" opacity="0.7">IAM / Securite</text>
  <text x="810" y="32" class="text-white" font-size="14" opacity="0.7">Licences</text>

  <!-- NAV2 -->
  <rect x="0" y="50" width="1440" height="40" class="bg-white"/>
  <line x1="0" y1="89" x2="1440" y2="89" stroke="#E5E7EB"/>
  <text x="40" y="75" class="text-muted" font-size="14">Accueil</text>
  <text x="110" y="75" class="text-muted" font-size="14">Domaines et DNS</text>
  <text x="240" y="75" class="text-muted" font-size="14">Hebergement</text>
  <text x="345" y="75" class="text-muted" font-size="14">Wordpress</text>
  <text x="430" y="75" class="text-muted" font-size="14">Emails</text>
  <text x="500" y="75" class="text-primary" font-size="14" font-weight="600">VoIP</text>
  <rect x="495" y="85" width="35" height="3" fill="#0050D7"/>
  <text x="550" y="75" class="text-muted" font-size="14">Acces</text>
  <text x="1350" y="75" class="text-primary" font-size="13">Guides</text>

  <!-- CONTENT -->
  <g transform="translate(0, 105)">
    <g transform="translate(24, 0)">
      <!-- LEFT PANEL -->
      <rect x="0" y="0" width="280" height="765" rx="8" class="bg-white"/>
      <rect x="0" y="0" width="280" height="765" rx="8" class="border"/>
      <rect x="12" y="12" width="256" height="34" rx="4" fill="#F9FAFB" stroke="#E5E7EB"/>
      <text x="26" y="34" class="text-muted" font-size="12">Rechercher...</text>
      <text x="12" y="68" class="text-muted" font-size="11">2 groupes</text>

      <!-- Service item selected -->
      <g transform="translate(6, 80)">
        <rect x="0" y="0" width="268" height="72" rx="6" fill="#E8F0FE"/>
        <circle cx="28" cy="36" r="18" fill="#0050D7"/>
        <text x="28" y="41" fill="#FFFFFF" font-size="10" text-anchor="middle">VoIP</text>
        <text x="56" y="26" class="text-dark" font-size="13" font-weight="500">Telephonie Bureau</text>
        <text x="56" y="44" class="text-muted" font-size="11">OVH-TELECOM-12345</text>
        <text x="56" y="60" class="text-muted" font-size="10">3 lignes - 5 numeros - 1 fax</text>
      </g>
    </g>

    <g transform="translate(320, 0)">
      <!-- RIGHT PANEL -->
      <rect x="0" y="0" width="1096" height="765" rx="8" class="bg-white"/>
      <rect x="0" y="0" width="1096" height="765" rx="8" class="border"/>

      <g transform="translate(20, 0)">
        <!-- Header -->
        <text x="0" y="24" class="text-dark" font-size="18" font-weight="600">OVH-TELECOM-12345</text>
        <text x="0" y="42" class="text-muted" font-size="12">Telephonie Bureau</text>

        <!-- NAV3 -->
        <g transform="translate(0, 55)">
          <rect x="0" y="0" width="80" height="26" rx="4" fill="#FFFFFF" stroke="#0050D7"/>
          <text x="40" y="17" class="text-primary" font-size="11" text-anchor="middle">Dashboard</text>
          <rect x="84" y="0" width="65" height="26" rx="4" fill="#FFFFFF" stroke="#0050D7"/>
          <text x="116" y="17" class="text-primary" font-size="11" text-anchor="middle">Services</text>
          <rect x="153" y="0" width="75" height="26" rx="4" fill="#FFFFFF" stroke="#0050D7"/>
          <text x="190" y="17" class="text-primary" font-size="11" text-anchor="middle">Repertoire</text>
          <rect x="232" y="0" width="80" height="26" rx="4" fill="#FFFFFF" stroke="#0050D7"/>
          <text x="272" y="17" class="text-primary" font-size="11" text-anchor="middle">Facturation</text>
          <rect x="316" y="0" width="100" height="26" rx="4" fill="#0050D7"/>
          <text x="366" y="17" class="text-white" font-size="11" text-anchor="middle">Administration</text>
        </g>

        <!-- NAV4 -->
        <g transform="translate(0, 90)">
          <text x="0" y="14" class="text-muted" font-size="12">Parametres</text>
          <text x="90" y="14" class="text-primary" font-size="12" font-weight="500">Contacts</text>
          <rect x="90" y="18" width="55" height="2" fill="#0050D7"/>
          <text x="170" y="14" class="text-muted" font-size="12">Securite</text>
        </g>

        <!-- Toolbar -->
        <g transform="translate(0, 120)">
          <rect x="900" y="0" width="150" height="32" rx="4" fill="#0050D7"/>
          <text x="975" y="21" class="text-white" font-size="11" text-anchor="middle">+ Ajouter contact</text>
        </g>

        <!-- Table -->
        <g transform="translate(0, 165)">
          <!-- Header -->
          <rect x="0" y="0" width="1056" height="36" class="table-header"/>
          <text x="20" y="23" class="text-dark" font-size="11" font-weight="600">Nom</text>
          <text x="200" y="23" class="text-dark" font-size="11" font-weight="600">Email</text>
          <text x="450" y="23" class="text-dark" font-size="11" font-weight="600">Telephone</text>
          <text x="600" y="23" class="text-dark" font-size="11" font-weight="600">Role</text>
          <text x="800" y="23" class="text-dark" font-size="11" font-weight="600">Notifications</text>
          <text x="980" y="23" class="text-dark" font-size="11" font-weight="600">Actions</text>

          <!-- Row 1 -->
          <rect x="0" y="36" width="1056" height="45" class="bg-white"/>
          <line x1="0" y1="81" x2="1056" y2="81" stroke="#E5E7EB"/>
          <text x="20" y="64" class="text-dark" font-size="11">Jean Dupont</text>
          <text x="200" y="64" class="text-dark" font-size="11">jean.dupont@example.com</text>
          <text x="450" y="64" class="text-dark" font-size="11">+33 6 12 34 56 78</text>
          <rect x="600" y="50" width="80" height="18" rx="9" fill="#DBEAFE"/>
          <text x="640" y="63" fill="#1E40AF" font-size="10" text-anchor="middle">Admin</text>
          <text x="800" y="64" class="text-dark" font-size="11">Email, SMS</text>
          <text x="980" y="64" class="text-primary" font-size="11">Modifier</text>

          <!-- Row 2 -->
          <rect x="0" y="81" width="1056" height="45" class="bg-white"/>
          <line x1="0" y1="126" x2="1056" y2="126" stroke="#E5E7EB"/>
          <text x="20" y="109" class="text-dark" font-size="11">Marie Martin</text>
          <text x="200" y="109" class="text-dark" font-size="11">marie.martin@example.com</text>
          <text x="450" y="109" class="text-dark" font-size="11">+33 6 98 76 54 32</text>
          <rect x="600" y="95" width="80" height="18" rx="9" fill="#F3F4F6"/>
          <text x="640" y="108" fill="#6B7280" font-size="10" text-anchor="middle">Technique</text>
          <text x="800" y="109" class="text-dark" font-size="11">Email</text>
          <text x="980" y="109" class="text-primary" font-size="11">Modifier</text>
          <text x="1030" y="109" class="text-error" font-size="11">Suppr</text>

          <!-- Row 3 -->
          <rect x="0" y="126" width="1056" height="45" class="bg-white"/>
          <line x1="0" y1="171" x2="1056" y2="171" stroke="#E5E7EB"/>
          <text x="20" y="154" class="text-dark" font-size="11">Pierre Durand</text>
          <text x="200" y="154" class="text-dark" font-size="11">pierre.durand@example.com</text>
          <text x="450" y="154" class="text-dark" font-size="11">+33 6 11 22 33 44</text>
          <rect x="600" y="140" width="80" height="18" rx="9" fill="#F3F4F6"/>
          <text x="640" y="153" fill="#6B7280" font-size="10" text-anchor="middle">Facturation</text>
          <text x="800" y="154" class="text-dark" font-size="11">Email</text>
          <text x="980" y="154" class="text-primary" font-size="11">Modifier</text>
          <text x="1030" y="154" class="text-error" font-size="11">Suppr</text>
        </g>

        <!-- Info -->
        <g transform="translate(0, 380)">
          <rect x="0" y="0" width="700" height="40" rx="6" fill="#DBEAFE"/>
          <text x="20" y="25" fill="#1E40AF" font-size="12">Les contacts recoivent les notifications selon leur role et preferences.</text>
        </g>
      </g>
    </g>
  </g>
</svg>
