<svg xmlns="http://www.w3.org/2000/svg" viewBox="0 0 1440 900" width="1440" height="900">
  <defs>
    <style>
      .bg-header { fill: #000E9C; }
      .bg-sidebar { fill: #FFFFFF; }
      .bg-muted { fill: #F9FAFB; }
      .bg-white { fill: #FFFFFF; }
      .bg-primary { fill: #0050D7; }
      .bg-primary-light { fill: #E8F0FE; }
      .bg-neutral-100 { fill: #F3F4F6; }
      .bg-success { fill: #DEF7EC; }
      .border { stroke: #E5E7EB; stroke-width: 1; fill: none; }
      .text-white { fill: #FFFFFF; font-family: 'Source Sans Pro', sans-serif; }
      .text-body { fill: #1F2937; font-family: 'Source Sans Pro', sans-serif; font-size: 14px; }
      .text-muted { fill: #6B7280; font-family: 'Source Sans Pro', sans-serif; font-size: 14px; }
      .text-primary { fill: #0050D7; font-family: 'Source Sans Pro', sans-serif; font-size: 14px; }
      .text-title { fill: #1F2937; font-family: 'Source Sans Pro', sans-serif; font-size: 24px; font-weight: 600; }
      .text-small { fill: #6B7280; font-family: 'Source Sans Pro', sans-serif; font-size: 12px; }
      .text-success { fill: #03543F; font-family: 'Source Sans Pro', sans-serif; font-size: 12px; }
      .btn-primary { fill: #0050D7; }
      .btn-text { fill: #FFFFFF; font-family: 'Source Sans Pro', sans-serif; font-size: 14px; font-weight: 500; }
    </style>
  </defs>
  
  <!-- Background -->
  <rect width="1440" height="900" class="bg-muted"/>
  
  <!-- Header -->
  <rect width="1440" height="60" class="bg-header"/>
  <text x="80" y="38" class="text-white" font-size="18" font-weight="600">OVHcloud</text>
  
  <!-- Sidebar -->
  <rect x="0" y="60" width="240" height="840" class="bg-sidebar"/>
  <rect x="0" y="60" width="240" height="840" class="border"/>
  
  <rect x="0" y="120" width="240" height="40" class="bg-primary-light"/>
  <rect x="0" y="120" width="4" height="40" class="bg-primary"/>
  <text x="50" y="145" class="text-primary" font-weight="600">Microsoft 365</text>
  
  <!-- Main Content -->
  <g transform="translate(280, 100)">
    <!-- Breadcrumb -->
    <text x="0" y="0" class="text-muted" font-size="13">Web Cloud › Microsoft 365</text>
    
    <!-- Title + Button Row -->
    <text x="0" y="50" class="text-title">Mes comptes Microsoft 365</text>
    <rect x="920" y="25" width="180" height="40" rx="4" class="btn-primary"/>
    <text x="955" y="50" class="btn-text">+ Commander un service</text>
    
    <!-- Search Bar -->
    <rect x="0" y="80" width="400" height="40" rx="4" class="bg-white"/>
    <rect x="0" y="80" width="400" height="40" rx="4" class="border"/>
    <text x="15" y="105" class="text-muted">🔍 Rechercher...</text>
    
    <!-- Table -->
    <rect x="0" y="140" width="1100" height="50" class="bg-neutral-100"/>
    <rect x="0" y="140" width="1100" height="50" class="border"/>
    
    <text x="30" y="170" class="text-body" font-weight="600">ID du groupe</text>
    <text x="280" y="170" class="text-body" font-weight="600">Nom du groupe</text>
    <text x="550" y="170" class="text-body" font-weight="600">Utilisateurs</text>
    <text x="700" y="170" class="text-body" font-weight="600">Type</text>
    <text x="900" y="170" class="text-body" font-weight="600">Statut</text>
    <text x="1020" y="170" class="text-body" font-weight="600">Actions</text>
    
    <!-- Row 1 -->
    <rect x="0" y="190" width="1100" height="60" class="bg-white"/>
    <rect x="0" y="190" width="1100" height="60" class="border"/>
    
    <text x="30" y="225" class="text-primary">office365-abc123</text>
    <text x="280" y="225" class="text-body">Mon entreprise - Microsoft 365</text>
    <text x="550" y="225" class="text-body">12</text>
    <text x="700" y="225" class="text-body">Prépayé</text>
    <rect x="900" y="210" width="60" height="24" rx="12" class="bg-success"/>
    <text x="915" y="227" class="text-success">Actif</text>
    <text x="1030" y="225" class="text-muted">⋮</text>
    
    <!-- Row 2 -->
    <rect x="0" y="250" width="1100" height="60" class="bg-white"/>
    <rect x="0" y="250" width="1100" height="60" class="border"/>
    
    <text x="30" y="285" class="text-primary">office365-xyz789</text>
    <text x="280" y="285" class="text-body">Filiale Paris - Office</text>
    <text x="550" y="285" class="text-body">5</text>
    <text x="700" y="285" class="text-body">Paiement à l'utilisation</text>
    <rect x="900" y="270" width="60" height="24" rx="12" class="bg-success"/>
    <text x="915" y="287" class="text-success">Actif</text>
    <text x="1030" y="285" class="text-muted">⋮</text>
    
    <!-- Row 3 -->
    <rect x="0" y="310" width="1100" height="60" class="bg-white"/>
    <rect x="0" y="310" width="1100" height="60" class="border"/>
    
    <text x="30" y="345" class="text-primary">office365-def456</text>
    <text x="280" y="345" class="text-body">Équipe Marketing</text>
    <text x="550" y="345" class="text-body">8</text>
    <text x="700" y="345" class="text-body">Prépayé</text>
    <rect x="900" y="330" width="60" height="24" rx="12" class="bg-success"/>
    <text x="915" y="347" class="text-success">Actif</text>
    <text x="1030" y="345" class="text-muted">⋮</text>
    
    <!-- Pagination -->
    <g transform="translate(0, 400)">
      <text x="0" y="20" class="text-muted">Affichage 1-3 sur 3 résultats</text>
      <rect x="950" y="0" width="35" height="35" rx="4" class="bg-white"/>
      <rect x="950" y="0" width="35" height="35" rx="4" class="border"/>
      <text x="963" y="23" class="text-muted">‹</text>
      <rect x="995" y="0" width="35" height="35" rx="4" class="bg-primary"/>
      <text x="1007" y="23" class="btn-text">1</text>
      <rect x="1040" y="0" width="35" height="35" rx="4" class="bg-white"/>
      <rect x="1040" y="0" width="35" height="35" rx="4" class="border"/>
      <text x="1053" y="23" class="text-muted">›</text>
    </g>
  </g>
</svg>
