<svg xmlns="http://www.w3.org/2000/svg" viewBox="0 0 1440 850" width="1440" height="850">
  <defs>
    <style>
      .bg-header { fill: #000E9C; }
      .bg-muted { fill: #F9FAFB; }
      .bg-white { fill: #FFFFFF; }
      .bg-primary { fill: #0050D7; }
      .bg-success { fill: #10B981; }
      .text-white { font-family: 'Source Sans Pro', sans-serif; fill: #FFFFFF; }
      .text-body { font-family: 'Source Sans Pro', sans-serif; font-size: 14px; fill: #1F2937; }
      .text-muted { font-family: 'Source Sans Pro', sans-serif; font-size: 14px; fill: #6B7280; }
      .text-heading { font-family: 'Source Sans Pro', sans-serif; font-size: 18px; font-weight: 600; fill: #1F2937; }
      .text-link { font-family: 'Source Sans Pro', sans-serif; font-size: 14px; fill: #0050D7; }
      .text-success { fill: #059669; }
      .border { stroke: #E5E7EB; stroke-width: 1; fill: none; }
      .tab-active { fill: #0050D7; }
      .tab-inactive { fill: #6B7280; }
      .chip-success { fill: #D1FAE5; }
      .progress-bg { fill: #E5E7EB; }
      .progress-fill { fill: #0050D7; }
    </style>
  </defs>
  <rect width="1440" height="850" class="bg-muted"/>
  <rect width="1440" height="60" class="bg-header"/>
  <text x="80" y="38" class="text-white" font-size="20" font-weight="bold">OVHcloud</text>
  
  <rect x="0" y="60" width="240" height="790" class="bg-white"/>
  <rect x="240" y="60" width="1" height="790" class="border"/>
  <text x="20" y="100" class="text-muted" font-size="12" font-weight="600">EMAILS</text>
  <rect x="0" y="110" width="240" height="40" fill="#E8F0FE"/>
  <text x="20" y="136" class="text-link" font-weight="600">Email Pro</text>
  <text x="20" y="175" class="text-muted" font-size="13">Exchange</text>
  <text x="20" y="200" class="text-muted" font-size="13">Mailing lists</text>
  
  <g transform="translate(280, 80)">
    <text x="0" y="20" class="text-muted" font-size="12">Emails / Email Pro / monsite.fr</text>
    
    <g transform="translate(0, 40)">
      <text x="0" y="25" font-family="Source Sans Pro" font-size="28" font-weight="600" fill="#1F2937">Email Pro - monsite.fr</text>
      <g transform="translate(350, 10)">
        <rect width="80" height="28" rx="14" class="chip-success"/>
        <circle cx="18" cy="14" r="5" class="bg-success"/>
        <text x="30" y="19" class="text-success" font-size="13">Actif</text>
      </g>
    </g>
    
    <!-- Tabs -->
    <g transform="translate(0, 100)">
      <text x="0" y="20" class="tab-active" font-size="14" font-weight="600">Informations générales</text>
      <rect x="0" y="28" width="150" height="3" class="bg-primary"/>
      <text x="180" y="20" class="tab-inactive" font-size="14">Comptes email</text>
      <text x="310" y="20" class="tab-inactive" font-size="14">Groupes</text>
      <text x="400" y="20" class="tab-inactive" font-size="14">Redirections</text>
      <text x="520" y="20" class="tab-inactive" font-size="14">Tâches</text>
    </g>
    
    <!-- Tiles row 1 -->
    <g transform="translate(0, 150)">
      <!-- Service tile -->
      <g>
        <rect width="350" height="200" rx="8" class="bg-white"/>
        <rect width="350" height="200" rx="8" class="border"/>
        <text x="20" y="35" class="text-heading">Service</text>
        
        <text x="20" y="70" class="text-muted" font-size="12">Offre</text>
        <text x="20" y="90" class="text-body">Email Pro</text>
        
        <text x="180" y="70" class="text-muted" font-size="12">Serveur</text>
        <text x="180" y="90" class="text-body">pro1.mail.ovh.net</text>
        
        <text x="20" y="125" class="text-muted" font-size="12">Domaine</text>
        <text x="20" y="145" class="text-body">monsite.fr</text>
        
        <text x="180" y="125" class="text-muted" font-size="12">Webmail</text>
        <text x="180" y="145" class="text-link">pro.mail.ovh.net</text>
      </g>
      
      <!-- Quota tile -->
      <g transform="translate(370, 0)">
        <rect width="350" height="200" rx="8" class="bg-white"/>
        <rect width="350" height="200" rx="8" class="border"/>
        <text x="20" y="35" class="text-heading">Comptes email</text>
        
        <text x="20" y="70" class="text-muted" font-size="12">Utilisés / Disponibles</text>
        <text x="20" y="95" font-family="Source Sans Pro" font-size="24" font-weight="600" fill="#1F2937">5 / 10</text>
        
        <g transform="translate(20, 115)">
          <rect width="310" height="12" rx="6" class="progress-bg"/>
          <rect width="155" height="12" rx="6" class="progress-fill"/>
        </g>
        
        <text x="20" y="150" class="text-body">50% utilisé</text>
        
        <g transform="translate(20, 165)">
          <rect width="180" height="28" rx="4" class="bg-primary"/>
          <text x="15" y="19" class="text-white" font-size="12">+ Commander des comptes</text>
        </g>
      </g>
      
      <!-- Storage tile -->
      <g transform="translate(740, 0)">
        <rect width="350" height="200" rx="8" class="bg-white"/>
        <rect width="350" height="200" rx="8" class="border"/>
        <text x="20" y="35" class="text-heading">Espace total utilisé</text>
        
        <text x="20" y="95" font-family="Source Sans Pro" font-size="32" font-weight="600" fill="#1F2937">12.4 Go</text>
        <text x="20" y="120" class="text-muted">sur 50 Go (5 x 10 Go)</text>
        
        <g transform="translate(20, 140)">
          <rect width="310" height="8" rx="4" class="progress-bg"/>
          <rect width="77" height="8" rx="4" class="progress-fill"/>
        </g>
        <text x="20" y="170" class="text-success" font-size="12">24.8% utilisé</text>
      </g>
    </g>
    
    <!-- Tiles row 2 -->
    <g transform="translate(0, 370)">
      <!-- Accounts list tile -->
      <g>
        <rect width="740" height="250" rx="8" class="bg-white"/>
        <rect width="740" height="250" rx="8" class="border"/>
        <text x="20" y="35" class="text-heading">Comptes récents</text>
        
        <g transform="translate(20, 60)">
          <rect width="700" height="40" rx="4" fill="#F9FAFB"/>
          <text x="12" y="26" class="text-body">📧 contact@monsite.fr</text>
          <text x="350" y="26" class="text-muted">4.2 Go / 10 Go</text>
          <text x="550" y="26" class="text-success">Actif</text>
          <text x="650" y="26" class="text-link">Gérer</text>
        </g>
        <g transform="translate(20, 108)">
          <rect width="700" height="40" rx="4" fill="#FFFFFF" stroke="#E5E7EB"/>
          <text x="12" y="26" class="text-body">📧 info@monsite.fr</text>
          <text x="350" y="26" class="text-muted">2.8 Go / 10 Go</text>
          <text x="550" y="26" class="text-success">Actif</text>
          <text x="650" y="26" class="text-link">Gérer</text>
        </g>
        <g transform="translate(20, 156)">
          <rect width="700" height="40" rx="4" fill="#F9FAFB"/>
          <text x="12" y="26" class="text-body">📧 support@monsite.fr</text>
          <text x="350" y="26" class="text-muted">3.1 Go / 10 Go</text>
          <text x="550" y="26" class="text-success">Actif</text>
          <text x="650" y="26" class="text-link">Gérer</text>
        </g>
        
        <text x="20" y="230" class="text-link">Voir tous les comptes →</text>
      </g>
      
      <!-- Configuration tile -->
      <g transform="translate(760, 0)">
        <rect width="330" height="250" rx="8" class="bg-white"/>
        <rect width="330" height="250" rx="8" class="border"/>
        <text x="20" y="35" class="text-heading">Configuration client</text>
        
        <text x="20" y="70" class="text-muted" font-size="12">IMAP</text>
        <text x="20" y="90" class="text-body">pro1.mail.ovh.net:993 (SSL)</text>
        
        <text x="20" y="120" class="text-muted" font-size="12">SMTP</text>
        <text x="20" y="140" class="text-body">pro1.mail.ovh.net:587 (TLS)</text>
        
        <text x="20" y="170" class="text-muted" font-size="12">POP3</text>
        <text x="20" y="190" class="text-body">pro1.mail.ovh.net:995 (SSL)</text>
        
        <g transform="translate(20, 210)">
          <rect width="180" height="28" rx="4" class="border" fill="#FFFFFF"/>
          <text x="15" y="19" class="text-body" font-size="12">📋 Copier la configuration</text>
        </g>
      </g>
    </g>
  </g>
</svg>
