<?xml version="1.0" encoding="UTF-8"?>
<svg width="1100" height="600" viewBox="0 0 1100 600" fill="none" xmlns="http://www.w3.org/2000/svg">
  <title>Web Cloud - Email Service Detail</title>
  <rect width="1100" height="600" fill="#F9FAFB"/>
  <g transform="translate(30, 30)">
    <text x="0" y="0" fill="#6B7280" font-family="system-ui, sans-serif" font-size="12">← Retour aux services email</text>
  </g>
  <g transform="translate(30, 60)">
    <text x="0" y="0" fill="#1F2937" font-family="system-ui, sans-serif" font-size="22" font-weight="600">exchange-001</text>
    <rect x="170" y="-10" width="70" height="22" rx="4" fill="#7C3AED"/><text x="182" y="6" fill="white" font-family="system-ui, sans-serif" font-size="10">Exchange</text>
    <rect x="250" y="-10" width="50" height="22" rx="4" fill="#DCFCE7"/><text x="262" y="6" fill="#16A34A" font-family="system-ui, sans-serif" font-size="10">Actif</text>
  </g>
  <g transform="translate(850, 55)">
    <rect x="0" y="0" width="100" height="36" rx="4" fill="white" stroke="#E5E7EB"/><text x="22" y="24" fill="#6B7280" font-family="system-ui, sans-serif" font-size="12">Configurer</text>
    <rect x="110" y="0" width="120" height="36" rx="4" fill="#0050D7"/><text x="120" y="24" fill="white" font-family="system-ui, sans-serif" font-size="12">+ Ajouter compte</text>
  </g>
  <g transform="translate(30, 110)">
    <rect x="0" y="0" width="250" height="90" rx="8" fill="white" stroke="#E5E7EB"/>
    <text x="15" y="25" fill="#6B7280" font-family="system-ui, sans-serif" font-size="11">COMPTES</text>
    <text x="15" y="55" fill="#1F2937" font-family="system-ui, sans-serif" font-size="24" font-weight="600">25 / 50</text>
    <text x="15" y="75" fill="#6B7280" font-family="system-ui, sans-serif" font-size="11">boîtes actives</text>
  </g>
  <g transform="translate(300, 110)">
    <rect x="0" y="0" width="250" height="90" rx="8" fill="white" stroke="#E5E7EB"/>
    <text x="15" y="25" fill="#6B7280" font-family="system-ui, sans-serif" font-size="11">ESPACE UTILISÉ</text>
    <text x="15" y="55" fill="#1F2937" font-family="system-ui, sans-serif" font-size="24" font-weight="600">180 / 250 Go</text>
    <rect x="15" y="65" width="220" height="6" rx="3" fill="#E5E7EB"/>
    <rect x="15" y="65" width="158" height="6" rx="3" fill="#F59E0B"/>
  </g>
  <g transform="translate(570, 110)">
    <rect x="0" y="0" width="250" height="90" rx="8" fill="white" stroke="#E5E7EB"/>
    <text x="15" y="25" fill="#6B7280" font-family="system-ui, sans-serif" font-size="11">DOMAINE</text>
    <text x="15" y="50" fill="#1F2937" font-family="system-ui, sans-serif" font-size="16" font-weight="600">company.com</text>
    <text x="15" y="75" fill="#16A34A" font-family="system-ui, sans-serif" font-size="11">✓ Configuré</text>
  </g>
  <g transform="translate(840, 110)">
    <rect x="0" y="0" width="230" height="90" rx="8" fill="white" stroke="#E5E7EB"/>
    <text x="15" y="25" fill="#6B7280" font-family="system-ui, sans-serif" font-size="11">EXPIRATION</text>
    <text x="15" y="50" fill="#1F2937" font-family="system-ui, sans-serif" font-size="16" font-weight="600">15 avr. 2025</text>
    <text x="15" y="75" fill="#16A34A" font-family="system-ui, sans-serif" font-size="11">Renouvellement auto</text>
  </g>
  <g transform="translate(30, 220)">
    <rect x="0" y="0" width="1040" height="360" rx="8" fill="white" stroke="#E5E7EB"/>
    <text x="20" y="30" fill="#1F2937" font-family="system-ui, sans-serif" font-size="14" font-weight="600">Comptes email</text>
    <g transform="translate(850, 15)"><rect x="0" y="0" width="170" height="32" rx="4" fill="#F9FAFB"/><text x="15" y="22" fill="#9CA3AF" font-family="system-ui, sans-serif" font-size="12">🔍 Rechercher...</text></g>
    <g transform="translate(20, 55)">
      <text x="0" y="0" fill="#6B7280" font-family="system-ui, sans-serif" font-size="11" font-weight="500">ADRESSE</text>
      <text x="280" y="0" fill="#6B7280" font-family="system-ui, sans-serif" font-size="11" font-weight="500">NOM</text>
      <text x="480" y="0" fill="#6B7280" font-family="system-ui, sans-serif" font-size="11" font-weight="500">QUOTA</text>
      <text x="620" y="0" fill="#6B7280" font-family="system-ui, sans-serif" font-size="11" font-weight="500">DERNIÈRE ACTIVITÉ</text>
      <text x="820" y="0" fill="#6B7280" font-family="system-ui, sans-serif" font-size="11" font-weight="500">STATUT</text>
    </g>
    <line x1="20" y1="70" x2="1000" y2="70" stroke="#E5E7EB"/>
    <g transform="translate(20, 90)">
      <text x="0" y="0" fill="#0050D7" font-family="system-ui, sans-serif" font-size="13" font-weight="500">john.doe@company.com</text>
      <text x="280" y="0" fill="#1F2937" font-family="system-ui, sans-serif" font-size="12">John Doe</text>
      <text x="480" y="0" fill="#1F2937" font-family="system-ui, sans-serif" font-size="12">8.5/10 Go</text>
      <text x="620" y="0" fill="#1F2937" font-family="system-ui, sans-serif" font-size="12">Il y a 5 min</text>
      <rect x="820" y="-10" width="50" height="20" rx="4" fill="#DCFCE7"/><text x="832" y="5" fill="#16A34A" font-family="system-ui, sans-serif" font-size="10">Actif</text>
      <text x="920" y="0" fill="#6B7280" font-family="system-ui, sans-serif" font-size="16">⋮</text>
    </g>
    <line x1="20" y1="115" x2="1000" y2="115" stroke="#F3F4F6"/>
    <g transform="translate(20, 135)">
      <text x="0" y="0" fill="#0050D7" font-family="system-ui, sans-serif" font-size="13" font-weight="500">jane.smith@company.com</text>
      <text x="280" y="0" fill="#1F2937" font-family="system-ui, sans-serif" font-size="12">Jane Smith</text>
      <text x="480" y="0" fill="#1F2937" font-family="system-ui, sans-serif" font-size="12">6.2/10 Go</text>
      <text x="620" y="0" fill="#1F2937" font-family="system-ui, sans-serif" font-size="12">Il y a 1h</text>
      <rect x="820" y="-10" width="50" height="20" rx="4" fill="#DCFCE7"/><text x="832" y="5" fill="#16A34A" font-family="system-ui, sans-serif" font-size="10">Actif</text>
      <text x="920" y="0" fill="#6B7280" font-family="system-ui, sans-serif" font-size="16">⋮</text>
    </g>
    <line x1="20" y1="160" x2="1000" y2="160" stroke="#F3F4F6"/>
    <g transform="translate(20, 180)">
      <text x="0" y="0" fill="#0050D7" font-family="system-ui, sans-serif" font-size="13" font-weight="500">contact@company.com</text>
      <text x="280" y="0" fill="#1F2937" font-family="system-ui, sans-serif" font-size="12">Contact (partagée)</text>
      <text x="480" y="0" fill="#F59E0B" font-family="system-ui, sans-serif" font-size="12">9.8/10 Go</text>
      <text x="620" y="0" fill="#1F2937" font-family="system-ui, sans-serif" font-size="12">Il y a 30 min</text>
      <rect x="820" y="-10" width="50" height="20" rx="4" fill="#DCFCE7"/><text x="832" y="5" fill="#16A34A" font-family="system-ui, sans-serif" font-size="10">Actif</text>
      <text x="920" y="0" fill="#6B7280" font-family="system-ui, sans-serif" font-size="16">⋮</text>
    </g>
    <line x1="20" y1="205" x2="1000" y2="205" stroke="#F3F4F6"/>
    <g transform="translate(20, 225)">
      <text x="0" y="0" fill="#0050D7" font-family="system-ui, sans-serif" font-size="13" font-weight="500">noreply@company.com</text>
      <text x="280" y="0" fill="#1F2937" font-family="system-ui, sans-serif" font-size="12">No Reply</text>
      <text x="480" y="0" fill="#1F2937" font-family="system-ui, sans-serif" font-size="12">0.1/5 Go</text>
      <text x="620" y="0" fill="#6B7280" font-family="system-ui, sans-serif" font-size="12">-</text>
      <rect x="820" y="-10" width="85" height="20" rx="4" fill="#F9FAFB"/><text x="828" y="5" fill="#6B7280" font-family="system-ui, sans-serif" font-size="10">Envoi seul</text>
      <text x="920" y="0" fill="#6B7280" font-family="system-ui, sans-serif" font-size="16">⋮</text>
    </g>
    <g transform="translate(400, 310)">
      <text x="0" y="0" fill="#6B7280" font-family="system-ui, sans-serif" font-size="12">Affichage 1-4 sur 25</text>
      <rect x="150" y="-15" width="32" height="32" rx="4" fill="white" stroke="#E5E7EB"/><text x="161" y="6" fill="#6B7280" font-family="system-ui, sans-serif" font-size="12">‹</text>
      <rect x="190" y="-15" width="32" height="32" rx="4" fill="#0050D7"/><text x="202" y="6" fill="white" font-family="system-ui, sans-serif" font-size="12">1</text>
      <rect x="230" y="-15" width="32" height="32" rx="4" fill="white" stroke="#E5E7EB"/><text x="241" y="6" fill="#6B7280" font-family="system-ui, sans-serif" font-size="12">›</text>
    </g>
  </g>
</svg>
