<?xml version="1.0" encoding="UTF-8"?>
<svg width="650" height="500" viewBox="0 0 650 500" fill="none" xmlns="http://www.w3.org/2000/svg">
  <title>Exchange - Modal Signature email</title>

  <!-- Overlay -->
  <rect width="650" height="500" fill="#000000" opacity="0.5"/>

  <!-- Modal -->
  <rect x="50" y="30" width="550" height="440" rx="8" fill="white"/>

  <!-- Header -->
  <rect x="50" y="30" width="550" height="56" rx="8" fill="#F9FAFB"/>
  <text x="75" y="66" fill="#1F2937" font-family="system-ui, sans-serif" font-size="18" font-weight="600">Signature email</text>
  <text x="570" y="66" fill="#6B7280" font-family="system-ui, sans-serif" font-size="20">×</text>

  <!-- Account -->
  <text x="75" y="115" fill="#1F2937" font-family="system-ui, sans-serif" font-size="14">Compte</text>
  <rect x="75" y="125" width="495" height="40" rx="4" fill="#F3F4F6" stroke="#E5E7EB"/>
  <text x="90" y="151" fill="#6B7280" font-family="system-ui, sans-serif" font-size="14">john.doe@example.com</text>

  <!-- Signature content -->
  <text x="75" y="195" fill="#1F2937" font-family="system-ui, sans-serif" font-size="14">Contenu de la signature</text>
  <rect x="75" y="205" width="495" height="180" rx="4" fill="white" stroke="#E5E7EB"/>

  <!-- Toolbar -->
  <rect x="75" y="205" width="495" height="35" fill="#F9FAFB"/>
  <text x="90" y="228" fill="#6B7280" font-family="system-ui, sans-serif" font-size="12" font-weight="700">B</text>
  <text x="115" y="228" fill="#6B7280" font-family="system-ui, sans-serif" font-size="12" font-style="italic">I</text>
  <text x="140" y="228" fill="#6B7280" font-family="system-ui, sans-serif" font-size="12" text-decoration="underline">U</text>
  <text x="170" y="228" fill="#6B7280" font-family="system-ui, sans-serif" font-size="12">🔗</text>
  <text x="200" y="228" fill="#6B7280" font-family="system-ui, sans-serif" font-size="12">🖼</text>

  <!-- Signature text -->
  <text x="90" y="265" fill="#1F2937" font-family="system-ui, sans-serif" font-size="13">--</text>
  <text x="90" y="290" fill="#1F2937" font-family="system-ui, sans-serif" font-size="13" font-weight="500">John Doe</text>
  <text x="90" y="315" fill="#6B7280" font-family="system-ui, sans-serif" font-size="13">Marketing Manager</text>
  <text x="90" y="340" fill="#6B7280" font-family="system-ui, sans-serif" font-size="13">Example Company</text>
  <text x="90" y="365" fill="#0050D7" font-family="system-ui, sans-serif" font-size="13">www.example.com</text>

  <!-- Options -->
  <rect x="75" y="400" width="20" height="20" rx="4" fill="#0050D7" stroke="#0050D7"/>
  <text x="82" y="415" fill="white" font-family="system-ui, sans-serif" font-size="12">✓</text>
  <text x="105" y="415" fill="#1F2937" font-family="system-ui, sans-serif" font-size="14">Inclure dans les réponses et transferts</text>

  <!-- Buttons -->
  <rect x="360" y="445" width="100" height="36" rx="4" fill="white" stroke="#E5E7EB"/>
  <text x="390" y="468" fill="#6B7280" font-family="system-ui, sans-serif" font-size="14">Annuler</text>
  <rect x="470" y="445" width="100" height="36" rx="4" fill="#0050D7"/>
  <text x="490" y="468" fill="white" font-family="system-ui, sans-serif" font-size="14">Enregistrer</text>
</svg>
