<?xml version="1.0" encoding="UTF-8"?>
<svg width="600" height="550" viewBox="0 0 600 550" fill="none" xmlns="http://www.w3.org/2000/svg">
  <title>Exchange - Modal Configuration Outlook</title>

  <!-- Overlay -->
  <rect width="600" height="550" fill="#000000" opacity="0.5"/>

  <!-- Modal -->
  <rect x="50" y="30" width="500" height="490" rx="8" fill="white"/>

  <!-- Header -->
  <rect x="50" y="30" width="500" height="56" rx="8" fill="#F9FAFB"/>
  <text x="75" y="66" fill="#1F2937" font-family="system-ui, sans-serif" font-size="18" font-weight="600">Configuration Outlook</text>
  <text x="520" y="66" fill="#6B7280" font-family="system-ui, sans-serif" font-size="20">×</text>

  <!-- Account -->
  <text x="75" y="115" fill="#1F2937" font-family="system-ui, sans-serif" font-size="14">Compte</text>
  <rect x="75" y="125" width="445" height="40" rx="4" fill="#F3F4F6" stroke="#E5E7EB"/>
  <text x="90" y="151" fill="#6B7280" font-family="system-ui, sans-serif" font-size="14">john.doe@example.com</text>

  <!-- Server settings -->
  <text x="75" y="195" fill="#1F2937" font-family="system-ui, sans-serif" font-size="14" font-weight="500">Paramètres du serveur</text>

  <!-- Server -->
  <text x="75" y="225" fill="#6B7280" font-family="system-ui, sans-serif" font-size="13">Serveur</text>
  <rect x="75" y="235" width="445" height="40" rx="4" fill="white" stroke="#E5E7EB"/>
  <text x="90" y="261" fill="#1F2937" font-family="system-ui, sans-serif" font-size="14">ex.mail.ovh.net</text>
  <text x="480" y="261" fill="#6B7280" font-family="system-ui, sans-serif" font-size="13">📋</text>

  <!-- Username -->
  <text x="75" y="300" fill="#6B7280" font-family="system-ui, sans-serif" font-size="13">Nom d'utilisateur</text>
  <rect x="75" y="310" width="445" height="40" rx="4" fill="white" stroke="#E5E7EB"/>
  <text x="90" y="336" fill="#1F2937" font-family="system-ui, sans-serif" font-size="14">john.doe@example.com</text>
  <text x="480" y="336" fill="#6B7280" font-family="system-ui, sans-serif" font-size="13">📋</text>

  <!-- Port -->
  <text x="75" y="375" fill="#6B7280" font-family="system-ui, sans-serif" font-size="13">Port</text>
  <rect x="75" y="385" width="120" height="40" rx="4" fill="white" stroke="#E5E7EB"/>
  <text x="90" y="411" fill="#1F2937" font-family="system-ui, sans-serif" font-size="14">443</text>

  <!-- Encryption -->
  <text x="220" y="375" fill="#6B7280" font-family="system-ui, sans-serif" font-size="13">Chiffrement</text>
  <rect x="220" y="385" width="150" height="40" rx="4" fill="white" stroke="#E5E7EB"/>
  <text x="235" y="411" fill="#1F2937" font-family="system-ui, sans-serif" font-size="14">SSL/TLS</text>

  <!-- Info box -->
  <rect x="75" y="445" width="445" height="50" rx="4" fill="#EFF6FF"/>
  <text x="90" y="467" fill="#1E40AF" font-family="system-ui, sans-serif" font-size="12">La configuration automatique est disponible si les</text>
  <text x="90" y="484" fill="#1E40AF" font-family="system-ui, sans-serif" font-size="12">enregistrements SRV sont correctement configurés.</text>

  <!-- Close button -->
  <rect x="370" y="510" width="150" height="36" rx="4" fill="white" stroke="#E5E7EB"/>
  <text x="415" y="533" fill="#6B7280" font-family="system-ui, sans-serif" font-size="14">Fermer</text>
</svg>
