<?xml version="1.0" encoding="UTF-8"?>
<svg width="1100" height="550" viewBox="0 0 1100 550" fill="none" xmlns="http://www.w3.org/2000/svg">
  <title>Web Cloud - Email Redirections</title>
  <rect width="1100" height="550" fill="#F9FAFB"/>
  <g transform="translate(30, 30)">
    <text x="0" y="0" fill="#6B7280" font-family="system-ui, sans-serif" font-size="12">← Retour à mx-plan-001</text>
  </g>
  <g transform="translate(30, 60)">
    <text x="0" y="0" fill="#1F2937" font-family="system-ui, sans-serif" font-size="22" font-weight="600">Redirections</text>
    <text x="0" y="28" fill="#6B7280" font-family="system-ui, sans-serif" font-size="13">mx-plan-001 • example.com • Gérez les redirections de vos emails</text>
  </g>
  <g transform="translate(830, 55)"><rect x="0" y="0" width="200" height="40" rx="4" fill="#0050D7"/><text x="25" y="26" fill="white" font-family="system-ui, sans-serif" font-size="13">+ Créer une redirection</text></g>
  <!-- Stats -->
  <g transform="translate(30, 110)">
    <rect x="0" y="0" width="340" height="80" rx="8" fill="white" stroke="#E5E7EB"/>
    <text x="20" y="30" fill="#6B7280" font-family="system-ui, sans-serif" font-size="11">REDIRECTIONS ACTIVES</text>
    <text x="20" y="55" fill="#1F2937" font-family="system-ui, sans-serif" font-size="22" font-weight="600">8</text>
    <text x="55" y="55" fill="#6B7280" font-family="system-ui, sans-serif" font-size="12">/ 100</text>
  </g>
  <g transform="translate(390, 110)">
    <rect x="0" y="0" width="340" height="80" rx="8" fill="white" stroke="#E5E7EB"/>
    <text x="20" y="30" fill="#6B7280" font-family="system-ui, sans-serif" font-size="11">AVEC COPIE LOCALE</text>
    <text x="20" y="55" fill="#1F2937" font-family="system-ui, sans-serif" font-size="22" font-weight="600">3</text>
  </g>
  <g transform="translate(750, 110)">
    <rect x="0" y="0" width="320" height="80" rx="8" fill="white" stroke="#E5E7EB"/>
    <text x="20" y="30" fill="#6B7280" font-family="system-ui, sans-serif" font-size="11">REDIRECTIONS EXTERNES</text>
    <text x="20" y="55" fill="#1F2937" font-family="system-ui, sans-serif" font-size="22" font-weight="600">5</text>
  </g>
  <!-- Redirections list -->
  <g transform="translate(30, 210)">
    <rect x="0" y="0" width="1040" height="320" rx="8" fill="white" stroke="#E5E7EB"/>
    <g transform="translate(20, 20)">
      <rect x="0" y="0" width="300" height="36" rx="4" fill="#F9FAFB"/>
      <text x="15" y="24" fill="#9CA3AF" font-family="system-ui, sans-serif" font-size="13">🔍 Rechercher une redirection...</text>
    </g>
    <g transform="translate(20, 75)">
      <text x="0" y="0" fill="#6B7280" font-family="system-ui, sans-serif" font-size="11" font-weight="500">SOURCE</text>
      <text x="300" y="0" fill="#6B7280" font-family="system-ui, sans-serif" font-size="11" font-weight="500">DESTINATION</text>
      <text x="600" y="0" fill="#6B7280" font-family="system-ui, sans-serif" font-size="11" font-weight="500">COPIE LOCALE</text>
      <text x="750" y="0" fill="#6B7280" font-family="system-ui, sans-serif" font-size="11" font-weight="500">STATUT</text>
      <text x="880" y="0" fill="#6B7280" font-family="system-ui, sans-serif" font-size="11" font-weight="500">ACTIONS</text>
    </g>
    <line x1="20" y1="90" x2="1000" y2="90" stroke="#E5E7EB"/>
    <g transform="translate(20, 115)">
      <text x="0" y="0" fill="#1F2937" font-family="system-ui, sans-serif" font-size="13">info@example.com</text>
      <text x="300" y="0" fill="#6B7280" font-family="system-ui, sans-serif" font-size="13">jean@gmail.com</text>
      <rect x="600" y="-10" width="50" height="20" rx="4" fill="#DCFCE7"/><text x="615" y="5" fill="#16A34A" font-family="system-ui, sans-serif" font-size="10">Oui</text>
      <rect x="750" y="-10" width="55" height="20" rx="4" fill="#DCFCE7"/><text x="762" y="5" fill="#16A34A" font-family="system-ui, sans-serif" font-size="10">Actif</text>
      <text x="880" y="0" fill="#0050D7" font-family="system-ui, sans-serif" font-size="11">Modifier</text>
      <text x="950" y="0" fill="#DC2626" font-family="system-ui, sans-serif" font-size="11">Supprimer</text>
    </g>
    <line x1="20" y1="140" x2="1000" y2="140" stroke="#F3F4F6"/>
    <g transform="translate(20, 165)">
      <text x="0" y="0" fill="#1F2937" font-family="system-ui, sans-serif" font-size="13">contact@example.com</text>
      <text x="300" y="0" fill="#6B7280" font-family="system-ui, sans-serif" font-size="13">support@company.com</text>
      <rect x="600" y="-10" width="50" height="20" rx="4" fill="#F9FAFB"/><text x="615" y="5" fill="#6B7280" font-family="system-ui, sans-serif" font-size="10">Non</text>
      <rect x="750" y="-10" width="55" height="20" rx="4" fill="#DCFCE7"/><text x="762" y="5" fill="#16A34A" font-family="system-ui, sans-serif" font-size="10">Actif</text>
      <text x="880" y="0" fill="#0050D7" font-family="system-ui, sans-serif" font-size="11">Modifier</text>
      <text x="950" y="0" fill="#DC2626" font-family="system-ui, sans-serif" font-size="11">Supprimer</text>
    </g>
    <line x1="20" y1="190" x2="1000" y2="190" stroke="#F3F4F6"/>
    <g transform="translate(20, 215)">
      <text x="0" y="0" fill="#1F2937" font-family="system-ui, sans-serif" font-size="13">sales@example.com</text>
      <text x="300" y="0" fill="#6B7280" font-family="system-ui, sans-serif" font-size="13">commerce@external.fr</text>
      <rect x="600" y="-10" width="50" height="20" rx="4" fill="#DCFCE7"/><text x="615" y="5" fill="#16A34A" font-family="system-ui, sans-serif" font-size="10">Oui</text>
      <rect x="750" y="-10" width="55" height="20" rx="4" fill="#DCFCE7"/><text x="762" y="5" fill="#16A34A" font-family="system-ui, sans-serif" font-size="10">Actif</text>
      <text x="880" y="0" fill="#0050D7" font-family="system-ui, sans-serif" font-size="11">Modifier</text>
      <text x="950" y="0" fill="#DC2626" font-family="system-ui, sans-serif" font-size="11">Supprimer</text>
    </g>
    <line x1="20" y1="240" x2="1000" y2="240" stroke="#F3F4F6"/>
    <g transform="translate(20, 265)">
      <text x="0" y="0" fill="#1F2937" font-family="system-ui, sans-serif" font-size="13">newsletter@example.com</text>
      <text x="300" y="0" fill="#6B7280" font-family="system-ui, sans-serif" font-size="13">marketing@team.io</text>
      <rect x="600" y="-10" width="50" height="20" rx="4" fill="#F9FAFB"/><text x="615" y="5" fill="#6B7280" font-family="system-ui, sans-serif" font-size="10">Non</text>
      <rect x="750" y="-10" width="55" height="20" rx="4" fill="#DCFCE7"/><text x="762" y="5" fill="#16A34A" font-family="system-ui, sans-serif" font-size="10">Actif</text>
      <text x="880" y="0" fill="#0050D7" font-family="system-ui, sans-serif" font-size="11">Modifier</text>
      <text x="950" y="0" fill="#DC2626" font-family="system-ui, sans-serif" font-size="11">Supprimer</text>
    </g>
  </g>
</svg>
