<svg xmlns="http://www.w3.org/2000/svg" viewBox="0 0 1440 900" width="1440" height="900">
  <defs>
    <style>
      .bg-header { fill: #000E9C; }
      .bg-main { fill: #F6F6F9; }
      .bg-white { fill: #FFFFFF; }
      .bg-primary { fill: #0050D7; }
      .bg-neutral-100 { fill: #F3F4F6; }
      .bg-success { fill: #DEF7EC; }
      .bg-info { fill: #DBEAFE; }
      .border { stroke: #E5E7EB; stroke-width: 1; fill: none; }
      .btn-outline { stroke: #0050D7; stroke-width: 1; fill: #FFFFFF; }
      .btn-primary { fill: #0050D7; }
      .row-selected { fill: #E8F0FE; }
      .table-header { fill: #F9FAFB; }
      .text-white { fill: #FFFFFF; font-family: 'Source Sans Pro', sans-serif; }
      .text-dark { fill: #1F2937; font-family: 'Source Sans Pro', sans-serif; }
      .text-muted { fill: #6B7280; font-family: 'Source Sans Pro', sans-serif; }
      .text-primary { fill: #0050D7; font-family: 'Source Sans Pro', sans-serif; }
      .text-info { fill: #1E40AF; font-family: 'Source Sans Pro', sans-serif; }
      .text-error { fill: #DC2626; font-family: 'Source Sans Pro', sans-serif; }
    </style>
  </defs>

  <!-- Background -->
  <rect width="1440" height="900" class="bg-main"/>

  <!-- NAV1 - Header OVH -->
  <rect width="1440" height="50" class="bg-header"/>
  <text x="40" y="32" class="text-white" font-size="14" opacity="0.7">Accueil</text>
  <text x="110" y="32" class="text-white" font-size="14" opacity="0.7">Public Cloud</text>
  <text x="210" y="32" class="text-white" font-size="14" opacity="0.7">Hosted Private Cloud</text>
  <text x="370" y="32" class="text-white" font-size="14" opacity="0.7">Bare Metal Cloud</text>
  <text x="510" y="32" class="text-white" font-size="14" font-weight="600">Web Cloud</text>
  <rect x="505" y="46" width="75" height="3" fill="#FFFFFF"/>
  <text x="620" y="32" class="text-white" font-size="14" opacity="0.7">Network</text>
  <text x="700" y="32" class="text-white" font-size="14" opacity="0.7">IAM / Securite</text>
  <text x="810" y="32" class="text-white" font-size="14" opacity="0.7">Licences</text>
  <rect x="1280" y="12" width="140" height="26" rx="13" fill="rgba(255,255,255,0.2)"/>
  <rect x="1285" y="15" width="26" height="20" rx="10" fill="#DEF7EC"/>
  <text x="1292" y="29" fill="#03543F" font-size="10" font-weight="600">OK</text>
  <text x="1320" y="29" class="text-white" font-size="12">ab12345-ovh</text>

  <!-- NAV2 - Web Cloud (Emails actif) -->
  <rect x="0" y="50" width="1440" height="40" class="bg-white"/>
  <line x1="0" y1="89" x2="1440" y2="89" stroke="#E5E7EB"/>
  <text x="40" y="75" class="text-muted" font-size="14">Accueil</text>
  <text x="110" y="75" class="text-muted" font-size="14">Domaines et DNS</text>
  <text x="240" y="75" class="text-muted" font-size="14">Hebergement</text>
  <text x="345" y="75" class="text-muted" font-size="14">Wordpress</text>
  <text x="430" y="75" class="text-primary" font-size="14" font-weight="600">Emails</text>
  <rect x="425" y="85" width="50" height="3" fill="#0050D7"/>
  <text x="500" y="75" class="text-muted" font-size="14">VoIP</text>
  <text x="550" y="75" class="text-muted" font-size="14">Acces</text>
  <text x="1350" y="75" class="text-primary" font-size="13">Guides</text>

  <!-- CONTENT AREA -->
  <g transform="translate(0, 105)">
    <g transform="translate(24, 0)">

      <!-- LEFT PANEL -->
      <rect x="0" y="0" width="280" height="765" rx="8" class="bg-white"/>
      <rect x="0" y="0" width="280" height="765" rx="8" class="border"/>

      <g transform="translate(12, 12)">
        <rect x="0" y="0" width="256" height="32" rx="6" fill="#F3F4F6"/>
        <rect x="2" y="2" width="125" height="28" rx="5" fill="#FFFFFF"/>
        <text x="64" y="21" class="text-dark" font-size="11" text-anchor="middle" font-weight="500">Par domaine</text>
        <text x="191" y="21" class="text-muted" font-size="11" text-anchor="middle">Par licence</text>
      </g>

      <rect x="12" y="56" width="256" height="34" rx="4" fill="#F9FAFB" stroke="#E5E7EB"/>
      <text x="26" y="78" class="text-muted" font-size="12">Rechercher...</text>

      <text x="12" y="112" class="text-muted" font-size="11">5 domaines</text>

      <g transform="translate(6, 124)">
        <rect x="0" y="0" width="268" height="120" rx="6" class="row-selected"/>
        <text x="32" y="20" class="text-dark" font-size="13" font-weight="600">example.com</text>
        <g transform="translate(12, 32)">
          <circle cx="6" cy="6" r="5" fill="#F59E0B"/>
          <text x="16" y="10" class="text-dark" font-size="10">5  Exchange</text>
          <circle cx="6" cy="20" r="5" fill="#3B82F6"/>
          <text x="16" y="24" class="text-dark" font-size="10">4  Pro</text>
          <circle cx="6" cy="34" r="5" fill="#8B5CF6"/>
          <text x="16" y="38" class="text-dark" font-size="10">2  Zimbra</text>
          <circle cx="6" cy="48" r="5" fill="#6B7280"/>
          <text x="16" y="52" class="text-dark" font-size="10">1  MX Plan</text>
        </g>
        <line x1="12" y1="100" x2="256" y2="100" stroke="#E5E7EB"/>
        <text x="12" y="114" class="text-muted" font-size="10">12 boites - 67 Go</text>
      </g>

      <g transform="translate(12, 700)">
        <rect x="0" y="0" width="256" height="36" rx="4" class="btn-outline"/>
        <text x="128" y="23" class="text-primary" font-size="12" text-anchor="middle">+ Ajouter domaine</text>
      </g>

    </g>

    <!-- RIGHT PANEL -->
    <g transform="translate(320, 0)">
      <rect x="0" y="0" width="1096" height="765" rx="8" class="bg-white"/>
      <rect x="0" y="0" width="1096" height="765" rx="8" class="border"/>

      <g transform="translate(20, 0)">
        <!-- HEADER PAGE -->
        <text x="0" y="24" class="text-dark" font-size="18" font-weight="600">example.com</text>
        <text x="0" y="42" class="text-muted" font-size="11">12 boites - 4 offres - 67 Go utilises</text>
        <rect x="950" y="8" width="110" height="32" rx="4" class="btn-outline"/>
        <text x="1005" y="29" class="text-primary" font-size="11" text-anchor="middle">Webmail</text>

        <!-- NAV3 TABS - Avance actif -->
        <g transform="translate(0, 56)">
          <rect x="0" y="0" width="85" height="26" rx="4" class="btn-outline"/>
          <text x="42" y="17" class="text-primary" font-size="11" text-anchor="middle">Boites mail</text>

          <rect x="89" y="0" width="90" height="26" rx="4" class="btn-outline"/>
          <text x="134" y="17" class="text-primary" font-size="11" text-anchor="middle">Redirections</text>

          <rect x="183" y="0" width="80" height="26" rx="4" class="btn-outline"/>
          <text x="223" y="17" class="text-primary" font-size="11" text-anchor="middle">Repondeurs</text>

          <rect x="267" y="0" width="50" height="26" rx="4" class="btn-outline"/>
          <text x="292" y="17" class="text-primary" font-size="11" text-anchor="middle">Listes</text>

          <rect x="321" y="0" width="65" height="26" rx="4" class="btn-outline"/>
          <text x="353" y="17" class="text-primary" font-size="11" text-anchor="middle">Securite</text>

          <rect x="390" y="0" width="55" height="26" rx="4" class="bg-primary"/>
          <text x="417" y="17" class="text-white" font-size="11" text-anchor="middle">Avance</text>

          <rect x="449" y="0" width="65" height="26" rx="4" class="btn-outline"/>
          <text x="481" y="17" class="text-primary" font-size="11" text-anchor="middle">Licences</text>

          <rect x="518" y="0" width="55" height="26" rx="4" class="btn-outline"/>
          <text x="545" y="17" class="text-primary" font-size="11" text-anchor="middle">Taches</text>
        </g>

        <!-- NAV4 - Contacts actif -->
        <g transform="translate(0, 96)">
          <text x="0" y="16" class="text-muted" font-size="12">General</text>
          <text x="70" y="16" class="text-primary" font-size="12" font-weight="600">Contacts</text>
          <rect x="70" y="22" width="55" height="2" fill="#0050D7"/>
          <text x="145" y="16" class="text-muted" font-size="12">Audit</text>
          <text x="195" y="16" class="text-muted" font-size="12">Appareils</text>
        </g>

        <!-- TOOLBAR -->
        <g transform="translate(0, 130)">
          <rect x="0" y="0" width="130" height="32" rx="4" class="btn-primary"/>
          <text x="65" y="21" class="text-white" font-size="11" text-anchor="middle">+ Ajouter contact</text>

          <rect x="140" y="0" width="110" height="32" rx="4" class="btn-outline"/>
          <text x="195" y="21" class="text-primary" font-size="11" text-anchor="middle">Importer</text>

          <rect x="260" y="0" width="110" height="32" rx="4" class="btn-outline"/>
          <text x="315" y="21" class="text-primary" font-size="11" text-anchor="middle">Exporter</text>

          <rect x="780" y="0" width="220" height="32" rx="4" fill="#F9FAFB" stroke="#E5E7EB"/>
          <text x="795" y="21" class="text-muted" font-size="11">Rechercher un contact...</text>

          <rect x="1008" y="0" width="32" height="32" rx="4" class="btn-outline"/>
          <text x="1024" y="22" class="text-primary" font-size="14" text-anchor="middle">&#8635;</text>
        </g>

        <!-- INFO BANNER -->
        <g transform="translate(0, 180)">
          <rect x="0" y="0" width="1036" height="40" rx="6" class="bg-info"/>
          <text x="20" y="25" class="text-info" font-size="12">Les contacts externes apparaissent dans le carnet d'adresses partage de tous les utilisateurs Exchange.</text>
        </g>

        <!-- TABLE HEADER -->
        <g transform="translate(0, 235)">
          <rect x="0" y="0" width="1036" height="36" rx="4" class="table-header"/>
          <text x="20" y="23" class="text-dark" font-size="11" font-weight="600">Nom</text>
          <text x="220" y="23" class="text-dark" font-size="11" font-weight="600">Email externe</text>
          <text x="440" y="23" class="text-dark" font-size="11" font-weight="600">Societe</text>
          <text x="600" y="23" class="text-dark" font-size="11" font-weight="600">Telephone</text>
          <text x="760" y="23" class="text-dark" font-size="11" font-weight="600">Cree le</text>
          <text x="900" y="23" class="text-dark" font-size="11" font-weight="600">Actions</text>
        </g>

        <!-- TABLE ROWS -->
        <g transform="translate(0, 271)">
          <!-- Row 1 -->
          <rect x="0" y="0" width="1036" height="50" fill="#FFFFFF"/>
          <line x1="0" y1="50" x2="1036" y2="50" stroke="#E5E7EB"/>
          <circle cx="35" cy="25" r="16" fill="#F3F4F6"/>
          <text x="35" y="30" class="text-muted" font-size="12" text-anchor="middle">JD</text>
          <text x="60" y="28" class="text-dark" font-size="12">Jean Dupont</text>
          <text x="220" y="28" class="text-primary" font-size="11">jean.dupont@partenaire.fr</text>
          <text x="440" y="28" class="text-dark" font-size="11">Partenaire SARL</text>
          <text x="600" y="28" class="text-dark" font-size="11">+33 6 12 34 56 78</text>
          <text x="760" y="28" class="text-muted" font-size="11">15/12/2025</text>
          <text x="900" y="28" class="text-primary" font-size="12">&#9998;</text>
          <text x="930" y="28" class="text-error" font-size="12">x</text>

          <!-- Row 2 -->
          <rect x="0" y="50" width="1036" height="50" fill="#F9FAFB"/>
          <line x1="0" y1="100" x2="1036" y2="100" stroke="#E5E7EB"/>
          <circle cx="35" cy="75" r="16" fill="#F3F4F6"/>
          <text x="35" y="80" class="text-muted" font-size="12" text-anchor="middle">ML</text>
          <text x="60" y="78" class="text-dark" font-size="12">Marie Laurent</text>
          <text x="220" y="78" class="text-primary" font-size="11">m.laurent@client.com</text>
          <text x="440" y="78" class="text-dark" font-size="11">Client Corp</text>
          <text x="600" y="78" class="text-dark" font-size="11">+33 1 98 76 54 32</text>
          <text x="760" y="78" class="text-muted" font-size="11">10/12/2025</text>
          <text x="900" y="78" class="text-primary" font-size="12">&#9998;</text>
          <text x="930" y="78" class="text-error" font-size="12">x</text>

          <!-- Row 3 -->
          <rect x="0" y="100" width="1036" height="50" fill="#FFFFFF"/>
          <line x1="0" y1="150" x2="1036" y2="150" stroke="#E5E7EB"/>
          <circle cx="35" cy="125" r="16" fill="#F3F4F6"/>
          <text x="35" y="130" class="text-muted" font-size="12" text-anchor="middle">PB</text>
          <text x="60" y="128" class="text-dark" font-size="12">Pierre Bernard</text>
          <text x="220" y="128" class="text-primary" font-size="11">p.bernard@fournisseur.net</text>
          <text x="440" y="128" class="text-dark" font-size="11">Fournisseur SAS</text>
          <text x="600" y="128" class="text-dark" font-size="11">+33 4 56 78 90 12</text>
          <text x="760" y="128" class="text-muted" font-size="11">05/12/2025</text>
          <text x="900" y="128" class="text-primary" font-size="12">&#9998;</text>
          <text x="930" y="128" class="text-error" font-size="12">x</text>

          <!-- Row 4 -->
          <rect x="0" y="150" width="1036" height="50" fill="#F9FAFB"/>
          <line x1="0" y1="200" x2="1036" y2="200" stroke="#E5E7EB"/>
          <circle cx="35" cy="175" r="16" fill="#F3F4F6"/>
          <text x="35" y="180" class="text-muted" font-size="12" text-anchor="middle">SM</text>
          <text x="60" y="178" class="text-dark" font-size="12">Sophie Martin</text>
          <text x="220" y="178" class="text-primary" font-size="11">sophie@externe.org</text>
          <text x="440" y="178" class="text-dark" font-size="11">Association ABC</text>
          <text x="600" y="178" class="text-dark" font-size="11">-</text>
          <text x="760" y="178" class="text-muted" font-size="11">01/12/2025</text>
          <text x="900" y="178" class="text-primary" font-size="12">&#9998;</text>
          <text x="930" y="178" class="text-error" font-size="12">x</text>

          <!-- Row 5 -->
          <rect x="0" y="200" width="1036" height="50" fill="#FFFFFF"/>
          <line x1="0" y1="250" x2="1036" y2="250" stroke="#E5E7EB"/>
          <circle cx="35" cy="225" r="16" fill="#F3F4F6"/>
          <text x="35" y="230" class="text-muted" font-size="12" text-anchor="middle">LD</text>
          <text x="60" y="228" class="text-dark" font-size="12">Lucas Durand</text>
          <text x="220" y="228" class="text-primary" font-size="11">lucas.d@prestataire.io</text>
          <text x="440" y="228" class="text-dark" font-size="11">Prestataire Tech</text>
          <text x="600" y="228" class="text-dark" font-size="11">+33 7 11 22 33 44</text>
          <text x="760" y="228" class="text-muted" font-size="11">28/11/2025</text>
          <text x="900" y="228" class="text-primary" font-size="12">&#9998;</text>
          <text x="930" y="228" class="text-error" font-size="12">x</text>
        </g>

        <!-- PAGINATION -->
        <g transform="translate(0, 680)">
          <text x="0" y="16" class="text-muted" font-size="11">Affichage 1-5 sur 23</text>
          <g transform="translate(900, 0)">
            <rect x="0" y="0" width="32" height="28" rx="4" class="btn-outline"/>
            <text x="16" y="18" class="text-primary" font-size="11" text-anchor="middle">&#8249;</text>
            <rect x="36" y="0" width="28" height="28" rx="4" class="bg-primary"/>
            <text x="50" y="18" class="text-white" font-size="11" text-anchor="middle">1</text>
            <rect x="68" y="0" width="28" height="28" rx="4" class="btn-outline"/>
            <text x="82" y="18" class="text-primary" font-size="11" text-anchor="middle">2</text>
            <rect x="100" y="0" width="32" height="28" rx="4" class="btn-outline"/>
            <text x="116" y="18" class="text-primary" font-size="11" text-anchor="middle">&#8250;</text>
          </g>
        </g>

      </g>
    </g>
  </g>
</svg>
