<?xml version="1.0" encoding="UTF-8"?>
<svg width="1100" height="550" viewBox="0 0 1100 550" fill="none" xmlns="http://www.w3.org/2000/svg">
  <title>Web Cloud - Database Onboarding</title>
  <rect width="1100" height="550" fill="#F9FAFB"/>
  <g transform="translate(30, 30)">
    <text x="0" y="0" fill="#1F2937" font-family="system-ui, sans-serif" font-size="22" font-weight="600">Bases de données</text>
    <text x="0" y="28" fill="#6B7280" font-family="system-ui, sans-serif" font-size="13">Bases de données managées Cloud Databases</text>
  </g>
  <!-- Empty state -->
  <g transform="translate(350, 80)">
    <rect x="0" y="0" width="400" height="280" rx="8" fill="white" stroke="#E5E7EB"/>
    <g transform="translate(100, 30)">
      <rect x="0" y="0" width="200" height="100" rx="8" fill="#EFF6FF"/>
      <text x="70" y="45" fill="#0050D7" font-family="system-ui, sans-serif" font-size="40">🗄️</text>
      <text x="50" y="80" fill="#0050D7" font-family="system-ui, sans-serif" font-size="14">Base de données</text>
    </g>
    <g transform="translate(50, 150)">
      <text x="80" y="0" fill="#1F2937" font-family="system-ui, sans-serif" font-size="18" font-weight="600">Aucune base de données</text>
      <text x="20" y="30" fill="#6B7280" font-family="system-ui, sans-serif" font-size="13">Créez votre première base de données managée</text>
      <text x="55" y="50" fill="#6B7280" font-family="system-ui, sans-serif" font-size="13">MySQL, PostgreSQL ou Redis.</text>
    </g>
    <g transform="translate(100, 220)">
      <rect x="0" y="0" width="200" height="45" rx="4" fill="#0050D7"/>
      <text x="25" y="30" fill="white" font-family="system-ui, sans-serif" font-size="14">Créer une base de données</text>
    </g>
  </g>
  <!-- Database types -->
  <g transform="translate(30, 380)">
    <rect x="0" y="0" width="1040" height="150" rx="8" fill="white" stroke="#E5E7EB"/>
    <text x="20" y="30" fill="#1F2937" font-family="system-ui, sans-serif" font-size="14" font-weight="600">Types de bases supportées</text>
    <g transform="translate(20, 55)">
      <rect x="0" y="0" width="240" height="75" rx="4" fill="#F9FAFB"/>
      <rect x="15" y="15" width="45" height="25" rx="4" fill="#F59E0B"/>
      <text x="25" y="33" fill="white" font-family="system-ui, sans-serif" font-size="10" font-weight="500">MySQL</text>
      <text x="70" y="33" fill="#1F2937" font-family="system-ui, sans-serif" font-size="13" font-weight="500">MySQL</text>
      <text x="15" y="55" fill="#6B7280" font-family="system-ui, sans-serif" font-size="11">Bases relationnelles</text>
    </g>
    <g transform="translate(280, 55)">
      <rect x="0" y="0" width="240" height="75" rx="4" fill="#F9FAFB"/>
      <rect x="15" y="15" width="75" height="25" rx="4" fill="#336791"/>
      <text x="20" y="33" fill="white" font-family="system-ui, sans-serif" font-size="10" font-weight="500">PostgreSQL</text>
      <text x="100" y="33" fill="#1F2937" font-family="system-ui, sans-serif" font-size="13" font-weight="500">PostgreSQL</text>
      <text x="15" y="55" fill="#6B7280" font-family="system-ui, sans-serif" font-size="11">Bases relationnelles avancées</text>
    </g>
    <g transform="translate(540, 55)">
      <rect x="0" y="0" width="240" height="75" rx="4" fill="#F9FAFB"/>
      <rect x="15" y="15" width="50" height="25" rx="4" fill="#DC382D"/>
      <text x="25" y="33" fill="white" font-family="system-ui, sans-serif" font-size="10" font-weight="500">Redis</text>
      <text x="75" y="33" fill="#1F2937" font-family="system-ui, sans-serif" font-size="13" font-weight="500">Redis</text>
      <text x="15" y="55" fill="#6B7280" font-family="system-ui, sans-serif" font-size="11">Cache et sessions</text>
    </g>
    <g transform="translate(800, 55)">
      <rect x="0" y="0" width="220" height="75" rx="4" fill="#F9FAFB"/>
      <rect x="15" y="15" width="60" height="25" rx="4" fill="#13AA52"/>
      <text x="20" y="33" fill="white" font-family="system-ui, sans-serif" font-size="10" font-weight="500">MongoDB</text>
      <text x="85" y="33" fill="#1F2937" font-family="system-ui, sans-serif" font-size="13" font-weight="500">MongoDB</text>
      <text x="15" y="55" fill="#6B7280" font-family="system-ui, sans-serif" font-size="11">NoSQL document</text>
    </g>
  </g>
</svg>
