<?xml version="1.0" encoding="UTF-8"?>
<svg width="1100" height="550" viewBox="0 0 1100 550" fill="none" xmlns="http://www.w3.org/2000/svg">
  <title>Web Cloud - Hosting List</title>
  <rect width="1100" height="550" fill="#F9FAFB"/>
  <g transform="translate(30, 30)">
    <text x="0" y="0" fill="#1F2937" font-family="system-ui, sans-serif" font-size="22" font-weight="600">Hébergements Web</text>
    <text x="0" y="28" fill="#6B7280" font-family="system-ui, sans-serif" font-size="13">Gérez vos hébergements web OVHcloud</text>
  </g>
  <g transform="translate(850, 25)"><rect x="0" y="0" width="180" height="40" rx="4" fill="#0050D7"/><text x="30" y="26" fill="white" font-family="system-ui, sans-serif" font-size="13">+ Nouveau hébergement</text></g>
  <g transform="translate(30, 85)">
    <rect x="0" y="0" width="220" height="90" rx="8" fill="white" stroke="#E5E7EB"/>
    <text x="15" y="25" fill="#6B7280" font-family="system-ui, sans-serif" font-size="11">TOTAL HÉBERGEMENTS</text>
    <text x="15" y="55" fill="#1F2937" font-family="system-ui, sans-serif" font-size="28" font-weight="600">12</text>
    <text x="15" y="75" fill="#16A34A" font-family="system-ui, sans-serif" font-size="11">✓ Tous actifs</text>
  </g>
  <g transform="translate(270, 85)">
    <rect x="0" y="0" width="220" height="90" rx="8" fill="white" stroke="#E5E7EB"/>
    <text x="15" y="25" fill="#6B7280" font-family="system-ui, sans-serif" font-size="11">ESPACE DISQUE UTILISÉ</text>
    <text x="15" y="55" fill="#1F2937" font-family="system-ui, sans-serif" font-size="28" font-weight="600">847 Go</text>
    <text x="15" y="75" fill="#6B7280" font-family="system-ui, sans-serif" font-size="11">sur 1200 Go disponibles</text>
  </g>
  <g transform="translate(510, 85)">
    <rect x="0" y="0" width="220" height="90" rx="8" fill="white" stroke="#E5E7EB"/>
    <text x="15" y="25" fill="#6B7280" font-family="system-ui, sans-serif" font-size="11">SITES ACTIFS</text>
    <text x="15" y="55" fill="#1F2937" font-family="system-ui, sans-serif" font-size="28" font-weight="600">45</text>
    <text x="15" y="75" fill="#6B7280" font-family="system-ui, sans-serif" font-size="11">Multisites configurés</text>
  </g>
  <g transform="translate(30, 195)">
    <rect x="0" y="0" width="1040" height="340" rx="8" fill="white" stroke="#E5E7EB"/>
    <g transform="translate(20, 20)">
      <rect x="0" y="0" width="300" height="36" rx="4" fill="#F9FAFB"/>
      <text x="15" y="24" fill="#9CA3AF" font-family="system-ui, sans-serif" font-size="13">🔍 Rechercher un hébergement...</text>
    </g>
    <g transform="translate(20, 75)">
      <text x="0" y="0" fill="#6B7280" font-family="system-ui, sans-serif" font-size="11" font-weight="500">NOM</text>
      <text x="220" y="0" fill="#6B7280" font-family="system-ui, sans-serif" font-size="11" font-weight="500">OFFRE</text>
      <text x="380" y="0" fill="#6B7280" font-family="system-ui, sans-serif" font-size="11" font-weight="500">ESPACE</text>
      <text x="520" y="0" fill="#6B7280" font-family="system-ui, sans-serif" font-size="11" font-weight="500">PHP</text>
      <text x="620" y="0" fill="#6B7280" font-family="system-ui, sans-serif" font-size="11" font-weight="500">SSL</text>
      <text x="720" y="0" fill="#6B7280" font-family="system-ui, sans-serif" font-size="11" font-weight="500">EXPIRATION</text>
      <text x="880" y="0" fill="#6B7280" font-family="system-ui, sans-serif" font-size="11" font-weight="500">STATUT</text>
    </g>
    <line x1="20" y1="90" x2="1000" y2="90" stroke="#E5E7EB"/>
    <g transform="translate(20, 110)">
      <text x="0" y="0" fill="#0050D7" font-family="system-ui, sans-serif" font-size="13" font-weight="500">hosting-pro-01</text>
      <text x="0" y="18" fill="#6B7280" font-family="system-ui, sans-serif" font-size="11">example.com</text>
      <text x="220" y="8" fill="#1F2937" font-family="system-ui, sans-serif" font-size="12">Performance 2</text>
      <text x="380" y="8" fill="#1F2937" font-family="system-ui, sans-serif" font-size="12">125/250 Go</text>
      <text x="520" y="8" fill="#1F2937" font-family="system-ui, sans-serif" font-size="12">8.2</text>
      <rect x="620" y="-5" width="55" height="22" rx="4" fill="#DCFCE7"/><text x="632" y="10" fill="#16A34A" font-family="system-ui, sans-serif" font-size="10">Actif</text>
      <text x="720" y="8" fill="#1F2937" font-family="system-ui, sans-serif" font-size="12">15 mars 2025</text>
      <rect x="880" y="-5" width="55" height="22" rx="4" fill="#DCFCE7"/><text x="895" y="10" fill="#16A34A" font-family="system-ui, sans-serif" font-size="10">Actif</text>
      <text x="970" y="8" fill="#6B7280" font-family="system-ui, sans-serif" font-size="16">⋮</text>
    </g>
    <line x1="20" y1="145" x2="1000" y2="145" stroke="#F3F4F6"/>
    <g transform="translate(20, 165)">
      <text x="0" y="0" fill="#0050D7" font-family="system-ui, sans-serif" font-size="13" font-weight="500">hosting-starter</text>
      <text x="0" y="18" fill="#6B7280" font-family="system-ui, sans-serif" font-size="11">myblog.fr</text>
      <text x="220" y="8" fill="#1F2937" font-family="system-ui, sans-serif" font-size="12">Starter</text>
      <text x="380" y="8" fill="#1F2937" font-family="system-ui, sans-serif" font-size="12">45/100 Go</text>
      <text x="520" y="8" fill="#1F2937" font-family="system-ui, sans-serif" font-size="12">8.1</text>
      <rect x="620" y="-5" width="55" height="22" rx="4" fill="#DCFCE7"/><text x="632" y="10" fill="#16A34A" font-family="system-ui, sans-serif" font-size="10">Actif</text>
      <text x="720" y="8" fill="#1F2937" font-family="system-ui, sans-serif" font-size="12">22 fév. 2025</text>
      <rect x="880" y="-5" width="55" height="22" rx="4" fill="#DCFCE7"/><text x="895" y="10" fill="#16A34A" font-family="system-ui, sans-serif" font-size="10">Actif</text>
      <text x="970" y="8" fill="#6B7280" font-family="system-ui, sans-serif" font-size="16">⋮</text>
    </g>
    <line x1="20" y1="200" x2="1000" y2="200" stroke="#F3F4F6"/>
    <g transform="translate(20, 220)">
      <text x="0" y="0" fill="#0050D7" font-family="system-ui, sans-serif" font-size="13" font-weight="500">hosting-wp-01</text>
      <text x="0" y="18" fill="#6B7280" font-family="system-ui, sans-serif" font-size="11">wordpress-site.com</text>
      <text x="220" y="8" fill="#1F2937" font-family="system-ui, sans-serif" font-size="12">Pro</text>
      <text x="380" y="8" fill="#F59E0B" font-family="system-ui, sans-serif" font-size="12">95/100 Go</text>
      <text x="520" y="8" fill="#1F2937" font-family="system-ui, sans-serif" font-size="12">8.2</text>
      <rect x="620" y="-5" width="55" height="22" rx="4" fill="#DCFCE7"/><text x="632" y="10" fill="#16A34A" font-family="system-ui, sans-serif" font-size="10">Actif</text>
      <text x="720" y="8" fill="#F59E0B" font-family="system-ui, sans-serif" font-size="12">05 jan. 2025</text>
      <rect x="880" y="-5" width="70" height="22" rx="4" fill="#FEF3C7"/><text x="888" y="10" fill="#92400E" font-family="system-ui, sans-serif" font-size="10">À renouveler</text>
      <text x="970" y="8" fill="#6B7280" font-family="system-ui, sans-serif" font-size="16">⋮</text>
    </g>
    <g transform="translate(400, 290)">
      <text x="0" y="0" fill="#6B7280" font-family="system-ui, sans-serif" font-size="12">Page 1 sur 2</text>
      <rect x="100" y="-15" width="32" height="32" rx="4" fill="white" stroke="#E5E7EB"/><text x="111" y="6" fill="#6B7280" font-family="system-ui, sans-serif" font-size="12">‹</text>
      <rect x="140" y="-15" width="32" height="32" rx="4" fill="#0050D7"/><text x="152" y="6" fill="white" font-family="system-ui, sans-serif" font-size="12">1</text>
      <rect x="180" y="-15" width="32" height="32" rx="4" fill="white" stroke="#E5E7EB"/><text x="192" y="6" fill="#6B7280" font-family="system-ui, sans-serif" font-size="12">2</text>
      <rect x="220" y="-15" width="32" height="32" rx="4" fill="white" stroke="#E5E7EB"/><text x="231" y="6" fill="#6B7280" font-family="system-ui, sans-serif" font-size="12">›</text>
    </g>
  </g>
</svg>
