<?xml version="1.0" encoding="UTF-8"?>
<svg width="1100" height="550" viewBox="0 0 1100 550" fill="none" xmlns="http://www.w3.org/2000/svg">
  <title>Web Cloud - Hosting Logs &amp; Statistics</title>
  <rect width="1100" height="550" fill="#F9FAFB"/>
  <g transform="translate(30, 30)">
    <text x="0" y="0" fill="#6B7280" font-family="system-ui, sans-serif" font-size="12">← Retour à hosting-pro-01</text>
  </g>
  <g transform="translate(30, 60)">
    <text x="0" y="0" fill="#1F2937" font-family="system-ui, sans-serif" font-size="22" font-weight="600">Logs et statistiques</text>
    <text x="0" y="28" fill="#6B7280" font-family="system-ui, sans-serif" font-size="13">hosting-pro-01 • Analysez le trafic de votre site</text>
  </g>
  <g transform="translate(750, 55)">
    <rect x="0" y="0" width="140" height="40" rx="4" fill="white" stroke="#E5E7EB"/>
    <text x="15" y="26" fill="#6B7280" font-family="system-ui, sans-serif" font-size="13">📅 7 derniers jours</text>
  </g>
  <g transform="translate(900, 55)"><rect x="0" y="0" width="130" height="40" rx="4" fill="#0050D7"/><text x="15" y="26" fill="white" font-family="system-ui, sans-serif" font-size="13">Télécharger</text></g>
  <!-- Stats cards -->
  <g transform="translate(30, 110)">
    <rect x="0" y="0" width="250" height="90" rx="8" fill="white" stroke="#E5E7EB"/>
    <text x="20" y="30" fill="#6B7280" font-family="system-ui, sans-serif" font-size="11">VISITEURS UNIQUES</text>
    <text x="20" y="60" fill="#1F2937" font-family="system-ui, sans-serif" font-size="24" font-weight="600">12,458</text>
    <text x="20" y="78" fill="#16A34A" font-family="system-ui, sans-serif" font-size="11">↑ +8.3% vs semaine préc.</text>
  </g>
  <g transform="translate(295, 110)">
    <rect x="0" y="0" width="250" height="90" rx="8" fill="white" stroke="#E5E7EB"/>
    <text x="20" y="30" fill="#6B7280" font-family="system-ui, sans-serif" font-size="11">PAGES VUES</text>
    <text x="20" y="60" fill="#1F2937" font-family="system-ui, sans-serif" font-size="24" font-weight="600">45,892</text>
    <text x="20" y="78" fill="#16A34A" font-family="system-ui, sans-serif" font-size="11">↑ +12.1% vs semaine préc.</text>
  </g>
  <g transform="translate(560, 110)">
    <rect x="0" y="0" width="250" height="90" rx="8" fill="white" stroke="#E5E7EB"/>
    <text x="20" y="30" fill="#6B7280" font-family="system-ui, sans-serif" font-size="11">BANDE PASSANTE</text>
    <text x="20" y="60" fill="#1F2937" font-family="system-ui, sans-serif" font-size="24" font-weight="600">2.4 Go</text>
    <text x="20" y="78" fill="#DC2626" font-family="system-ui, sans-serif" font-size="11">↓ -3.2% vs semaine préc.</text>
  </g>
  <g transform="translate(825, 110)">
    <rect x="0" y="0" width="245" height="90" rx="8" fill="white" stroke="#E5E7EB"/>
    <text x="20" y="30" fill="#6B7280" font-family="system-ui, sans-serif" font-size="11">ERREURS 4XX/5XX</text>
    <text x="20" y="60" fill="#DC2626" font-family="system-ui, sans-serif" font-size="24" font-weight="600">127</text>
    <text x="20" y="78" fill="#0050D7" font-family="system-ui, sans-serif" font-size="11">Voir les détails →</text>
  </g>
  <!-- Traffic chart -->
  <g transform="translate(30, 220)">
    <rect x="0" y="0" width="680" height="200" rx="8" fill="white" stroke="#E5E7EB"/>
    <text x="20" y="30" fill="#1F2937" font-family="system-ui, sans-serif" font-size="14" font-weight="600">Trafic (7 jours)</text>
    <g transform="translate(20, 60)">
      <!-- Chart bars -->
      <rect x="0" y="80" width="80" height="60" rx="2" fill="#0050D7" fill-opacity="0.2"/>
      <rect x="95" y="60" width="80" height="80" rx="2" fill="#0050D7" fill-opacity="0.2"/>
      <rect x="190" y="40" width="80" height="100" rx="2" fill="#0050D7" fill-opacity="0.2"/>
      <rect x="285" y="50" width="80" height="90" rx="2" fill="#0050D7" fill-opacity="0.2"/>
      <rect x="380" y="30" width="80" height="110" rx="2" fill="#0050D7" fill-opacity="0.2"/>
      <rect x="475" y="20" width="80" height="120" rx="2" fill="#0050D7"/>
      <rect x="570" y="70" width="60" height="70" rx="2" fill="#0050D7" fill-opacity="0.2"/>
      <text x="25" y="155" fill="#6B7280" font-family="system-ui, sans-serif" font-size="10">Lun</text>
      <text x="120" y="155" fill="#6B7280" font-family="system-ui, sans-serif" font-size="10">Mar</text>
      <text x="215" y="155" fill="#6B7280" font-family="system-ui, sans-serif" font-size="10">Mer</text>
      <text x="310" y="155" fill="#6B7280" font-family="system-ui, sans-serif" font-size="10">Jeu</text>
      <text x="405" y="155" fill="#6B7280" font-family="system-ui, sans-serif" font-size="10">Ven</text>
      <text x="500" y="155" fill="#1F2937" font-family="system-ui, sans-serif" font-size="10" font-weight="500">Sam</text>
      <text x="590" y="155" fill="#6B7280" font-family="system-ui, sans-serif" font-size="10">Dim</text>
    </g>
  </g>
  <!-- Top pages -->
  <g transform="translate(730, 220)">
    <rect x="0" y="0" width="340" height="200" rx="8" fill="white" stroke="#E5E7EB"/>
    <text x="20" y="30" fill="#1F2937" font-family="system-ui, sans-serif" font-size="14" font-weight="600">Pages les plus visitées</text>
    <g transform="translate(20, 55)">
      <text x="0" y="0" fill="#1F2937" font-family="system-ui, sans-serif" font-size="12">/</text>
      <text x="260" y="0" fill="#6B7280" font-family="system-ui, sans-serif" font-size="12">8,245</text>
    </g>
    <g transform="translate(20, 80)">
      <text x="0" y="0" fill="#1F2937" font-family="system-ui, sans-serif" font-size="12">/products</text>
      <text x="260" y="0" fill="#6B7280" font-family="system-ui, sans-serif" font-size="12">5,123</text>
    </g>
    <g transform="translate(20, 105)">
      <text x="0" y="0" fill="#1F2937" font-family="system-ui, sans-serif" font-size="12">/contact</text>
      <text x="260" y="0" fill="#6B7280" font-family="system-ui, sans-serif" font-size="12">3,890</text>
    </g>
    <g transform="translate(20, 130)">
      <text x="0" y="0" fill="#1F2937" font-family="system-ui, sans-serif" font-size="12">/blog</text>
      <text x="260" y="0" fill="#6B7280" font-family="system-ui, sans-serif" font-size="12">2,456</text>
    </g>
    <g transform="translate(20, 155)">
      <text x="0" y="0" fill="#1F2937" font-family="system-ui, sans-serif" font-size="12">/about</text>
      <text x="260" y="0" fill="#6B7280" font-family="system-ui, sans-serif" font-size="12">1,234</text>
    </g>
    <text x="20" y="185" fill="#0050D7" font-family="system-ui, sans-serif" font-size="11">Voir toutes les pages →</text>
  </g>
  <!-- Access logs links -->
  <g transform="translate(30, 440)">
    <rect x="0" y="0" width="1040" height="90" rx="8" fill="white" stroke="#E5E7EB"/>
    <text x="20" y="30" fill="#1F2937" font-family="system-ui, sans-serif" font-size="14" font-weight="600">Télécharger les logs bruts</text>
    <g transform="translate(20, 55)">
      <rect x="0" y="0" width="160" height="30" rx="4" fill="#F9FAFB"/>
      <text x="15" y="20" fill="#0050D7" font-family="system-ui, sans-serif" font-size="12">📥 access.log.gz</text>
    </g>
    <g transform="translate(200, 55)">
      <rect x="0" y="0" width="160" height="30" rx="4" fill="#F9FAFB"/>
      <text x="15" y="20" fill="#0050D7" font-family="system-ui, sans-serif" font-size="12">📥 error.log.gz</text>
    </g>
    <g transform="translate(380, 55)">
      <rect x="0" y="0" width="160" height="30" rx="4" fill="#F9FAFB"/>
      <text x="15" y="20" fill="#0050D7" font-family="system-ui, sans-serif" font-size="12">📥 ftp.log.gz</text>
    </g>
    <g transform="translate(560, 55)">
      <rect x="0" y="0" width="160" height="30" rx="4" fill="#F9FAFB"/>
      <text x="15" y="20" fill="#0050D7" font-family="system-ui, sans-serif" font-size="12">📥 cron.log.gz</text>
    </g>
  </g>
</svg>
