<?xml version="1.0" encoding="UTF-8"?>
<svg width="1100" height="550" viewBox="0 0 1100 550" fill="none" xmlns="http://www.w3.org/2000/svg">
  <title>Web Cloud - Database Slow Query Logs</title>
  <rect width="1100" height="550" fill="#F9FAFB"/>
  <g transform="translate(30, 30)">
    <text x="0" y="0" fill="#6B7280" font-family="system-ui, sans-serif" font-size="12">← Retour à myapp_production</text>
  </g>
  <g transform="translate(30, 60)">
    <text x="0" y="0" fill="#1F2937" font-family="system-ui, sans-serif" font-size="22" font-weight="600">Slow Query Logs</text>
    <text x="0" y="28" fill="#6B7280" font-family="system-ui, sans-serif" font-size="13">myapp_production • Requêtes lentes (&gt;1s)</text>
  </g>
  <g transform="translate(800, 55)">
    <rect x="0" y="0" width="120" height="40" rx="4" fill="white" stroke="#E5E7EB"/>
    <text x="15" y="26" fill="#6B7280" font-family="system-ui, sans-serif" font-size="13">📅 24h</text>
  </g>
  <g transform="translate(930, 55)"><rect x="0" y="0" width="100" height="40" rx="4" fill="#0050D7"/><text x="15" y="26" fill="white" font-family="system-ui, sans-serif" font-size="13">Exporter</text></g>
  <!-- Stats -->
  <g transform="translate(30, 110)">
    <rect x="0" y="0" width="250" height="80" rx="8" fill="white" stroke="#E5E7EB"/>
    <text x="20" y="28" fill="#6B7280" font-family="system-ui, sans-serif" font-size="11">REQUÊTES LENTES (24H)</text>
    <text x="20" y="55" fill="#DC2626" font-family="system-ui, sans-serif" font-size="22" font-weight="600">23</text>
  </g>
  <g transform="translate(300, 110)">
    <rect x="0" y="0" width="250" height="80" rx="8" fill="white" stroke="#E5E7EB"/>
    <text x="20" y="28" fill="#6B7280" font-family="system-ui, sans-serif" font-size="11">TEMPS MOYEN</text>
    <text x="20" y="55" fill="#F59E0B" font-family="system-ui, sans-serif" font-size="22" font-weight="600">2.4s</text>
  </g>
  <g transform="translate(570, 110)">
    <rect x="0" y="0" width="250" height="80" rx="8" fill="white" stroke="#E5E7EB"/>
    <text x="20" y="28" fill="#6B7280" font-family="system-ui, sans-serif" font-size="11">REQUÊTE LA PLUS LENTE</text>
    <text x="20" y="55" fill="#DC2626" font-family="system-ui, sans-serif" font-size="22" font-weight="600">8.7s</text>
  </g>
  <g transform="translate(840, 110)">
    <rect x="0" y="0" width="230" height="80" rx="8" fill="white" stroke="#E5E7EB"/>
    <text x="20" y="28" fill="#6B7280" font-family="system-ui, sans-serif" font-size="11">TABLES LES PLUS IMPACTÉES</text>
    <text x="20" y="55" fill="#1F2937" font-family="system-ui, sans-serif" font-size="14" font-weight="500">orders, products</text>
  </g>
  <!-- Logs list -->
  <g transform="translate(30, 210)">
    <rect x="0" y="0" width="1040" height="320" rx="8" fill="white" stroke="#E5E7EB"/>
    <text x="20" y="30" fill="#1F2937" font-family="system-ui, sans-serif" font-size="14" font-weight="600">Dernières requêtes lentes</text>
    <g transform="translate(20, 55)">
      <text x="0" y="0" fill="#6B7280" font-family="system-ui, sans-serif" font-size="11" font-weight="500">DATE</text>
      <text x="150" y="0" fill="#6B7280" font-family="system-ui, sans-serif" font-size="11" font-weight="500">DURÉE</text>
      <text x="250" y="0" fill="#6B7280" font-family="system-ui, sans-serif" font-size="11" font-weight="500">REQUÊTE</text>
    </g>
    <line x1="20" y1="70" x2="1000" y2="70" stroke="#E5E7EB"/>
    <!-- Log entries -->
    <g transform="translate(20, 95)">
      <text x="0" y="0" fill="#6B7280" font-family="system-ui, sans-serif" font-size="11">29/12 14:32:15</text>
      <rect x="150" y="-10" width="50" height="20" rx="4" fill="#FEE2E2"/><text x="162" y="5" fill="#DC2626" font-family="system-ui, sans-serif" font-size="10">8.7s</text>
      <text x="250" y="0" fill="#1F2937" font-family="monospace" font-size="11">SELECT * FROM orders WHERE status = 'pending' ORDER BY created_at...</text>
    </g>
    <line x1="20" y1="120" x2="1000" y2="120" stroke="#F3F4F6"/>
    <g transform="translate(20, 145)">
      <text x="0" y="0" fill="#6B7280" font-family="system-ui, sans-serif" font-size="11">29/12 14:28:42</text>
      <rect x="150" y="-10" width="50" height="20" rx="4" fill="#FEF3C7"/><text x="162" y="5" fill="#F59E0B" font-family="system-ui, sans-serif" font-size="10">3.2s</text>
      <text x="250" y="0" fill="#1F2937" font-family="monospace" font-size="11">SELECT p.*, c.name FROM products p JOIN categories c ON...</text>
    </g>
    <line x1="20" y1="170" x2="1000" y2="170" stroke="#F3F4F6"/>
    <g transform="translate(20, 195)">
      <text x="0" y="0" fill="#6B7280" font-family="system-ui, sans-serif" font-size="11">29/12 14:15:08</text>
      <rect x="150" y="-10" width="50" height="20" rx="4" fill="#FEF3C7"/><text x="162" y="5" fill="#F59E0B" font-family="system-ui, sans-serif" font-size="10">2.1s</text>
      <text x="250" y="0" fill="#1F2937" font-family="monospace" font-size="11">UPDATE products SET stock = stock - 1 WHERE id IN (SELECT...</text>
    </g>
    <line x1="20" y1="220" x2="1000" y2="220" stroke="#F3F4F6"/>
    <g transform="translate(20, 245)">
      <text x="0" y="0" fill="#6B7280" font-family="system-ui, sans-serif" font-size="11">29/12 13:58:33</text>
      <rect x="150" y="-10" width="50" height="20" rx="4" fill="#FEF3C7"/><text x="162" y="5" fill="#F59E0B" font-family="system-ui, sans-serif" font-size="10">1.8s</text>
      <text x="250" y="0" fill="#1F2937" font-family="monospace" font-size="11">SELECT COUNT(*) FROM orders WHERE created_at &gt; DATE_SUB(NOW()...</text>
    </g>
    <!-- Tip -->
    <g transform="translate(20, 285)">
      <rect x="0" y="0" width="980" height="25" rx="4" fill="#EFF6FF"/>
      <text x="15" y="17" fill="#0050D7" font-family="system-ui, sans-serif" font-size="11">💡 Conseil : Ajoutez des index sur les colonnes status, created_at pour améliorer les performances.</text>
    </g>
  </g>
</svg>
