<?xml version="1.0" encoding="UTF-8"?>
<svg width="700" height="500" viewBox="0 0 700 500" fill="none" xmlns="http://www.w3.org/2000/svg">
  <title>Hosting - Logs d'emails automatisés</title>

  <!-- Overlay -->
  <rect width="700" height="500" fill="#000000" opacity="0.5"/>

  <!-- Modal -->
  <rect x="50" y="30" width="600" height="440" rx="8" fill="white"/>

  <!-- Header -->
  <rect x="50" y="30" width="600" height="50" rx="8" fill="#EFF6FF"/>
  <rect x="50" y="55" width="600" height="25" fill="#EFF6FF"/>
  <text x="80" y="62" fill="#1E40AF" font-family="system-ui, sans-serif" font-size="16" font-weight="600">Logs d'emails automatisés</text>
  <text x="620" y="62" fill="#1E40AF" font-family="system-ui, sans-serif" font-size="18" cursor="pointer">×</text>

  <!-- Filters -->
  <g transform="translate(80, 100)">
    <rect x="0" y="0" width="150" height="35" rx="4" fill="white" stroke="#E5E7EB"/>
    <text x="15" y="23" fill="#6B7280" font-family="system-ui, sans-serif" font-size="12">Tous les statuts</text>
    <text x="125" y="23" fill="#6B7280" font-family="system-ui, sans-serif" font-size="10">▼</text>

    <rect x="165" y="0" width="150" height="35" rx="4" fill="white" stroke="#E5E7EB"/>
    <text x="180" y="23" fill="#6B7280" font-family="system-ui, sans-serif" font-size="12">Dernières 24h</text>
    <text x="290" y="23" fill="#6B7280" font-family="system-ui, sans-serif" font-size="10">▼</text>
  </g>

  <!-- Log table -->
  <g transform="translate(80, 155)">
    <!-- Header -->
    <rect x="0" y="0" width="540" height="35" fill="#F3F4F6" rx="4"/>
    <rect x="0" y="25" width="540" height="10" fill="#F3F4F6"/>
    <text x="15" y="23" fill="#6B7280" font-family="system-ui, sans-serif" font-size="11" font-weight="500">Date</text>
    <text x="150" y="23" fill="#6B7280" font-family="system-ui, sans-serif" font-size="11" font-weight="500">Destinataire</text>
    <text x="350" y="23" fill="#6B7280" font-family="system-ui, sans-serif" font-size="11" font-weight="500">Sujet</text>
    <text x="480" y="23" fill="#6B7280" font-family="system-ui, sans-serif" font-size="11" font-weight="500">Statut</text>

    <!-- Row 1 - Success -->
    <rect x="0" y="35" width="540" height="45" fill="white" stroke="#E5E7EB"/>
    <text x="15" y="63" fill="#6B7280" font-family="system-ui, sans-serif" font-size="11">15/01 14:32</text>
    <text x="150" y="63" fill="#1F2937" font-family="system-ui, sans-serif" font-size="11">user@email.com</text>
    <text x="350" y="63" fill="#1F2937" font-family="system-ui, sans-serif" font-size="11">Bienvenue</text>
    <rect x="480" y="50" width="50" height="20" rx="4" fill="#DCFCE7"/>
    <text x="490" y="65" fill="#166534" font-family="system-ui, sans-serif" font-size="10">Envoyé</text>

    <!-- Row 2 - Success -->
    <rect x="0" y="80" width="540" height="45" fill="white" stroke="#E5E7EB"/>
    <text x="15" y="108" fill="#6B7280" font-family="system-ui, sans-serif" font-size="11">15/01 14:30</text>
    <text x="150" y="108" fill="#1F2937" font-family="system-ui, sans-serif" font-size="11">admin@site.fr</text>
    <text x="350" y="108" fill="#1F2937" font-family="system-ui, sans-serif" font-size="11">Commande #123</text>
    <rect x="480" y="95" width="50" height="20" rx="4" fill="#DCFCE7"/>
    <text x="490" y="110" fill="#166534" font-family="system-ui, sans-serif" font-size="10">Envoyé</text>

    <!-- Row 3 - Failed -->
    <rect x="0" y="125" width="540" height="45" fill="white" stroke="#E5E7EB"/>
    <text x="15" y="153" fill="#6B7280" font-family="system-ui, sans-serif" font-size="11">15/01 14:28</text>
    <text x="150" y="153" fill="#1F2937" font-family="system-ui, sans-serif" font-size="11">invalid@test</text>
    <text x="350" y="153" fill="#1F2937" font-family="system-ui, sans-serif" font-size="11">Newsletter</text>
    <rect x="480" y="140" width="50" height="20" rx="4" fill="#FEE2E2"/>
    <text x="490" y="155" fill="#DC2626" font-family="system-ui, sans-serif" font-size="10">Échec</text>

    <!-- Row 4 - Pending -->
    <rect x="0" y="170" width="540" height="45" fill="white" stroke="#E5E7EB"/>
    <text x="15" y="198" fill="#6B7280" font-family="system-ui, sans-serif" font-size="11">15/01 14:25</text>
    <text x="150" y="198" fill="#1F2937" font-family="system-ui, sans-serif" font-size="11">contact@domain.com</text>
    <text x="350" y="198" fill="#1F2937" font-family="system-ui, sans-serif" font-size="11">Contact form</text>
    <rect x="480" y="185" width="50" height="20" rx="4" fill="#FEF3C7"/>
    <text x="485" y="200" fill="#92400E" font-family="system-ui, sans-serif" font-size="10">En attente</text>

    <!-- Row 5 - Success -->
    <rect x="0" y="215" width="540" height="45" fill="white" stroke="#E5E7EB"/>
    <text x="15" y="243" fill="#6B7280" font-family="system-ui, sans-serif" font-size="11">15/01 14:20</text>
    <text x="150" y="243" fill="#1F2937" font-family="system-ui, sans-serif" font-size="11">client@exemple.fr</text>
    <text x="350" y="243" fill="#1F2937" font-family="system-ui, sans-serif" font-size="11">Reset password</text>
    <rect x="480" y="230" width="50" height="20" rx="4" fill="#DCFCE7"/>
    <text x="490" y="245" fill="#166534" font-family="system-ui, sans-serif" font-size="10">Envoyé</text>
  </g>

  <!-- Pagination -->
  <g transform="translate(80, 430)">
    <text x="0" y="0" fill="#6B7280" font-family="system-ui, sans-serif" font-size="11">200 emails | Page 1/20</text>
    <text x="450" y="0" fill="#0050D7" font-family="system-ui, sans-serif" font-size="11">← Précédent | Suivant →</text>
  </g>
</svg>
