<svg xmlns="http://www.w3.org/2000/svg" viewBox="0 0 1440 900" width="1440" height="900">
  <defs>
    <style>
      .bg-header { fill: #000E9C; }
      .bg-white { fill: #FFFFFF; }
      .bg-muted { fill: #F9FAFB; }
      .bg-primary { fill: #0050D7; }
      .bg-neutral-100 { fill: #F3F4F6; }
      .border { stroke: #E5E7EB; stroke-width: 1; fill: none; }
      .text-white { font-family: 'Source Sans Pro', sans-serif; fill: #FFFFFF; }
      .text-body { font-family: 'Source Sans Pro', sans-serif; fill: #1F2937; }
      .text-muted { font-family: 'Source Sans Pro', sans-serif; fill: #6B7280; }
      .text-primary { font-family: 'Source Sans Pro', sans-serif; fill: #0050D7; }
      .table-header { fill: #F3F4F6; }
    </style>
  </defs>

  <!-- Background -->
  <rect width="1440" height="900" class="bg-muted"/>

  <!-- Header OVH -->
  <rect width="1440" height="60" class="bg-header"/>
  <text x="20" y="38" class="text-white" font-size="20" font-weight="bold">OVHcloud</text>

  <!-- Sidebar -->
  <g transform="translate(0, 60)">
    <rect width="240" height="840" class="bg-white"/>
    <rect x="239" y="0" width="1" height="840" fill="#E5E7EB"/>
  </g>

  <!-- Main Content -->
  <g transform="translate(280, 80)">
    <!-- Page header -->
    <text x="0" y="0" class="text-body" font-size="28" font-weight="bold">monsite.com</text>

    <!-- Tabs (Cron active - dans dropdown Plus) -->
    <g transform="translate(0, 50)">
      <text x="0" y="0" class="text-muted" font-size="14">Informations générales</text>
      <text x="160" y="0" class="text-muted" font-size="14">Multisite</text>
      <text x="800" y="0" class="text-muted" font-size="14">Plus ▾</text>
      <rect x="0" y="10" width="1100" height="1" fill="#E5E7EB"/>
    </g>
    
    <!-- Sub-header for Cron -->
    <g transform="translate(0, 75)">
      <text x="0" y="0" class="text-primary" font-size="18" font-weight="600">Tâches planifiées (Cron)</text>
    </g>

    <!-- Guide link -->
    <g transform="translate(0, 110)">
      <text x="0" y="0" class="text-muted" font-size="13">🛟 Besoin d'aide pour configurer vos tâches planifiées ?</text>
      <text x="350" y="0" class="text-primary" font-size="13">Consulter le guide ↗</text>
    </g>

    <!-- Actions bar -->
    <g transform="translate(0, 145)">
      <rect x="0" y="0" width="180" height="36" rx="4" class="bg-primary"/>
      <text x="20" y="23" class="text-white" font-size="13">+ Ajouter une tâche Cron</text>
    </g>

    <!-- Cron Table -->
    <g transform="translate(0, 205)">
      <rect x="0" y="0" width="1100" height="350" rx="8" class="bg-white"/>
      <rect x="0" y="0" width="1100" height="350" rx="8" class="border"/>
      
      <!-- Header -->
      <rect x="1" y="1" width="1098" height="45" rx="8" class="table-header"/>
      <text x="20" y="30" class="text-body" font-size="13" font-weight="600">Commande</text>
      <text x="280" y="30" class="text-body" font-size="13" font-weight="600">Fréquence</text>
      <text x="450" y="30" class="text-body" font-size="13" font-weight="600">Langage</text>
      <text x="560" y="30" class="text-body" font-size="13" font-weight="600">E-mail</text>
      <text x="750" y="30" class="text-body" font-size="13" font-weight="600">Description</text>
      <text x="920" y="30" class="text-body" font-size="13" font-weight="600">État</text>
      <text x="1020" y="30" class="text-body" font-size="13" font-weight="600">Actions</text>
      
      <!-- Row 1 -->
      <g transform="translate(0, 50)">
        <text x="20" y="30" class="text-body" font-size="12" font-family="monospace">www/cron/backup.php</text>
        <text x="280" y="30" class="text-body" font-size="13">Chaque jour à 02:00</text>
        <text x="450" y="30" class="text-body" font-size="13">PHP 8.2</text>
        <text x="560" y="30" class="text-body" font-size="12">admin@monsite.com</text>
        <text x="750" y="30" class="text-body" font-size="13">Sauvegarde quotidienne</text>
        <rect x="920" y="12" width="50" height="22" rx="4" fill="#DEF7EC"/>
        <text x="930" y="27" fill="#03543F" font-size="11" font-family="Source Sans Pro">Actif</text>
        <text x="1030" y="30" class="text-body" font-size="16">⋮</text>
        <rect x="0" y="49" width="1098" height="1" fill="#E5E7EB"/>
      </g>
      
      <!-- Row 2 -->
      <g transform="translate(0, 100)">
        <text x="20" y="30" class="text-body" font-size="12" font-family="monospace">www/cron/newsletter.php</text>
        <text x="280" y="30" class="text-body" font-size="13">Chaque lundi à 08:00</text>
        <text x="450" y="30" class="text-body" font-size="13">PHP 8.2</text>
        <text x="560" y="30" class="text-body" font-size="12">admin@monsite.com</text>
        <text x="750" y="30" class="text-body" font-size="13">Envoi newsletter</text>
        <rect x="920" y="12" width="50" height="22" rx="4" fill="#DEF7EC"/>
        <text x="930" y="27" fill="#03543F" font-size="11" font-family="Source Sans Pro">Actif</text>
        <text x="1030" y="30" class="text-body" font-size="16">⋮</text>
        <rect x="0" y="49" width="1098" height="1" fill="#E5E7EB"/>
      </g>
      
      <!-- Row 3 -->
      <g transform="translate(0, 150)">
        <text x="20" y="30" class="text-body" font-size="12" font-family="monospace">www/cron/cleanup.sh</text>
        <text x="280" y="30" class="text-body" font-size="13">*/15 * * * *</text>
        <text x="450" y="30" class="text-body" font-size="13">Autre</text>
        <text x="560" y="30" class="text-body" font-size="12">-</text>
        <text x="750" y="30" class="text-body" font-size="13">Nettoyage cache</text>
        <rect x="920" y="12" width="70" height="22" rx="4" fill="#FEE2E2"/>
        <text x="930" y="27" fill="#991B1B" font-size="11" font-family="Source Sans Pro">Désactivé</text>
        <text x="1030" y="30" class="text-body" font-size="16">⋮</text>
      </g>
      
      <!-- ActionMenu OUVERT -->
      <g transform="translate(880, 200)">
        <rect x="0" y="0" width="150" height="100" rx="4" class="bg-white" filter="url(#shadow)"/>
        <rect x="0" y="0" width="150" height="100" rx="4" class="border"/>
        <text x="15" y="28" class="text-body" font-size="12">Modifier</text>
        <rect x="0" y="38" width="150" height="1" fill="#E5E7EB"/>
        <text x="15" y="60" class="text-body" font-size="12">Activer/Désactiver</text>
        <rect x="0" y="70" width="150" height="1" fill="#E5E7EB"/>
        <text x="15" y="92" fill="#DC2626" font-size="12" font-family="Source Sans Pro">Supprimer</text>
      </g>
    </g>
  </g>
  
  <defs>
    <filter id="shadow" x="-20%" y="-20%" width="140%" height="140%">
      <feDropShadow dx="0" dy="4" stdDeviation="6" flood-opacity="0.1"/>
    </filter>
  </defs>
</svg>
