<?xml version="1.0" encoding="UTF-8"?>
<svg width="600" height="420" viewBox="0 0 600 420" fill="none" xmlns="http://www.w3.org/2000/svg">
  <title>Dedicated Cloud - Ajouter un bloc IP</title>

  <!-- Overlay -->
  <rect width="600" height="420" fill="#000000" opacity="0.5"/>

  <!-- Modal -->
  <rect x="50" y="30" width="500" height="360" rx="8" fill="white"/>

  <!-- Header -->
  <rect x="50" y="30" width="500" height="50" rx="8" fill="#EFF6FF"/>
  <rect x="50" y="55" width="500" height="25" fill="#EFF6FF"/>
  <text x="80" y="62" fill="#1E40AF" font-family="system-ui, sans-serif" font-size="16" font-weight="600">Ajouter un bloc IP</text>
  <text x="520" y="62" fill="#1E40AF" font-family="system-ui, sans-serif" font-size="18" cursor="pointer">×</text>

  <!-- Content -->
  <g transform="translate(80, 100)">
    <!-- Datacenter selection -->
    <text x="0" y="0" fill="#1F2937" font-family="system-ui, sans-serif" font-size="12" font-weight="500">Datacenter</text>
    <rect x="0" y="15" width="400" height="40" rx="4" fill="white" stroke="#E5E7EB"/>
    <text x="15" y="42" fill="#1F2937" font-family="system-ui, sans-serif" font-size="13">dc-rbx-01 (Roubaix)</text>
    <text x="375" y="42" fill="#6B7280" font-family="system-ui, sans-serif" font-size="12">▼</text>

    <!-- IP block size -->
    <text x="0" y="80" fill="#1F2937" font-family="system-ui, sans-serif" font-size="12" font-weight="500">Taille du bloc</text>

    <g transform="translate(0, 100)">
      <!-- /28 option -->
      <rect x="0" y="0" width="190" height="60" rx="4" fill="white" stroke="#0050D7" stroke-width="2"/>
      <circle cx="20" cy="30" r="8" fill="#0050D7"/>
      <circle cx="20" cy="30" r="3" fill="white"/>
      <text x="40" y="25" fill="#1F2937" font-family="system-ui, sans-serif" font-size="13" font-weight="500">/28 (16 IPs)</text>
      <text x="40" y="45" fill="#6B7280" font-family="system-ui, sans-serif" font-size="11">14 IPs utilisables</text>

      <!-- /27 option -->
      <rect x="210" y="0" width="190" height="60" rx="4" fill="white" stroke="#E5E7EB"/>
      <circle cx="230" cy="30" r="8" fill="white" stroke="#E5E7EB"/>
      <text x="250" y="25" fill="#1F2937" font-family="system-ui, sans-serif" font-size="13" font-weight="500">/27 (32 IPs)</text>
      <text x="250" y="45" fill="#6B7280" font-family="system-ui, sans-serif" font-size="11">30 IPs utilisables</text>
    </g>

    <!-- Country selection -->
    <text x="0" y="185" fill="#1F2937" font-family="system-ui, sans-serif" font-size="12" font-weight="500">Pays de géolocalisation</text>
    <rect x="0" y="200" width="400" height="40" rx="4" fill="white" stroke="#E5E7EB"/>
    <text x="15" y="227" fill="#1F2937" font-family="system-ui, sans-serif" font-size="13">🇫🇷 France</text>
    <text x="375" y="227" fill="#6B7280" font-family="system-ui, sans-serif" font-size="12">▼</text>
  </g>

  <!-- Buttons -->
  <g transform="translate(250, 340)">
    <rect x="0" y="0" width="100" height="36" rx="4" fill="white" stroke="#E5E7EB"/>
    <text x="25" y="23" fill="#6B7280" font-family="system-ui, sans-serif" font-size="13">Annuler</text>

    <rect x="115" y="0" width="120" height="36" rx="4" fill="#0050D7"/>
    <text x="22" y="23" fill="white" font-family="system-ui, sans-serif" font-size="13">Commander</text>
  </g>
</svg>
