<svg xmlns="http://www.w3.org/2000/svg" viewBox="0 0 1440 550" width="1440" height="550">
  <defs>
    <style>
      .bg-header { fill: #000E9C; }
      .bg-white { fill: #FFFFFF; }
      .bg-muted { fill: #F9FAFB; }
      .text-dark { font-family: 'Source Sans Pro', sans-serif; font-size: 14px; fill: #1F2937; }
      .text-muted { font-family: 'Source Sans Pro', sans-serif; font-size: 13px; fill: #6B7280; }
      .text-white { font-family: 'Source Sans Pro', sans-serif; fill: #FFFFFF; }
      .text-title { font-family: 'Source Sans Pro', sans-serif; font-size: 18px; font-weight: 600; fill: #1F2937; }
      .border { stroke: #E5E7EB; stroke-width: 1; fill: none; }
      .btn-primary { fill: #0050D7; }
    </style>
  </defs>

  <!-- Background -->
  <rect width="1440" height="550" class="bg-muted"/>

  <!-- Header -->
  <rect width="1440" height="60" class="bg-header"/>
  <text x="80" y="38" class="text-white" font-size="18" font-weight="600">OVHcloud</text>
  <text x="200" y="38" class="text-white" font-size="14">Telecom</text>

  <!-- Main content -->
  <g transform="translate(80, 80)">
    <rect x="0" y="0" width="1100" height="430" rx="8" class="bg-white" stroke="#E5E7EB"/>

    <!-- Title with tooltip indicator -->
    <g transform="translate(25, 25)">
      <text x="0" y="15" class="text-title">DHCP</text>
      <text x="55" y="15" fill="#6B7280" font-size="14">ⓘ</text>
    </g>

    <!-- Table header -->
    <g transform="translate(25, 60)">
      <rect x="0" y="0" width="1050" height="45" fill="#F9FAFB"/>
      <text x="15" y="28" class="text-muted" font-size="12" font-weight="600">Serveur DHCP</text>
      <text x="120" y="28" class="text-muted" font-size="12" font-weight="600">Passerelle ⓘ</text>
      <text x="250" y="28" class="text-muted" font-size="12" font-weight="600">DNS primaire ⓘ</text>
      <text x="380" y="28" class="text-muted" font-size="12" font-weight="600">DNS secondaire ⓘ</text>
      <text x="520" y="28" class="text-muted" font-size="12" font-weight="600">Domaine DNS ⓘ</text>
      <text x="640" y="28" class="text-muted" font-size="12" font-weight="600">Plage DHCP ⓘ</text>
      <text x="820" y="28" class="text-muted" font-size="12" font-weight="600">Bail (s) ⓘ</text>
      <text x="920" y="28" class="text-muted" font-size="12" font-weight="600">Actions</text>
    </g>

    <!-- Row 1 - View mode -->
    <g transform="translate(25, 105)">
      <rect x="0" y="0" width="1050" height="60" class="bg-white"/>
      <line x1="0" y1="60" x2="1050" y2="60" stroke="#E5E7EB"/>

      <g transform="translate(15, 25)">
        <rect x="0" y="-12" width="60" height="24" rx="12" fill="#D1FAE5"/>
        <text x="30" y="4" text-anchor="middle" fill="#065F46" font-size="12">Actif</text>
      </g>

      <text x="120" y="35" class="text-dark">192.168.1.254</text>
      <text x="250" y="35" class="text-dark">213.186.33.99</text>
      <text x="380" y="35" class="text-dark">-</text>
      <text x="520" y="35" class="text-dark">lan</text>
      <text x="640" y="25" class="text-dark" font-size="12">192.168.1.64</text>
      <text x="640" y="45" class="text-dark" font-size="12">192.168.1.253</text>
      <text x="820" y="35" class="text-dark">86400</text>

      <g transform="translate(920, 20)">
        <rect x="0" y="0" width="36" height="36" rx="4" fill="#FFFFFF" stroke="#D1D5DB"/>
        <text x="18" y="24" text-anchor="middle" class="text-dark">✎</text>
      </g>
    </g>

    <!-- Row 2 - Edit mode -->
    <g transform="translate(25, 165)">
      <rect x="0" y="0" width="1050" height="80" fill="#F0F9FF"/>
      <line x1="0" y1="80" x2="1050" y2="80" stroke="#E5E7EB"/>

      <!-- DHCP Server checkbox -->
      <g transform="translate(15, 30)">
        <rect x="0" y="0" width="18" height="18" rx="3" fill="#0050D7"/>
        <text x="4" y="14" class="text-white" font-size="11">✓</text>
        <text x="25" y="14" class="text-dark" font-size="12">Actif</text>
      </g>

      <!-- Gateway input -->
      <g transform="translate(120, 20)">
        <rect x="0" y="0" width="110" height="36" rx="4" fill="#FFFFFF" stroke="#0050D7"/>
        <text x="8" y="24" class="text-dark" font-size="12">192.168.1.254</text>
      </g>

      <!-- Primary DNS input -->
      <g transform="translate(250, 20)">
        <rect x="0" y="0" width="110" height="36" rx="4" fill="#FFFFFF" stroke="#D1D5DB"/>
        <text x="8" y="24" class="text-dark" font-size="12">213.186.33.99</text>
      </g>

      <!-- Secondary DNS input -->
      <g transform="translate(380, 20)">
        <rect x="0" y="0" width="110" height="36" rx="4" fill="#FFFFFF" stroke="#D1D5DB"/>
        <text x="8" y="24" class="text-muted" font-size="12">x.x.x.x</text>
      </g>

      <!-- Domain input -->
      <g transform="translate(520, 20)">
        <rect x="0" y="0" width="90" height="36" rx="4" fill="#FFFFFF" stroke="#D1D5DB"/>
        <text x="8" y="24" class="text-dark" font-size="12">lan</text>
      </g>

      <!-- DHCP Range inputs -->
      <g transform="translate(640, 10)">
        <rect x="0" y="0" width="110" height="28" rx="4" fill="#FFFFFF" stroke="#D1D5DB"/>
        <text x="8" y="20" class="text-dark" font-size="11">192.168.1.64</text>
        <rect x="0" y="32" width="110" height="28" rx="4" fill="#FFFFFF" stroke="#D1D5DB"/>
        <text x="8" y="52" class="text-dark" font-size="11">192.168.1.253</text>
      </g>

      <!-- Lease time input -->
      <g transform="translate(820, 20)">
        <rect x="0" y="0" width="70" height="36" rx="4" fill="#FFFFFF" stroke="#D1D5DB"/>
        <text x="8" y="24" class="text-dark" font-size="12">86400</text>
      </g>

      <!-- Action buttons -->
      <g transform="translate(920, 20)">
        <rect x="0" y="0" width="36" height="36" rx="4" class="btn-primary"/>
        <text x="18" y="24" text-anchor="middle" class="text-white">✓</text>
        <rect x="44" y="0" width="36" height="36" rx="4" fill="#FFFFFF" stroke="#D1D5DB"/>
        <text x="62" y="24" text-anchor="middle" class="text-dark">✕</text>
      </g>
    </g>

    <!-- Static DHCP section -->
    <g transform="translate(25, 270)">
      <text x="0" y="20" class="text-title" font-size="16">Baux statiques DHCP</text>
      <text x="165" y="20" fill="#6B7280" font-size="14">ⓘ</text>

      <!-- Table header -->
      <g transform="translate(0, 40)">
        <rect x="0" y="0" width="600" height="40" fill="#F9FAFB"/>
        <text x="15" y="26" class="text-muted" font-size="12" font-weight="600">Adresse MAC</text>
        <text x="200" y="26" class="text-muted" font-size="12" font-weight="600">Adresse IP</text>
        <text x="350" y="26" class="text-muted" font-size="12" font-weight="600">Nom</text>
        <text x="520" y="26" class="text-muted" font-size="12" font-weight="600">Actions</text>
      </g>

      <!-- Static DHCP row -->
      <g transform="translate(0, 80)">
        <rect x="0" y="0" width="600" height="50" class="bg-white"/>
        <line x1="0" y1="50" x2="600" y2="50" stroke="#E5E7EB"/>
        <text x="15" y="32" class="text-dark">AA:BB:CC:DD:EE:FF</text>
        <text x="200" y="32" class="text-dark">192.168.1.100</text>
        <text x="350" y="32" class="text-dark">serveur-nas</text>

        <g transform="translate(520, 15)">
          <rect x="0" y="0" width="28" height="28" rx="4" fill="#FFFFFF" stroke="#D1D5DB"/>
          <text x="14" y="20" text-anchor="middle" class="text-dark" font-size="12">✎</text>
          <rect x="35" y="0" width="28" height="28" rx="4" fill="#FFFFFF" stroke="#DC2626"/>
          <text x="49" y="20" text-anchor="middle" fill="#DC2626" font-size="12">🗑</text>
        </g>
      </g>
    </g>
  </g>
</svg>
