<svg xmlns="http://www.w3.org/2000/svg" viewBox="0 0 1440 900" width="1440" height="900">
  <defs>
    <style>
      .bg-header { fill: #000E9C; }
      .bg-main { fill: #F6F6F9; }
      .bg-white { fill: #FFFFFF; }
      .bg-primary { fill: #0050D7; }
      .bg-success { fill: #DEF7EC; }
      .bg-warning { fill: #FEF3C7; }
      .bg-info { fill: #DBEAFE; }
      .border { stroke: #E5E7EB; stroke-width: 1; fill: none; }
      .btn-outline { stroke: #0050D7; stroke-width: 1; fill: #FFFFFF; }
      .btn-primary { fill: #0050D7; }
      .row-selected { fill: #E8F0FE; }
      .text-white { fill: #FFFFFF; font-family: 'Source Sans Pro', sans-serif; }
      .text-dark { fill: #1F2937; font-family: 'Source Sans Pro', sans-serif; }
      .text-muted { fill: #6B7280; font-family: 'Source Sans Pro', sans-serif; }
      .text-primary { fill: #0050D7; font-family: 'Source Sans Pro', sans-serif; }
      .text-success { fill: #059669; font-family: 'Source Sans Pro', sans-serif; }
      .text-warning { fill: #D97706; font-family: 'Source Sans Pro', sans-serif; }
      .text-error { fill: #DC2626; font-family: 'Source Sans Pro', sans-serif; }
      .divider { stroke: #E5E7EB; stroke-width: 1; }
    </style>
  </defs>

  <!-- Background -->
  <rect width="1440" height="900" class="bg-main"/>

  <!-- NAV1 - Header OVH (Web Cloud actif) -->
  <rect width="1440" height="50" class="bg-header"/>
  <text x="40" y="32" class="text-white" font-size="14" opacity="0.7">Accueil</text>
  <text x="110" y="32" class="text-white" font-size="14" opacity="0.7">Public Cloud</text>
  <text x="210" y="32" class="text-white" font-size="14" opacity="0.7">Hosted Private Cloud</text>
  <text x="370" y="32" class="text-white" font-size="14" opacity="0.7">Bare Metal Cloud</text>
  <text x="510" y="32" class="text-white" font-size="14" font-weight="600">Web Cloud</text>
  <rect x="505" y="46" width="75" height="3" fill="#FFFFFF"/>
  <text x="620" y="32" class="text-white" font-size="14" opacity="0.7">Network</text>
  <text x="700" y="32" class="text-white" font-size="14" opacity="0.7">IAM / Securite</text>
  <text x="810" y="32" class="text-white" font-size="14" opacity="0.7">Licences</text>
  <rect x="1280" y="12" width="140" height="26" rx="13" fill="rgba(255,255,255,0.2)"/>
  <text x="1320" y="29" class="text-white" font-size="12">ab12345-ovh</text>

  <!-- NAV2 - Web Cloud (Acces actif) -->
  <rect x="0" y="50" width="1440" height="40" class="bg-white"/>
  <line x1="0" y1="89" x2="1440" y2="89" stroke="#E5E7EB"/>
  <text x="40" y="75" class="text-muted" font-size="14">Accueil</text>
  <text x="110" y="75" class="text-muted" font-size="14">Domaines et DNS</text>
  <text x="240" y="75" class="text-muted" font-size="14">Hebergement</text>
  <text x="345" y="75" class="text-muted" font-size="14">Wordpress</text>
  <text x="430" y="75" class="text-muted" font-size="14">Emails</text>
  <text x="500" y="75" class="text-muted" font-size="14">VoIP</text>
  <text x="550" y="75" class="text-primary" font-size="14" font-weight="600">Acces</text>
  <rect x="545" y="85" width="40" height="3" fill="#0050D7"/>
  <text x="1350" y="75" class="text-primary" font-size="13">Guides</text>

  <!-- CONTENT AREA -->
  <g transform="translate(0, 105)">
    <g transform="translate(24, 0)">

      <!-- LEFT PANEL -->
      <rect x="0" y="0" width="280" height="765" rx="8" class="bg-white"/>
      <rect x="0" y="0" width="280" height="765" rx="8" class="border"/>

      <!-- NAV3 Selector (AU-DESSUS de recherche) -->
      <rect x="0" y="0" width="280" height="44" rx="8" fill="#F9FAFB"/>
      <rect x="12" y="10" width="125" height="24" rx="4" fill="#0050D7"/>
      <text x="74" y="26" fill="#FFFFFF" font-size="11" text-anchor="middle">General</text>
      <rect x="143" y="10" width="125" height="24" rx="4" fill="#FFFFFF" stroke="#E5E7EB"/>
      <text x="205" y="26" fill="#6B7280" font-size="11" text-anchor="middle">OTB</text>
      <line x1="0" y1="44" x2="280" y2="44" class="divider"/>

      <!-- Recherche -->
      <rect x="12" y="56" width="256" height="34" rx="4" fill="#F9FAFB" stroke="#E5E7EB"/>
      <text x="26" y="78" class="text-muted" font-size="12">Rechercher...</text>

      <!-- Compteur -->
      <text x="12" y="112" class="text-muted" font-size="11">2 connexions</text>

      <!-- Connexion 1 - Selectionnee -->
      <g transform="translate(6, 124)">
        <rect x="0" y="0" width="268" height="85" rx="6" class="row-selected"/>
        <text x="12" y="20" font-size="14">&#x1F310;</text>
        <text x="32" y="20" class="text-dark" font-size="13" font-weight="600">xdsl-abc123-1</text>
        <text x="12" y="38" class="text-muted" font-size="11">VDSL - Pack Pro</text>
        <circle cx="18" cy="52" r="5" fill="#10B981"/>
        <text x="28" y="56" class="text-dark" font-size="11">Actif</text>
        <text x="12" y="72" class="text-muted" font-size="10">&#x2193; 45 Mbps &#x2191; 8 Mbps</text>
      </g>

      <!-- Connexion 2 -->
      <g transform="translate(6, 219)">
        <rect x="0" y="0" width="268" height="85" rx="6" fill="#FFFFFF" stroke="#E5E7EB"/>
        <text x="12" y="20" font-size="14">&#x1F310;</text>
        <text x="32" y="20" class="text-dark" font-size="13" font-weight="600">xdsl-xyz789-2</text>
        <text x="12" y="38" class="text-muted" font-size="11">FTTH - Pack Entreprise</text>
        <circle cx="18" cy="52" r="5" fill="#10B981"/>
        <text x="28" y="56" class="text-dark" font-size="11">Actif</text>
        <text x="12" y="72" class="text-muted" font-size="10">&#x2193; 1 Gbps &#x2191; 500 Mbps</text>
      </g>

    </g>

    <!-- RIGHT PANEL -->
    <g transform="translate(320, 0)">
      <rect x="0" y="0" width="1096" height="765" rx="8" class="bg-white"/>
      <rect x="0" y="0" width="1096" height="765" rx="8" class="border"/>

      <g transform="translate(20, 0)">
        <!-- HEADER PAGE -->
        <text x="0" y="28" class="text-dark" font-size="18" font-weight="600">xdsl-abc123-1 - Modem</text>
        <text x="0" y="48" class="text-muted" font-size="12">VDSL - Pack Pro</text>

        <!-- NAV4 TABS -->
        <g transform="translate(0, 65)">
          <rect x="0" y="0" width="55" height="26" rx="4" class="btn-outline"/>
          <text x="27" y="17" class="text-primary" font-size="11" text-anchor="middle">Acces</text>

          <rect x="59" y="0" width="55" height="26" rx="4" class="btn-outline"/>
          <text x="86" y="17" class="text-primary" font-size="11" text-anchor="middle">Ligne</text>

          <rect x="118" y="0" width="55" height="26" rx="4" class="bg-primary"/>
          <text x="145" y="17" class="text-white" font-size="11" text-anchor="middle">Modem</text>

          <rect x="177" y="0" width="45" height="26" rx="4" class="btn-outline"/>
          <text x="199" y="17" class="text-primary" font-size="11" text-anchor="middle">IP</text>

          <rect x="226" y="0" width="50" height="26" rx="4" class="btn-outline"/>
          <text x="251" y="17" class="text-primary" font-size="11" text-anchor="middle">IPv6</text>

          <rect x="280" y="0" width="70" height="26" rx="4" class="btn-outline"/>
          <text x="315" y="17" class="text-primary" font-size="11" text-anchor="middle">Services</text>

          <rect x="354" y="0" width="55" height="26" rx="4" class="btn-outline"/>
          <text x="381" y="17" class="text-primary" font-size="11" text-anchor="middle">Taches</text>
        </g>

        <!-- CONTENU - Modem -->
        <g transform="translate(0, 110)">

          <!-- Warning banniere -->
          <rect x="0" y="0" width="1036" height="40" rx="4" fill="#FEF3C7"/>
          <text x="20" y="25" class="text-warning" font-size="11">&#x26A0; La configuration a distance n'est pas activee. Activez-la pour gerer votre modem depuis cet espace.</text>

          <!-- Section Reseau -->
          <g transform="translate(0, 60)">
            <rect x="0" y="0" width="505" height="200" rx="6" fill="#FFFFFF" stroke="#E5E7EB"/>
            <text x="20" y="28" class="text-dark" font-size="15" font-weight="700">RESEAU</text>

            <rect x="20" y="50" width="120" height="32" rx="4" class="btn-primary"/>
            <text x="80" y="71" class="text-white" font-size="11" text-anchor="middle">Actualiser</text>

            <text x="20" y="110" class="text-primary" font-size="11">&#x25B6; 5 appareils connectes</text>

            <!-- Mini table appareils -->
            <text x="20" y="140" class="text-muted" font-size="10">Type</text>
            <text x="80" y="140" class="text-muted" font-size="10">MAC</text>
            <text x="200" y="140" class="text-muted" font-size="10">IP</text>
            <text x="290" y="140" class="text-muted" font-size="10">Nom</text>

            <text x="20" y="160" class="text-dark" font-size="10">&#x1F4F6; Wifi</text>
            <text x="80" y="160" class="text-dark" font-size="10">AA:BB:CC:DD:EE:01</text>
            <text x="200" y="160" class="text-dark" font-size="10">192.168.1.10</text>
            <text x="290" y="160" class="text-dark" font-size="10">iPhone-Jean</text>

            <text x="20" y="180" class="text-dark" font-size="10">&#x1F50C; Eth</text>
            <text x="80" y="180" class="text-dark" font-size="10">AA:BB:CC:DD:EE:02</text>
            <text x="200" y="180" class="text-dark" font-size="10">192.168.1.20</text>
            <text x="290" y="180" class="text-dark" font-size="10">PC-Bureau</text>
          </g>

          <!-- Section Configuration generale -->
          <g transform="translate(525, 60)">
            <rect x="0" y="0" width="511" height="200" rx="6" fill="#FFFFFF" stroke="#E5E7EB"/>
            <text x="20" y="28" class="text-dark" font-size="15" font-weight="700">CONFIGURATION GENERALE</text>

            <!-- Redemarrer -->
            <text x="20" y="60" class="text-muted" font-size="11">Redemarrer le modem</text>
            <rect x="20" y="70" width="120" height="28" rx="4" fill="#FFFFFF" stroke="#E5E7EB"/>
            <text x="80" y="89" class="text-dark" font-size="10" text-anchor="middle">Redemarrer</text>

            <!-- Config a distance -->
            <text x="180" y="60" class="text-muted" font-size="11">Configuration a distance</text>
            <rect x="180" y="70" width="40" height="20" rx="10" fill="#E5E7EB"/>
            <circle cx="190" cy="80" r="8" fill="#FFFFFF"/>
            <text x="230" y="85" class="text-dark" font-size="10">Desactivee</text>

            <!-- WiFi -->
            <text x="380" y="60" class="text-muted" font-size="11">WiFi</text>
            <rect x="380" y="70" width="40" height="20" rx="10" fill="#0050D7"/>
            <circle cx="410" cy="80" r="8" fill="#FFFFFF"/>
            <text x="430" y="85" class="text-dark" font-size="10">Active</text>
            <text x="470" y="85" class="text-primary" font-size="10">Configurer &#x2192;</text>

            <!-- Firewall -->
            <text x="20" y="130" class="text-muted" font-size="11">Firewall</text>
            <rect x="20" y="140" width="150" height="28" rx="4" fill="#FFFFFF" stroke="#E5E7EB"/>
            <text x="35" y="159" class="text-dark" font-size="10">Normal</text>
            <text x="150" y="159" class="text-muted" font-size="10">&#x25BC;</text>
          </g>

          <!-- Section Configuration avancee -->
          <g transform="translate(0, 280)">
            <rect x="0" y="0" width="1036" height="250" rx="6" fill="#FFFFFF" stroke="#E5E7EB"/>
            <text x="20" y="28" class="text-dark" font-size="15" font-weight="700">CONFIGURATION AVANCEE</text>

            <!-- Reset -->
            <text x="20" y="60" class="text-muted" font-size="11">Reinitialiser le modem</text>
            <rect x="20" y="70" width="150" height="28" rx="4" fill="#FFFFFF" stroke="#DC2626"/>
            <text x="95" y="89" class="text-error" font-size="10" text-anchor="middle">Reinitialiser</text>

            <!-- Bridge mode -->
            <text x="200" y="60" class="text-muted" font-size="11">Mode bridge</text>
            <rect x="200" y="70" width="40" height="20" rx="10" fill="#E5E7EB"/>
            <circle cx="210" cy="80" r="8" fill="#FFFFFF"/>
            <text x="250" y="85" class="text-dark" font-size="10">Desactive</text>

            <!-- MTU -->
            <text x="380" y="60" class="text-muted" font-size="11">MTU</text>
            <rect x="380" y="70" width="100" height="28" rx="4" fill="#FFFFFF" stroke="#E5E7EB"/>
            <text x="395" y="89" class="text-dark" font-size="10">1492</text>

            <!-- DMZ -->
            <text x="20" y="130" class="text-muted" font-size="11">DMZ</text>
            <rect x="20" y="140" width="200" height="28" rx="4" fill="#FFFFFF" stroke="#E5E7EB"/>
            <text x="35" y="159" class="text-muted" font-size="10">Aucune IP configuree</text>
            <text x="195" y="159" class="text-primary" font-size="10">&#x2192;</text>

            <!-- Firmware -->
            <text x="250" y="130" class="text-muted" font-size="11">Firmware</text>
            <rect x="250" y="140" width="200" height="28" rx="4" fill="#FFFFFF" stroke="#E5E7EB"/>
            <text x="265" y="159" class="text-dark" font-size="10">v3.2.1 (a jour)</text>

            <!-- Backend ACS -->
            <text x="20" y="200" class="text-muted" font-size="11">Backend ACS</text>
            <rect x="20" y="210" width="150" height="28" rx="4" fill="#FFFFFF" stroke="#E5E7EB"/>
            <text x="35" y="229" class="text-dark" font-size="10">Production</text>
            <text x="150" y="229" class="text-muted" font-size="10">&#x25BC;</text>
          </g>

        </g>
      </g>
    </g>
  </g>
</svg>
