<svg xmlns="http://www.w3.org/2000/svg" viewBox="0 0 1440 900" width="1440" height="900">
  <defs>
    <style>
      .bg-header { fill: #000E9C; }
      .bg-main { fill: #F6F6F9; }
      .bg-white { fill: #FFFFFF; }
      .bg-primary { fill: #0050D7; }
      .bg-neutral-100 { fill: #F3F4F6; }
      .bg-info { fill: #DBEAFE; }
      .bg-success { fill: #DEF7EC; }
      .border { stroke: #E5E7EB; stroke-width: 1; fill: none; }
      .btn-outline { stroke: #0050D7; stroke-width: 1; fill: #FFFFFF; }
      .btn-primary { fill: #0050D7; }
      .row-selected { fill: #E8F0FE; }
      .text-white { fill: #FFFFFF; font-family: 'Source Sans Pro', sans-serif; }
      .text-dark { fill: #1F2937; font-family: 'Source Sans Pro', sans-serif; }
      .text-muted { fill: #6B7280; font-family: 'Source Sans Pro', sans-serif; }
      .text-primary { fill: #0050D7; font-family: 'Source Sans Pro', sans-serif; }
      .text-success { fill: #059669; font-family: 'Source Sans Pro', sans-serif; }
      .text-error { fill: #DC2626; font-family: 'Source Sans Pro', sans-serif; }
      .text-info { fill: #1E40AF; font-family: 'Source Sans Pro', sans-serif; }
      .divider { stroke: #E5E7EB; stroke-width: 1; }
    </style>
  </defs>

  <!-- Background -->
  <rect width="1440" height="900" class="bg-main"/>

  <!-- NAV1 - Header OVH (Web Cloud actif) -->
  <rect width="1440" height="50" class="bg-header"/>
  <text x="40" y="32" class="text-white" font-size="14" opacity="0.7">Accueil</text>
  <text x="110" y="32" class="text-white" font-size="14" opacity="0.7">Public Cloud</text>
  <text x="210" y="32" class="text-white" font-size="14" opacity="0.7">Hosted Private Cloud</text>
  <text x="370" y="32" class="text-white" font-size="14" opacity="0.7">Bare Metal Cloud</text>
  <text x="510" y="32" class="text-white" font-size="14" font-weight="600">Web Cloud</text>
  <rect x="505" y="46" width="75" height="3" fill="#FFFFFF"/>
  <text x="620" y="32" class="text-white" font-size="14" opacity="0.7">Network</text>
  <text x="700" y="32" class="text-white" font-size="14" opacity="0.7">IAM / Securite</text>
  <text x="810" y="32" class="text-white" font-size="14" opacity="0.7">Licences</text>
  <rect x="1280" y="12" width="140" height="26" rx="13" fill="rgba(255,255,255,0.2)"/>
  <text x="1320" y="29" class="text-white" font-size="12">ab12345-ovh</text>

  <!-- NAV2 - Web Cloud (Acces actif) -->
  <rect x="0" y="50" width="1440" height="40" class="bg-white"/>
  <line x1="0" y1="89" x2="1440" y2="89" stroke="#E5E7EB"/>
  <text x="40" y="75" class="text-muted" font-size="14">Accueil</text>
  <text x="110" y="75" class="text-muted" font-size="14">Domaines et DNS</text>
  <text x="240" y="75" class="text-muted" font-size="14">Hebergement</text>
  <text x="345" y="75" class="text-muted" font-size="14">Wordpress</text>
  <text x="430" y="75" class="text-muted" font-size="14">Emails</text>
  <text x="500" y="75" class="text-muted" font-size="14">VoIP</text>
  <text x="550" y="75" class="text-primary" font-size="14" font-weight="600">Acces</text>
  <rect x="545" y="85" width="40" height="3" fill="#0050D7"/>
  <text x="1350" y="75" class="text-primary" font-size="13">Guides</text>

  <!-- CONTENT AREA -->
  <g transform="translate(0, 105)">
    <g transform="translate(24, 0)">

      <!-- LEFT PANEL -->
      <rect x="0" y="0" width="280" height="765" rx="8" class="bg-white"/>
      <rect x="0" y="0" width="280" height="765" rx="8" class="border"/>

      <!-- NAV3 Selector (AU-DESSUS de recherche) -->
      <rect x="0" y="0" width="280" height="44" rx="8" fill="#F9FAFB"/>
      <rect x="12" y="10" width="125" height="24" rx="4" fill="#0050D7"/>
      <text x="74" y="26" fill="#FFFFFF" font-size="11" text-anchor="middle">Général</text>
      <rect x="143" y="10" width="125" height="24" rx="4" fill="#FFFFFF" stroke="#E5E7EB"/>
      <text x="205" y="26" fill="#6B7280" font-size="11" text-anchor="middle">OTB</text>
      <line x1="0" y1="44" x2="280" y2="44" class="divider"/>

      <!-- Recherche (y=56, sous NAV3) -->
      <rect x="12" y="56" width="256" height="34" rx="4" fill="#F9FAFB" stroke="#E5E7EB"/>
      <text x="26" y="78" class="text-muted" font-size="12">Rechercher...</text>

      <!-- Compteur (y=100) -->
      <text x="12" y="112" class="text-muted" font-size="11">3 connexions</text>

      <!-- Connexion 1 - Selectionnee -->
      <g transform="translate(6, 124)">
        <rect x="0" y="0" width="268" height="95" rx="6" class="row-selected"/>
        <text x="12" y="20" font-size="14">&#x1F310;</text>
        <text x="32" y="20" class="text-dark" font-size="13" font-weight="600">Fibre Pro Paris</text>
        <text x="12" y="38" class="text-muted" font-size="11">FTTH - Pack Pro</text>
        <circle cx="18" cy="52" r="5" fill="#10B981"/>
        <text x="28" y="56" class="text-dark" font-size="11">Connecte</text>
        <text x="12" y="72" class="text-muted" font-size="10">&#x2193; 1 Gbps  &#x2191; 500 Mbps</text>
        <text x="12" y="88" class="text-muted" font-size="10">&#x1F4E6; Livebox 6</text>
      </g>

      <!-- Connexion 2 -->
      <g transform="translate(6, 229)">
        <rect x="0" y="0" width="268" height="95" rx="6" fill="#FFFFFF" stroke="#E5E7EB"/>
        <text x="12" y="20" font-size="14">&#x1F310;</text>
        <text x="32" y="20" class="text-dark" font-size="13" font-weight="600">VDSL Bureau Lyon</text>
        <text x="12" y="38" class="text-muted" font-size="11">VDSL2 - Acces seul</text>
        <circle cx="18" cy="52" r="5" fill="#10B981"/>
        <text x="28" y="56" class="text-dark" font-size="11">Connecte</text>
        <text x="12" y="72" class="text-muted" font-size="10">&#x2193; 95 Mbps  &#x2191; 35 Mbps</text>
        <text x="12" y="88" class="text-muted" font-size="10">&#x1F527; Netgear R7000</text>
      </g>

      <!-- Connexion 3 -->
      <g transform="translate(6, 334)">
        <rect x="0" y="0" width="268" height="95" rx="6" fill="#FFFFFF" stroke="#E5E7EB"/>
        <text x="12" y="20" font-size="14">&#x1F310;</text>
        <text x="32" y="20" class="text-dark" font-size="13" font-weight="600">Backup 4G</text>
        <text x="12" y="38" class="text-muted" font-size="11">4G/LTE - Acces seul</text>
        <circle cx="18" cy="52" r="5" fill="#10B981"/>
        <text x="28" y="56" class="text-dark" font-size="11">Connecte</text>
        <text x="12" y="72" class="text-muted" font-size="10">&#x2193; 80 Mbps  &#x2191; 30 Mbps</text>
        <text x="12" y="88" class="text-muted" font-size="10">&#x1F4E6; Routeur 4G OVH</text>
      </g>
    </g>

    <!-- RIGHT PANEL -->
    <g transform="translate(320, 0)">
      <rect x="0" y="0" width="1096" height="765" rx="8" class="bg-white"/>
      <rect x="0" y="0" width="1096" height="765" rx="8" class="border"/>

      <g transform="translate(20, 0)">
        <!-- HEADER PAGE -->
        <text x="0" y="28" class="text-dark" font-size="18" font-weight="600">Fibre Pro Paris</text>
        <text x="0" y="48" class="text-muted" font-size="12">FTTH - Pack Pro - 12 rue de l'Example, 75001 Paris</text>

        <!-- Badge type techno -->
        <rect x="920" y="8" width="50" height="20" rx="4" fill="#F3F4F6"/>
        <text x="945" y="22" class="text-muted" font-size="10" text-anchor="middle">FTTH</text>

        <!-- NAV3 TABS (General actif) -->
        <g transform="translate(0, 65)">
          <rect x="0" y="0" width="65" height="26" rx="4" class="bg-primary"/>
          <text x="32" y="17" class="text-white" font-size="11" text-anchor="middle">General</text>

          <rect x="69" y="0" width="55" height="26" rx="4" class="btn-outline"/>
          <text x="96" y="17" class="text-primary" font-size="11" text-anchor="middle">Ligne</text>

          <rect x="128" y="0" width="55" height="26" rx="4" class="btn-outline"/>
          <text x="155" y="17" class="text-primary" font-size="11" text-anchor="middle">Modem</text>

          <rect x="187" y="0" width="70" height="26" rx="4" class="btn-outline"/>
          <text x="222" y="17" class="text-primary" font-size="11" text-anchor="middle">Services</text>

          <rect x="261" y="0" width="45" height="26" rx="4" class="btn-outline"/>
          <text x="283" y="17" class="text-primary" font-size="11" text-anchor="middle">VoIP</text>

          <rect x="310" y="0" width="60" height="26" rx="4" class="btn-outline"/>
          <text x="340" y="17" class="text-primary" font-size="11" text-anchor="middle">Options</text>

          <rect x="374" y="0" width="55" height="26" rx="4" class="btn-outline"/>
          <text x="401" y="17" class="text-primary" font-size="11" text-anchor="middle">Taches</text>
        </g>

        <!-- CONTENU - Tab General -->
        <g transform="translate(0, 110)">

          <!-- Bloc Statut Connexion -->
          <rect x="0" y="0" width="1036" height="100" rx="6" fill="#FFFFFF" stroke="#E5E7EB"/>
          <text x="20" y="28" class="text-dark" font-size="15" font-weight="700">CONNEXION</text>

          <g transform="translate(20, 45)">
            <circle cx="15" cy="15" r="12" fill="#10B981"/>
            <text x="40" y="20" class="text-dark" font-size="16" font-weight="600">CONNECTE</text>
            <text x="180" y="20" class="text-muted" font-size="12">Depuis 127 jours</text>
          </g>

          <text x="450" y="60" class="text-muted" font-size="11">Debit synchronise</text>
          <text x="450" y="80" class="text-dark" font-size="13">&#x2193; 1 Gbps  &#x2191; 500 Mbps</text>

          <text x="700" y="60" class="text-muted" font-size="11">Derniere sync</text>
          <text x="700" y="80" class="text-dark" font-size="13">29/12/2025 a 03:15</text>

          <!-- Bloc Informations -->
          <g transform="translate(0, 120)">
            <rect x="0" y="0" width="505" height="200" rx="6" fill="#FFFFFF" stroke="#E5E7EB"/>
            <text x="20" y="28" class="text-dark" font-size="13" font-weight="600">INFORMATIONS</text>

            <text x="20" y="55" class="text-muted" font-size="11">Type de connexion</text>
            <text x="180" y="55" class="text-dark" font-size="11">FTTH (Fibre optique)</text>

            <text x="20" y="80" class="text-muted" font-size="11">Offre</text>
            <text x="180" y="80" class="text-dark" font-size="11">Pack Pro</text>

            <text x="20" y="105" class="text-muted" font-size="11">Adresse installation</text>
            <text x="180" y="105" class="text-dark" font-size="11">12 rue de l'Example</text>
            <text x="180" y="120" class="text-dark" font-size="11">75001 Paris, France</text>

            <text x="20" y="150" class="text-muted" font-size="11">NRO</text>
            <text x="180" y="150" class="text-dark" font-size="11">PAR75-FTTH-01</text>

            <text x="20" y="175" class="text-muted" font-size="11">GTR</text>
            <text x="180" y="175" class="text-dark" font-size="11">4 heures ouvrees</text>
          </g>

          <!-- Bloc Modem -->
          <g transform="translate(525, 120)">
            <rect x="0" y="0" width="511" height="200" rx="6" fill="#FFFFFF" stroke="#E5E7EB"/>
            <text x="20" y="28" class="text-dark" font-size="13" font-weight="600">MODEM</text>

            <text x="20" y="60" font-size="20">&#x1F4E6;</text>
            <text x="50" y="60" class="text-dark" font-size="14" font-weight="500">Livebox 6 Pro</text>
            <rect x="170" y="45" width="80" height="18" rx="9" fill="#DEF7EC"/>
            <text x="210" y="58" fill="#03543F" font-size="10" text-anchor="middle">Modem OVH</text>

            <text x="20" y="90" class="text-muted" font-size="11">Gere par OVH - Configuration a distance</text>

            <text x="20" y="120" class="text-muted" font-size="11">Firmware</text>
            <text x="120" y="120" class="text-dark" font-size="11">4.12.0 A jour</text>

            <text x="250" y="120" class="text-muted" font-size="11">Uptime</text>
            <text x="320" y="120" class="text-dark" font-size="11">127j 08:45:12</text>

            <rect x="20" y="145" width="140" height="32" rx="4" class="btn-outline"/>
            <text x="90" y="166" class="text-primary" font-size="11" text-anchor="middle">Configurer</text>

            <rect x="170" y="145" width="140" height="32" rx="4" class="btn-outline"/>
            <text x="240" y="166" class="text-primary" font-size="11" text-anchor="middle">Redemarrer</text>
          </g>

          <!-- Bloc Services Inclus -->
          <g transform="translate(0, 340)">
            <rect x="0" y="0" width="505" height="140" rx="6" fill="#FFFFFF" stroke="#E5E7EB"/>
            <text x="20" y="28" class="text-dark" font-size="13" font-weight="600">SERVICES INCLUS (Pack Pro)</text>

            <text x="20" y="60" class="text-dark" font-size="12">example.com</text>
            <text x="250" y="60" class="text-primary" font-size="11">Gerer</text>

            <text x="20" y="85" class="text-dark" font-size="12">5x MX Plan (emails)</text>
            <text x="250" y="85" class="text-primary" font-size="11">Gerer</text>

            <text x="20" y="110" class="text-dark" font-size="12">1x Ligne VoIP</text>
            <text x="250" y="110" class="text-primary" font-size="11">Gerer</text>
          </g>

          <!-- Bloc Options -->
          <g transform="translate(525, 340)">
            <rect x="0" y="0" width="511" height="140" rx="6" fill="#FFFFFF" stroke="#E5E7EB"/>
            <text x="20" y="28" class="text-dark" font-size="13" font-weight="600">OPTIONS ACTIVES</text>

            <rect x="20" y="45" width="70" height="22" rx="11" fill="#DEF7EC"/>
            <text x="55" y="60" fill="#03543F" font-size="10" text-anchor="middle">IP fixe</text>

            <rect x="100" y="45" width="60" height="22" rx="11" fill="#DEF7EC"/>
            <text x="130" y="60" fill="#03543F" font-size="10" text-anchor="middle">IPv6</text>

            <rect x="170" y="45" width="70" height="22" rx="11" fill="#DEF7EC"/>
            <text x="205" y="60" fill="#03543F" font-size="10" text-anchor="middle">GTR 4h</text>

            <rect x="20" y="85" width="150" height="32" rx="4" class="btn-outline"/>
            <text x="95" y="106" class="text-primary" font-size="11" text-anchor="middle">+ Ajouter option</text>
          </g>

          <!-- Bloc Abonnement -->
          <g transform="translate(0, 500)">
            <rect x="0" y="0" width="1036" height="80" rx="6" fill="#FFFFFF" stroke="#E5E7EB"/>
            <text x="20" y="28" class="text-dark" font-size="13" font-weight="600">ABONNEMENT</text>

            <text x="20" y="55" class="text-muted" font-size="11">Creation</text>
            <text x="100" y="55" class="text-dark" font-size="11">15/03/2024</text>

            <text x="220" y="55" class="text-muted" font-size="11">Engagement</text>
            <text x="320" y="55" class="text-dark" font-size="11">12 mois - 15/03/2025</text>

            <text x="520" y="55" class="text-muted" font-size="11">Prochaine facture</text>
            <text x="650" y="55" class="text-dark" font-size="11">01/01/2026</text>

            <text x="800" y="55" class="text-muted" font-size="11">Montant</text>
            <text x="870" y="55" class="text-dark" font-size="11" font-weight="600">49,99 EUR/mois</text>
          </g>

          <!-- Actions -->
          <g transform="translate(0, 600)">
            <rect x="0" y="0" width="100" height="34" rx="4" fill="#FFFFFF" stroke="#E5E7EB"/>
            <text x="50" y="22" class="text-dark" font-size="11" text-anchor="middle">Renommer</text>

            <rect x="110" y="0" width="100" height="34" rx="4" fill="#FFFFFF" stroke="#E5E7EB"/>
            <text x="160" y="22" class="text-dark" font-size="11" text-anchor="middle">Contacts</text>

            <rect x="220" y="0" width="110" height="34" rx="4" fill="#FFFFFF" stroke="#E5E7EB"/>
            <text x="275" y="22" class="text-dark" font-size="11" text-anchor="middle">Demenager</text>

            <rect x="340" y="0" width="110" height="34" rx="4" fill="#FFFFFF" stroke="#E5E7EB"/>
            <text x="395" y="22" class="text-dark" font-size="11" text-anchor="middle">Migrer offre</text>

            <rect x="926" y="0" width="100" height="34" rx="4" fill="#FFFFFF" stroke="#DC2626"/>
            <text x="976" y="22" class="text-error" font-size="11" text-anchor="middle">Resilier</text>
          </g>

        </g>
      </g>
    </g>
  </g>
</svg>