<svg xmlns="http://www.w3.org/2000/svg" viewBox="0 0 1440 900" width="1440" height="900">
  <defs>
    <style>
      .bg-header { fill: #000E9C; }
      .bg-main { fill: #F6F6F9; }
      .bg-white { fill: #FFFFFF; }
      .bg-primary { fill: #0050D7; }
      .bg-success { fill: #DEF7EC; }
      .bg-error { fill: #FEE2E2; }
      .bg-info { fill: #DBEAFE; }
      .border { stroke: #E5E7EB; stroke-width: 1; fill: none; }
      .btn-outline { stroke: #0050D7; stroke-width: 1; fill: #FFFFFF; }
      .btn-primary { fill: #0050D7; }
      .row-selected { fill: #E8F0FE; }
      .table-header { fill: #F9FAFB; }
      .divider { stroke: #E5E7EB; stroke-width: 1; }
      .text-white { fill: #FFFFFF; font-family: 'Source Sans Pro', sans-serif; }
      .text-dark { fill: #1F2937; font-family: 'Source Sans Pro', sans-serif; }
      .text-muted { fill: #6B7280; font-family: 'Source Sans Pro', sans-serif; }
      .text-primary { fill: #0050D7; font-family: 'Source Sans Pro', sans-serif; }
      .text-success { fill: #059669; font-family: 'Source Sans Pro', sans-serif; }
      .text-error { fill: #DC2626; font-family: 'Source Sans Pro', sans-serif; }
      .text-info { fill: #1E40AF; font-family: 'Source Sans Pro', sans-serif; }
    </style>
  </defs>

  <!-- Background -->
  <rect width="1440" height="900" class="bg-main"/>

  <!-- NAV1 - Header OVH (Web Cloud actif) -->
  <rect width="1440" height="50" class="bg-header"/>
  <text x="40" y="32" class="text-white" font-size="14" opacity="0.7">Accueil</text>
  <text x="110" y="32" class="text-white" font-size="14" opacity="0.7">Public Cloud</text>
  <text x="210" y="32" class="text-white" font-size="14" opacity="0.7">Hosted Private Cloud</text>
  <text x="370" y="32" class="text-white" font-size="14" opacity="0.7">Bare Metal Cloud</text>
  <text x="510" y="32" class="text-white" font-size="14" font-weight="600">Web Cloud</text>
  <rect x="505" y="46" width="75" height="3" fill="#FFFFFF"/>
  <text x="620" y="32" class="text-white" font-size="14" opacity="0.7">Network</text>
  <text x="700" y="32" class="text-white" font-size="14" opacity="0.7">IAM / Securite</text>
  <text x="810" y="32" class="text-white" font-size="14" opacity="0.7">Licences</text>
  <rect x="1280" y="12" width="140" height="26" rx="13" fill="rgba(255,255,255,0.2)"/>
  <text x="1320" y="29" class="text-white" font-size="12">ab12345-ovh</text>

  <!-- NAV2 - Web Cloud (Acces actif) -->
  <rect x="0" y="50" width="1440" height="40" class="bg-white"/>
  <line x1="0" y1="89" x2="1440" y2="89" stroke="#E5E7EB"/>
  <text x="40" y="75" class="text-muted" font-size="14">Accueil</text>
  <text x="110" y="75" class="text-muted" font-size="14">Domaines et DNS</text>
  <text x="240" y="75" class="text-muted" font-size="14">Hebergement</text>
  <text x="345" y="75" class="text-muted" font-size="14">Wordpress</text>
  <text x="430" y="75" class="text-muted" font-size="14">Emails</text>
  <text x="500" y="75" class="text-muted" font-size="14">VoIP</text>
  <text x="550" y="75" class="text-primary" font-size="14" font-weight="600">Acces</text>
  <rect x="545" y="85" width="40" height="3" fill="#0050D7"/>
  <text x="1350" y="75" class="text-primary" font-size="13">Guides</text>

  <!-- CONTENT AREA -->
  <g transform="translate(0, 105)">
    <g transform="translate(24, 0)">

      <!-- LEFT PANEL -->
      <rect x="0" y="0" width="280" height="765" rx="8" class="bg-white"/>
      <rect x="0" y="0" width="280" height="765" rx="8" class="border"/>

      <!-- NAV3 Selector (AU-DESSUS de recherche) - OTB actif -->
      <rect x="0" y="0" width="280" height="44" rx="8" fill="#F9FAFB"/>
      <rect x="12" y="10" width="125" height="24" rx="4" fill="#FFFFFF" stroke="#E5E7EB"/>
      <text x="74" y="26" fill="#6B7280" font-size="11" text-anchor="middle">General</text>
      <rect x="143" y="10" width="125" height="24" rx="4" fill="#0050D7"/>
      <text x="205" y="26" fill="#FFFFFF" font-size="11" text-anchor="middle">OTB</text>
      <line x1="0" y1="44" x2="280" y2="44" class="divider"/>

      <!-- Recherche -->
      <rect x="12" y="56" width="256" height="34" rx="4" fill="#F9FAFB" stroke="#E5E7EB"/>
      <text x="26" y="78" class="text-muted" font-size="12">Rechercher...</text>

      <!-- Compteur -->
      <text x="12" y="112" class="text-muted" font-size="11">2 OverTheBox</text>

      <!-- OTB 1 - Selectionnee -->
      <g transform="translate(6, 124)">
        <rect x="0" y="0" width="268" height="80" rx="6" class="row-selected"/>
        <text x="12" y="20" font-size="14">&#x1F4E6;</text>
        <text x="32" y="20" class="text-dark" font-size="13" font-weight="600">OTB Siege Paris</text>
        <text x="12" y="38" class="text-muted" font-size="11">otb-abc123def</text>
        <circle cx="18" cy="52" r="5" fill="#10B981"/>
        <text x="28" y="56" class="text-dark" font-size="11">Actif - 3 WAN</text>
        <text x="12" y="72" class="text-muted" font-size="10">&#x2193; 1.15 Gbps agrege</text>
      </g>

      <!-- OTB 2 -->
      <g transform="translate(6, 214)">
        <rect x="0" y="0" width="268" height="80" rx="6" fill="#FFFFFF" stroke="#E5E7EB"/>
        <text x="12" y="20" font-size="14">&#x1F4E6;</text>
        <text x="32" y="20" class="text-dark" font-size="13" font-weight="600">OTB Bureau Lyon</text>
        <text x="12" y="38" class="text-muted" font-size="11">otb-xyz789abc</text>
        <circle cx="18" cy="52" r="5" fill="#10B981"/>
        <text x="28" y="56" class="text-dark" font-size="11">Actif - 2 WAN</text>
        <text x="12" y="72" class="text-muted" font-size="10">&#x2193; 200 Mbps agrege</text>
      </g>

    </g>

    <!-- RIGHT PANEL -->
    <g transform="translate(320, 0)">
      <rect x="0" y="0" width="1096" height="765" rx="8" class="bg-white"/>
      <rect x="0" y="0" width="1096" height="765" rx="8" class="border"/>

      <g transform="translate(20, 0)">
        <!-- HEADER PAGE -->
        <text x="0" y="28" class="text-dark" font-size="18" font-weight="600">OTB Siege Paris</text>
        <text x="0" y="48" class="text-muted" font-size="12">otb-abc123def - OverTheBox Plus - 3 connexions WAN</text>

        <!-- NAV4 TABS -->
        <g transform="translate(0, 65)">
          <rect x="0" y="0" width="75" height="26" rx="4" class="btn-outline"/>
          <text x="37" y="17" class="text-primary" font-size="11" text-anchor="middle">Dashboard</text>

          <rect x="79" y="0" width="80" height="26" rx="4" class="btn-outline"/>
          <text x="119" y="17" class="text-primary" font-size="11" text-anchor="middle">Connexions</text>

          <rect x="163" y="0" width="65" height="26" rx="4" class="btn-outline"/>
          <text x="195" y="17" class="text-primary" font-size="11" text-anchor="middle">Remotes</text>

          <rect x="232" y="0" width="65" height="26" rx="4" class="btn-outline"/>
          <text x="264" y="17" class="text-primary" font-size="11" text-anchor="middle">Config</text>

          <rect x="301" y="0" width="55" height="26" rx="4" class="bg-primary"/>
          <text x="328" y="17" class="text-white" font-size="11" text-anchor="middle">Taches</text>
        </g>

        <!-- CONTENU - Tab Actions/Taches -->
        <g transform="translate(0, 110)">

          <!-- Toolbar -->
          <rect x="0" y="0" width="32" height="32" rx="4" class="btn-outline"/>
          <text x="16" y="22" class="text-primary" font-size="14" text-anchor="middle">&#x21BB;</text>

          <text x="50" y="22" class="text-muted" font-size="12">8 actions</text>

          <!-- Table -->
          <g transform="translate(0, 50)">
            <rect x="0" y="0" width="1036" height="500" rx="6" fill="#FFFFFF" stroke="#E5E7EB"/>

            <!-- Table header -->
            <rect x="0" y="0" width="1036" height="45" rx="6" class="table-header"/>
            <text x="20" y="28" class="text-muted" font-size="11" font-weight="600">NOM</text>
            <text x="200" y="28" class="text-muted" font-size="11" font-weight="600">ID</text>
            <text x="400" y="28" class="text-muted" font-size="11" font-weight="600">CREE LE</text>
            <text x="550" y="28" class="text-muted" font-size="11" font-weight="600">MIS A JOUR</text>
            <text x="720" y="28" class="text-muted" font-size="11" font-weight="600">STATUT</text>
            <text x="880" y="28" class="text-muted" font-size="11" font-weight="600">ACTIONS</text>

            <!-- Row 1 - Termine -->
            <g transform="translate(0, 55)">
              <line x1="0" y1="0" x2="1036" y2="0" stroke="#E5E7EB"/>
              <text x="20" y="28" class="text-dark" font-size="12">reboot</text>
              <text x="200" y="28" class="text-muted" font-size="11">action-12345</text>
              <text x="400" y="28" class="text-dark" font-size="12">28/12/2025</text>
              <text x="550" y="28" class="text-dark" font-size="12">28/12/2025</text>
              <rect x="720" y="10" width="70" height="22" rx="11" fill="#DEF7EC"/>
              <text x="755" y="26" fill="#03543F" font-size="10" text-anchor="middle">Termine</text>
              <text x="880" y="28" class="text-primary" font-size="11">Details</text>
            </g>

            <!-- Row 2 - En cours -->
            <g transform="translate(0, 100)">
              <line x1="0" y1="0" x2="1036" y2="0" stroke="#E5E7EB"/>
              <text x="20" y="28" class="text-dark" font-size="12">updateFirmware</text>
              <text x="200" y="28" class="text-muted" font-size="11">action-67890</text>
              <text x="400" y="28" class="text-dark" font-size="12">28/12/2025</text>
              <text x="550" y="28" class="text-dark" font-size="12">28/12/2025</text>
              <rect x="720" y="10" width="80" height="22" rx="11" fill="#DBEAFE"/>
              <text x="760" y="26" fill="#1E40AF" font-size="10" text-anchor="middle">En cours</text>
              <text x="880" y="28" class="text-primary" font-size="11">Details</text>
            </g>

            <!-- Row 3 - En attente -->
            <g transform="translate(0, 145)">
              <line x1="0" y1="0" x2="1036" y2="0" stroke="#E5E7EB"/>
              <text x="20" y="28" class="text-dark" font-size="12">resetConfiguration</text>
              <text x="200" y="28" class="text-muted" font-size="11">action-11111</text>
              <text x="400" y="28" class="text-dark" font-size="12">27/12/2025</text>
              <text x="550" y="28" class="text-dark" font-size="12">27/12/2025</text>
              <rect x="720" y="10" width="80" height="22" rx="11" fill="#F3F4F6"/>
              <text x="760" y="26" class="text-muted" font-size="10" text-anchor="middle">En attente</text>
              <text x="880" y="28" class="text-primary" font-size="11">Details</text>
            </g>

            <!-- Row 4 - Erreur -->
            <g transform="translate(0, 190)">
              <line x1="0" y1="0" x2="1036" y2="0" stroke="#E5E7EB"/>
              <text x="20" y="28" class="text-dark" font-size="12">backupConfig</text>
              <text x="200" y="28" class="text-muted" font-size="11">action-22222</text>
              <text x="400" y="28" class="text-dark" font-size="12">26/12/2025</text>
              <text x="550" y="28" class="text-dark" font-size="12">26/12/2025</text>
              <rect x="720" y="10" width="60" height="22" rx="11" fill="#FEE2E2"/>
              <text x="750" y="26" fill="#DC2626" font-size="10" text-anchor="middle">Erreur</text>
              <text x="880" y="28" class="text-primary" font-size="11">Relancer</text>
            </g>

            <!-- Row 5 - Termine -->
            <g transform="translate(0, 235)">
              <line x1="0" y1="0" x2="1036" y2="0" stroke="#E5E7EB"/>
              <text x="20" y="28" class="text-dark" font-size="12">syncDevices</text>
              <text x="200" y="28" class="text-muted" font-size="11">action-33333</text>
              <text x="400" y="28" class="text-dark" font-size="12">25/12/2025</text>
              <text x="550" y="28" class="text-dark" font-size="12">25/12/2025</text>
              <rect x="720" y="10" width="70" height="22" rx="11" fill="#DEF7EC"/>
              <text x="755" y="26" fill="#03543F" font-size="10" text-anchor="middle">Termine</text>
              <text x="880" y="28" class="text-primary" font-size="11">Details</text>
            </g>

            <!-- Pagination -->
            <g transform="translate(0, 430)">
              <text x="20" y="20" class="text-muted" font-size="11">Affichage 1-5 sur 8</text>
              <rect x="900" y="5" width="28" height="26" rx="4" fill="#E5E7EB"/>
              <text x="914" y="23" class="text-muted" font-size="12" text-anchor="middle">&#x2039;</text>
              <rect x="932" y="5" width="28" height="26" rx="4" class="bg-primary"/>
              <text x="946" y="23" class="text-white" font-size="11" text-anchor="middle">1</text>
              <rect x="964" y="5" width="28" height="26" rx="4" class="btn-outline"/>
              <text x="978" y="23" class="text-primary" font-size="11" text-anchor="middle">2</text>
              <rect x="996" y="5" width="28" height="26" rx="4" class="btn-outline"/>
              <text x="1010" y="23" class="text-primary" font-size="12" text-anchor="middle">&#x203A;</text>
            </g>
          </g>

        </g>
      </g>
    </g>
  </g>
</svg>
