<svg xmlns="http://www.w3.org/2000/svg" viewBox="0 0 1440 900" width="1440" height="900">
  <defs>
    <style>
      .bg-header { fill: #000E9C; }
      .bg-main { fill: #F6F6F9; }
      .bg-white { fill: #FFFFFF; }
      .bg-primary { fill: #0050D7; }
      .bg-success { fill: #DEF7EC; }
      .bg-warning { fill: #FEF3C7; }
      .bg-info { fill: #DBEAFE; }
      .border { stroke: #E5E7EB; stroke-width: 1; fill: none; }
      .btn-outline { stroke: #0050D7; stroke-width: 1; fill: #FFFFFF; }
      .btn-primary { fill: #0050D7; }
      .row-selected { fill: #E8F0FE; }
      .text-white { fill: #FFFFFF; font-family: 'Source Sans Pro', sans-serif; }
      .text-dark { fill: #1F2937; font-family: 'Source Sans Pro', sans-serif; }
      .text-muted { fill: #6B7280; font-family: 'Source Sans Pro', sans-serif; }
      .text-primary { fill: #0050D7; font-family: 'Source Sans Pro', sans-serif; }
      .text-success { fill: #059669; font-family: 'Source Sans Pro', sans-serif; }
      .text-error { fill: #DC2626; font-family: 'Source Sans Pro', sans-serif; }
      .text-info { fill: #1E40AF; font-family: 'Source Sans Pro', sans-serif; }
      .divider { stroke: #E5E7EB; stroke-width: 1; }
    </style>
  </defs>

  <!-- Background -->
  <rect width="1440" height="900" class="bg-main"/>

  <!-- NAV1 -->
  <rect width="1440" height="50" class="bg-header"/>
  <text x="40" y="32" class="text-white" font-size="14" opacity="0.7">Accueil</text>
  <text x="510" y="32" class="text-white" font-size="14" font-weight="600">Web Cloud</text>
  <rect x="505" y="46" width="75" height="3" fill="#FFFFFF"/>
  <rect x="1280" y="12" width="140" height="26" rx="13" fill="rgba(255,255,255,0.2)"/>
  <text x="1320" y="29" class="text-white" font-size="12">ab12345-ovh</text>

  <!-- NAV2 -->
  <rect x="0" y="50" width="1440" height="40" class="bg-white"/>
  <line x1="0" y1="89" x2="1440" y2="89" stroke="#E5E7EB"/>
  <text x="550" y="75" class="text-primary" font-size="14" font-weight="600">Accès</text>
  <rect x="545" y="85" width="40" height="3" fill="#0050D7"/>

  <!-- CONTENT -->
  <g transform="translate(0, 105)">
    <g transform="translate(24, 0)">
      <!-- LEFT PANEL -->
      <rect x="0" y="0" width="280" height="765" rx="8" class="bg-white"/>
      <rect x="0" y="0" width="280" height="765" rx="8" class="border"/>

      <!-- NAV3 Selector (AU-DESSUS de recherche) -->
      <rect x="0" y="0" width="280" height="44" rx="8" fill="#F9FAFB"/>
      <rect x="12" y="10" width="125" height="24" rx="4" fill="#0050D7"/>
      <text x="74" y="26" fill="#FFFFFF" font-size="11" text-anchor="middle">Général</text>
      <rect x="143" y="10" width="125" height="24" rx="4" fill="#FFFFFF" stroke="#E5E7EB"/>
      <text x="205" y="26" fill="#6B7280" font-size="11" text-anchor="middle">OTB</text>
      <line x1="0" y1="44" x2="280" y2="44" class="divider"/>

      <!-- Recherche (y=56, sous NAV3) -->
      <rect x="12" y="56" width="256" height="34" rx="4" fill="#F9FAFB" stroke="#E5E7EB"/>
      <text x="26" y="78" class="text-muted" font-size="12">Rechercher...</text>

      <!-- Compteur (y=100) -->
      <text x="12" y="112" class="text-muted" font-size="11">3 connexions</text>

      <g transform="translate(6, 124)">
        <rect x="0" y="0" width="268" height="95" rx="6" class="row-selected"/>
        <text x="12" y="20" font-size="14">🌐</text>
        <text x="32" y="20" class="text-dark" font-size="13" font-weight="600">Fibre Pro Paris</text>
        <text x="12" y="38" class="text-muted" font-size="11">FTTH · Pack Pro</text>
        <circle cx="18" cy="52" r="5" fill="#10B981"/>
        <text x="28" y="56" class="text-dark" font-size="11">Connecté</text>
      </g>
    </g>

    <!-- RIGHT PANEL -->
    <g transform="translate(320, 0)">
      <rect x="0" y="0" width="1096" height="765" rx="8" class="bg-white"/>
      <rect x="0" y="0" width="1096" height="765" rx="8" class="border"/>

      <g transform="translate(20, 0)">
        <!-- HEADER -->
        <text x="0" y="28" class="text-dark" font-size="18" font-weight="600">Fibre Pro Paris</text>

        <!-- NAV3 (Services actif) -->
        <g transform="translate(0, 65)">
          <rect x="0" y="0" width="65" height="26" rx="4" class="btn-outline"/>
          <text x="32" y="17" class="text-primary" font-size="11" text-anchor="middle">Général</text>
          <rect x="69" y="0" width="55" height="26" rx="4" class="btn-outline"/>
          <text x="96" y="17" class="text-primary" font-size="11" text-anchor="middle">Ligne</text>
          <rect x="128" y="0" width="55" height="26" rx="4" class="btn-outline"/>
          <text x="155" y="17" class="text-primary" font-size="11" text-anchor="middle">Modem</text>
          <rect x="187" y="0" width="70" height="26" rx="4" class="bg-primary"/>
          <text x="222" y="17" class="text-white" font-size="11" text-anchor="middle">Services</text>
          <rect x="261" y="0" width="55" height="26" rx="4" class="btn-outline"/>
          <text x="288" y="17" class="text-primary" font-size="11" text-anchor="middle">VoIP</text>
        </g>

        <!-- CONTENU SERVICES -->
        <g transform="translate(0, 110)">

          <text x="0" y="20" class="text-dark" font-size="15" font-weight="700">SERVICES ASSOCIÉS</text>

          <!-- Service 1: Email Pro -->
          <g transform="translate(0, 40)">
            <rect x="0" y="0" width="500" height="140" rx="6" fill="#FFFFFF" stroke="#E5E7EB"/>
            <text x="20" y="28" font-size="24">📧</text>
            <text x="60" y="28" class="text-dark" font-size="14" font-weight="600">Email Pro</text>
            <rect x="180" y="12" width="50" height="20" rx="10" fill="#DEF7EC"/>
            <text x="205" y="26" fill="#03543F" font-size="10" text-anchor="middle">Actif</text>

            <text x="20" y="55" class="text-muted" font-size="11">Domaine</text>
            <text x="120" y="55" class="text-dark" font-size="12">entreprise.fr</text>

            <text x="20" y="78" class="text-muted" font-size="11">Comptes</text>
            <text x="120" y="78" class="text-dark" font-size="12">5 / 10 utilisés</text>

            <text x="20" y="101" class="text-muted" font-size="11">Stockage</text>
            <text x="120" y="101" class="text-dark" font-size="12">25 Go / compte</text>

            <rect x="350" y="95" width="130" height="28" rx="4" class="btn-outline"/>
            <text x="415" y="114" class="text-primary" font-size="11" text-anchor="middle">Gérer →</text>
          </g>

          <!-- Service 2: Hébergement Web -->
          <g transform="translate(520, 40)">
            <rect x="0" y="0" width="500" height="140" rx="6" fill="#FFFFFF" stroke="#E5E7EB"/>
            <text x="20" y="28" font-size="24">🌍</text>
            <text x="60" y="28" class="text-dark" font-size="14" font-weight="600">Hébergement Web</text>
            <rect x="210" y="12" width="50" height="20" rx="10" fill="#DEF7EC"/>
            <text x="235" y="26" fill="#03543F" font-size="10" text-anchor="middle">Actif</text>

            <text x="20" y="55" class="text-muted" font-size="11">Offre</text>
            <text x="120" y="55" class="text-dark" font-size="12">Performance 2</text>

            <text x="20" y="78" class="text-muted" font-size="11">Sites</text>
            <text x="120" y="78" class="text-dark" font-size="12">3 sites hébergés</text>

            <text x="20" y="101" class="text-muted" font-size="11">Espace</text>
            <text x="120" y="101" class="text-dark" font-size="12">45 Go / 250 Go</text>

            <rect x="350" y="95" width="130" height="28" rx="4" class="btn-outline"/>
            <text x="415" y="114" class="text-primary" font-size="11" text-anchor="middle">Gérer →</text>
          </g>

          <!-- Service 3: Nom de domaine -->
          <g transform="translate(0, 200)">
            <rect x="0" y="0" width="500" height="140" rx="6" fill="#FFFFFF" stroke="#E5E7EB"/>
            <text x="20" y="28" font-size="24">🔗</text>
            <text x="60" y="28" class="text-dark" font-size="14" font-weight="600">Nom de domaine</text>
            <rect x="200" y="12" width="50" height="20" rx="10" fill="#DEF7EC"/>
            <text x="225" y="26" fill="#03543F" font-size="10" text-anchor="middle">Actif</text>

            <text x="20" y="55" class="text-muted" font-size="11">Domaine</text>
            <text x="120" y="55" class="text-dark" font-size="12">entreprise.fr</text>

            <text x="20" y="78" class="text-muted" font-size="11">Expiration</text>
            <text x="120" y="78" class="text-dark" font-size="12">15/06/2026</text>

            <text x="20" y="101" class="text-muted" font-size="11">DNS</text>
            <text x="120" y="101" class="text-dark" font-size="12">OVH DNS</text>

            <rect x="350" y="95" width="130" height="28" rx="4" class="btn-outline"/>
            <text x="415" y="114" class="text-primary" font-size="11" text-anchor="middle">Gérer →</text>
          </g>

          <!-- Service 4: IP Failover -->
          <g transform="translate(520, 200)">
            <rect x="0" y="0" width="500" height="140" rx="6" fill="#FFFFFF" stroke="#E5E7EB"/>
            <text x="20" y="28" font-size="24">🔢</text>
            <text x="60" y="28" class="text-dark" font-size="14" font-weight="600">IP Failover</text>
            <rect x="170" y="12" width="50" height="20" rx="10" fill="#DEF7EC"/>
            <text x="195" y="26" fill="#03543F" font-size="10" text-anchor="middle">Actif</text>

            <text x="20" y="55" class="text-muted" font-size="11">Adresse IP</text>
            <text x="120" y="55" class="text-dark" font-size="12">91.134.xxx.xxx</text>

            <text x="20" y="78" class="text-muted" font-size="11">Routée vers</text>
            <text x="120" y="78" class="text-dark" font-size="12">Fibre Pro Paris</text>

            <text x="20" y="101" class="text-muted" font-size="11">Reverse DNS</text>
            <text x="120" y="101" class="text-dark" font-size="12">mail.entreprise.fr</text>

            <rect x="350" y="95" width="130" height="28" rx="4" class="btn-outline"/>
            <text x="415" y="114" class="text-primary" font-size="11" text-anchor="middle">Gérer →</text>
          </g>

          <!-- Section Ajouter -->
          <g transform="translate(0, 360)">
            <rect x="0" y="0" width="1030" height="100" rx="6" class="bg-info"/>
            <text x="20" y="28" class="text-info" font-size="13" font-weight="600">AJOUTER UN SERVICE</text>
            <text x="20" y="55" class="text-info" font-size="11">Enrichissez votre offre avec des services complémentaires : Email, Hébergement, DNS, VoIP...</text>

            <rect x="850" y="30" width="160" height="36" rx="4" class="btn-primary"/>
            <text x="930" y="53" class="text-white" font-size="11" text-anchor="middle">Commander →</text>
          </g>

          <!-- Statistiques rapides -->
          <g transform="translate(0, 480)">
            <rect x="0" y="0" width="1030" height="100" rx="6" fill="#FFFFFF" stroke="#E5E7EB"/>
            <text x="20" y="28" class="text-dark" font-size="13" font-weight="600">RÉSUMÉ</text>

            <text x="20" y="60" class="text-muted" font-size="11">Services actifs</text>
            <text x="20" y="82" class="text-dark" font-size="20" font-weight="600">4</text>

            <text x="150" y="60" class="text-muted" font-size="11">Domaines</text>
            <text x="150" y="82" class="text-dark" font-size="20" font-weight="600">1</text>

            <text x="280" y="60" class="text-muted" font-size="11">Emails</text>
            <text x="280" y="82" class="text-dark" font-size="20" font-weight="600">5</text>

            <text x="410" y="60" class="text-muted" font-size="11">Sites web</text>
            <text x="410" y="82" class="text-dark" font-size="20" font-weight="600">3</text>

            <text x="540" y="60" class="text-muted" font-size="11">IPs supplémentaires</text>
            <text x="540" y="82" class="text-dark" font-size="20" font-weight="600">1</text>
          </g>

        </g>
      </g>
    </g>
  </g>
</svg>
