<svg xmlns="http://www.w3.org/2000/svg" viewBox="0 0 1440 900" width="1440" height="900">
  <defs>
    <style>
      .bg-header { fill: #000E9C; }
      .bg-main { fill: #F6F6F9; }
      .bg-white { fill: #FFFFFF; }
      .bg-primary { fill: #0050D7; }
      .bg-success { fill: #DEF7EC; }
      .bg-warning { fill: #FEF3C7; }
      .border { stroke: #E5E7EB; stroke-width: 1; fill: none; }
      .btn-outline { stroke: #0050D7; stroke-width: 1; fill: #FFFFFF; }
      .btn-primary { fill: #0050D7; }
      .row-selected { fill: #E8F0FE; }
      .table-header { fill: #F9FAFB; }
      .text-white { fill: #FFFFFF; font-family: 'Source Sans Pro', sans-serif; }
      .text-dark { fill: #1F2937; font-family: 'Source Sans Pro', sans-serif; }
      .text-muted { fill: #6B7280; font-family: 'Source Sans Pro', sans-serif; }
      .text-primary { fill: #0050D7; font-family: 'Source Sans Pro', sans-serif; }
      .text-success { fill: #059669; font-family: 'Source Sans Pro', sans-serif; }
      .text-error { fill: #DC2626; font-family: 'Source Sans Pro', sans-serif; }
    </style>
  </defs>

  <!-- Background -->
  <rect width="1440" height="900" class="bg-main"/>

  <!-- NAV1 -->
  <rect width="1440" height="50" class="bg-header"/>
  <text x="40" y="32" class="text-white" font-size="14" opacity="0.7">Accueil</text>
  <text x="510" y="32" class="text-white" font-size="14" font-weight="600">Web Cloud</text>
  <rect x="505" y="46" width="75" height="3" fill="#FFFFFF"/>
  <rect x="1280" y="12" width="140" height="26" rx="13" fill="rgba(255,255,255,0.2)"/>
  <text x="1320" y="29" class="text-white" font-size="12">ab12345-ovh</text>

  <!-- NAV2 -->
  <rect x="0" y="50" width="1440" height="40" class="bg-white"/>
  <line x1="0" y1="89" x2="1440" y2="89" stroke="#E5E7EB"/>
  <text x="550" y="75" class="text-primary" font-size="14" font-weight="600">Accès</text>
  <rect x="545" y="85" width="40" height="3" fill="#0050D7"/>

  <!-- CONTENT -->
  <g transform="translate(0, 105)">
    <g transform="translate(24, 0)">
      <!-- LEFT PANEL -->
      <rect x="0" y="0" width="280" height="765" rx="8" class="bg-white"/>
      <rect x="0" y="0" width="280" height="765" rx="8" class="border"/>
      <g transform="translate(6, 80)">
        <rect x="0" y="0" width="268" height="95" rx="6" class="row-selected"/>
        <text x="12" y="20" font-size="14">🌐</text>
        <text x="32" y="20" class="text-dark" font-size="13" font-weight="600">Fibre Pro Paris</text>
        <text x="12" y="38" class="text-muted" font-size="11">FTTH · Pack Pro</text>
        <circle cx="18" cy="52" r="5" fill="#10B981"/>
        <text x="28" y="56" class="text-dark" font-size="11">Connecté</text>
      </g>
    </g>

    <!-- RIGHT PANEL -->
    <g transform="translate(320, 0)">
      <rect x="0" y="0" width="1096" height="765" rx="8" class="bg-white"/>
      <rect x="0" y="0" width="1096" height="765" rx="8" class="border"/>

      <g transform="translate(20, 0)">
        <!-- HEADER -->
        <text x="0" y="28" class="text-dark" font-size="18" font-weight="600">Fibre Pro Paris</text>

        <!-- NAV3 (VoIP actif) -->
        <g transform="translate(0, 65)">
          <rect x="0" y="0" width="65" height="26" rx="4" class="btn-outline"/>
          <text x="32" y="17" class="text-primary" font-size="11" text-anchor="middle">Général</text>
          <rect x="69" y="0" width="55" height="26" rx="4" class="btn-outline"/>
          <text x="96" y="17" class="text-primary" font-size="11" text-anchor="middle">Ligne</text>
          <rect x="128" y="0" width="55" height="26" rx="4" class="btn-outline"/>
          <text x="155" y="17" class="text-primary" font-size="11" text-anchor="middle">Modem</text>
          <rect x="187" y="0" width="70" height="26" rx="4" class="btn-outline"/>
          <text x="222" y="17" class="text-primary" font-size="11" text-anchor="middle">Services</text>
          <rect x="261" y="0" width="55" height="26" rx="4" class="bg-primary"/>
          <text x="288" y="17" class="text-white" font-size="11" text-anchor="middle">VoIP</text>
        </g>

        <!-- NAV4 VoIP -->
        <g transform="translate(0, 100)">
          <text x="0" y="14" class="text-primary" font-size="12" font-weight="500">Lignes</text>
          <rect x="0" y="18" width="45" height="2" fill="#0050D7"/>
          <text x="60" y="14" class="text-muted" font-size="12">EcoFax</text>
        </g>

        <!-- CONTENU VOIP -->
        <g transform="translate(0, 140)">

          <!-- Lignes téléphoniques -->
          <rect x="0" y="0" width="1030" height="400" rx="6" fill="#FFFFFF" stroke="#E5E7EB"/>
          <text x="20" y="28" class="text-dark" font-size="15" font-weight="700">LIGNES TÉLÉPHONIQUES</text>

          <rect x="850" y="5" width="160" height="32" rx="4" class="btn-outline"/>
          <text x="930" y="26" class="text-primary" font-size="11" text-anchor="middle">+ Commander ligne</text>

          <!-- Table header -->
          <rect x="0" y="45" width="1030" height="35" rx="0" class="table-header"/>
          <text x="20" y="68" class="text-muted" font-size="10" font-weight="600">NUMÉRO</text>
          <text x="180" y="68" class="text-muted" font-size="10" font-weight="600">DESCRIPTION</text>
          <text x="380" y="68" class="text-muted" font-size="10" font-weight="600">TYPE</text>
          <text x="500" y="68" class="text-muted" font-size="10" font-weight="600">STATUT</text>
          <text x="620" y="68" class="text-muted" font-size="10" font-weight="600">APPELS CE MOIS</text>
          <text x="780" y="68" class="text-muted" font-size="10" font-weight="600">ACTIONS</text>

          <!-- Row 1 -->
          <g transform="translate(0, 90)">
            <text x="20" y="15" class="text-dark" font-size="12" font-weight="500">01 23 45 67 89</text>
            <text x="180" y="15" class="text-dark" font-size="12">Accueil principal</text>
            <text x="380" y="15" class="text-dark" font-size="12">SIP</text>
            <rect x="500" y="0" width="60" height="20" rx="10" fill="#DEF7EC"/>
            <text x="530" y="14" fill="#03543F" font-size="10" text-anchor="middle">En ligne</text>
            <text x="620" y="15" class="text-dark" font-size="12">156 appels</text>
            <text x="780" y="15" class="text-primary" font-size="11">Configurer</text>
            <text x="870" y="15" class="text-primary" font-size="11">Historique</text>
          </g>

          <!-- Row 2 -->
          <g transform="translate(0, 125)">
            <line x1="20" y1="-15" x2="1010" y2="-15" stroke="#E5E7EB"/>
            <text x="20" y="15" class="text-dark" font-size="12" font-weight="500">01 23 45 67 90</text>
            <text x="180" y="15" class="text-dark" font-size="12">Ligne direction</text>
            <text x="380" y="15" class="text-dark" font-size="12">SIP</text>
            <rect x="500" y="0" width="60" height="20" rx="10" fill="#DEF7EC"/>
            <text x="530" y="14" fill="#03543F" font-size="10" text-anchor="middle">En ligne</text>
            <text x="620" y="15" class="text-dark" font-size="12">42 appels</text>
            <text x="780" y="15" class="text-primary" font-size="11">Configurer</text>
            <text x="870" y="15" class="text-primary" font-size="11">Historique</text>
          </g>

          <!-- Row 3 -->
          <g transform="translate(0, 160)">
            <line x1="20" y1="-15" x2="1010" y2="-15" stroke="#E5E7EB"/>
            <text x="20" y="15" class="text-dark" font-size="12" font-weight="500">01 23 45 67 91</text>
            <text x="180" y="15" class="text-dark" font-size="12">Support technique</text>
            <text x="380" y="15" class="text-dark" font-size="12">SIP</text>
            <rect x="500" y="0" width="60" height="20" rx="10" fill="#F3F4F6"/>
            <text x="530" y="14" class="text-muted" font-size="10" text-anchor="middle">Hors ligne</text>
            <text x="620" y="15" class="text-dark" font-size="12">89 appels</text>
            <text x="780" y="15" class="text-primary" font-size="11">Configurer</text>
            <text x="870" y="15" class="text-primary" font-size="11">Historique</text>
          </g>

          <!-- Row 4 -->
          <g transform="translate(0, 195)">
            <line x1="20" y1="-15" x2="1010" y2="-15" stroke="#E5E7EB"/>
            <text x="20" y="15" class="text-dark" font-size="12" font-weight="500">09 72 XX XX XX</text>
            <text x="180" y="15" class="text-dark" font-size="12">Fax numérique</text>
            <text x="380" y="15" class="text-dark" font-size="12">EcoFax</text>
            <rect x="500" y="0" width="60" height="20" rx="10" fill="#DEF7EC"/>
            <text x="530" y="14" fill="#03543F" font-size="10" text-anchor="middle">Actif</text>
            <text x="620" y="15" class="text-dark" font-size="12">12 fax</text>
            <text x="780" y="15" class="text-primary" font-size="11">Configurer</text>
            <text x="870" y="15" class="text-primary" font-size="11">Historique</text>
          </g>

          <!-- Pagination -->
          <g transform="translate(0, 320)">
            <text x="20" y="15" class="text-muted" font-size="11">Affichage 1-4 sur 4 lignes</text>
          </g>

          <!-- Résumé consommation -->
          <g transform="translate(0, 420)">
            <rect x="0" y="0" width="1030" height="130" rx="6" fill="#FFFFFF" stroke="#E5E7EB"/>
            <text x="20" y="28" class="text-dark" font-size="13" font-weight="600">CONSOMMATION CE MOIS</text>

            <text x="20" y="65" class="text-muted" font-size="11">Appels entrants</text>
            <text x="20" y="90" class="text-dark" font-size="20" font-weight="600">287</text>
            <text x="70" y="90" class="text-muted" font-size="11">appels</text>

            <text x="180" y="65" class="text-muted" font-size="11">Appels sortants</text>
            <text x="180" y="90" class="text-dark" font-size="20" font-weight="600">156</text>
            <text x="230" y="90" class="text-muted" font-size="11">appels</text>

            <text x="340" y="65" class="text-muted" font-size="11">Durée totale</text>
            <text x="340" y="90" class="text-dark" font-size="20" font-weight="600">12h 34m</text>

            <text x="500" y="65" class="text-muted" font-size="11">Fax envoyés</text>
            <text x="500" y="90" class="text-dark" font-size="20" font-weight="600">8</text>

            <text x="600" y="65" class="text-muted" font-size="11">Fax reçus</text>
            <text x="600" y="90" class="text-dark" font-size="20" font-weight="600">4</text>

            <rect x="850" y="65" width="160" height="36" rx="4" class="btn-outline"/>
            <text x="930" y="88" class="text-primary" font-size="11" text-anchor="middle">Voir détails →</text>
          </g>

          <!-- Lien vers VoIP complet -->
          <g transform="translate(0, 570)">
            <rect x="0" y="0" width="1030" height="50" rx="6" fill="#DBEAFE"/>
            <text x="20" y="30" fill="#1E40AF" font-size="12">📞 Pour une gestion avancée de vos lignes VoIP, accédez au manager VoIP complet.</text>
            <text x="550" y="30" class="text-primary" font-size="12" font-weight="500">Ouvrir le manager VoIP →</text>
          </g>

        </g>
      </g>
    </g>
  </g>
</svg>
