<svg xmlns="http://www.w3.org/2000/svg" viewBox="0 0 1440 900" width="1440" height="900">
  <defs>
    <style>
      .bg-header { fill: #000E9C; }
      .bg-main { fill: #F6F6F9; }
      .bg-white { fill: #FFFFFF; }
      .bg-primary { fill: #0050D7; }
      .bg-success { fill: #DEF7EC; }
      .bg-error { fill: #FEE2E2; }
      .bg-info { fill: #DBEAFE; }
      .bg-warning { fill: #FEF3C7; }
      .border { stroke: #E5E7EB; stroke-width: 1; fill: none; }
      .btn-outline { stroke: #0050D7; stroke-width: 1; fill: #FFFFFF; }
      .btn-primary { fill: #0050D7; }
      .row-selected { fill: #E8F0FE; }
      .table-header { fill: #F9FAFB; }
      .text-white { fill: #FFFFFF; font-family: 'Source Sans Pro', sans-serif; }
      .text-dark { fill: #1F2937; font-family: 'Source Sans Pro', sans-serif; }
      .text-muted { fill: #6B7280; font-family: 'Source Sans Pro', sans-serif; }
      .text-primary { fill: #0050D7; font-family: 'Source Sans Pro', sans-serif; }
      .text-success { fill: #059669; font-family: 'Source Sans Pro', sans-serif; }
      .text-error { fill: #DC2626; font-family: 'Source Sans Pro', sans-serif; }
      .text-info { fill: #1E40AF; font-family: 'Source Sans Pro', sans-serif; }
      .text-warning { fill: #D97706; font-family: 'Source Sans Pro', sans-serif; }
      .divider { stroke: #E5E7EB; stroke-width: 1; }
    </style>
  </defs>

  <!-- Background -->
  <rect width="1440" height="900" class="bg-main"/>

  <!-- NAV1 - Header OVH (Web Cloud actif) -->
  <rect width="1440" height="50" class="bg-header"/>
  <text x="40" y="32" class="text-white" font-size="14" opacity="0.7">Accueil</text>
  <text x="110" y="32" class="text-white" font-size="14" opacity="0.7">Public Cloud</text>
  <text x="210" y="32" class="text-white" font-size="14" opacity="0.7">Hosted Private Cloud</text>
  <text x="370" y="32" class="text-white" font-size="14" opacity="0.7">Bare Metal Cloud</text>
  <text x="510" y="32" class="text-white" font-size="14" font-weight="600">Web Cloud</text>
  <rect x="505" y="46" width="75" height="3" fill="#FFFFFF"/>
  <text x="620" y="32" class="text-white" font-size="14" opacity="0.7">Network</text>
  <text x="700" y="32" class="text-white" font-size="14" opacity="0.7">IAM / Securite</text>
  <text x="810" y="32" class="text-white" font-size="14" opacity="0.7">Licences</text>
  <rect x="1280" y="12" width="140" height="26" rx="13" fill="rgba(255,255,255,0.2)"/>
  <text x="1320" y="29" class="text-white" font-size="12">ab12345-ovh</text>

  <!-- NAV2 - Web Cloud (Acces actif) -->
  <rect x="0" y="50" width="1440" height="40" class="bg-white"/>
  <line x1="0" y1="89" x2="1440" y2="89" stroke="#E5E7EB"/>
  <text x="40" y="75" class="text-muted" font-size="14">Accueil</text>
  <text x="110" y="75" class="text-muted" font-size="14">Domaines et DNS</text>
  <text x="240" y="75" class="text-muted" font-size="14">Hebergement</text>
  <text x="345" y="75" class="text-muted" font-size="14">Wordpress</text>
  <text x="430" y="75" class="text-muted" font-size="14">Emails</text>
  <text x="500" y="75" class="text-muted" font-size="14">VoIP</text>
  <text x="550" y="75" class="text-primary" font-size="14" font-weight="600">Acces</text>
  <rect x="545" y="85" width="40" height="3" fill="#0050D7"/>
  <text x="1350" y="75" class="text-primary" font-size="13">Guides</text>

  <!-- CONTENT AREA -->
  <g transform="translate(0, 105)">
    <g transform="translate(24, 0)">

      <!-- LEFT PANEL -->
      <rect x="0" y="0" width="280" height="765" rx="8" class="bg-white"/>
      <rect x="0" y="0" width="280" height="765" rx="8" class="border"/>

      <!-- NAV3 Selector (AU-DESSUS de recherche) -->
      <rect x="0" y="0" width="280" height="44" rx="8" fill="#F9FAFB"/>
      <rect x="12" y="10" width="125" height="24" rx="4" fill="#0050D7"/>
      <text x="74" y="26" fill="#FFFFFF" font-size="11" text-anchor="middle">General</text>
      <rect x="143" y="10" width="125" height="24" rx="4" fill="#FFFFFF" stroke="#E5E7EB"/>
      <text x="205" y="26" fill="#6B7280" font-size="11" text-anchor="middle">OTB</text>
      <line x1="0" y1="44" x2="280" y2="44" class="divider"/>

      <!-- Recherche -->
      <rect x="12" y="56" width="256" height="34" rx="4" fill="#F9FAFB" stroke="#E5E7EB"/>
      <text x="26" y="78" class="text-muted" font-size="12">Rechercher...</text>

      <!-- Compteur -->
      <text x="12" y="112" class="text-muted" font-size="11">2 connexions</text>

      <!-- Connexion 1 - Selectionnee -->
      <g transform="translate(6, 124)">
        <rect x="0" y="0" width="268" height="85" rx="6" class="row-selected"/>
        <text x="12" y="20" font-size="14">&#x1F310;</text>
        <text x="32" y="20" class="text-dark" font-size="13" font-weight="600">xdsl-abc123-1</text>
        <text x="12" y="38" class="text-muted" font-size="11">VDSL - Pack Pro</text>
        <circle cx="18" cy="52" r="5" fill="#10B981"/>
        <text x="28" y="56" class="text-dark" font-size="11">Actif</text>
        <text x="12" y="72" class="text-muted" font-size="10">&#x2193; 45 Mbps &#x2191; 8 Mbps</text>
      </g>

      <!-- Connexion 2 -->
      <g transform="translate(6, 219)">
        <rect x="0" y="0" width="268" height="85" rx="6" fill="#FFFFFF" stroke="#E5E7EB"/>
        <text x="12" y="20" font-size="14">&#x1F310;</text>
        <text x="32" y="20" class="text-dark" font-size="13" font-weight="600">xdsl-xyz789-2</text>
        <text x="12" y="38" class="text-muted" font-size="11">FTTH - Pack Entreprise</text>
        <circle cx="18" cy="52" r="5" fill="#10B981"/>
        <text x="28" y="56" class="text-dark" font-size="11">Actif</text>
        <text x="12" y="72" class="text-muted" font-size="10">&#x2193; 1 Gbps &#x2191; 500 Mbps</text>
      </g>

    </g>

    <!-- RIGHT PANEL -->
    <g transform="translate(320, 0)">
      <rect x="0" y="0" width="1096" height="765" rx="8" class="bg-white"/>
      <rect x="0" y="0" width="1096" height="765" rx="8" class="border"/>

      <g transform="translate(20, 0)">
        <!-- HEADER PAGE -->
        <text x="0" y="28" class="text-dark" font-size="18" font-weight="600">xdsl-abc123-1</text>
        <text x="0" y="48" class="text-muted" font-size="12">VDSL - Pack Pro - Mon acces Internet</text>

        <!-- NAV4 TABS -->
        <g transform="translate(0, 65)">
          <rect x="0" y="0" width="55" height="26" rx="4" class="btn-outline"/>
          <text x="27" y="17" class="text-primary" font-size="11" text-anchor="middle">Acces</text>

          <rect x="59" y="0" width="55" height="26" rx="4" class="btn-outline"/>
          <text x="86" y="17" class="text-primary" font-size="11" text-anchor="middle">Ligne</text>

          <rect x="118" y="0" width="55" height="26" rx="4" class="btn-outline"/>
          <text x="145" y="17" class="text-primary" font-size="11" text-anchor="middle">Modem</text>

          <rect x="177" y="0" width="45" height="26" rx="4" class="btn-outline"/>
          <text x="199" y="17" class="text-primary" font-size="11" text-anchor="middle">IP</text>

          <rect x="226" y="0" width="50" height="26" rx="4" class="btn-outline"/>
          <text x="251" y="17" class="text-primary" font-size="11" text-anchor="middle">IPv6</text>

          <rect x="280" y="0" width="70" height="26" rx="4" class="btn-outline"/>
          <text x="315" y="17" class="text-primary" font-size="11" text-anchor="middle">Services</text>

          <rect x="354" y="0" width="55" height="26" rx="4" class="bg-primary"/>
          <text x="381" y="17" class="text-white" font-size="11" text-anchor="middle">Taches</text>
        </g>

        <!-- CONTENU - Tab Taches -->
        <g transform="translate(0, 110)">

          <!-- Toolbar -->
          <rect x="0" y="0" width="32" height="32" rx="4" class="btn-outline"/>
          <text x="16" y="22" class="text-primary" font-size="14" text-anchor="middle">&#x21BB;</text>

          <text x="50" y="22" class="text-muted" font-size="12">12 taches</text>

          <!-- Table -->
          <g transform="translate(0, 50)">
            <rect x="0" y="0" width="1036" height="550" rx="6" fill="#FFFFFF" stroke="#E5E7EB"/>

            <!-- Table header -->
            <rect x="0" y="0" width="1036" height="45" rx="6" class="table-header"/>
            <text x="20" y="28" class="text-muted" font-size="11" font-weight="600">ID</text>
            <text x="120" y="28" class="text-muted" font-size="11" font-weight="600">NOM DE LA TACHE</text>
            <text x="450" y="28" class="text-muted" font-size="11" font-weight="600">STATUT</text>
            <text x="600" y="28" class="text-muted" font-size="11" font-weight="600">DATE CREATION</text>
            <text x="780" y="28" class="text-muted" font-size="11" font-weight="600">DATE MAJ</text>
            <text x="950" y="28" class="text-muted" font-size="11" font-weight="600">ACTIONS</text>

            <!-- Row 1 - Terminee -->
            <g transform="translate(0, 55)">
              <line x1="0" y1="0" x2="1036" y2="0" stroke="#E5E7EB"/>
              <text x="20" y="28" class="text-dark" font-size="12">12847</text>
              <text x="120" y="28" class="text-dark" font-size="12">changeModemConfigWLAN</text>
              <rect x="450" y="10" width="75" height="22" rx="11" fill="#DEF7EC"/>
              <text x="487" y="26" fill="#03543F" font-size="10" text-anchor="middle">Terminee</text>
              <text x="600" y="28" class="text-dark" font-size="12">28/12/2025 14:32</text>
              <text x="780" y="28" class="text-dark" font-size="12">28/12/2025 14:32</text>
              <text x="950" y="28" class="text-primary" font-size="11">Details</text>
            </g>

            <!-- Row 2 - En cours -->
            <g transform="translate(0, 100)">
              <line x1="0" y1="0" x2="1036" y2="0" stroke="#E5E7EB"/>
              <text x="20" y="28" class="text-dark" font-size="12">12848</text>
              <text x="120" y="28" class="text-dark" font-size="12">resetModem</text>
              <rect x="450" y="10" width="75" height="22" rx="11" fill="#DBEAFE"/>
              <text x="487" y="26" fill="#1E40AF" font-size="10" text-anchor="middle">En cours</text>
              <text x="600" y="28" class="text-dark" font-size="12">28/12/2025 14:45</text>
              <text x="780" y="28" class="text-dark" font-size="12">28/12/2025 14:45</text>
              <text x="950" y="28" class="text-primary" font-size="11">Details</text>
            </g>

            <!-- Row 3 - A faire -->
            <g transform="translate(0, 145)">
              <line x1="0" y1="0" x2="1036" y2="0" stroke="#E5E7EB"/>
              <text x="20" y="28" class="text-dark" font-size="12">12849</text>
              <text x="120" y="28" class="text-dark" font-size="12">changeModemConfigFirmware</text>
              <rect x="450" y="10" width="75" height="22" rx="11" fill="#FEF3C7"/>
              <text x="487" y="26" fill="#92400E" font-size="10" text-anchor="middle">A faire</text>
              <text x="600" y="28" class="text-dark" font-size="12">28/12/2025 14:50</text>
              <text x="780" y="28" class="text-dark" font-size="12">28/12/2025 14:50</text>
              <text x="950" y="28" class="text-primary" font-size="11">Details</text>
            </g>

            <!-- Row 4 - Erreur -->
            <g transform="translate(0, 190)">
              <line x1="0" y1="0" x2="1036" y2="0" stroke="#E5E7EB"/>
              <text x="20" y="28" class="text-dark" font-size="12">12850</text>
              <text x="120" y="28" class="text-dark" font-size="12">changeModemConfigDMZ</text>
              <rect x="450" y="10" width="60" height="22" rx="11" fill="#FEE2E2"/>
              <text x="480" y="26" fill="#DC2626" font-size="10" text-anchor="middle">Erreur</text>
              <text x="600" y="28" class="text-dark" font-size="12">28/12/2025 13:20</text>
              <text x="780" y="28" class="text-dark" font-size="12">28/12/2025 13:20</text>
              <text x="950" y="28" class="text-primary" font-size="11">Relancer</text>
            </g>

            <!-- Row 5 - Terminee -->
            <g transform="translate(0, 235)">
              <line x1="0" y1="0" x2="1036" y2="0" stroke="#E5E7EB"/>
              <text x="20" y="28" class="text-dark" font-size="12">12851</text>
              <text x="120" y="28" class="text-dark" font-size="12">dslamProfileChange</text>
              <rect x="450" y="10" width="75" height="22" rx="11" fill="#DEF7EC"/>
              <text x="487" y="26" fill="#03543F" font-size="10" text-anchor="middle">Terminee</text>
              <text x="600" y="28" class="text-dark" font-size="12">28/12/2025 12:00</text>
              <text x="780" y="28" class="text-dark" font-size="12">28/12/2025 12:00</text>
              <text x="950" y="28" class="text-primary" font-size="11">Details</text>
            </g>

            <!-- Pagination -->
            <g transform="translate(0, 480)">
              <text x="20" y="20" class="text-muted" font-size="11">Affichage 1-5 sur 12</text>
              <rect x="900" y="5" width="28" height="26" rx="4" fill="#E5E7EB"/>
              <text x="914" y="23" class="text-muted" font-size="12" text-anchor="middle">&#x2039;</text>
              <rect x="932" y="5" width="28" height="26" rx="4" class="bg-primary"/>
              <text x="946" y="23" class="text-white" font-size="11" text-anchor="middle">1</text>
              <rect x="964" y="5" width="28" height="26" rx="4" class="btn-outline"/>
              <text x="978" y="23" class="text-primary" font-size="11" text-anchor="middle">2</text>
              <rect x="996" y="5" width="28" height="26" rx="4" class="btn-outline"/>
              <text x="1010" y="23" class="text-primary" font-size="12" text-anchor="middle">&#x203A;</text>
            </g>
          </g>

        </g>
      </g>
    </g>
  </g>
</svg>
