<svg xmlns="http://www.w3.org/2000/svg" viewBox="0 0 1440 900" width="1440" height="900">
  <defs>
    <style>
      .bg-header { fill: #000E9C; }
      .bg-main { fill: #F6F6F9; }
      .bg-white { fill: #FFFFFF; }
      .bg-primary { fill: #0050D7; }
      .bg-success { fill: #DEF7EC; }
      .bg-info { fill: #DBEAFE; }
      .border { stroke: #E5E7EB; stroke-width: 1; fill: none; }
      .btn-outline { stroke: #0050D7; stroke-width: 1; fill: #FFFFFF; }
      .btn-primary { fill: #0050D7; }
      .row-selected { fill: #E8F0FE; }
      .table-header { fill: #F9FAFB; }
      .text-white { fill: #FFFFFF; font-family: 'Source Sans Pro', sans-serif; }
      .text-dark { fill: #1F2937; font-family: 'Source Sans Pro', sans-serif; }
      .text-muted { fill: #6B7280; font-family: 'Source Sans Pro', sans-serif; }
      .text-primary { fill: #0050D7; font-family: 'Source Sans Pro', sans-serif; }
      .text-success { fill: #059669; font-family: 'Source Sans Pro', sans-serif; }
      .text-error { fill: #DC2626; font-family: 'Source Sans Pro', sans-serif; }
      .text-info { fill: #1E40AF; font-family: 'Source Sans Pro', sans-serif; }
      .divider { stroke: #E5E7EB; stroke-width: 1; }
    </style>
  </defs>

  <!-- Background -->
  <rect width="1440" height="900" class="bg-main"/>

  <!-- NAV1 -->
  <rect width="1440" height="50" class="bg-header"/>
  <text x="40" y="32" class="text-white" font-size="14" opacity="0.7">Accueil</text>
  <text x="510" y="32" class="text-white" font-size="14" font-weight="600">Web Cloud</text>
  <rect x="505" y="46" width="75" height="3" fill="#FFFFFF"/>
  <rect x="1280" y="12" width="140" height="26" rx="13" fill="rgba(255,255,255,0.2)"/>
  <text x="1320" y="29" class="text-white" font-size="12">ab12345-ovh</text>

  <!-- NAV2 -->
  <rect x="0" y="50" width="1440" height="40" class="bg-white"/>
  <line x1="0" y1="89" x2="1440" y2="89" stroke="#E5E7EB"/>
  <text x="550" y="75" class="text-primary" font-size="14" font-weight="600">Acces</text>
  <rect x="545" y="85" width="40" height="3" fill="#0050D7"/>

  <!-- CONTENT -->
  <g transform="translate(0, 105)">
    <g transform="translate(24, 0)">
      <!-- LEFT PANEL -->
      <rect x="0" y="0" width="280" height="765" rx="8" class="bg-white"/>
      <rect x="0" y="0" width="280" height="765" rx="8" class="border"/>

      <!-- NAV3 Selector (AU-DESSUS de recherche) -->
      <rect x="0" y="0" width="280" height="44" rx="8" fill="#F9FAFB"/>
      <rect x="12" y="10" width="125" height="24" rx="4" fill="#FFFFFF" stroke="#E5E7EB"/>
      <text x="74" y="26" fill="#6B7280" font-size="11" text-anchor="middle">General</text>
      <rect x="143" y="10" width="125" height="24" rx="4" fill="#0050D7"/>
      <text x="205" y="26" fill="#FFFFFF" font-size="11" text-anchor="middle">OTB</text>
      <line x1="0" y1="44" x2="280" y2="44" class="divider"/>

      <!-- Recherche -->
      <rect x="12" y="56" width="256" height="34" rx="4" fill="#F9FAFB" stroke="#E5E7EB"/>
      <text x="26" y="78" class="text-muted" font-size="12">Rechercher...</text>

      <!-- Compteur -->
      <text x="12" y="112" class="text-muted" font-size="11">1 service OverTheBox</text>

      <g transform="translate(6, 124)">
        <rect x="0" y="0" width="268" height="80" rx="6" class="row-selected"/>
        <text x="12" y="20" font-size="14">📦</text>
        <text x="32" y="20" class="text-dark" font-size="13" font-weight="600">OTB Siege Paris</text>
        <text x="12" y="38" class="text-muted" font-size="11">OverTheBox Plus</text>
        <circle cx="18" cy="52" r="5" fill="#10B981"/>
        <text x="28" y="56" class="text-dark" font-size="11">Actif</text>
      </g>
    </g>

    <!-- RIGHT PANEL -->
    <g transform="translate(320, 0)">
      <rect x="0" y="0" width="1096" height="765" rx="8" class="bg-white"/>
      <rect x="0" y="0" width="1096" height="765" rx="8" class="border"/>

      <g transform="translate(20, 0)">
        <!-- HEADER -->
        <text x="0" y="28" class="text-dark" font-size="18" font-weight="600">OTB Siege Paris</text>

        <!-- NAV3 (Remotes actif) -->
        <g transform="translate(0, 50)">
          <rect x="0" y="0" width="65" height="26" rx="4" class="btn-outline"/>
          <text x="32" y="17" class="text-primary" font-size="11" text-anchor="middle">General</text>
          <rect x="69" y="0" width="80" height="26" rx="4" class="btn-outline"/>
          <text x="109" y="17" class="text-primary" font-size="11" text-anchor="middle">Connexions</text>
          <rect x="153" y="0" width="65" height="26" rx="4" class="bg-primary"/>
          <text x="185" y="17" class="text-white" font-size="11" text-anchor="middle">Remotes</text>
          <rect x="222" y="0" width="80" height="26" rx="4" class="btn-outline"/>
          <text x="262" y="17" class="text-primary" font-size="11" text-anchor="middle">Configuration</text>
        </g>

        <!-- CONTENU REMOTES -->
        <g transform="translate(0, 95)">

          <!-- Info banner -->
          <rect x="0" y="0" width="1030" height="60" rx="6" class="bg-info"/>
          <text x="20" y="25" class="text-info" font-size="12" font-weight="500">🔐 Acces distant securise</text>
          <text x="20" y="45" class="text-info" font-size="11">Connectez-vous a vos equipements distants via un tunnel chiffre a travers votre OverTheBox.</text>

          <!-- Toolbar -->
          <g transform="translate(0, 80)">
            <rect x="850" y="0" width="180" height="32" rx="4" class="btn-outline"/>
            <text x="940" y="21" class="text-primary" font-size="11" text-anchor="middle">+ Ajouter un remote</text>
          </g>

          <!-- Table remotes -->
          <g transform="translate(0, 130)">
            <rect x="0" y="0" width="1030" height="450" rx="6" fill="#FFFFFF" stroke="#E5E7EB"/>
            <text x="20" y="28" class="text-dark" font-size="15" font-weight="700">ACCES DISTANTS</text>
            <text x="170" y="28" class="text-muted" font-size="12">4 remotes configures</text>

            <!-- Table header -->
            <rect x="0" y="45" width="1030" height="35" rx="0" class="table-header"/>
            <text x="20" y="68" class="text-muted" font-size="10" font-weight="600">NOM</text>
            <text x="200" y="68" class="text-muted" font-size="10" font-weight="600">TYPE</text>
            <text x="320" y="68" class="text-muted" font-size="10" font-weight="600">IP LOCALE</text>
            <text x="460" y="68" class="text-muted" font-size="10" font-weight="600">PORT</text>
            <text x="550" y="68" class="text-muted" font-size="10" font-weight="600">URL D'ACCES</text>
            <text x="800" y="68" class="text-muted" font-size="10" font-weight="600">STATUT</text>
            <text x="920" y="68" class="text-muted" font-size="10" font-weight="600">ACTIONS</text>

            <!-- Row 1: SSH -->
            <g transform="translate(0, 90)">
              <text x="20" y="15" class="text-dark" font-size="12" font-weight="500">Serveur SSH</text>
              <rect x="200" y="0" width="50" height="20" rx="10" fill="#F3F4F6"/>
              <text x="225" y="14" class="text-muted" font-size="10" text-anchor="middle">SSH</text>
              <text x="320" y="15" class="text-dark" font-size="11">192.168.1.10</text>
              <text x="460" y="15" class="text-dark" font-size="11">22</text>
              <text x="550" y="15" class="text-primary" font-size="10">ssh://remote.overthebox.net:10022</text>
              <rect x="800" y="0" width="60" height="20" rx="10" fill="#DEF7EC"/>
              <text x="830" y="14" fill="#03543F" font-size="10" text-anchor="middle">Actif</text>
              <text x="920" y="15" class="text-primary" font-size="10">Modifier</text>
              <text x="980" y="15" class="text-error" font-size="10">Supprimer</text>
            </g>

            <!-- Row 2: Web -->
            <g transform="translate(0, 125)">
              <line x1="20" y1="-15" x2="1010" y2="-15" stroke="#E5E7EB"/>
              <text x="20" y="15" class="text-dark" font-size="12" font-weight="500">Admin NAS</text>
              <rect x="200" y="0" width="50" height="20" rx="10" fill="#F3F4F6"/>
              <text x="225" y="14" class="text-muted" font-size="10" text-anchor="middle">HTTP</text>
              <text x="320" y="15" class="text-dark" font-size="11">192.168.1.50</text>
              <text x="460" y="15" class="text-dark" font-size="11">5000</text>
              <text x="550" y="15" class="text-primary" font-size="10">https://remote.overthebox.net:15000</text>
              <rect x="800" y="0" width="60" height="20" rx="10" fill="#DEF7EC"/>
              <text x="830" y="14" fill="#03543F" font-size="10" text-anchor="middle">Actif</text>
              <text x="920" y="15" class="text-primary" font-size="10">Modifier</text>
              <text x="980" y="15" class="text-error" font-size="10">Supprimer</text>
            </g>

            <!-- Row 3: RDP -->
            <g transform="translate(0, 160)">
              <line x1="20" y1="-15" x2="1010" y2="-15" stroke="#E5E7EB"/>
              <text x="20" y="15" class="text-dark" font-size="12" font-weight="500">Poste direction</text>
              <rect x="200" y="0" width="50" height="20" rx="10" fill="#F3F4F6"/>
              <text x="225" y="14" class="text-muted" font-size="10" text-anchor="middle">RDP</text>
              <text x="320" y="15" class="text-dark" font-size="11">192.168.1.100</text>
              <text x="460" y="15" class="text-dark" font-size="11">3389</text>
              <text x="550" y="15" class="text-primary" font-size="10">rdp://remote.overthebox.net:13389</text>
              <rect x="800" y="0" width="60" height="20" rx="10" fill="#DEF7EC"/>
              <text x="830" y="14" fill="#03543F" font-size="10" text-anchor="middle">Actif</text>
              <text x="920" y="15" class="text-primary" font-size="10">Modifier</text>
              <text x="980" y="15" class="text-error" font-size="10">Supprimer</text>
            </g>

            <!-- Row 4: Custom -->
            <g transform="translate(0, 195)">
              <line x1="20" y1="-15" x2="1010" y2="-15" stroke="#E5E7EB"/>
              <text x="20" y="15" class="text-dark" font-size="12" font-weight="500">Camera surveillance</text>
              <rect x="200" y="0" width="60" height="20" rx="10" fill="#F3F4F6"/>
              <text x="230" y="14" class="text-muted" font-size="10" text-anchor="middle">RTSP</text>
              <text x="320" y="15" class="text-dark" font-size="11">192.168.1.200</text>
              <text x="460" y="15" class="text-dark" font-size="11">554</text>
              <text x="550" y="15" class="text-primary" font-size="10">rtsp://remote.overthebox.net:10554</text>
              <rect x="800" y="0" width="60" height="20" rx="10" fill="#F3F4F6"/>
              <text x="830" y="14" class="text-muted" font-size="10" text-anchor="middle">Inactif</text>
              <text x="920" y="15" class="text-primary" font-size="10">Modifier</text>
              <text x="980" y="15" class="text-error" font-size="10">Supprimer</text>
            </g>

            <!-- Pagination -->
            <g transform="translate(0, 360)">
              <text x="20" y="15" class="text-muted" font-size="11">Affichage 1-4 sur 4</text>
            </g>
          </g>

          <!-- Documentation -->
          <g transform="translate(0, 600)">
            <rect x="0" y="0" width="1030" height="50" rx="6" class="bg-info"/>
            <text x="20" y="30" class="text-info" font-size="12">📖 Consultez notre guide pour configurer l'acces distant securise.</text>
            <text x="470" y="30" class="text-primary" font-size="12" font-weight="500">Documentation →</text>
          </g>
        </g>
      </g>
    </g>
  </g>
</svg>
