<svg xmlns="http://www.w3.org/2000/svg" viewBox="0 0 1440 900" width="1440" height="900">
  <defs>
    <style>
      .bg-header { fill: #000E9C; }
      .bg-main { fill: #F6F6F9; }
      .bg-white { fill: #FFFFFF; }
      .bg-primary { fill: #0050D7; }
      .bg-success { fill: #DEF7EC; }
      .bg-warning { fill: #FEF3C7; }
      .bg-error { fill: #FEE2E2; }
      .border { stroke: #E5E7EB; stroke-width: 1; fill: none; }
      .divider { stroke: #E5E7EB; stroke-width: 1; }
      .btn-outline { stroke: #0050D7; stroke-width: 1; fill: #FFFFFF; }
      .btn-primary { fill: #0050D7; }
      .row-selected { fill: #E8F0FE; }
      .text-white { fill: #FFFFFF; font-family: 'Source Sans Pro', sans-serif; }
      .text-dark { fill: #1F2937; font-family: 'Source Sans Pro', sans-serif; }
      .text-muted { fill: #6B7280; font-family: 'Source Sans Pro', sans-serif; }
      .text-primary { fill: #0050D7; font-family: 'Source Sans Pro', sans-serif; }
      .text-success { fill: #059669; font-family: 'Source Sans Pro', sans-serif; }
      .text-warning { fill: #D97706; font-family: 'Source Sans Pro', sans-serif; }
      .text-error { fill: #DC2626; font-family: 'Source Sans Pro', sans-serif; }
    </style>
  </defs>

  <!-- Background -->
  <rect width="1440" height="900" class="bg-main"/>

  <!-- NAV1 - Header OVH (Web Cloud actif) -->
  <rect width="1440" height="50" class="bg-header"/>
  <text x="40" y="32" class="text-white" font-size="14" opacity="0.7">Accueil</text>
  <text x="110" y="32" class="text-white" font-size="14" opacity="0.7">Public Cloud</text>
  <text x="210" y="32" class="text-white" font-size="14" opacity="0.7">Hosted Private Cloud</text>
  <text x="370" y="32" class="text-white" font-size="14" opacity="0.7">Bare Metal Cloud</text>
  <text x="510" y="32" class="text-white" font-size="14" font-weight="600">Web Cloud</text>
  <rect x="505" y="46" width="75" height="3" fill="#FFFFFF"/>
  <text x="620" y="32" class="text-white" font-size="14" opacity="0.7">Network</text>
  <text x="700" y="32" class="text-white" font-size="14" opacity="0.7">IAM / Securite</text>
  <text x="810" y="32" class="text-white" font-size="14" opacity="0.7">Licences</text>
  <rect x="1280" y="12" width="140" height="26" rx="13" fill="rgba(255,255,255,0.2)"/>
  <text x="1320" y="29" class="text-white" font-size="12">ab12345-ovh</text>

  <!-- NAV2 - Web Cloud (Accès actif) -->
  <rect x="0" y="50" width="1440" height="40" class="bg-white"/>
  <line x1="0" y1="89" x2="1440" y2="89" stroke="#E5E7EB"/>
  <text x="40" y="75" class="text-muted" font-size="14">Accueil</text>
  <text x="110" y="75" class="text-muted" font-size="14">Domaines et DNS</text>
  <text x="240" y="75" class="text-muted" font-size="14">Hébergement</text>
  <text x="345" y="75" class="text-muted" font-size="14">Wordpress</text>
  <text x="430" y="75" class="text-muted" font-size="14">Emails</text>
  <text x="500" y="75" class="text-muted" font-size="14">VoIP</text>
  <text x="550" y="75" class="text-primary" font-size="14" font-weight="600">Accès</text>
  <rect x="545" y="85" width="40" height="3" fill="#0050D7"/>
  <text x="1350" y="75" class="text-primary" font-size="13">Guides</text>

  <!-- CONTENT AREA -->
  <g transform="translate(0, 105)">
    <g transform="translate(24, 0)">
      <!-- LEFT PANEL -->
      <rect x="0" y="0" width="280" height="765" rx="8" class="bg-white"/>
      <rect x="0" y="0" width="280" height="765" rx="8" class="border"/>

      <!-- NAV3 Selector (AU-DESSUS de recherche) -->
      <rect x="0" y="0" width="280" height="44" rx="8" fill="#F9FAFB"/>
      <rect x="12" y="10" width="125" height="24" rx="4" fill="#0050D7"/>
      <text x="74" y="26" fill="#FFFFFF" font-size="11" text-anchor="middle">Général</text>
      <rect x="143" y="10" width="125" height="24" rx="4" fill="#FFFFFF" stroke="#E5E7EB"/>
      <text x="205" y="26" fill="#6B7280" font-size="11" text-anchor="middle">OTB</text>
      <line x1="0" y1="44" x2="280" y2="44" class="divider"/>

      <!-- Recherche (y=56, sous NAV3) -->
      <rect x="12" y="56" width="256" height="34" rx="4" fill="#F9FAFB" stroke="#E5E7EB"/>
      <text x="26" y="78" class="text-muted" font-size="12">Rechercher...</text>

      <!-- Compteur (y=100) -->
      <text x="12" y="112" class="text-muted" font-size="11">3 connexions</text>

      <!-- Connexion 1 - Sélectionnée -->
      <g transform="translate(6, 124)">
        <rect x="0" y="0" width="268" height="95" rx="6" class="row-selected"/>
        <text x="12" y="20" font-size="14">🌐</text>
        <text x="32" y="20" class="text-dark" font-size="13" font-weight="600">Fibre Pro Paris</text>
        <text x="12" y="38" class="text-muted" font-size="11">FTTH · Pack Pro</text>
        <circle cx="18" cy="52" r="5" fill="#10B981"/>
        <text x="28" y="56" class="text-dark" font-size="11">Connecté</text>
        <text x="12" y="72" class="text-muted" font-size="10">↓ 1 Gbps  ↑ 500 Mbps</text>
        <text x="12" y="88" class="text-muted" font-size="10">📦 Livebox 6</text>
      </g>
    </g>

    <!-- RIGHT PANEL -->
    <g transform="translate(320, 0)">
      <rect x="0" y="0" width="1096" height="765" rx="8" class="bg-white"/>
      <rect x="0" y="0" width="1096" height="765" rx="8" class="border"/>

      <g transform="translate(20, 0)">
        <!-- HEADER PAGE -->
        <text x="0" y="28" class="text-dark" font-size="18" font-weight="600">Fibre Pro Paris</text>
        <text x="0" y="48" class="text-muted" font-size="12">FTTH · Pack Pro · 12 rue de l'Example, 75001 Paris</text>

        <!-- NAV3 TABS (Ligne actif) -->
        <g transform="translate(0, 65)">
          <rect x="0" y="0" width="65" height="26" rx="4" class="btn-outline"/>
          <text x="32" y="17" class="text-primary" font-size="11" text-anchor="middle">Général</text>

          <rect x="69" y="0" width="55" height="26" rx="4" class="bg-primary"/>
          <text x="96" y="17" class="text-white" font-size="11" text-anchor="middle">Ligne</text>

          <rect x="128" y="0" width="55" height="26" rx="4" class="btn-outline"/>
          <text x="155" y="17" class="text-primary" font-size="11" text-anchor="middle">Modem</text>

          <rect x="187" y="0" width="70" height="26" rx="4" class="btn-outline"/>
          <text x="222" y="17" class="text-primary" font-size="11" text-anchor="middle">Services</text>

          <rect x="261" y="0" width="45" height="26" rx="4" class="btn-outline"/>
          <text x="283" y="17" class="text-primary" font-size="11" text-anchor="middle">VoIP</text>

          <rect x="310" y="0" width="60" height="26" rx="4" class="btn-outline"/>
          <text x="340" y="17" class="text-primary" font-size="11" text-anchor="middle">Options</text>

          <rect x="374" y="0" width="55" height="26" rx="4" class="btn-outline"/>
          <text x="401" y="17" class="text-primary" font-size="11" text-anchor="middle">Tâches</text>
        </g>

        <!-- NAV4 SOUS-TABS (Diagnostic actif) -->
        <g transform="translate(0, 100)">
          <text x="0" y="14" class="text-muted" font-size="12">Statut</text>

          <text x="60" y="14" class="text-primary" font-size="12" font-weight="500">Diagnostic</text>
          <rect x="60" y="18" width="70" height="2" fill="#0050D7"/>

          <text x="150" y="14" class="text-muted" font-size="12">Statistiques</text>
          <text x="250" y="14" class="text-muted" font-size="12">Alertes</text>
        </g>

        <!-- CONTENU - Tab Diagnostic -->
        <g transform="translate(0, 140)">

          <!-- Header avec bouton -->
          <text x="0" y="20" class="text-dark" font-size="15" font-weight="600">Rapport de diagnostic</text>
          <text x="0" y="40" class="text-muted" font-size="11">Dernier diagnostic : 30/12/2025 à 10:32</text>

          <rect x="880" y="5" width="150" height="36" rx="4" class="btn-primary"/>
          <text x="955" y="28" class="text-white" font-size="11" text-anchor="middle">🔍 Nouveau diagnostic</text>

          <!-- Status Cards Row 1 -->
          <g transform="translate(0, 60)">
            <!-- Incident OVH -->
            <rect x="0" y="0" width="340" height="90" rx="6" class="bg-success"/>
            <circle cx="35" cy="45" r="22" fill="#10B981"/>
            <text x="35" y="51" class="text-white" font-size="14" text-anchor="middle" font-weight="600">✓</text>
            <text x="70" y="35" class="text-dark" font-size="13" font-weight="500">Incident OVHcloud</text>
            <text x="70" y="55" fill="#03543F" font-size="12">Aucun incident en cours</text>

            <!-- Statut connexion -->
            <rect x="355" y="0" width="340" height="90" rx="6" class="bg-success"/>
            <circle cx="390" cy="45" r="22" fill="#10B981"/>
            <text x="390" y="51" class="text-white" font-size="14" text-anchor="middle" font-weight="600">✓</text>
            <text x="425" y="35" class="text-dark" font-size="13" font-weight="500">Statut de connexion</text>
            <text x="425" y="55" fill="#03543F" font-size="12">Équipement connecté</text>

            <!-- Passerelle LNS -->
            <rect x="710" y="0" width="320" height="90" rx="6" class="bg-success"/>
            <circle cx="745" cy="45" r="22" fill="#10B981"/>
            <text x="745" y="51" class="text-white" font-size="14" text-anchor="middle" font-weight="600">✓</text>
            <text x="780" y="35" class="text-dark" font-size="13" font-weight="500">Passerelle LNS</text>
            <text x="780" y="55" fill="#03543F" font-size="12">Équipement actif</text>
          </g>

          <!-- Status Cards Row 2 -->
          <g transform="translate(0, 165)">
            <!-- Ping -->
            <rect x="0" y="0" width="340" height="90" rx="6" class="bg-success"/>
            <circle cx="35" cy="45" r="22" fill="#10B981"/>
            <text x="35" y="51" class="text-white" font-size="14" text-anchor="middle" font-weight="600">✓</text>
            <text x="70" y="35" class="text-dark" font-size="13" font-weight="500">Réponse aux pings</text>
            <text x="70" y="55" fill="#03543F" font-size="12">Répond correctement (12ms)</text>

            <!-- Synchronisation -->
            <rect x="355" y="0" width="340" height="90" rx="6" class="bg-success"/>
            <circle cx="390" cy="45" r="22" fill="#10B981"/>
            <text x="390" y="51" class="text-white" font-size="14" text-anchor="middle" font-weight="600">✓</text>
            <text x="425" y="35" class="text-dark" font-size="13" font-weight="500">Synchronisation ligne</text>
            <text x="425" y="55" fill="#03543F" font-size="12">Ligne synchronisée</text>

            <!-- Test ligne - Warning -->
            <rect x="710" y="0" width="320" height="90" rx="6" class="bg-warning"/>
            <circle cx="745" cy="45" r="22" fill="#F59E0B"/>
            <text x="745" y="51" class="text-white" font-size="14" text-anchor="middle" font-weight="600">!</text>
            <text x="780" y="35" class="text-dark" font-size="13" font-weight="500">Qualité de la ligne</text>
            <text x="780" y="55" fill="#92400E" font-size="12">Légère dégradation détectée</text>
          </g>

          <!-- Détails de la ligne -->
          <g transform="translate(0, 280)">
            <rect x="0" y="0" width="1030" height="130" rx="6" fill="#FFFFFF" stroke="#E5E7EB"/>
            <text x="20" y="28" class="text-dark" font-size="13" font-weight="600">DÉTAILS DE LA LIGNE</text>

            <rect x="20" y="45" width="990" height="70" rx="4" fill="#F9FAFB"/>

            <text x="40" y="70" class="text-muted" font-size="11">Profil connexion</text>
            <text x="180" y="70" class="text-dark" font-size="11">FTTH_1G_500M</text>

            <text x="350" y="70" class="text-muted" font-size="11">Profil proposé</text>
            <text x="480" y="70" class="text-dark" font-size="11">FTTH_1G_500M</text>

            <text x="650" y="70" class="text-muted" font-size="11">Latence</text>
            <text x="750" y="70" class="text-dark" font-size="11">12 ms</text>

            <text x="40" y="100" class="text-muted" font-size="11">Débit descendant</text>
            <text x="180" y="100" class="text-dark" font-size="11">1000 Mbps</text>

            <text x="350" y="100" class="text-muted" font-size="11">Débit montant</text>
            <text x="480" y="100" class="text-dark" font-size="11">500 Mbps</text>

            <text x="650" y="100" class="text-muted" font-size="11">Perte paquets</text>
            <text x="750" y="100" class="text-dark" font-size="11">0.01%</text>
          </g>

          <!-- Assistant résolution -->
          <g transform="translate(0, 430)">
            <rect x="0" y="0" width="1030" height="160" rx="6" fill="#FFFFFF" stroke="#E5E7EB"/>
            <text x="20" y="28" class="text-dark" font-size="13" font-weight="600">ASSISTANT DE RÉSOLUTION</text>

            <text x="20" y="55" class="text-muted" font-size="12">Sélectionnez votre problème :</text>

            <g transform="translate(20, 70)">
              <circle cx="8" cy="8" r="6" fill="#FFFFFF" stroke="#E5E7EB"/>
              <text x="22" y="13" class="text-dark" font-size="12">Le diagnostic indique un problème de synchronisation</text>
            </g>

            <g transform="translate(20, 95)">
              <circle cx="8" cy="8" r="6" fill="#FFFFFF" stroke="#E5E7EB"/>
              <text x="22" y="13" class="text-dark" font-size="12">J'ai une perte de connexion totale</text>
            </g>

            <g transform="translate(20, 120)">
              <circle cx="8" cy="8" r="6" fill="#FFFFFF" stroke="#E5E7EB"/>
              <text x="22" y="13" class="text-dark" font-size="12">Mon opérateur détecte une connexion mais je ne peux pas me connecter</text>
            </g>

            <rect x="850" y="100" width="160" height="36" rx="4" class="btn-primary"/>
            <text x="930" y="123" class="text-white" font-size="11" text-anchor="middle">Lancer l'assistant</text>
          </g>

          <!-- Historique -->
          <g transform="translate(0, 610)">
            <text x="0" y="15" class="text-dark" font-size="13" font-weight="600">HISTORIQUE DES DIAGNOSTICS</text>

            <rect x="870" y="0" width="160" height="30" rx="4" class="btn-outline"/>
            <text x="950" y="20" class="text-primary" font-size="11" text-anchor="middle">📋 Voir historique</text>
          </g>

        </g>
      </g>
    </g>
  </g>
</svg>
