<svg xmlns="http://www.w3.org/2000/svg" viewBox="0 0 1440 900" width="1440" height="900">
  <defs>
    <style>
      .bg-header { fill: #000E9C; }
      .bg-main { fill: #F6F6F9; }
      .bg-white { fill: #FFFFFF; }
      .bg-primary { fill: #0050D7; }
      .bg-success { fill: #DEF7EC; }
      .bg-warning { fill: #FEF3C7; }
      .bg-error { fill: #FEE2E2; }
      .border { stroke: #E5E7EB; stroke-width: 1; fill: none; }
      .btn-outline { stroke: #0050D7; stroke-width: 1; fill: #FFFFFF; }
      .btn-primary { fill: #0050D7; }
      .row-selected { fill: #E8F0FE; }
      .table-header { fill: #F9FAFB; }
      .text-white { fill: #FFFFFF; font-family: 'Source Sans Pro', sans-serif; }
      .text-dark { fill: #1F2937; font-family: 'Source Sans Pro', sans-serif; }
      .text-muted { fill: #6B7280; font-family: 'Source Sans Pro', sans-serif; }
      .text-primary { fill: #0050D7; font-family: 'Source Sans Pro', sans-serif; }
      .text-success { fill: #059669; font-family: 'Source Sans Pro', sans-serif; }
      .text-error { fill: #DC2626; font-family: 'Source Sans Pro', sans-serif; }
      .text-warning { fill: #D97706; font-family: 'Source Sans Pro', sans-serif; }
      .divider { stroke: #E5E7EB; stroke-width: 1; }
    </style>
  </defs>

  <!-- Background -->
  <rect width="1440" height="900" class="bg-main"/>

  <!-- NAV1 -->
  <rect width="1440" height="50" class="bg-header"/>
  <text x="40" y="32" class="text-white" font-size="14" opacity="0.7">Accueil</text>
  <text x="510" y="32" class="text-white" font-size="14" font-weight="600">Web Cloud</text>
  <rect x="505" y="46" width="75" height="3" fill="#FFFFFF"/>
  <rect x="1280" y="12" width="140" height="26" rx="13" fill="rgba(255,255,255,0.2)"/>
  <text x="1320" y="29" class="text-white" font-size="12">ab12345-ovh</text>

  <!-- NAV2 -->
  <rect x="0" y="50" width="1440" height="40" class="bg-white"/>
  <line x1="0" y1="89" x2="1440" y2="89" stroke="#E5E7EB"/>
  <text x="550" y="75" class="text-primary" font-size="14" font-weight="600">Accès</text>
  <rect x="545" y="85" width="40" height="3" fill="#0050D7"/>

  <!-- CONTENT -->
  <g transform="translate(0, 105)">
    <g transform="translate(24, 0)">
      <!-- LEFT PANEL -->
      <rect x="0" y="0" width="280" height="765" rx="8" class="bg-white"/>
      <rect x="0" y="0" width="280" height="765" rx="8" class="border"/>

      <!-- NAV3 Selector (AU-DESSUS de recherche) -->
      <rect x="0" y="0" width="280" height="44" rx="8" fill="#F9FAFB"/>
      <rect x="12" y="10" width="125" height="24" rx="4" fill="#0050D7"/>
      <text x="74" y="26" fill="#FFFFFF" font-size="11" text-anchor="middle">Général</text>
      <rect x="143" y="10" width="125" height="24" rx="4" fill="#FFFFFF" stroke="#E5E7EB"/>
      <text x="205" y="26" fill="#6B7280" font-size="11" text-anchor="middle">OTB</text>
      <line x1="0" y1="44" x2="280" y2="44" class="divider"/>

      <!-- Recherche (y=56, sous NAV3) -->
      <rect x="12" y="56" width="256" height="34" rx="4" fill="#F9FAFB" stroke="#E5E7EB"/>
      <text x="26" y="78" class="text-muted" font-size="12">Rechercher...</text>

      <!-- Compteur (y=100) -->
      <text x="12" y="112" class="text-muted" font-size="11">3 connexions</text>

      <g transform="translate(6, 124)">
        <rect x="0" y="0" width="268" height="95" rx="6" class="row-selected"/>
        <text x="12" y="20" font-size="14">🌐</text>
        <text x="32" y="20" class="text-dark" font-size="13" font-weight="600">Fibre Pro Paris</text>
        <text x="12" y="38" class="text-muted" font-size="11">FTTH · Pack Pro</text>
        <circle cx="18" cy="52" r="5" fill="#10B981"/>
        <text x="28" y="56" class="text-dark" font-size="11">Connecté</text>
      </g>
    </g>

    <!-- RIGHT PANEL -->
    <g transform="translate(320, 0)">
      <rect x="0" y="0" width="1096" height="765" rx="8" class="bg-white"/>
      <rect x="0" y="0" width="1096" height="765" rx="8" class="border"/>

      <g transform="translate(20, 0)">
        <!-- HEADER -->
        <text x="0" y="28" class="text-dark" font-size="18" font-weight="600">Fibre Pro Paris</text>

        <!-- NAV3 (Tâches actif) -->
        <g transform="translate(0, 65)">
          <rect x="0" y="0" width="65" height="26" rx="4" class="btn-outline"/>
          <text x="32" y="17" class="text-primary" font-size="11" text-anchor="middle">Général</text>
          <rect x="69" y="0" width="55" height="26" rx="4" class="btn-outline"/>
          <text x="96" y="17" class="text-primary" font-size="11" text-anchor="middle">Ligne</text>
          <rect x="128" y="0" width="55" height="26" rx="4" class="btn-outline"/>
          <text x="155" y="17" class="text-primary" font-size="11" text-anchor="middle">Modem</text>
          <rect x="187" y="0" width="70" height="26" rx="4" class="btn-outline"/>
          <text x="222" y="17" class="text-primary" font-size="11" text-anchor="middle">Services</text>
          <rect x="261" y="0" width="55" height="26" rx="4" class="btn-outline"/>
          <text x="288" y="17" class="text-primary" font-size="11" text-anchor="middle">VoIP</text>
          <rect x="320" y="0" width="65" height="26" rx="4" class="btn-outline"/>
          <text x="352" y="17" class="text-primary" font-size="11" text-anchor="middle">Options</text>
          <rect x="389" y="0" width="60" height="26" rx="4" class="bg-primary"/>
          <text x="419" y="17" class="text-white" font-size="11" text-anchor="middle">Tâches</text>
        </g>

        <!-- CONTENU TÂCHES -->
        <g transform="translate(0, 110)">

          <!-- Toolbar -->
          <g transform="translate(0, 0)">
            <rect x="0" y="0" width="32" height="32" rx="4" class="btn-outline"/>
            <text x="16" y="22" class="text-primary" font-size="14" text-anchor="middle">↻</text>

            <rect x="40" y="0" width="180" height="32" rx="4" fill="#F9FAFB" stroke="#E5E7EB"/>
            <text x="52" y="21" class="text-muted" font-size="11">Rechercher...</text>

            <text x="250" y="21" class="text-muted" font-size="11">Statut:</text>
            <rect x="300" y="0" width="120" height="32" rx="4" fill="#F9FAFB" stroke="#E5E7EB"/>
            <text x="315" y="21" class="text-dark" font-size="11">Tous</text>
            <text x="400" y="21" class="text-muted" font-size="10">▼</text>
          </g>

          <!-- Table tâches -->
          <g transform="translate(0, 50)">
            <rect x="0" y="0" width="1030" height="500" rx="6" fill="#FFFFFF" stroke="#E5E7EB"/>
            <text x="20" y="28" class="text-dark" font-size="15" font-weight="700">HISTORIQUE DES TÂCHES</text>

            <!-- Table header -->
            <rect x="0" y="45" width="1030" height="35" rx="0" class="table-header"/>
            <text x="20" y="68" class="text-muted" font-size="10" font-weight="600">ID</text>
            <text x="120" y="68" class="text-muted" font-size="10" font-weight="600">DATE</text>
            <text x="280" y="68" class="text-muted" font-size="10" font-weight="600">TYPE</text>
            <text x="480" y="68" class="text-muted" font-size="10" font-weight="600">DESCRIPTION</text>
            <text x="750" y="68" class="text-muted" font-size="10" font-weight="600">STATUT</text>
            <text x="900" y="68" class="text-muted" font-size="10" font-weight="600">ACTIONS</text>

            <!-- Row 1 - En cours -->
            <g transform="translate(0, 90)">
              <text x="20" y="15" class="text-dark" font-size="11">#12345</text>
              <text x="120" y="15" class="text-dark" font-size="11">30/12/2024 15:30</text>
              <text x="280" y="15" class="text-dark" font-size="11">Mise à jour firmware</text>
              <text x="480" y="15" class="text-muted" font-size="11">Mise à jour modem vers v4.13.0</text>
              <rect x="750" y="0" width="80" height="20" rx="10" fill="#FEF3C7"/>
              <text x="790" y="14" fill="#D97706" font-size="10" text-anchor="middle">En cours</text>
              <text x="900" y="15" class="text-primary" font-size="11">Détails</text>
            </g>

            <!-- Row 2 - Terminé -->
            <g transform="translate(0, 125)">
              <line x1="20" y1="-15" x2="1010" y2="-15" stroke="#E5E7EB"/>
              <text x="20" y="15" class="text-dark" font-size="11">#12344</text>
              <text x="120" y="15" class="text-dark" font-size="11">30/12/2024 10:15</text>
              <text x="280" y="15" class="text-dark" font-size="11">Configuration WiFi</text>
              <text x="480" y="15" class="text-muted" font-size="11">Modification SSID et sécurité</text>
              <rect x="750" y="0" width="80" height="20" rx="10" fill="#DEF7EC"/>
              <text x="790" y="14" fill="#03543F" font-size="10" text-anchor="middle">Terminé</text>
              <text x="900" y="15" class="text-primary" font-size="11">Détails</text>
            </g>

            <!-- Row 3 - Terminé -->
            <g transform="translate(0, 160)">
              <line x1="20" y1="-15" x2="1010" y2="-15" stroke="#E5E7EB"/>
              <text x="20" y="15" class="text-dark" font-size="11">#12343</text>
              <text x="120" y="15" class="text-dark" font-size="11">29/12/2024 16:45</text>
              <text x="280" y="15" class="text-dark" font-size="11">Redémarrage modem</text>
              <text x="480" y="15" class="text-muted" font-size="11">Redémarrage demandé par l'utilisateur</text>
              <rect x="750" y="0" width="80" height="20" rx="10" fill="#DEF7EC"/>
              <text x="790" y="14" fill="#03543F" font-size="10" text-anchor="middle">Terminé</text>
              <text x="900" y="15" class="text-primary" font-size="11">Détails</text>
            </g>

            <!-- Row 4 - Échec -->
            <g transform="translate(0, 195)">
              <line x1="20" y1="-15" x2="1010" y2="-15" stroke="#E5E7EB"/>
              <text x="20" y="15" class="text-dark" font-size="11">#12342</text>
              <text x="120" y="15" class="text-dark" font-size="11">29/12/2024 14:20</text>
              <text x="280" y="15" class="text-dark" font-size="11">Configuration NAT</text>
              <text x="480" y="15" class="text-muted" font-size="11">Ajout règle port 8080</text>
              <rect x="750" y="0" width="80" height="20" rx="10" fill="#FEE2E2"/>
              <text x="790" y="14" fill="#DC2626" font-size="10" text-anchor="middle">Échec</text>
              <text x="900" y="15" class="text-primary" font-size="11">Détails</text>
              <text x="960" y="15" class="text-primary" font-size="11">Réessayer</text>
            </g>

            <!-- Row 5 - Terminé -->
            <g transform="translate(0, 230)">
              <line x1="20" y1="-15" x2="1010" y2="-15" stroke="#E5E7EB"/>
              <text x="20" y="15" class="text-dark" font-size="11">#12341</text>
              <text x="120" y="15" class="text-dark" font-size="11">28/12/2024 09:00</text>
              <text x="280" y="15" class="text-dark" font-size="11">Diagnostic ligne</text>
              <text x="480" y="15" class="text-muted" font-size="11">Test automatique de la ligne</text>
              <rect x="750" y="0" width="80" height="20" rx="10" fill="#DEF7EC"/>
              <text x="790" y="14" fill="#03543F" font-size="10" text-anchor="middle">Terminé</text>
              <text x="900" y="15" class="text-primary" font-size="11">Détails</text>
            </g>

            <!-- Row 6 - Terminé -->
            <g transform="translate(0, 265)">
              <line x1="20" y1="-15" x2="1010" y2="-15" stroke="#E5E7EB"/>
              <text x="20" y="15" class="text-dark" font-size="11">#12340</text>
              <text x="120" y="15" class="text-dark" font-size="11">27/12/2024 11:30</text>
              <text x="280" y="15" class="text-dark" font-size="11">Configuration DHCP</text>
              <text x="480" y="15" class="text-muted" font-size="11">Modification plage IP</text>
              <rect x="750" y="0" width="80" height="20" rx="10" fill="#DEF7EC"/>
              <text x="790" y="14" fill="#03543F" font-size="10" text-anchor="middle">Terminé</text>
              <text x="900" y="15" class="text-primary" font-size="11">Détails</text>
            </g>

            <!-- Row 7 - Planifié -->
            <g transform="translate(0, 300)">
              <line x1="20" y1="-15" x2="1010" y2="-15" stroke="#E5E7EB"/>
              <text x="20" y="15" class="text-dark" font-size="11">#12346</text>
              <text x="120" y="15" class="text-dark" font-size="11">31/12/2024 03:00</text>
              <text x="280" y="15" class="text-dark" font-size="11">Maintenance planifiée</text>
              <text x="480" y="15" class="text-muted" font-size="11">Maintenance réseau programmée</text>
              <rect x="750" y="0" width="80" height="20" rx="10" fill="#DBEAFE"/>
              <text x="790" y="14" fill="#1E40AF" font-size="10" text-anchor="middle">Planifié</text>
              <text x="900" y="15" class="text-primary" font-size="11">Détails</text>
            </g>

            <!-- Pagination -->
            <g transform="translate(0, 400)">
              <text x="20" y="15" class="text-muted" font-size="11">Affichage 1-7 sur 24 tâches</text>
              <rect x="930" y="0" width="28" height="26" rx="4" class="btn-outline"/>
              <text x="944" y="18" class="text-primary" font-size="12" text-anchor="middle">‹</text>
              <rect x="962" y="0" width="28" height="26" rx="4" class="btn-outline"/>
              <text x="976" y="18" class="text-primary" font-size="12" text-anchor="middle">›</text>
            </g>
          </g>

        </g>
      </g>
    </g>
  </g>
</svg>
