<svg xmlns="http://www.w3.org/2000/svg" viewBox="0 0 1440 900" width="1440" height="900">
  <defs>
    <style>
      .bg-header { fill: #000E9C; }
      .bg-main { fill: #F6F6F9; }
      .bg-white { fill: #FFFFFF; }
      .bg-primary { fill: #0050D7; }
      .bg-success { fill: #DEF7EC; }
      .bg-warning { fill: #FEF3C7; }
      .border { stroke: #E5E7EB; stroke-width: 1; fill: none; }
      .btn-outline { stroke: #0050D7; stroke-width: 1; fill: #FFFFFF; }
      .btn-primary { fill: #0050D7; }
      .row-selected { fill: #E8F0FE; }
      .table-header { fill: #F9FAFB; }
      .text-white { fill: #FFFFFF; font-family: 'Source Sans Pro', sans-serif; }
      .text-dark { fill: #1F2937; font-family: 'Source Sans Pro', sans-serif; }
      .text-muted { fill: #6B7280; font-family: 'Source Sans Pro', sans-serif; }
      .text-primary { fill: #0050D7; font-family: 'Source Sans Pro', sans-serif; }
      .text-success { fill: #059669; font-family: 'Source Sans Pro', sans-serif; }
      .text-warning { fill: #D97706; font-family: 'Source Sans Pro', sans-serif; }
      .divider { stroke: #E5E7EB; stroke-width: 1; }
    </style>
  </defs>

  <!-- Background -->
  <rect width="1440" height="900" class="bg-main"/>

  <!-- NAV1 - Header OVH (Web Cloud actif) -->
  <rect width="1440" height="50" class="bg-header"/>
  <text x="40" y="32" class="text-white" font-size="14" opacity="0.7">Accueil</text>
  <text x="110" y="32" class="text-white" font-size="14" opacity="0.7">Public Cloud</text>
  <text x="210" y="32" class="text-white" font-size="14" opacity="0.7">Hosted Private Cloud</text>
  <text x="370" y="32" class="text-white" font-size="14" opacity="0.7">Bare Metal Cloud</text>
  <text x="510" y="32" class="text-white" font-size="14" font-weight="600">Web Cloud</text>
  <rect x="505" y="46" width="75" height="3" fill="#FFFFFF"/>
  <text x="620" y="32" class="text-white" font-size="14" opacity="0.7">Network</text>
  <text x="700" y="32" class="text-white" font-size="14" opacity="0.7">IAM / Securite</text>
  <text x="810" y="32" class="text-white" font-size="14" opacity="0.7">Licences</text>
  <rect x="1280" y="12" width="140" height="26" rx="13" fill="rgba(255,255,255,0.2)"/>
  <text x="1320" y="29" class="text-white" font-size="12">ab12345-ovh</text>

  <!-- NAV2 - Web Cloud (Acces actif) -->
  <rect x="0" y="50" width="1440" height="40" class="bg-white"/>
  <line x1="0" y1="89" x2="1440" y2="89" stroke="#E5E7EB"/>
  <text x="40" y="75" class="text-muted" font-size="14">Accueil</text>
  <text x="110" y="75" class="text-muted" font-size="14">Domaines et DNS</text>
  <text x="240" y="75" class="text-muted" font-size="14">Hebergement</text>
  <text x="345" y="75" class="text-muted" font-size="14">Wordpress</text>
  <text x="430" y="75" class="text-muted" font-size="14">Emails</text>
  <text x="500" y="75" class="text-muted" font-size="14">VoIP</text>
  <text x="550" y="75" class="text-primary" font-size="14" font-weight="600">Acces</text>
  <rect x="545" y="85" width="40" height="3" fill="#0050D7"/>
  <text x="1350" y="75" class="text-primary" font-size="13">Guides</text>

  <!-- CONTENT AREA -->
  <g transform="translate(0, 105)">
    <g transform="translate(24, 0)">

      <!-- LEFT PANEL -->
      <rect x="0" y="0" width="280" height="765" rx="8" class="bg-white"/>
      <rect x="0" y="0" width="280" height="765" rx="8" class="border"/>

      <!-- NAV3 Selector (AU-DESSUS de recherche) -->
      <rect x="0" y="0" width="280" height="44" rx="8" fill="#F9FAFB"/>
      <rect x="12" y="10" width="125" height="24" rx="4" fill="#FFFFFF" stroke="#E5E7EB"/>
      <text x="74" y="26" fill="#6B7280" font-size="11" text-anchor="middle">General</text>
      <rect x="143" y="10" width="125" height="24" rx="4" fill="#0050D7"/>
      <text x="205" y="26" fill="#FFFFFF" font-size="11" text-anchor="middle">OTB</text>
      <line x1="0" y1="44" x2="280" y2="44" class="divider"/>

      <!-- Recherche -->
      <rect x="12" y="56" width="256" height="34" rx="4" fill="#F9FAFB" stroke="#E5E7EB"/>
      <text x="26" y="78" class="text-muted" font-size="12">Rechercher...</text>

      <!-- Compteur -->
      <text x="12" y="112" class="text-muted" font-size="11">3 OverTheBox</text>

      <!-- OTB 1 -->
      <g transform="translate(6, 124)">
        <rect x="0" y="0" width="268" height="75" rx="6" fill="#FFFFFF" stroke="#E5E7EB"/>
        <text x="12" y="20" font-size="14">&#x1F4E6;</text>
        <text x="32" y="20" class="text-dark" font-size="13" font-weight="600">otb-xxx123</text>
        <text x="12" y="38" class="text-muted" font-size="11">Bureau principal</text>
        <circle cx="18" cy="52" r="5" fill="#10B981"/>
        <text x="28" y="56" class="text-dark" font-size="11">Actif</text>
        <text x="12" y="70" class="text-muted" font-size="10">3 connexions WAN</text>
      </g>

      <!-- OTB 2 -->
      <g transform="translate(6, 209)">
        <rect x="0" y="0" width="268" height="75" rx="6" fill="#FFFFFF" stroke="#E5E7EB"/>
        <text x="12" y="20" font-size="14">&#x1F4E6;</text>
        <text x="32" y="20" class="text-dark" font-size="13" font-weight="600">otb-xxx456</text>
        <text x="12" y="38" class="text-muted" font-size="11">Maison secondaire</text>
        <circle cx="18" cy="52" r="5" fill="#10B981"/>
        <text x="28" y="56" class="text-dark" font-size="11">Actif</text>
        <text x="12" y="70" class="text-muted" font-size="10">2 connexions WAN</text>
      </g>

      <!-- OTB 3 - En creation -->
      <g transform="translate(6, 294)">
        <rect x="0" y="0" width="268" height="75" rx="6" fill="#FFFFFF" stroke="#E5E7EB"/>
        <text x="12" y="20" font-size="14">&#x1F4E6;</text>
        <text x="32" y="20" class="text-dark" font-size="13" font-weight="600">otb-xxx789</text>
        <text x="12" y="38" class="text-muted" font-size="11">(non defini)</text>
        <rect x="12" y="48" width="60" height="18" rx="9" fill="#FEF3C7"/>
        <text x="42" y="61" fill="#92400E" font-size="9" text-anchor="middle">Creation</text>
      </g>

      <!-- Bouton Commander -->
      <g transform="translate(12, 394)">
        <rect x="0" y="0" width="256" height="40" rx="4" class="btn-outline"/>
        <text x="128" y="26" class="text-primary" font-size="12" text-anchor="middle">+ Commander</text>
      </g>

    </g>

    <!-- RIGHT PANEL -->
    <g transform="translate(320, 0)">
      <rect x="0" y="0" width="1096" height="765" rx="8" class="bg-white"/>
      <rect x="0" y="0" width="1096" height="765" rx="8" class="border"/>

      <g transform="translate(20, 0)">
        <!-- HEADER PAGE -->
        <text x="0" y="28" class="text-dark" font-size="18" font-weight="600">OverTheBox</text>
        <text x="140" y="28" class="text-muted" font-size="12">3 services</text>

        <!-- Toolbar -->
        <g transform="translate(0, 50)">
          <rect x="0" y="0" width="32" height="32" rx="4" class="btn-outline"/>
          <text x="16" y="22" class="text-primary" font-size="14" text-anchor="middle">&#x21BB;</text>

          <rect x="850" y="0" width="180" height="32" rx="4" class="btn-primary"/>
          <text x="940" y="21" class="text-white" font-size="11" text-anchor="middle">+ Commander</text>
        </g>

        <!-- Table OverTheBox -->
        <g transform="translate(0, 100)">
          <rect x="0" y="0" width="1036" height="500" rx="6" fill="#FFFFFF" stroke="#E5E7EB"/>

          <!-- Table header -->
          <rect x="0" y="0" width="1036" height="45" rx="6" class="table-header"/>
          <text x="20" y="28" class="text-muted" font-size="11" font-weight="600">NOM</text>
          <text x="250" y="28" class="text-muted" font-size="11" font-weight="600">DESCRIPTION</text>
          <text x="550" y="28" class="text-muted" font-size="11" font-weight="600">CONNEXIONS</text>
          <text x="700" y="28" class="text-muted" font-size="11" font-weight="600">STATUT</text>
          <text x="880" y="28" class="text-muted" font-size="11" font-weight="600">ACTIONS</text>

          <!-- Row 1 -->
          <g transform="translate(0, 55)">
            <line x1="0" y1="0" x2="1036" y2="0" stroke="#E5E7EB"/>
            <text x="20" y="28" class="text-primary" font-size="12">otb-xxx123</text>
            <text x="250" y="28" class="text-dark" font-size="12">Bureau principal</text>
            <text x="550" y="28" class="text-dark" font-size="12">3 WAN actifs</text>
            <rect x="700" y="10" width="60" height="22" rx="11" fill="#DEF7EC"/>
            <text x="730" y="26" fill="#03543F" font-size="10" text-anchor="middle">Actif</text>
            <text x="880" y="28" class="text-primary" font-size="11">Gerer</text>
            <text x="940" y="28" class="text-muted" font-size="11">&#x22EE;</text>
          </g>

          <!-- Row 2 -->
          <g transform="translate(0, 100)">
            <line x1="0" y1="0" x2="1036" y2="0" stroke="#E5E7EB"/>
            <text x="20" y="28" class="text-primary" font-size="12">otb-xxx456</text>
            <text x="250" y="28" class="text-dark" font-size="12">Maison secondaire</text>
            <text x="550" y="28" class="text-dark" font-size="12">2 WAN actifs</text>
            <rect x="700" y="10" width="60" height="22" rx="11" fill="#DEF7EC"/>
            <text x="730" y="26" fill="#03543F" font-size="10" text-anchor="middle">Actif</text>
            <text x="880" y="28" class="text-primary" font-size="11">Gerer</text>
            <text x="940" y="28" class="text-muted" font-size="11">&#x22EE;</text>
          </g>

          <!-- Row 3 - En creation -->
          <g transform="translate(0, 145)">
            <line x1="0" y1="0" x2="1036" y2="0" stroke="#E5E7EB"/>
            <text x="20" y="28" class="text-primary" font-size="12">otb-xxx789</text>
            <text x="250" y="28" class="text-muted" font-size="12">(non defini)</text>
            <text x="550" y="28" class="text-muted" font-size="12">-</text>
            <rect x="700" y="10" width="70" height="22" rx="11" fill="#FEF3C7"/>
            <text x="735" y="26" fill="#92400E" font-size="10" text-anchor="middle">Creation</text>
            <text x="880" y="28" class="text-primary" font-size="11">Configurer</text>
            <text x="960" y="28" class="text-muted" font-size="11">&#x22EE;</text>
          </g>

          <!-- Pagination -->
          <g transform="translate(0, 430)">
            <text x="20" y="20" class="text-muted" font-size="11">Affichage 1-3 sur 3</text>
            <rect x="900" y="5" width="28" height="26" rx="4" fill="#E5E7EB"/>
            <text x="914" y="23" class="text-muted" font-size="12" text-anchor="middle">&#x2039;</text>
            <rect x="932" y="5" width="28" height="26" rx="4" class="bg-primary"/>
            <text x="946" y="23" class="text-white" font-size="11" text-anchor="middle">1</text>
            <rect x="964" y="5" width="28" height="26" rx="4" class="btn-outline"/>
            <text x="978" y="23" class="text-primary" font-size="12" text-anchor="middle">&#x203A;</text>
          </g>
        </g>

      </g>
    </g>
  </g>
</svg>
