<svg xmlns="http://www.w3.org/2000/svg" viewBox="0 0 1440 900" width="1440" height="900">
  <defs>
    <style>
      .bg-header { fill: #000E9C; }
      .bg-main { fill: #F6F6F9; }
      .bg-white { fill: #FFFFFF; }
      .bg-primary { fill: #0050D7; }
      .bg-success { fill: #DEF7EC; }
      .border { stroke: #E5E7EB; stroke-width: 1; fill: none; }
      .btn-outline { stroke: #0050D7; stroke-width: 1; fill: #FFFFFF; }
      .btn-primary { fill: #0050D7; }
      .row-selected { fill: #E8F0FE; }
      .table-header { fill: #F9FAFB; }
      .text-white { fill: #FFFFFF; font-family: 'Source Sans Pro', sans-serif; }
      .text-dark { fill: #1F2937; font-family: 'Source Sans Pro', sans-serif; }
      .text-muted { fill: #6B7280; font-family: 'Source Sans Pro', sans-serif; }
      .text-primary { fill: #0050D7; font-family: 'Source Sans Pro', sans-serif; }
      .text-error { fill: #DC2626; font-family: 'Source Sans Pro', sans-serif; }
      .divider { stroke: #E5E7EB; stroke-width: 1; }
    </style>
  </defs>

  <!-- Background -->
  <rect width="1440" height="900" class="bg-main"/>

  <!-- NAV1 -->
  <rect width="1440" height="50" class="bg-header"/>
  <text x="40" y="32" class="text-white" font-size="14" opacity="0.7">Accueil</text>
  <text x="510" y="32" class="text-white" font-size="14" font-weight="600">Web Cloud</text>
  <rect x="505" y="46" width="75" height="3" fill="#FFFFFF"/>
  <rect x="1280" y="12" width="140" height="26" rx="13" fill="rgba(255,255,255,0.2)"/>
  <text x="1320" y="29" class="text-white" font-size="12">ab12345-ovh</text>

  <!-- NAV2 -->
  <rect x="0" y="50" width="1440" height="40" class="bg-white"/>
  <line x1="0" y1="89" x2="1440" y2="89" stroke="#E5E7EB"/>
  <text x="40" y="75" class="text-muted" font-size="14">Accueil</text>
  <text x="110" y="75" class="text-muted" font-size="14">Domaines et DNS</text>
  <text x="240" y="75" class="text-muted" font-size="14">Hebergement</text>
  <text x="345" y="75" class="text-muted" font-size="14">Wordpress</text>
  <text x="430" y="75" class="text-muted" font-size="14">Emails</text>
  <text x="500" y="75" class="text-muted" font-size="14">VoIP</text>
  <text x="550" y="75" class="text-primary" font-size="14" font-weight="600">Acces</text>
  <rect x="545" y="85" width="40" height="3" fill="#0050D7"/>
  <text x="1350" y="75" class="text-primary" font-size="13">Guides</text>

  <!-- CONTENT AREA -->
  <g transform="translate(0, 105)">
    <g transform="translate(24, 0)">
      <!-- LEFT PANEL -->
      <rect x="0" y="0" width="280" height="765" rx="8" class="bg-white"/>
      <rect x="0" y="0" width="280" height="765" rx="8" class="border"/>

      <!-- NAV3 Selector (AU-DESSUS de recherche) -->
      <rect x="0" y="0" width="280" height="44" rx="8" fill="#F9FAFB"/>
      <rect x="12" y="10" width="125" height="24" rx="4" fill="#0050D7"/>
      <text x="74" y="26" fill="#FFFFFF" font-size="11" text-anchor="middle">Général</text>
      <rect x="143" y="10" width="125" height="24" rx="4" fill="#FFFFFF" stroke="#E5E7EB"/>
      <text x="205" y="26" fill="#6B7280" font-size="11" text-anchor="middle">OTB</text>
      <line x1="0" y1="44" x2="280" y2="44" class="divider"/>

      <!-- Recherche (y=56, sous NAV3) -->
      <rect x="12" y="56" width="256" height="34" rx="4" fill="#F9FAFB" stroke="#E5E7EB"/>
      <text x="26" y="78" class="text-muted" font-size="12">Rechercher...</text>

      <!-- Compteur (y=100) -->
      <text x="12" y="112" class="text-muted" font-size="11">3 connexions</text>

      <g transform="translate(6, 124)">
        <rect x="0" y="0" width="268" height="95" rx="6" class="row-selected"/>
        <text x="12" y="20" font-size="14">&#x1F310;</text>
        <text x="32" y="20" class="text-dark" font-size="13" font-weight="600">Fibre Pro Paris</text>
        <text x="12" y="38" class="text-muted" font-size="11">FTTH - Pack Pro</text>
        <circle cx="18" cy="52" r="5" fill="#10B981"/>
        <text x="28" y="56" class="text-dark" font-size="11">Connecte</text>
        <text x="12" y="72" class="text-muted" font-size="10">&#x2193; 1 Gbps  &#x2191; 500 Mbps</text>
        <text x="12" y="88" class="text-muted" font-size="10">&#x1F4E6; Livebox 6</text>
      </g>
    </g>

    <!-- RIGHT PANEL -->
    <g transform="translate(320, 0)">
      <rect x="0" y="0" width="1096" height="765" rx="8" class="bg-white"/>
      <rect x="0" y="0" width="1096" height="765" rx="8" class="border"/>

      <g transform="translate(20, 0)">
        <!-- HEADER PAGE -->
        <text x="0" y="28" class="text-dark" font-size="18" font-weight="600">Fibre Pro Paris</text>
        <text x="0" y="48" class="text-muted" font-size="12">FTTH - Pack Pro - 12 rue de l'Example, 75001 Paris</text>

        <!-- NAV3 TABS -->
        <g transform="translate(0, 65)">
          <rect x="0" y="0" width="65" height="26" rx="4" class="btn-outline"/>
          <text x="32" y="17" class="text-primary" font-size="11" text-anchor="middle">General</text>
          <rect x="69" y="0" width="55" height="26" rx="4" class="bg-primary"/>
          <text x="96" y="17" class="text-white" font-size="11" text-anchor="middle">Ligne</text>
          <rect x="128" y="0" width="55" height="26" rx="4" class="btn-outline"/>
          <text x="155" y="17" class="text-primary" font-size="11" text-anchor="middle">Modem</text>
          <rect x="187" y="0" width="70" height="26" rx="4" class="btn-outline"/>
          <text x="222" y="17" class="text-primary" font-size="11" text-anchor="middle">Services</text>
          <rect x="261" y="0" width="45" height="26" rx="4" class="btn-outline"/>
          <text x="283" y="17" class="text-primary" font-size="11" text-anchor="middle">VoIP</text>
          <rect x="310" y="0" width="60" height="26" rx="4" class="btn-outline"/>
          <text x="340" y="17" class="text-primary" font-size="11" text-anchor="middle">Options</text>
          <rect x="374" y="0" width="55" height="26" rx="4" class="btn-outline"/>
          <text x="401" y="17" class="text-primary" font-size="11" text-anchor="middle">Taches</text>
        </g>

        <!-- NAV4 SOUS-TABS (Alertes actif) -->
        <g transform="translate(0, 100)">
          <text x="0" y="14" class="text-muted" font-size="12">Statut</text>
          <text x="60" y="14" class="text-muted" font-size="12">Diagnostic</text>
          <text x="150" y="14" class="text-muted" font-size="12">Statistiques</text>
          <text x="250" y="14" class="text-primary" font-size="12" font-weight="500">Alertes</text>
          <rect x="250" y="18" width="50" height="2" fill="#0050D7"/>
        </g>

        <!-- CONTENU - Tab Alertes -->
        <g transform="translate(0, 140)">
          <!-- Toolbar -->
          <rect x="900" y="0" width="130" height="32" rx="4" class="btn-primary"/>
          <text x="965" y="21" class="text-white" font-size="11" text-anchor="middle">+ Ajouter alerte</text>

          <!-- Banniere info -->
          <g transform="translate(0, 50)">
            <rect x="0" y="0" width="1030" height="45" rx="6" fill="#DBEAFE"/>
            <text x="20" y="28" fill="#1E40AF" font-size="12" font-family="Source Sans Pro">Recevez des notifications par email ou SMS lors d'evenements sur votre ligne (deconnexion, resynchronisation, etc.)</text>
          </g>

          <!-- Liste alertes -->
          <g transform="translate(0, 115)">
            <rect x="0" y="0" width="1030" height="380" rx="6" fill="#FFFFFF" stroke="#E5E7EB"/>

            <!-- Table header -->
            <rect x="0" y="0" width="1030" height="45" rx="6" class="table-header"/>
            <text x="20" y="28" class="text-muted" font-size="11" font-weight="600">TYPE D'EVENEMENT</text>
            <text x="300" y="28" class="text-muted" font-size="11" font-weight="600">CANAL</text>
            <text x="450" y="28" class="text-muted" font-size="11" font-weight="600">DESTINATAIRE</text>
            <text x="700" y="28" class="text-muted" font-size="11" font-weight="600">STATUT</text>
            <text x="850" y="28" class="text-muted" font-size="11" font-weight="600">ACTIONS</text>

            <!-- Row 1 -->
            <g transform="translate(0, 55)">
              <line x1="0" y1="0" x2="1030" y2="0" stroke="#E5E7EB"/>
              <text x="20" y="25" class="text-dark" font-size="12">Deconnexion</text>
              <text x="20" y="42" class="text-muted" font-size="10">Alerte si la ligne perd la synchronisation</text>

              <rect x="300" y="10" width="55" height="22" rx="4" fill="#F3F4F6"/>
              <text x="327" y="26" class="text-dark" font-size="10" text-anchor="middle">Email</text>

              <text x="450" y="30" class="text-dark" font-size="12">admin@example.com</text>

              <rect x="700" y="12" width="50" height="20" rx="10" fill="#DEF7EC"/>
              <text x="725" y="26" fill="#03543F" font-size="10" text-anchor="middle">Actif</text>

              <text x="850" y="30" class="text-primary" font-size="11">Modifier</text>
              <text x="930" y="30" class="text-error" font-size="11">Supprimer</text>
            </g>

            <!-- Row 2 -->
            <g transform="translate(0, 115)">
              <line x1="0" y1="0" x2="1030" y2="0" stroke="#E5E7EB"/>
              <text x="20" y="25" class="text-dark" font-size="12">Resynchronisation</text>
              <text x="20" y="42" class="text-muted" font-size="10">Alerte lors d'une resynchronisation de la ligne</text>

              <rect x="300" y="10" width="55" height="22" rx="4" fill="#F3F4F6"/>
              <text x="327" y="26" class="text-dark" font-size="10" text-anchor="middle">Email</text>

              <text x="450" y="30" class="text-dark" font-size="12">admin@example.com</text>

              <rect x="700" y="12" width="50" height="20" rx="10" fill="#DEF7EC"/>
              <text x="725" y="26" fill="#03543F" font-size="10" text-anchor="middle">Actif</text>

              <text x="850" y="30" class="text-primary" font-size="11">Modifier</text>
              <text x="930" y="30" class="text-error" font-size="11">Supprimer</text>
            </g>

            <!-- Row 3 -->
            <g transform="translate(0, 175)">
              <line x1="0" y1="0" x2="1030" y2="0" stroke="#E5E7EB"/>
              <text x="20" y="25" class="text-dark" font-size="12">Degradation qualite</text>
              <text x="20" y="42" class="text-muted" font-size="10">Alerte si la qualite de ligne se degrade</text>

              <rect x="300" y="10" width="45" height="22" rx="4" fill="#F3F4F6"/>
              <text x="322" y="26" class="text-dark" font-size="10" text-anchor="middle">SMS</text>

              <text x="450" y="30" class="text-dark" font-size="12">+33 6 12 34 56 78</text>

              <rect x="700" y="12" width="50" height="20" rx="10" fill="#DEF7EC"/>
              <text x="725" y="26" fill="#03543F" font-size="10" text-anchor="middle">Actif</text>

              <text x="850" y="30" class="text-primary" font-size="11">Modifier</text>
              <text x="930" y="30" class="text-error" font-size="11">Supprimer</text>
            </g>

            <!-- Row 4 -->
            <g transform="translate(0, 235)">
              <line x1="0" y1="0" x2="1030" y2="0" stroke="#E5E7EB"/>
              <text x="20" y="25" class="text-dark" font-size="12">Incident OVH</text>
              <text x="20" y="42" class="text-muted" font-size="10">Alerte en cas d'incident cote OVH</text>

              <rect x="300" y="10" width="55" height="22" rx="4" fill="#F3F4F6"/>
              <text x="327" y="26" class="text-dark" font-size="10" text-anchor="middle">Email</text>
              <rect x="360" y="10" width="45" height="22" rx="4" fill="#F3F4F6"/>
              <text x="382" y="26" class="text-dark" font-size="10" text-anchor="middle">SMS</text>

              <text x="450" y="25" class="text-dark" font-size="12">tech@example.com</text>
              <text x="450" y="42" class="text-dark" font-size="11">+33 6 98 76 54 32</text>

              <rect x="700" y="12" width="50" height="20" rx="10" fill="#DEF7EC"/>
              <text x="725" y="26" fill="#03543F" font-size="10" text-anchor="middle">Actif</text>

              <text x="850" y="30" class="text-primary" font-size="11">Modifier</text>
              <text x="930" y="30" class="text-error" font-size="11">Supprimer</text>
            </g>
          </g>

          <!-- Info SMS -->
          <g transform="translate(0, 520)">
            <rect x="0" y="0" width="1030" height="50" rx="6" fill="#FEF3C7"/>
            <text x="20" y="30" fill="#92400E" font-size="12" font-family="Source Sans Pro">Les alertes SMS sont facturees 0,10EUR/SMS. Solde actuel : 50 SMS prepayes.</text>
            <text x="520" y="30" class="text-primary" font-size="12">Recharger</text>
          </g>
        </g>
      </g>
    </g>
  </g>
</svg>