<svg xmlns="http://www.w3.org/2000/svg" viewBox="0 0 1440 900" width="1440" height="900">
  <defs>
    <style>
      .bg-header { fill: #000E9C; }
      .bg-main { fill: #F6F6F9; }
      .bg-white { fill: #FFFFFF; }
      .bg-primary { fill: #0050D7; }
      .bg-success { fill: #DEF7EC; }
      .bg-warning { fill: #FEF3C7; }
      .table-header { fill: #F9FAFB; }
      .border { stroke: #E5E7EB; stroke-width: 1; fill: none; }
      .divider { stroke: #E5E7EB; stroke-width: 1; }
      .text-white { fill: #FFFFFF; font-family: 'Source Sans Pro', sans-serif; }
      .text-dark { fill: #1F2937; font-family: 'Source Sans Pro', sans-serif; }
      .text-muted { fill: #6B7280; font-family: 'Source Sans Pro', sans-serif; }
      .text-primary { fill: #0050D7; font-family: 'Source Sans Pro', sans-serif; }
      .text-success { fill: #059669; font-family: 'Source Sans Pro', sans-serif; }
      .text-warning { fill: #D97706; font-family: 'Source Sans Pro', sans-serif; }
    </style>
  </defs>

  <!-- Background -->
  <rect width="1440" height="900" class="bg-main"/>

  <!-- NAV1 - Header OVH (Licences actif) -->
  <rect width="1440" height="50" class="bg-header"/>
  <text x="40" y="32" class="text-white" font-size="14" opacity="0.7">Accueil</text>
  <text x="110" y="32" class="text-white" font-size="14" opacity="0.7">Public Cloud</text>
  <text x="210" y="32" class="text-white" font-size="14" opacity="0.7">Hosted Private Cloud</text>
  <text x="370" y="32" class="text-white" font-size="14" opacity="0.7">Bare Metal Cloud</text>
  <text x="510" y="32" class="text-white" font-size="14" opacity="0.7">Web Cloud</text>
  <text x="600" y="32" class="text-white" font-size="14" opacity="0.7">Network</text>
  <text x="680" y="32" class="text-white" font-size="14" opacity="0.7">IAM / Securite</text>
  <text x="800" y="32" class="text-white" font-size="14" font-weight="600">Licences</text>
  <rect x="795" y="46" width="65" height="3" fill="#FFFFFF"/>

  <!-- Badge utilisateur -->
  <rect x="1280" y="12" width="140" height="26" rx="13" fill="rgba(255,255,255,0.2)"/>
  <text x="1320" y="29" class="text-white" font-size="12">xx1234-ovh</text>

  <!-- NAV2 - Sous-header -->
  <rect x="0" y="50" width="1440" height="40" class="bg-white"/>
  <line x1="0" y1="89" x2="1440" y2="89" class="divider"/>

  <!-- CONTENT AREA -->
  <g transform="translate(24, 105)">

    <!-- RIGHT PANEL (full width) -->
    <rect x="0" y="0" width="1392" height="765" rx="8" class="bg-white"/>
    <rect x="0" y="0" width="1392" height="765" rx="8" class="border"/>

    <g transform="translate(24, 24)">
      <!-- Header avec titre et boutons -->
      <text x="0" y="24" class="text-dark" font-size="18" font-weight="600">Licences</text>

      <rect x="1050" y="0" width="120" height="36" rx="4" class="bg-primary"/>
      <text x="1075" y="24" class="text-white" font-size="12">Commander</text>

      <rect x="1180" y="0" width="140" height="36" rx="4" fill="#FFFFFF" stroke="#E5E7EB"/>
      <text x="1195" y="24" class="text-dark" font-size="12">Ajouter SPLA</text>

      <!-- Barre de filtres (panel OUVERT) -->
      <g transform="translate(0, 60)">
        <!-- Search + Filter -->
        <rect x="0" y="0" width="300" height="36" rx="4" fill="#FFFFFF" stroke="#E5E7EB"/>
        <text x="12" y="24" class="text-muted" font-size="12">Rechercher...</text>

        <rect x="320" y="0" width="100" height="36" rx="4" fill="#FFFFFF" stroke="#E5E7EB"/>
        <text x="340" y="24" class="text-dark" font-size="12">Filtres</text>
        <text x="395" y="24" class="text-muted" font-size="10">▼</text>

        <!-- Panneau filtre ouvert -->
        <rect x="320" y="42" width="300" height="180" rx="4" fill="#FFFFFF" stroke="#E5E7EB"/>
        <text x="335" y="65" class="text-dark" font-size="13" font-weight="600">Filtrer par</text>

        <text x="335" y="95" class="text-muted" font-size="11">Type de licence</text>
        <rect x="335" y="105" width="270" height="30" rx="4" fill="#FFFFFF" stroke="#E5E7EB"/>
        <text x="347" y="125" class="text-dark" font-size="11">Tous les types</text>
        <text x="580" y="125" class="text-muted" font-size="10">▼</text>

        <text x="335" y="155" class="text-muted" font-size="11">Statut</text>
        <rect x="335" y="165" width="270" height="30" rx="4" fill="#FFFFFF" stroke="#E5E7EB"/>
        <text x="347" y="185" class="text-dark" font-size="11">Tous les statuts</text>
        <text x="580" y="185" class="text-muted" font-size="10">▼</text>

        <rect x="335" y="205" width="100" height="26" rx="4" class="bg-primary"/>
        <text x="360" y="223" class="text-white" font-size="11">Appliquer</text>
      </g>

      <!-- Datagrid -->
      <g transform="translate(0, 130)">
        <!-- Header -->
        <rect x="0" y="0" width="1340" height="40" rx="4" class="table-header"/>
        <text x="20" y="26" class="text-dark" font-size="11" font-weight="600">Type</text>
        <text x="150" y="26" class="text-dark" font-size="11" font-weight="600">Nom</text>
        <text x="420" y="26" class="text-dark" font-size="11" font-weight="600">ID licence</text>
        <text x="620" y="26" class="text-dark" font-size="11" font-weight="600">IP</text>
        <text x="780" y="26" class="text-dark" font-size="11" font-weight="600">Service</text>
        <text x="1000" y="26" class="text-dark" font-size="11" font-weight="600">Expiration</text>
        <text x="1150" y="26" class="text-dark" font-size="11" font-weight="600">Statut</text>
        <text x="1280" y="26" class="text-dark" font-size="11" font-weight="600">Actions</text>

        <!-- Row 1 -->
        <rect x="0" y="40" width="1340" height="45" fill="#FFFFFF"/>
        <line x1="0" y1="85" x2="1340" y2="85" class="divider"/>
        <text x="20" y="68" class="text-dark" font-size="11">cPanel</text>
        <text x="150" y="68" class="text-primary" font-size="11">cPanel Pro Cloud</text>
        <text x="420" y="68" class="text-dark" font-size="11">CPANEL-123456</text>
        <text x="620" y="68" class="text-dark" font-size="11">192.168.1.100</text>
        <text x="780" y="68" class="text-dark" font-size="11">ns1234567.ip-192...</text>
        <text x="1000" y="68" class="text-dark" font-size="11">15/03/2025</text>
        <rect x="1150" y="55" width="50" height="20" rx="9" class="bg-success"/>
        <text x="1162" y="69" class="text-success" font-size="9">Actif</text>
        <text x="1295" y="68" class="text-muted" font-size="14">⋮</text>

        <!-- Row 2 -->
        <rect x="0" y="85" width="1340" height="45" fill="#FFFFFF"/>
        <line x1="0" y1="130" x2="1340" y2="130" class="divider"/>
        <text x="20" y="113" class="text-dark" font-size="11">Plesk</text>
        <text x="150" y="113" class="text-primary" font-size="11">Plesk Web Host</text>
        <text x="420" y="113" class="text-dark" font-size="11">PLESK-789012</text>
        <text x="620" y="113" class="text-dark" font-size="11">192.168.1.101</text>
        <text x="780" y="113" class="text-dark" font-size="11">ns8765432.ip-192...</text>
        <text x="1000" y="113" class="text-dark" font-size="11">20/06/2025</text>
        <rect x="1150" y="100" width="50" height="20" rx="9" class="bg-success"/>
        <text x="1162" y="114" class="text-success" font-size="9">Actif</text>
        <text x="1295" y="113" class="text-muted" font-size="14">⋮</text>

        <!-- Row 3 -->
        <rect x="0" y="130" width="1340" height="45" fill="#FFFFFF"/>
        <line x1="0" y1="175" x2="1340" y2="175" class="divider"/>
        <text x="20" y="158" class="text-dark" font-size="11">Windows</text>
        <text x="150" y="158" class="text-primary" font-size="11">Windows 2022 DC</text>
        <text x="420" y="158" class="text-dark" font-size="11">WINDOWS-654321</text>
        <text x="620" y="158" class="text-dark" font-size="11">192.168.1.105</text>
        <text x="780" y="158" class="text-dark" font-size="11">ns9999999.ip-192...</text>
        <text x="1000" y="158" class="text-dark" font-size="11">05/01/2026</text>
        <rect x="1150" y="145" width="50" height="20" rx="9" class="bg-success"/>
        <text x="1162" y="159" class="text-success" font-size="9">Actif</text>
        <text x="1295" y="158" class="text-muted" font-size="14">⋮</text>

        <!-- Row 4 (warning) -->
        <rect x="0" y="175" width="1340" height="45" fill="#FFFFFF"/>
        <line x1="0" y1="220" x2="1340" y2="220" class="divider"/>
        <text x="20" y="203" class="text-dark" font-size="11">SQL Server</text>
        <text x="150" y="203" class="text-primary" font-size="11">SQL Server 2019</text>
        <text x="420" y="203" class="text-dark" font-size="11">SQLSERVER-456789</text>
        <text x="620" y="203" class="text-dark" font-size="11">192.168.1.102</text>
        <text x="780" y="203" class="text-dark" font-size="11">ns9876543.ip-192...</text>
        <text x="1000" y="203" class="text-dark" font-size="11">15/01/2025</text>
        <rect x="1150" y="190" width="70" height="20" rx="9" class="bg-warning"/>
        <text x="1158" y="204" class="text-warning" font-size="9">Expire bientôt</text>
        <text x="1295" y="203" class="text-muted" font-size="14">⋮</text>
      </g>

      <!-- Pagination -->
      <g transform="translate(0, 380)">
        <text x="0" y="15" class="text-muted" font-size="11">4 résultats</text>
        <text x="1240" y="15" class="text-muted" font-size="11">Page 1 sur 1</text>
      </g>
    </g>
  </g>
</svg>
