<svg xmlns="http://www.w3.org/2000/svg" viewBox="0 0 1440 900" width="1440" height="900">
  <defs>
    <style>
      .bg-header { fill: #000E9C; }
      .bg-main { fill: #F6F6F9; }
      .bg-white { fill: #FFFFFF; }
      .bg-overlay { fill: #000000; opacity: 0.5; }
      .bg-info { fill: #DBEAFE; }
      .table-header { fill: #F9FAFB; }
      .border { stroke: #E5E7EB; stroke-width: 1; fill: none; }
      .border-dashed { stroke: #D1D5DB; stroke-width: 1; stroke-dasharray: 5,3; fill: none; }
      .btn-outline { stroke: #0050D7; stroke-width: 1; fill: #FFFFFF; }
      .btn-primary { fill: #0050D7; }
      .upload-zone { fill: #F9FAFB; }
      .text-white { fill: #FFFFFF; font-family: 'Source Sans Pro', sans-serif; }
      .text-dark { fill: #1F2937; font-family: 'Source Sans Pro', sans-serif; }
      .text-muted { fill: #6B7280; font-family: 'Source Sans Pro', sans-serif; }
      .text-primary { fill: #0050D7; font-family: 'Source Sans Pro', sans-serif; }
      .text-info { fill: #1E40AF; font-family: 'Source Sans Pro', sans-serif; }
    </style>
  </defs>

  <rect width="1440" height="900" class="bg-main"/>

  <!-- NAV1 - Header OVH -->
  <rect width="1440" height="50" fill="#000E9C"/>

  <!-- NAV2 -->
  <rect x="0" y="50" width="1440" height="40" fill="#FFFFFF"/>

  <!-- Overlay -->
  <rect x="0" y="90" width="1440" height="810" class="bg-overlay"/>

  <!-- Modal -->
  <g transform="translate(345, 120)">
    <rect x="0" y="0" width="750" height="640" rx="8" class="bg-white" filter="drop-shadow(0 4px 20px rgba(0,0,0,0.15))"/>

    <!-- Modal header -->
    <rect x="0" y="0" width="750" height="50" rx="8" fill="#FFFFFF"/>
    <text x="24" y="32" class="text-dark" font-size="16" font-weight="600">Importer des numéros abrégés</text>
    <text x="710" y="32" class="text-muted" font-size="18" style="cursor: pointer;">×</text>
    <line x1="0" y1="50" x2="750" y2="50" stroke="#E5E7EB"/>

    <!-- Form content -->
    <g transform="translate(24, 70)">
      <!-- Upload zone -->
      <rect x="0" y="0" width="702" height="100" rx="8" class="upload-zone border-dashed"/>
      <text x="351" y="40" class="text-muted" font-size="24" text-anchor="middle">📤</text>
      <text x="351" y="65" class="text-primary" font-size="12" text-anchor="middle">Glissez un fichier ou cliquez pour parcourir</text>
      <text x="351" y="85" class="text-muted" font-size="10" text-anchor="middle">CSV, TXT - Max 2 Mo</text>

      <!-- Format info -->
      <g transform="translate(0, 120)">
        <text x="0" y="0" class="text-muted" font-size="10">Format attendu : numéro_abrégé;numéro_cible;prénom;nom (séparateur virgule ou point-virgule)</text>
      </g>

      <!-- Preview section -->
      <g transform="translate(0, 150)">
        <text x="0" y="0" class="text-dark" font-size="12" font-weight="500">Aperçu</text>

        <!-- Table header -->
        <g transform="translate(0, 15)">
          <rect x="0" y="0" width="702" height="32" rx="4" class="table-header"/>
          <text x="20" y="21" class="text-dark" font-size="10" font-weight="600">Numéro abrégé</text>
          <text x="160" y="21" class="text-dark" font-size="10" font-weight="600">Numéro cible</text>
          <text x="380" y="21" class="text-dark" font-size="10" font-weight="600">Prénom</text>
          <text x="530" y="21" class="text-dark" font-size="10" font-weight="600">Nom</text>
        </g>

        <!-- Row 1 -->
        <g transform="translate(0, 47)">
          <rect x="0" y="0" width="702" height="35" class="bg-white"/>
          <line x1="0" y1="35" x2="702" y2="35" stroke="#E5E7EB"/>
          <text x="20" y="23" class="text-dark" font-size="11">2001</text>
          <text x="160" y="23" class="text-dark" font-size="11">0033612345678</text>
          <text x="380" y="23" class="text-dark" font-size="11">Jean</text>
          <text x="530" y="23" class="text-dark" font-size="11">Dupont</text>
        </g>

        <!-- Row 2 -->
        <g transform="translate(0, 82)">
          <rect x="0" y="0" width="702" height="35" fill="#F9FAFB"/>
          <line x1="0" y1="35" x2="702" y2="35" stroke="#E5E7EB"/>
          <text x="20" y="23" class="text-dark" font-size="11">2002</text>
          <text x="160" y="23" class="text-dark" font-size="11">0033698765432</text>
          <text x="380" y="23" class="text-dark" font-size="11">Marie</text>
          <text x="530" y="23" class="text-dark" font-size="11">Martin</text>
        </g>

        <!-- Row 3 -->
        <g transform="translate(0, 117)">
          <rect x="0" y="0" width="702" height="35" class="bg-white"/>
          <line x1="0" y1="35" x2="702" y2="35" stroke="#E5E7EB"/>
          <text x="20" y="23" class="text-dark" font-size="11">2003</text>
          <text x="160" y="23" class="text-dark" font-size="11">0033654321098</text>
          <text x="380" y="23" class="text-dark" font-size="11">Pierre</text>
          <text x="530" y="23" class="text-dark" font-size="11">Durand</text>
        </g>
      </g>

      <!-- Import count -->
      <g transform="translate(0, 330)">
        <text x="0" y="0" class="text-dark" font-size="11">Numéros détectés : <tspan font-weight="600">3</tspan></text>
      </g>

      <!-- Options -->
      <g transform="translate(0, 360)">
        <rect x="0" y="0" width="18" height="18" rx="4" fill="#0050D7"/>
        <text x="9" y="14" fill="#FFFFFF" font-size="12" text-anchor="middle">✓</text>
        <text x="30" y="14" class="text-dark" font-size="11">Ignorer les doublons</text>
      </g>
    </g>

    <!-- Footer -->
    <g transform="translate(24, 580)">
      <line x1="0" y1="0" x2="702" y2="0" stroke="#E5E7EB"/>
      <g transform="translate(0, 20)">
        <rect x="502" y="0" width="90" height="36" rx="4" class="btn-outline"/>
        <text x="527" y="23" class="text-primary" font-size="11">Annuler</text>

        <rect x="602" y="0" width="100" height="36" rx="4" class="btn-primary"/>
        <text x="632" y="23" class="text-white" font-size="11">Importer</text>
      </g>
    </g>
  </g>
</svg>
