<svg xmlns="http://www.w3.org/2000/svg" viewBox="0 0 1440 900" width="1440" height="900">
  <defs>
    <style>
      .bg-header { fill: #000E9C; }
      .bg-muted { fill: #F9FAFB; }
      .bg-white { fill: #FFFFFF; }
      .text-body { font-family: 'Source Sans Pro', sans-serif; font-size: 14px; fill: #1F2937; }
      .text-muted { font-family: 'Source Sans Pro', sans-serif; font-size: 14px; fill: #6B7280; }
      .text-title { font-family: 'Source Sans Pro', sans-serif; font-size: 24px; font-weight: 600; fill: #1F2937; }
      .text-h3 { font-family: 'Source Sans Pro', sans-serif; font-size: 16px; font-weight: 600; fill: #1F2937; }
      .text-white { font-family: 'Source Sans Pro', sans-serif; font-size: 14px; fill: #FFFFFF; }
      .text-link { font-family: 'Source Sans Pro', sans-serif; font-size: 14px; fill: #0050D7; }
      .text-term { font-family: 'Source Sans Pro', sans-serif; font-size: 13px; fill: #6B7280; }
      .border { stroke: #E5E7EB; stroke-width: 1; fill: none; }
      .btn-primary { fill: #0050D7; }
      .btn-text { font-family: 'Source Sans Pro', sans-serif; font-size: 14px; fill: #FFFFFF; font-weight: 600; }
      .badge-open { fill: #DBEAFE; }
      .badge-open-text { font-family: 'Source Sans Pro', sans-serif; font-size: 12px; fill: #1E40AF; }
      .badge-urgent { fill: #FEE2E2; }
      .badge-urgent-text { font-family: 'Source Sans Pro', sans-serif; font-size: 12px; fill: #991B1B; }
      .msg-user { fill: #EFF6FF; }
      .msg-support { fill: #F0FDF4; }
    </style>
  </defs>
  
  <!-- Background -->
  <rect width="1440" height="900" class="bg-muted"/>
  
  <!-- Header OVH -->
  <rect width="1440" height="60" class="bg-header"/>
  <text x="80" y="38" class="text-white" font-size="18" font-weight="bold">OVHcloud</text>
  
  <!-- Sidebar -->
  <rect x="0" y="60" width="240" height="840" class="bg-white"/>
  <rect x="240" y="60" width="1" height="840" fill="#E5E7EB"/>
  <text x="20" y="100" class="text-muted" font-size="12" font-weight="600">ASSISTANCE</text>
  <rect x="0" y="115" width="240" height="36" fill="#E8F0FE"/>
  <text x="20" y="138" class="text-link" font-weight="600">Mes tickets</text>
  <text x="20" y="175" class="text-body">Créer un ticket</text>
  <text x="20" y="205" class="text-body">Guides</text>
  
  <!-- Main Content -->
  <g transform="translate(280, 80)">
    <!-- Breadcrumb -->
    <text x="0" y="20" class="text-muted" font-size="13">Assistance / Mes tickets / #2025-12-4521</text>
    
    <!-- Title and badges -->
    <g transform="translate(0, 45)">
      <text x="0" y="25" class="text-title">Problème de connexion FTP</text>
      <g transform="translate(350, 10)">
        <rect x="0" y="0" width="55" height="22" rx="11" class="badge-open"/>
        <text x="27" y="15" text-anchor="middle" class="badge-open-text">Ouvert</text>
      </g>
      <g transform="translate(420, 10)">
        <rect x="0" y="0" width="50" height="22" rx="11" class="badge-urgent"/>
        <text x="25" y="15" text-anchor="middle" class="badge-urgent-text">Haute</text>
      </g>
    </g>
    
    <!-- Ticket info -->
    <g transform="translate(0, 90)">
      <rect x="0" y="0" width="600" height="80" rx="8" class="bg-white"/>
      <rect x="0" y="0" width="600" height="80" rx="8" class="border"/>
      
      <text x="20" y="25" class="text-term">Créé le</text>
      <text x="20" y="45" class="text-body">27/12/2025 09:15</text>
      
      <text x="160" y="25" class="text-term">Service concerné</text>
      <text x="160" y="45" class="text-body">mywebsite.com</text>
      
      <text x="340" y="25" class="text-term">Dernière mise à jour</text>
      <text x="340" y="45" class="text-body">27/12/2025 10:30</text>
      
      <text x="500" y="25" class="text-term">Réponses</text>
      <text x="500" y="45" class="text-body">2</text>
    </g>
    
    <!-- Conversation -->
    <g transform="translate(0, 190)">
      <text x="0" y="20" class="text-h3">Conversation</text>
      
      <!-- Message 1 - User -->
      <g transform="translate(0, 40)">
        <rect x="0" y="0" width="600" height="120" rx="8" class="msg-user"/>
        <circle cx="30" cy="30" r="18" fill="#0050D7"/>
        <text x="30" y="36" text-anchor="middle" fill="#FFFFFF" font-size="12" font-weight="600">JD</text>
        <text x="60" y="25" class="text-body" font-weight="600">Jean Dupont</text>
        <text x="60" y="45" class="text-muted" font-size="12">27/12/2025 09:15</text>
        <text x="20" y="75" class="text-body">Bonjour,</text>
        <text x="20" y="95" class="text-body">Je n'arrive plus à me connecter en FTP depuis ce matin. Le message d'erreur</text>
        <text x="20" y="112" class="text-body">indique "530 Login authentication failed". J'ai vérifié mes identifiants.</text>
      </g>
      
      <!-- Message 2 - Support -->
      <g transform="translate(0, 175)">
        <rect x="0" y="0" width="600" height="140" rx="8" class="msg-support"/>
        <circle cx="30" cy="30" r="18" fill="#10B981"/>
        <text x="30" y="36" text-anchor="middle" fill="#FFFFFF" font-size="12" font-weight="600">OVH</text>
        <text x="60" y="25" class="text-body" font-weight="600">Support OVHcloud</text>
        <text x="60" y="45" class="text-muted" font-size="12">27/12/2025 10:30</text>
        <text x="20" y="75" class="text-body">Bonjour Jean,</text>
        <text x="20" y="95" class="text-body">Merci pour votre message. J'ai vérifié votre compte et je constate que le mot</text>
        <text x="20" y="112" class="text-body">de passe FTP a été réinitialisé suite à une détection de connexion suspecte.</text>
        <text x="20" y="129" class="text-body">Vous pouvez le modifier depuis votre espace client.</text>
      </g>
      
      <!-- Reply box -->
      <g transform="translate(0, 335)">
        <rect x="0" y="0" width="600" height="150" rx="8" class="bg-white"/>
        <rect x="0" y="0" width="600" height="150" rx="8" class="border"/>
        <text x="20" y="30" class="text-term">Votre réponse</text>
        <rect x="20" y="45" width="560" height="60" rx="4" fill="#F9FAFB" stroke="#E5E7EB"/>
        <text x="30" y="75" class="text-muted">Rédigez votre message...</text>
        
        <rect x="20" y="115" width="100" height="28" rx="4" fill="#F9FAFB" stroke="#E5E7EB"/>
        <text x="70" y="134" text-anchor="middle" class="text-muted" font-size="12">📎 Fichier</text>
        
        <rect x="480" y="110" width="100" height="32" rx="4" class="btn-primary"/>
        <text x="530" y="132" text-anchor="middle" class="btn-text">Envoyer</text>
      </g>
    </g>
    
    <!-- Right sidebar -->
    <g transform="translate(620, 90)">
      <rect x="0" y="0" width="260" height="200" rx="8" class="bg-white"/>
      <rect x="0" y="0" width="260" height="200" rx="8" class="border"/>
      <text x="20" y="30" class="text-h3">Actions</text>
      
      <text x="20" y="65" class="text-link">Modifier la priorité</text>
      <text x="20" y="95" class="text-link">Ajouter un service concerné</text>
      <text x="20" y="125" class="text-link">Marquer comme résolu</text>
      <text x="20" y="155" class="text-link" fill="#DC2626">Fermer le ticket</text>
      
      <line x1="20" y1="175" x2="240" y2="175" stroke="#E5E7EB"/>
      <text x="20" y="195" class="text-muted" font-size="12">Ticket créé par Jean Dupont</text>
    </g>
  </g>
</svg>
