<svg xmlns="http://www.w3.org/2000/svg" viewBox="0 0 1440 900" width="1440" height="900">
  <defs>
    <style>
      .bg-header { fill: #000E9C; }
      .bg-muted { fill: #F9FAFB; }
      .bg-white { fill: #FFFFFF; }
      .text-body { font-family: 'Source Sans Pro', sans-serif; font-size: 14px; fill: #1F2937; }
      .text-muted { font-family: 'Source Sans Pro', sans-serif; font-size: 14px; fill: #6B7280; }
      .text-title { font-family: 'Source Sans Pro', sans-serif; font-size: 24px; font-weight: 600; fill: #1F2937; }
      .text-h3 { font-family: 'Source Sans Pro', sans-serif; font-size: 16px; font-weight: 600; fill: #1F2937; }
      .text-white { font-family: 'Source Sans Pro', sans-serif; font-size: 14px; fill: #FFFFFF; }
      .text-link { font-family: 'Source Sans Pro', sans-serif; font-size: 14px; fill: #0050D7; }
      .border { stroke: #E5E7EB; stroke-width: 1; fill: none; }
      .status-operational { fill: #10B981; }
      .status-degraded { fill: #F59E0B; }
      .status-incident { fill: #EF4444; }
      .badge-operational { fill: #D1FAE5; }
      .badge-operational-text { font-family: 'Source Sans Pro', sans-serif; font-size: 12px; fill: #065F46; }
      .badge-degraded { fill: #FEF3C7; }
      .badge-degraded-text { font-family: 'Source Sans Pro', sans-serif; font-size: 12px; fill: #92400E; }
      .badge-incident { fill: #FEE2E2; }
      .badge-incident-text { font-family: 'Source Sans Pro', sans-serif; font-size: 12px; fill: #991B1B; }
    </style>
  </defs>
  
  <!-- Background -->
  <rect width="1440" height="900" class="bg-muted"/>
  
  <!-- Header OVH -->
  <rect width="1440" height="60" class="bg-header"/>
  <text x="80" y="38" class="text-white" font-size="18" font-weight="bold">OVHcloud</text>
  
  <!-- Sidebar -->
  <rect x="0" y="60" width="240" height="840" class="bg-white"/>
  <rect x="240" y="60" width="1" height="840" fill="#E5E7EB"/>
  <text x="20" y="100" class="text-muted" font-size="12" font-weight="600">ASSISTANCE</text>
  <text x="20" y="130" class="text-body">Mes tickets</text>
  <text x="20" y="160" class="text-body">Créer un ticket</text>
  <text x="20" y="190" class="text-body">Guides</text>
  <rect x="0" y="205" width="240" height="36" fill="#E8F0FE"/>
  <text x="20" y="228" class="text-link" font-weight="600">État des services</text>
  
  <!-- Main Content -->
  <g transform="translate(280, 80)">
    <!-- Breadcrumb -->
    <text x="0" y="20" class="text-muted" font-size="13">Assistance</text>
    
    <!-- Page Title -->
    <text x="0" y="60" class="text-title">État des services</text>
    
    <!-- Global Status Banner -->
    <g transform="translate(0, 90)">
      <rect x="0" y="0" width="880" height="80" rx="8" fill="#D1FAE5"/>
      <circle cx="40" cy="40" r="15" class="status-operational"/>
      <text x="70" y="35" class="text-h3" fill="#065F46">Tous les systèmes sont opérationnels</text>
      <text x="70" y="55" class="text-muted" fill="#065F46">Dernière mise à jour : 27/12/2025 11:45</text>
    </g>
    
    <!-- Services Status -->
    <g transform="translate(0, 195)">
      <rect x="0" y="0" width="880" height="420" rx="8" class="bg-white"/>
      <rect x="0" y="0" width="880" height="420" rx="8" class="border"/>
      
      <text x="20" y="35" class="text-h3">Services</text>
      
      <!-- Header -->
      <g transform="translate(20, 55)">
        <text x="0" y="15" class="text-muted" font-size="12">SERVICE</text>
        <text x="400" y="15" class="text-muted" font-size="12">STATUT</text>
        <text x="600" y="15" class="text-muted" font-size="12">UPTIME 30J</text>
      </g>
      
      <!-- Service 1: Web Hosting - Operational -->
      <g transform="translate(20, 85)">
        <circle cx="10" cy="20" r="6" class="status-operational"/>
        <text x="30" y="25" class="text-body" font-weight="500">Hébergement Web</text>
        <g transform="translate(400, 10)">
          <rect x="0" y="0" width="85" height="22" rx="11" class="badge-operational"/>
          <text x="42" y="15" text-anchor="middle" class="badge-operational-text">Opérationnel</text>
        </g>
        <text x="600" y="25" class="text-body">99.98%</text>
        <!-- Uptime bars -->
        <g transform="translate(680, 10)">
          <rect x="0" y="0" width="6" height="20" rx="1" fill="#10B981"/>
          <rect x="8" y="0" width="6" height="20" rx="1" fill="#10B981"/>
          <rect x="16" y="0" width="6" height="20" rx="1" fill="#10B981"/>
          <rect x="24" y="0" width="6" height="20" rx="1" fill="#10B981"/>
          <rect x="32" y="0" width="6" height="20" rx="1" fill="#10B981"/>
          <rect x="40" y="0" width="6" height="20" rx="1" fill="#10B981"/>
          <rect x="48" y="0" width="6" height="20" rx="1" fill="#10B981"/>
        </g>
      </g>
      <line x1="20" y1="120" x2="860" y2="120" stroke="#E5E7EB"/>
      
      <!-- Service 2: Email - Degraded -->
      <g transform="translate(20, 135)">
        <circle cx="10" cy="20" r="6" class="status-degraded"/>
        <text x="30" y="25" class="text-body" font-weight="500">E-mail (MX Plan / Exchange)</text>
        <g transform="translate(400, 10)">
          <rect x="0" y="0" width="70" height="22" rx="11" class="badge-degraded"/>
          <text x="35" y="15" text-anchor="middle" class="badge-degraded-text">Dégradé</text>
        </g>
        <text x="600" y="25" class="text-body">99.85%</text>
        <g transform="translate(680, 10)">
          <rect x="0" y="0" width="6" height="20" rx="1" fill="#10B981"/>
          <rect x="8" y="0" width="6" height="20" rx="1" fill="#10B981"/>
          <rect x="16" y="0" width="6" height="20" rx="1" fill="#F59E0B"/>
          <rect x="24" y="0" width="6" height="20" rx="1" fill="#10B981"/>
          <rect x="32" y="0" width="6" height="20" rx="1" fill="#10B981"/>
          <rect x="40" y="0" width="6" height="20" rx="1" fill="#10B981"/>
          <rect x="48" y="0" width="6" height="20" rx="1" fill="#F59E0B"/>
        </g>
      </g>
      <line x1="20" y1="170" x2="860" y2="170" stroke="#E5E7EB"/>
      
      <!-- Service 3: DNS - Operational -->
      <g transform="translate(20, 185)">
        <circle cx="10" cy="20" r="6" class="status-operational"/>
        <text x="30" y="25" class="text-body" font-weight="500">DNS</text>
        <g transform="translate(400, 10)">
          <rect x="0" y="0" width="85" height="22" rx="11" class="badge-operational"/>
          <text x="42" y="15" text-anchor="middle" class="badge-operational-text">Opérationnel</text>
        </g>
        <text x="600" y="25" class="text-body">100.00%</text>
        <g transform="translate(680, 10)">
          <rect x="0" y="0" width="6" height="20" rx="1" fill="#10B981"/>
          <rect x="8" y="0" width="6" height="20" rx="1" fill="#10B981"/>
          <rect x="16" y="0" width="6" height="20" rx="1" fill="#10B981"/>
          <rect x="24" y="0" width="6" height="20" rx="1" fill="#10B981"/>
          <rect x="32" y="0" width="6" height="20" rx="1" fill="#10B981"/>
          <rect x="40" y="0" width="6" height="20" rx="1" fill="#10B981"/>
          <rect x="48" y="0" width="6" height="20" rx="1" fill="#10B981"/>
        </g>
      </g>
      <line x1="20" y1="220" x2="860" y2="220" stroke="#E5E7EB"/>
      
      <!-- Service 4: VPS - Operational -->
      <g transform="translate(20, 235)">
        <circle cx="10" cy="20" r="6" class="status-operational"/>
        <text x="30" y="25" class="text-body" font-weight="500">VPS</text>
        <g transform="translate(400, 10)">
          <rect x="0" y="0" width="85" height="22" rx="11" class="badge-operational"/>
          <text x="42" y="15" text-anchor="middle" class="badge-operational-text">Opérationnel</text>
        </g>
        <text x="600" y="25" class="text-body">99.99%</text>
        <g transform="translate(680, 10)">
          <rect x="0" y="0" width="6" height="20" rx="1" fill="#10B981"/>
          <rect x="8" y="0" width="6" height="20" rx="1" fill="#10B981"/>
          <rect x="16" y="0" width="6" height="20" rx="1" fill="#10B981"/>
          <rect x="24" y="0" width="6" height="20" rx="1" fill="#10B981"/>
          <rect x="32" y="0" width="6" height="20" rx="1" fill="#10B981"/>
          <rect x="40" y="0" width="6" height="20" rx="1" fill="#10B981"/>
          <rect x="48" y="0" width="6" height="20" rx="1" fill="#10B981"/>
        </g>
      </g>
      <line x1="20" y1="270" x2="860" y2="270" stroke="#E5E7EB"/>
      
      <!-- Service 5: API - Operational -->
      <g transform="translate(20, 285)">
        <circle cx="10" cy="20" r="6" class="status-operational"/>
        <text x="30" y="25" class="text-body" font-weight="500">API OVHcloud</text>
        <g transform="translate(400, 10)">
          <rect x="0" y="0" width="85" height="22" rx="11" class="badge-operational"/>
          <text x="42" y="15" text-anchor="middle" class="badge-operational-text">Opérationnel</text>
        </g>
        <text x="600" y="25" class="text-body">99.97%</text>
        <g transform="translate(680, 10)">
          <rect x="0" y="0" width="6" height="20" rx="1" fill="#10B981"/>
          <rect x="8" y="0" width="6" height="20" rx="1" fill="#10B981"/>
          <rect x="16" y="0" width="6" height="20" rx="1" fill="#10B981"/>
          <rect x="24" y="0" width="6" height="20" rx="1" fill="#10B981"/>
          <rect x="32" y="0" width="6" height="20" rx="1" fill="#10B981"/>
          <rect x="40" y="0" width="6" height="20" rx="1" fill="#10B981"/>
          <rect x="48" y="0" width="6" height="20" rx="1" fill="#10B981"/>
        </g>
      </g>
      <line x1="20" y1="320" x2="860" y2="320" stroke="#E5E7EB"/>
      
      <!-- Service 6: Control Panel - Operational -->
      <g transform="translate(20, 335)">
        <circle cx="10" cy="20" r="6" class="status-operational"/>
        <text x="30" y="25" class="text-body" font-weight="500">Espace client</text>
        <g transform="translate(400, 10)">
          <rect x="0" y="0" width="85" height="22" rx="11" class="badge-operational"/>
          <text x="42" y="15" text-anchor="middle" class="badge-operational-text">Opérationnel</text>
        </g>
        <text x="600" y="25" class="text-body">99.95%</text>
        <g transform="translate(680, 10)">
          <rect x="0" y="0" width="6" height="20" rx="1" fill="#10B981"/>
          <rect x="8" y="0" width="6" height="20" rx="1" fill="#10B981"/>
          <rect x="16" y="0" width="6" height="20" rx="1" fill="#10B981"/>
          <rect x="24" y="0" width="6" height="20" rx="1" fill="#10B981"/>
          <rect x="32" y="0" width="6" height="20" rx="1" fill="#10B981"/>
          <rect x="40" y="0" width="6" height="20" rx="1" fill="#10B981"/>
          <rect x="48" y="0" width="6" height="20" rx="1" fill="#10B981"/>
        </g>
      </g>
      
      <!-- Legend -->
      <g transform="translate(20, 385)">
        <circle cx="10" cy="10" r="5" class="status-operational"/>
        <text x="25" y="14" class="text-muted" font-size="12">Opérationnel</text>
        <circle cx="120" cy="10" r="5" class="status-degraded"/>
        <text x="135" y="14" class="text-muted" font-size="12">Dégradé</text>
        <circle cx="210" cy="10" r="5" class="status-incident"/>
        <text x="225" y="14" class="text-muted" font-size="12">Incident</text>
      </g>
    </g>
    
    <!-- Recent Incidents -->
    <g transform="translate(0, 640)">
      <text x="0" y="20" class="text-h3">Incidents récents</text>
      
      <g transform="translate(0, 40)">
        <rect x="0" y="0" width="880" height="100" rx="8" class="bg-white"/>
        <rect x="0" y="0" width="880" height="100" rx="8" class="border"/>
        
        <g transform="translate(20, 25)">
          <g transform="translate(0, 0)">
            <rect x="0" y="0" width="70" height="20" rx="10" class="badge-degraded"/>
            <text x="35" y="14" text-anchor="middle" class="badge-degraded-text">Résolu</text>
          </g>
          <text x="85" y="14" class="text-body" font-weight="600">Lenteurs sur le service E-mail</text>
          <text x="420" y="14" class="text-muted">26/12/2025 14:30 - 26/12/2025 16:45</text>
        </g>
        
        <g transform="translate(20, 60)">
          <g transform="translate(0, 0)">
            <rect x="0" y="0" width="70" height="20" rx="10" class="badge-operational"/>
            <text x="35" y="14" text-anchor="middle" class="badge-operational-text">Résolu</text>
          </g>
          <text x="85" y="14" class="text-body" font-weight="600">Maintenance planifiée DNS</text>
          <text x="420" y="14" class="text-muted">20/12/2025 02:00 - 20/12/2025 04:00</text>
        </g>
      </g>
    </g>
  </g>
</svg>
