<?xml version="1.0" encoding="UTF-8"?>
<svg width="1100" height="500" viewBox="0 0 1100 500" fill="none" xmlns="http://www.w3.org/2000/svg">
  <title>Network - Secondary DNS</title>
  <rect width="1100" height="500" fill="#F9FAFB"/>
  <g transform="translate(30, 30)"><text x="0" y="0" fill="#1F2937" font-family="system-ui, sans-serif" font-size="22" font-weight="600">DNS Secondaire</text><text x="0" y="30" fill="#6B7280" font-family="system-ui, sans-serif" font-size="13">Configuration des zones DNS secondaires.</text></g>
  <g transform="translate(30, 90)"><rect x="0" y="0" width="180" height="40" rx="4" fill="#0050D7"/><text x="25" y="26" fill="white" font-family="system-ui, sans-serif" font-size="13">+ Ajouter zone slave</text></g>
  <g transform="translate(30, 160)">
    <rect x="0" y="0" width="1040" height="300" rx="8" fill="white" stroke="#E5E7EB"/>
    <g transform="translate(0, 0)"><rect x="0" y="0" width="1040" height="45" rx="8" fill="#F9FAFB"/><text x="20" y="28" fill="#6B7280" font-family="system-ui, sans-serif" font-size="12" font-weight="500">Zone</text><text x="250" y="28" fill="#6B7280" font-family="system-ui, sans-serif" font-size="12" font-weight="500">Master IP</text><text x="420" y="28" fill="#6B7280" font-family="system-ui, sans-serif" font-size="12" font-weight="500">Dernière synchro</text><text x="590" y="28" fill="#6B7280" font-family="system-ui, sans-serif" font-size="12" font-weight="500">Serial</text><text x="720" y="28" fill="#6B7280" font-family="system-ui, sans-serif" font-size="12" font-weight="500">Records</text><text x="830" y="28" fill="#6B7280" font-family="system-ui, sans-serif" font-size="12" font-weight="500">État</text><text x="970" y="28" fill="#6B7280" font-family="system-ui, sans-serif" font-size="12" font-weight="500">Actions</text></g>
    <g transform="translate(0, 50)"><line x1="0" y1="0" x2="1040" y2="0" stroke="#E5E7EB"/><text x="20" y="35" fill="#1F2937" font-family="system-ui, sans-serif" font-size="13" font-weight="500">example.com</text><text x="250" y="35" fill="#1F2937" font-family="system-ui, sans-serif" font-size="13">203.0.113.10</text><text x="420" y="35" fill="#1F2937" font-family="system-ui, sans-serif" font-size="13">29/12/2024 15:30</text><text x="590" y="35" fill="#1F2937" font-family="monospace" font-size="12">2024122905</text><text x="720" y="35" fill="#1F2937" font-family="system-ui, sans-serif" font-size="13">45</text><g transform="translate(830, 18)"><circle cx="6" cy="6" r="6" fill="#16A34A"/><text x="18" y="10" fill="#16A34A" font-family="system-ui, sans-serif" font-size="11">Sync</text></g><g transform="translate(970, 12)"><rect x="0" y="0" width="30" height="30" rx="4" fill="#F9FAFB" stroke="#E5E7EB"/><text x="11" y="22" fill="#6B7280" font-family="system-ui, sans-serif" font-size="14">⋮</text></g></g>
    <g transform="translate(0, 110)"><line x1="0" y1="0" x2="1040" y2="0" stroke="#E5E7EB"/><text x="20" y="35" fill="#1F2937" font-family="system-ui, sans-serif" font-size="13" font-weight="500">internal.corp</text><text x="250" y="35" fill="#1F2937" font-family="system-ui, sans-serif" font-size="13">10.0.0.53</text><text x="420" y="35" fill="#1F2937" font-family="system-ui, sans-serif" font-size="13">29/12/2024 15:28</text><text x="590" y="35" fill="#1F2937" font-family="monospace" font-size="12">2024122912</text><text x="720" y="35" fill="#1F2937" font-family="system-ui, sans-serif" font-size="13">128</text><g transform="translate(830, 18)"><circle cx="6" cy="6" r="6" fill="#16A34A"/><text x="18" y="10" fill="#16A34A" font-family="system-ui, sans-serif" font-size="11">Sync</text></g><g transform="translate(970, 12)"><rect x="0" y="0" width="30" height="30" rx="4" fill="#F9FAFB" stroke="#E5E7EB"/><text x="11" y="22" fill="#6B7280" font-family="system-ui, sans-serif" font-size="14">⋮</text></g></g>
    <g transform="translate(0, 170)"><line x1="0" y1="0" x2="1040" y2="0" stroke="#E5E7EB"/><text x="20" y="35" fill="#1F2937" font-family="system-ui, sans-serif" font-size="13" font-weight="500">partner.net</text><text x="250" y="35" fill="#1F2937" font-family="system-ui, sans-serif" font-size="13">198.51.100.5</text><text x="420" y="35" fill="#F59E0B" font-family="system-ui, sans-serif" font-size="13">29/12/2024 10:15</text><text x="590" y="35" fill="#1F2937" font-family="monospace" font-size="12">2024122801</text><text x="720" y="35" fill="#1F2937" font-family="system-ui, sans-serif" font-size="13">23</text><g transform="translate(830, 18)"><circle cx="6" cy="6" r="6" fill="#F59E0B"/><text x="18" y="10" fill="#F59E0B" font-family="system-ui, sans-serif" font-size="11">Stale</text></g><g transform="translate(970, 12)"><rect x="0" y="0" width="30" height="30" rx="4" fill="#F9FAFB" stroke="#E5E7EB"/><text x="11" y="22" fill="#6B7280" font-family="system-ui, sans-serif" font-size="14">⋮</text></g></g>
    <g transform="translate(0, 230)"><line x1="0" y1="0" x2="1040" y2="0" stroke="#E5E7EB"/><text x="20" y="35" fill="#1F2937" font-family="system-ui, sans-serif" font-size="13" font-weight="500">legacy.org</text><text x="250" y="35" fill="#1F2937" font-family="system-ui, sans-serif" font-size="13">192.0.2.53</text><text x="420" y="35" fill="#DC2626" font-family="system-ui, sans-serif" font-size="13">Échec transfert</text><text x="590" y="35" fill="#6B7280" font-family="monospace" font-size="12">-</text><text x="720" y="35" fill="#6B7280" font-family="system-ui, sans-serif" font-size="13">-</text><g transform="translate(830, 18)"><circle cx="6" cy="6" r="6" fill="#DC2626"/><text x="18" y="10" fill="#DC2626" font-family="system-ui, sans-serif" font-size="11">Erreur</text></g><g transform="translate(970, 12)"><rect x="0" y="0" width="30" height="30" rx="4" fill="#F9FAFB" stroke="#E5E7EB"/><text x="11" y="22" fill="#6B7280" font-family="system-ui, sans-serif" font-size="14">⋮</text></g></g>
  </g>
</svg>
