<?xml version="1.0" encoding="UTF-8"?>
<svg width="650" height="620" viewBox="0 0 650 620" fill="none" xmlns="http://www.w3.org/2000/svg">
  <title>Licence - Order Windows Licence Modal</title>
  <rect width="650" height="620" fill="black" fill-opacity="0.5"/>
  <rect x="50" y="15" width="550" height="590" rx="8" fill="white"/>
  <g transform="translate(50, 15)"><rect x="0" y="0" width="550" height="55" rx="8" fill="#F9FAFB"/><text x="25" y="35" fill="#1F2937" font-family="system-ui, sans-serif" font-size="16" font-weight="600">Commander une licence Windows</text><text x="520" y="35" fill="#6B7280" font-family="system-ui, sans-serif" font-size="18" cursor="pointer">×</text></g>
  <g transform="translate(75, 90)">
    <text x="0" y="0" fill="#1F2937" font-family="system-ui, sans-serif" font-size="13" font-weight="500">Version Windows *</text>
    <g transform="translate(0, 20)">
      <rect x="0" y="0" width="500" height="55" rx="4" fill="#EFF6FF" stroke="#0050D7" stroke-width="2"/>
      <circle cx="30" cy="27" r="10" fill="#0050D7"/>
      <circle cx="30" cy="27" r="4" fill="white"/>
      <text x="55" y="25" fill="#1F2937" font-family="system-ui, sans-serif" font-size="13" font-weight="500">Windows Server 2022</text>
      <text x="55" y="45" fill="#6B7280" font-family="system-ui, sans-serif" font-size="11">Dernière version LTS</text>
    </g>
    <g transform="translate(0, 85)">
      <rect x="0" y="0" width="500" height="55" rx="4" fill="white" stroke="#E5E7EB"/>
      <circle cx="30" cy="27" r="10" fill="white" stroke="#E5E7EB" stroke-width="2"/>
      <text x="55" y="25" fill="#1F2937" font-family="system-ui, sans-serif" font-size="13" font-weight="500">Windows Server 2019</text>
      <text x="55" y="45" fill="#6B7280" font-family="system-ui, sans-serif" font-size="11">Version stable précédente</text>
    </g>
  </g>
  <g transform="translate(75, 265)">
    <text x="0" y="0" fill="#1F2937" font-family="system-ui, sans-serif" font-size="13" font-weight="500">Édition *</text>
    <g transform="translate(0, 20)">
      <rect x="0" y="0" width="240" height="70" rx="4" fill="#EFF6FF" stroke="#0050D7" stroke-width="2"/>
      <circle cx="25" cy="35" r="10" fill="#0050D7"/>
      <circle cx="25" cy="35" r="4" fill="white"/>
      <text x="45" y="30" fill="#1F2937" font-family="system-ui, sans-serif" font-size="13" font-weight="500">Standard</text>
      <text x="45" y="50" fill="#6B7280" font-family="system-ui, sans-serif" font-size="11">16 cores</text>
      <text x="180" y="40" fill="#1F2937" font-family="system-ui, sans-serif" font-size="12" font-weight="600">€ 25/mois</text>
    </g>
    <g transform="translate(260, 20)">
      <rect x="0" y="0" width="240" height="70" rx="4" fill="white" stroke="#E5E7EB"/>
      <circle cx="25" cy="35" r="10" fill="white" stroke="#E5E7EB" stroke-width="2"/>
      <text x="45" y="30" fill="#1F2937" font-family="system-ui, sans-serif" font-size="13" font-weight="500">Datacenter</text>
      <text x="45" y="50" fill="#6B7280" font-family="system-ui, sans-serif" font-size="11">Cores illimités</text>
      <text x="180" y="40" fill="#1F2937" font-family="system-ui, sans-serif" font-size="12" font-weight="600">€ 85/mois</text>
    </g>
  </g>
  <g transform="translate(75, 380)">
    <text x="0" y="0" fill="#1F2937" font-family="system-ui, sans-serif" font-size="13" font-weight="500">Serveur associé *</text>
    <rect x="0" y="15" width="500" height="40" rx="4" fill="white" stroke="#E5E7EB"/>
    <text x="15" y="42" fill="#6B7280" font-family="system-ui, sans-serif" font-size="13">Sélectionner un serveur...</text>
    <text x="470" y="42" fill="#6B7280" font-family="system-ui, sans-serif" font-size="12">▼</text>
  </g>
  <g transform="translate(75, 460)">
    <rect x="0" y="0" width="500" height="80" rx="4" fill="#F9FAFB"/>
    <g transform="translate(15, 15)">
      <text x="0" y="0" fill="#6B7280" font-family="system-ui, sans-serif" font-size="11">Total mensuel</text>
      <text x="0" y="25" fill="#1F2937" font-family="system-ui, sans-serif" font-size="20" font-weight="600">€ 25.00 HT</text>
      <text x="0" y="50" fill="#6B7280" font-family="system-ui, sans-serif" font-size="10">Windows Server 2022 Standard (16 cores)</text>
    </g>
  </g>
  <g transform="translate(75, 560)"><rect x="0" y="0" width="100" height="36" rx="4" fill="white" stroke="#E5E7EB"/><text x="25" y="24" fill="#6B7280" font-family="system-ui, sans-serif" font-size="13">Annuler</text><rect x="400" y="0" width="100" height="36" rx="4" fill="#0050D7"/><text x="420" y="24" fill="white" font-family="system-ui, sans-serif" font-size="13">Commander</text></g>
</svg>
