<svg xmlns="http://www.w3.org/2000/svg" viewBox="0 0 1440 900" width="1440" height="900">
  <defs><style>.bg-muted{fill:#F9FAFB}.bg-white{fill:#FFF}.bg-header{fill:#000E9C}.text-body{font-family:'Source Sans Pro',sans-serif;font-size:14px;fill:#1F2937}.text-muted{font-family:'Source Sans Pro',sans-serif;font-size:14px;fill:#6B7280}.text-title{font-family:'Source Sans Pro',sans-serif;font-size:28px;fill:#1F2937;font-weight:600}.text-white{font-family:'Source Sans Pro',sans-serif;fill:#FFF}.text-h2{font-family:'Source Sans Pro',sans-serif;font-size:18px;fill:#1F2937;font-weight:600}.text-h3{font-family:'Source Sans Pro',sans-serif;font-size:16px;fill:#1F2937;font-weight:600}.text-link{font-family:'Source Sans Pro',sans-serif;font-size:14px;fill:#0050D7}.sidebar-item{font-family:'Source Sans Pro',sans-serif;font-size:14px;fill:#374151}.sidebar-item-active{font-family:'Source Sans Pro',sans-serif;font-size:14px;fill:#0050D7;font-weight:600}.tab-active{fill:#0050D7}.tab-inactive{fill:#6B7280}</style></defs>
  <rect width="1440" height="900" class="bg-muted"/>
  <g id="header"><rect width="1440" height="60" class="bg-header"/><text x="20" y="38" class="text-white" font-size="20" font-weight="bold">OVHcloud</text><text x="140" y="38" class="text-white" font-size="14">Manager</text><circle cx="1380" cy="30" r="16" fill="#374151"/></g>
  <g id="sidebar" transform="translate(0,60)"><rect width="240" height="840" class="bg-white"/><line x1="240" y1="0" x2="240" y2="840" stroke="#E5E7EB"/><text x="20" y="34" class="sidebar-item">Accueil</text><rect x="0" y="48" width="240" height="40" fill="#E8F0FE"/><text x="20" y="74" class="sidebar-item-active">Mon compte</text></g>
  <g id="content" transform="translate(240,60)"><rect width="1200" height="840" class="bg-muted"/><g transform="translate(40,30)"><text x="0" y="30" class="text-title">Mon compte</text></g>
  <g transform="translate(40,80)"><rect width="1120" height="45" fill="#FFF" stroke="#E5E7EB"/><text x="20" y="28" class="tab-inactive" font-size="14">Informations generales</text><text x="170" y="28" class="tab-inactive" font-size="14">Editer</text><text x="240" y="28" class="tab-inactive" font-size="14">Securite</text><rect x="310" y="43" width="140" height="2" fill="#0050D7"/><text x="320" y="28" class="tab-active" font-size="14" font-weight="600">Donnees personnelles</text></g>
  <g transform="translate(40,150)">
    <text x="0" y="25" class="text-h2">Vos droits RGPD</text>
    <text x="0" y="50" class="text-muted">Exercez vos droits concernant vos donnees personnelles conformement au RGPD.</text>
    <g transform="translate(0,80)">
      <rect x="0" y="0" width="270" height="140" rx="8" class="bg-white" stroke="#E5E7EB"/>
      <text x="20" y="35" class="text-h3">Droit d acces</text>
      <text x="20" y="60" class="text-muted" font-size="13">Obtenez une copie de vos</text>
      <text x="20" y="78" class="text-muted" font-size="13">donnees personnelles.</text>
      <rect x="20" y="100" width="120" height="28" rx="4" fill="#0050D7"/><text x="40" y="119" fill="#FFF" font-size="12">Faire une demande</text>
      
      <rect x="285" y="0" width="270" height="140" rx="8" class="bg-white" stroke="#E5E7EB"/>
      <text x="305" y="35" class="text-h3">Droit de rectification</text>
      <text x="305" y="60" class="text-muted" font-size="13">Corrigez vos informations</text>
      <text x="305" y="78" class="text-muted" font-size="13">personnelles inexactes.</text>
      <rect x="305" y="100" width="120" height="28" rx="4" fill="#0050D7"/><text x="330" y="119" fill="#FFF" font-size="12">Editer mon profil</text>
      
      <rect x="570" y="0" width="270" height="140" rx="8" class="bg-white" stroke="#E5E7EB"/>
      <text x="590" y="35" class="text-h3">Droit a l effacement</text>
      <text x="590" y="60" class="text-muted" font-size="13">Demandez la suppression</text>
      <text x="590" y="78" class="text-muted" font-size="13">de votre compte.</text>
      <rect x="590" y="100" width="120" height="28" rx="4" fill="#EF4444"/><text x="600" y="119" fill="#FFF" font-size="12">Demander effacement</text>
      
      <rect x="855" y="0" width="265" height="140" rx="8" class="bg-white" stroke="#E5E7EB"/>
      <text x="875" y="35" class="text-h3">Droit a la portabilite</text>
      <text x="875" y="60" class="text-muted" font-size="13">Exportez vos donnees dans</text>
      <text x="875" y="78" class="text-muted" font-size="13">un format lisible.</text>
      <rect x="875" y="100" width="120" height="28" rx="4" fill="#0050D7"/><text x="895" y="119" fill="#FFF" font-size="12">Exporter mes donnees</text>
    </g>
    <g transform="translate(0,250)">
      <text x="0" y="25" class="text-h2">Demandes d effacement</text>
      <g transform="translate(0,45)">
        <rect width="1120" height="200" rx="8" class="bg-white" stroke="#E5E7EB"/>
        <text x="20" y="35" class="text-h3">Demandes en cours</text>
        <rect x="0" y="55" width="1120" height="35" fill="#F3F4F6"/>
        <text x="20" y="78" class="text-body" font-weight="500">Date</text>
        <text x="200" y="78" class="text-body" font-weight="500">Type</text>
        <text x="400" y="78" class="text-body" font-weight="500">Statut</text>
        <text x="600" y="78" class="text-body" font-weight="500">Actions</text>
        <line x1="0" y1="90" x2="1120" y2="90" stroke="#E5E7EB"/>
        <text x="20" y="120" class="text-body">15 dec. 2024</text>
        <text x="200" y="120" class="text-body">Effacement compte</text>
        <rect x="400" y="105" width="80" height="22" rx="11" fill="#FEF3C7"/><text x="415" y="121" fill="#92400E" font-size="12">En attente</text>
        <text x="600" y="120" class="text-link">Valider avec token</text>
        <text x="750" y="120" fill="#EF4444">Annuler</text>
      </g>
    </g>
    <g transform="translate(0,520)">
      <rect width="1120" height="180" rx="8" class="bg-white" stroke="#E5E7EB"/>
      <text x="20" y="35" class="text-h3">Historique des demandes</text>
      <rect x="0" y="55" width="1120" height="35" fill="#F3F4F6"/>
      <text x="20" y="78" class="text-body" font-weight="500">Date</text>
      <text x="200" y="78" class="text-body" font-weight="500">Type</text>
      <text x="400" y="78" class="text-body" font-weight="500">Statut</text>
      <line x1="0" y1="90" x2="1120" y2="90" stroke="#E5E7EB"/>
      <text x="20" y="120" class="text-body">10 nov. 2024</text>
      <text x="200" y="120" class="text-body">Export donnees</text>
      <rect x="400" y="105" width="70" height="22" rx="11" fill="#DEF7EC"/><text x="415" y="121" fill="#03543F" font-size="12">Termine</text>
      <line x1="0" y1="140" x2="1120" y2="140" stroke="#E5E7EB"/>
      <text x="20" y="165" class="text-body">05 oct. 2024</text>
      <text x="200" y="165" class="text-body">Acces donnees</text>
      <rect x="400" y="150" width="70" height="22" rx="11" fill="#DEF7EC"/><text x="415" y="166" fill="#03543F" font-size="12">Termine</text>
    </g>
  </g></g>
</svg>
