<svg xmlns="http://www.w3.org/2000/svg" viewBox="0 0 1440 850" width="1440" height="850">
  <defs><style>.bg-muted{fill:#F9FAFB}.bg-white{fill:#FFF}.bg-header{fill:#000E9C}.text-body{font-family:'Source Sans Pro',sans-serif;font-size:14px;fill:#1F2937}.text-muted{font-family:'Source Sans Pro',sans-serif;font-size:14px;fill:#6B7280}.text-title{font-family:'Source Sans Pro',sans-serif;font-size:28px;fill:#1F2937;font-weight:600}.text-white{font-family:'Source Sans Pro',sans-serif;fill:#FFF}.text-h2{font-family:'Source Sans Pro',sans-serif;font-size:18px;fill:#1F2937;font-weight:600}.text-link{font-family:'Source Sans Pro',sans-serif;font-size:14px;fill:#0050D7}.sidebar-item{font-family:'Source Sans Pro',sans-serif;font-size:14px;fill:#374151}.sidebar-item-active{font-family:'Source Sans Pro',sans-serif;font-size:14px;fill:#0050D7;font-weight:600}.tab-active{fill:#0050D7}.tab-inactive{fill:#6B7280}</style></defs>
  <rect width="1440" height="850" class="bg-muted"/>
  <g id="header"><rect width="1440" height="60" class="bg-header"/><text x="20" y="38" class="text-white" font-size="20" font-weight="bold">OVHcloud</text><text x="140" y="38" class="text-white" font-size="14">Manager</text><circle cx="1380" cy="30" r="16" fill="#374151"/></g>
  <g id="sidebar" transform="translate(0,60)"><rect width="240" height="790" class="bg-white"/><line x1="240" y1="0" x2="240" y2="790" stroke="#E5E7EB"/><text x="20" y="34" class="sidebar-item">Accueil</text><rect x="0" y="48" width="240" height="40" fill="#E8F0FE"/><text x="20" y="74" class="sidebar-item-active">Mon compte</text></g>
  <g id="content" transform="translate(240,60)"><rect width="1200" height="790" class="bg-muted"/><g transform="translate(40,30)"><text x="0" y="30" class="text-title">Mon compte</text></g>
  <g transform="translate(40,80)"><rect width="1120" height="45" fill="#FFF" stroke="#E5E7EB"/><text x="20" y="28" class="tab-inactive" font-size="14">Informations</text><text x="120" y="28" class="tab-inactive" font-size="14">Editer</text><text x="180" y="28" class="tab-inactive" font-size="14">Securite</text><text x="260" y="28" class="tab-inactive" font-size="14">RGPD</text><text x="320" y="28" class="tab-inactive" font-size="14">Avances</text><text x="410" y="28" class="tab-inactive" font-size="14">Mes services</text><rect x="540" y="43" width="110" height="2" fill="#0050D7"/><text x="550" y="28" class="tab-active" font-size="14" font-weight="600">Mes demandes</text></g>
  <g transform="translate(40,150)">
    <text x="0" y="25" class="text-h2">Demandes de changement de contact</text>
    <text x="0" y="50" class="text-muted">Validez ou refusez les demandes de changement de contact pour vos services.</text>
    <g transform="translate(0,70)">
      <rect x="0" y="0" width="120" height="32" rx="4" fill="#0050D7"/><text x="20" y="21" fill="#FFF" font-size="13">En attente (2)</text>
      <rect x="140" y="0" width="100" height="32" rx="4" fill="#FFF" stroke="#E5E7EB"/><text x="165" y="21" class="text-body" font-size="13">Toutes</text>
    </g>
    <g transform="translate(0,120)">
      <rect width="1120" height="400" rx="8" class="bg-white" stroke="#E5E7EB"/>
      <rect width="1120" height="45" fill="#F3F4F6"/>
      <text x="20" y="28" class="text-body" font-weight="500">Service</text>
      <text x="220" y="28" class="text-body" font-weight="500">Type contact</text>
      <text x="360" y="28" class="text-body" font-weight="500">De</text>
      <text x="500" y="28" class="text-body" font-weight="500">Vers</text>
      <text x="640" y="28" class="text-body" font-weight="500">Date</text>
      <text x="780" y="28" class="text-body" font-weight="500">Statut</text>
      <text x="920" y="28" class="text-body" font-weight="500">Actions</text>
      
      <line x1="0" y1="45" x2="1120" y2="45" stroke="#E5E7EB"/>
      <text x="20" y="80" class="text-link">ns123456.ovh.net</text>
      <text x="220" y="80" class="text-body">Technique</text>
      <text x="360" y="80" class="text-body">ab12345-ovh</text>
      <text x="500" y="80" class="text-body">xy99999-ovh</text>
      <text x="640" y="80" class="text-body">20 dec. 2024</text>
      <rect x="780" y="65" width="80" height="22" rx="11" fill="#FEF3C7"/><text x="795" y="81" fill="#92400E" font-size="12">En attente</text>
      <rect x="920" y="65" width="70" height="22" rx="4" fill="#DEF7EC"/><text x="932" y="81" fill="#03543F" font-size="12">Accepter</text>
      <rect x="1000" y="65" width="60" height="22" rx="4" fill="#FEE2E2"/><text x="1012" y="81" fill="#991B1B" font-size="12">Refuser</text>
      
      <line x1="0" y1="105" x2="1120" y2="105" stroke="#E5E7EB"/>
      <text x="20" y="140" class="text-link">example.com</text>
      <text x="220" y="140" class="text-body">Admin</text>
      <text x="360" y="140" class="text-body">ab12345-ovh</text>
      <text x="500" y="140" class="text-body">zz88888-ovh</text>
      <text x="640" y="140" class="text-body">18 dec. 2024</text>
      <rect x="780" y="125" width="80" height="22" rx="11" fill="#FEF3C7"/><text x="795" y="141" fill="#92400E" font-size="12">En attente</text>
      <rect x="920" y="125" width="70" height="22" rx="4" fill="#DEF7EC"/><text x="932" y="141" fill="#03543F" font-size="12">Accepter</text>
      <rect x="1000" y="125" width="60" height="22" rx="4" fill="#FEE2E2"/><text x="1012" y="141" fill="#991B1B" font-size="12">Refuser</text>
      
      <line x1="0" y1="165" x2="1120" y2="165" stroke="#E5E7EB"/>
      <text x="20" y="200" class="text-body">vps-abc123.vps.ovh.net</text>
      <text x="220" y="200" class="text-body">Billing</text>
      <text x="360" y="200" class="text-body">ab12345-ovh</text>
      <text x="500" y="200" class="text-body">cd67890-ovh</text>
      <text x="640" y="200" class="text-body">15 dec. 2024</text>
      <rect x="780" y="185" width="60" height="22" rx="11" fill="#DEF7EC"/><text x="792" y="201" fill="#03543F" font-size="12">Accepte</text>
    </g>
    <!-- Modal Validation Token OUVERT -->
    <g transform="translate(350,280)">
      <rect x="0" y="0" width="420" height="200" rx="8" fill="#FFF" stroke="#E5E7EB" filter="drop-shadow(0 10px 25px rgba(0,0,0,0.15))"/>
      <text x="20" y="35" class="text-h2">Valider le changement</text>
      <text x="380" y="35" fill="#9CA3AF" font-size="18">×</text>
      <line x1="0" y1="55" x2="420" y2="55" stroke="#E5E7EB"/>
      <text x="20" y="85" class="text-muted">Entrez le token de validation recu par email :</text>
      <rect x="20" y="100" width="380" height="40" rx="4" fill="#FFF" stroke="#E5E7EB"/>
      <text x="35" y="126" fill="#9CA3AF">Token de validation...</text>
      <g transform="translate(20,155)">
        <rect x="0" y="0" width="100" height="32" rx="4" fill="#0050D7"/><text x="25" y="21" fill="#FFF" font-size="13">Valider</text>
        <rect x="120" y="0" width="100" height="32" rx="4" fill="#FFF" stroke="#E5E7EB"/><text x="145" y="21" class="text-body" font-size="13">Annuler</text>
      </g>
    </g>
  </g></g>
</svg>
