<svg xmlns="http://www.w3.org/2000/svg" viewBox="0 0 700 500" width="700" height="500">
  <defs>
    <style>
      .bg-page { fill: #F9FAFB; }
      .bg-white { fill: #FFFFFF; }
      .bg-header { fill: #000E9C; }
      .text-white { fill: #FFFFFF; font-family: 'Source Sans Pro', sans-serif; }
      .text-body { fill: #1F2937; font-family: 'Source Sans Pro', sans-serif; font-size: 14px; }
      .text-muted { fill: #6B7280; font-family: 'Source Sans Pro', sans-serif; font-size: 13px; }
      .border { stroke: #E5E7EB; stroke-width: 1; fill: none; }
      .step-active { fill: #0050D7; }
      .input { fill: #FFFFFF; stroke: #D1D5DB; }
    </style>
  </defs>

  <!-- Background -->
  <rect width="700" height="500" class="bg-page"/>

  <!-- Header OVHcloud -->
  <rect width="700" height="56" class="bg-header"/>
  <text x="20" y="35" class="text-white" font-size="18" font-weight="bold">OVHcloud</text>

  <!-- Wizard container -->
  <g transform="translate(50, 80)">
    <rect width="600" height="390" rx="8" class="bg-white"/>
    <rect width="600" height="390" rx="8" class="border"/>

    <!-- Wizard header -->
    <g transform="translate(0, 0)">
      <rect width="600" height="50" rx="8 8 0 0" fill="#F9FAFB"/>
      <line x1="0" y1="50" x2="600" y2="50" class="border"/>
      <text x="25" y="32" class="text-body" font-size="16" font-weight="600">Modifier le backend</text>
    </g>

    <!-- Stepper -->
    <g transform="translate(175, 75)">
      <circle cx="0" cy="0" r="14" class="step-active"/>
      <text x="0" y="5" text-anchor="middle" class="text-white" font-size="11" font-weight="600">1</text>
      <text x="0" y="30" text-anchor="middle" class="text-body" font-size="10">Selection</text>

      <line x1="18" y1="0" x2="230" y2="0" stroke="#E5E7EB" stroke-width="2"/>

      <g transform="translate(250, 0)">
        <circle cx="0" cy="0" r="14" fill="white" stroke="#E5E7EB" stroke-width="2"/>
        <text x="0" y="5" text-anchor="middle" class="text-muted" font-size="11">2</text>
        <text x="0" y="30" text-anchor="middle" class="text-muted" font-size="10">Confirmation</text>
      </g>
    </g>

    <!-- Step 1 Content -->
    <g transform="translate(25, 130)">
      <text class="text-body" font-size="13">Modifier le backend pour cdn.example.com :</text>

      <!-- Current backend -->
      <g transform="translate(0, 30)">
        <text class="text-muted" font-size="12">Backend actuel :</text>
        <text x="110" class="text-body" font-size="13">192.168.1.100</text>
      </g>

      <!-- Existing backends -->
      <g transform="translate(0, 65)">
        <text class="text-muted" font-size="12">Backends existants</text>
        <rect y="18" width="350" height="36" rx="4" class="input"/>
        <text x="10" y="42" class="text-body" font-size="13">Selectionner un backend ▾</text>
      </g>

      <!-- New backend -->
      <g transform="translate(0, 135)">
        <text class="text-muted" font-size="12">Ou saisir un nouveau backend</text>
        <rect y="18" width="350" height="36" rx="4" class="input"/>
        <text x="10" y="42" class="text-muted" font-size="13">Adresse IP ou nom de domaine</text>
      </g>
    </g>

    <!-- Footer buttons -->
    <g transform="translate(25, 335)">
      <line x1="0" y1="0" x2="550" y2="0" class="border"/>

      <g transform="translate(0, 15)">
        <rect width="100" height="36" rx="4" class="bg-white"/>
        <rect width="100" height="36" rx="4" class="border"/>
        <text x="50" y="23" text-anchor="middle" class="text-body" font-size="13">Annuler</text>
      </g>

      <g transform="translate(450, 15)">
        <rect width="100" height="36" rx="4" fill="#0050D7"/>
        <text x="50" y="23" text-anchor="middle" class="text-white" font-size="13">Suivant →</text>
      </g>
    </g>
  </g>
</svg>
