<?xml version="1.0" encoding="UTF-8"?>
<svg width="600" height="520" viewBox="0 0 600 520" fill="none" xmlns="http://www.w3.org/2000/svg">
  <title>Network - Add CDN Origin Modal</title>
  <rect width="600" height="520" fill="black" fill-opacity="0.5"/>
  <rect x="50" y="30" width="500" height="460" rx="8" fill="white"/>
  <g transform="translate(50, 30)"><rect x="0" y="0" width="500" height="55" rx="8" fill="#F9FAFB"/><text x="25" y="35" fill="#1F2937" font-family="system-ui, sans-serif" font-size="16" font-weight="600">Ajouter une origine</text><text x="470" y="35" fill="#6B7280" font-family="system-ui, sans-serif" font-size="18" cursor="pointer">×</text></g>
  <g transform="translate(75, 105)">
    <text x="0" y="0" fill="#1F2937" font-family="system-ui, sans-serif" font-size="13" font-weight="500">Nom de l'origine</text>
    <g transform="translate(0, 15)"><rect x="0" y="0" width="450" height="40" rx="4" fill="white" stroke="#E5E7EB"/><text x="15" y="26" fill="#9CA3AF" font-family="system-ui, sans-serif" font-size="13">origin-backup</text></g>
  </g>
  <g transform="translate(75, 180)">
    <text x="0" y="0" fill="#1F2937" font-family="system-ui, sans-serif" font-size="13" font-weight="500">Type d'origine</text>
    <g transform="translate(0, 20)">
      <rect x="0" y="0" width="140" height="45" rx="4" fill="white" stroke="#0050D7" stroke-width="2"/>
      <text x="20" y="28" fill="#1F2937" font-family="system-ui, sans-serif" font-size="12" font-weight="500">Serveur IP</text>
    </g>
    <g transform="translate(155, 20)">
      <rect x="0" y="0" width="140" height="45" rx="4" fill="white" stroke="#E5E7EB"/>
      <text x="20" y="28" fill="#6B7280" font-family="system-ui, sans-serif" font-size="12" font-weight="500">Domaine</text>
    </g>
    <g transform="translate(310, 20)">
      <rect x="0" y="0" width="140" height="45" rx="4" fill="white" stroke="#E5E7EB"/>
      <text x="20" y="28" fill="#6B7280" font-family="system-ui, sans-serif" font-size="12" font-weight="500">S3 Storage</text>
    </g>
  </g>
  <g transform="translate(75, 270)">
    <text x="0" y="0" fill="#1F2937" font-family="system-ui, sans-serif" font-size="13" font-weight="500">Adresse IP ou hostname</text>
    <g transform="translate(0, 15)"><rect x="0" y="0" width="350" height="40" rx="4" fill="white" stroke="#E5E7EB"/><text x="15" y="26" fill="#9CA3AF" font-family="system-ui, sans-serif" font-size="13">141.94.100.20</text></g>
    <g transform="translate(365, 0)">
      <text x="0" y="0" fill="#1F2937" font-family="system-ui, sans-serif" font-size="13" font-weight="500">Port</text>
      <g transform="translate(0, 15)"><rect x="0" y="0" width="85" height="40" rx="4" fill="white" stroke="#E5E7EB"/><text x="15" y="26" fill="#1F2937" font-family="system-ui, sans-serif" font-size="13">443</text></g>
    </g>
  </g>
  <g transform="translate(75, 345)">
    <text x="0" y="0" fill="#1F2937" font-family="system-ui, sans-serif" font-size="13" font-weight="500">Protocole</text>
    <g transform="translate(0, 20)">
      <rect x="0" y="0" width="120" height="40" rx="4" fill="white" stroke="#0050D7" stroke-width="2"/>
      <text x="20" y="26" fill="#1F2937" font-family="system-ui, sans-serif" font-size="12" font-weight="500">HTTPS</text>
    </g>
    <g transform="translate(135, 20)">
      <rect x="0" y="0" width="120" height="40" rx="4" fill="white" stroke="#E5E7EB"/>
      <text x="20" y="26" fill="#6B7280" font-family="system-ui, sans-serif" font-size="12" font-weight="500">HTTP</text>
    </g>
  </g>
  <g transform="translate(75, 425)">
    <g transform="translate(0, 0)">
      <rect x="0" y="0" width="18" height="18" rx="3" fill="white" stroke="#E5E7EB"/>
      <text x="28" y="14" fill="#1F2937" font-family="system-ui, sans-serif" font-size="13">Utiliser comme backup (failover)</text>
    </g>
  </g>
  <g transform="translate(75, 460)"><rect x="0" y="0" width="100" height="36" rx="4" fill="white" stroke="#E5E7EB"/><text x="25" y="24" fill="#6B7280" font-family="system-ui, sans-serif" font-size="13">Annuler</text><rect x="350" y="0" width="100" height="36" rx="4" fill="#0050D7"/><text x="375" y="24" fill="white" font-family="system-ui, sans-serif" font-size="13">Ajouter</text></g>
</svg>
