<svg xmlns="http://www.w3.org/2000/svg" viewBox="0 0 1440 900" width="1440" height="900">
  <defs>
    <style>
      .bg-header { fill: #000E9C; }
      .bg-main { fill: #F6F6F9; }
      .bg-white { fill: #FFFFFF; }
      .bg-primary { fill: #0050D7; }
      .bg-info { fill: #DBEAFE; }
      .bg-success { fill: #DEF7EC; }
      .bg-warning { fill: #FEF3C7; }
      .bg-error { fill: #FEE2E2; }
      .border { stroke: #E5E7EB; stroke-width: 1; fill: none; }
      .btn-outline { stroke: #0050D7; stroke-width: 1; fill: #FFFFFF; }
      .btn-primary { fill: #0050D7; }
      .row-selected { fill: #E8F0FE; }
      .table-header { fill: #F9FAFB; }
      .text-white { fill: #FFFFFF; font-family: 'Source Sans Pro', sans-serif; }
      .text-dark { fill: #1F2937; font-family: 'Source Sans Pro', sans-serif; }
      .text-muted { fill: #6B7280; font-family: 'Source Sans Pro', sans-serif; }
      .text-primary { fill: #0050D7; font-family: 'Source Sans Pro', sans-serif; }
      .text-success { fill: #059669; font-family: 'Source Sans Pro', sans-serif; }
      .text-warning { fill: #D97706; font-family: 'Source Sans Pro', sans-serif; }
      .text-error { fill: #DC2626; font-family: 'Source Sans Pro', sans-serif; }
    </style>
  </defs>

  <rect width="1440" height="900" class="bg-main"/>

  <!-- NAV1 -->
  <rect width="1440" height="50" class="bg-header"/>
  <text x="40" y="32" class="text-white" font-size="14" opacity="0.7">Accueil</text>
  <text x="110" y="32" class="text-white" font-size="14" opacity="0.7">Public Cloud</text>
  <text x="210" y="32" class="text-white" font-size="14" opacity="0.7">Hosted Private Cloud</text>
  <text x="370" y="32" class="text-white" font-size="14" opacity="0.7">Bare Metal Cloud</text>
  <text x="510" y="32" class="text-white" font-size="14" font-weight="600">Web Cloud</text>
  <rect x="505" y="46" width="75" height="3" fill="#FFFFFF"/>
  <text x="620" y="32" class="text-white" font-size="14" opacity="0.7">Network</text>

  <!-- NAV2 -->
  <rect x="0" y="50" width="1440" height="40" class="bg-white"/>
  <line x1="0" y1="89" x2="1440" y2="89" stroke="#E5E7EB"/>
  <text x="40" y="75" class="text-muted" font-size="14">Accueil</text>
  <text x="110" y="75" class="text-muted" font-size="14">Domaines et DNS</text>
  <text x="240" y="75" class="text-muted" font-size="14">Hebergement</text>
  <text x="345" y="75" class="text-primary" font-size="14" font-weight="600">Wordpress</text>
  <rect x="340" y="85" width="70" height="3" fill="#0050D7"/>
  <text x="430" y="75" class="text-muted" font-size="14">Emails</text>
  <text x="500" y="75" class="text-muted" font-size="14">VoIP</text>
  <text x="550" y="75" class="text-muted" font-size="14">Acces</text>
  <text x="1350" y="75" class="text-primary" font-size="13">Guides</text>

  <!-- MAIN CONTENT -->
  <g transform="translate(0, 90)">
    <g transform="translate(24, 15)">
      <!-- LEFT PANEL -->
      <rect x="0" y="0" width="280" height="780" rx="8" class="bg-white"/>
      <rect x="0" y="0" width="280" height="780" rx="8" class="border"/>
      <text x="16" y="30" class="text-dark" font-size="15" font-weight="700">Sites WordPress</text>
      <g transform="translate(6, 90)">
        <rect x="0" y="0" width="268" height="88" rx="6" class="row-selected"/>
        <text x="12" y="22" font-size="16">W</text>
        <text x="36" y="22" class="text-dark" font-size="13" font-weight="600">mon-blog.fr</text>
        <text x="12" y="42" class="text-muted" font-size="11">WordPress 6.4.2</text>
        <circle cx="18" cy="58" r="5" fill="#10B981"/>
        <text x="28" y="62" class="text-dark" font-size="11">Actif</text>
        <text x="12" y="80" class="text-muted" font-size="10">Pro - rbx1</text>
      </g>

      <!-- RIGHT PANEL -->
      <rect x="296" y="0" width="1096" height="780" rx="8" class="bg-white"/>
      <rect x="296" y="0" width="1096" height="780" rx="8" class="border"/>

      <g transform="translate(316, 0)">
        <text x="0" y="28" class="text-dark" font-size="18" font-weight="600">mon-blog.fr</text>
        <text x="0" y="48" class="text-muted" font-size="12">WordPress 6.4.2 - PHP 8.2 - Pro</text>

        <!-- NAV3 TABS - Taches actif -->
        <g transform="translate(0, 62)">
          <rect x="0" y="0" width="65" height="26" rx="4" class="btn-outline"/>
          <text x="32" y="17" class="text-primary" font-size="11" text-anchor="middle">General</text>
          <rect x="69" y="0" width="70" height="26" rx="4" class="btn-outline"/>
          <text x="104" y="17" class="text-primary" font-size="11" text-anchor="middle">Domaines</text>
          <rect x="143" y="0" width="95" height="26" rx="4" class="btn-outline"/>
          <text x="190" y="17" class="text-primary" font-size="11" text-anchor="middle">Performances</text>
          <rect x="242" y="0" width="80" height="26" rx="4" class="btn-outline"/>
          <text x="282" y="17" class="text-primary" font-size="11" text-anchor="middle">Extensions</text>
          <rect x="326" y="0" width="90" height="26" rx="4" class="btn-outline"/>
          <text x="371" y="17" class="text-primary" font-size="11" text-anchor="middle">Sauvegardes</text>
          <rect x="420" y="0" width="55" height="26" rx="4" class="bg-primary"/>
          <text x="447" y="17" class="text-white" font-size="11" text-anchor="middle">Taches</text>
        </g>

        <!-- CONTENT -->
        <g transform="translate(0, 105)">
          <text x="0" y="20" class="text-dark" font-size="15" font-weight="600">Taches</text>
          <rect x="980" y="0" width="76" height="32" rx="4" class="btn-outline"/>
          <text x="1018" y="21" class="text-primary" font-size="11" text-anchor="middle">Rafraichir</text>

          <!-- Table -->
          <g transform="translate(0, 50)">
            <!-- Header -->
            <rect x="0" y="0" width="1056" height="36" class="table-header"/>
            <line x1="0" y1="36" x2="1056" y2="36" stroke="#E5E7EB"/>
            <text x="20" y="23" class="text-muted" font-size="11" font-weight="600">DATE</text>
            <text x="200" y="23" class="text-muted" font-size="11" font-weight="600">TYPE</text>
            <text x="450" y="23" class="text-muted" font-size="11" font-weight="600">DESCRIPTION</text>
            <text x="800" y="23" class="text-muted" font-size="11" font-weight="600">STATUT</text>

            <!-- Row 1 - In progress -->
            <rect x="0" y="36" width="1056" height="45" fill="#FEF3C7"/>
            <line x1="0" y1="81" x2="1056" y2="81" stroke="#E5E7EB"/>
            <text x="20" y="63" class="text-dark" font-size="12">29/12/2025 14:32</text>
            <rect x="200" y="49" width="100" height="20" rx="10" fill="#DBEAFE"/>
            <text x="250" y="63" class="text-info" font-size="10" text-anchor="middle">Sauvegarde</text>
            <text x="450" y="63" class="text-dark" font-size="12">Creation sauvegarde manuelle</text>
            <rect x="800" y="49" width="80" height="20" rx="10" fill="#FEF3C7"/>
            <text x="840" y="63" class="text-warning" font-size="10" text-anchor="middle">En cours</text>

            <!-- Row 2 - Success -->
            <rect x="0" y="81" width="1056" height="45" fill="#FFFFFF"/>
            <line x1="0" y1="126" x2="1056" y2="126" stroke="#E5E7EB"/>
            <text x="20" y="108" class="text-dark" font-size="12">29/12/2025 10:15</text>
            <rect x="200" y="94" width="100" height="20" rx="10" fill="#DEF7EC"/>
            <text x="250" y="108" class="text-success" font-size="10" text-anchor="middle">Mise a jour</text>
            <text x="450" y="108" class="text-dark" font-size="12">Mise a jour plugin Yoast SEO vers 21.7</text>
            <rect x="800" y="94" width="80" height="20" rx="10" fill="#DEF7EC"/>
            <text x="840" y="108" class="text-success" font-size="10" text-anchor="middle">Termine</text>

            <!-- Row 3 - Success -->
            <rect x="0" y="126" width="1056" height="45" fill="#F9FAFB"/>
            <line x1="0" y1="171" x2="1056" y2="171" stroke="#E5E7EB"/>
            <text x="20" y="153" class="text-dark" font-size="12">28/12/2025 03:00</text>
            <rect x="200" y="139" width="100" height="20" rx="10" fill="#DBEAFE"/>
            <text x="250" y="153" class="text-info" font-size="10" text-anchor="middle">Sauvegarde</text>
            <text x="450" y="153" class="text-dark" font-size="12">Sauvegarde automatique quotidienne</text>
            <rect x="800" y="139" width="80" height="20" rx="10" fill="#DEF7EC"/>
            <text x="840" y="153" class="text-success" font-size="10" text-anchor="middle">Termine</text>

            <!-- Row 4 - Error -->
            <rect x="0" y="171" width="1056" height="45" fill="#FFFFFF"/>
            <line x1="0" y1="216" x2="1056" y2="216" stroke="#E5E7EB"/>
            <text x="20" y="198" class="text-dark" font-size="12">27/12/2025 18:45</text>
            <rect x="200" y="184" width="100" height="20" rx="10" fill="#FEE2E2"/>
            <text x="250" y="198" class="text-error" font-size="10" text-anchor="middle">Cache</text>
            <text x="450" y="198" class="text-dark" font-size="12">Purge cache CDN - Timeout</text>
            <rect x="800" y="184" width="80" height="20" rx="10" fill="#FEE2E2"/>
            <text x="840" y="198" class="text-error" font-size="10" text-anchor="middle">Echec</text>

            <!-- Row 5 -->
            <rect x="0" y="216" width="1056" height="45" fill="#F9FAFB"/>
            <line x1="0" y1="261" x2="1056" y2="261" stroke="#E5E7EB"/>
            <text x="20" y="243" class="text-dark" font-size="12">27/12/2025 15:42</text>
            <rect x="200" y="229" width="100" height="20" rx="10" fill="#DBEAFE"/>
            <text x="250" y="243" class="text-info" font-size="10" text-anchor="middle">Sauvegarde</text>
            <text x="450" y="243" class="text-dark" font-size="12">Creation sauvegarde manuelle avant MAJ</text>
            <rect x="800" y="229" width="80" height="20" rx="10" fill="#DEF7EC"/>
            <text x="840" y="243" class="text-success" font-size="10" text-anchor="middle">Termine</text>

            <!-- Row 6 -->
            <rect x="0" y="261" width="1056" height="45" fill="#FFFFFF"/>
            <line x1="0" y1="306" x2="1056" y2="306" stroke="#E5E7EB"/>
            <text x="20" y="288" class="text-dark" font-size="12">25/12/2025 14:20</text>
            <rect x="200" y="274" width="100" height="20" rx="10" fill="#DEF7EC"/>
            <text x="250" y="288" class="text-success" font-size="10" text-anchor="middle">Installation</text>
            <text x="450" y="288" class="text-dark" font-size="12">Installation initiale WordPress 6.4.2</text>
            <rect x="800" y="274" width="80" height="20" rx="10" fill="#DEF7EC"/>
            <text x="840" y="288" class="text-success" font-size="10" text-anchor="middle">Termine</text>
          </g>
        </g>
      </g>
    </g>
  </g>
</svg>
