<svg xmlns="http://www.w3.org/2000/svg" viewBox="0 0 1440 900" width="1440" height="900">
  <defs>
    <style>
      .bg-header { fill: #000E9C; }
      .bg-main { fill: #F6F6F9; }
      .bg-white { fill: #FFFFFF; }
      .bg-primary { fill: #0050D7; }
      .bg-success { fill: #DEF7EC; }
      .bg-info { fill: #DBEAFE; }
      .border { stroke: #E5E7EB; stroke-width: 1; fill: none; }
      .btn-outline { stroke: #0050D7; stroke-width: 1; fill: #FFFFFF; }
      .btn-primary { fill: #0050D7; }
      .text-white { fill: #FFFFFF; font-family: 'Source Sans Pro', sans-serif; }
      .text-dark { fill: #1F2937; font-family: 'Source Sans Pro', sans-serif; }
      .text-muted { fill: #6B7280; font-family: 'Source Sans Pro', sans-serif; }
      .text-primary { fill: #0050D7; font-family: 'Source Sans Pro', sans-serif; }
      .text-success { fill: #059669; font-family: 'Source Sans Pro', sans-serif; }
    </style>
  </defs>

  <!-- Background -->
  <rect width="1440" height="900" class="bg-main"/>

  <!-- NAV1 -->
  <rect width="1440" height="50" class="bg-header"/>
  <text x="40" y="32" class="text-white" font-size="14" opacity="0.7">Accueil</text>
  <text x="110" y="32" class="text-white" font-size="14" opacity="0.7">Public Cloud</text>
  <text x="210" y="32" class="text-white" font-size="14" opacity="0.7">Hosted Private Cloud</text>
  <text x="370" y="32" class="text-white" font-size="14" opacity="0.7">Bare Metal Cloud</text>
  <text x="510" y="32" class="text-white" font-size="14" font-weight="600">Web Cloud</text>
  <rect x="505" y="46" width="75" height="3" fill="#FFFFFF"/>
  <text x="620" y="32" class="text-white" font-size="14" opacity="0.7">Network</text>
  <text x="700" y="32" class="text-white" font-size="14" opacity="0.7">IAM / Securite</text>
  <text x="810" y="32" class="text-white" font-size="14" opacity="0.7">Licences</text>
  <rect x="1280" y="12" width="140" height="26" rx="13" fill="rgba(255,255,255,0.2)"/>
  <text x="1320" y="29" class="text-white" font-size="12">{nicHandle}</text>

  <!-- NAV2 -->
  <rect x="0" y="50" width="1440" height="40" fill="#FFFFFF"/>
  <line x1="0" y1="89" x2="1440" y2="89" stroke="#E5E7EB"/>
  <text x="40" y="75" class="text-muted" font-size="14">Accueil</text>
  <text x="110" y="75" class="text-muted" font-size="14">Domaines et DNS</text>
  <text x="240" y="75" class="text-muted" font-size="14">Hébergement</text>
  <text x="345" y="75" class="text-muted" font-size="14">Wordpress</text>
  <text x="430" y="75" class="text-muted" font-size="14">Emails</text>
  <text x="500" y="75" class="text-primary" font-size="14" font-weight="600">VoIP</text>
  <rect x="495" y="85" width="35" height="3" fill="#0050D7"/>
  <text x="550" y="75" class="text-muted" font-size="14">Accès</text>
  <text x="1350" y="75" class="text-primary" font-size="13">Guides</text>

  <!-- CONTENT AREA -->
  <g transform="translate(0, 105)">
    <g transform="translate(24, 0)">
      <!-- LEFT PANEL -->
      <rect x="0" y="0" width="280" height="765" rx="8" class="bg-white"/>
      <rect x="0" y="0" width="280" height="765" rx="8" class="border"/>

      <!-- NAV3 - Type selector -->
      <rect x="0" y="0" width="280" height="44" rx="8" fill="#F9FAFB"/>
      <rect x="12" y="10" width="60" height="24" rx="4" fill="#0050D7"/>
      <text x="42" y="26" class="text-white" font-size="11" text-anchor="middle">SIP</text>
      <rect x="76" y="10" width="60" height="24" rx="4" fill="#FFFFFF" stroke="#E5E7EB"/>
      <text x="106" y="26" class="text-muted" font-size="11" text-anchor="middle">SMS</text>
      <rect x="140" y="10" width="60" height="24" rx="4" fill="#FFFFFF" stroke="#E5E7EB"/>
      <text x="170" y="26" class="text-muted" font-size="11" text-anchor="middle">FAX</text>
      <rect x="204" y="10" width="64" height="24" rx="4" fill="#FFFFFF" stroke="#E5E7EB"/>
      <text x="236" y="26" class="text-muted" font-size="11" text-anchor="middle">Trunk</text>
      <line x1="0" y1="44" x2="280" y2="44" stroke="#E5E7EB"/>

      <!-- Search -->
      <rect x="12" y="56" width="256" height="34" rx="4" fill="#F9FAFB" stroke="#E5E7EB"/>
      <text x="26" y="78" class="text-muted" font-size="12">Rechercher...</text>

      <g transform="translate(6, 104)">
        <rect x="0" y="0" width="268" height="65" rx="6" fill="#E8F0FE"/>
        <text x="12" y="22" class="text-dark" font-size="13" font-weight="500">🔢 0033800123456</text>
        <text x="12" y="40" class="text-muted" font-size="11">Numéro vert</text>
        <text x="12" y="56" class="text-muted" font-size="10">easyHunting</text>
      </g>
    </g>

    <g transform="translate(320, 0)">
      <!-- RIGHT PANEL -->
      <rect x="0" y="0" width="1096" height="765" rx="8" class="bg-white"/>
      <rect x="0" y="0" width="1096" height="765" rx="8" class="border"/>

      <g transform="translate(20, 0)">
        <!-- HEADER -->
        <text x="0" y="28" class="text-dark" font-size="18" font-weight="600">+33 800 123 456</text>
        <rect x="160" y="12" width="80" height="22" rx="11" fill="#DEF7EC"/>
        <text x="200" y="27" fill="#03543F" font-size="10" text-anchor="middle">easyHunting</text>
        <text x="260" y="28" class="text-muted" font-size="14">Numéro vert / Horaires</text>

        <!-- NAV4 TABS - Horaires actif -->
        <g transform="translate(0, 50)">
          <rect x="0" y="0" width="60" height="26" rx="4" fill="#FFFFFF" stroke="#0050D7"/>
          <text x="30" y="17" class="text-primary" font-size="12" text-anchor="middle">Général</text>

          <rect x="64" y="0" width="90" height="26" rx="4" fill="#FFFFFF" stroke="#0050D7"/>
          <text x="109" y="17" class="text-primary" font-size="12" text-anchor="middle">Configuration</text>

          <rect x="158" y="0" width="60" height="26" rx="4" fill="#FFFFFF" stroke="#0050D7"/>
          <text x="188" y="17" class="text-primary" font-size="12" text-anchor="middle">Agents</text>

          <rect x="222" y="0" width="75" height="26" rx="4" fill="#FFFFFF" stroke="#0050D7"/>
          <text x="259" y="17" class="text-primary" font-size="12" text-anchor="middle">Statistiques</text>

          <rect x="301" y="0" width="70" height="26" rx="4" fill="#0050D7"/>
          <text x="336" y="17" class="text-white" font-size="12" text-anchor="middle">Horaires</text>
        </g>

        <!-- CONTENU HORAIRES -->
        <g transform="translate(0, 95)">

          <!-- Bannière statut -->
          <rect x="0" y="0" width="1036" height="50" rx="6" class="bg-success"/>
          <text x="20" y="30" class="text-success" font-size="12">✓ Actuellement ouvert - Prochaine fermeture : 18:00</text>

          <!-- Grille horaires -->
          <rect x="0" y="70" width="1036" height="450" rx="6" fill="#FFFFFF" stroke="#E5E7EB"/>
          <text x="20" y="100" class="text-dark" font-size="14" font-weight="600">📅 Horaires d'ouverture</text>
          <line x1="20" y1="115" x2="1016" y2="115" stroke="#E5E7EB"/>

          <!-- Légende -->
          <rect x="800" y="85" width="12" height="12" rx="2" fill="#DEF7EC"/>
          <text x="820" y="95" class="text-muted" font-size="10">Ouvert</text>
          <rect x="880" y="85" width="12" height="12" rx="2" fill="#FEE2E2"/>
          <text x="900" y="95" class="text-muted" font-size="10">Fermé</text>
          <rect x="960" y="85" width="12" height="12" rx="2" fill="#FEF3C7"/>
          <text x="980" y="95" class="text-muted" font-size="10">Réduit</text>

          <!-- Jours de la semaine -->
          <g transform="translate(20, 130)">
            <!-- Lundi -->
            <text x="0" y="20" class="text-dark" font-size="12" font-weight="500">Lundi</text>
            <rect x="100" y="5" width="400" height="24" rx="4" fill="#DEF7EC"/>
            <text x="110" y="22" class="text-success" font-size="10">09:00 - 12:00</text>
            <rect x="510" y="5" width="40" height="24" rx="4" fill="#FEE2E2"/>
            <rect x="560" y="5" width="400" height="24" rx="4" fill="#DEF7EC"/>
            <text x="570" y="22" class="text-success" font-size="10">14:00 - 18:00</text>
            <text x="980" y="22" class="text-primary" font-size="10">✎</text>

            <!-- Mardi -->
            <text x="0" y="60" class="text-dark" font-size="12" font-weight="500">Mardi</text>
            <rect x="100" y="45" width="400" height="24" rx="4" fill="#DEF7EC"/>
            <text x="110" y="62" class="text-success" font-size="10">09:00 - 12:00</text>
            <rect x="510" y="45" width="40" height="24" rx="4" fill="#FEE2E2"/>
            <rect x="560" y="45" width="400" height="24" rx="4" fill="#DEF7EC"/>
            <text x="570" y="62" class="text-success" font-size="10">14:00 - 18:00</text>
            <text x="980" y="62" class="text-primary" font-size="10">✎</text>

            <!-- Mercredi -->
            <text x="0" y="100" class="text-dark" font-size="12" font-weight="500">Mercredi</text>
            <rect x="100" y="85" width="400" height="24" rx="4" fill="#DEF7EC"/>
            <text x="110" y="102" class="text-success" font-size="10">09:00 - 12:00</text>
            <rect x="510" y="85" width="40" height="24" rx="4" fill="#FEE2E2"/>
            <rect x="560" y="85" width="400" height="24" rx="4" fill="#DEF7EC"/>
            <text x="570" y="102" class="text-success" font-size="10">14:00 - 18:00</text>
            <text x="980" y="102" class="text-primary" font-size="10">✎</text>

            <!-- Jeudi -->
            <text x="0" y="140" class="text-dark" font-size="12" font-weight="500">Jeudi</text>
            <rect x="100" y="125" width="400" height="24" rx="4" fill="#DEF7EC"/>
            <text x="110" y="142" class="text-success" font-size="10">09:00 - 12:00</text>
            <rect x="510" y="125" width="40" height="24" rx="4" fill="#FEE2E2"/>
            <rect x="560" y="125" width="400" height="24" rx="4" fill="#DEF7EC"/>
            <text x="570" y="142" class="text-success" font-size="10">14:00 - 18:00</text>
            <text x="980" y="142" class="text-primary" font-size="10">✎</text>

            <!-- Vendredi -->
            <text x="0" y="180" class="text-dark" font-size="12" font-weight="500">Vendredi</text>
            <rect x="100" y="165" width="400" height="24" rx="4" fill="#DEF7EC"/>
            <text x="110" y="182" class="text-success" font-size="10">09:00 - 12:00</text>
            <rect x="510" y="165" width="40" height="24" rx="4" fill="#FEE2E2"/>
            <rect x="560" y="165" width="300" height="24" rx="4" fill="#DEF7EC"/>
            <text x="570" y="182" class="text-success" font-size="10">14:00 - 17:00</text>
            <text x="980" y="182" class="text-primary" font-size="10">✎</text>

            <!-- Samedi -->
            <text x="0" y="220" class="text-dark" font-size="12" font-weight="500">Samedi</text>
            <rect x="100" y="205" width="860" height="24" rx="4" fill="#FEE2E2"/>
            <text x="110" y="222" fill="#DC2626" font-size="10">Fermé</text>
            <text x="980" y="222" class="text-primary" font-size="10">✎</text>

            <!-- Dimanche -->
            <text x="0" y="260" class="text-dark" font-size="12" font-weight="500">Dimanche</text>
            <rect x="100" y="245" width="860" height="24" rx="4" fill="#FEE2E2"/>
            <text x="110" y="262" fill="#DC2626" font-size="10">Fermé</text>
            <text x="980" y="262" class="text-primary" font-size="10">✎</text>
          </g>

          <!-- Jours fériés -->
          <rect x="0" y="540" width="1036" height="80" rx="6" fill="#FFFFFF" stroke="#E5E7EB"/>
          <text x="20" y="570" class="text-dark" font-size="14" font-weight="600">📆 Jours fériés et exceptions</text>
          <text x="20" y="600" class="text-muted" font-size="11">3 jours fériés configurés (fermé)</text>
          <text x="860" y="585" class="text-primary" font-size="11">Gérer les exceptions →</text>

        </g>
      </g>
    </g>
  </g>
</svg>
