<svg xmlns="http://www.w3.org/2000/svg" viewBox="0 0 1440 900" width="1440" height="900">
  <defs>
    <style>
      .bg-header { fill: #000E9C; }
      .bg-main { fill: #F6F6F9; }
      .bg-white { fill: #FFFFFF; }
      .bg-primary { fill: #0050D7; }
      .bg-success { fill: #DEF7EC; }
      .border { stroke: #E5E7EB; stroke-width: 1; fill: none; }
      .btn-outline { stroke: #0050D7; stroke-width: 1; fill: #FFFFFF; }
      .text-white { fill: #FFFFFF; font-family: 'Source Sans Pro', sans-serif; }
      .text-dark { fill: #1F2937; font-family: 'Source Sans Pro', sans-serif; }
      .text-muted { fill: #6B7280; font-family: 'Source Sans Pro', sans-serif; }
      .text-primary { fill: #0050D7; font-family: 'Source Sans Pro', sans-serif; }
      .text-success { fill: #059669; font-family: 'Source Sans Pro', sans-serif; }
    </style>
  </defs>

  <!-- Background -->
  <rect width="1440" height="900" class="bg-main"/>

  <!-- NAV1 + NAV2 -->
  <rect width="1440" height="50" class="bg-header"/>
  <text x="510" y="32" class="text-white" font-size="14" font-weight="600">Web Cloud</text>
  <rect x="505" y="46" width="75" height="3" fill="#FFFFFF"/>
  <rect x="0" y="50" width="1440" height="40" fill="#FFFFFF"/>
  <line x1="0" y1="89" x2="1440" y2="89" stroke="#E5E7EB"/>
  <text x="500" y="75" class="text-primary" font-size="14" font-weight="600">VoIP</text>
  <rect x="495" y="85" width="35" height="3" fill="#0050D7"/>

  <!-- CONTENT AREA -->
  <g transform="translate(0, 105)">
    <g transform="translate(24, 0)">
      <!-- LEFT PANEL -->
      <rect x="0" y="0" width="280" height="765" rx="8" class="bg-white"/>
      <rect x="0" y="0" width="280" height="765" rx="8" class="border"/>
      <g transform="translate(6, 80)">
        <rect x="0" y="0" width="268" height="65" rx="6" fill="#E8F0FE"/>
        <text x="12" y="22" class="text-dark" font-size="13" font-weight="500">🔢 0033912349999</text>
        <text x="12" y="40" class="text-muted" font-size="11">Accueil principal</text>
      </g>
    </g>

    <g transform="translate(320, 0)">
      <!-- RIGHT PANEL -->
      <rect x="0" y="0" width="1096" height="765" rx="8" class="bg-white"/>
      <rect x="0" y="0" width="1096" height="765" rx="8" class="border"/>

      <g transform="translate(20, 0)">
        <!-- HEADER -->
        <text x="0" y="28" class="text-dark" font-size="18" font-weight="600">0033912349999</text>
        <text x="180" y="28" class="text-muted" font-size="14">Accueil principal</text>

        <!-- NAV3 TABS - Consumption actif -->
        <g transform="translate(0, 50)">
          <text x="0" y="17" class="text-muted" font-size="11">...</text>
          <rect x="50" y="0" width="95" height="26" rx="4" fill="#0050D7"/>
          <text x="97" y="17" class="text-white" font-size="11" text-anchor="middle">Consommation</text>
          <text x="160" y="17" class="text-muted" font-size="11">...</text>
        </g>

        <!-- CONSUMPTION CONTENT -->
        <g transform="translate(0, 90)">

          <!-- Période selector -->
          <g transform="translate(0, 0)">
            <text x="0" y="20" class="text-dark" font-size="14" font-weight="500">Période:</text>
            <rect x="80" y="0" width="100" height="32" rx="4" fill="#0050D7"/>
            <text x="130" y="21" class="text-white" font-size="11" text-anchor="middle">Ce mois</text>
            <rect x="190" y="0" width="100" height="32" rx="4" fill="#F9FAFB" stroke="#E5E7EB"/>
            <text x="240" y="21" class="text-muted" font-size="11" text-anchor="middle">Mois dernier</text>
            <rect x="300" y="0" width="100" height="32" rx="4" fill="#F9FAFB" stroke="#E5E7EB"/>
            <text x="350" y="21" class="text-muted" font-size="11" text-anchor="middle">3 derniers mois</text>
            <rect x="410" y="0" width="100" height="32" rx="4" fill="#F9FAFB" stroke="#E5E7EB"/>
            <text x="460" y="21" class="text-muted" font-size="11" text-anchor="middle">Personnalisé</text>
          </g>

          <!-- Summary cards -->
          <g transform="translate(0, 50)">
            <rect x="0" y="0" width="330" height="120" rx="6" fill="#FFFFFF" stroke="#E5E7EB"/>
            <text x="20" y="30" class="text-muted" font-size="12">Total appels</text>
            <text x="20" y="65" class="text-dark" font-size="32" font-weight="700">234</text>
            <text x="20" y="100" class="text-success" font-size="12">↑ +15% vs mois dernier</text>

            <rect x="350" y="0" width="330" height="120" rx="6" fill="#FFFFFF" stroke="#E5E7EB"/>
            <text x="370" y="30" class="text-muted" font-size="12">Durée totale</text>
            <text x="370" y="65" class="text-dark" font-size="32" font-weight="700">18h 45min</text>
            <text x="370" y="100" class="text-muted" font-size="12">Moyenne: 4min 48s/appel</text>

            <rect x="700" y="0" width="330" height="120" rx="6" fill="#FFFFFF" stroke="#E5E7EB"/>
            <text x="720" y="30" class="text-muted" font-size="12">Montant estimé</text>
            <text x="720" y="65" class="text-dark" font-size="32" font-weight="700">45,80 €</text>
            <text x="720" y="100" class="text-muted" font-size="12">HT - Forfait inclus</text>
          </g>

          <!-- Chart -->
          <g transform="translate(0, 190)">
            <rect x="0" y="0" width="1030" height="250" rx="6" fill="#FFFFFF" stroke="#E5E7EB"/>
            <text x="20" y="30" class="text-dark" font-size="15" font-weight="700">Évolution consommation</text>
            <rect x="20" y="50" width="990" height="170" rx="4" fill="#F9FAFB"/>
            <text x="515" y="140" class="text-muted" font-size="12" text-anchor="middle">[Graphique barres - Appels par jour]</text>
            <!-- Légende -->
            <rect x="20" y="230" width="12" height="12" fill="#0050D7"/>
            <text x="40" y="240" class="text-dark" font-size="10">Appels entrants</text>
            <rect x="150" y="230" width="12" height="12" fill="#059669"/>
            <text x="170" y="240" class="text-dark" font-size="10">Appels répondus</text>
          </g>

          <!-- Détail par type -->
          <g transform="translate(0, 460)">
            <rect x="0" y="0" width="500" height="180" rx="6" fill="#FFFFFF" stroke="#E5E7EB"/>
            <text x="20" y="30" class="text-dark" font-size="15" font-weight="700">Répartition par type</text>

            <text x="20" y="65" class="text-muted" font-size="12">Appels répondus</text>
            <rect x="180" y="52" width="200" height="16" rx="4" fill="#E5E7EB"/>
            <rect x="180" y="52" width="170" height="16" rx="4" fill="#059669"/>
            <text x="400" y="65" class="text-dark" font-size="12">198 (85%)</text>

            <text x="20" y="100" class="text-muted" font-size="12">Appels manqués</text>
            <rect x="180" y="87" width="200" height="16" rx="4" fill="#E5E7EB"/>
            <rect x="180" y="87" width="24" height="16" rx="4" fill="#DC2626"/>
            <text x="400" y="100" class="text-dark" font-size="12">24 (10%)</text>

            <text x="20" y="135" class="text-muted" font-size="12">Appels abandonnés</text>
            <rect x="180" y="122" width="200" height="16" rx="4" fill="#E5E7EB"/>
            <rect x="180" y="122" width="12" height="16" rx="4" fill="#D97706"/>
            <text x="400" y="135" class="text-dark" font-size="12">12 (5%)</text>

            <text x="20" y="165" class="text-primary" font-size="11">→ Voir détails complets</text>
          </g>

          <!-- Top agents -->
          <g transform="translate(520, 460)">
            <rect x="0" y="0" width="510" height="180" rx="6" fill="#FFFFFF" stroke="#E5E7EB"/>
            <text x="20" y="30" class="text-dark" font-size="15" font-weight="700">Top agents ce mois</text>

            <text x="20" y="65" class="text-dark" font-size="12">1. Jean Dupont</text>
            <text x="200" y="65" class="text-muted" font-size="12">68 appels</text>
            <text x="300" y="65" class="text-muted" font-size="12">5h 12min</text>
            <rect x="400" y="52" width="80" height="18" rx="9" fill="#DEF7EC"/>
            <text x="440" y="65" fill="#03543F" font-size="10" text-anchor="middle">29%</text>

            <text x="20" y="95" class="text-dark" font-size="12">2. Marie Lefebvre</text>
            <text x="200" y="95" class="text-muted" font-size="12">52 appels</text>
            <text x="300" y="95" class="text-muted" font-size="12">4h 30min</text>
            <rect x="400" y="82" width="80" height="18" rx="9" fill="#DEF7EC"/>
            <text x="440" y="95" fill="#03543F" font-size="10" text-anchor="middle">22%</text>

            <text x="20" y="125" class="text-dark" font-size="12">3. Pierre Martin</text>
            <text x="200" y="125" class="text-muted" font-size="12">45 appels</text>
            <text x="300" y="125" class="text-muted" font-size="12">3h 45min</text>
            <rect x="400" y="112" width="80" height="18" rx="9" fill="#DEF7EC"/>
            <text x="440" y="125" fill="#03543F" font-size="10" text-anchor="middle">19%</text>

            <text x="20" y="165" class="text-primary" font-size="11">→ Voir tous les agents</text>
          </g>

        </g>
      </g>
    </g>
  </g>
</svg>
