<svg xmlns="http://www.w3.org/2000/svg" viewBox="0 0 1440 900" width="1440" height="900">
  <defs>
    <style>
      .bg-header { fill: #000E9C; }
      .bg-main { fill: #F6F6F9; }
      .bg-white { fill: #FFFFFF; }
      .bg-primary { fill: #0050D7; }
      .bg-success { fill: #DEF7EC; }
      .bg-warning { fill: #FEF3C7; }
      .bg-info { fill: #DBEAFE; }
      .border { stroke: #E5E7EB; stroke-width: 1; fill: none; }
      .btn-outline { stroke: #0050D7; stroke-width: 1; fill: #FFFFFF; }
      .toggle-on { fill: #10B981; }
      .toggle-off { fill: #D1D5DB; }
      .text-white { fill: #FFFFFF; font-family: 'Source Sans Pro', sans-serif; }
      .text-dark { fill: #1F2937; font-family: 'Source Sans Pro', sans-serif; }
      .text-muted { fill: #6B7280; font-family: 'Source Sans Pro', sans-serif; }
      .text-primary { fill: #0050D7; font-family: 'Source Sans Pro', sans-serif; }
      .text-success { fill: #059669; font-family: 'Source Sans Pro', sans-serif; }
      .text-warning { fill: #D97706; font-family: 'Source Sans Pro', sans-serif; }
      .text-info { fill: #1E40AF; font-family: 'Source Sans Pro', sans-serif; }
    </style>
  </defs>

  <!-- Background -->
  <rect width="1440" height="900" class="bg-main"/>

  <!-- NAV1 -->
  <rect width="1440" height="50" class="bg-header"/>
  <text x="40" y="32" class="text-white" font-size="14" opacity="0.7">Accueil</text>
  <text x="110" y="32" class="text-white" font-size="14" opacity="0.7">Public Cloud</text>
  <text x="210" y="32" class="text-white" font-size="14" opacity="0.7">Hosted Private Cloud</text>
  <text x="370" y="32" class="text-white" font-size="14" opacity="0.7">Bare Metal Cloud</text>
  <text x="510" y="32" class="text-white" font-size="14" font-weight="600">Web Cloud</text>
  <rect x="505" y="46" width="75" height="3" fill="#FFFFFF"/>
  <text x="620" y="32" class="text-white" font-size="14" opacity="0.7">Network</text>
  <text x="700" y="32" class="text-white" font-size="14" opacity="0.7">IAM / Securite</text>
  <text x="810" y="32" class="text-white" font-size="14" opacity="0.7">Licences</text>
  <rect x="1280" y="12" width="140" height="26" rx="13" fill="rgba(255,255,255,0.2)"/>
  <text x="1320" y="29" class="text-white" font-size="12">{nicHandle}</text>

  <!-- NAV2 -->
  <rect x="0" y="50" width="1440" height="40" fill="#FFFFFF"/>
  <line x1="0" y1="89" x2="1440" y2="89" stroke="#E5E7EB"/>
  <text x="40" y="75" class="text-muted" font-size="14">Accueil</text>
  <text x="110" y="75" class="text-muted" font-size="14">Domaines et DNS</text>
  <text x="240" y="75" class="text-muted" font-size="14">Hébergement</text>
  <text x="345" y="75" class="text-muted" font-size="14">Wordpress</text>
  <text x="430" y="75" class="text-muted" font-size="14">Emails</text>
  <text x="500" y="75" class="text-primary" font-size="14" font-weight="600">VoIP</text>
  <rect x="495" y="85" width="35" height="3" fill="#0050D7"/>
  <text x="550" y="75" class="text-muted" font-size="14">Accès</text>
  <text x="1350" y="75" class="text-primary" font-size="13">Guides</text>

  <!-- CONTENT AREA -->
  <g transform="translate(0, 105)">
    <g transform="translate(24, 0)">
      <!-- LEFT PANEL -->
      <rect x="0" y="0" width="280" height="765" rx="8" class="bg-white"/>
      <rect x="0" y="0" width="280" height="765" rx="8" class="border"/>

      <!-- NAV3 - Type selector -->
      <rect x="0" y="0" width="280" height="44" rx="8" fill="#F9FAFB"/>
      <rect x="12" y="10" width="60" height="24" rx="4" fill="#0050D7"/>
      <text x="42" y="26" class="text-white" font-size="11" text-anchor="middle">SIP</text>
      <rect x="76" y="10" width="60" height="24" rx="4" fill="#FFFFFF" stroke="#E5E7EB"/>
      <text x="106" y="26" class="text-muted" font-size="11" text-anchor="middle">SMS</text>
      <rect x="140" y="10" width="60" height="24" rx="4" fill="#FFFFFF" stroke="#E5E7EB"/>
      <text x="170" y="26" class="text-muted" font-size="11" text-anchor="middle">FAX</text>
      <rect x="204" y="10" width="64" height="24" rx="4" fill="#FFFFFF" stroke="#E5E7EB"/>
      <text x="236" y="26" class="text-muted" font-size="11" text-anchor="middle">Trunk</text>
      <line x1="0" y1="44" x2="280" y2="44" stroke="#E5E7EB"/>

      <!-- Search -->
      <rect x="12" y="56" width="256" height="34" rx="4" fill="#F9FAFB" stroke="#E5E7EB"/>
      <text x="26" y="78" class="text-muted" font-size="12">Rechercher...</text>
      <text x="12" y="112" class="text-muted" font-size="11">3 lignes</text>

      <g transform="translate(6, 80)">
        <rect x="0" y="0" width="268" height="65" rx="6" fill="#E8F0FE"/>
        <text x="12" y="22" class="text-dark" font-size="13" font-weight="500">☎️ 0033912345678</text>
        <text x="12" y="40" class="text-muted" font-size="11">Poste Direction</text>
        <text x="12" y="56" class="text-muted" font-size="10">Yealink T46U</text>
      </g>
    </g>

    <g transform="translate(320, 0)">
      <!-- RIGHT PANEL -->
      <rect x="0" y="0" width="1096" height="765" rx="8" class="bg-white"/>
      <rect x="0" y="0" width="1096" height="765" rx="8" class="border"/>

      <g transform="translate(20, 0)">
        <!-- HEADER -->
        <text x="0" y="28" class="text-dark" font-size="18" font-weight="600">0033912345678</text>
        <text x="180" y="28" class="text-muted" font-size="14">Poste Direction / Options</text>

        <!-- NAV4 TABS - Options actif -->
        <g transform="translate(0, 50)">
          <rect x="0" y="0" width="60" height="26" rx="4" fill="#FFFFFF" stroke="#0050D7"/>
          <text x="30" y="17" class="text-primary" font-size="12" text-anchor="middle">Général</text>

          <rect x="64" y="0" width="75" height="26" rx="4" fill="#FFFFFF" stroke="#0050D7"/>
          <text x="101" y="17" class="text-primary" font-size="12" text-anchor="middle">Téléphone</text>

          <rect x="143" y="0" width="55" height="26" rx="4" fill="#FFFFFF" stroke="#0050D7"/>
          <text x="170" y="17" class="text-primary" font-size="12" text-anchor="middle">Appels</text>

          <rect x="202" y="0" width="75" height="26" rx="4" fill="#FFFFFF" stroke="#0050D7"/>
          <text x="239" y="17" class="text-primary" font-size="12" text-anchor="middle">Transferts</text>

          <rect x="281" y="0" width="80" height="26" rx="4" fill="#FFFFFF" stroke="#0050D7"/>
          <text x="321" y="17" class="text-primary" font-size="12" text-anchor="middle">Messagerie</text>

          <rect x="365" y="0" width="95" height="26" rx="4" fill="#FFFFFF" stroke="#0050D7"/>
          <text x="412" y="17" class="text-primary" font-size="12" text-anchor="middle">Consommation</text>

          <rect x="464" y="0" width="60" height="26" rx="4" fill="#0050D7"/>
          <text x="494" y="17" class="text-white" font-size="12" text-anchor="middle">Options</text>
        </g>

        <!-- CONTENU OPTIONS -->
        <g transform="translate(0, 95)">

          <!-- Section Fonctionnalités -->
          <text x="0" y="0" class="text-dark" font-size="15" font-weight="700">⚙️ Fonctionnalités de la ligne</text>

          <!-- Option 1: Présentation du numéro -->
          <rect x="0" y="20" width="1036" height="70" rx="6" fill="#FFFFFF" stroke="#E5E7EB"/>
          <text x="20" y="50" class="text-dark" font-size="13" font-weight="500">📞 Présentation du numéro</text>
          <text x="20" y="72" class="text-muted" font-size="11">Affiche votre numéro aux personnes que vous appelez</text>
          <rect x="940" y="38" width="50" height="26" rx="13" class="toggle-on"/>
          <circle cx="977" cy="51" r="10" fill="white"/>

          <!-- Option 2: Signal d'appel -->
          <rect x="0" y="100" width="1036" height="70" rx="6" fill="#FFFFFF" stroke="#E5E7EB"/>
          <text x="20" y="130" class="text-dark" font-size="13" font-weight="500">🔔 Signal d'appel</text>
          <text x="20" y="152" class="text-muted" font-size="11">Être notifié d'un appel entrant pendant une conversation</text>
          <rect x="940" y="118" width="50" height="26" rx="13" class="toggle-on"/>
          <circle cx="977" cy="131" r="10" fill="white"/>

          <!-- Option 3: Interception d'appels -->
          <rect x="0" y="180" width="1036" height="70" rx="6" fill="#FFFFFF" stroke="#E5E7EB"/>
          <text x="20" y="210" class="text-dark" font-size="13" font-weight="500">📲 Interception d'appels</text>
          <text x="20" y="232" class="text-muted" font-size="11">Permet de récupérer un appel qui sonne sur une autre ligne du groupe</text>
          <rect x="940" y="198" width="50" height="26" rx="13" class="toggle-off"/>
          <circle cx="953" cy="211" r="10" fill="white"/>

          <!-- Option 4: Ne pas déranger -->
          <rect x="0" y="260" width="1036" height="70" rx="6" fill="#FFFFFF" stroke="#E5E7EB"/>
          <text x="20" y="290" class="text-dark" font-size="13" font-weight="500">🔕 Ne pas déranger</text>
          <text x="20" y="312" class="text-muted" font-size="11">Rejette automatiquement tous les appels entrants</text>
          <rect x="940" y="278" width="50" height="26" rx="13" class="toggle-off"/>
          <circle cx="953" cy="291" r="10" fill="white"/>

          <!-- Section Sécurité -->
          <text x="0" y="365" class="text-dark" font-size="15" font-weight="700">🔒 Sécurité</text>

          <!-- Option 5: Restrictions appels -->
          <rect x="0" y="385" width="1036" height="90" rx="6" fill="#FFFFFF" stroke="#E5E7EB"/>
          <text x="20" y="415" class="text-dark" font-size="13" font-weight="500">🚫 Restrictions d'appels</text>
          <text x="20" y="437" class="text-muted" font-size="11">Configurez les types de numéros autorisés à être appelés</text>
          <text x="20" y="460" class="text-primary" font-size="11">Configurer les restrictions →</text>
          <rect x="850" y="400" width="140" height="26" rx="4" class="btn-outline"/>
          <text x="920" y="418" class="text-primary" font-size="11" text-anchor="middle">Voir détails</text>

          <!-- Option 6: Click2Call -->
          <rect x="0" y="485" width="1036" height="70" rx="6" fill="#FFFFFF" stroke="#E5E7EB"/>
          <text x="20" y="515" class="text-dark" font-size="13" font-weight="500">🖱️ Click2Call</text>
          <text x="20" y="537" class="text-muted" font-size="11">Permettre le lancement d'appels depuis l'interface web</text>
          <rect x="940" y="503" width="50" height="26" rx="13" class="toggle-on"/>
          <circle cx="977" cy="516" r="10" fill="white"/>

          <!-- Bannière warning options payantes -->
          <rect x="0" y="575" width="1036" height="50" rx="6" fill="#FEF3C7"/>
          <text x="20" y="605" class="text-warning" font-size="12">⚠️ Certaines options peuvent entraîner des frais supplémentaires. Consultez votre forfait pour plus de détails.</text>

        </g>
      </g>
    </g>
  </g>
</svg>
