<svg xmlns="http://www.w3.org/2000/svg" viewBox="0 0 1440 900" width="1440" height="900">
  <defs>
    <style>
      .bg-header { fill: #000E9C; }
      .bg-main { fill: #F6F6F9; }
      .bg-white { fill: #FFFFFF; }
      .bg-primary { fill: #0050D7; }
      .bg-success { fill: #DEF7EC; }
      .bg-info { fill: #DBEAFE; }
      .bg-warning { fill: #FEF3C7; }
      .border { stroke: #E5E7EB; stroke-width: 1; fill: none; }
      .divider { stroke: #E5E7EB; stroke-width: 1; }
      .text-white { fill: #FFFFFF; font-family: 'Source Sans Pro', sans-serif; }
      .text-dark { fill: #1F2937; font-family: 'Source Sans Pro', sans-serif; }
      .text-muted { fill: #6B7280; font-family: 'Source Sans Pro', sans-serif; }
      .text-primary { fill: #0050D7; font-family: 'Source Sans Pro', sans-serif; }
      .text-success { fill: #059669; font-family: 'Source Sans Pro', sans-serif; }
      .text-warning { fill: #D97706; font-family: 'Source Sans Pro', sans-serif; }
    </style>
  </defs>

  <!-- Background -->
  <rect width="1440" height="900" class="bg-main"/>

  <!-- NAV1 - Header OVH -->
  <rect width="1440" height="50" class="bg-header"/>
  <text x="40" y="32" class="text-white" font-size="14" opacity="0.7">Accueil</text>
  <text x="110" y="32" class="text-white" font-size="14" opacity="0.7">Public Cloud</text>
  <text x="210" y="32" class="text-white" font-size="14" opacity="0.7">Hosted Private Cloud</text>
  <text x="370" y="32" class="text-white" font-size="14" opacity="0.7">Bare Metal Cloud</text>
  <text x="510" y="32" class="text-white" font-size="14" font-weight="600">Web Cloud</text>
  <rect x="505" y="46" width="75" height="3" fill="#FFFFFF"/>
  <text x="620" y="32" class="text-white" font-size="14" opacity="0.7">Network</text>
  <rect x="1280" y="12" width="140" height="26" rx="13" fill="rgba(255,255,255,0.2)"/>
  <text x="1320" y="29" class="text-white" font-size="12">ab12345-ovh</text>

  <!-- NAV2 - Web Cloud -->
  <rect x="0" y="50" width="1440" height="40" fill="#FFFFFF"/>
  <line x1="0" y1="89" x2="1440" y2="89" stroke="#E5E7EB"/>
  <text x="40" y="75" class="text-muted" font-size="14">Accueil</text>
  <text x="110" y="75" class="text-muted" font-size="14">Domaines et DNS</text>
  <text x="240" y="75" class="text-muted" font-size="14">Hébergement</text>
  <text x="345" y="75" class="text-muted" font-size="14">Wordpress</text>
  <text x="430" y="75" class="text-muted" font-size="14">Emails</text>
  <text x="500" y="75" class="text-primary" font-size="14" font-weight="600">VoIP</text>
  <rect x="495" y="85" width="35" height="3" fill="#0050D7"/>
  <text x="550" y="75" class="text-muted" font-size="14">Accès</text>
  <text x="1350" y="75" class="text-primary" font-size="13">Guides</text>

  <!-- CONTENT AREA -->
  <g transform="translate(0, 105)">
    <g transform="translate(24, 0)">

      <!-- LEFT PANEL -->
      <rect x="0" y="0" width="280" height="765" rx="8" class="bg-white"/>
      <rect x="0" y="0" width="280" height="765" rx="8" class="border"/>

      <!-- NAV3 -->
      <rect x="0" y="0" width="280" height="44" rx="8" fill="#F9FAFB"/>
      <rect x="12" y="10" width="60" height="24" rx="4" fill="#FFFFFF" stroke="#E5E7EB"/>
      <text x="42" y="26" class="text-muted" font-size="11" text-anchor="middle">SIP</text>
      <rect x="76" y="10" width="60" height="24" rx="4" fill="#FFFFFF" stroke="#E5E7EB"/>
      <text x="106" y="26" class="text-muted" font-size="11" text-anchor="middle">SMS</text>
      <rect x="140" y="10" width="60" height="24" rx="4" fill="#FFFFFF" stroke="#E5E7EB"/>
      <text x="170" y="26" class="text-muted" font-size="11" text-anchor="middle">FAX</text>
      <rect x="204" y="10" width="64" height="24" rx="4" fill="#0050D7"/>
      <text x="236" y="26" class="text-white" font-size="11" text-anchor="middle">Trunk</text>
      <line x1="0" y1="44" x2="280" y2="44" class="divider"/>

      <!-- Search -->
      <rect x="12" y="56" width="256" height="34" rx="4" fill="#F9FAFB" stroke="#E5E7EB"/>
      <text x="26" y="78" class="text-muted" font-size="12">🔍 Rechercher...</text>
      <text x="12" y="112" class="text-muted" font-size="11">2 trunks SIP</text>

      <!-- Trunk items -->
      <g transform="translate(0, 124)">
        <rect x="0" y="0" width="280" height="56" fill="#E8F0FE"/>
        <text x="16" y="22" class="text-dark" font-size="13" font-weight="600">trunk-ab12345-1</text>
        <text x="16" y="40" class="text-muted" font-size="11">Production</text>
        <rect x="220" y="14" width="46" height="18" rx="9" class="bg-success"/>
        <text x="243" y="27" fill="#03543F" font-size="9" text-anchor="middle">Actif</text>
      </g>

      <g transform="translate(0, 180)">
        <rect x="0" y="0" width="280" height="56" fill="#FFFFFF"/>
        <text x="16" y="22" class="text-dark" font-size="13">trunk-ab12345-2</text>
        <text x="16" y="40" class="text-muted" font-size="11">Test</text>
      </g>

    </g>

    <g transform="translate(320, 0)">

      <!-- RIGHT PANEL -->
      <rect x="0" y="0" width="1096" height="765" rx="8" class="bg-white"/>
      <rect x="0" y="0" width="1096" height="765" rx="8" class="border"/>

      <g transform="translate(20, 0)">
        <!-- Header -->
        <text x="0" y="28" class="text-dark" font-size="18" font-weight="600">trunk-ab12345-1</text>
        <text x="180" y="28" class="text-muted" font-size="13">Production</text>
        <rect x="290" y="12" width="46" height="20" rx="10" class="bg-success"/>
        <text x="313" y="26" fill="#03543F" font-size="10" text-anchor="middle">Actif</text>

        <!-- NAV4 - Tabs -->
        <g transform="translate(0, 42)">
          <rect x="0" y="0" width="70" height="26" rx="4" fill="#0050D7"/>
          <text x="35" y="17" class="text-white" font-size="12" text-anchor="middle">Général</text>
          <rect x="74" y="0" width="100" height="26" rx="4" fill="#FFFFFF" stroke="#E5E7EB"/>
          <text x="124" y="17" class="text-muted" font-size="12" text-anchor="middle">Paramètres</text>
          <rect x="178" y="0" width="80" height="26" rx="4" fill="#FFFFFF" stroke="#E5E7EB"/>
          <text x="218" y="17" class="text-muted" font-size="12" text-anchor="middle">Routage</text>
          <rect x="262" y="0" width="60" height="26" rx="4" fill="#FFFFFF" stroke="#E5E7EB"/>
          <text x="292" y="17" class="text-muted" font-size="12" text-anchor="middle">CDR</text>
        </g>

        <!-- Content -->
        <g transform="translate(0, 90)">
          <text x="0" y="20" class="text-dark" font-size="15" font-weight="700">Informations du trunk SIP</text>

          <!-- Stats cards -->
          <g transform="translate(0, 45)">
            <rect x="0" y="0" width="250" height="100" rx="8" fill="#F9FAFB" stroke="#E5E7EB"/>
            <text x="20" y="30" class="text-muted" font-size="11">Appels en cours</text>
            <text x="20" y="60" class="text-dark" font-size="28" font-weight="700">12</text>
            <text x="20" y="82" class="text-muted" font-size="11">/ 50 canaux max</text>

            <rect x="266" y="0" width="250" height="100" rx="8" fill="#F9FAFB" stroke="#E5E7EB"/>
            <text x="286" y="30" class="text-muted" font-size="11">Appels aujourd'hui</text>
            <text x="286" y="60" class="text-dark" font-size="28" font-weight="700">847</text>
            <text x="286" y="82" class="text-success" font-size="11">+15% vs hier</text>

            <rect x="532" y="0" width="250" height="100" rx="8" fill="#F9FAFB" stroke="#E5E7EB"/>
            <text x="552" y="30" class="text-muted" font-size="11">Durée moyenne</text>
            <text x="552" y="60" class="text-dark" font-size="28" font-weight="700">3:42</text>
            <text x="552" y="82" class="text-muted" font-size="11">minutes</text>

            <rect x="798" y="0" width="250" height="100" rx="8" fill="#F9FAFB" stroke="#E5E7EB"/>
            <text x="818" y="30" class="text-muted" font-size="11">Taux de succès</text>
            <text x="818" y="60" class="text-success" font-size="28" font-weight="700">98.2%</text>
            <text x="818" y="82" class="text-muted" font-size="11">dernières 24h</text>
          </g>

          <!-- Connection info -->
          <g transform="translate(0, 165)">
            <text x="0" y="20" class="text-dark" font-size="13" font-weight="600">Informations de connexion</text>

            <g transform="translate(0, 40)">
              <rect x="0" y="0" width="520" height="200" rx="8" fill="#F9FAFB" stroke="#E5E7EB"/>

              <g transform="translate(24, 24)">
                <text x="0" y="0" class="text-muted" font-size="10">Serveur SIP (Primary)</text>
                <rect x="0" y="8" width="470" height="28" rx="4" fill="#FFFFFF" stroke="#E5E7EB"/>
                <text x="12" y="26" class="text-dark" font-size="11">sip.ovh.net:5060</text>
                <text x="448" y="26" class="text-primary" font-size="12">📋</text>
              </g>

              <g transform="translate(24, 72)">
                <text x="0" y="0" class="text-muted" font-size="10">Serveur SIP (Backup)</text>
                <rect x="0" y="8" width="470" height="28" rx="4" fill="#FFFFFF" stroke="#E5E7EB"/>
                <text x="12" y="26" class="text-dark" font-size="11">sip2.ovh.net:5060</text>
                <text x="448" y="26" class="text-primary" font-size="12">📋</text>
              </g>

              <g transform="translate(24, 120)">
                <text x="0" y="0" class="text-muted" font-size="10">Identifiant trunk</text>
                <rect x="0" y="8" width="220" height="28" rx="4" fill="#FFFFFF" stroke="#E5E7EB"/>
                <text x="12" y="26" class="text-dark" font-size="11">trunk-ab12345-1</text>
                <text x="198" y="26" class="text-primary" font-size="12">📋</text>
              </g>

              <g transform="translate(270, 120)">
                <text x="0" y="0" class="text-muted" font-size="10">Mot de passe</text>
                <rect x="0" y="8" width="220" height="28" rx="4" fill="#FFFFFF" stroke="#E5E7EB"/>
                <text x="12" y="26" class="text-dark" font-size="11">••••••••••••</text>
                <text x="175" y="26" class="text-primary" font-size="12">👁</text>
                <text x="198" y="26" class="text-primary" font-size="12">📋</text>
              </g>

              <g transform="translate(24, 168)">
                <text x="0" y="0" class="text-muted" font-size="10">Protocole: SIP/UDP | Codec: G.711, G.729 | DTMF: RFC2833</text>
              </g>
            </g>

            <g transform="translate(536, 40)">
              <rect x="0" y="0" width="520" height="200" rx="8" fill="#F9FAFB" stroke="#E5E7EB"/>
              <text x="24" y="30" class="text-dark" font-size="12" font-weight="500">Configuration réseau</text>

              <g transform="translate(24, 50)">
                <text x="0" y="0" class="text-muted" font-size="10">IP autorisées (ACL)</text>
                <rect x="0" y="8" width="470" height="70" rx="4" fill="#FFFFFF" stroke="#E5E7EB"/>
                <text x="12" y="28" class="text-dark" font-size="11">192.168.1.0/24</text>
                <text x="12" y="48" class="text-dark" font-size="11">10.0.0.100</text>
                <text x="12" y="68" class="text-muted" font-size="10">2 IP configurées</text>
              </g>

              <g transform="translate(24, 140)">
                <rect x="0" y="0" width="150" height="32" rx="4" stroke="#0050D7" fill="#FFFFFF"/>
                <text x="75" y="21" class="text-primary" font-size="10" text-anchor="middle">Gérer les IP</text>
                <rect x="165" y="0" width="180" height="32" rx="4" stroke="#E5E7EB" fill="#FFFFFF"/>
                <text x="255" y="21" class="text-muted" font-size="10" text-anchor="middle">Tester la connexion</text>
              </g>
            </g>
          </g>

          <!-- Service details -->
          <g transform="translate(0, 425)">
            <text x="0" y="20" class="text-dark" font-size="13" font-weight="600">Détails du service</text>

            <g transform="translate(0, 40)">
              <rect x="0" y="0" width="1048" height="150" rx="8" fill="#F9FAFB" stroke="#E5E7EB"/>

              <g transform="translate(24, 24)">
                <text x="0" y="0" class="text-muted" font-size="10">Offre</text>
                <text x="0" y="18" class="text-dark" font-size="12" font-weight="500">Trunk SIP Business</text>
              </g>

              <g transform="translate(200, 24)">
                <text x="0" y="0" class="text-muted" font-size="10">Canaux simultanés</text>
                <text x="0" y="18" class="text-dark" font-size="12" font-weight="500">50 canaux</text>
              </g>

              <g transform="translate(380, 24)">
                <text x="0" y="0" class="text-muted" font-size="10">Numéros associés</text>
                <text x="0" y="18" class="text-primary" font-size="12" font-weight="500">12 DDI</text>
              </g>

              <g transform="translate(550, 24)">
                <text x="0" y="0" class="text-muted" font-size="10">Date création</text>
                <text x="0" y="18" class="text-dark" font-size="12">15/03/2024</text>
              </g>

              <g transform="translate(720, 24)">
                <text x="0" y="0" class="text-muted" font-size="10">Renouvellement</text>
                <text x="0" y="18" class="text-dark" font-size="12">15/03/2026</text>
              </g>

              <g transform="translate(890, 24)">
                <text x="0" y="0" class="text-muted" font-size="10">Tarif mensuel</text>
                <text x="0" y="18" class="text-dark" font-size="12" font-weight="500">49,99 € HT</text>
              </g>

              <line x1="24" y1="60" x2="1024" y2="60" class="divider"/>

              <g transform="translate(24, 80)">
                <text x="0" y="0" class="text-muted" font-size="10">Consommation ce mois</text>
                <text x="0" y="18" class="text-dark" font-size="12">15 847 minutes</text>
                <text x="120" y="18" class="text-muted" font-size="10">•</text>
                <text x="135" y="18" class="text-dark" font-size="12">124,35 € HT</text>
              </g>

              <g transform="translate(400, 80)">
                <text x="0" y="0" class="text-muted" font-size="10">Forfait inclus</text>
                <text x="0" y="18" class="text-dark" font-size="12">10 000 minutes France fixe</text>
              </g>

              <g transform="translate(700, 80)">
                <rect x="0" y="-5" width="150" height="32" rx="4" stroke="#0050D7" fill="#FFFFFF"/>
                <text x="75" y="16" class="text-primary" font-size="10" text-anchor="middle">Voir les factures</text>
              </g>

              <g transform="translate(870, 80)">
                <rect x="0" y="-5" width="150" height="32" rx="4" stroke="#E5E7EB" fill="#FFFFFF"/>
                <text x="75" y="16" class="text-muted" font-size="10" text-anchor="middle">Modifier l'offre</text>
              </g>
            </g>
          </g>
        </g>
      </g>

    </g>
  </g>
</svg>
