<svg xmlns="http://www.w3.org/2000/svg" viewBox="0 0 1440 900" width="1440" height="900">
  <defs>
    <style>
      .bg-header { fill: #000E9C; }
      .bg-main { fill: #F6F6F9; }
      .bg-white { fill: #FFFFFF; }
      .bg-primary { fill: #0050D7; }
      .bg-success { fill: #DEF7EC; }
      .bg-error { fill: #FEE2E2; }
      .bg-warning { fill: #FEF3C7; }
      .bg-neutral { fill: #F9FAFB; }
      .border { stroke: #E5E7EB; stroke-width: 1; fill: none; }
      .btn-outline { stroke: #0050D7; stroke-width: 1; fill: #FFFFFF; }
      .text-white { fill: #FFFFFF; font-family: 'Source Sans Pro', sans-serif; }
      .text-dark { fill: #1F2937; font-family: 'Source Sans Pro', sans-serif; }
      .text-muted { fill: #6B7280; font-family: 'Source Sans Pro', sans-serif; }
      .text-primary { fill: #0050D7; font-family: 'Source Sans Pro', sans-serif; }
      .text-success { fill: #059669; font-family: 'Source Sans Pro', sans-serif; }
      .text-error { fill: #DC2626; font-family: 'Source Sans Pro', sans-serif; }
      .text-warning { fill: #D97706; font-family: 'Source Sans Pro', sans-serif; }
    </style>
  </defs>

  <!-- Background -->
  <rect width="1440" height="900" class="bg-main"/>

  <!-- NAV1 -->
  <rect width="1440" height="50" class="bg-header"/>
  <text x="40" y="32" class="text-white" font-size="14" opacity="0.7">Accueil</text>
  <text x="110" y="32" class="text-white" font-size="14" opacity="0.7">Public Cloud</text>
  <text x="210" y="32" class="text-white" font-size="14" opacity="0.7">Hosted Private Cloud</text>
  <text x="370" y="32" class="text-white" font-size="14" opacity="0.7">Bare Metal Cloud</text>
  <text x="510" y="32" class="text-white" font-size="14" font-weight="600">Web Cloud</text>
  <rect x="505" y="46" width="75" height="3" fill="#FFFFFF"/>
  <text x="620" y="32" class="text-white" font-size="14" opacity="0.7">Network</text>
  <text x="700" y="32" class="text-white" font-size="14" opacity="0.7">IAM / Securite</text>
  <text x="810" y="32" class="text-white" font-size="14" opacity="0.7">Licences</text>
  <rect x="1280" y="12" width="140" height="26" rx="13" fill="rgba(255,255,255,0.2)"/>
  <text x="1320" y="29" class="text-white" font-size="12">{nicHandle}</text>

  <!-- NAV2 -->
  <rect x="0" y="50" width="1440" height="40" fill="#FFFFFF"/>
  <line x1="0" y1="89" x2="1440" y2="89" stroke="#E5E7EB"/>
  <text x="40" y="75" class="text-muted" font-size="14">Accueil</text>
  <text x="110" y="75" class="text-muted" font-size="14">Domaines et DNS</text>
  <text x="240" y="75" class="text-muted" font-size="14">Hébergement</text>
  <text x="345" y="75" class="text-muted" font-size="14">Wordpress</text>
  <text x="430" y="75" class="text-muted" font-size="14">Emails</text>
  <text x="500" y="75" class="text-primary" font-size="14" font-weight="600">VoIP</text>
  <rect x="495" y="85" width="35" height="3" fill="#0050D7"/>
  <text x="550" y="75" class="text-muted" font-size="14">Accès</text>
  <text x="1350" y="75" class="text-primary" font-size="13">Guides</text>

  <!-- CONTENT AREA -->
  <g transform="translate(0, 105)">
    <g transform="translate(24, 0)">
      <!-- LEFT PANEL -->
      <rect x="0" y="0" width="280" height="765" rx="8" class="bg-white"/>
      <rect x="0" y="0" width="280" height="765" rx="8" class="border"/>

      <!-- NAV3 - Type selector -->
      <rect x="0" y="0" width="280" height="44" rx="8" fill="#F9FAFB"/>
      <rect x="12" y="10" width="60" height="24" rx="4" fill="#0050D7"/>
      <text x="42" y="26" class="text-white" font-size="11" text-anchor="middle">SIP</text>
      <rect x="76" y="10" width="60" height="24" rx="4" fill="#FFFFFF" stroke="#E5E7EB"/>
      <text x="106" y="26" class="text-muted" font-size="11" text-anchor="middle">SMS</text>
      <rect x="140" y="10" width="60" height="24" rx="4" fill="#FFFFFF" stroke="#E5E7EB"/>
      <text x="170" y="26" class="text-muted" font-size="11" text-anchor="middle">FAX</text>
      <rect x="204" y="10" width="64" height="24" rx="4" fill="#FFFFFF" stroke="#E5E7EB"/>
      <text x="236" y="26" class="text-muted" font-size="11" text-anchor="middle">Trunk</text>
      <line x1="0" y1="44" x2="280" y2="44" stroke="#E5E7EB"/>

      <!-- Search -->
      <rect x="12" y="56" width="256" height="34" rx="4" fill="#F9FAFB" stroke="#E5E7EB"/>
      <text x="26" y="78" class="text-muted" font-size="12">Rechercher...</text>
      <text x="12" y="112" class="text-muted" font-size="11">2 numéros</text>

      <g transform="translate(6, 124)">
        <rect x="0" y="0" width="268" height="65" rx="6" fill="#E8F0FE"/>
        <text x="12" y="22" class="text-dark" font-size="13" font-weight="500">#️⃣ 0033912345680</text>
        <text x="12" y="40" class="text-muted" font-size="11">Accueil principal</text>
        <text x="12" y="56" class="text-muted" font-size="10">File d'appels</text>
      </g>
    </g>

    <g transform="translate(320, 0)">
      <!-- RIGHT PANEL -->
      <rect x="0" y="0" width="1096" height="765" rx="8" class="bg-white"/>
      <rect x="0" y="0" width="1096" height="765" rx="8" class="border"/>

      <g transform="translate(20, 0)">
        <!-- HEADER -->
        <text x="0" y="28" class="text-dark" font-size="18" font-weight="600">0033912345680</text>
        <rect x="180" y="12" width="50" height="22" rx="11" fill="#DEF7EC"/>
        <text x="205" y="27" fill="#03543F" font-size="10" text-anchor="middle">Actif</text>
        <text x="250" y="28" class="text-muted" font-size="14">Accueil principal / Statistiques</text>

        <!-- NAV4 TABS - Statistiques actif -->
        <g transform="translate(0, 50)">
          <rect x="0" y="0" width="60" height="26" rx="4" fill="#FFFFFF" stroke="#0050D7"/>
          <text x="30" y="17" class="text-primary" font-size="12" text-anchor="middle">Général</text>

          <rect x="64" y="0" width="90" height="26" rx="4" fill="#FFFFFF" stroke="#0050D7"/>
          <text x="109" y="17" class="text-primary" font-size="12" text-anchor="middle">Configuration</text>

          <rect x="158" y="0" width="95" height="26" rx="4" fill="#FFFFFF" stroke="#0050D7"/>
          <text x="205" y="17" class="text-primary" font-size="12" text-anchor="middle">Consommation</text>

          <rect x="257" y="0" width="75" height="26" rx="4" fill="#0050D7"/>
          <text x="294" y="17" class="text-white" font-size="12" text-anchor="middle">Statistiques</text>
        </g>

        <!-- Period selector -->
        <g transform="translate(800, 50)">
          <rect x="0" y="0" width="200" height="30" rx="4" fill="#F9FAFB" stroke="#E5E7EB"/>
          <text x="20" y="20" class="text-muted" font-size="11">📅 Décembre 2025</text>
          <text x="170" y="20" class="text-muted" font-size="11">▼</text>
        </g>

        <!-- CONTENU STATISTIQUES -->
        <g transform="translate(0, 95)">

          <!-- KPI Cards Row 1 -->
          <rect x="0" y="0" width="250" height="100" rx="6" fill="#FFFFFF" stroke="#E5E7EB"/>
          <text x="20" y="30" class="text-muted" font-size="12">📞 Appels reçus</text>
          <text x="20" y="70" class="text-dark" font-size="28" font-weight="600">1,247</text>
          <text x="180" y="70" class="text-success" font-size="11">↑ 12%</text>

          <rect x="268" y="0" width="250" height="100" rx="6" fill="#FFFFFF" stroke="#E5E7EB"/>
          <text x="288" y="30" class="text-muted" font-size="12">✅ Appels traités</text>
          <text x="288" y="70" class="text-dark" font-size="28" font-weight="600">1,089</text>
          <text x="456" y="70" class="text-success" font-size="11">87%</text>

          <rect x="536" y="0" width="250" height="100" rx="6" fill="#FEE2E2" stroke="#DC2626"/>
          <text x="556" y="30" class="text-error" font-size="12">❌ Appels perdus</text>
          <text x="556" y="70" class="text-error" font-size="28" font-weight="600">158</text>
          <text x="720" y="70" class="text-error" font-size="11">13%</text>

          <rect x="804" y="0" width="232" height="100" rx="6" fill="#FFFFFF" stroke="#E5E7EB"/>
          <text x="824" y="30" class="text-muted" font-size="12">⏱️ Temps moyen attente</text>
          <text x="824" y="70" class="text-dark" font-size="28" font-weight="600">0:42</text>

          <!-- KPI Cards Row 2 -->
          <rect x="0" y="120" width="250" height="100" rx="6" fill="#FFFFFF" stroke="#E5E7EB"/>
          <text x="20" y="150" class="text-muted" font-size="12">⏳ Temps moyen conversation</text>
          <text x="20" y="190" class="text-dark" font-size="28" font-weight="600">4:23</text>

          <rect x="268" y="120" width="250" height="100" rx="6" fill="#FFFFFF" stroke="#E5E7EB"/>
          <text x="288" y="150" class="text-muted" font-size="12">👥 Agents disponibles</text>
          <text x="288" y="190" class="text-dark" font-size="28" font-weight="600">3/5</text>

          <rect x="536" y="120" width="250" height="100" rx="6" fill="#FEF3C7" stroke="#D97706"/>
          <text x="556" y="150" class="text-warning" font-size="12">📉 Niveau de service</text>
          <text x="556" y="190" class="text-warning" font-size="28" font-weight="600">78%</text>
          <text x="660" y="190" class="text-muted" font-size="11">Objectif: 85%</text>

          <rect x="804" y="120" width="232" height="100" rx="6" fill="#FFFFFF" stroke="#E5E7EB"/>
          <text x="824" y="150" class="text-muted" font-size="12">📊 Appels / heure (moy)</text>
          <text x="824" y="190" class="text-dark" font-size="28" font-weight="600">52</text>

          <!-- Chart placeholder -->
          <rect x="0" y="245" width="680" height="250" rx="6" fill="#FFFFFF" stroke="#E5E7EB"/>
          <text x="20" y="275" class="text-dark" font-size="14" font-weight="600">📈 Volume d'appels par jour</text>

          <!-- Simple bar chart representation -->
          <g transform="translate(40, 300)">
            <rect x="0" y="80" width="35" height="100" fill="#0050D7" opacity="0.7"/>
            <rect x="50" y="60" width="35" height="120" fill="#0050D7" opacity="0.7"/>
            <rect x="100" y="40" width="35" height="140" fill="#0050D7" opacity="0.7"/>
            <rect x="150" y="30" width="35" height="150" fill="#0050D7"/>
            <rect x="200" y="50" width="35" height="130" fill="#0050D7" opacity="0.7"/>
            <rect x="250" y="70" width="35" height="110" fill="#0050D7" opacity="0.7"/>
            <rect x="300" y="90" width="35" height="90" fill="#0050D7" opacity="0.7"/>
            <rect x="350" y="65" width="35" height="115" fill="#0050D7" opacity="0.7"/>
            <rect x="400" y="45" width="35" height="135" fill="#0050D7" opacity="0.7"/>
            <rect x="450" y="55" width="35" height="125" fill="#0050D7" opacity="0.7"/>
            <rect x="500" y="75" width="35" height="105" fill="#0050D7" opacity="0.7"/>
            <rect x="550" y="85" width="35" height="95" fill="#0050D7" opacity="0.7"/>
            <text x="17" y="200" class="text-muted" font-size="9">1</text>
            <text x="167" y="200" class="text-muted" font-size="9">5</text>
            <text x="317" y="200" class="text-muted" font-size="9">10</text>
            <text x="467" y="200" class="text-muted" font-size="9">15</text>
            <text x="567" y="200" class="text-muted" font-size="9">18</text>
          </g>

          <!-- Top agents -->
          <rect x="700" y="245" width="336" height="250" rx="6" fill="#FFFFFF" stroke="#E5E7EB"/>
          <text x="720" y="275" class="text-dark" font-size="14" font-weight="600">🏆 Top agents</text>

          <text x="720" y="315" class="text-dark" font-size="12">1. Jean Dupont</text>
          <text x="950" y="315" class="text-dark" font-size="12">342 appels</text>

          <text x="720" y="350" class="text-dark" font-size="12">2. Marie Martin</text>
          <text x="950" y="350" class="text-dark" font-size="12">298 appels</text>

          <text x="720" y="385" class="text-dark" font-size="12">3. Luc Moreau</text>
          <text x="950" y="385" class="text-dark" font-size="12">267 appels</text>

          <text x="720" y="420" class="text-dark" font-size="12">4. Sophie Bernard</text>
          <text x="950" y="420" class="text-dark" font-size="12">182 appels</text>

          <text x="720" y="470" class="text-primary" font-size="11">Voir toutes les statistiques agents →</text>

          <!-- Export -->
          <rect x="0" y="515" width="140" height="34" rx="4" class="btn-outline"/>
          <text x="70" y="537" class="text-primary" font-size="11" text-anchor="middle">📥 Exporter CSV</text>

          <rect x="160" y="515" width="180" height="34" rx="4" class="btn-outline"/>
          <text x="250" y="537" class="text-primary" font-size="11" text-anchor="middle">📊 Rapport détaillé</text>

        </g>
      </g>
    </g>
  </g>
</svg>
