<svg xmlns="http://www.w3.org/2000/svg" viewBox="0 0 1440 900" width="1440" height="900">
  <defs>
    <style>
      .bg-header { fill: #000E9C; }
      .bg-main { fill: #F6F6F9; }
      .bg-white { fill: #FFFFFF; }
      .bg-primary { fill: #0050D7; }
      .bg-neutral-100 { fill: #F3F4F6; }
      .bg-info { fill: #DBEAFE; }
      .bg-success { fill: #DEF7EC; }
      .bg-error { fill: #FEE2E2; }
      .bg-warning { fill: #FEF3C7; }
      .border { stroke: #E5E7EB; stroke-width: 1; fill: none; }
      .divider { stroke: #E5E7EB; stroke-width: 1; }
      .btn-outline { stroke: #0050D7; stroke-width: 1; fill: #FFFFFF; }
      .btn-primary { fill: #0050D7; }
      .btn-disabled { fill: #E5E7EB; }
      .row-hover { fill: #F9FAFB; }
      .row-selected { fill: #E8F0FE; }
      .table-header { fill: #F9FAFB; }
      .text-white { fill: #FFFFFF; font-family: 'Source Sans Pro', sans-serif; }
      .text-dark { fill: #1F2937; font-family: 'Source Sans Pro', sans-serif; }
      .text-muted { fill: #6B7280; font-family: 'Source Sans Pro', sans-serif; }
      .text-primary { fill: #0050D7; font-family: 'Source Sans Pro', sans-serif; }
      .text-success { fill: #059669; font-family: 'Source Sans Pro', sans-serif; }
      .text-error { fill: #DC2626; font-family: 'Source Sans Pro', sans-serif; }
      .text-info { fill: #1E40AF; font-family: 'Source Sans Pro', sans-serif; }
      .text-warning { fill: #D97706; font-family: 'Source Sans Pro', sans-serif; }
    </style>
  </defs>

  <!-- Background -->
  <rect width="1440" height="900" class="bg-main"/>

  <!-- NAV1 - Header OVH -->
  <rect width="1440" height="50" class="bg-header"/>
  <text x="40" y="32" class="text-white" font-size="14" opacity="0.7">Accueil</text>
  <text x="110" y="32" class="text-white" font-size="14" opacity="0.7">Public Cloud</text>
  <text x="210" y="32" class="text-white" font-size="14" opacity="0.7">Hosted Private Cloud</text>
  <text x="370" y="32" class="text-white" font-size="14" opacity="0.7">Bare Metal Cloud</text>
  <text x="510" y="32" class="text-white" font-size="14" font-weight="600">Web Cloud</text>
  <rect x="505" y="46" width="75" height="3" fill="#FFFFFF"/>
  <text x="620" y="32" class="text-white" font-size="14" opacity="0.7">Network</text>
  <text x="700" y="32" class="text-white" font-size="14" opacity="0.7">IAM / Securite</text>
  <text x="810" y="32" class="text-white" font-size="14" opacity="0.7">Licences</text>
  <rect x="1280" y="12" width="140" height="26" rx="13" fill="rgba(255,255,255,0.2)"/>
  <text x="1320" y="29" class="text-white" font-size="12">xx1234-ovh</text>

  <!-- NAV2 - Web Cloud -->
  <rect x="0" y="50" width="1440" height="40" class="bg-white"/>
  <line x1="0" y1="89" x2="1440" y2="89" class="divider"/>
  <text x="40" y="75" class="text-muted" font-size="14">Accueil</text>
  <text x="110" y="75" class="text-muted" font-size="14">Domaines et DNS</text>
  <text x="240" y="75" class="text-muted" font-size="14">Hébergement</text>
  <text x="345" y="75" class="text-muted" font-size="14">Wordpress</text>
  <text x="430" y="75" class="text-muted" font-size="14">Emails</text>
  <text x="500" y="75" class="text-primary" font-size="14" font-weight="600">VoIP</text>
  <rect x="495" y="85" width="35" height="3" class="bg-primary"/>
  <text x="550" y="75" class="text-muted" font-size="14">Accès</text>
  <text x="1350" y="75" class="text-primary" font-size="13">Guides</text>

  <!-- CONTENT AREA -->
  <g transform="translate(0, 105)">
    <!-- LEFT PANEL -->
    <g transform="translate(24, 0)">
      <rect x="0" y="0" width="280" height="765" rx="8" class="bg-white"/>
      <rect x="0" y="0" width="280" height="765" rx="8" class="border"/>

      <!-- NAV3 - Type selector -->
      <rect x="0" y="0" width="280" height="44" rx="8" fill="#F9FAFB"/>
      <rect x="12" y="10" width="60" height="24" rx="4" fill="#0050D7"/>
      <text x="42" y="26" class="text-white" font-size="11" text-anchor="middle">SIP</text>
      <rect x="76" y="10" width="60" height="24" rx="4" fill="#FFFFFF" stroke="#E5E7EB"/>
      <text x="106" y="26" class="text-muted" font-size="11" text-anchor="middle">SMS</text>
      <rect x="140" y="10" width="60" height="24" rx="4" fill="#FFFFFF" stroke="#E5E7EB"/>
      <text x="170" y="26" class="text-muted" font-size="11" text-anchor="middle">FAX</text>
      <rect x="204" y="10" width="64" height="24" rx="4" fill="#FFFFFF" stroke="#E5E7EB"/>
      <text x="236" y="26" class="text-muted" font-size="11" text-anchor="middle">Trunk</text>
      <line x1="0" y1="44" x2="280" y2="44" class="divider"/>

      <!-- Recherche groupe -->
      <rect x="12" y="56" width="256" height="34" rx="4" fill="#F9FAFB" stroke="#E5E7EB"/>
      <text x="26" y="78" class="text-muted" font-size="12">🔍 Rechercher un groupe...</text>

      <!-- Compteur -->
      <text x="12" y="112" class="text-muted" font-size="11">3 groupes de facturation</text>

      <!-- Liste groupes -->
      <g transform="translate(0, 124)">
        <!-- Groupe sélectionné -->
        <rect x="0" y="0" width="280" height="56" class="row-selected"/>
        <rect x="0" y="0" width="3" height="56" class="bg-primary"/>
        <text x="16" y="22" class="text-dark" font-size="12" font-weight="500">ab12345-ovh-1</text>
        <text x="16" y="40" class="text-muted" font-size="10">Groupe principal</text>
        <rect x="200" y="16" width="46" height="18" rx="9" fill="#DEF7EC"/>
        <text x="223" y="29" fill="#03543F" font-size="10" text-anchor="middle">Actif</text>

        <!-- Groupe 2 -->
        <rect x="0" y="56" width="280" height="56" fill="transparent"/>
        <line x1="12" y1="56" x2="268" y2="56" class="divider"/>
        <text x="16" y="78" class="text-dark" font-size="12">cd67890-ovh-2</text>
        <text x="16" y="96" class="text-muted" font-size="10">Support technique</text>
        <rect x="200" y="72" width="46" height="18" rx="9" fill="#DEF7EC"/>
        <text x="223" y="85" fill="#03543F" font-size="10" text-anchor="middle">Actif</text>

        <!-- Groupe 3 -->
        <rect x="0" y="112" width="280" height="56" fill="transparent"/>
        <line x1="12" y1="112" x2="268" y2="112" class="divider"/>
        <text x="16" y="134" class="text-dark" font-size="12">ef11223-ovh-3</text>
        <text x="16" y="152" class="text-muted" font-size="10">Commercial</text>
        <rect x="200" y="128" width="46" height="18" rx="9" fill="#DEF7EC"/>
        <text x="223" y="141" fill="#03543F" font-size="10" text-anchor="middle">Actif</text>
      </g>
    </g>

    <!-- RIGHT PANEL -->
    <g transform="translate(320, 0)">
      <rect x="0" y="0" width="1096" height="765" rx="8" class="bg-white"/>
      <rect x="0" y="0" width="1096" height="765" rx="8" class="border"/>

      <g transform="translate(20, 0)">
        <!-- Header -->
        <text x="0" y="28" class="text-dark" font-size="18" font-weight="600">ab12345-ovh-1</text>
        <text x="180" y="28" class="text-muted" font-size="14">Groupe principal</text>
        <rect x="380" y="12" width="46" height="20" rx="10" fill="#DEF7EC"/>
        <text x="403" y="26" fill="#03543F" font-size="11" text-anchor="middle">Actif</text>

        <!-- NAV4 - Tabs -->
        <g transform="translate(0, 44)">
          <rect x="0" y="0" width="70" height="28" rx="4" fill="#FFFFFF" stroke="#E5E7EB"/>
          <text x="35" y="18" class="text-muted" font-size="12" text-anchor="middle">Général</text>

          <rect x="78" y="0" width="90" height="28" rx="4" class="bg-primary"/>
          <text x="123" y="18" class="text-white" font-size="12" text-anchor="middle">Commandes</text>

          <rect x="176" y="0" width="80" height="28" rx="4" fill="#FFFFFF" stroke="#E5E7EB"/>
          <text x="216" y="18" class="text-muted" font-size="12" text-anchor="middle">Portabilité</text>

          <rect x="264" y="0" width="95" height="28" rx="4" fill="#FFFFFF" stroke="#E5E7EB"/>
          <text x="311" y="18" class="text-muted" font-size="12" text-anchor="middle">Remboursement</text>

          <rect x="367" y="0" width="70" height="28" rx="4" fill="#FFFFFF" stroke="#E5E7EB"/>
          <text x="402" y="18" class="text-muted" font-size="12" text-anchor="middle">Sécurité</text>
        </g>

        <!-- Titre section -->
        <text x="0" y="102" class="text-dark" font-size="15" font-weight="600">Historique des commandes</text>

        <!-- Bannière info -->
        <rect x="0" y="115" width="1056" height="40" rx="6" class="bg-info"/>
        <text x="20" y="140" class="text-info" font-size="12">ℹ️ Consultez ici l'historique de vos commandes de services VoIP : lignes, numéros, options et portabilités.</text>

        <!-- Toolbar -->
        <g transform="translate(0, 170)">
          <rect x="0" y="0" width="32" height="32" rx="4" class="btn-outline"/>
          <text x="16" y="22" class="text-primary" font-size="14" text-anchor="middle">↻</text>

          <rect x="40" y="0" width="200" height="32" rx="4" fill="#F9FAFB" stroke="#E5E7EB"/>
          <text x="52" y="21" class="text-muted" font-size="11">🔍 Rechercher une commande...</text>

          <!-- Filtre statut -->
          <rect x="250" y="0" width="120" height="32" rx="4" fill="#FFFFFF" stroke="#E5E7EB"/>
          <text x="262" y="21" class="text-dark" font-size="11">Tous les statuts</text>
          <text x="355" y="21" class="text-muted" font-size="10">▼</text>

          <!-- Filtre type -->
          <rect x="380" y="0" width="120" height="32" rx="4" fill="#FFFFFF" stroke="#E5E7EB"/>
          <text x="392" y="21" class="text-dark" font-size="11">Tous les types</text>
          <text x="485" y="21" class="text-muted" font-size="10">▼</text>

          <!-- Filtre période -->
          <rect x="510" y="0" width="140" height="32" rx="4" fill="#FFFFFF" stroke="#E5E7EB"/>
          <text x="522" y="21" class="text-dark" font-size="11">30 derniers jours</text>
          <text x="635" y="21" class="text-muted" font-size="10">▼</text>

          <!-- Export -->
          <rect x="930" y="0" width="126" height="32" rx="4" class="btn-outline"/>
          <text x="993" y="21" class="text-primary" font-size="11" text-anchor="middle">📥 Exporter CSV</text>
        </g>

        <!-- Table commandes -->
        <g transform="translate(0, 218)">
          <!-- Header -->
          <rect x="0" y="0" width="1056" height="40" class="table-header"/>
          <line x1="0" y1="40" x2="1056" y2="40" class="divider"/>
          <text x="16" y="25" class="text-muted" font-size="11" font-weight="600">N° Commande</text>
          <text x="150" y="25" class="text-muted" font-size="11" font-weight="600">Date</text>
          <text x="260" y="25" class="text-muted" font-size="11" font-weight="600">Type</text>
          <text x="400" y="25" class="text-muted" font-size="11" font-weight="600">Description</text>
          <text x="680" y="25" class="text-muted" font-size="11" font-weight="600">Montant</text>
          <text x="780" y="25" class="text-muted" font-size="11" font-weight="600">Statut</text>
          <text x="920" y="25" class="text-muted" font-size="11" font-weight="600">Actions</text>

          <!-- Row 1 - Terminée -->
          <rect x="0" y="40" width="1056" height="45" fill="#FFFFFF"/>
          <line x1="0" y1="85" x2="1056" y2="85" class="divider"/>
          <text x="16" y="67" class="text-primary" font-size="11">ORD-2026010215</text>
          <text x="150" y="67" class="text-dark" font-size="11">02/01/2026 14:32</text>
          <rect x="260" y="53" width="70" height="18" rx="9" fill="#DBEAFE"/>
          <text x="295" y="66" fill="#1E40AF" font-size="10" text-anchor="middle">Ligne SIP</text>
          <text x="400" y="67" class="text-dark" font-size="11">Nouvelle ligne SIP - 0033 1 84 XX XX 15</text>
          <text x="680" y="67" class="text-dark" font-size="11" font-weight="500">9,99 € HT</text>
          <rect x="780" y="53" width="70" height="18" rx="9" fill="#DEF7EC"/>
          <text x="815" y="66" fill="#03543F" font-size="10" text-anchor="middle">Terminée</text>
          <text x="940" y="67" class="text-primary" font-size="12">👁</text>
          <text x="980" y="67" class="text-primary" font-size="11">📋</text>

          <!-- Row 2 - En cours -->
          <rect x="0" y="85" width="1056" height="45" fill="#FFFFFF"/>
          <line x1="0" y1="130" x2="1056" y2="130" class="divider"/>
          <text x="16" y="112" class="text-primary" font-size="11">ORD-2026010112</text>
          <text x="150" y="112" class="text-dark" font-size="11">01/01/2026 09:15</text>
          <rect x="260" y="98" width="75" height="18" rx="9" fill="#FEF3C7"/>
          <text x="298" y="111" fill="#D97706" font-size="10" text-anchor="middle">Portabilité</text>
          <text x="400" y="112" class="text-dark" font-size="11">Portabilité numéro - 0033 6 XX XX XX 00</text>
          <text x="680" y="112" class="text-dark" font-size="11" font-weight="500">0,00 € HT</text>
          <rect x="780" y="98" width="70" height="18" rx="9" fill="#FEF3C7"/>
          <text x="815" y="111" fill="#D97706" font-size="10" text-anchor="middle">En cours</text>
          <text x="940" y="112" class="text-primary" font-size="12">👁</text>
          <text x="980" y="112" class="text-primary" font-size="11">📋</text>

          <!-- Row 3 - Terminée -->
          <rect x="0" y="130" width="1056" height="45" fill="#FFFFFF"/>
          <line x1="0" y1="175" x2="1056" y2="175" class="divider"/>
          <text x="16" y="157" class="text-primary" font-size="11">ORD-2025123108</text>
          <text x="150" y="157" class="text-dark" font-size="11">31/12/2025 16:45</text>
          <rect x="260" y="143" width="55" height="18" rx="9" fill="#F3F4F6"/>
          <text x="288" y="156" fill="#6B7280" font-size="10" text-anchor="middle">Option</text>
          <text x="400" y="157" class="text-dark" font-size="11">Option Click2Call - Ligne 0033 1 84 XX XX 10</text>
          <text x="680" y="157" class="text-dark" font-size="11" font-weight="500">2,99 € HT</text>
          <rect x="780" y="143" width="70" height="18" rx="9" fill="#DEF7EC"/>
          <text x="815" y="156" fill="#03543F" font-size="10" text-anchor="middle">Terminée</text>
          <text x="940" y="157" class="text-primary" font-size="12">👁</text>
          <text x="980" y="157" class="text-primary" font-size="11">📋</text>

          <!-- Row 4 - Annulée -->
          <rect x="0" y="175" width="1056" height="45" fill="#FFFFFF"/>
          <line x1="0" y1="220" x2="1056" y2="220" class="divider"/>
          <text x="16" y="202" class="text-primary" font-size="11">ORD-2025123005</text>
          <text x="150" y="202" class="text-dark" font-size="11">30/12/2025 11:20</text>
          <rect x="260" y="188" width="60" height="18" rx="9" fill="#DBEAFE"/>
          <text x="290" y="201" fill="#1E40AF" font-size="10" text-anchor="middle">Numéro</text>
          <text x="400" y="202" class="text-dark" font-size="11">Commande numéro géographique 04</text>
          <text x="680" y="202" class="text-dark" font-size="11" font-weight="500">1,99 € HT</text>
          <rect x="780" y="188" width="70" height="18" rx="9" fill="#FEE2E2"/>
          <text x="815" y="201" fill="#DC2626" font-size="10" text-anchor="middle">Annulée</text>
          <text x="940" y="202" class="text-primary" font-size="12">👁</text>
          <text x="980" y="202" class="text-primary" font-size="11">📋</text>

          <!-- Row 5 - Terminée -->
          <rect x="0" y="220" width="1056" height="45" fill="#FFFFFF"/>
          <line x1="0" y1="265" x2="1056" y2="265" class="divider"/>
          <text x="16" y="247" class="text-primary" font-size="11">ORD-2025122903</text>
          <text x="150" y="247" class="text-dark" font-size="11">29/12/2025 08:30</text>
          <rect x="260" y="233" width="50" height="18" rx="9" fill="#E0E7FF"/>
          <text x="285" y="246" fill="#4338CA" font-size="10" text-anchor="middle">FAX</text>
          <text x="400" y="247" class="text-dark" font-size="11">Création service FAX - fax-ab12345</text>
          <text x="680" y="247" class="text-dark" font-size="11" font-weight="500">4,99 € HT</text>
          <rect x="780" y="233" width="70" height="18" rx="9" fill="#DEF7EC"/>
          <text x="815" y="246" fill="#03543F" font-size="10" text-anchor="middle">Terminée</text>
          <text x="940" y="247" class="text-primary" font-size="12">👁</text>
          <text x="980" y="247" class="text-primary" font-size="11">📋</text>

          <!-- Row 6 - Terminée -->
          <rect x="0" y="265" width="1056" height="45" fill="#FFFFFF"/>
          <line x1="0" y1="310" x2="1056" y2="310" class="divider"/>
          <text x="16" y="292" class="text-primary" font-size="11">ORD-2025122201</text>
          <text x="150" y="292" class="text-dark" font-size="11">22/12/2025 10:00</text>
          <rect x="260" y="278" width="70" height="18" rx="9" fill="#DBEAFE"/>
          <text x="295" y="291" fill="#1E40AF" font-size="10" text-anchor="middle">Ligne SIP</text>
          <text x="400" y="292" class="text-dark" font-size="11">Pack 5 lignes SIP - Business Pro</text>
          <text x="680" y="292" class="text-dark" font-size="11" font-weight="500">39,99 € HT</text>
          <rect x="780" y="278" width="70" height="18" rx="9" fill="#DEF7EC"/>
          <text x="815" y="291" fill="#03543F" font-size="10" text-anchor="middle">Terminée</text>
          <text x="940" y="292" class="text-primary" font-size="12">👁</text>
          <text x="980" y="292" class="text-primary" font-size="11">📋</text>

          <!-- Row 7 -->
          <rect x="0" y="310" width="1056" height="45" fill="#FFFFFF"/>
          <line x1="0" y1="355" x2="1056" y2="355" class="divider"/>
          <text x="16" y="337" class="text-primary" font-size="11">ORD-2025121502</text>
          <text x="150" y="337" class="text-dark" font-size="11">15/12/2025 14:22</text>
          <rect x="260" y="323" width="55" height="18" rx="9" fill="#F3F4F6"/>
          <text x="288" y="336" fill="#6B7280" font-size="10" text-anchor="middle">Option</text>
          <text x="400" y="337" class="text-dark" font-size="11">Enregistrement appels - Ligne 0033 1 84 XX XX 05</text>
          <text x="680" y="337" class="text-dark" font-size="11" font-weight="500">5,99 € HT</text>
          <rect x="780" y="323" width="70" height="18" rx="9" fill="#DEF7EC"/>
          <text x="815" y="336" fill="#03543F" font-size="10" text-anchor="middle">Terminée</text>
          <text x="940" y="337" class="text-primary" font-size="12">👁</text>
          <text x="980" y="337" class="text-primary" font-size="11">📋</text>

          <!-- Row 8 -->
          <rect x="0" y="355" width="1056" height="45" fill="#FFFFFF"/>
          <line x1="0" y1="400" x2="1056" y2="400" class="divider"/>
          <text x="16" y="382" class="text-primary" font-size="11">ORD-2025120801</text>
          <text x="150" y="382" class="text-dark" font-size="11">08/12/2025 09:45</text>
          <rect x="260" y="368" width="60" height="18" rx="9" fill="#DBEAFE"/>
          <text x="290" y="381" fill="#1E40AF" font-size="10" text-anchor="middle">Numéro</text>
          <text x="400" y="382" class="text-dark" font-size="11">Numéro court 08 - Service client</text>
          <text x="680" y="382" class="text-dark" font-size="11" font-weight="500">14,99 € HT</text>
          <rect x="780" y="368" width="70" height="18" rx="9" fill="#DEF7EC"/>
          <text x="815" y="381" fill="#03543F" font-size="10" text-anchor="middle">Terminée</text>
          <text x="940" y="382" class="text-primary" font-size="12">👁</text>
          <text x="980" y="382" class="text-primary" font-size="11">📋</text>
        </g>

        <!-- Pagination -->
        <g transform="translate(0, 640)">
          <text x="0" y="16" class="text-muted" font-size="11">Affichage 1-8 sur 24 commandes</text>
          <text x="250" y="16" class="text-muted" font-size="11">Par page:</text>
          <rect x="300" y="0" width="50" height="26" rx="4" stroke="#E5E7EB" fill="#FFFFFF"/>
          <text x="318" y="17" class="text-dark" font-size="11">10</text>
          <text x="340" y="17" class="text-muted" font-size="10">▼</text>

          <g transform="translate(880, 0)">
            <rect x="0" y="0" width="28" height="26" rx="4" class="btn-disabled"/>
            <text x="14" y="17" class="text-muted" font-size="12" text-anchor="middle">‹</text>
            <rect x="34" y="0" width="28" height="26" rx="4" class="bg-primary"/>
            <text x="48" y="17" class="text-white" font-size="11" text-anchor="middle">1</text>
            <rect x="68" y="0" width="28" height="26" rx="4" class="btn-outline"/>
            <text x="82" y="17" class="text-primary" font-size="11" text-anchor="middle">2</text>
            <rect x="102" y="0" width="28" height="26" rx="4" class="btn-outline"/>
            <text x="116" y="17" class="text-primary" font-size="11" text-anchor="middle">3</text>
            <rect x="136" y="0" width="28" height="26" rx="4" class="btn-outline"/>
            <text x="150" y="17" class="text-primary" font-size="12" text-anchor="middle">›</text>
          </g>
        </g>
      </g>
    </g>
  </g>
</svg>
