<svg xmlns="http://www.w3.org/2000/svg" viewBox="0 0 1440 900" width="1440" height="900">
  <defs>
    <style>
      .bg-header { fill: #000E9C; }
      .bg-main { fill: #F6F6F9; }
      .bg-white { fill: #FFFFFF; }
      .bg-primary { fill: #0050D7; }
      .bg-success { fill: #DEF7EC; }
      .bg-error { fill: #FEE2E2; }
      .border { stroke: #E5E7EB; stroke-width: 1; fill: none; }
      .btn-outline { stroke: #0050D7; stroke-width: 1; fill: #FFFFFF; }
      .btn-primary { fill: #0050D7; }
      .text-white { fill: #FFFFFF; font-family: 'Source Sans Pro', sans-serif; }
      .text-dark { fill: #1F2937; font-family: 'Source Sans Pro', sans-serif; }
      .text-muted { fill: #6B7280; font-family: 'Source Sans Pro', sans-serif; }
      .text-primary { fill: #0050D7; font-family: 'Source Sans Pro', sans-serif; }
      .text-success { fill: #059669; font-family: 'Source Sans Pro', sans-serif; }
      .text-error { fill: #DC2626; font-family: 'Source Sans Pro', sans-serif; }
    </style>
  </defs>

  <!-- Background -->
  <rect width="1440" height="900" class="bg-main"/>

  <!-- NAV1 -->
  <rect width="1440" height="50" class="bg-header"/>
  <text x="40" y="32" class="text-white" font-size="14" opacity="0.7">Accueil</text>
  <text x="110" y="32" class="text-white" font-size="14" opacity="0.7">Public Cloud</text>
  <text x="210" y="32" class="text-white" font-size="14" opacity="0.7">Hosted Private Cloud</text>
  <text x="370" y="32" class="text-white" font-size="14" opacity="0.7">Bare Metal Cloud</text>
  <text x="510" y="32" class="text-white" font-size="14" font-weight="600">Web Cloud</text>
  <rect x="505" y="46" width="75" height="3" fill="#FFFFFF"/>
  <text x="620" y="32" class="text-white" font-size="14" opacity="0.7">Network</text>
  <text x="700" y="32" class="text-white" font-size="14" opacity="0.7">IAM / Securite</text>
  <text x="810" y="32" class="text-white" font-size="14" opacity="0.7">Licences</text>
  <rect x="1280" y="12" width="140" height="26" rx="13" fill="rgba(255,255,255,0.2)"/>
  <text x="1320" y="29" class="text-white" font-size="12">{nicHandle}</text>

  <!-- NAV2 -->
  <rect x="0" y="50" width="1440" height="40" fill="#FFFFFF"/>
  <line x1="0" y1="89" x2="1440" y2="89" stroke="#E5E7EB"/>
  <text x="40" y="75" class="text-muted" font-size="14">Accueil</text>
  <text x="110" y="75" class="text-muted" font-size="14">Domaines et DNS</text>
  <text x="240" y="75" class="text-muted" font-size="14">Hébergement</text>
  <text x="345" y="75" class="text-muted" font-size="14">Wordpress</text>
  <text x="430" y="75" class="text-muted" font-size="14">Emails</text>
  <text x="500" y="75" class="text-primary" font-size="14" font-weight="600">VoIP</text>
  <rect x="495" y="85" width="35" height="3" fill="#0050D7"/>
  <text x="550" y="75" class="text-muted" font-size="14">Accès</text>
  <text x="1350" y="75" class="text-primary" font-size="13">Guides</text>

  <!-- CONTENT AREA -->
  <g transform="translate(0, 105)">
    <g transform="translate(24, 0)">
      <!-- LEFT PANEL -->
      <rect x="0" y="0" width="280" height="765" rx="8" class="bg-white"/>
      <rect x="0" y="0" width="280" height="765" rx="8" class="border"/>

      <!-- NAV3 - Type selector -->
      <rect x="0" y="0" width="280" height="44" rx="8" fill="#F9FAFB"/>
      <rect x="12" y="10" width="60" height="24" rx="4" fill="#0050D7"/>
      <text x="42" y="26" class="text-white" font-size="11" text-anchor="middle">SIP</text>
      <rect x="76" y="10" width="60" height="24" rx="4" fill="#FFFFFF" stroke="#E5E7EB"/>
      <text x="106" y="26" class="text-muted" font-size="11" text-anchor="middle">SMS</text>
      <rect x="140" y="10" width="60" height="24" rx="4" fill="#FFFFFF" stroke="#E5E7EB"/>
      <text x="170" y="26" class="text-muted" font-size="11" text-anchor="middle">FAX</text>
      <rect x="204" y="10" width="64" height="24" rx="4" fill="#FFFFFF" stroke="#E5E7EB"/>
      <text x="236" y="26" class="text-muted" font-size="11" text-anchor="middle">Trunk</text>
      <line x1="0" y1="44" x2="280" y2="44" stroke="#E5E7EB"/>

      <!-- Recherche -->
      <rect x="12" y="56" width="256" height="34" rx="4" fill="#F9FAFB" stroke="#E5E7EB"/>
      <text x="26" y="78" class="text-muted" font-size="12">Rechercher une ligne...</text>
      <text x="12" y="112" class="text-muted" font-size="11">3 lignes</text>

      <!-- Ligne sélectionnée -->
      <g transform="translate(6, 124)">
        <rect x="0" y="0" width="268" height="65" rx="6" fill="#E8F0FE"/>
        <text x="12" y="22" class="text-dark" font-size="13" font-weight="500">☎️ 0033912345678</text>
        <text x="12" y="40" class="text-muted" font-size="11">Poste Direction</text>
        <text x="12" y="56" class="text-muted" font-size="10">Yealink T46U</text>
        <rect x="200" y="18" width="46" height="18" rx="9" fill="#DEF7EC"/>
        <text x="223" y="31" fill="#03543F" font-size="10" text-anchor="middle">Actif</text>
      </g>
    </g>

    <g transform="translate(320, 0)">
      <!-- RIGHT PANEL -->
      <rect x="0" y="0" width="1096" height="765" rx="8" class="bg-white"/>
      <rect x="0" y="0" width="1096" height="765" rx="8" class="border"/>

      <g transform="translate(20, 0)">
        <!-- HEADER -->
        <text x="0" y="28" class="text-dark" font-size="18" font-weight="600">0033912345678</text>
        <text x="180" y="28" class="text-muted" font-size="14">Poste Direction</text>
        <rect x="330" y="12" width="46" height="18" rx="9" fill="#DEF7EC"/>
        <text x="353" y="25" fill="#03543F" font-size="10" text-anchor="middle">Actif</text>

        <!-- NAV4 TABS - Click2Call actif -->
        <g transform="translate(0, 50)">
          <rect x="0" y="0" width="75" height="26" rx="4" fill="#FFFFFF" stroke="#0050D7"/>
          <text x="37" y="17" class="text-primary" font-size="12" text-anchor="middle">Dashboard</text>

          <rect x="79" y="0" width="60" height="26" rx="4" fill="#FFFFFF" stroke="#0050D7"/>
          <text x="109" y="17" class="text-primary" font-size="12" text-anchor="middle">Général</text>

          <rect x="143" y="0" width="75" height="26" rx="4" fill="#FFFFFF" stroke="#0050D7"/>
          <text x="180" y="17" class="text-primary" font-size="12" text-anchor="middle">Téléphone</text>

          <text x="400" y="17" class="text-muted" font-size="12">...</text>

          <rect x="450" y="0" width="75" height="26" rx="4" fill="#0050D7"/>
          <text x="487" y="17" class="text-white" font-size="12" text-anchor="middle">Click2Call</text>
        </g>

        <!-- CLICK2CALL CONTENT -->
        <g transform="translate(0, 90)">

          <!-- Card principale -->
          <rect x="0" y="0" width="1050" height="500" rx="6" fill="#FFFFFF" stroke="#E5E7EB"/>
          <text x="20" y="32" class="text-dark" font-size="18" font-weight="700">📞 Click to Call</text>
          <text x="20" y="55" class="text-muted" font-size="12">Lancez un appel depuis cette interface vers n'importe quel numéro</text>

          <!-- Zone de saisie numéro -->
          <g transform="translate(20, 80)">
            <text x="0" y="20" class="text-dark" font-size="13" font-weight="500">Numéro à appeler</text>
            <rect x="0" y="30" width="400" height="50" rx="6" fill="#F9FAFB" stroke="#E5E7EB"/>
            <text x="20" y="63" class="text-muted" font-size="16">+33 ...</text>

            <!-- Bouton appeler -->
            <rect x="420" y="30" width="150" height="50" rx="6" fill="#059669"/>
            <text x="495" y="63" class="text-white" font-size="14" font-weight="600" text-anchor="middle">📞 Appeler</text>
          </g>

          <!-- Historique récent -->
          <g transform="translate(20, 180)">
            <text x="0" y="20" class="text-dark" font-size="15" font-weight="700">Historique récent</text>
            <text x="250" y="20" class="text-primary" font-size="11">Voir tout →</text>

            <!-- Table header -->
            <line x1="0" y1="35" x2="600" y2="35" stroke="#E5E7EB"/>
            <text x="0" y="55" class="text-muted" font-size="10">DATE</text>
            <text x="120" y="55" class="text-muted" font-size="10">NUMÉRO APPELÉ</text>
            <text x="320" y="55" class="text-muted" font-size="10">DURÉE</text>
            <text x="420" y="55" class="text-muted" font-size="10">STATUT</text>
            <text x="530" y="55" class="text-muted" font-size="10">ACTION</text>

            <!-- Row 1 -->
            <text x="0" y="85" class="text-dark" font-size="11">31/12 14:32</text>
            <text x="120" y="85" class="text-dark" font-size="11">+33 6 12 34 56 78</text>
            <text x="320" y="85" class="text-dark" font-size="11">5:23</text>
            <rect x="420" y="72" width="60" height="18" rx="9" fill="#DEF7EC"/>
            <text x="450" y="85" fill="#03543F" font-size="9" text-anchor="middle">Abouti</text>
            <text x="530" y="85" class="text-primary" font-size="11">↻ Rappeler</text>

            <!-- Row 2 -->
            <text x="0" y="115" class="text-dark" font-size="11">31/12 11:15</text>
            <text x="120" y="115" class="text-dark" font-size="11">+33 1 45 67 89 01</text>
            <text x="320" y="115" class="text-dark" font-size="11">2:45</text>
            <rect x="420" y="102" width="60" height="18" rx="9" fill="#DEF7EC"/>
            <text x="450" y="115" fill="#03543F" font-size="9" text-anchor="middle">Abouti</text>
            <text x="530" y="115" class="text-primary" font-size="11">↻ Rappeler</text>

            <!-- Row 3 -->
            <text x="0" y="145" class="text-dark" font-size="11">30/12 16:40</text>
            <text x="120" y="145" class="text-dark" font-size="11">+33 9 87 65 43 21</text>
            <text x="320" y="145" class="text-dark" font-size="11">--</text>
            <rect x="420" y="132" width="60" height="18" rx="9" fill="#FEE2E2"/>
            <text x="450" y="145" fill="#DC2626" font-size="9" text-anchor="middle">Échoué</text>
            <text x="530" y="145" class="text-primary" font-size="11">↻ Rappeler</text>

            <!-- Row 4 -->
            <text x="0" y="175" class="text-dark" font-size="11">30/12 10:20</text>
            <text x="120" y="175" class="text-dark" font-size="11">+33 4 56 78 90 12</text>
            <text x="320" y="175" class="text-dark" font-size="11">8:12</text>
            <rect x="420" y="162" width="60" height="18" rx="9" fill="#DEF7EC"/>
            <text x="450" y="175" fill="#03543F" font-size="9" text-anchor="middle">Abouti</text>
            <text x="530" y="175" class="text-primary" font-size="11">↻ Rappeler</text>
          </g>

          <!-- Contacts favoris -->
          <g transform="translate(650, 80)">
            <rect x="0" y="0" width="380" height="280" rx="6" fill="#F9FAFB"/>
            <text x="20" y="30" class="text-dark" font-size="15" font-weight="700">⭐ Contacts favoris</text>

            <!-- Contact 1 -->
            <rect x="20" y="50" width="340" height="50" rx="4" fill="#FFFFFF" stroke="#E5E7EB"/>
            <circle cx="50" cy="75" r="15" fill="#E8F0FE"/>
            <text x="50" y="80" class="text-primary" font-size="12" text-anchor="middle">JD</text>
            <text x="80" y="70" class="text-dark" font-size="12" font-weight="500">Jean Dupont</text>
            <text x="80" y="88" class="text-muted" font-size="10">+33 6 12 34 56 78</text>
            <rect x="280" y="60" width="60" height="28" rx="4" fill="#059669"/>
            <text x="310" y="79" class="text-white" font-size="10" text-anchor="middle">📞</text>

            <!-- Contact 2 -->
            <rect x="20" y="110" width="340" height="50" rx="4" fill="#FFFFFF" stroke="#E5E7EB"/>
            <circle cx="50" cy="135" r="15" fill="#E8F0FE"/>
            <text x="50" y="140" class="text-primary" font-size="12" text-anchor="middle">ML</text>
            <text x="80" y="130" class="text-dark" font-size="12" font-weight="500">Marie Lefebvre</text>
            <text x="80" y="148" class="text-muted" font-size="10">+33 1 45 67 89 01</text>
            <rect x="280" y="120" width="60" height="28" rx="4" fill="#059669"/>
            <text x="310" y="139" class="text-white" font-size="10" text-anchor="middle">📞</text>

            <!-- Contact 3 -->
            <rect x="20" y="170" width="340" height="50" rx="4" fill="#FFFFFF" stroke="#E5E7EB"/>
            <circle cx="50" cy="195" r="15" fill="#E8F0FE"/>
            <text x="50" y="200" class="text-primary" font-size="12" text-anchor="middle">PM</text>
            <text x="80" y="190" class="text-dark" font-size="12" font-weight="500">Pierre Martin</text>
            <text x="80" y="208" class="text-muted" font-size="10">+33 9 87 65 43 21</text>
            <rect x="280" y="180" width="60" height="28" rx="4" fill="#059669"/>
            <text x="310" y="199" class="text-white" font-size="10" text-anchor="middle">📞</text>

            <text x="20" y="255" class="text-primary" font-size="11">+ Ajouter un favori</text>
          </g>

          <!-- Info banner -->
          <g transform="translate(20, 400)">
            <rect x="0" y="0" width="600" height="60" rx="6" fill="#DBEAFE"/>
            <text x="20" y="25" fill="#1E40AF" font-size="12" font-weight="500">ℹ️ Comment ça marche ?</text>
            <text x="20" y="45" fill="#1E40AF" font-size="11">1. Entrez le numéro à appeler  2. Cliquez sur "Appeler"  3. Votre téléphone sonne, décrochez pour lancer l'appel</text>
          </g>

        </g>
      </g>
    </g>
  </g>
</svg>
