<svg xmlns="http://www.w3.org/2000/svg" viewBox="0 0 1440 900" width="1440" height="900">
  <defs>
    <style>
      .bg-header { fill: #000E9C; }
      .bg-main { fill: #F6F6F9; }
      .bg-white { fill: #FFFFFF; }
      .bg-primary { fill: #0050D7; }
      .bg-success { fill: #DEF7EC; }
      .bg-info { fill: #DBEAFE; }
      .border { stroke: #E5E7EB; stroke-width: 1; fill: none; }
      .divider { stroke: #E5E7EB; stroke-width: 1; }
      .text-white { fill: #FFFFFF; font-family: 'Source Sans Pro', sans-serif; }
      .text-dark { fill: #1F2937; font-family: 'Source Sans Pro', sans-serif; }
      .text-muted { fill: #6B7280; font-family: 'Source Sans Pro', sans-serif; }
      .text-primary { fill: #0050D7; font-family: 'Source Sans Pro', sans-serif; }
      .text-success { fill: #059669; font-family: 'Source Sans Pro', sans-serif; }
      .text-error { fill: #DC2626; font-family: 'Source Sans Pro', sans-serif; }
    </style>
  </defs>

  <!-- Background -->
  <rect width="1440" height="900" class="bg-main"/>

  <!-- NAV1 - Header OVH -->
  <rect width="1440" height="50" class="bg-header"/>
  <text x="40" y="32" class="text-white" font-size="14" opacity="0.7">Accueil</text>
  <text x="110" y="32" class="text-white" font-size="14" opacity="0.7">Public Cloud</text>
  <text x="210" y="32" class="text-white" font-size="14" opacity="0.7">Hosted Private Cloud</text>
  <text x="370" y="32" class="text-white" font-size="14" opacity="0.7">Bare Metal Cloud</text>
  <text x="510" y="32" class="text-white" font-size="14" font-weight="600">Web Cloud</text>
  <rect x="505" y="46" width="75" height="3" fill="#FFFFFF"/>
  <text x="620" y="32" class="text-white" font-size="14" opacity="0.7">Network</text>
  <rect x="1280" y="12" width="140" height="26" rx="13" fill="rgba(255,255,255,0.2)"/>
  <text x="1320" y="29" class="text-white" font-size="12">ab12345-ovh</text>

  <!-- NAV2 - Web Cloud -->
  <rect x="0" y="50" width="1440" height="40" fill="#FFFFFF"/>
  <line x1="0" y1="89" x2="1440" y2="89" stroke="#E5E7EB"/>
  <text x="40" y="75" class="text-muted" font-size="14">Accueil</text>
  <text x="110" y="75" class="text-muted" font-size="14">Domaines et DNS</text>
  <text x="240" y="75" class="text-muted" font-size="14">Hébergement</text>
  <text x="345" y="75" class="text-muted" font-size="14">Wordpress</text>
  <text x="430" y="75" class="text-muted" font-size="14">Emails</text>
  <text x="500" y="75" class="text-primary" font-size="14" font-weight="600">VoIP</text>
  <rect x="495" y="85" width="35" height="3" fill="#0050D7"/>
  <text x="550" y="75" class="text-muted" font-size="14">Accès</text>
  <text x="1350" y="75" class="text-primary" font-size="13">Guides</text>

  <!-- CONTENT AREA -->
  <g transform="translate(0, 105)">
    <g transform="translate(24, 0)">

      <!-- LEFT PANEL -->
      <rect x="0" y="0" width="280" height="765" rx="8" class="bg-white"/>
      <rect x="0" y="0" width="280" height="765" rx="8" class="border"/>

      <!-- NAV3 -->
      <rect x="0" y="0" width="280" height="44" rx="8" fill="#F9FAFB"/>
      <rect x="12" y="10" width="60" height="24" rx="4" fill="#FFFFFF" stroke="#E5E7EB"/>
      <text x="42" y="26" class="text-muted" font-size="11" text-anchor="middle">SIP</text>
      <rect x="76" y="10" width="60" height="24" rx="4" fill="#FFFFFF" stroke="#E5E7EB"/>
      <text x="106" y="26" class="text-muted" font-size="11" text-anchor="middle">SMS</text>
      <rect x="140" y="10" width="60" height="24" rx="4" fill="#FFFFFF" stroke="#E5E7EB"/>
      <text x="170" y="26" class="text-muted" font-size="11" text-anchor="middle">FAX</text>
      <rect x="204" y="10" width="64" height="24" rx="4" fill="#0050D7"/>
      <text x="236" y="26" class="text-white" font-size="11" text-anchor="middle">Trunk</text>
      <line x1="0" y1="44" x2="280" y2="44" class="divider"/>

      <!-- Search -->
      <rect x="12" y="56" width="256" height="34" rx="4" fill="#F9FAFB" stroke="#E5E7EB"/>
      <text x="26" y="78" class="text-muted" font-size="12">🔍 Rechercher...</text>
      <text x="12" y="112" class="text-muted" font-size="11">2 trunks SIP</text>

      <!-- Trunk items -->
      <g transform="translate(0, 124)">
        <rect x="0" y="0" width="280" height="56" fill="#E8F0FE"/>
        <text x="16" y="22" class="text-dark" font-size="13" font-weight="600">trunk-ab12345-1</text>
        <text x="16" y="40" class="text-muted" font-size="11">Production</text>
      </g>

    </g>

    <g transform="translate(320, 0)">

      <!-- RIGHT PANEL -->
      <rect x="0" y="0" width="1096" height="765" rx="8" class="bg-white"/>
      <rect x="0" y="0" width="1096" height="765" rx="8" class="border"/>

      <g transform="translate(20, 0)">
        <!-- Header -->
        <text x="0" y="28" class="text-dark" font-size="18" font-weight="600">trunk-ab12345-1</text>
        <text x="180" y="28" class="text-muted" font-size="13">Production</text>
        <rect x="290" y="12" width="46" height="20" rx="10" class="bg-success"/>
        <text x="313" y="26" fill="#03543F" font-size="10" text-anchor="middle">Actif</text>

        <!-- NAV4 - Tabs -->
        <g transform="translate(0, 42)">
          <rect x="0" y="0" width="70" height="26" rx="4" fill="#FFFFFF" stroke="#E5E7EB"/>
          <text x="35" y="17" class="text-muted" font-size="12" text-anchor="middle">Général</text>
          <rect x="74" y="0" width="100" height="26" rx="4" fill="#FFFFFF" stroke="#E5E7EB"/>
          <text x="124" y="17" class="text-muted" font-size="12" text-anchor="middle">Paramètres</text>
          <rect x="178" y="0" width="80" height="26" rx="4" fill="#FFFFFF" stroke="#E5E7EB"/>
          <text x="218" y="17" class="text-muted" font-size="12" text-anchor="middle">Routage</text>
          <rect x="262" y="0" width="60" height="26" rx="4" fill="#FFFFFF" stroke="#E5E7EB"/>
          <text x="292" y="17" class="text-muted" font-size="12" text-anchor="middle">CDR</text>
          <rect x="326" y="0" width="55" height="26" rx="4" fill="#0050D7"/>
          <text x="353" y="17" class="text-white" font-size="12" text-anchor="middle">DDI</text>
        </g>

        <!-- Content -->
        <g transform="translate(0, 90)">
          <text x="0" y="20" class="text-dark" font-size="15" font-weight="700">Numéros DDI</text>
          <text x="0" y="40" class="text-muted" font-size="11">Gérez les numéros SDA (Sélection Directe à l'Arrivée) associés à ce trunk</text>

          <!-- Info banner -->
          <g transform="translate(0, 55)">
            <rect x="0" y="0" width="1048" height="40" rx="6" class="bg-info"/>
            <text x="20" y="25" fill="#1E40AF" font-size="11">📞 12 numéros DDI sur 20 utilisés | Plage disponible: +33 1 84 XX XX 00 à +33 1 84 XX XX 19</text>
          </g>

          <!-- Toolbar -->
          <g transform="translate(0, 110)">
            <rect x="0" y="0" width="32" height="32" rx="4" stroke="#0050D7" fill="#FFFFFF"/>
            <text x="16" y="22" class="text-primary" font-size="14" text-anchor="middle">↻</text>

            <rect x="40" y="0" width="180" height="32" rx="4" fill="#F9FAFB" stroke="#E5E7EB"/>
            <text x="52" y="21" class="text-muted" font-size="11">🔍 Rechercher DDI...</text>

            <rect x="230" y="0" width="100" height="32" rx="4" fill="#FFFFFF" stroke="#E5E7EB"/>
            <text x="250" y="21" class="text-muted" font-size="11">Statut</text>
            <text x="310" y="21" class="text-muted" font-size="10">▼</text>

            <rect x="730" y="0" width="150" height="32" rx="4" stroke="#0050D7" fill="#FFFFFF"/>
            <text x="805" y="21" class="text-primary" font-size="11" text-anchor="middle">Commander DDI</text>

            <rect x="890" y="0" width="160" height="32" rx="4" class="bg-primary"/>
            <text x="970" y="21" class="text-white" font-size="11" text-anchor="middle">+ Ajouter existant</text>
          </g>

          <!-- Table -->
          <g transform="translate(0, 160)">
            <rect x="0" y="0" width="1048" height="450" rx="8" fill="#F9FAFB" stroke="#E5E7EB"/>

            <!-- Table Header -->
            <rect x="0" y="0" width="1048" height="40" rx="8" fill="#F3F4F6"/>
            <rect x="24" y="14" width="16" height="16" rx="2" stroke="#E5E7EB" fill="#FFFFFF"/>
            <text x="60" y="26" class="text-muted" font-size="10" font-weight="600">NUMÉRO DDI</text>
            <text x="240" y="26" class="text-muted" font-size="10" font-weight="600">DESCRIPTION</text>
            <text x="450" y="26" class="text-muted" font-size="10" font-weight="600">DESTINATION</text>
            <text x="650" y="26" class="text-muted" font-size="10" font-weight="600">TYPE</text>
            <text x="770" y="26" class="text-muted" font-size="10" font-weight="600">STATUT</text>
            <text x="900" y="26" class="text-muted" font-size="10" font-weight="600">ACTIONS</text>

            <!-- Row 1 -->
            <g transform="translate(0, 40)">
              <rect x="0" y="0" width="1048" height="50" fill="#FFFFFF"/>
              <rect x="24" y="18" width="16" height="16" rx="2" stroke="#E5E7EB" fill="#FFFFFF"/>
              <text x="60" y="30" class="text-dark" font-size="11" font-weight="500">+33 1 84 XX XX 00</text>
              <text x="60" y="45" class="text-muted" font-size="9">Numéro principal</text>
              <text x="240" y="32" class="text-dark" font-size="11">Accueil standard</text>
              <text x="450" y="32" class="text-dark" font-size="11">SVI → Menu principal</text>
              <rect x="650" y="18" width="70" height="20" rx="10" fill="#DBEAFE"/>
              <text x="685" y="32" fill="#1E40AF" font-size="9" text-anchor="middle">Principal</text>
              <rect x="770" y="18" width="50" height="20" rx="10" class="bg-success"/>
              <text x="795" y="32" fill="#03543F" font-size="9" text-anchor="middle">Actif</text>
              <text x="900" y="32" class="text-primary" font-size="11">✎ 📋 ×</text>
            </g>
            <line x1="24" y1="90" x2="1024" y2="90" class="divider"/>

            <!-- Row 2 -->
            <g transform="translate(0, 90)">
              <rect x="0" y="0" width="1048" height="50" fill="#FFFFFF"/>
              <rect x="24" y="18" width="16" height="16" rx="2" stroke="#E5E7EB" fill="#FFFFFF"/>
              <text x="60" y="30" class="text-dark" font-size="11">+33 1 84 XX XX 01</text>
              <text x="240" y="32" class="text-dark" font-size="11">Commercial 1</text>
              <text x="450" y="32" class="text-dark" font-size="11">Extension 101</text>
              <rect x="650" y="18" width="50" height="20" rx="10" fill="#F3F4F6"/>
              <text x="675" y="32" class="text-muted" font-size="9" text-anchor="middle">SDA</text>
              <rect x="770" y="18" width="50" height="20" rx="10" class="bg-success"/>
              <text x="795" y="32" fill="#03543F" font-size="9" text-anchor="middle">Actif</text>
              <text x="900" y="32" class="text-primary" font-size="11">✎ 📋 ×</text>
            </g>
            <line x1="24" y1="140" x2="1024" y2="140" class="divider"/>

            <!-- Row 3 -->
            <g transform="translate(0, 140)">
              <rect x="0" y="0" width="1048" height="50" fill="#FFFFFF"/>
              <rect x="24" y="18" width="16" height="16" rx="2" stroke="#E5E7EB" fill="#FFFFFF"/>
              <text x="60" y="30" class="text-dark" font-size="11">+33 1 84 XX XX 02</text>
              <text x="240" y="32" class="text-dark" font-size="11">Commercial 2</text>
              <text x="450" y="32" class="text-dark" font-size="11">Extension 102</text>
              <rect x="650" y="18" width="50" height="20" rx="10" fill="#F3F4F6"/>
              <text x="675" y="32" class="text-muted" font-size="9" text-anchor="middle">SDA</text>
              <rect x="770" y="18" width="50" height="20" rx="10" class="bg-success"/>
              <text x="795" y="32" fill="#03543F" font-size="9" text-anchor="middle">Actif</text>
              <text x="900" y="32" class="text-primary" font-size="11">✎ 📋 ×</text>
            </g>
            <line x1="24" y1="190" x2="1024" y2="190" class="divider"/>

            <!-- Row 4 -->
            <g transform="translate(0, 190)">
              <rect x="0" y="0" width="1048" height="50" fill="#FFFFFF"/>
              <rect x="24" y="18" width="16" height="16" rx="2" stroke="#E5E7EB" fill="#FFFFFF"/>
              <text x="60" y="30" class="text-dark" font-size="11">+33 1 84 XX XX 03</text>
              <text x="240" y="32" class="text-dark" font-size="11">Support technique</text>
              <text x="450" y="32" class="text-dark" font-size="11">File d'attente Support</text>
              <rect x="650" y="18" width="50" height="20" rx="10" fill="#F3F4F6"/>
              <text x="675" y="32" class="text-muted" font-size="9" text-anchor="middle">SDA</text>
              <rect x="770" y="18" width="50" height="20" rx="10" class="bg-success"/>
              <text x="795" y="32" fill="#03543F" font-size="9" text-anchor="middle">Actif</text>
              <text x="900" y="32" class="text-primary" font-size="11">✎ 📋 ×</text>
            </g>
            <line x1="24" y1="240" x2="1024" y2="240" class="divider"/>

            <!-- Row 5 -->
            <g transform="translate(0, 240)">
              <rect x="0" y="0" width="1048" height="50" fill="#FFFFFF"/>
              <rect x="24" y="18" width="16" height="16" rx="2" stroke="#E5E7EB" fill="#FFFFFF"/>
              <text x="60" y="30" class="text-dark" font-size="11">+33 1 84 XX XX 04</text>
              <text x="240" y="32" class="text-dark" font-size="11">Fax</text>
              <text x="450" y="32" class="text-dark" font-size="11">Service Fax</text>
              <rect x="650" y="18" width="50" height="20" rx="10" fill="#FEF3C7"/>
              <text x="675" y="32" fill="#D97706" font-size="9" text-anchor="middle">Fax</text>
              <rect x="770" y="18" width="50" height="20" rx="10" class="bg-success"/>
              <text x="795" y="32" fill="#03543F" font-size="9" text-anchor="middle">Actif</text>
              <text x="900" y="32" class="text-primary" font-size="11">✎ 📋 ×</text>
            </g>
            <line x1="24" y1="290" x2="1024" y2="290" class="divider"/>

            <!-- Row 6 - Not configured -->
            <g transform="translate(0, 290)">
              <rect x="0" y="0" width="1048" height="50" fill="#FFFFFF"/>
              <rect x="24" y="18" width="16" height="16" rx="2" stroke="#E5E7EB" fill="#FFFFFF"/>
              <text x="60" y="32" class="text-dark" font-size="11">+33 1 84 XX XX 05-10</text>
              <text x="240" y="32" class="text-muted" font-size="11">Plage commerciale</text>
              <text x="450" y="32" class="text-muted" font-size="11">Extensions 105-110</text>
              <rect x="650" y="18" width="50" height="20" rx="10" fill="#F3F4F6"/>
              <text x="675" y="32" class="text-muted" font-size="9" text-anchor="middle">Plage</text>
              <rect x="770" y="18" width="50" height="20" rx="10" class="bg-success"/>
              <text x="795" y="32" fill="#03543F" font-size="9" text-anchor="middle">Actif</text>
              <text x="900" y="32" class="text-primary" font-size="11">✎ 📋 ×</text>
            </g>
            <line x1="24" y1="340" x2="1024" y2="340" class="divider"/>

            <!-- Row 7 - Inactive -->
            <g transform="translate(0, 340)">
              <rect x="0" y="0" width="1048" height="50" fill="#FFFFFF"/>
              <rect x="24" y="18" width="16" height="16" rx="2" stroke="#E5E7EB" fill="#FFFFFF"/>
              <text x="60" y="32" class="text-muted" font-size="11">+33 1 84 XX XX 11</text>
              <text x="240" y="32" class="text-muted" font-size="11">Non attribué</text>
              <text x="450" y="32" class="text-muted" font-size="11">—</text>
              <rect x="650" y="18" width="50" height="20" rx="10" fill="#F3F4F6"/>
              <text x="675" y="32" class="text-muted" font-size="9" text-anchor="middle">SDA</text>
              <rect x="770" y="18" width="60" height="20" rx="10" fill="#F3F4F6"/>
              <text x="800" y="32" class="text-muted" font-size="9" text-anchor="middle">Inactif</text>
              <text x="900" y="32" class="text-primary" font-size="11">✎ ×</text>
            </g>
          </g>

          <!-- Pagination -->
          <g transform="translate(0, 625)">
            <text x="0" y="16" class="text-muted" font-size="11">Affichage 1-7 sur 12 DDI</text>
            <text x="200" y="16" class="text-muted" font-size="11">Par page:</text>
            <rect x="255" y="0" width="50" height="26" rx="4" stroke="#E5E7EB" fill="#FFFFFF"/>
            <text x="273" y="17" class="text-dark" font-size="11">10</text>
            <text x="295" y="17" class="text-muted" font-size="10">▼</text>
            <g transform="translate(920, 0)">
              <rect x="0" y="0" width="28" height="26" rx="4" fill="#E5E7EB"/>
              <text x="14" y="17" class="text-muted" font-size="12" text-anchor="middle">‹</text>
              <rect x="34" y="0" width="28" height="26" rx="4" class="bg-primary"/>
              <text x="48" y="17" class="text-white" font-size="11" text-anchor="middle">1</text>
              <rect x="68" y="0" width="28" height="26" rx="4" stroke="#0050D7" fill="#FFFFFF"/>
              <text x="82" y="17" class="text-primary" font-size="11" text-anchor="middle">2</text>
              <rect x="102" y="0" width="28" height="26" rx="4" stroke="#0050D7" fill="#FFFFFF"/>
              <text x="116" y="17" class="text-primary" font-size="12" text-anchor="middle">›</text>
            </g>
          </g>
        </g>
      </g>

    </g>
  </g>
</svg>
