<svg xmlns="http://www.w3.org/2000/svg" viewBox="0 0 1440 900" width="1440" height="900">
  <defs>
    <style>
      .bg-header { fill: #000E9C; }
      .bg-main { fill: #F6F6F9; }
      .bg-white { fill: #FFFFFF; }
      .bg-primary { fill: #0050D7; }
      .bg-success { fill: #DEF7EC; }
      .bg-info { fill: #DBEAFE; }
      .border { stroke: #E5E7EB; stroke-width: 1; fill: none; }
      .divider { stroke: #E5E7EB; stroke-width: 1; }
      .text-white { fill: #FFFFFF; font-family: 'Source Sans Pro', sans-serif; }
      .text-dark { fill: #1F2937; font-family: 'Source Sans Pro', sans-serif; }
      .text-muted { fill: #6B7280; font-family: 'Source Sans Pro', sans-serif; }
      .text-primary { fill: #0050D7; font-family: 'Source Sans Pro', sans-serif; }
      .text-info { fill: #1E40AF; font-family: 'Source Sans Pro', sans-serif; }
    </style>
  </defs>

  <!-- Background -->
  <rect width="1440" height="900" class="bg-main"/>

  <!-- NAV1 - Header OVH -->
  <rect width="1440" height="50" class="bg-header"/>
  <text x="40" y="32" class="text-white" font-size="14" opacity="0.7">Accueil</text>
  <text x="110" y="32" class="text-white" font-size="14" opacity="0.7">Public Cloud</text>
  <text x="210" y="32" class="text-white" font-size="14" opacity="0.7">Hosted Private Cloud</text>
  <text x="370" y="32" class="text-white" font-size="14" opacity="0.7">Bare Metal Cloud</text>
  <text x="510" y="32" class="text-white" font-size="14" font-weight="600">Web Cloud</text>
  <rect x="505" y="46" width="75" height="3" fill="#FFFFFF"/>
  <text x="620" y="32" class="text-white" font-size="14" opacity="0.7">Network</text>
  <rect x="1280" y="12" width="140" height="26" rx="13" fill="rgba(255,255,255,0.2)"/>
  <text x="1320" y="29" class="text-white" font-size="12">ab12345-ovh</text>

  <!-- NAV2 - Web Cloud -->
  <rect x="0" y="50" width="1440" height="40" fill="#FFFFFF"/>
  <line x1="0" y1="89" x2="1440" y2="89" stroke="#E5E7EB"/>
  <text x="40" y="75" class="text-muted" font-size="14">Accueil</text>
  <text x="110" y="75" class="text-muted" font-size="14">Domaines et DNS</text>
  <text x="240" y="75" class="text-muted" font-size="14">Hébergement</text>
  <text x="345" y="75" class="text-muted" font-size="14">Wordpress</text>
  <text x="430" y="75" class="text-muted" font-size="14">Emails</text>
  <text x="500" y="75" class="text-primary" font-size="14" font-weight="600">VoIP</text>
  <rect x="495" y="85" width="35" height="3" fill="#0050D7"/>
  <text x="550" y="75" class="text-muted" font-size="14">Accès</text>
  <text x="1350" y="75" class="text-primary" font-size="13">Guides</text>

  <!-- CONTENT AREA -->
  <g transform="translate(0, 105)">
    <g transform="translate(24, 0)">

      <!-- LEFT PANEL -->
      <rect x="0" y="0" width="280" height="765" rx="8" class="bg-white"/>
      <rect x="0" y="0" width="280" height="765" rx="8" class="border"/>

      <!-- NAV3 -->
      <rect x="0" y="0" width="280" height="44" rx="8" fill="#F9FAFB"/>
      <rect x="12" y="10" width="60" height="24" rx="4" fill="#0050D7"/>
      <text x="42" y="26" class="text-white" font-size="11" text-anchor="middle">SIP</text>
      <rect x="76" y="10" width="60" height="24" rx="4" fill="#FFFFFF" stroke="#E5E7EB"/>
      <text x="106" y="26" class="text-muted" font-size="11" text-anchor="middle">SMS</text>
      <rect x="140" y="10" width="60" height="24" rx="4" fill="#FFFFFF" stroke="#E5E7EB"/>
      <text x="170" y="26" class="text-muted" font-size="11" text-anchor="middle">FAX</text>
      <rect x="204" y="10" width="64" height="24" rx="4" fill="#FFFFFF" stroke="#E5E7EB"/>
      <text x="236" y="26" class="text-muted" font-size="11" text-anchor="middle">Trunk</text>
      <line x1="0" y1="44" x2="280" y2="44" class="divider"/>

      <!-- Search -->
      <rect x="12" y="56" width="256" height="34" rx="4" fill="#F9FAFB" stroke="#E5E7EB"/>
      <text x="26" y="78" class="text-muted" font-size="12">🔍 Rechercher...</text>
      <text x="12" y="112" class="text-muted" font-size="11">3 numéros</text>

      <!-- Number items -->
      <g transform="translate(0, 124)">
        <rect x="0" y="0" width="280" height="56" fill="#E8F0FE"/>
        <text x="16" y="22" class="text-dark" font-size="13" font-weight="600">09 72 10 XX XX</text>
        <text x="16" y="40" class="text-muted" font-size="11">Standard principal</text>
      </g>
      <g transform="translate(0, 180)">
        <rect x="0" y="0" width="280" height="56" fill="#FFFFFF"/>
        <text x="16" y="22" class="text-dark" font-size="13" font-weight="600">+33 1 23 45 67 00</text>
        <text x="16" y="40" class="text-muted" font-size="11">Conférence</text>
      </g>

    </g>

    <g transform="translate(320, 0)">

      <!-- RIGHT PANEL -->
      <rect x="0" y="0" width="1096" height="765" rx="8" class="bg-white"/>
      <rect x="0" y="0" width="1096" height="765" rx="8" class="border"/>

      <g transform="translate(20, 0)">
        <!-- Header -->
        <text x="0" y="28" class="text-dark" font-size="18" font-weight="600">09 72 10 XX XX</text>
        <text x="160" y="28" class="text-muted" font-size="13">Standard principal</text>
        <rect x="320" y="12" width="46" height="20" rx="10" class="bg-success"/>
        <text x="343" y="26" fill="#03543F" font-size="10" text-anchor="middle">Actif</text>

        <!-- NAV4 - Tabs -->
        <g transform="translate(0, 42)">
          <rect x="0" y="0" width="70" height="26" rx="4" fill="#0050D7"/>
          <text x="35" y="17" class="text-white" font-size="12" text-anchor="middle">Général</text>
          <rect x="74" y="0" width="80" height="26" rx="4" fill="#FFFFFF" stroke="#E5E7EB"/>
          <text x="114" y="17" class="text-muted" font-size="12" text-anchor="middle">Agents</text>
          <rect x="158" y="0" width="60" height="26" rx="4" fill="#FFFFFF" stroke="#E5E7EB"/>
          <text x="188" y="17" class="text-muted" font-size="12" text-anchor="middle">Sons</text>
          <rect x="222" y="0" width="80" height="26" rx="4" fill="#FFFFFF" stroke="#E5E7EB"/>
          <text x="262" y="17" class="text-muted" font-size="12" text-anchor="middle">Horaires</text>
          <rect x="306" y="0" width="70" height="26" rx="4" fill="#FFFFFF" stroke="#E5E7EB"/>
          <text x="341" y="17" class="text-muted" font-size="12" text-anchor="middle">Filtrage</text>
        </g>

        <!-- Content -->
        <g transform="translate(0, 90)">
          <!-- Info card -->
          <g transform="translate(0, 0)">
            <rect x="0" y="0" width="520" height="180" rx="8" fill="#F9FAFB" stroke="#E5E7EB"/>
            <text x="24" y="30" class="text-dark" font-size="13" font-weight="600">Informations du numéro</text>

            <g transform="translate(24, 50)">
              <text x="0" y="0" class="text-muted" font-size="11">Numéro</text>
              <text x="0" y="18" class="text-dark" font-size="12" font-weight="600">09 72 10 XX XX</text>
            </g>
            <g transform="translate(200, 50)">
              <text x="0" y="0" class="text-muted" font-size="11">Type de configuration</text>
              <text x="0" y="18" class="text-dark" font-size="12">Contact Center Solution</text>
            </g>
            <g transform="translate(24, 100)">
              <text x="0" y="0" class="text-muted" font-size="11">Description</text>
              <text x="0" y="18" class="text-dark" font-size="12">Standard principal</text>
              <text x="130" y="18" class="text-primary" font-size="10">✎</text>
            </g>
            <g transform="translate(200, 100)">
              <text x="0" y="0" class="text-muted" font-size="11">Statut</text>
              <rect x="0" y="6" width="46" height="18" rx="9" fill="#DEF7EC"/>
              <text x="23" y="19" fill="#03543F" font-size="10" text-anchor="middle">Actif</text>
            </g>
            <g transform="translate(350, 100)">
              <text x="0" y="0" class="text-muted" font-size="11">Agents connectés</text>
              <text x="0" y="18" class="text-dark" font-size="12" font-weight="600">3 / 5</text>
            </g>
          </g>

          <!-- Info banner -->
          <g transform="translate(540, 0)">
            <rect x="0" y="0" width="516" height="180" rx="8" class="bg-info"/>
            <text x="24" y="30" class="text-info" font-size="13" font-weight="600">Contact Center Solution</text>
            <text x="24" y="55" class="text-info" font-size="11">File d'attente avancée avec :</text>
            <text x="24" y="80" class="text-info" font-size="11">• Gestion des agents</text>
            <text x="24" y="100" class="text-info" font-size="11">• Musique d'attente personnalisée</text>
            <text x="24" y="120" class="text-info" font-size="11">• Stratégies de distribution</text>
            <text x="24" y="140" class="text-info" font-size="11">• Filtrage des appels</text>
            <text x="24" y="160" class="text-info" font-size="11">• Statistiques temps réel</text>
          </g>

          <!-- Quick actions -->
          <g transform="translate(0, 200)">
            <text x="0" y="20" class="text-dark" font-size="13" font-weight="600">Configuration</text>

            <g transform="translate(0, 40)">
              <rect x="0" y="0" width="340" height="80" rx="6" fill="#F9FAFB" stroke="#E5E7EB"/>
              <text x="20" y="32" class="text-dark" font-size="12" font-weight="600">Gestion des agents</text>
              <text x="20" y="52" class="text-muted" font-size="10">Ajouter, configurer et gérer les agents</text>
              <text x="310" y="42" class="text-muted" font-size="14">→</text>
            </g>
            <g transform="translate(356, 40)">
              <rect x="0" y="0" width="340" height="80" rx="6" fill="#F9FAFB" stroke="#E5E7EB"/>
              <text x="20" y="32" class="text-dark" font-size="12" font-weight="600">Sons et musique d'attente</text>
              <text x="20" y="52" class="text-muted" font-size="10">Personnaliser les annonces audio</text>
              <text x="310" y="42" class="text-muted" font-size="14">→</text>
            </g>
            <g transform="translate(712, 40)">
              <rect x="0" y="0" width="340" height="80" rx="6" fill="#F9FAFB" stroke="#E5E7EB"/>
              <text x="20" y="32" class="text-dark" font-size="12" font-weight="600">Plages horaires</text>
              <text x="20" y="52" class="text-muted" font-size="10">Définir les horaires d'ouverture</text>
              <text x="310" y="42" class="text-muted" font-size="14">→</text>
            </g>

            <g transform="translate(0, 136)">
              <rect x="0" y="0" width="340" height="80" rx="6" fill="#F9FAFB" stroke="#E5E7EB"/>
              <text x="20" y="32" class="text-dark" font-size="12" font-weight="600">Filtrage des appels</text>
              <text x="20" y="52" class="text-muted" font-size="10">Bloquer ou autoriser des numéros</text>
              <text x="310" y="42" class="text-muted" font-size="14">→</text>
            </g>
            <g transform="translate(356, 136)">
              <rect x="0" y="0" width="340" height="80" rx="6" fill="#F9FAFB" stroke="#E5E7EB"/>
              <text x="20" y="32" class="text-dark" font-size="12" font-weight="600">Statistiques</text>
              <text x="20" y="52" class="text-muted" font-size="10">Consulter les rapports d'activité</text>
              <text x="310" y="42" class="text-muted" font-size="14">→</text>
            </g>
            <g transform="translate(712, 136)">
              <rect x="0" y="0" width="340" height="80" rx="6" fill="#FEE2E2" stroke="#DC2626"/>
              <text x="20" y="32" fill="#DC2626" font-size="12" font-weight="600">Supprimer la configuration</text>
              <text x="20" y="52" fill="#991B1B" font-size="10">Action irréversible</text>
              <text x="310" y="42" fill="#DC2626" font-size="14">→</text>
            </g>
          </g>
        </g>
      </g>

    </g>
  </g>
</svg>
