<svg xmlns="http://www.w3.org/2000/svg" viewBox="0 0 1440 900" width="1440" height="900">
  <defs>
    <style>
      .bg-header { fill: #000E9C; }
      .bg-main { fill: #F6F6F9; }
      .bg-white { fill: #FFFFFF; }
      .bg-primary { fill: #0050D7; }
      .bg-success { fill: #DEF7EC; }
      .bg-info { fill: #DBEAFE; }
      .border { stroke: #E5E7EB; stroke-width: 1; fill: none; }
      .divider { stroke: #E5E7EB; stroke-width: 1; }
      .table-header { fill: #F9FAFB; }
      .text-white { fill: #FFFFFF; font-family: 'Source Sans Pro', sans-serif; }
      .text-dark { fill: #1F2937; font-family: 'Source Sans Pro', sans-serif; }
      .text-muted { fill: #6B7280; font-family: 'Source Sans Pro', sans-serif; }
      .text-primary { fill: #0050D7; font-family: 'Source Sans Pro', sans-serif; }
      .text-success { fill: #059669; font-family: 'Source Sans Pro', sans-serif; }
      .text-info { fill: #1E40AF; font-family: 'Source Sans Pro', sans-serif; }
    </style>
  </defs>

  <!-- Background -->
  <rect width="1440" height="900" class="bg-main"/>

  <!-- NAV1 - Header OVH -->
  <rect width="1440" height="50" class="bg-header"/>
  <text x="40" y="32" class="text-white" font-size="14" opacity="0.7">Accueil</text>
  <text x="110" y="32" class="text-white" font-size="14" opacity="0.7">Public Cloud</text>
  <text x="210" y="32" class="text-white" font-size="14" opacity="0.7">Hosted Private Cloud</text>
  <text x="370" y="32" class="text-white" font-size="14" opacity="0.7">Bare Metal Cloud</text>
  <text x="510" y="32" class="text-white" font-size="14" font-weight="600">Web Cloud</text>
  <rect x="505" y="46" width="75" height="3" fill="#FFFFFF"/>
  <text x="620" y="32" class="text-white" font-size="14" opacity="0.7">Network</text>
  <text x="700" y="32" class="text-white" font-size="14" opacity="0.7">IAM / Securite</text>
  <text x="810" y="32" class="text-white" font-size="14" opacity="0.7">Licences</text>
  <rect x="1280" y="12" width="140" height="26" rx="13" fill="rgba(255,255,255,0.2)"/>
  <text x="1320" y="29" class="text-white" font-size="12">ab12345-ovh</text>

  <!-- NAV2 - Web Cloud -->
  <rect x="0" y="50" width="1440" height="40" fill="#FFFFFF"/>
  <line x1="0" y1="89" x2="1440" y2="89" stroke="#E5E7EB"/>
  <text x="40" y="75" class="text-muted" font-size="14">Accueil</text>
  <text x="110" y="75" class="text-muted" font-size="14">Domaines et DNS</text>
  <text x="240" y="75" class="text-muted" font-size="14">Hébergement</text>
  <text x="345" y="75" class="text-muted" font-size="14">Wordpress</text>
  <text x="430" y="75" class="text-muted" font-size="14">Emails</text>
  <text x="500" y="75" class="text-primary" font-size="14" font-weight="600">VoIP</text>
  <rect x="495" y="85" width="35" height="3" fill="#0050D7"/>
  <text x="550" y="75" class="text-muted" font-size="14">Accès</text>
  <text x="1350" y="75" class="text-primary" font-size="13">Guides</text>

  <!-- CONTENT AREA -->
  <g transform="translate(0, 105)">
    <g transform="translate(24, 0)">

      <!-- LEFT PANEL -->
      <rect x="0" y="0" width="280" height="765" rx="8" class="bg-white"/>
      <rect x="0" y="0" width="280" height="765" rx="8" class="border"/>

      <!-- NAV3 -->
      <rect x="0" y="0" width="280" height="44" rx="8" fill="#F9FAFB"/>
      <rect x="12" y="10" width="60" height="24" rx="4" fill="#0050D7"/>
      <text x="42" y="26" class="text-white" font-size="11" text-anchor="middle">SIP</text>
      <rect x="76" y="10" width="60" height="24" rx="4" fill="#FFFFFF" stroke="#E5E7EB"/>
      <text x="106" y="26" class="text-muted" font-size="11" text-anchor="middle">SMS</text>
      <rect x="140" y="10" width="60" height="24" rx="4" fill="#FFFFFF" stroke="#E5E7EB"/>
      <text x="170" y="26" class="text-muted" font-size="11" text-anchor="middle">FAX</text>
      <rect x="204" y="10" width="64" height="24" rx="4" fill="#FFFFFF" stroke="#E5E7EB"/>
      <text x="236" y="26" class="text-muted" font-size="11" text-anchor="middle">Trunk</text>
      <line x1="0" y1="44" x2="280" y2="44" class="divider"/>

      <!-- Search -->
      <rect x="12" y="56" width="256" height="34" rx="4" fill="#F9FAFB" stroke="#E5E7EB"/>
      <text x="26" y="78" class="text-muted" font-size="12">🔍 Rechercher...</text>
      <text x="12" y="112" class="text-muted" font-size="11">3 numéros</text>

      <!-- Number items -->
      <g transform="translate(0, 124)">
        <rect x="0" y="0" width="280" height="56" fill="#E8F0FE"/>
        <text x="16" y="22" class="text-dark" font-size="13" font-weight="600">09 72 10 XX XX</text>
        <text x="16" y="40" class="text-muted" font-size="11">Standard principal</text>
      </g>
      <g transform="translate(0, 180)">
        <rect x="0" y="0" width="280" height="56" fill="#FFFFFF"/>
        <text x="16" y="22" class="text-dark" font-size="13" font-weight="600">+33 1 23 45 67 00</text>
        <text x="16" y="40" class="text-muted" font-size="11">Conférence</text>
      </g>

    </g>

    <g transform="translate(320, 0)">

      <!-- RIGHT PANEL -->
      <rect x="0" y="0" width="1096" height="765" rx="8" class="bg-white"/>
      <rect x="0" y="0" width="1096" height="765" rx="8" class="border"/>

      <g transform="translate(20, 0)">
        <!-- Header -->
        <text x="0" y="28" class="text-dark" font-size="18" font-weight="600">09 72 10 XX XX</text>
        <text x="160" y="28" class="text-muted" font-size="13">Standard principal</text>
        <rect x="320" y="12" width="46" height="20" rx="10" class="bg-success"/>
        <text x="343" y="26" fill="#03543F" font-size="10" text-anchor="middle">Actif</text>

        <!-- NAV4 - Tabs -->
        <g transform="translate(0, 42)">
          <rect x="0" y="0" width="70" height="26" rx="4" fill="#FFFFFF" stroke="#E5E7EB"/>
          <text x="35" y="17" class="text-muted" font-size="12" text-anchor="middle">Général</text>
          <rect x="74" y="0" width="80" height="26" rx="4" fill="#FFFFFF" stroke="#E5E7EB"/>
          <text x="114" y="17" class="text-muted" font-size="12" text-anchor="middle">Agents</text>
          <rect x="158" y="0" width="60" height="26" rx="4" fill="#FFFFFF" stroke="#E5E7EB"/>
          <text x="188" y="17" class="text-muted" font-size="12" text-anchor="middle">Sons</text>
          <rect x="222" y="0" width="80" height="26" rx="4" fill="#0050D7"/>
          <text x="262" y="17" class="text-white" font-size="12" text-anchor="middle">Horaires</text>
          <rect x="306" y="0" width="70" height="26" rx="4" fill="#FFFFFF" stroke="#E5E7EB"/>
          <text x="341" y="17" class="text-muted" font-size="12" text-anchor="middle">Filtrage</text>
        </g>

        <!-- Content -->
        <g transform="translate(0, 90)">
          <text x="0" y="20" class="text-dark" font-size="15" font-weight="700">Plages horaires</text>
          <text x="0" y="40" class="text-muted" font-size="11">Définissez les heures d'ouverture et les jours fériés</text>

          <!-- Toolbar -->
          <g transform="translate(0, 55)">
            <rect x="0" y="0" width="32" height="32" rx="4" stroke="#0050D7" fill="#FFFFFF"/>
            <text x="16" y="22" class="text-primary" font-size="14" text-anchor="middle">↻</text>

            <rect x="900" y="0" width="150" height="32" rx="4" class="bg-primary"/>
            <text x="975" y="21" class="text-white" font-size="11" text-anchor="middle">+ Ajouter une plage</text>
          </g>

          <!-- Current status -->
          <g transform="translate(0, 105)">
            <rect x="0" y="0" width="1056" height="50" rx="6" class="bg-info"/>
            <text x="20" y="20" class="text-info" font-size="11" font-weight="600">Statut actuel</text>
            <text x="20" y="38" class="text-info" font-size="12">● Ouvert - Horaires normaux jusqu'à 18:00</text>
          </g>

          <!-- Weekly schedule -->
          <g transform="translate(0, 175)">
            <text x="0" y="0" class="text-dark" font-size="13" font-weight="600">Horaires hebdomadaires</text>

            <!-- Days grid -->
            <g transform="translate(0, 20)">
              <!-- Header -->
              <rect x="0" y="0" width="1056" height="35" class="table-header" rx="4"/>
              <text x="20" y="23" class="text-muted" font-size="11" font-weight="600">Jour</text>
              <text x="150" y="23" class="text-muted" font-size="11" font-weight="600">Statut</text>
              <text x="280" y="23" class="text-muted" font-size="11" font-weight="600">Plage 1</text>
              <text x="450" y="23" class="text-muted" font-size="11" font-weight="600">Plage 2</text>
              <text x="620" y="23" class="text-muted" font-size="11" font-weight="600">Action hors plage</text>
              <text x="850" y="23" class="text-muted" font-size="11" font-weight="600">Actions</text>

              <!-- Lundi -->
              <rect x="0" y="40" width="1056" height="40" fill="#FFFFFF"/>
              <line x1="0" y1="80" x2="1056" y2="80" stroke="#E5E7EB"/>
              <text x="20" y="65" class="text-dark" font-size="12">Lundi</text>
              <rect x="150" y="52" width="60" height="20" rx="10" fill="#DEF7EC"/>
              <text x="180" y="66" fill="#03543F" font-size="10" text-anchor="middle">Ouvert</text>
              <text x="280" y="65" class="text-dark" font-size="11">09:00 - 12:30</text>
              <text x="450" y="65" class="text-dark" font-size="11">14:00 - 18:00</text>
              <text x="620" y="65" class="text-muted" font-size="11">Message hors horaires</text>
              <text x="850" y="65" class="text-primary" font-size="11">✎</text>

              <!-- Mardi -->
              <rect x="0" y="80" width="1056" height="40" fill="#FFFFFF"/>
              <line x1="0" y1="120" x2="1056" y2="120" stroke="#E5E7EB"/>
              <text x="20" y="105" class="text-dark" font-size="12">Mardi</text>
              <rect x="150" y="92" width="60" height="20" rx="10" fill="#DEF7EC"/>
              <text x="180" y="106" fill="#03543F" font-size="10" text-anchor="middle">Ouvert</text>
              <text x="280" y="105" class="text-dark" font-size="11">09:00 - 12:30</text>
              <text x="450" y="105" class="text-dark" font-size="11">14:00 - 18:00</text>
              <text x="620" y="105" class="text-muted" font-size="11">Message hors horaires</text>
              <text x="850" y="105" class="text-primary" font-size="11">✎</text>

              <!-- Mercredi -->
              <rect x="0" y="120" width="1056" height="40" fill="#FFFFFF"/>
              <line x1="0" y1="160" x2="1056" y2="160" stroke="#E5E7EB"/>
              <text x="20" y="145" class="text-dark" font-size="12">Mercredi</text>
              <rect x="150" y="132" width="60" height="20" rx="10" fill="#DEF7EC"/>
              <text x="180" y="146" fill="#03543F" font-size="10" text-anchor="middle">Ouvert</text>
              <text x="280" y="145" class="text-dark" font-size="11">09:00 - 12:30</text>
              <text x="450" y="145" class="text-dark" font-size="11">14:00 - 18:00</text>
              <text x="620" y="145" class="text-muted" font-size="11">Message hors horaires</text>
              <text x="850" y="145" class="text-primary" font-size="11">✎</text>

              <!-- Jeudi -->
              <rect x="0" y="160" width="1056" height="40" fill="#FFFFFF"/>
              <line x1="0" y1="200" x2="1056" y2="200" stroke="#E5E7EB"/>
              <text x="20" y="185" class="text-dark" font-size="12">Jeudi</text>
              <rect x="150" y="172" width="60" height="20" rx="10" fill="#DEF7EC"/>
              <text x="180" y="186" fill="#03543F" font-size="10" text-anchor="middle">Ouvert</text>
              <text x="280" y="185" class="text-dark" font-size="11">09:00 - 12:30</text>
              <text x="450" y="185" class="text-dark" font-size="11">14:00 - 18:00</text>
              <text x="620" y="185" class="text-muted" font-size="11">Message hors horaires</text>
              <text x="850" y="185" class="text-primary" font-size="11">✎</text>

              <!-- Vendredi -->
              <rect x="0" y="200" width="1056" height="40" fill="#FFFFFF"/>
              <line x1="0" y1="240" x2="1056" y2="240" stroke="#E5E7EB"/>
              <text x="20" y="225" class="text-dark" font-size="12">Vendredi</text>
              <rect x="150" y="212" width="60" height="20" rx="10" fill="#DEF7EC"/>
              <text x="180" y="226" fill="#03543F" font-size="10" text-anchor="middle">Ouvert</text>
              <text x="280" y="225" class="text-dark" font-size="11">09:00 - 12:30</text>
              <text x="450" y="225" class="text-dark" font-size="11">14:00 - 17:00</text>
              <text x="620" y="225" class="text-muted" font-size="11">Message hors horaires</text>
              <text x="850" y="225" class="text-primary" font-size="11">✎</text>

              <!-- Samedi -->
              <rect x="0" y="240" width="1056" height="40" fill="#FFFFFF"/>
              <line x1="0" y1="280" x2="1056" y2="280" stroke="#E5E7EB"/>
              <text x="20" y="265" class="text-dark" font-size="12">Samedi</text>
              <rect x="150" y="252" width="60" height="20" rx="10" fill="#F3F4F6"/>
              <text x="180" y="266" fill="#6B7280" font-size="10" text-anchor="middle">Fermé</text>
              <text x="280" y="265" class="text-muted" font-size="11">—</text>
              <text x="450" y="265" class="text-muted" font-size="11">—</text>
              <text x="620" y="265" class="text-muted" font-size="11">Message week-end</text>
              <text x="850" y="265" class="text-primary" font-size="11">✎</text>

              <!-- Dimanche -->
              <rect x="0" y="280" width="1056" height="40" fill="#FFFFFF"/>
              <line x1="0" y1="320" x2="1056" y2="320" stroke="#E5E7EB"/>
              <text x="20" y="305" class="text-dark" font-size="12">Dimanche</text>
              <rect x="150" y="292" width="60" height="20" rx="10" fill="#F3F4F6"/>
              <text x="180" y="306" fill="#6B7280" font-size="10" text-anchor="middle">Fermé</text>
              <text x="280" y="305" class="text-muted" font-size="11">—</text>
              <text x="450" y="305" class="text-muted" font-size="11">—</text>
              <text x="620" y="305" class="text-muted" font-size="11">Message week-end</text>
              <text x="850" y="305" class="text-primary" font-size="11">✎</text>
            </g>
          </g>

          <!-- Holidays section -->
          <g transform="translate(0, 540)">
            <text x="0" y="0" class="text-dark" font-size="13" font-weight="600">Jours fériés et exceptions</text>
            <text x="0" y="18" class="text-muted" font-size="10">Définissez les fermetures exceptionnelles</text>

            <g transform="translate(0, 35)">
              <rect x="0" y="0" width="340" height="70" rx="6" fill="#F9FAFB" stroke="#E5E7EB"/>
              <text x="20" y="25" class="text-dark" font-size="11" font-weight="500">25 Décembre 2026</text>
              <text x="20" y="45" class="text-muted" font-size="10">Noël - Fermé toute la journée</text>
              <text x="300" y="35" class="text-primary" font-size="11">✎</text>
              <text x="320" y="35" fill="#DC2626" font-size="11">×</text>
            </g>
            <g transform="translate(356, 35)">
              <rect x="0" y="0" width="340" height="70" rx="6" fill="#F9FAFB" stroke="#E5E7EB"/>
              <text x="20" y="25" class="text-dark" font-size="11" font-weight="500">1er Janvier 2027</text>
              <text x="20" y="45" class="text-muted" font-size="10">Nouvel An - Fermé toute la journée</text>
              <text x="300" y="35" class="text-primary" font-size="11">✎</text>
              <text x="320" y="35" fill="#DC2626" font-size="11">×</text>
            </g>
            <g transform="translate(712, 35)">
              <rect x="0" y="0" width="340" height="70" rx="6" fill="#F9FAFB" stroke="#E5E7EB" stroke-dasharray="4"/>
              <text x="170" y="40" class="text-primary" font-size="11" text-anchor="middle">+ Ajouter une exception</text>
            </g>
          </g>
        </g>
      </g>

    </g>
  </g>
</svg>
