<svg xmlns="http://www.w3.org/2000/svg" viewBox="0 0 1440 900" width="1440" height="900">
  <defs>
    <style>
      .bg-header { fill: #000E9C; }
      .bg-main { fill: #F6F6F9; }
      .bg-white { fill: #FFFFFF; }
      .bg-primary { fill: #0050D7; }
      .bg-success { fill: #DEF7EC; }
      .bg-neutral { fill: #F9FAFB; }
      .border { stroke: #E5E7EB; stroke-width: 1; fill: none; }
      .btn-outline { stroke: #0050D7; stroke-width: 1; fill: #FFFFFF; }
      .text-white { fill: #FFFFFF; font-family: 'Source Sans Pro', sans-serif; }
      .text-dark { fill: #1F2937; font-family: 'Source Sans Pro', sans-serif; }
      .text-muted { fill: #6B7280; font-family: 'Source Sans Pro', sans-serif; }
      .text-primary { fill: #0050D7; font-family: 'Source Sans Pro', sans-serif; }
      .text-success { fill: #059669; font-family: 'Source Sans Pro', sans-serif; }
    </style>
  </defs>

  <!-- Background -->
  <rect width="1440" height="900" class="bg-main"/>

  <!-- NAV1 -->
  <rect width="1440" height="50" class="bg-header"/>
  <text x="40" y="32" class="text-white" font-size="14" opacity="0.7">Accueil</text>
  <text x="110" y="32" class="text-white" font-size="14" opacity="0.7">Public Cloud</text>
  <text x="210" y="32" class="text-white" font-size="14" opacity="0.7">Hosted Private Cloud</text>
  <text x="370" y="32" class="text-white" font-size="14" opacity="0.7">Bare Metal Cloud</text>
  <text x="510" y="32" class="text-white" font-size="14" font-weight="600">Web Cloud</text>
  <rect x="505" y="46" width="75" height="3" fill="#FFFFFF"/>
  <text x="620" y="32" class="text-white" font-size="14" opacity="0.7">Network</text>
  <text x="700" y="32" class="text-white" font-size="14" opacity="0.7">IAM / Securite</text>
  <text x="810" y="32" class="text-white" font-size="14" opacity="0.7">Licences</text>
  <rect x="1280" y="12" width="140" height="26" rx="13" fill="rgba(255,255,255,0.2)"/>
  <text x="1320" y="29" class="text-white" font-size="12">{nicHandle}</text>

  <!-- NAV2 -->
  <rect x="0" y="50" width="1440" height="40" fill="#FFFFFF"/>
  <line x1="0" y1="89" x2="1440" y2="89" stroke="#E5E7EB"/>
  <text x="40" y="75" class="text-muted" font-size="14">Accueil</text>
  <text x="110" y="75" class="text-muted" font-size="14">Domaines et DNS</text>
  <text x="240" y="75" class="text-muted" font-size="14">Hébergement</text>
  <text x="345" y="75" class="text-muted" font-size="14">Wordpress</text>
  <text x="430" y="75" class="text-muted" font-size="14">Emails</text>
  <text x="500" y="75" class="text-primary" font-size="14" font-weight="600">VoIP</text>
  <rect x="495" y="85" width="35" height="3" fill="#0050D7"/>
  <text x="550" y="75" class="text-muted" font-size="14">Accès</text>
  <text x="1350" y="75" class="text-primary" font-size="13">Guides</text>

  <!-- CONTENT AREA -->
  <g transform="translate(0, 105)">
    <g transform="translate(24, 0)">
      <!-- LEFT PANEL -->
      <rect x="0" y="0" width="280" height="765" rx="8" class="bg-white"/>
      <rect x="0" y="0" width="280" height="765" rx="8" class="border"/>
      <rect x="12" y="12" width="256" height="34" rx="4" fill="#F9FAFB" stroke="#E5E7EB"/>
      <text x="26" y="34" class="text-muted" font-size="12">Rechercher...</text>

      <g transform="translate(6, 80)">
        <rect x="0" y="0" width="268" height="65" rx="6" fill="#E8F0FE"/>
        <text x="12" y="22" class="text-dark" font-size="13" font-weight="500">📠 0033972999888</text>
        <text x="12" y="40" class="text-muted" font-size="11">Fax Bureau</text>
      </g>
    </g>

    <g transform="translate(320, 0)">
      <!-- RIGHT PANEL -->
      <rect x="0" y="0" width="1096" height="765" rx="8" class="bg-white"/>
      <rect x="0" y="0" width="1096" height="765" rx="8" class="border"/>

      <g transform="translate(20, 0)">
        <!-- HEADER -->
        <text x="0" y="28" class="text-dark" font-size="18" font-weight="600">0033972999888</text>
        <text x="180" y="28" class="text-muted" font-size="14">Fax Bureau / Consommation</text>

        <!-- NAV3 TABS - Consommation actif -->
        <g transform="translate(0, 50)">
          <rect x="0" y="0" width="60" height="26" rx="4" fill="#FFFFFF" stroke="#0050D7"/>
          <text x="30" y="17" class="text-primary" font-size="11" text-anchor="middle">Général</text>

          <rect x="64" y="0" width="75" height="26" rx="4" fill="#FFFFFF" stroke="#0050D7"/>
          <text x="101" y="17" class="text-primary" font-size="11" text-anchor="middle">Paramètres</text>

          <rect x="143" y="0" width="75" height="26" rx="4" fill="#FFFFFF" stroke="#0050D7"/>
          <text x="180" y="17" class="text-primary" font-size="11" text-anchor="middle">Campagnes</text>

          <rect x="222" y="0" width="95" height="26" rx="4" fill="#0050D7"/>
          <text x="269" y="17" class="text-white" font-size="11" text-anchor="middle">Consommation</text>

          <rect x="321" y="0" width="55" height="26" rx="4" fill="#FFFFFF" stroke="#0050D7"/>
          <text x="348" y="17" class="text-primary" font-size="11" text-anchor="middle">Filtrage</text>

          <rect x="380" y="0" width="60" height="26" rx="4" fill="#FFFFFF" stroke="#0050D7"/>
          <text x="410" y="17" class="text-primary" font-size="11" text-anchor="middle">Logo</text>

          <rect x="444" y="0" width="85" height="26" rx="4" fill="#FFFFFF" stroke="#0050D7"/>
          <text x="486" y="17" class="text-primary" font-size="11" text-anchor="middle">Notifications</text>
        </g>

        <!-- NAV4 SUB-TABS -->
        <g transform="translate(0, 90)">
          <text x="0" y="0" class="text-primary" font-size="12" font-weight="600">Envoyés</text>
          <rect x="0" y="6" width="55" height="2" fill="#0050D7"/>
          <text x="75" y="0" class="text-muted" font-size="12">Reçus</text>

          <!-- Period selector -->
          <rect x="800" y="-12" width="200" height="30" rx="4" fill="#F9FAFB" stroke="#E5E7EB"/>
          <text x="820" y="8" class="text-muted" font-size="11">📅 Décembre 2025</text>
          <text x="970" y="8" class="text-muted" font-size="11">▼</text>
        </g>

        <!-- CONTENU CONSOMMATION -->
        <g transform="translate(0, 120)">

          <!-- Stats cards -->
          <rect x="0" y="0" width="340" height="90" rx="6" fill="#FFFFFF" stroke="#E5E7EB"/>
          <text x="20" y="30" class="text-muted" font-size="12">Total fax envoyés</text>
          <text x="20" y="65" class="text-dark" font-size="26" font-weight="600">68</text>

          <rect x="356" y="0" width="340" height="90" rx="6" fill="#FFFFFF" stroke="#E5E7EB"/>
          <text x="376" y="30" class="text-muted" font-size="12">Pages transmises</text>
          <text x="376" y="65" class="text-dark" font-size="26" font-weight="600">245</text>

          <rect x="712" y="0" width="324" height="90" rx="6" fill="#FFFFFF" stroke="#E5E7EB"/>
          <text x="732" y="30" class="text-muted" font-size="12">Coût total</text>
          <text x="732" y="65" class="text-dark" font-size="26" font-weight="600">12,25€</text>

          <!-- Table -->
          <rect x="0" y="110" width="1036" height="400" rx="6" fill="#FFFFFF" stroke="#E5E7EB"/>

          <!-- Table header -->
          <rect x="0" y="110" width="1036" height="40" rx="6" fill="#F9FAFB"/>
          <text x="20" y="135" class="text-dark" font-size="11" font-weight="600">Date</text>
          <text x="180" y="135" class="text-dark" font-size="11" font-weight="600">Destinataire</text>
          <text x="400" y="135" class="text-dark" font-size="11" font-weight="600">Pages</text>
          <text x="500" y="135" class="text-dark" font-size="11" font-weight="600">Durée</text>
          <text x="620" y="135" class="text-dark" font-size="11" font-weight="600">Coût</text>
          <text x="750" y="135" class="text-dark" font-size="11" font-weight="600">Statut</text>
          <text x="900" y="135" class="text-dark" font-size="11" font-weight="600">Actions</text>

          <!-- Row 1 -->
          <line x1="20" y1="150" x2="1016" y2="150" stroke="#E5E7EB"/>
          <text x="20" y="180" class="text-dark" font-size="11">30/12/2025 14:32</text>
          <text x="180" y="180" class="text-dark" font-size="11">+33 1 23 45 67 89</text>
          <text x="400" y="180" class="text-dark" font-size="11">3</text>
          <text x="500" y="180" class="text-dark" font-size="11">0:45</text>
          <text x="620" y="180" class="text-dark" font-size="11">0,15€</text>
          <rect x="750" y="165" width="65" height="20" rx="10" fill="#DEF7EC"/>
          <text x="782" y="179" fill="#03543F" font-size="10" text-anchor="middle">Abouti</text>
          <text x="900" y="180" class="text-primary" font-size="11">📄</text>

          <!-- Row 2 -->
          <line x1="20" y1="195" x2="1016" y2="195" stroke="#E5E7EB"/>
          <text x="20" y="225" class="text-dark" font-size="11">30/12/2025 11:15</text>
          <text x="180" y="225" class="text-dark" font-size="11">+33 4 56 78 90 12</text>
          <text x="400" y="225" class="text-dark" font-size="11">1</text>
          <text x="500" y="225" class="text-dark" font-size="11">0:22</text>
          <text x="620" y="225" class="text-dark" font-size="11">0,05€</text>
          <rect x="750" y="210" width="65" height="20" rx="10" fill="#DEF7EC"/>
          <text x="782" y="224" fill="#03543F" font-size="10" text-anchor="middle">Abouti</text>
          <text x="900" y="225" class="text-primary" font-size="11">📄</text>

          <!-- Row 3 -->
          <line x1="20" y1="240" x2="1016" y2="240" stroke="#E5E7EB"/>
          <text x="20" y="270" class="text-dark" font-size="11">29/12/2025 16:45</text>
          <text x="180" y="270" class="text-dark" font-size="11">+33 5 67 89 01 23</text>
          <text x="400" y="270" class="text-dark" font-size="11">5</text>
          <text x="500" y="270" class="text-dark" font-size="11">1:12</text>
          <text x="620" y="270" class="text-dark" font-size="11">0,25€</text>
          <rect x="750" y="255" width="65" height="20" rx="10" fill="#DEF7EC"/>
          <text x="782" y="269" fill="#03543F" font-size="10" text-anchor="middle">Abouti</text>
          <text x="900" y="270" class="text-primary" font-size="11">📄</text>

          <!-- Row 4 -->
          <line x1="20" y1="285" x2="1016" y2="285" stroke="#E5E7EB"/>
          <text x="20" y="315" class="text-dark" font-size="11">29/12/2025 09:30</text>
          <text x="180" y="315" class="text-dark" font-size="11">+33 6 78 90 12 34</text>
          <text x="400" y="315" class="text-dark" font-size="11">2</text>
          <text x="500" y="315" class="text-dark" font-size="11">0:35</text>
          <text x="620" y="315" class="text-dark" font-size="11">0,10€</text>
          <rect x="750" y="300" width="55" height="20" rx="10" fill="#FEE2E2"/>
          <text x="777" y="314" fill="#DC2626" font-size="10" text-anchor="middle">Échoué</text>
          <text x="900" y="315" class="text-primary" font-size="11">📄</text>

          <!-- Pagination -->
          <text x="450" y="480" class="text-muted" font-size="11">1 - 4 sur 68 fax</text>

          <!-- Export -->
          <rect x="0" y="530" width="140" height="34" rx="4" class="btn-outline"/>
          <text x="70" y="552" class="text-primary" font-size="11" text-anchor="middle">📥 Exporter CSV</text>

        </g>
      </g>
    </g>
  </g>
</svg>
