<?xml version="1.0" encoding="UTF-8"?>
<svg width="1100" height="600" viewBox="0 0 1100 600" fill="none" xmlns="http://www.w3.org/2000/svg">
  <title>IAM - Security Alerts</title>
  <rect width="1100" height="600" fill="#F9FAFB"/>
  <g transform="translate(30, 30)"><text x="0" y="0" fill="#1F2937" font-family="system-ui, sans-serif" font-size="22" font-weight="600">Alertes de sécurité</text><text x="0" y="30" fill="#6B7280" font-family="system-ui, sans-serif" font-size="13">Surveillez les activités suspectes sur votre compte.</text></g>
  <g transform="translate(30, 90)">
    <rect x="0" y="0" width="180" height="80" rx="8" fill="#FEE2E2"/>
    <text x="20" y="30" fill="#DC2626" font-family="system-ui, sans-serif" font-size="24" font-weight="600">3</text>
    <text x="20" y="55" fill="#DC2626" font-family="system-ui, sans-serif" font-size="12">Critiques</text>
  </g>
  <g transform="translate(230, 90)">
    <rect x="0" y="0" width="180" height="80" rx="8" fill="#FEF3C7"/>
    <text x="20" y="30" fill="#92400E" font-family="system-ui, sans-serif" font-size="24" font-weight="600">7</text>
    <text x="20" y="55" fill="#92400E" font-family="system-ui, sans-serif" font-size="12">Avertissements</text>
  </g>
  <g transform="translate(430, 90)">
    <rect x="0" y="0" width="180" height="80" rx="8" fill="#DCFCE7"/>
    <text x="20" y="30" fill="#16A34A" font-family="system-ui, sans-serif" font-size="24" font-weight="600">156</text>
    <text x="20" y="55" fill="#16A34A" font-family="system-ui, sans-serif" font-size="12">Résolues (30j)</text>
  </g>
  <g transform="translate(30, 200)">
    <rect x="0" y="0" width="1040" height="380" rx="8" fill="white" stroke="#E5E7EB"/>
    <g transform="translate(0, 0)">
      <rect x="0" y="0" width="1040" height="45" rx="8" fill="#F9FAFB"/>
      <text x="20" y="28" fill="#6B7280" font-family="system-ui, sans-serif" font-size="11" font-weight="600">SÉVÉRITÉ</text>
      <text x="120" y="28" fill="#6B7280" font-family="system-ui, sans-serif" font-size="11" font-weight="600">ALERTE</text>
      <text x="500" y="28" fill="#6B7280" font-family="system-ui, sans-serif" font-size="11" font-weight="600">UTILISATEUR</text>
      <text x="700" y="28" fill="#6B7280" font-family="system-ui, sans-serif" font-size="11" font-weight="600">DATE</text>
      <text x="850" y="28" fill="#6B7280" font-family="system-ui, sans-serif" font-size="11" font-weight="600">STATUT</text>
      <text x="980" y="28" fill="#6B7280" font-family="system-ui, sans-serif" font-size="11" font-weight="600"></text>
    </g>
    <g transform="translate(0, 55)">
      <rect x="20" y="8" width="60" height="22" rx="4" fill="#FEE2E2"/><text x="30" y="24" fill="#DC2626" font-family="system-ui, sans-serif" font-size="10" font-weight="500">Critique</text>
      <text x="120" y="25" fill="#1F2937" font-family="system-ui, sans-serif" font-size="12" font-weight="500">Connexion suspecte depuis IP inconnue</text>
      <text x="120" y="42" fill="#6B7280" font-family="system-ui, sans-serif" font-size="10">IP: 185.220.xxx.xxx (Tor exit node)</text>
      <text x="500" y="30" fill="#1F2937" font-family="system-ui, sans-serif" font-size="12">admin@company.com</text>
      <text x="700" y="30" fill="#6B7280" font-family="system-ui, sans-serif" font-size="12">Il y a 15 min</text>
      <rect x="850" y="8" width="80" height="22" rx="4" fill="#FEF3C7"/><text x="862" y="24" fill="#92400E" font-family="system-ui, sans-serif" font-size="10">En attente</text>
      <text x="980" y="28" fill="#0050D7" font-family="system-ui, sans-serif" font-size="12" cursor="pointer">⋮</text>
    </g>
    <line x1="20" y1="110" x2="1020" y2="110" stroke="#E5E7EB"/>
    <g transform="translate(0, 120)">
      <rect x="20" y="8" width="60" height="22" rx="4" fill="#FEE2E2"/><text x="30" y="24" fill="#DC2626" font-family="system-ui, sans-serif" font-size="10" font-weight="500">Critique</text>
      <text x="120" y="25" fill="#1F2937" font-family="system-ui, sans-serif" font-size="12" font-weight="500">5 tentatives de connexion échouées</text>
      <text x="120" y="42" fill="#6B7280" font-family="system-ui, sans-serif" font-size="10">Possible attaque brute force</text>
      <text x="500" y="30" fill="#1F2937" font-family="system-ui, sans-serif" font-size="12">tech-lead@company.com</text>
      <text x="700" y="30" fill="#6B7280" font-family="system-ui, sans-serif" font-size="12">Il y a 1h</text>
      <rect x="850" y="8" width="80" height="22" rx="4" fill="#FEF3C7"/><text x="862" y="24" fill="#92400E" font-family="system-ui, sans-serif" font-size="10">En attente</text>
      <text x="980" y="28" fill="#0050D7" font-family="system-ui, sans-serif" font-size="12" cursor="pointer">⋮</text>
    </g>
    <line x1="20" y1="175" x2="1020" y2="175" stroke="#E5E7EB"/>
    <g transform="translate(0, 185)">
      <rect x="20" y="8" width="90" height="22" rx="4" fill="#FEF3C7"/><text x="28" y="24" fill="#92400E" font-family="system-ui, sans-serif" font-size="10" font-weight="500">Avertissement</text>
      <text x="120" y="25" fill="#1F2937" font-family="system-ui, sans-serif" font-size="12" font-weight="500">Accès API depuis nouveau pays</text>
      <text x="120" y="42" fill="#6B7280" font-family="system-ui, sans-serif" font-size="10">Allemagne (nouveau)</text>
      <text x="500" y="30" fill="#1F2937" font-family="system-ui, sans-serif" font-size="12">api-service@company.com</text>
      <text x="700" y="30" fill="#6B7280" font-family="system-ui, sans-serif" font-size="12">Il y a 3h</text>
      <rect x="850" y="8" width="80" height="22" rx="4" fill="#DCFCE7"/><text x="865" y="24" fill="#16A34A" font-family="system-ui, sans-serif" font-size="10">Résolu</text>
      <text x="980" y="28" fill="#0050D7" font-family="system-ui, sans-serif" font-size="12" cursor="pointer">⋮</text>
    </g>
    <line x1="20" y1="240" x2="1020" y2="240" stroke="#E5E7EB"/>
    <g transform="translate(0, 250)">
      <rect x="20" y="8" width="90" height="22" rx="4" fill="#FEF3C7"/><text x="28" y="24" fill="#92400E" font-family="system-ui, sans-serif" font-size="10" font-weight="500">Avertissement</text>
      <text x="120" y="25" fill="#1F2937" font-family="system-ui, sans-serif" font-size="12" font-weight="500">Clé API non utilisée depuis 90 jours</text>
      <text x="120" y="42" fill="#6B7280" font-family="system-ui, sans-serif" font-size="10">Recommandation: révoquer ou renouveler</text>
      <text x="500" y="30" fill="#1F2937" font-family="system-ui, sans-serif" font-size="12">-</text>
      <text x="700" y="30" fill="#6B7280" font-family="system-ui, sans-serif" font-size="12">Il y a 1j</text>
      <rect x="850" y="8" width="80" height="22" rx="4" fill="#FEF3C7"/><text x="862" y="24" fill="#92400E" font-family="system-ui, sans-serif" font-size="10">En attente</text>
      <text x="980" y="28" fill="#0050D7" font-family="system-ui, sans-serif" font-size="12" cursor="pointer">⋮</text>
    </g>
    <line x1="20" y1="305" x2="1020" y2="305" stroke="#E5E7EB"/>
    <g transform="translate(0, 315)">
      <rect x="20" y="8" width="60" height="22" rx="4" fill="#FEE2E2"/><text x="30" y="24" fill="#DC2626" font-family="system-ui, sans-serif" font-size="10" font-weight="500">Critique</text>
      <text x="120" y="25" fill="#1F2937" font-family="system-ui, sans-serif" font-size="12" font-weight="500">Modification politique admin par non-admin</text>
      <text x="120" y="42" fill="#6B7280" font-family="system-ui, sans-serif" font-size="10">Tentative de privilege escalation</text>
      <text x="500" y="30" fill="#1F2937" font-family="system-ui, sans-serif" font-size="12">developer@company.com</text>
      <text x="700" y="30" fill="#6B7280" font-family="system-ui, sans-serif" font-size="12">Il y a 2j</text>
      <rect x="850" y="8" width="80" height="22" rx="4" fill="#DCFCE7"/><text x="865" y="24" fill="#16A34A" font-family="system-ui, sans-serif" font-size="10">Résolu</text>
      <text x="980" y="28" fill="#0050D7" font-family="system-ui, sans-serif" font-size="12" cursor="pointer">⋮</text>
    </g>
  </g>
</svg>
