<svg xmlns="http://www.w3.org/2000/svg" viewBox="0 0 1440 900" width="1440" height="900">
  <defs>
    <style>
      .bg-header { fill: #000E9C; }
      .bg-main { fill: #F6F6F9; }
      .bg-white { fill: #FFFFFF; }
      .border { stroke: #E5E7EB; stroke-width: 1; fill: none; }
      .text-white { fill: #FFFFFF; font-family: 'Source Sans Pro', sans-serif; }
      .text-dark { fill: #1F2937; font-family: 'Source Sans Pro', sans-serif; }
      .text-muted { fill: #6B7280; font-family: 'Source Sans Pro', sans-serif; }
      .text-primary { fill: #0050D7; font-family: 'Source Sans Pro', sans-serif; }
    </style>
  </defs>

  <rect width="1440" height="900" class="bg-main"/>
  <rect width="1440" height="50" class="bg-header"/>
  <text x="510" y="32" class="text-white" font-size="14" font-weight="600">Web Cloud</text>
  <rect y="50" width="1440" height="40" class="bg-white"/>
  <line x1="0" y1="90" x2="1440" y2="90" stroke="#E5E7EB"/>
  <text x="500" y="75" class="text-primary" font-size="14" font-weight="600">Hébergements</text>

  <!-- LEFT PANEL -->
  <g transform="translate(24, 105)">
    <rect x="0" y="0" width="280" height="780" rx="8" class="bg-white"/>
    <rect x="0" y="0" width="280" height="780" rx="8" class="border"/>
    <text x="20" y="35" class="text-dark" font-size="14" font-weight="600">mon-site-pro</text>
    <text x="20" y="52" class="text-muted" font-size="10">Hébergement Pro</text>
    <line x1="0" y1="70" x2="280" y2="70" stroke="#E5E7EB"/>
    <rect x="0" y="70" width="280" height="36" fill="#E8F0FE"/>
    <text x="20" y="94" class="text-primary" font-size="12" font-weight="600">Tableau de bord</text>
    <text x="20" y="130" class="text-dark" font-size="12">Multisites</text>
    <text x="250" y="130" class="text-muted" font-size="10">3</text>
    <text x="20" y="160" class="text-dark" font-size="12">Bases de données</text>
    <text x="250" y="160" class="text-muted" font-size="10">2</text>
    <text x="20" y="190" class="text-dark" font-size="12">FTP - SSH</text>
    <text x="20" y="220" class="text-dark" font-size="12">Certificat SSL</text>
    <text x="20" y="250" class="text-dark" font-size="12">Modules</text>
    <text x="20" y="280" class="text-dark" font-size="12">Tâches planifiées</text>
    <text x="20" y="310" class="text-dark" font-size="12">Statistiques</text>
    <text x="20" y="340" class="text-dark" font-size="12">Logs</text>
    <text x="20" y="370" class="text-dark" font-size="12">Emails</text>
    <text x="20" y="400" class="text-dark" font-size="12">Gestion</text>
  </g>

  <!-- RIGHT PANEL -->
  <g transform="translate(320, 105)">
    <rect x="0" y="0" width="1096" height="780" rx="8" class="bg-white"/>
    <rect x="0" y="0" width="1096" height="780" rx="8" class="border"/>

    <g transform="translate(24, 24)">
      <text x="0" y="20" class="text-dark" font-size="16" font-weight="600">Tableau de bord</text>

      <!-- Stats cards -->
      <g transform="translate(0, 50)">
        <rect x="0" y="0" width="240" height="100" rx="6" class="bg-white"/>
        <rect x="0" y="0" width="240" height="100" rx="6" class="border"/>
        <text x="20" y="30" class="text-muted" font-size="11">Espace disque</text>
        <text x="20" y="60" class="text-dark" font-size="24" font-weight="700">45.2 Go</text>
        <text x="115" y="60" class="text-muted" font-size="12">/ 250 Go</text>
        <rect x="20" y="75" width="200" height="8" rx="4" fill="#E5E7EB"/>
        <rect x="20" y="75" width="36" height="8" rx="4" fill="#0050D7"/>

        <rect x="260" y="0" width="240" height="100" rx="6" class="bg-white"/>
        <rect x="260" y="0" width="240" height="100" rx="6" class="border"/>
        <text x="280" y="30" class="text-muted" font-size="11">Trafic mensuel</text>
        <text x="280" y="60" class="text-dark" font-size="24" font-weight="700">125 Go</text>
        <text x="375" y="60" class="text-muted" font-size="12">ce mois</text>
        <text x="280" y="85" fill="#059669" font-size="10">↑ +12% vs mois dernier</text>

        <rect x="520" y="0" width="240" height="100" rx="6" class="bg-white"/>
        <rect x="520" y="0" width="240" height="100" rx="6" class="border"/>
        <text x="540" y="30" class="text-muted" font-size="11">Visites</text>
        <text x="540" y="60" class="text-dark" font-size="24" font-weight="700">12,450</text>
        <text x="540" y="85" class="text-muted" font-size="10">3,200 visiteurs uniques</text>

        <rect x="780" y="0" width="240" height="100" rx="6" class="bg-white"/>
        <rect x="780" y="0" width="240" height="100" rx="6" class="border"/>
        <text x="800" y="30" class="text-muted" font-size="11">Statut</text>
        <rect x="800" y="45" width="55" height="22" rx="11" fill="#DEF7EC"/>
        <text x="827" y="60" fill="#059669" font-size="10" text-anchor="middle">Actif</text>
        <text x="800" y="85" class="text-muted" font-size="10">Uptime: 99.98%</text>
      </g>

      <!-- Informations générales -->
      <g transform="translate(0, 180)">
        <text x="0" y="0" class="text-dark" font-size="14" font-weight="600">Informations générales</text>
        
        <rect x="0" y="20" width="500" height="180" rx="6" class="bg-white"/>
        <rect x="0" y="20" width="500" height="180" rx="6" class="border"/>
        
        <g transform="translate(20, 50)">
          <text x="0" y="0" class="text-muted" font-size="10">Domaine principal</text>
          <text x="0" y="20" class="text-dark" font-size="12" font-weight="500">mon-site.com</text>
          
          <text x="200" y="0" class="text-muted" font-size="10">Offre</text>
          <text x="200" y="20" class="text-dark" font-size="12">Pro</text>
          
          <text x="0" y="55" class="text-muted" font-size="10">Version PHP</text>
          <text x="0" y="75" class="text-dark" font-size="12">8.2</text>
          
          <text x="200" y="55" class="text-muted" font-size="10">Serveur</text>
          <text x="200" y="75" class="text-dark" font-size="12">cluster028.hosting.ovh.net</text>
          
          <text x="0" y="110" class="text-muted" font-size="10">Datacenter</text>
          <text x="0" y="130" class="text-dark" font-size="12">Gravelines (GRA)</text>
          
          <text x="200" y="110" class="text-muted" font-size="10">Renouvellement</text>
          <text x="200" y="130" class="text-dark" font-size="12">15 janvier 2026</text>
        </g>
      </g>

      <!-- SSL -->
      <g transform="translate(520, 180)">
        <text x="0" y="0" class="text-dark" font-size="14" font-weight="600">Certificat SSL</text>
        
        <rect x="0" y="20" width="500" height="180" rx="6" fill="#DEF7EC"/>
        <rect x="0" y="20" width="500" height="180" rx="6" class="border"/>
        
        <g transform="translate(20, 50)">
          <circle cx="20" cy="15" r="20" fill="#059669"/>
          <text x="20" y="20" class="text-white" font-size="16" text-anchor="middle">✓</text>
          
          <text x="60" y="5" class="text-dark" font-size="14" font-weight="600">SSL Actif</text>
          <text x="60" y="25" fill="#059669" font-size="11">Let's Encrypt</text>
          
          <text x="0" y="70" class="text-muted" font-size="10">Expire le</text>
          <text x="0" y="90" class="text-dark" font-size="12">15 mars 2026</text>
          
          <text x="150" y="70" class="text-muted" font-size="10">Renouvellement</text>
          <text x="150" y="90" class="text-dark" font-size="12">Automatique</text>
          
          <rect x="0" y="115" width="150" height="28" rx="4" stroke="#059669" fill="#FFFFFF"/>
          <text x="75" y="133" fill="#059669" font-size="10" text-anchor="middle">Régénérer</text>
        </g>
      </g>

      <!-- Sites récents -->
      <g transform="translate(0, 400)">
        <text x="0" y="0" class="text-dark" font-size="14" font-weight="600">Sites hébergés</text>
        
        <rect x="0" y="20" width="1020" height="150" rx="6" class="bg-white"/>
        <rect x="0" y="20" width="1020" height="150" rx="6" class="border"/>
        
        <rect x="0" y="20" width="1020" height="35" rx="6" fill="#F9FAFB"/>
        <text x="20" y="43" class="text-muted" font-size="10" font-weight="600">DOMAINE</text>
        <text x="350" y="43" class="text-muted" font-size="10" font-weight="600">DOSSIER</text>
        <text x="550" y="43" class="text-muted" font-size="10" font-weight="600">SSL</text>
        <text x="700" y="43" class="text-muted" font-size="10" font-weight="600">CDN</text>
        <text x="850" y="43" class="text-muted" font-size="10" font-weight="600">ACTIONS</text>
        
        <text x="20" y="80" class="text-dark" font-size="11">mon-site.com</text>
        <text x="350" y="80" class="text-muted" font-size="11">/www</text>
        <rect x="550" y="68" width="50" height="18" rx="9" fill="#DEF7EC"/>
        <text x="575" y="81" fill="#059669" font-size="9" text-anchor="middle">Actif</text>
        <rect x="700" y="68" width="50" height="18" rx="9" fill="#DEF7EC"/>
        <text x="725" y="81" fill="#059669" font-size="9" text-anchor="middle">Actif</text>
        <text x="850" y="80" class="text-primary" font-size="11">Modifier</text>
        
        <text x="20" y="115" class="text-dark" font-size="11">blog.mon-site.com</text>
        <text x="350" y="115" class="text-muted" font-size="11">/blog</text>
        <rect x="550" y="103" width="50" height="18" rx="9" fill="#DEF7EC"/>
        <text x="575" y="116" fill="#059669" font-size="9" text-anchor="middle">Actif</text>
        <rect x="700" y="103" width="55" height="18" rx="9" fill="#F3F4F6"/>
        <text x="727" y="116" fill="#6B7280" font-size="9" text-anchor="middle">Inactif</text>
        <text x="850" y="115" class="text-primary" font-size="11">Modifier</text>
        
        <text x="20" y="150" class="text-dark" font-size="11">shop.mon-site.com</text>
        <text x="350" y="150" class="text-muted" font-size="11">/shop</text>
        <rect x="550" y="138" width="50" height="18" rx="9" fill="#DEF7EC"/>
        <text x="575" y="151" fill="#059669" font-size="9" text-anchor="middle">Actif</text>
        <rect x="700" y="138" width="50" height="18" rx="9" fill="#DEF7EC"/>
        <text x="725" y="151" fill="#059669" font-size="9" text-anchor="middle">Actif</text>
        <text x="850" y="150" class="text-primary" font-size="11">Modifier</text>
      </g>

      <!-- Actions rapides -->
      <g transform="translate(0, 590)">
        <text x="0" y="0" class="text-dark" font-size="14" font-weight="600">Actions rapides</text>
        
        <g transform="translate(0, 25)">
          <rect x="0" y="0" width="200" height="80" rx="6" fill="#F9FAFB"/>
          <text x="100" y="35" class="text-dark" font-size="11" text-anchor="middle">📁 Gestionnaire fichiers</text>
          <text x="100" y="55" class="text-muted" font-size="10" text-anchor="middle">Web FTP</text>
          
          <rect x="220" y="0" width="200" height="80" rx="6" fill="#F9FAFB"/>
          <text x="320" y="35" class="text-dark" font-size="11" text-anchor="middle">🗄️ phpMyAdmin</text>
          <text x="320" y="55" class="text-muted" font-size="10" text-anchor="middle">Gérer les BDD</text>
          
          <rect x="440" y="0" width="200" height="80" rx="6" fill="#F9FAFB"/>
          <text x="540" y="35" class="text-dark" font-size="11" text-anchor="middle">📊 Statistiques</text>
          <text x="540" y="55" class="text-muted" font-size="10" text-anchor="middle">Urchin / AWStats</text>
          
          <rect x="660" y="0" width="200" height="80" rx="6" fill="#F9FAFB"/>
          <text x="760" y="35" class="text-dark" font-size="11" text-anchor="middle">🔧 Modules</text>
          <text x="760" y="55" class="text-muted" font-size="10" text-anchor="middle">WordPress, PrestaShop...</text>
          
          <rect x="880" y="0" width="140" height="80" rx="6" fill="#F9FAFB"/>
          <text x="950" y="35" class="text-dark" font-size="11" text-anchor="middle">📋 Logs</text>
          <text x="950" y="55" class="text-muted" font-size="10" text-anchor="middle">Erreurs PHP</text>
        </g>
      </g>
    </g>
  </g>
</svg>
