<?xml version="1.0" encoding="UTF-8"?>
<svg width="1100" height="600" viewBox="0 0 1100 600" fill="none" xmlns="http://www.w3.org/2000/svg">
  <title>Public Cloud - Project Billing</title>
  <rect width="1100" height="600" fill="#F9FAFB"/>
  <g transform="translate(30, 30)"><text x="0" y="0" fill="#1F2937" font-family="system-ui, sans-serif" font-size="22" font-weight="600">Facturation du projet</text><text x="0" y="30" fill="#6B7280" font-family="system-ui, sans-serif" font-size="13">Suivi de la consommation et des coûts.</text></g>
  <g transform="translate(30, 90)">
    <g transform="translate(0, 0)"><rect x="0" y="0" width="250" height="100" rx="8" fill="white" stroke="#E5E7EB"/><text x="20" y="28" fill="#6B7280" font-family="system-ui, sans-serif" font-size="12">Consommation ce mois</text><text x="20" y="60" fill="#1F2937" font-family="system-ui, sans-serif" font-size="26" font-weight="600">€185.42</text><text x="20" y="85" fill="#16A34A" font-family="system-ui, sans-serif" font-size="11">↓ -12% vs mois dernier</text></g>
    <g transform="translate(270, 0)"><rect x="0" y="0" width="250" height="100" rx="8" fill="white" stroke="#E5E7EB"/><text x="20" y="28" fill="#6B7280" font-family="system-ui, sans-serif" font-size="12">Estimation fin de mois</text><text x="20" y="60" fill="#1F2937" font-family="system-ui, sans-serif" font-size="26" font-weight="600">€210.00</text><text x="20" y="85" fill="#6B7280" font-family="system-ui, sans-serif" font-size="11">Basé sur l'usage actuel</text></g>
    <g transform="translate(540, 0)"><rect x="0" y="0" width="250" height="100" rx="8" fill="white" stroke="#E5E7EB"/><text x="20" y="28" fill="#6B7280" font-family="system-ui, sans-serif" font-size="12">Voucher disponible</text><text x="20" y="60" fill="#16A34A" font-family="system-ui, sans-serif" font-size="26" font-weight="600">€45.00</text><text x="20" y="85" fill="#6B7280" font-family="system-ui, sans-serif" font-size="11">Expire le 31/03/2025</text></g>
    <g transform="translate(810, 0)"><rect x="0" y="0" width="230" height="100" rx="8" fill="white" stroke="#E5E7EB"/><text x="20" y="28" fill="#6B7280" font-family="system-ui, sans-serif" font-size="12">Alerte budget</text><text x="20" y="60" fill="#1F2937" font-family="system-ui, sans-serif" font-size="26" font-weight="600">€300</text><g transform="translate(20, 70)"><rect x="0" y="0" width="80" height="20" rx="4" fill="#EFF6FF"/><text x="15" y="14" fill="#0050D7" font-family="system-ui, sans-serif" font-size="10">Modifier</text></g></g>
  </g>
  <g transform="translate(30, 220)">
    <rect x="0" y="0" width="680" height="340" rx="8" fill="white" stroke="#E5E7EB"/>
    <text x="20" y="30" fill="#1F2937" font-family="system-ui, sans-serif" font-size="14" font-weight="500">Répartition par service</text>
    <g transform="translate(20, 60)">
      <g transform="translate(0, 0)"><text x="0" y="0" fill="#6B7280" font-family="system-ui, sans-serif" font-size="11">Instances</text><rect x="0" y="10" width="400" height="20" rx="4" fill="#E5E7EB"/><rect x="0" y="10" width="240" height="20" rx="4" fill="#0050D7"/><text x="410" y="25" fill="#1F2937" font-family="system-ui, sans-serif" font-size="12" font-weight="500">€110.50</text><text x="510" y="25" fill="#6B7280" font-family="system-ui, sans-serif" font-size="11">60%</text></g>
      <g transform="translate(0, 50)"><text x="0" y="0" fill="#6B7280" font-family="system-ui, sans-serif" font-size="11">Kubernetes</text><rect x="0" y="10" width="400" height="20" rx="4" fill="#E5E7EB"/><rect x="0" y="10" width="100" height="20" rx="4" fill="#16A34A"/><text x="410" y="25" fill="#1F2937" font-family="system-ui, sans-serif" font-size="12" font-weight="500">€45.00</text><text x="510" y="25" fill="#6B7280" font-family="system-ui, sans-serif" font-size="11">24%</text></g>
      <g transform="translate(0, 100)"><text x="0" y="0" fill="#6B7280" font-family="system-ui, sans-serif" font-size="11">Block Storage</text><rect x="0" y="10" width="400" height="20" rx="4" fill="#E5E7EB"/><rect x="0" y="10" width="50" height="20" rx="4" fill="#F59E0B"/><text x="410" y="25" fill="#1F2937" font-family="system-ui, sans-serif" font-size="12" font-weight="500">€18.00</text><text x="510" y="25" fill="#6B7280" font-family="system-ui, sans-serif" font-size="11">10%</text></g>
      <g transform="translate(0, 150)"><text x="0" y="0" fill="#6B7280" font-family="system-ui, sans-serif" font-size="11">Object Storage</text><rect x="0" y="10" width="400" height="20" rx="4" fill="#E5E7EB"/><rect x="0" y="10" width="25" height="20" rx="4" fill="#7C3AED"/><text x="410" y="25" fill="#1F2937" font-family="system-ui, sans-serif" font-size="12" font-weight="500">€8.92</text><text x="510" y="25" fill="#6B7280" font-family="system-ui, sans-serif" font-size="11">5%</text></g>
      <g transform="translate(0, 200)"><text x="0" y="0" fill="#6B7280" font-family="system-ui, sans-serif" font-size="11">Autres</text><rect x="0" y="10" width="400" height="20" rx="4" fill="#E5E7EB"/><rect x="0" y="10" width="10" height="20" rx="4" fill="#6B7280"/><text x="410" y="25" fill="#1F2937" font-family="system-ui, sans-serif" font-size="12" font-weight="500">€3.00</text><text x="510" y="25" fill="#6B7280" font-family="system-ui, sans-serif" font-size="11">1%</text></g>
    </g>
  </g>
  <g transform="translate(730, 220)">
    <rect x="0" y="0" width="310" height="340" rx="8" fill="white" stroke="#E5E7EB"/>
    <text x="20" y="30" fill="#1F2937" font-family="system-ui, sans-serif" font-size="14" font-weight="500">Historique mensuel</text>
    <g transform="translate(20, 55)"><text x="0" y="15" fill="#6B7280" font-family="system-ui, sans-serif" font-size="12">Décembre 2024</text><text x="200" y="15" fill="#1F2937" font-family="system-ui, sans-serif" font-size="12" font-weight="500">€185.42</text></g>
    <g transform="translate(20, 90)"><text x="0" y="15" fill="#6B7280" font-family="system-ui, sans-serif" font-size="12">Novembre 2024</text><text x="200" y="15" fill="#1F2937" font-family="system-ui, sans-serif" font-size="12" font-weight="500">€210.80</text></g>
    <g transform="translate(20, 125)"><text x="0" y="15" fill="#6B7280" font-family="system-ui, sans-serif" font-size="12">Octobre 2024</text><text x="200" y="15" fill="#1F2937" font-family="system-ui, sans-serif" font-size="12" font-weight="500">€198.50</text></g>
    <g transform="translate(20, 160)"><text x="0" y="15" fill="#6B7280" font-family="system-ui, sans-serif" font-size="12">Septembre 2024</text><text x="200" y="15" fill="#1F2937" font-family="system-ui, sans-serif" font-size="12" font-weight="500">€175.20</text></g>
    <g transform="translate(20, 195)"><text x="0" y="15" fill="#6B7280" font-family="system-ui, sans-serif" font-size="12">Août 2024</text><text x="200" y="15" fill="#1F2937" font-family="system-ui, sans-serif" font-size="12" font-weight="500">€162.00</text></g>
    <g transform="translate(20, 280)"><rect x="0" y="0" width="270" height="36" rx="4" fill="#EFF6FF" stroke="#BFDBFE"/><text x="60" y="24" fill="#0050D7" font-family="system-ui, sans-serif" font-size="12">Télécharger factures</text></g>
  </g>
</svg>
