<svg xmlns="http://www.w3.org/2000/svg" viewBox="0 0 1440 900" width="1440" height="900">
  <defs>
    <style>
      .bg-header { fill: #000E9C; }
      .bg-main { fill: #F6F6F9; }
      .bg-white { fill: #FFFFFF; }
      .bg-primary { fill: #0050D7; }
      .bg-neutral-100 { fill: #F3F4F6; }
      .bg-info { fill: #DBEAFE; }
      .bg-success { fill: #DEF7EC; }
      .bg-error { fill: #FEE2E2; }
      .bg-warning { fill: #FEF3C7; }
      .border { stroke: #E5E7EB; stroke-width: 1; fill: none; }
      .divider { stroke: #E5E7EB; stroke-width: 1; }
      .btn-outline { stroke: #0050D7; stroke-width: 1; fill: #FFFFFF; }
      .btn-primary { fill: #0050D7; }
      .btn-disabled { fill: #E5E7EB; }
      .row-selected { fill: #E8F0FE; }
      .table-header { fill: #F9FAFB; }
      .text-white { fill: #FFFFFF; font-family: 'Source Sans Pro', sans-serif; }
      .text-dark { fill: #1F2937; font-family: 'Source Sans Pro', sans-serif; }
      .text-muted { fill: #6B7280; font-family: 'Source Sans Pro', sans-serif; }
      .text-primary { fill: #0050D7; font-family: 'Source Sans Pro', sans-serif; }
      .text-success { fill: #059669; font-family: 'Source Sans Pro', sans-serif; }
      .text-error { fill: #DC2626; font-family: 'Source Sans Pro', sans-serif; }
      .text-info { fill: #1E40AF; font-family: 'Source Sans Pro', sans-serif; }
      .text-warning { fill: #D97706; font-family: 'Source Sans Pro', sans-serif; }
    </style>
  </defs>

  <!-- Background -->
  <rect width="1440" height="900" class="bg-main"/>

  <!-- NAV1 - Header OVH (Web Cloud actif) -->
  <rect width="1440" height="50" class="bg-header"/>
  <text x="40" y="32" class="text-white" font-size="14" opacity="0.7">Accueil</text>
  <text x="110" y="32" class="text-white" font-size="14" opacity="0.7">Public Cloud</text>
  <text x="210" y="32" class="text-white" font-size="14" opacity="0.7">Hosted Private Cloud</text>
  <text x="370" y="32" class="text-white" font-size="14" opacity="0.7">Bare Metal Cloud</text>
  <text x="510" y="32" class="text-white" font-size="14" font-weight="600">Web Cloud</text>
  <rect x="505" y="46" width="75" height="3" fill="#FFFFFF"/>
  <text x="620" y="32" class="text-white" font-size="14" opacity="0.7">Network</text>
  <text x="700" y="32" class="text-white" font-size="14" opacity="0.7">IAM / Securite</text>
  <text x="810" y="32" class="text-white" font-size="14" opacity="0.7">Licences</text>
  <rect x="1280" y="12" width="140" height="26" rx="13" fill="rgba(255,255,255,0.2)"/>
  <rect x="1285" y="15" width="26" height="20" rx="10" fill="#DEF7EC"/>
  <text x="1292" y="29" fill="#03543F" font-size="10" font-weight="600">OK</text>
  <text x="1320" y="29" class="text-white" font-size="12">ab12345-ovh</text>

  <!-- NAV2 - Web Cloud (VoIP actif) -->
  <rect x="0" y="50" width="1440" height="40" fill="#FFFFFF"/>
  <line x1="0" y1="89" x2="1440" y2="89" stroke="#E5E7EB"/>
  <text x="40" y="75" class="text-muted" font-size="14">Accueil</text>
  <text x="110" y="75" class="text-muted" font-size="14">Domaines et DNS</text>
  <text x="240" y="75" class="text-muted" font-size="14">Hebergement</text>
  <text x="345" y="75" class="text-muted" font-size="14">Wordpress</text>
  <text x="430" y="75" class="text-muted" font-size="14">Emails</text>
  <text x="500" y="75" class="text-primary" font-size="14" font-weight="600">VoIP</text>
  <rect x="495" y="85" width="35" height="3" fill="#0050D7"/>
  <text x="550" y="75" class="text-muted" font-size="14">Acces</text>
  <text x="1350" y="75" class="text-primary" font-size="13">Guides</text>

  <!-- CONTENT AREA -->
  <g transform="translate(0, 105)">
    <g transform="translate(24, 0)">

      <!-- LEFT PANEL -->
      <rect x="0" y="0" width="280" height="765" rx="8" class="bg-white"/>
      <rect x="0" y="0" width="280" height="765" rx="8" class="border"/>

      <!-- Recherche -->
      <rect x="12" y="12" width="256" height="34" rx="4" fill="#F9FAFB" stroke="#E5E7EB"/>
      <text x="26" y="34" class="text-muted" font-size="12">Rechercher...</text>

      <!-- Compteur -->
      <text x="12" y="68" class="text-muted" font-size="11">2 trunks SIP</text>

      <!-- Service item 1 - Selected -->
      <g transform="translate(6, 80)">
        <rect x="0" y="0" width="268" height="60" rx="6" fill="#E8F0FE"/>
        <circle cx="28" cy="30" r="16" fill="#0050D7"/>
        <text x="28" y="35" class="text-white" font-size="10" text-anchor="middle">SIP</text>
        <text x="54" y="24" class="text-dark" font-size="12" font-weight="500">cs-1234567</text>
        <text x="54" y="42" class="text-muted" font-size="10">Trunk SIP production</text>
        <rect x="200" y="16" width="46" height="18" rx="9" fill="#DEF7EC"/>
        <text x="223" y="29" fill="#03543F" font-size="10" text-anchor="middle">Actif</text>
      </g>

      <!-- Service item 2 -->
      <g transform="translate(6, 148)">
        <rect x="0" y="0" width="268" height="60" rx="6" fill="#FFFFFF" stroke="#E5E7EB"/>
        <circle cx="28" cy="30" r="16" fill="#6B7280"/>
        <text x="28" y="35" class="text-white" font-size="10" text-anchor="middle">SIP</text>
        <text x="54" y="24" class="text-dark" font-size="12" font-weight="500">cs-9876543</text>
        <text x="54" y="42" class="text-muted" font-size="10">Trunk SIP backup</text>
        <rect x="200" y="16" width="46" height="18" rx="9" fill="#DEF7EC"/>
        <text x="223" y="29" fill="#03543F" font-size="10" text-anchor="middle">Actif</text>
      </g>

    </g>

    <g transform="translate(320, 0)">

      <!-- RIGHT PANEL -->
      <rect x="0" y="0" width="1096" height="765" rx="8" class="bg-white"/>
      <rect x="0" y="0" width="1096" height="765" rx="8" class="border"/>

      <g transform="translate(20, 0)">
        <!-- HEADER PAGE -->
        <text x="0" y="28" class="text-dark" font-size="18" font-weight="600">cs-1234567</text>
        <text x="0" y="48" class="text-muted" font-size="12">Trunk SIP production</text>

        <!-- NAV3 TABS -->
        <g transform="translate(0, 60)">
          <rect x="0" y="0" width="95" height="26" rx="4" fill="#0050D7"/>
          <text x="47" y="17" class="text-white" font-size="11" text-anchor="middle">Dashboard</text>

          <rect x="99" y="0" width="75" height="26" rx="4" fill="#FFFFFF" stroke="#0050D7"/>
          <text x="136" y="17" class="text-primary" font-size="11" text-anchor="middle">Endpoints</text>

          <rect x="178" y="0" width="55" height="26" rx="4" fill="#FFFFFF" stroke="#0050D7"/>
          <text x="205" y="17" class="text-primary" font-size="11" text-anchor="middle">CDR</text>

          <rect x="237" y="0" width="70" height="26" rx="4" fill="#FFFFFF" stroke="#0050D7"/>
          <text x="272" y="17" class="text-primary" font-size="11" text-anchor="middle">Routage</text>

          <rect x="311" y="0" width="85" height="26" rx="4" fill="#FFFFFF" stroke="#0050D7"/>
          <text x="353" y="17" class="text-primary" font-size="11" text-anchor="middle">Parametres</text>
        </g>

        <!-- CONTENU - Dashboard -->
        <g transform="translate(0, 100)">

          <!-- ROW 1: 3 Cards -->
          <g>
            <!-- Card 1: Informations generales -->
            <g>
              <rect x="0" y="0" width="340" height="200" rx="6" fill="#FFFFFF" stroke="#E5E7EB"/>
              <text x="16" y="28" class="text-dark" font-size="13" font-weight="600">Informations generales</text>
              <line x1="0" y1="44" x2="340" y2="44" stroke="#E5E7EB"/>

              <g transform="translate(16, 60)">
                <text class="text-muted" font-size="11">Nom du service</text>
                <text y="18" class="text-dark" font-size="12">cs-1234567</text>
              </g>
              <g transform="translate(16, 100)">
                <text class="text-muted" font-size="11">Description</text>
                <text y="18" class="text-dark" font-size="12">Trunk SIP production</text>
              </g>
              <g transform="translate(16, 140)">
                <text class="text-muted" font-size="11">Appels max/seconde</text>
                <text y="18" class="text-dark" font-size="12">10</text>
              </g>
              <g transform="translate(180, 140)">
                <text class="text-muted" font-size="11">Appels simultanes max</text>
                <text y="18" class="text-dark" font-size="12">100</text>
              </g>
            </g>

            <!-- Card 2: Renouvellement -->
            <g transform="translate(356, 0)">
              <rect x="0" y="0" width="340" height="200" rx="6" fill="#FFFFFF" stroke="#E5E7EB"/>
              <text x="16" y="28" class="text-dark" font-size="13" font-weight="600">Renouvellement</text>
              <line x1="0" y1="44" x2="340" y2="44" stroke="#E5E7EB"/>

              <g transform="translate(16, 60)">
                <text class="text-muted" font-size="11">Date d'expiration</text>
                <text y="18" class="text-dark" font-size="12">15/01/2026</text>
              </g>
              <g transform="translate(16, 100)">
                <text class="text-muted" font-size="11">Date de creation</text>
                <text y="18" class="text-dark" font-size="12">15/01/2024</text>
              </g>
              <g transform="translate(16, 140)">
                <text class="text-muted" font-size="11">Contacts</text>
                <g transform="translate(0, 16)">
                  <text class="text-dark" font-size="11">ab12345-ovh</text>
                  <text x="90" class="text-muted" font-size="10">(Admin, Tech, Billing)</text>
                </g>
              </g>
            </g>

            <!-- Card 3: Raccourcis -->
            <g transform="translate(712, 0)">
              <rect x="0" y="0" width="340" height="200" rx="6" fill="#FFFFFF" stroke="#E5E7EB"/>
              <text x="16" y="28" class="text-dark" font-size="13" font-weight="600">Raccourcis</text>
              <line x1="0" y1="44" x2="340" y2="44" stroke="#E5E7EB"/>

              <g transform="translate(16, 56)">
                <rect x="0" y="0" width="308" height="36" rx="4" fill="#FFFFFF" stroke="#E5E7EB"/>
                <text x="12" y="23" class="text-primary" font-size="12">Voir les factures</text>
                <text x="280" y="23" class="text-muted" font-size="12">›</text>
              </g>
              <g transform="translate(16, 100)">
                <rect x="0" y="0" width="308" height="36" rx="4" fill="#FFFFFF" stroke="#E5E7EB"/>
                <text x="12" y="23" class="text-primary" font-size="12">Exporter les CDR</text>
                <text x="280" y="23" class="text-muted" font-size="12">›</text>
              </g>
              <g transform="translate(16, 144)">
                <rect x="0" y="0" width="308" height="36" rx="4" fill="#FFFFFF" stroke="#E5E7EB"/>
                <text x="12" y="23" class="text-primary" font-size="12">Gerer les endpoints</text>
                <text x="280" y="23" class="text-muted" font-size="12">›</text>
              </g>
            </g>
          </g>

          <!-- ROW 2: Network card -->
          <g transform="translate(0, 220)">
            <rect x="0" y="0" width="520" height="280" rx="6" fill="#FFFFFF" stroke="#E5E7EB"/>
            <text x="16" y="28" class="text-dark" font-size="13" font-weight="600">Reseau - IP Media</text>
            <line x1="0" y1="44" x2="520" y2="44" stroke="#E5E7EB"/>

            <g transform="translate(16, 60)">
              <text class="text-muted" font-size="11">IP Media FR</text>
              <g transform="translate(0, 18)">
                <rect x="0" y="0" width="200" height="24" rx="4" fill="#F3F4F6"/>
                <text x="10" y="16" class="text-dark" font-size="11">91.121.128.10</text>
                <text x="170" y="16" class="text-primary" font-size="10">Copy</text>
              </g>
              <g transform="translate(0, 48)">
                <rect x="0" y="0" width="200" height="24" rx="4" fill="#F3F4F6"/>
                <text x="10" y="16" class="text-dark" font-size="11">91.121.128.11</text>
                <text x="170" y="16" class="text-primary" font-size="10">Copy</text>
              </g>
            </g>

            <g transform="translate(250, 60)">
              <text class="text-muted" font-size="11">IP Media DE</text>
              <g transform="translate(0, 18)">
                <rect x="0" y="0" width="200" height="24" rx="4" fill="#F3F4F6"/>
                <text x="10" y="16" class="text-dark" font-size="11">178.32.50.10</text>
                <text x="170" y="16" class="text-primary" font-size="10">Copy</text>
              </g>
              <g transform="translate(0, 48)">
                <rect x="0" y="0" width="200" height="24" rx="4" fill="#F3F4F6"/>
                <text x="10" y="16" class="text-dark" font-size="11">178.32.50.11</text>
                <text x="170" y="16" class="text-primary" font-size="10">Copy</text>
              </g>
            </g>

            <g transform="translate(16, 160)">
              <text class="text-muted" font-size="11">IP Media UK</text>
              <g transform="translate(0, 18)">
                <rect x="0" y="0" width="200" height="24" rx="4" fill="#F3F4F6"/>
                <text x="10" y="16" class="text-dark" font-size="11">51.89.200.10</text>
                <text x="170" y="16" class="text-primary" font-size="10">Copy</text>
              </g>
              <g transform="translate(0, 48)">
                <rect x="0" y="0" width="200" height="24" rx="4" fill="#F3F4F6"/>
                <text x="10" y="16" class="text-dark" font-size="11">51.89.200.11</text>
                <text x="170" y="16" class="text-primary" font-size="10">Copy</text>
              </g>
            </g>
          </g>

          <!-- ROW 2: Stats card -->
          <g transform="translate(536, 220)">
            <rect x="0" y="0" width="516" height="280" rx="6" fill="#FFFFFF" stroke="#E5E7EB"/>
            <text x="16" y="28" class="text-dark" font-size="13" font-weight="600">Statistiques (30 derniers jours)</text>
            <line x1="0" y1="44" x2="516" y2="44" stroke="#E5E7EB"/>

            <g transform="translate(16, 70)">
              <text class="text-dark" font-size="32" font-weight="600">12,458</text>
              <text y="24" class="text-muted" font-size="11">Appels totaux</text>
            </g>

            <g transform="translate(140, 70)">
              <text class="text-dark" font-size="32" font-weight="600">98.5%</text>
              <text y="24" class="text-muted" font-size="11">Taux de reussite</text>
            </g>

            <g transform="translate(280, 70)">
              <text class="text-dark" font-size="32" font-weight="600">2:34</text>
              <text y="24" class="text-muted" font-size="11">Duree moyenne</text>
            </g>

            <!-- Mini chart placeholder -->
            <g transform="translate(16, 140)">
              <rect x="0" y="0" width="484" height="120" rx="4" fill="#F9FAFB"/>
              <text x="242" y="65" class="text-muted" font-size="11" text-anchor="middle">Graphique d'appels (7j)</text>
            </g>
          </g>

        </g>
      </g>

    </g>
  </g>
</svg>
