<svg xmlns="http://www.w3.org/2000/svg" viewBox="0 0 1440 900" width="1440" height="900">
  <defs>
    <style>
      .bg-header { fill: #000E9C; }
      .bg-main { fill: #F6F6F9; }
      .bg-white { fill: #FFFFFF; }
      .border { stroke: #E5E7EB; stroke-width: 1; fill: none; }
      .text-white { fill: #FFFFFF; font-family: 'Source Sans Pro', sans-serif; }
      .text-dark { fill: #1F2937; font-family: 'Source Sans Pro', sans-serif; }
      .text-muted { fill: #6B7280; font-family: 'Source Sans Pro', sans-serif; }
      .text-primary { fill: #0050D7; font-family: 'Source Sans Pro', sans-serif; }
    </style>
  </defs>

  <rect width="1440" height="900" class="bg-main"/>
  <rect width="1440" height="50" class="bg-header"/>
  <text x="510" y="32" class="text-white" font-size="14" font-weight="600">Web Cloud</text>
  <rect y="50" width="1440" height="40" class="bg-white"/>
  <line x1="0" y1="90" x2="1440" y2="90" stroke="#E5E7EB"/>
  <text x="400" y="75" class="text-primary" font-size="14" font-weight="600">Téléphonie</text>

  <!-- LEFT PANEL -->
  <g transform="translate(24, 105)">
    <rect x="0" y="0" width="280" height="780" rx="8" class="bg-white"/>
    <rect x="0" y="0" width="280" height="780" rx="8" class="border"/>
    <text x="20" y="35" class="text-dark" font-size="14" font-weight="600">carrier-sip-001</text>
    <text x="20" y="52" class="text-muted" font-size="10">Carrier SIP</text>
    <line x1="0" y1="70" x2="280" y2="70" stroke="#E5E7EB"/>
    <rect x="0" y="70" width="280" height="36" fill="#E8F0FE"/>
    <text x="20" y="94" class="text-primary" font-size="12" font-weight="600">Tableau de bord</text>
    <text x="20" y="130" class="text-dark" font-size="12">Endpoints</text>
    <text x="250" y="130" class="text-muted" font-size="10">4</text>
    <text x="20" y="160" class="text-dark" font-size="12">CDR / Journaux</text>
    <text x="20" y="190" class="text-dark" font-size="12">Routage</text>
    <text x="20" y="220" class="text-dark" font-size="12">Paramètres</text>
  </g>

  <!-- RIGHT PANEL -->
  <g transform="translate(320, 105)">
    <rect x="0" y="0" width="1096" height="780" rx="8" class="bg-white"/>
    <rect x="0" y="0" width="1096" height="780" rx="8" class="border"/>

    <g transform="translate(24, 24)">
      <text x="0" y="20" class="text-dark" font-size="16" font-weight="600">Carrier SIP - Tableau de bord</text>

      <!-- Stats cards -->
      <g transform="translate(0, 50)">
        <rect x="0" y="0" width="200" height="100" rx="6" class="bg-white"/>
        <rect x="0" y="0" width="200" height="100" rx="6" class="border"/>
        <text x="20" y="30" class="text-muted" font-size="11">Appels en cours</text>
        <text x="20" y="60" fill="#059669" font-size="28" font-weight="700">12</text>
        <text x="20" y="82" class="text-muted" font-size="10">sur 100 canaux</text>

        <rect x="220" y="0" width="200" height="100" rx="6" class="bg-white"/>
        <rect x="220" y="0" width="200" height="100" rx="6" class="border"/>
        <text x="240" y="30" class="text-muted" font-size="11">Appels aujourd'hui</text>
        <text x="240" y="60" class="text-dark" font-size="28" font-weight="700">847</text>
        <text x="240" y="82" fill="#059669" font-size="10">↑ +12% vs hier</text>

        <rect x="440" y="0" width="200" height="100" rx="6" class="bg-white"/>
        <rect x="440" y="0" width="200" height="100" rx="6" class="border"/>
        <text x="460" y="30" class="text-muted" font-size="11">Minutes ce mois</text>
        <text x="460" y="60" class="text-dark" font-size="28" font-weight="700">45 230</text>
        <text x="460" y="82" class="text-muted" font-size="10">753h 50m</text>

        <rect x="660" y="0" width="200" height="100" rx="6" class="bg-white"/>
        <rect x="660" y="0" width="200" height="100" rx="6" class="border"/>
        <text x="680" y="30" class="text-muted" font-size="11">Endpoints actifs</text>
        <text x="680" y="60" class="text-dark" font-size="28" font-weight="700">4/4</text>
        <text x="680" y="82" fill="#059669" font-size="10">● Tous connectés</text>

        <rect x="880" y="0" width="140" height="100" rx="6" class="bg-white"/>
        <rect x="880" y="0" width="140" height="100" rx="6" class="border"/>
        <text x="900" y="30" class="text-muted" font-size="11">Taux réussite</text>
        <text x="900" y="60" fill="#059669" font-size="28" font-weight="700">99.2%</text>
        <text x="900" y="82" class="text-muted" font-size="10">ASR</text>
      </g>

      <!-- Endpoints status -->
      <g transform="translate(0, 180)">
        <text x="0" y="0" class="text-dark" font-size="14" font-weight="600">État des endpoints</text>
        
        <g transform="translate(0, 25)">
          <rect x="0" y="0" width="520" height="50" rx="4" fill="#DEF7EC"/>
          <circle cx="25" cy="25" r="8" fill="#059669"/>
          <text x="50" y="22" class="text-dark" font-size="12" font-weight="500">endpoint-paris-01</text>
          <text x="50" y="38" class="text-muted" font-size="9">Paris • 194.0.0.10 • 5 appels actifs</text>
          <text x="450" y="28" fill="#059669" font-size="10">Connecté</text>

          <rect x="0" y="58" width="520" height="50" rx="4" class="bg-white"/>
          <rect x="0" y="58" width="520" height="50" rx="4" class="border"/>
          <circle cx="25" cy="83" r="8" fill="#059669"/>
          <text x="50" y="80" class="text-dark" font-size="12" font-weight="500">endpoint-paris-02</text>
          <text x="50" y="96" class="text-muted" font-size="9">Paris • 194.0.0.11 • 3 appels actifs</text>
          <text x="450" y="86" fill="#059669" font-size="10">Connecté</text>

          <rect x="0" y="116" width="520" height="50" rx="4" fill="#F9FAFB"/>
          <circle cx="25" cy="141" r="8" fill="#059669"/>
          <text x="50" y="138" class="text-dark" font-size="12" font-weight="500">endpoint-lyon-01</text>
          <text x="50" y="154" class="text-muted" font-size="9">Lyon • 194.0.0.20 • 2 appels actifs</text>
          <text x="450" y="144" fill="#059669" font-size="10">Connecté</text>

          <rect x="0" y="174" width="520" height="50" rx="4" class="bg-white"/>
          <rect x="0" y="174" width="520" height="50" rx="4" class="border"/>
          <circle cx="25" cy="199" r="8" fill="#059669"/>
          <text x="50" y="196" class="text-dark" font-size="12" font-weight="500">endpoint-backup</text>
          <text x="50" y="212" class="text-muted" font-size="9">Roubaix • 194.0.0.30 • 2 appels actifs</text>
          <text x="450" y="202" fill="#059669" font-size="10">Connecté</text>
        </g>
      </g>

      <!-- Trafic temps réel -->
      <g transform="translate(550, 180)">
        <text x="0" y="0" class="text-dark" font-size="14" font-weight="600">Trafic temps réel</text>
        <rect x="0" y="25" width="470" height="250" rx="6" fill="#F9FAFB"/>
        <text x="235" y="140" class="text-muted" font-size="12" text-anchor="middle">[Graphique temps réel: appels/seconde]</text>
      </g>

      <!-- Derniers appels -->
      <g transform="translate(0, 470)">
        <text x="0" y="0" class="text-dark" font-size="14" font-weight="600">Derniers appels</text>
        <text x="970" y="0" class="text-primary" font-size="11">Voir CDR complet →</text>

        <g transform="translate(0, 25)">
          <rect x="0" y="0" width="1048" height="32" rx="4" fill="#F9FAFB"/>
          <text x="20" y="22" class="text-dark" font-size="10" font-weight="600">Heure</text>
          <text x="120" y="22" class="text-dark" font-size="10" font-weight="600">Source</text>
          <text x="300" y="22" class="text-dark" font-size="10" font-weight="600">Destination</text>
          <text x="480" y="22" class="text-dark" font-size="10" font-weight="600">Endpoint</text>
          <text x="620" y="22" class="text-dark" font-size="10" font-weight="600">Durée</text>
          <text x="720" y="22" class="text-dark" font-size="10" font-weight="600">Statut</text>

          <rect x="0" y="36" width="1048" height="40" class="bg-white"/>
          <line x1="0" y1="76" x2="1048" y2="76" stroke="#E5E7EB"/>
          <text x="20" y="62" class="text-muted" font-size="10">15:32:45</text>
          <text x="120" y="62" class="text-dark" font-size="10">+33 1 84 88 00 00</text>
          <text x="300" y="62" class="text-dark" font-size="10">+33 6 12 34 56 78</text>
          <text x="480" y="62" class="text-muted" font-size="10">paris-01</text>
          <text x="620" y="62" class="text-dark" font-size="10">En cours</text>
          <rect x="720" y="48" width="60" height="18" rx="9" fill="#DEF7EC"/>
          <text x="750" y="60" fill="#03543F" font-size="9" text-anchor="middle">200 OK</text>

          <rect x="0" y="76" width="1048" height="40" fill="#F9FAFB"/>
          <line x1="0" y1="116" x2="1048" y2="116" stroke="#E5E7EB"/>
          <text x="20" y="102" class="text-muted" font-size="10">15:32:12</text>
          <text x="120" y="102" class="text-dark" font-size="10">+33 4 91 00 00 00</text>
          <text x="300" y="102" class="text-dark" font-size="10">+44 20 7946 0958</text>
          <text x="480" y="102" class="text-muted" font-size="10">lyon-01</text>
          <text x="620" y="102" class="text-dark" font-size="10">3m 42s</text>
          <rect x="720" y="88" width="60" height="18" rx="9" fill="#DEF7EC"/>
          <text x="750" y="100" fill="#03543F" font-size="9" text-anchor="middle">200 OK</text>
        </g>
      </g>
    </g>
  </g>
</svg>
