<?xml version="1.0" encoding="UTF-8"?>
<svg width="1200" height="650" viewBox="0 0 1200 650" fill="none" xmlns="http://www.w3.org/2000/svg">
  <title>CDN - Règles de cache du domaine</title>

  <!-- Background -->
  <rect width="1200" height="650" fill="#F9FAFB"/>

  <!-- Header -->
  <rect width="1200" height="60" fill="#000E9C"/>
  <text x="40" y="38" fill="white" font-family="system-ui, sans-serif" font-size="18" font-weight="600">OVHcloud</text>
  <text x="160" y="38" fill="white" font-family="system-ui, sans-serif" font-size="14">Network › CDN › cdn-123456 › cdn.example.com</text>

  <!-- Tabs -->
  <g transform="translate(40, 80)">
    <text x="0" y="0" fill="#6B7280" font-family="system-ui, sans-serif" font-size="14">Statistiques</text>
    <text x="100" y="0" fill="#0050D7" font-family="system-ui, sans-serif" font-size="14" font-weight="600">Règles de cache</text>
    <rect x="100" y="8" width="110" height="3" fill="#0050D7"/>
    <text x="230" y="0" fill="#6B7280" font-family="system-ui, sans-serif" font-size="14">Logs</text>
  </g>

  <!-- Main content area -->
  <g transform="translate(40, 110)">
    <!-- Title -->
    <text x="0" y="20" fill="#1F2937" font-family="system-ui, sans-serif" font-size="18" font-weight="600">Règles de cache</text>

    <!-- Search and actions row -->
    <g transform="translate(0, 45)">
      <rect x="0" y="0" width="300" height="40" rx="4" fill="white" stroke="#E5E7EB"/>
      <text x="15" y="25" fill="#9CA3AF" font-family="system-ui, sans-serif" font-size="13">Rechercher une règle...</text>
      <text x="270" y="25" fill="#6B7280" font-family="system-ui, sans-serif" font-size="14">🔍</text>
    </g>

    <!-- Action buttons on right -->
    <g transform="translate(720, 45)">
      <rect x="0" y="0" width="150" height="40" rx="4" fill="white" stroke="#E5E7EB"/>
      <text x="15" y="25" fill="#1F2937" font-family="system-ui, sans-serif" font-size="13">+ Ajouter une règle</text>

      <rect x="165" y="0" width="140" height="40" rx="4" fill="white" stroke="#E5E7EB"/>
      <text x="180" y="25" fill="#1F2937" font-family="system-ui, sans-serif" font-size="13">Tout désactiver</text>

      <rect x="320" y="0" width="130" height="40" rx="4" fill="white" stroke="#E5E7EB"/>
      <text x="335" y="25" fill="#1F2937" font-family="system-ui, sans-serif" font-size="13">Vider le cache</text>
    </g>
  </g>

  <!-- Data table -->
  <g transform="translate(40, 210)">
    <!-- Table header -->
    <rect x="0" y="0" width="1100" height="45" fill="#F9FAFB" stroke="#E5E7EB"/>
    <text x="20" y="28" fill="#6B7280" font-family="system-ui, sans-serif" font-size="12" font-weight="500">TYPE</text>
    <text x="180" y="28" fill="#6B7280" font-family="system-ui, sans-serif" font-size="12" font-weight="500">RÈGLE</text>
    <text x="450" y="28" fill="#6B7280" font-family="system-ui, sans-serif" font-size="12" font-weight="500">TYPE DE CACHE</text>
    <text x="650" y="28" fill="#6B7280" font-family="system-ui, sans-serif" font-size="12" font-weight="500">TTL</text>
    <text x="800" y="28" fill="#6B7280" font-family="system-ui, sans-serif" font-size="12" font-weight="500">ÉTAT</text>
    <text x="1020" y="28" fill="#6B7280" font-family="system-ui, sans-serif" font-size="12" font-weight="500">ACTIONS</text>

    <!-- Row 1 -->
    <rect x="0" y="45" width="1100" height="55" fill="white" stroke="#E5E7EB"/>
    <text x="20" y="78" fill="#1F2937" font-family="system-ui, sans-serif" font-size="13">Extension</text>
    <text x="180" y="78" fill="#1F2937" font-family="system-ui, sans-serif" font-size="13">.jpg, .png, .gif</text>
    <text x="450" y="78" fill="#1F2937" font-family="system-ui, sans-serif" font-size="13">Forcer le cache</text>
    <text x="650" y="78" fill="#1F2937" font-family="system-ui, sans-serif" font-size="13">3600</text>
    <rect x="800" y="63" width="50" height="24" rx="4" fill="#D1FAE5"/>
    <text x="815" y="80" fill="#10B981" font-family="system-ui, sans-serif" font-size="11">ON</text>
    <!-- Action menu open -->
    <g transform="translate(1020, 58)">
      <rect x="0" y="0" width="30" height="30" rx="4" fill="#F9FAFB" stroke="#E5E7EB"/>
      <text x="11" y="20" fill="#6B7280" font-family="system-ui, sans-serif" font-size="14">⋮</text>
      <!-- Dropdown -->
      <rect x="-100" y="35" width="150" height="140" rx="4" fill="white" stroke="#E5E7EB" filter="drop-shadow(0 2px 4px rgba(0,0,0,0.1))"/>
      <text x="-85" y="60" fill="#1F2937" font-family="system-ui, sans-serif" font-size="12">Vider le cache</text>
      <text x="-85" y="85" fill="#1F2937" font-family="system-ui, sans-serif" font-size="12">Modifier TTL</text>
      <text x="-85" y="110" fill="#1F2937" font-family="system-ui, sans-serif" font-size="12">Désactiver</text>
      <text x="-85" y="135" fill="#DC2626" font-family="system-ui, sans-serif" font-size="12">Supprimer</text>
    </g>

    <!-- Row 2 -->
    <rect x="0" y="100" width="1100" height="55" fill="white" stroke="#E5E7EB"/>
    <text x="20" y="133" fill="#1F2937" font-family="system-ui, sans-serif" font-size="13">Extension</text>
    <text x="180" y="133" fill="#1F2937" font-family="system-ui, sans-serif" font-size="13">.css, .js</text>
    <text x="450" y="133" fill="#1F2937" font-family="system-ui, sans-serif" font-size="13">Forcer le cache</text>
    <text x="650" y="133" fill="#1F2937" font-family="system-ui, sans-serif" font-size="13">86400</text>
    <rect x="800" y="118" width="50" height="24" rx="4" fill="#D1FAE5"/>
    <text x="815" y="135" fill="#10B981" font-family="system-ui, sans-serif" font-size="11">ON</text>
    <g transform="translate(1020, 113)">
      <rect x="0" y="0" width="30" height="30" rx="4" fill="white" stroke="#E5E7EB"/>
      <text x="11" y="20" fill="#6B7280" font-family="system-ui, sans-serif" font-size="14">⋮</text>
    </g>

    <!-- Row 3 -->
    <rect x="0" y="155" width="1100" height="55" fill="white" stroke="#E5E7EB"/>
    <text x="20" y="188" fill="#1F2937" font-family="system-ui, sans-serif" font-size="13">Dossier</text>
    <text x="180" y="188" fill="#1F2937" font-family="system-ui, sans-serif" font-size="13">/api/*</text>
    <text x="450" y="188" fill="#1F2937" font-family="system-ui, sans-serif" font-size="13">Pas de cache</text>
    <text x="650" y="188" fill="#1F2937" font-family="system-ui, sans-serif" font-size="13">-</text>
    <rect x="800" y="173" width="50" height="24" rx="4" fill="#FEE2E2"/>
    <text x="812" y="190" fill="#DC2626" font-family="system-ui, sans-serif" font-size="11">OFF</text>
    <g transform="translate(1020, 168)">
      <rect x="0" y="0" width="30" height="30" rx="4" fill="white" stroke="#E5E7EB"/>
      <text x="11" y="20" fill="#6B7280" font-family="system-ui, sans-serif" font-size="14">⋮</text>
    </g>
  </g>

  <!-- Pagination -->
  <g transform="translate(40, 590)">
    <text x="0" y="0" fill="#6B7280" font-family="system-ui, sans-serif" font-size="12">Affichage 1-3 sur 3 règles</text>
  </g>
</svg>
