<svg xmlns="http://www.w3.org/2000/svg" viewBox="0 0 1440 580" width="1440" height="580">
  <defs>
    <style>
      .bg-header { fill: #000E9C; }
      .bg-white { fill: #FFFFFF; }
      .bg-muted { fill: #F9FAFB; }
      .text-dark { font-family: 'Source Sans Pro', sans-serif; font-size: 14px; fill: #1F2937; }
      .text-muted { font-family: 'Source Sans Pro', sans-serif; font-size: 13px; fill: #6B7280; }
      .text-white { font-family: 'Source Sans Pro', sans-serif; fill: #FFFFFF; }
      .text-title { font-family: 'Source Sans Pro', sans-serif; font-size: 24px; font-weight: 600; fill: #1F2937; }
      .text-section { font-family: 'Source Sans Pro', sans-serif; font-size: 18px; font-weight: 600; fill: #1F2937; }
      .text-label { font-family: 'Source Sans Pro', sans-serif; font-size: 14px; font-weight: 500; fill: #374151; }
      .text-link { font-family: 'Source Sans Pro', sans-serif; font-size: 14px; fill: #0050D7; }
      .border { stroke: #E5E7EB; stroke-width: 1; fill: none; }
      .btn-primary { fill: #0050D7; }
      .btn-secondary { fill: #FFFFFF; stroke: #D1D5DB; }
      .input-field { fill: #FFFFFF; stroke: #D1D5DB; stroke-width: 1; }
    </style>
  </defs>

  <!-- Background -->
  <rect width="1440" height="580" class="bg-muted"/>

  <!-- Header -->
  <rect width="1440" height="60" class="bg-header"/>
  <text x="80" y="38" class="text-white" font-size="18" font-weight="600">OVHcloud</text>
  <text x="200" y="38" class="text-white" font-size="14">Telecom</text>

  <!-- Sidebar -->
  <rect x="0" y="60" width="240" height="520" class="bg-white"/>
  <rect x="240" y="60" width="1" height="520" class="border"/>

  <!-- Sidebar items -->
  <text x="20" y="100" class="text-dark" font-weight="600">Ligne</text>
  <rect x="0" y="115" width="240" height="36" fill="#E8F0FE"/>
  <text x="20" y="138" class="text-dark">+33 6 12 34 56 78</text>
  <text x="20" y="170" class="text-muted">Appels</text>
  <text x="30" y="195" class="text-link">Click2Call</text>

  <!-- Main content -->
  <g transform="translate(280, 80)">
    <!-- Back link -->
    <text x="0" y="0" class="text-link" font-size="13">← Retour a Click2Call</text>

    <!-- Title -->
    <text x="0" y="45" class="text-title">Click2Call</text>

    <!-- Form card -->
    <g transform="translate(0, 80)">
      <rect x="0" y="0" width="500" height="300" rx="8" class="bg-white" stroke="#E5E7EB"/>
      <text x="24" y="35" class="text-section">Changer le mot de passe - jean.dupont</text>

      <!-- New password field -->
      <g transform="translate(24, 70)">
        <text x="0" y="0" class="text-label">Nouveau mot de passe *</text>
        <rect x="0" y="15" width="452" height="40" rx="4" class="input-field"/>
        <text x="15" y="42" class="text-muted">••••••••••</text>
        <text x="420" y="42" class="text-muted">👁</text>

        <!-- Password strength indicator -->
        <g transform="translate(0, 60)">
          <rect x="0" y="0" width="113" height="4" rx="2" fill="#F59E0B"/>
          <rect x="113" y="0" width="113" height="4" rx="2" fill="#F59E0B"/>
          <rect x="226" y="0" width="113" height="4" rx="2" fill="#E5E7EB"/>
          <rect x="339" y="0" width="113" height="4" rx="2" fill="#E5E7EB"/>
          <text x="0" y="20" fill="#F59E0B" font-size="12">Force: Moyenne</text>
        </g>
      </g>

      <!-- Buttons -->
      <g transform="translate(24, 220)">
        <rect x="0" y="0" width="80" height="40" rx="4" class="btn-secondary"/>
        <text x="17" y="26" class="text-dark">Annuler</text>

        <rect x="372" y="0" width="80" height="40" rx="4" class="btn-primary"/>
        <text x="397" y="26" class="text-white">Valider</text>
      </g>
    </g>
  </g>
</svg>
