<svg xmlns="http://www.w3.org/2000/svg" viewBox="0 0 1440 900" width="1440" height="900">
  <defs>
    <style>
      .bg-header { fill: #000E9C; }
      .bg-muted { fill: #F9FAFB; }
      .bg-white { fill: #FFFFFF; }
      .bg-primary { fill: #0050D7; }
      .text-body { font-family: 'Source Sans Pro', sans-serif; font-size: 14px; fill: #1F2937; }
      .text-muted { font-family: 'Source Sans Pro', sans-serif; font-size: 13px; fill: #6B7280; }
      .text-white { font-family: 'Source Sans Pro', sans-serif; fill: #FFFFFF; }
      .text-primary { font-family: 'Source Sans Pro', sans-serif; fill: #0050D7; }
      .text-success { fill: #059669; }
      .border { stroke: #E5E7EB; stroke-width: 1; fill: none; }
      .tile { fill: #FFFFFF; stroke: #E5E7EB; stroke-width: 1; }
      .btn-secondary { fill: #FFFFFF; stroke: #0050D7; stroke-width: 1; }
      .btn-danger { fill: #FFFFFF; stroke: #DC2626; stroke-width: 1; }
    </style>
  </defs>
  
  <!-- Background -->
  <rect width="1440" height="900" class="bg-muted"/>
  
  <!-- Header OVH -->
  <rect width="1440" height="56" class="bg-header"/>
  <text x="20" y="35" class="text-white" font-size="18" font-weight="bold">OVHcloud</text>
  <text x="120" y="35" class="text-white" font-size="14">Télécom</text>
  
  <!-- Sidebar -->
  <rect x="0" y="56" width="240" height="844" class="bg-white"/>
  <rect x="240" y="56" width="1" height="844" class="border"/>
  <text x="20" y="90" class="text-body" font-weight="bold">Téléphonie</text>
  <text x="20" y="115" class="text-muted" font-size="13">groupe-tel-001</text>
  <rect x="0" y="125" width="240" height="35" fill="#E8F0FE"/>
  <text x="30" y="148" class="text-primary" font-size="13">0033912345678</text>
  
  <!-- Main content -->
  <g transform="translate(260, 76)">
    <!-- Breadcrumb -->
    <text x="0" y="0" class="text-muted" font-size="13">Télécom › Téléphonie › 0033912345678 › Téléphone</text>
    
    <!-- Title -->
    <text x="0" y="40" class="text-body" font-size="24" font-weight="bold">Gestion du téléphone</text>
    
    <!-- Row 1 -->
    <g transform="translate(0, 80)">
      <!-- Phone info -->
      <rect x="0" y="0" width="540" height="350" rx="4" class="tile"/>
      <text x="20" y="35" class="text-body" font-size="16" font-weight="bold">Téléphone associé</text>
      
      <!-- Phone image placeholder -->
      <rect x="20" y="60" width="150" height="180" rx="8" fill="#F3F4F6"/>
      <text x="95" y="160" text-anchor="middle" font-size="50" fill="#9CA3AF">📞</text>
      
      <g transform="translate(190, 70)">
        <text x="0" y="0" class="text-body" font-size="18" font-weight="bold">Yealink T46G</text>
        <text x="0" y="25" class="text-success" font-size="13">● Enregistré</text>
        
        <text x="0" y="60" class="text-muted" font-size="13">Adresse MAC</text>
        <text x="0" y="80" class="text-body">AA:BB:CC:DD:EE:FF</text>
        
        <text x="0" y="115" class="text-muted" font-size="13">Adresse IP</text>
        <text x="0" y="135" class="text-body">192.168.1.50</text>
        
        <text x="0" y="170" class="text-muted" font-size="13">Firmware</text>
        <text x="0" y="190" class="text-body">v84.0.0.50</text>
      </g>
      
      <!-- Actions -->
      <g transform="translate(20, 280)">
        <rect x="0" y="0" width="150" height="36" rx="4" class="btn-secondary"/>
        <text x="25" y="23" class="text-primary" font-size="13">Redémarrer →</text>
        
        <rect x="170" y="0" width="180" height="36" rx="4" class="btn-secondary"/>
        <text x="190" y="23" class="text-primary" font-size="13">Réinitialiser config →</text>
        
        <rect x="370" y="0" width="150" height="36" rx="4" class="btn-danger"/>
        <text x="395" y="23" fill="#DC2626" font-size="13">Changer →</text>
      </g>
      
      <!-- Configuration -->
      <rect x="560" y="0" width="540" height="350" rx="4" class="tile"/>
      <text x="580" y="35" class="text-body" font-size="16" font-weight="bold">Configuration</text>
      
      <g transform="translate(580, 60)">
        <rect x="0" y="0" width="500" height="50" rx="4" fill="#F9FAFB" stroke="#E5E7EB"/>
        <text x="20" y="30" class="text-body">Programmation des touches</text>
        <text x="470" y="30" class="text-muted">→</text>
        
        <rect x="0" y="60" width="500" height="50" rx="4" fill="#F9FAFB" stroke="#E5E7EB"/>
        <text x="20" y="90" class="text-body">Sonneries personnalisées</text>
        <text x="470" y="90" class="text-muted">→</text>
        
        <rect x="0" y="120" width="500" height="50" rx="4" fill="#F9FAFB" stroke="#E5E7EB"/>
        <text x="20" y="150" class="text-body">Paramètres réseau</text>
        <text x="470" y="150" class="text-muted">→</text>
        
        <rect x="0" y="180" width="500" height="50" rx="4" fill="#F9FAFB" stroke="#E5E7EB"/>
        <text x="20" y="210" class="text-body">Mot de passe interface web</text>
        <text x="470" y="210" class="text-muted">→</text>
        
        <rect x="0" y="240" width="500" height="50" rx="4" fill="#F9FAFB" stroke="#E5E7EB"/>
        <text x="20" y="270" class="text-body">Mise à jour firmware</text>
        <text x="470" y="270" class="text-muted">→</text>
      </g>
    </g>
    
    <!-- Row 2: RMA -->
    <g transform="translate(0, 450)">
      <rect x="0" y="0" width="1100" height="200" rx="4" class="tile"/>
      <text x="20" y="35" class="text-body" font-size="16" font-weight="bold">Retour matériel (RMA)</text>
      
      <text x="20" y="70" class="text-muted" font-size="13">Votre téléphone est défectueux ? Demandez un échange.</text>
      
      <g transform="translate(20, 100)">
        <rect x="0" y="0" width="250" height="80" rx="4" fill="#F9FAFB" stroke="#E5E7EB"/>
        <text x="20" y="30" class="text-body" font-weight="bold">RMA en cours</text>
        <text x="20" y="55" class="text-muted" font-size="13">Aucune demande</text>
        
        <rect x="280" y="0" width="200" height="80" rx="4" class="btn-secondary"/>
        <text x="310" y="45" class="text-primary" font-size="14">Nouvelle demande →</text>
      </g>
    </g>
    
    <!-- Row 3: Accessories -->
    <g transform="translate(0, 670)">
      <rect x="0" y="0" width="1100" height="120" rx="4" class="tile"/>
      <text x="20" y="35" class="text-body" font-size="16" font-weight="bold">Accessoires</text>
      
      <g transform="translate(20, 60)">
        <rect x="0" y="0" width="200" height="40" rx="4" class="btn-secondary"/>
        <text x="25" y="26" class="text-primary" font-size="13">Commander casque →</text>
        
        <rect x="220" y="0" width="250" height="40" rx="4" class="btn-secondary"/>
        <text x="245" y="26" class="text-primary" font-size="13">Commander combiné sup. →</text>
      </g>
    </g>
  </g>
</svg>