<svg xmlns="http://www.w3.org/2000/svg" viewBox="0 0 800 520" width="800" height="520">
  <defs>
    <style>
      .bg-overlay { fill: rgba(0,0,0,0.5); }
      .bg-white { fill: #FFFFFF; }
      .bg-table-header { fill: #F3F4F6; }
      .text-body { fill: #1F2937; font-family: 'Source Sans Pro', sans-serif; font-size: 14px; }
      .text-muted { fill: #6B7280; font-family: 'Source Sans Pro', sans-serif; font-size: 14px; }
      .text-heading { fill: #1F2937; font-family: 'Source Sans Pro', sans-serif; font-size: 18px; font-weight: 600; }
      .text-danger { fill: #DC2626; font-family: 'Source Sans Pro', sans-serif; font-size: 14px; }
      .border { stroke: #E5E7EB; stroke-width: 1; fill: none; }
    </style>
  </defs>
  <rect width="800" height="520" class="bg-overlay"/>
  <rect x="75" y="20" width="650" height="480" rx="8" class="bg-white"/>
  <rect x="75" y="20" width="650" height="480" rx="8" class="border"/>
  <text x="100" y="55" class="text-heading">Désactiver l'option VMware vSAN</text>
  <text x="695" y="55" class="text-muted" font-size="20">×</text>
  <line x1="75" y1="75" x2="725" y2="75" stroke="#E5E7EB" stroke-width="1"/>
  <text x="100" y="110" class="text-body">La désactivation de l'option vSAN ramènera vos hosts à leur prix de base.</text>
  <!-- Pricing table -->
  <rect x="100" y="135" width="600" height="220" rx="4" class="bg-white"/>
  <rect x="100" y="135" width="600" height="220" rx="4" class="border"/>
  <rect x="100" y="135" width="600" height="35" rx="4" class="bg-table-header"/>
  <text x="120" y="158" class="text-body" font-size="12" font-weight="600">Host</text>
  <text x="280" y="158" class="text-body" font-size="12" font-weight="600">Datacenter</text>
  <text x="430" y="158" class="text-body" font-size="12" font-weight="600">Prix actuel</text>
  <text x="550" y="158" class="text-body" font-size="12" font-weight="600">Nouveau prix</text>
  <line x1="100" y1="170" x2="700" y2="170" stroke="#E5E7EB" stroke-width="1"/>
  <text x="120" y="198" class="text-body" font-size="12">host-01</text>
  <text x="280" y="198" class="text-muted" font-size="12">dc1-sbg1</text>
  <text x="430" y="198" class="text-body" font-size="12">175,00 € HT/mois</text>
  <text x="550" y="198" class="text-body" font-size="12">150,00 € HT/mois</text>
  <line x1="100" y1="215" x2="700" y2="215" stroke="#E5E7EB" stroke-width="1"/>
  <text x="120" y="243" class="text-body" font-size="12">host-02</text>
  <text x="280" y="243" class="text-muted" font-size="12">dc1-sbg1</text>
  <text x="430" y="243" class="text-body" font-size="12">175,00 € HT/mois</text>
  <text x="550" y="243" class="text-body" font-size="12">150,00 € HT/mois</text>
  <line x1="100" y1="260" x2="700" y2="260" stroke="#E5E7EB" stroke-width="1"/>
  <text x="120" y="288" class="text-body" font-size="12">host-03</text>
  <text x="280" y="288" class="text-muted" font-size="12">dc2-rbx1</text>
  <text x="430" y="288" class="text-body" font-size="12">200,00 € HT/mois</text>
  <text x="550" y="288" class="text-body" font-size="12">175,00 € HT/mois</text>
  <line x1="100" y1="305" x2="700" y2="305" stroke="#E5E7EB" stroke-width="1"/>
  <text x="120" y="333" class="text-body" font-size="12">host-spare</text>
  <text x="280" y="333" class="text-muted" font-size="12">dc1-sbg1</text>
  <text x="430" y="333" class="text-muted" font-size="12">Spare gratuit</text>
  <text x="550" y="333" class="text-muted" font-size="12">Spare gratuit</text>
  <text x="500" y="380" class="text-muted" font-size="12" font-style="italic">*Prix HT, hors taxes applicables</text>
  <!-- Warning -->
  <text x="180" y="420" class="text-danger" font-weight="600">Attention : Cette action est irréversible.</text>
  <line x1="75" y1="445" x2="725" y2="445" stroke="#E5E7EB" stroke-width="1"/>
  <rect x="505" y="458" width="90" height="36" rx="4" fill="#FFFFFF" stroke="#E5E7EB" stroke-width="1"/>
  <text x="530" y="482" class="text-body">Annuler</text>
  <rect x="610" y="458" width="90" height="36" rx="4" fill="#DC2626"/>
  <text x="625" y="482" fill="#FFFFFF" font-size="14">Désactiver</text>
</svg>
