<svg xmlns="http://www.w3.org/2000/svg" viewBox="0 0 900 550" width="900" height="550">
  <defs>
    <style>
      .bg-white { fill: #FFFFFF; }
      .bg-muted { fill: #F9FAFB; }
      .text-body { fill: #1F2937; font-family: 'Source Sans Pro', sans-serif; font-size: 14px; }
      .text-muted { fill: #6B7280; font-family: 'Source Sans Pro', sans-serif; font-size: 14px; }
      .text-heading { fill: #1F2937; font-family: 'Source Sans Pro', sans-serif; font-size: 18px; font-weight: 600; }
      .border { stroke: #E5E7EB; stroke-width: 1; fill: none; }
    </style>
  </defs>
  <rect width="900" height="550" class="bg-muted"/>
  <rect x="40" y="20" width="820" height="510" rx="8" class="bg-white"/>
  <rect x="40" y="20" width="820" height="510" rx="8" class="border"/>
  <text x="70" y="55" class="text-heading">Ajouter un site Zerto</text>
  <!-- Summary -->
  <text x="70" y="95" class="text-muted">Type de PRA</text>
  <text x="300" y="95" class="text-body">Private Cloud vers On-Premise</text>
  <text x="70" y="125" class="text-muted">Datacenter principal</text>
  <text x="300" y="125" class="text-body">dc1-sbg1</text>
  <text x="70" y="155" class="text-muted">Private Cloud principal</text>
  <text x="300" y="155" class="text-body">pcc-123456</text>
  <line x1="70" y1="175" x2="790" y2="175" stroke="#E5E7EB" stroke-width="1"/>
  <!-- Form -->
  <text x="70" y="210" class="text-body" font-weight="500">Label du site *</text>
  <rect x="70" y="220" width="400" height="40" rx="4" fill="#FFFFFF" stroke="#D1D5DB" stroke-width="1"/>
  <text x="90" y="246" class="text-muted">Site DR externe</text>
  <text x="70" y="285" class="text-body" font-weight="500">Clé pré-partagée *</text>
  <rect x="70" y="295" width="400" height="40" rx="4" fill="#FFFFFF" stroke="#D1D5DB" stroke-width="1"/>
  <text x="90" y="321" class="text-muted">••••••••••••</text>
  <text x="70" y="360" class="text-body" font-weight="500">IP publique du point distant *</text>
  <rect x="70" y="370" width="400" height="40" rx="4" fill="#FFFFFF" stroke="#D1D5DB" stroke-width="1"/>
  <text x="90" y="396" class="text-body">51.68.345.67</text>
  <text x="70" y="435" class="text-body" font-weight="500">IP ZVM interne *</text>
  <rect x="70" y="445" width="400" height="40" rx="4" fill="#FFFFFF" stroke="#D1D5DB" stroke-width="1"/>
  <text x="90" y="471" class="text-body">192.168.2.10</text>
  <rect x="560" y="485" width="100" height="36" rx="4" fill="#FFFFFF" stroke="#E5E7EB" stroke-width="1"/>
  <text x="585" y="509" class="text-body">Annuler</text>
  <rect x="680" y="485" width="100" height="36" rx="4" fill="#0050D7"/>
  <text x="715" y="509" fill="#FFFFFF" font-size="14">Valider</text>
</svg>
