<svg xmlns="http://www.w3.org/2000/svg" viewBox="0 0 1440 900" width="1440" height="900">
  <defs>
    <style>
      .bg-header { fill: #000E9C; }
      .bg-main { fill: #F6F6F9; }
      .bg-white { fill: #FFFFFF; }
      .bg-primary { fill: #0050D7; }
      .bg-info { fill: #DBEAFE; }
      .bg-success { fill: #DEF7EC; }
      .border { stroke: #E5E7EB; stroke-width: 1; fill: none; }
      .btn-outline { stroke: #0050D7; stroke-width: 1; fill: #FFFFFF; }
      .btn-primary { fill: #0050D7; }
      .row-selected { fill: #E8F0FE; }
      .table-header { fill: #F9FAFB; }
      .text-white { fill: #FFFFFF; font-family: 'Source Sans Pro', sans-serif; }
      .text-dark { fill: #1F2937; font-family: 'Source Sans Pro', sans-serif; }
      .text-muted { fill: #6B7280; font-family: 'Source Sans Pro', sans-serif; }
      .text-primary { fill: #0050D7; font-family: 'Source Sans Pro', sans-serif; }
      .text-success { fill: #059669; font-family: 'Source Sans Pro', sans-serif; }
      .text-info { fill: #1E40AF; font-family: 'Source Sans Pro', sans-serif; }
    </style>
  </defs>

  <rect width="1440" height="900" class="bg-main"/>

  <!-- NAV1 -->
  <rect width="1440" height="50" class="bg-header"/>
  <text x="40" y="32" class="text-white" font-size="14" opacity="0.7">Accueil</text>
  <text x="110" y="32" class="text-white" font-size="14" opacity="0.7">Public Cloud</text>
  <text x="210" y="32" class="text-white" font-size="14" opacity="0.7">Hosted Private Cloud</text>
  <text x="370" y="32" class="text-white" font-size="14" opacity="0.7">Bare Metal Cloud</text>
  <text x="510" y="32" class="text-white" font-size="14" font-weight="600">Web Cloud</text>
  <rect x="505" y="46" width="75" height="3" fill="#FFFFFF"/>
  <text x="620" y="32" class="text-white" font-size="14" opacity="0.7">Network</text>

  <!-- NAV2 -->
  <rect x="0" y="50" width="1440" height="40" class="bg-white"/>
  <line x1="0" y1="89" x2="1440" y2="89" stroke="#E5E7EB"/>
  <text x="40" y="75" class="text-muted" font-size="14">Accueil</text>
  <text x="110" y="75" class="text-muted" font-size="14">Domaines et DNS</text>
  <text x="240" y="75" class="text-primary" font-size="14" font-weight="600">Hébergement</text>
  <rect x="235" y="85" width="85" height="3" fill="#0050D7"/>
  <text x="345" y="75" class="text-muted" font-size="14">Wordpress</text>
  <text x="430" y="75" class="text-muted" font-size="14">Emails</text>
  <text x="500" y="75" class="text-muted" font-size="14">VoIP</text>
  <text x="550" y="75" class="text-muted" font-size="14">Accès</text>
  <text x="1350" y="75" class="text-primary" font-size="13">Guides</text>

  <!-- MAIN CONTENT -->
  <g transform="translate(0, 105)">
    <g transform="translate(24, 0)">
      <!-- LEFT PANEL -->
      <rect x="0" y="0" width="280" height="780" rx="8" class="bg-white"/>
      <rect x="0" y="0" width="280" height="780" rx="8" class="border"/>
      <rect x="12" y="12" width="256" height="34" rx="4" fill="#F9FAFB" stroke="#E5E7EB"/>
      <text x="40" y="34" class="text-muted" font-size="12">Rechercher...</text>
      <text x="24" y="34" class="text-muted" font-size="14">🔍</text>
      <text x="12" y="68" class="text-muted" font-size="11">Filtrer par statut ▾</text>
      <text x="268" y="68" class="text-muted" font-size="11" text-anchor="end">3 services</text>
      <rect x="6" y="80" width="268" height="56" rx="6" class="row-selected"/>
      <circle cx="28" cy="108" r="14" fill="#0050D7"/>
      <text x="28" y="112" class="text-white" font-size="12" text-anchor="middle">🌐</text>
      <text x="52" y="100" class="text-dark" font-size="13" font-weight="500">monsite.cluster031</text>
      <text x="52" y="116" class="text-muted" font-size="11">Performance - 250 Go</text>
      <rect x="210" y="96" width="46" height="18" rx="9" fill="#DEF7EC"/>
      <text x="233" y="109" fill="#03543F" font-size="10" text-anchor="middle">Actif</text>

      <!-- RIGHT PANEL -->
      <rect x="296" y="0" width="1096" height="780" rx="8" class="bg-white"/>
      <rect x="296" y="0" width="1096" height="780" rx="8" class="border"/>

      <g transform="translate(316, 0)">
        <text x="0" y="28" class="text-dark" font-size="18" font-weight="600">monsite.cluster031.hosting.ovh.net</text>

        <!-- NAV3 TABS - BDD active -->
        <g transform="translate(0, 56)">
          <rect x="0" y="0" width="50" height="26" rx="4" class="btn-outline"/>
          <text x="25" y="17" class="text-primary" font-size="11" text-anchor="middle">Home</text>
          <rect x="54" y="0" width="70" height="26" rx="4" class="btn-outline"/>
          <text x="89" y="17" class="text-primary" font-size="11" text-anchor="middle">Multisite</text>
          <rect x="128" y="0" width="60" height="26" rx="4" class="btn-outline"/>
          <text x="158" y="17" class="text-primary" font-size="11" text-anchor="middle">FTP-SSH</text>
          <rect x="192" y="0" width="60" height="26" rx="4" class="btn-outline"/>
          <text x="222" y="17" class="text-primary" font-size="11" text-anchor="middle">Modules</text>
          <rect x="256" y="0" width="55" height="26" rx="4" class="btn-outline"/>
          <text x="283" y="17" class="text-primary" font-size="11" text-anchor="middle">Tâches</text>
          <rect x="315" y="0" width="50" height="26" rx="4" class="btn-outline"/>
          <text x="340" y="17" class="text-primary" font-size="11" text-anchor="middle">Emails</text>
          <rect x="369" y="0" width="65" height="26" rx="4" class="btn-outline"/>
          <text x="401" y="17" class="text-primary" font-size="11" text-anchor="middle">Variables</text>
          <rect x="438" y="0" width="65" height="26" rx="4" class="btn-outline"/>
          <text x="470" y="17" class="text-primary" font-size="11" text-anchor="middle">Runtimes</text>
          <rect x="507" y="0" width="35" height="26" rx="4" class="btn-outline"/>
          <text x="524" y="17" class="text-primary" font-size="11" text-anchor="middle">SSL</text>
          <rect x="546" y="0" width="40" height="26" rx="4" class="btn-outline"/>
          <text x="566" y="17" class="text-primary" font-size="11" text-anchor="middle">CDN</text>
          <rect x="590" y="0" width="45" height="26" rx="4" class="btn-outline"/>
          <text x="612" y="17" class="text-primary" font-size="11" text-anchor="middle">Boost</text>
          <rect x="639" y="0" width="40" height="26" rx="4" class="btn-outline"/>
          <text x="659" y="17" class="text-primary" font-size="11" text-anchor="middle">Logs</text>
          <rect x="683" y="0" width="40" height="26" rx="4" class="bg-primary"/>
          <text x="703" y="17" class="text-white" font-size="11" text-anchor="middle">BDD</text>
          <rect x="727" y="0" width="75" height="26" rx="4" class="btn-outline"/>
          <text x="764" y="17" class="text-primary" font-size="11" text-anchor="middle">BDD Cloud</text>
          <rect x="806" y="0" width="45" height="26" rx="4" class="btn-outline"/>
          <text x="828" y="17" class="text-primary" font-size="11" text-anchor="middle">Cron</text>
          <rect x="855" y="0" width="40" height="26" rx="4" class="btn-outline"/>
          <text x="875" y="17" class="text-primary" font-size="11" text-anchor="middle">SEO</text>
        </g>

        <!-- NAV4 - Database subtabs -->
        <g transform="translate(0, 95)">
          <text x="0" y="14" class="text-primary" font-size="12" font-weight="500">Liste</text>
          <rect x="0" y="18" width="35" height="2" fill="#0050D7"/>
          <text x="50" y="14" class="text-muted" font-size="12">Statistiques</text>
          <text x="130" y="14" class="text-muted" font-size="12">Dumps</text>
        </g>

        <!-- Toolbar -->
        <g transform="translate(0, 125)">
          <rect x="0" y="0" width="32" height="32" rx="4" class="btn-outline"/>
          <text x="16" y="22" class="text-primary" font-size="14" text-anchor="middle">↻</text>
          <rect x="40" y="0" width="200" height="32" rx="4" fill="#F9FAFB" stroke="#E5E7EB"/>
          <text x="52" y="21" class="text-muted" font-size="11">Rechercher une BDD...</text>
          <rect x="880" y="0" width="176" height="32" rx="4" class="btn-primary"/>
          <text x="968" y="21" class="text-white" font-size="11" text-anchor="middle">+ Créer une base</text>
        </g>

        <!-- Table -->
        <g transform="translate(0, 170)">
          <!-- Header -->
          <rect x="0" y="0" width="1056" height="40" rx="4" class="table-header"/>
          <text x="20" y="25" class="text-dark" font-size="11" font-weight="600">Nom</text>
          <text x="200" y="25" class="text-dark" font-size="11" font-weight="600">Type</text>
          <text x="300" y="25" class="text-dark" font-size="11" font-weight="600">Serveur</text>
          <text x="500" y="25" class="text-dark" font-size="11" font-weight="600">Taille</text>
          <text x="600" y="25" class="text-dark" font-size="11" font-weight="600">État</text>
          <text x="700" y="25" class="text-dark" font-size="11" font-weight="600">Dernier dump</text>
          <text x="880" y="25" class="text-dark" font-size="11" font-weight="600">Actions</text>

          <!-- Row 1 -->
          <rect x="0" y="45" width="1056" height="45" fill="#FFFFFF"/>
          <line x1="0" y1="90" x2="1056" y2="90" stroke="#E5E7EB"/>
          <text x="20" y="72" class="text-dark" font-size="12">monsite_prod</text>
          <rect x="200" y="58" width="60" height="18" rx="9" fill="#DBEAFE"/>
          <text x="230" y="71" fill="#1E40AF" font-size="9" text-anchor="middle">MySQL 8.0</text>
          <text x="300" y="72" class="text-muted" font-size="11">sql031.hosting.ovh.net</text>
          <text x="500" y="72" class="text-dark" font-size="11">245 Mo / 1 Go</text>
          <rect x="600" y="58" width="46" height="18" rx="9" fill="#DEF7EC"/>
          <text x="623" y="71" fill="#03543F" font-size="9" text-anchor="middle">Actif</text>
          <text x="700" y="72" class="text-muted" font-size="11">29/12/2025 03:00</text>
          <text x="880" y="72" class="text-primary" font-size="11">✎</text>
          <text x="910" y="72" class="text-primary" font-size="11">🔑</text>
          <text x="940" y="72" class="text-primary" font-size="11">📥</text>
          <text x="970" y="72" class="text-primary" font-size="11">📤</text>
          <text x="1000" y="72" class="text-muted" font-size="11">×</text>

          <!-- Row 2 -->
          <rect x="0" y="90" width="1056" height="45" fill="#FFFFFF"/>
          <line x1="0" y1="135" x2="1056" y2="135" stroke="#E5E7EB"/>
          <text x="20" y="117" class="text-dark" font-size="12">monsite_dev</text>
          <rect x="200" y="103" width="60" height="18" rx="9" fill="#DBEAFE"/>
          <text x="230" y="116" fill="#1E40AF" font-size="9" text-anchor="middle">MySQL 8.0</text>
          <text x="300" y="117" class="text-muted" font-size="11">sql031.hosting.ovh.net</text>
          <text x="500" y="117" class="text-dark" font-size="11">52 Mo / 400 Mo</text>
          <rect x="600" y="103" width="46" height="18" rx="9" fill="#DEF7EC"/>
          <text x="623" y="116" fill="#03543F" font-size="9" text-anchor="middle">Actif</text>
          <text x="700" y="117" class="text-muted" font-size="11">28/12/2025 03:00</text>
          <text x="880" y="117" class="text-primary" font-size="11">✎</text>
          <text x="910" y="117" class="text-primary" font-size="11">🔑</text>
          <text x="940" y="117" class="text-primary" font-size="11">📥</text>
          <text x="970" y="117" class="text-primary" font-size="11">📤</text>
          <text x="1000" y="117" class="text-muted" font-size="11">×</text>
        </g>

        <!-- Quota info -->
        <g transform="translate(0, 330)">
          <rect x="0" y="0" width="1056" height="60" rx="6" fill="#F9FAFB" stroke="#E5E7EB"/>
          <text x="20" y="25" class="text-dark" font-size="12" font-weight="600">QUOTA BASES DE DONNÉES</text>
          <text x="20" y="45" class="text-muted" font-size="11">2 bases utilisées sur 5 (40%) · 297 Mo utilisés sur 1.4 Go</text>
          <rect x="400" y="35" width="400" height="8" rx="4" fill="#E5E7EB"/>
          <rect x="400" y="35" width="160" height="8" rx="4" fill="#0050D7"/>
        </g>

        <!-- Pagination -->
        <g transform="translate(0, 410)">
          <text x="0" y="15" class="text-muted" font-size="11">2 bases de données</text>
          <text x="950" y="15" class="text-muted" font-size="11">Page 1 sur 1</text>
        </g>
      </g>
    </g>
  </g>
</svg>
