<svg xmlns="http://www.w3.org/2000/svg" viewBox="0 0 1440 900" width="1440" height="900">
  <defs>
    <style>
      .bg-header { fill: #000E9C; }
      .bg-main { fill: #F6F6F9; }
      .bg-white { fill: #FFFFFF; }
      .bg-primary { fill: #0050D7; }
      .bg-dark { fill: #1F2937; }
      .border { stroke: #E5E7EB; stroke-width: 1; fill: none; }
      .divider { stroke: #E5E7EB; stroke-width: 1; }
      .row-selected { fill: #E8F0FE; }
      .text-white { fill: #FFFFFF; font-family: 'Source Sans Pro', sans-serif; }
      .text-dark { fill: #1F2937; font-family: 'Source Sans Pro', sans-serif; }
      .text-muted { fill: #6B7280; font-family: 'Source Sans Pro', sans-serif; }
      .text-primary { fill: #0050D7; font-family: 'Source Sans Pro', sans-serif; }
      .text-log { fill: #D1D5DB; font-family: 'Courier New', monospace; }
      .text-log-info { fill: #10B981; font-family: 'Courier New', monospace; }
      .text-log-warn { fill: #F59E0B; font-family: 'Courier New', monospace; }
      .text-log-error { fill: #EF4444; font-family: 'Courier New', monospace; }
    </style>
  </defs>

  <!-- Background -->
  <rect width="1440" height="900" class="bg-main"/>

  <!-- NAV1 -->
  <rect width="1440" height="50" class="bg-header"/>
  <text x="40" y="32" class="text-white" font-size="14" opacity="0.7">Accueil</text>
  <text x="110" y="32" class="text-white" font-size="14" opacity="0.7">Public Cloud</text>
  <text x="210" y="32" class="text-white" font-size="14" opacity="0.7">Hosted Private Cloud</text>
  <text x="370" y="32" class="text-white" font-size="14" opacity="0.7">Bare Metal Cloud</text>
  <text x="510" y="32" class="text-white" font-size="14" font-weight="600">Web Cloud</text>
  <rect x="505" y="46" width="75" height="3" fill="#FFFFFF"/>
  <text x="620" y="32" class="text-white" font-size="14" opacity="0.7">Network</text>
  <text x="700" y="32" class="text-white" font-size="14" opacity="0.7">IAM / Securite</text>
  <text x="810" y="32" class="text-white" font-size="14" opacity="0.7">Licences</text>
  <rect x="1280" y="12" width="140" height="26" rx="13" fill="rgba(255,255,255,0.2)"/>
  <rect x="1285" y="15" width="26" height="20" rx="10" fill="#DEF7EC"/>
  <text x="1292" y="29" fill="#03543F" font-size="10" font-weight="600">OK</text>
  <text x="1320" y="29" class="text-white" font-size="12">ab12345-ovh</text>

  <!-- NAV2 -->
  <rect x="0" y="50" width="1440" height="40" class="bg-white"/>
  <line x1="0" y1="89" x2="1440" y2="89" stroke="#E5E7EB"/>
  <text x="40" y="75" class="text-muted" font-size="14">Accueil</text>
  <text x="110" y="75" class="text-muted" font-size="14">Domaines et DNS</text>
  <text x="240" y="75" class="text-primary" font-size="14" font-weight="600">Hebergement</text>
  <rect x="235" y="85" width="85" height="3" fill="#0050D7"/>
  <text x="345" y="75" class="text-muted" font-size="14">Wordpress</text>
  <text x="430" y="75" class="text-muted" font-size="14">Emails</text>
  <text x="500" y="75" class="text-muted" font-size="14">VoIP</text>
  <text x="550" y="75" class="text-muted" font-size="14">Acces</text>
  <text x="1350" y="75" class="text-primary" font-size="13">Guides</text>

  <!-- CONTENT AREA -->
  <g transform="translate(0, 105)">
    <!-- LEFT PANEL -->
    <g transform="translate(24, 0)">
      <rect x="0" y="0" width="280" height="765" rx="8" class="bg-white"/>
      <rect x="0" y="0" width="280" height="765" rx="8" class="border"/>

      <!-- NAV3 -->
      <rect x="0" y="0" width="280" height="44" rx="8" fill="#F9FAFB"/>
      <rect x="8" y="10" width="62" height="24" rx="4" fill="#0050D7"/>
      <text x="39" y="26" class="text-white" font-size="11" text-anchor="middle">General</text>
      <rect x="74" y="10" width="62" height="24" rx="4" fill="#FFFFFF" stroke="#E5E7EB"/>
      <text x="105" y="26" class="text-muted" font-size="11" text-anchor="middle">Sites</text>
      <rect x="140" y="10" width="62" height="24" rx="4" fill="#FFFFFF" stroke="#E5E7EB"/>
      <text x="171" y="26" class="text-muted" font-size="11" text-anchor="middle">Offre</text>
      <rect x="206" y="10" width="62" height="24" rx="4" fill="#FFFFFF" stroke="#E5E7EB"/>
      <text x="237" y="26" class="text-muted" font-size="11" text-anchor="middle">Expert</text>
      <line x1="0" y1="44" x2="280" y2="44" class="divider"/>

      <rect x="12" y="56" width="256" height="34" rx="4" fill="#F9FAFB" stroke="#E5E7EB"/>
      <text x="26" y="78" class="text-muted" font-size="12">Rechercher...</text>

      <text x="12" y="112" class="text-muted" font-size="11">3 services</text>

      <rect x="6" y="124" width="268" height="56" rx="6" class="row-selected"/>
      <circle cx="28" cy="152" r="14" fill="#0050D7"/>
      <text x="28" y="156" class="text-white" font-size="12" text-anchor="middle">M</text>
      <text x="52" y="144" class="text-dark" font-size="13" font-weight="500">monsite.example.com</text>
      <text x="52" y="160" class="text-muted" font-size="11">Performance 1</text>
      <rect x="210" y="140" width="46" height="18" rx="9" fill="#DEF7EC"/>
      <text x="233" y="153" fill="#03543F" font-size="10" text-anchor="middle">Actif</text>
    </g>

    <!-- RIGHT PANEL -->
    <g transform="translate(320, 0)">
      <rect x="0" y="0" width="1096" height="765" rx="8" class="bg-white"/>
      <rect x="0" y="0" width="1096" height="765" rx="8" class="border"/>

      <g transform="translate(20, 0)">
        <text x="0" y="24" class="text-dark" font-size="18" font-weight="600">monsite.example.com</text>

        <!-- NAV4 -->
        <g transform="translate(0, 38)">
          <rect x="0" y="0" width="60" height="26" rx="4" fill="#FFFFFF" stroke="#0050D7"/>
          <text x="30" y="17" class="text-primary" font-size="11" text-anchor="middle">General</text>
          <rect x="64" y="0" width="80" height="26" rx="4" fill="#FFFFFF" stroke="#0050D7"/>
          <text x="104" y="17" class="text-primary" font-size="11" text-anchor="middle">Statistiques</text>
          <rect x="148" y="0" width="50" height="26" rx="4" fill="#0050D7"/>
          <text x="173" y="17" class="text-white" font-size="11" text-anchor="middle">Logs</text>
          <rect x="202" y="0" width="65" height="26" rx="4" fill="#FFFFFF" stroke="#0050D7"/>
          <text x="234" y="17" class="text-primary" font-size="11" text-anchor="middle">Modules</text>
          <rect x="271" y="0" width="45" height="26" rx="4" fill="#FFFFFF" stroke="#0050D7"/>
          <text x="293" y="17" class="text-primary" font-size="11" text-anchor="middle">SEO</text>
        </g>

        <!-- NAV5 sous-tabs -->
        <g transform="translate(0, 70)">
          <text x="0" y="14" class="text-primary" font-size="12" font-weight="500">Logs OVH</text>
          <rect x="0" y="18" width="55" height="2" fill="#0050D7"/>
          <text x="75" y="14" class="text-muted" font-size="12">User Logs</text>
        </g>

        <!-- Contenu Logs -->
        <g transform="translate(0, 100)">
          <!-- Filtres -->
          <g transform="translate(0, 0)">
            <text x="0" y="14" class="text-muted" font-size="11">Type de log</text>
            <rect x="0" y="20" width="160" height="32" rx="4" fill="#FFFFFF" stroke="#E5E7EB"/>
            <text x="12" y="41" class="text-dark" font-size="11">Logs web</text>
            <text x="140" y="41" class="text-muted" font-size="10">v</text>

            <text x="180" y="14" class="text-muted" font-size="11">Domaine</text>
            <rect x="180" y="20" width="180" height="32" rx="4" fill="#FFFFFF" stroke="#E5E7EB"/>
            <text x="192" y="41" class="text-dark" font-size="11">monsite.example.com</text>
            <text x="340" y="41" class="text-muted" font-size="10">v</text>

            <text x="380" y="14" class="text-muted" font-size="11">Date</text>
            <rect x="380" y="20" width="140" height="32" rx="4" fill="#FFFFFF" stroke="#E5E7EB"/>
            <text x="392" y="41" class="text-dark" font-size="11">02/01/2026</text>

            <rect x="540" y="20" width="120" height="32" rx="4" fill="#0050D7"/>
            <text x="600" y="42" class="text-white" font-size="11" text-anchor="middle">Telecharger</text>
          </g>

          <!-- Liens externes -->
          <g transform="translate(0, 65)">
            <text x="0" y="14" class="text-primary" font-size="11">Acceder a Urchin</text>
            <text x="110" y="14" class="text-muted" font-size="11">|</text>
            <text x="125" y="14" class="text-primary" font-size="11">Statistiques OVHcloud</text>
          </g>

          <!-- Visualiseur de logs -->
          <g transform="translate(0, 95)">
            <rect x="0" y="0" width="1040" height="440" rx="8" class="bg-dark"/>

            <g transform="translate(15, 20)">
              <text x="0" y="0" class="text-log" font-size="11">02/01/2026 10:45:23 - 203.0.113.45 - GET /index.php HTTP/1.1 200 2048</text>
              <text x="0" y="18" class="text-log" font-size="11">02/01/2026 10:45:24 - 203.0.113.45 - GET /css/style.css HTTP/1.1 200 1024</text>
              <text x="0" y="36" class="text-log" font-size="11">02/01/2026 10:45:24 - 203.0.113.45 - GET /js/app.js HTTP/1.1 200 4096</text>
              <text x="0" y="54" class="text-log-warn" font-size="11">02/01/2026 10:45:25 - 198.51.100.12 - GET /admin.php HTTP/1.1 403 512</text>
              <text x="0" y="72" class="text-log" font-size="11">02/01/2026 10:45:26 - 203.0.113.45 - GET /images/logo.png HTTP/1.1 200 8192</text>
              <text x="0" y="90" class="text-log" font-size="11">02/01/2026 10:45:27 - 192.0.2.78 - POST /api/contact HTTP/1.1 200 128</text>
              <text x="0" y="108" class="text-log-error" font-size="11">02/01/2026 10:45:28 - 198.51.100.33 - GET /wp-login.php HTTP/1.1 404 256</text>
              <text x="0" y="126" class="text-log" font-size="11">02/01/2026 10:45:29 - 203.0.113.45 - GET /blog/article-1 HTTP/1.1 200 4096</text>
              <text x="0" y="144" class="text-log" font-size="11">02/01/2026 10:45:30 - 192.0.2.78 - GET /shop/products HTTP/1.1 200 8192</text>
              <text x="0" y="162" class="text-log-info" font-size="11">02/01/2026 10:45:31 - Googlebot - GET /sitemap.xml HTTP/1.1 200 1024</text>
              <text x="0" y="180" class="text-log" font-size="11">02/01/2026 10:45:32 - 192.0.2.99 - GET /favicon.ico HTTP/1.1 200 512</text>
              <text x="0" y="198" class="text-log" font-size="11">02/01/2026 10:45:33 - 203.0.113.45 - GET /contact HTTP/1.1 200 2048</text>
              <text x="0" y="216" class="text-log-warn" font-size="11">02/01/2026 10:45:34 - 198.51.100.55 - GET /.env HTTP/1.1 403 128</text>
              <text x="0" y="234" class="text-log" font-size="11">02/01/2026 10:45:35 - 192.0.2.78 - GET /shop/cart HTTP/1.1 200 1024</text>
              <text x="0" y="252" class="text-log" font-size="11">02/01/2026 10:45:36 - 203.0.113.45 - POST /newsletter HTTP/1.1 200 64</text>
              <text x="0" y="270" class="text-log-error" font-size="11">02/01/2026 10:45:37 - 198.51.100.12 - GET /xmlrpc.php HTTP/1.1 404 128</text>
              <text x="0" y="288" class="text-log" font-size="11">02/01/2026 10:45:38 - 192.0.2.78 - GET /api/products HTTP/1.1 200 16384</text>
              <text x="0" y="306" class="text-log" font-size="11">02/01/2026 10:45:39 - 203.0.113.45 - GET /about HTTP/1.1 200 2048</text>
              <text x="0" y="324" class="text-log-info" font-size="11">02/01/2026 10:45:40 - Googlebot - GET /robots.txt HTTP/1.1 200 64</text>
              <text x="0" y="342" class="text-log" font-size="11">02/01/2026 10:45:41 - 192.0.2.99 - GET /blog HTTP/1.1 200 4096</text>
            </g>

            <rect x="1020" y="10" width="8" height="420" rx="4" fill="#374151"/>
            <rect x="1020" y="10" width="8" height="80" rx="4" fill="#6B7280"/>
          </g>

          <!-- Legende -->
          <g transform="translate(0, 550)">
            <circle cx="8" cy="8" r="5" fill="#D1D5DB"/>
            <text x="20" y="12" class="text-muted" font-size="11">OK (200)</text>
            <circle cx="100" cy="8" r="5" fill="#10B981"/>
            <text x="112" y="12" class="text-muted" font-size="11">Info/Bot</text>
            <circle cx="190" cy="8" r="5" fill="#F59E0B"/>
            <text x="202" y="12" class="text-muted" font-size="11">Refuse (403)</text>
            <circle cx="300" cy="8" r="5" fill="#EF4444"/>
            <text x="312" y="12" class="text-muted" font-size="11">Non trouve (404)</text>
          </g>
        </g>
      </g>
    </g>
  </g>
</svg>
