<svg xmlns="http://www.w3.org/2000/svg" viewBox="0 0 1440 900" width="1440" height="900">
  <defs>
    <style>
      .bg-overlay { fill: rgba(0,0,0,0.5); }
      .bg-white { fill: #FFFFFF; }
      .bg-primary { fill: #0050D7; }
      .bg-info { fill: #DBEAFE; }
      .bg-success { fill: #DEF7EC; }
      .border { stroke: #E5E7EB; stroke-width: 1; fill: none; }
      .divider { stroke: #E5E7EB; stroke-width: 1; }
      .btn-outline { stroke: #0050D7; stroke-width: 1; fill: #FFFFFF; }
      .btn-primary { fill: #0050D7; }
      .text-white { fill: #FFFFFF; font-family: 'Source Sans Pro', sans-serif; }
      .text-dark { fill: #1F2937; font-family: 'Source Sans Pro', sans-serif; }
      .text-muted { fill: #6B7280; font-family: 'Source Sans Pro', sans-serif; }
      .text-primary { fill: #0050D7; font-family: 'Source Sans Pro', sans-serif; }
      .text-success { fill: #059669; font-family: 'Source Sans Pro', sans-serif; }
      .text-info { fill: #1E40AF; font-family: 'Source Sans Pro', sans-serif; }
    </style>
  </defs>

  <!-- Overlay -->
  <rect width="1440" height="900" class="bg-overlay"/>

  <!-- Modal Container -->
  <g transform="translate(320, 100)">
    <rect x="0" y="0" width="800" height="700" rx="12" class="bg-white"/>

    <!-- Header -->
    <rect x="0" y="0" width="800" height="60" rx="12" fill="#DEF7EC"/>
    <rect x="0" y="48" width="800" height="12" fill="#DEF7EC"/>
    <text x="24" y="38" class="text-success" font-size="16" font-weight="600">🗃️ Activer Private SQL</text>
    <text x="760" y="38" class="text-success" font-size="18" cursor="pointer">&#10005;</text>
    <line x1="0" y1="60" x2="800" y2="60" class="divider"/>

    <!-- Content -->
    <g transform="translate(24, 80)">
      <!-- Info banner -->
      <rect x="0" y="0" width="752" height="70" rx="6" class="bg-success"/>
      <text x="16" y="22" class="text-success" font-size="12" font-weight="500">✨ Base de donnees privee et performante</text>
      <text x="16" y="42" class="text-success" font-size="11">Private SQL vous offre une base de donnees MySQL dediee avec des ressources</text>
      <text x="16" y="58" class="text-success" font-size="11">garanties, ideale pour les sites a fort trafic ou les applications exigeantes.</text>

      <!-- Select offer -->
      <g transform="translate(0, 90)">
        <text x="0" y="0" class="text-dark" font-size="13" font-weight="600">Selectionnez votre offre</text>

        <!-- Offer cards -->
        <g transform="translate(0, 20)">
          <!-- Start -->
          <rect x="0" y="0" width="180" height="140" rx="6" stroke="#E5E7EB" fill="#FFFFFF"/>
          <rect x="0" y="0" width="180" height="35" rx="6" fill="#F9FAFB"/>
          <rect x="0" y="28" width="180" height="7" fill="#F9FAFB"/>
          <text x="90" y="23" class="text-dark" font-size="12" font-weight="500" text-anchor="middle">Start</text>
          <text x="90" y="65" class="text-dark" font-size="20" font-weight="600" text-anchor="middle">5€</text>
          <text x="90" y="82" class="text-muted" font-size="10" text-anchor="middle">/mois HT</text>
          <text x="16" y="105" class="text-muted" font-size="9">256 Mo RAM</text>
          <text x="16" y="120" class="text-muted" font-size="9">1 Go stockage</text>
          <text x="16" y="135" class="text-muted" font-size="9">1 base</text>

          <!-- Essential - Selected -->
          <rect x="190" y="0" width="180" height="140" rx="6" stroke="#0050D7" stroke-width="2" fill="#FFFFFF"/>
          <rect x="190" y="0" width="180" height="35" rx="6" fill="#0050D7"/>
          <rect x="190" y="28" width="180" height="7" fill="#0050D7"/>
          <text x="280" y="23" class="text-white" font-size="12" font-weight="500" text-anchor="middle">Essential</text>
          <text x="280" y="65" class="text-dark" font-size="20" font-weight="600" text-anchor="middle">10€</text>
          <text x="280" y="82" class="text-muted" font-size="10" text-anchor="middle">/mois HT</text>
          <text x="206" y="105" class="text-muted" font-size="9">512 Mo RAM</text>
          <text x="206" y="120" class="text-muted" font-size="9">5 Go stockage</text>
          <text x="206" y="135" class="text-muted" font-size="9">5 bases</text>
          <rect x="300" y="3" width="65" height="18" rx="9" fill="#FFFFFF"/>
          <text x="332" y="15" fill="#0050D7" font-size="9" text-anchor="middle">Populaire</text>

          <!-- Performance -->
          <rect x="380" y="0" width="180" height="140" rx="6" stroke="#E5E7EB" fill="#FFFFFF"/>
          <rect x="380" y="0" width="180" height="35" rx="6" fill="#F9FAFB"/>
          <rect x="380" y="28" width="180" height="7" fill="#F9FAFB"/>
          <text x="470" y="23" class="text-dark" font-size="12" font-weight="500" text-anchor="middle">Performance</text>
          <text x="470" y="65" class="text-dark" font-size="20" font-weight="600" text-anchor="middle">20€</text>
          <text x="470" y="82" class="text-muted" font-size="10" text-anchor="middle">/mois HT</text>
          <text x="396" y="105" class="text-muted" font-size="9">1 Go RAM</text>
          <text x="396" y="120" class="text-muted" font-size="9">25 Go stockage</text>
          <text x="396" y="135" class="text-muted" font-size="9">20 bases</text>

          <!-- Enterprise -->
          <rect x="570" y="0" width="182" height="140" rx="6" stroke="#E5E7EB" fill="#FFFFFF"/>
          <rect x="570" y="0" width="182" height="35" rx="6" fill="#F9FAFB"/>
          <rect x="570" y="28" width="182" height="7" fill="#F9FAFB"/>
          <text x="661" y="23" class="text-dark" font-size="12" font-weight="500" text-anchor="middle">Enterprise</text>
          <text x="661" y="65" class="text-dark" font-size="20" font-weight="600" text-anchor="middle">40€</text>
          <text x="661" y="82" class="text-muted" font-size="10" text-anchor="middle">/mois HT</text>
          <text x="586" y="105" class="text-muted" font-size="9">2 Go RAM</text>
          <text x="586" y="120" class="text-muted" font-size="9">100 Go stockage</text>
          <text x="586" y="135" class="text-muted" font-size="9">Bases illimitees</text>
        </g>
      </g>

      <!-- Features comparison -->
      <g transform="translate(0, 280)">
        <text x="0" y="0" class="text-dark" font-size="13" font-weight="600">Avantages Private SQL</text>

        <g transform="translate(0, 20)">
          <text x="0" y="0" class="text-success" font-size="11">✓</text>
          <text x="20" y="0" class="text-dark" font-size="11">Ressources dediees et garanties (CPU, RAM)</text>

          <text x="0" y="25" class="text-success" font-size="11">✓</text>
          <text x="20" y="25" class="text-dark" font-size="11">Haute disponibilite avec replicas</text>

          <text x="0" y="50" class="text-success" font-size="11">✓</text>
          <text x="20" y="50" class="text-dark" font-size="11">Sauvegardes automatiques quotidiennes</text>

          <text x="0" y="75" class="text-success" font-size="11">✓</text>
          <text x="20" y="75" class="text-dark" font-size="11">Acces phpMyAdmin inclus</text>

          <text x="380" y="0" class="text-success" font-size="11">✓</text>
          <text x="400" y="0" class="text-dark" font-size="11">MySQL 8.0 / MariaDB</text>

          <text x="380" y="25" class="text-success" font-size="11">✓</text>
          <text x="400" y="25" class="text-dark" font-size="11">Connexions simultanees illimitees</text>

          <text x="380" y="50" class="text-success" font-size="11">✓</text>
          <text x="400" y="50" class="text-dark" font-size="11">Pas de limite de taille par base</text>

          <text x="380" y="75" class="text-success" font-size="11">✓</text>
          <text x="400" y="75" class="text-dark" font-size="11">Monitoring et alertes inclus</text>
        </g>
      </g>

      <!-- Migration -->
      <g transform="translate(0, 410)">
        <rect x="0" y="0" width="752" height="50" rx="4" stroke="#E5E7EB" fill="#FFFFFF"/>
        <rect x="0" y="0" width="16" height="16" rx="2" fill="#0050D7" transform="translate(16, 17)"/>
        <text x="22" y="29" fill="#FFFFFF" font-size="10">✓</text>
        <text x="42" y="30" class="text-dark" font-size="12">Migrer automatiquement mes bases actuelles vers Private SQL</text>
      </g>

      <!-- Summary -->
      <g transform="translate(0, 480)">
        <rect x="0" y="0" width="752" height="60" rx="6" fill="#F9FAFB" stroke="#E5E7EB"/>
        <text x="16" y="25" class="text-muted" font-size="11">Offre selectionnee</text>
        <text x="200" y="25" class="text-dark" font-size="12" font-weight="500">Essential - 512 Mo RAM</text>
        <text x="16" y="48" class="text-muted" font-size="11">Prix mensuel</text>
        <text x="200" y="48" class="text-dark" font-size="14" font-weight="600">10€ HT/mois</text>
        <text x="600" y="38" class="text-success" font-size="11" text-anchor="end">Activation immediate</text>
      </g>
    </g>

    <!-- Footer -->
    <line x1="0" y1="640" x2="800" y2="640" class="divider"/>
    <g transform="translate(24, 656)">
      <rect x="0" y="0" width="100" height="36" rx="4" class="btn-outline"/>
      <text x="50" y="23" class="text-primary" font-size="12" text-anchor="middle">Annuler</text>

      <rect x="652" y="0" width="100" height="36" rx="4" class="btn-primary"/>
      <text x="702" y="23" class="text-white" font-size="12" text-anchor="middle">Activer</text>
    </g>
  </g>
</svg>
