<svg xmlns="http://www.w3.org/2000/svg" viewBox="0 0 1440 900" width="1440" height="900">
  <defs>
    <style>
      .bg-header { fill: #000E9C; }
      .bg-main { fill: #F6F6F9; }
      .bg-white { fill: #FFFFFF; }
      .bg-primary { fill: #0050D7; }
      .bg-neutral-100 { fill: #F3F4F6; }
      .border { stroke: #E5E7EB; stroke-width: 1; fill: none; }
      .divider { stroke: #E5E7EB; stroke-width: 1; }
      .font-base { font-family: 'Source Sans Pro', sans-serif; }
      .text-white { fill: #FFFFFF; font-family: 'Source Sans Pro', sans-serif; }
      .text-muted { fill: #6B7280; font-family: 'Source Sans Pro', sans-serif; }
      .text-primary { fill: #0050D7; font-family: 'Source Sans Pro', sans-serif; }
      .text-dark { fill: #1F2937; font-family: 'Source Sans Pro', sans-serif; }
      .text-success { fill: #059669; font-family: 'Source Sans Pro', sans-serif; }
      .text-error { fill: #DC2626; font-family: 'Source Sans Pro', sans-serif; }
      .row-selected { fill: #E8F0FE; }
      .btn-outline { stroke: #0050D7; stroke-width: 1; fill: #FFFFFF; }
      .btn-primary { fill: #0050D7; }
      .badge-success { fill: #DEF7EC; }
      .badge-error { fill: #FEE2E2; }
      .badge-text-success { fill: #03543F; font-size: 11px; }
      .badge-text-error { fill: #991B1B; font-size: 11px; }
      .table-header { fill: #F3F4F6; }
      .table-row { fill: #FFFFFF; }
      .col-divider { stroke: #E5E7EB; stroke-width: 1; }
    </style>
  </defs>

  <rect width="1440" height="900" class="bg-main"/>

  <!-- NAV1 -->
  <rect width="1440" height="50" class="bg-header"/>
  <text x="40" y="32" class="text-white" font-size="14" opacity="0.7">Accueil</text>
  <text x="110" y="32" class="text-white" font-size="14" opacity="0.7">Public Cloud</text>
  <text x="210" y="32" class="text-white" font-size="14" opacity="0.7">Hosted Private Cloud</text>
  <text x="370" y="32" class="text-white" font-size="14" opacity="0.7">Bare Metal Cloud</text>
  <text x="510" y="32" class="text-white" font-size="14" font-weight="600">Web Cloud</text>
  <rect x="505" y="46" width="75" height="3" fill="#FFFFFF"/>
  <text x="620" y="32" class="text-white" font-size="14" opacity="0.7">Network</text>
  <text x="700" y="32" class="text-white" font-size="14" opacity="0.7">IAM / Securite</text>
  <text x="810" y="32" class="text-white" font-size="14" opacity="0.7">Licences</text>
  <rect x="1280" y="12" width="140" height="26" rx="13" fill="rgba(255,255,255,0.2)"/>
  <rect x="1285" y="15" width="26" height="20" rx="10" fill="#DEF7EC"/>
  <text x="1292" y="29" fill="#03543F" font-size="10" font-weight="600">OK</text>
  <text x="1320" y="29" class="text-white" font-size="12">ko51027-ovh</text>

  <!-- NAV2 -->
  <rect x="0" y="50" width="1440" height="40" class="bg-white"/>
  <line x1="0" y1="89" x2="1440" y2="89" stroke="#E5E7EB"/>
  <text x="40" y="75" class="text-muted" font-size="14">Accueil</text>
  <text x="110" y="75" class="text-muted" font-size="14">Domaines &amp; DNS</text>
  <text x="240" y="75" class="text-primary" font-size="14" font-weight="600">Hebergement</text>
  <rect x="235" y="85" width="95" height="3" fill="#0050D7"/>
  <text x="360" y="75" class="text-muted" font-size="14">Emails &amp; Collab</text>
  <text x="480" y="75" class="text-muted" font-size="14">VoIP</text>
  <text x="530" y="75" class="text-muted" font-size="14">Acces</text>
  <text x="1350" y="75" class="text-primary" font-size="13">📖 Guides</text>

  <!-- MAIN CONTENT -->
  <g transform="translate(0, 90)">
    <g transform="translate(24, 15)">
      
      <!-- LEFT PANEL -->
      <rect x="0" y="0" width="280" height="780" rx="8" class="bg-white"/>
      <rect x="0" y="0" width="280" height="780" rx="8" class="border"/>
      <rect x="12" y="12" width="256" height="34" rx="4" fill="#F9FAFB" stroke="#E5E7EB"/>
      <text x="26" y="34" class="text-muted" font-size="12">🔍 Rechercher...</text>
      <text x="12" y="68" class="text-muted" font-size="11">Filtrer par statut ▾</text>
      <text x="240" y="68" class="text-muted" font-size="11" text-anchor="end">12 services</text>
      
      <!-- Service items -->
      <rect x="6" y="80" width="268" height="56" rx="6" class="row-selected"/>
      <circle cx="28" cy="108" r="14" fill="#0050D7"/>
      <text x="28" y="112" class="text-white" font-size="10" text-anchor="middle">🌐</text>
      <text x="52" y="100" class="text-dark" font-size="13" font-weight="500">mon-site.fr</text>
      <text x="52" y="116" class="text-muted" font-size="11">Performance 1</text>
      <rect x="210" y="96" width="46" height="18" rx="9" class="badge-success"/>
      <text x="233" y="109" class="badge-text-success font-base" text-anchor="middle">Actif</text>

      <rect x="6" y="142" width="268" height="56" rx="6" fill="transparent"/>
      <circle cx="28" cy="170" r="14" fill="#6B7280"/>
      <text x="28" y="174" class="text-white" font-size="10" text-anchor="middle">🌐</text>
      <text x="52" y="162" class="text-dark" font-size="13" font-weight="500">blog.exemple.com</text>
      <text x="52" y="178" class="text-muted" font-size="11">Pro 2024</text>
      <rect x="210" y="158" width="46" height="18" rx="9" class="badge-success"/>
      <text x="233" y="171" class="badge-text-success font-base" text-anchor="middle">Actif</text>

      <rect x="6" y="204" width="268" height="56" rx="6" fill="transparent"/>
      <circle cx="28" cy="232" r="14" fill="#6B7280"/>
      <text x="28" y="236" class="text-white" font-size="10" text-anchor="middle">🌐</text>
      <text x="52" y="224" class="text-dark" font-size="13" font-weight="500">shop.mondomaine.fr</text>
      <text x="52" y="240" class="text-muted" font-size="11">Perso 2024</text>
      <rect x="210" y="220" width="46" height="18" rx="9" class="badge-success"/>
      <text x="233" y="233" class="badge-text-success font-base" text-anchor="middle">Actif</text>

      <!-- RIGHT PANEL -->
      <rect x="296" y="0" width="1096" height="780" rx="8" class="bg-white"/>
      <rect x="296" y="0" width="1096" height="780" rx="8" class="border"/>
      
      <!-- NAV3 -->
      <g transform="translate(316, 0)">
        <text x="0" y="28" class="text-dark" font-size="18" font-weight="600">mon-site.fr</text>
        <g transform="translate(140, 5)">
          <rect x="0" y="0" width="68" height="30" rx="4" class="btn-outline"/>
          <text x="34" y="20" class="text-primary" font-size="10" text-anchor="middle">Home</text>
          <rect x="70" y="0" width="68" height="30" rx="4" class="btn-outline"/>
          <text x="104" y="20" class="text-primary" font-size="10" text-anchor="middle">Multisite</text>
          <rect x="140" y="0" width="68" height="30" rx="4" class="btn-outline"/>
          <text x="174" y="20" class="text-primary" font-size="10" text-anchor="middle">FTP-SSH</text>
          <rect x="210" y="0" width="68" height="30" rx="4" class="btn-outline"/>
          <text x="244" y="20" class="text-primary" font-size="10" text-anchor="middle">Modules</text>
          <rect x="280" y="0" width="68" height="30" rx="4" class="btn-outline"/>
          <text x="314" y="20" class="text-primary" font-size="10" text-anchor="middle">Taches</text>
          <rect x="350" y="0" width="68" height="30" rx="4" class="btn-outline"/>
          <text x="384" y="20" class="text-primary" font-size="10" text-anchor="middle">Emails</text>
          <rect x="420" y="0" width="68" height="30" rx="4" class="btn-outline"/>
          <text x="454" y="20" class="text-primary" font-size="10" text-anchor="middle">Variables</text>
          <rect x="490" y="0" width="68" height="30" rx="4" class="btn-outline"/>
          <text x="524" y="20" class="text-primary" font-size="10" text-anchor="middle">Runtimes</text>
          <rect x="560" y="0" width="68" height="30" rx="4" class="btn-outline"/>
          <text x="594" y="20" class="text-primary" font-size="10" text-anchor="middle">SSL</text>
          <rect x="630" y="0" width="68" height="30" rx="4" class="bg-primary"/>
          <text x="664" y="20" class="text-white" font-size="10" text-anchor="middle">CDN</text>
          <rect x="700" y="0" width="68" height="30" rx="4" class="btn-outline"/>
          <text x="734" y="20" class="text-primary" font-size="10" text-anchor="middle">Boost</text>
          <rect x="770" y="0" width="68" height="30" rx="4" class="btn-outline"/>
          <text x="804" y="20" class="text-primary" font-size="10" text-anchor="middle">Logs</text>
          <rect x="840" y="0" width="68" height="30" rx="4" class="btn-outline"/>
          <text x="874" y="20" class="text-primary" font-size="10" text-anchor="middle">Plus</text>
        </g>
      </g>
      
      <line x1="296" y1="45" x2="1392" y2="45" stroke="#E5E7EB"/>

      <!-- TAB CONTENT -->
      <g transform="translate(316, 55)">
        
        <!-- TOOLBAR: ↻ [recherche] + Ajouter un domaine -->
        <rect x="0" y="0" width="32" height="32" rx="4" class="btn-outline"/>
        <text x="16" y="23" class="text-primary" font-size="16" text-anchor="middle">↻</text>
        
        <rect x="42" y="0" width="220" height="32" rx="4" fill="#F9FAFB" stroke="#E5E7EB"/>
        <text x="58" y="21" class="text-muted" font-size="11">Rechercher un domaine...</text>
        
        <rect x="272" y="0" width="180" height="32" rx="4" class="bg-primary"/>
        <text x="362" y="21" class="text-white font-base" font-size="11" text-anchor="middle">+ Ajouter un domaine</text>
        
        <text x="1040" y="21" class="text-muted" font-size="11" text-anchor="end">3 domaine(s)</text>

        <!-- BLOC 1: État du CDN -->
        <g transform="translate(0, 50)">
          <rect x="0" y="0" width="510" height="140" rx="8" class="bg-white"/>
          <rect x="0" y="0" width="510" height="140" rx="8" class="border"/>
          <text x="20" y="28" class="text-dark" font-size="15" font-weight="600">État du CDN</text>
          
          <text x="20" y="55" class="text-muted" font-size="11">Type de CDN :</text>
          <text x="150" y="55" class="text-dark" font-size="12" font-weight="600">CDN Basic</text>
          
          <text x="20" y="80" class="text-muted" font-size="11">État :</text>
          <rect x="150" y="66" width="50" height="20" rx="4" class="badge-success"/>
          <text x="160" y="80" class="badge-text-success font-base">Actif</text>
          
          <text x="20" y="105" class="text-muted" font-size="11">Domaines couverts :</text>
          <text x="150" y="105" class="text-dark" font-size="12">3 domaines</text>
          
          <!-- Boutons -->
          <rect x="280" y="55" width="100" height="28" rx="4" class="btn-outline"/>
          <text x="330" y="74" class="text-primary" font-size="10" text-anchor="middle">Vider le cache</text>
          
          <rect x="390" y="55" width="100" height="28" rx="4" class="btn-outline"/>
          <text x="440" y="74" class="text-primary" font-size="10" text-anchor="middle">Changer d'offre</text>
        </g>

        <!-- BLOC 2: Statistiques CDN -->
        <g transform="translate(530, 50)">
          <rect x="0" y="0" width="510" height="140" rx="8" class="bg-white"/>
          <rect x="0" y="0" width="510" height="140" rx="8" class="border"/>
          <text x="20" y="28" class="text-dark" font-size="15" font-weight="600">Statistiques CDN</text>
          
          <text x="20" y="55" class="text-muted" font-size="11">Requêtes servies (24h) :</text>
          <text x="180" y="55" class="text-dark" font-size="12" font-weight="600">12 458</text>
          
          <text x="20" y="80" class="text-muted" font-size="11">Taux de cache hit :</text>
          <text x="180" y="80" class="text-dark" font-size="12" font-weight="600">87%</text>
          
          <text x="20" y="105" class="text-muted" font-size="11">Bande passante économisée :</text>
          <text x="180" y="105" class="text-dark" font-size="12" font-weight="600">2.4 Go</text>
        </g>

        <!-- TABLE: Domaines avec CDN -->
        <g transform="translate(0, 210)">
          <rect x="0" y="0" width="1040" height="220" rx="6" class="bg-white"/>
          <rect x="0" y="0" width="1040" height="220" rx="6" class="border"/>
          
          <!-- Header -->
          <rect x="1" y="1" width="1038" height="40" class="table-header"/>
          <line x1="0" y1="41" x2="1040" y2="41" stroke="#E5E7EB"/>
          
          <!-- Colonnes: DOMAINE | CDN | CACHE | VIDER | CONFIGURER | DESACTIVER -->
          <text x="130" y="26" class="text-muted font-base" font-size="9" text-anchor="middle">DOMAINE</text>
          <line x1="260" y1="1" x2="260" y2="220" class="col-divider"/>
          
          <text x="330" y="26" class="text-muted font-base" font-size="9" text-anchor="middle">CDN</text>
          <line x1="400" y1="1" x2="400" y2="220" class="col-divider"/>
          
          <text x="500" y="26" class="text-muted font-base" font-size="9" text-anchor="middle">CACHE</text>
          <line x1="600" y1="1" x2="600" y2="220" class="col-divider"/>
          
          <text x="680" y="26" class="text-muted font-base" font-size="9" text-anchor="middle">VIDER CACHE</text>
          <line x1="760" y1="1" x2="760" y2="220" class="col-divider"/>
          
          <text x="840" y="26" class="text-muted font-base" font-size="9" text-anchor="middle">CONFIGURER</text>
          <line x1="920" y1="1" x2="920" y2="220" class="col-divider"/>
          
          <text x="980" y="26" class="text-muted font-base" font-size="9" text-anchor="middle">DÉSACTIVER</text>

          <!-- ROW 1: mon-site.fr -->
          <rect x="1" y="41" width="1038" height="55" class="table-row"/>
          <line x1="0" y1="96" x2="1040" y2="96" stroke="#E5E7EB"/>
          
          <text x="130" y="73" class="text-primary font-base" font-size="11" text-anchor="middle">mon-site.fr</text>
          <rect x="300" y="58" width="60" height="22" rx="4" class="badge-success"/>
          <text x="330" y="73" class="badge-text-success font-base" text-anchor="middle">Activé</text>
          <text x="500" y="73" class="text-dark font-base" font-size="11" text-anchor="middle">Standard</text>
          <text x="680" y="75" class="text-primary" font-size="18" text-anchor="middle">🗑️</text>
          <text x="840" y="75" class="text-primary" font-size="18" text-anchor="middle">⚙️</text>
          <text x="980" y="75" class="text-error" font-size="18" text-anchor="middle">✕</text>

          <!-- ROW 2: www.mon-site.fr -->
          <rect x="1" y="96" width="1038" height="55" class="table-row"/>
          <line x1="0" y1="151" x2="1040" y2="151" stroke="#E5E7EB"/>
          
          <text x="130" y="128" class="text-primary font-base" font-size="11" text-anchor="middle">www.mon-site.fr</text>
          <rect x="300" y="113" width="60" height="22" rx="4" class="badge-success"/>
          <text x="330" y="128" class="badge-text-success font-base" text-anchor="middle">Activé</text>
          <text x="500" y="128" class="text-dark font-base" font-size="11" text-anchor="middle">Standard</text>
          <text x="680" y="130" class="text-primary" font-size="18" text-anchor="middle">🗑️</text>
          <text x="840" y="130" class="text-primary" font-size="18" text-anchor="middle">⚙️</text>
          <text x="980" y="130" class="text-error" font-size="18" text-anchor="middle">✕</text>

          <!-- ROW 3: blog.mon-site.fr (Désactivé) -->
          <rect x="1" y="151" width="1038" height="55" class="table-row"/>
          
          <text x="130" y="183" class="text-primary font-base" font-size="11" text-anchor="middle">blog.mon-site.fr</text>
          <rect x="295" y="168" width="70" height="22" rx="4" class="badge-error"/>
          <text x="330" y="183" class="badge-text-error font-base" text-anchor="middle">Désactivé</text>
          <text x="500" y="183" class="text-muted font-base" font-size="11" text-anchor="middle">-</text>
          <text x="680" y="185" class="text-muted" font-size="18" text-anchor="middle">-</text>
          <text x="840" y="185" class="text-muted" font-size="18" text-anchor="middle">-</text>
          <text x="980" y="185" class="text-success" font-size="18" text-anchor="middle">✓</text>
        </g>

        <!-- Pagination -->
        <g transform="translate(0, 450)">
          <text x="0" y="18" class="text-muted" font-size="11">Page 1/1</text>
          <g transform="translate(900, 0)">
            <rect x="0" y="0" width="26" height="26" rx="4" stroke="#E5E7EB" fill="#FFFFFF"/>
            <text x="13" y="18" class="text-muted" font-size="11" text-anchor="middle">‹</text>
            <rect x="32" y="0" width="26" height="26" rx="4" class="bg-primary"/>
            <text x="45" y="18" class="text-white" font-size="11" text-anchor="middle">1</text>
            <rect x="64" y="0" width="26" height="26" rx="4" stroke="#E5E7EB" fill="#FFFFFF"/>
            <text x="77" y="18" class="text-muted" font-size="11" text-anchor="middle">›</text>
          </g>
        </g>

      </g>
    </g>
  </g>
</svg>
