<svg xmlns="http://www.w3.org/2000/svg" viewBox="0 0 1440 900" width="1440" height="900">
  <defs>
    <style>
      .bg-header { fill: #000E9C; }
      .bg-main { fill: #F6F6F9; }
      .bg-white { fill: #FFFFFF; }
      .bg-primary { fill: #0050D7; }
      .bg-neutral-100 { fill: #F3F4F6; }
      .bg-info { fill: #DBEAFE; }
      .bg-success { fill: #DEF7EC; }
      .bg-error { fill: #FEE2E2; }
      .bg-warning { fill: #FEF3C7; }
      .border { stroke: #E5E7EB; stroke-width: 1; fill: none; }
      .divider { stroke: #E5E7EB; stroke-width: 1; }
      .btn-outline { stroke: #0050D7; stroke-width: 1; fill: #FFFFFF; }
      .btn-primary { fill: #0050D7; }
      .btn-disabled { fill: #E5E7EB; }
      .row-selected { fill: #E8F0FE; }
      .table-header { fill: #F9FAFB; }
      .text-white { fill: #FFFFFF; font-family: 'Source Sans Pro', sans-serif; }
      .text-dark { fill: #1F2937; font-family: 'Source Sans Pro', sans-serif; }
      .text-muted { fill: #6B7280; font-family: 'Source Sans Pro', sans-serif; }
      .text-primary { fill: #0050D7; font-family: 'Source Sans Pro', sans-serif; }
      .text-success { fill: #059669; font-family: 'Source Sans Pro', sans-serif; }
      .text-error { fill: #DC2626; font-family: 'Source Sans Pro', sans-serif; }
      .text-info { fill: #1E40AF; font-family: 'Source Sans Pro', sans-serif; }
      .text-warning { fill: #D97706; font-family: 'Source Sans Pro', sans-serif; }
    </style>
  </defs>

  <!-- Background -->
  <rect width="1440" height="900" class="bg-main"/>

  <!-- NAV1 - Header OVH (Web Cloud actif) -->
  <rect width="1440" height="50" class="bg-header"/>
  <text x="40" y="32" class="text-white" font-size="14" opacity="0.7">Accueil</text>
  <text x="110" y="32" class="text-white" font-size="14" opacity="0.7">Public Cloud</text>
  <text x="210" y="32" class="text-white" font-size="14" opacity="0.7">Hosted Private Cloud</text>
  <text x="370" y="32" class="text-white" font-size="14" opacity="0.7">Bare Metal Cloud</text>
  <text x="510" y="32" class="text-white" font-size="14" font-weight="600">Web Cloud</text>
  <rect x="505" y="46" width="75" height="3" fill="#FFFFFF"/>
  <text x="620" y="32" class="text-white" font-size="14" opacity="0.7">Network</text>
  <text x="700" y="32" class="text-white" font-size="14" opacity="0.7">IAM / Securite</text>
  <text x="810" y="32" class="text-white" font-size="14" opacity="0.7">Licences</text>
  <rect x="1280" y="12" width="140" height="26" rx="13" fill="rgba(255,255,255,0.2)"/>
  <rect x="1285" y="15" width="26" height="20" rx="10" fill="#DEF7EC"/>
  <text x="1292" y="29" fill="#03543F" font-size="10" font-weight="600">OK</text>
  <text x="1320" y="29" class="text-white" font-size="12">{nicHandle}</text>

  <!-- NAV2 WEB CLOUD - Hebergement actif -->
  <rect x="0" y="50" width="1440" height="40" class="bg-white"/>
  <line x1="0" y1="89" x2="1440" y2="89" stroke="#E5E7EB"/>
  <text x="40" y="75" class="text-muted" font-size="14">Accueil</text>
  <text x="110" y="75" class="text-muted" font-size="14">Domaines et DNS</text>
  <text x="240" y="75" class="text-primary" font-size="14" font-weight="600">Hebergement</text>
  <rect x="235" y="85" width="85" height="3" fill="#0050D7"/>
  <text x="345" y="75" class="text-muted" font-size="14">Wordpress</text>
  <text x="430" y="75" class="text-muted" font-size="14">Emails</text>
  <text x="500" y="75" class="text-muted" font-size="14">VoIP</text>
  <text x="550" y="75" class="text-muted" font-size="14">Acces</text>
  <text x="1350" y="75" class="text-primary" font-size="13">Guides</text>

  <!-- CONTENT AREA -->
  <g transform="translate(0, 105)">
    <g transform="translate(24, 0)">

      <!-- LEFT PANEL (280px x 765px) -->
      <rect x="0" y="0" width="280" height="765" rx="8" class="bg-white"/>
      <rect x="0" y="0" width="280" height="765" rx="8" class="border"/>

      <!-- NAV3 Groupement (TOUJOURS au-dessus de recherche) -->
      <rect x="0" y="0" width="280" height="44" rx="8" fill="#F9FAFB"/>
      <rect x="8" y="10" width="64" height="24" rx="4" fill="#0050D7"/>
      <text x="40" y="26" class="text-white" font-size="11" text-anchor="middle">Général</text>
      <rect x="76" y="10" width="64" height="24" rx="4" fill="#FFFFFF" stroke="#E5E7EB"/>
      <text x="108" y="26" class="text-muted" font-size="11" text-anchor="middle">Sites</text>
      <rect x="144" y="10" width="64" height="24" rx="4" fill="#FFFFFF" stroke="#E5E7EB"/>
      <text x="176" y="26" class="text-muted" font-size="11" text-anchor="middle">Offre</text>
      <rect x="212" y="10" width="60" height="24" rx="4" fill="#FFFFFF" stroke="#E5E7EB"/>
      <text x="242" y="26" class="text-muted" font-size="11" text-anchor="middle">Expert</text>
      <line x1="0" y1="44" x2="280" y2="44" class="divider"/>

      <!-- Recherche (y=56, sous NAV3 Groupement) -->
      <rect x="12" y="56" width="256" height="34" rx="4" fill="#F9FAFB" stroke="#E5E7EB"/>
      <text x="40" y="78" class="text-muted" font-size="12">Rechercher...</text>
      <text x="26" y="78" class="text-muted" font-size="14">&#128269;</text>

      <!-- Filtre et Compteur (y=100) -->
      <text x="12" y="108" class="text-muted" font-size="11">Filtrer par statut &#9662;</text>
      <text x="268" y="108" class="text-muted" font-size="11" text-anchor="end">3 services</text>

      <!-- Service selectionne -->
      <rect x="6" y="118" width="268" height="56" rx="6" class="row-selected"/>
      <circle cx="28" cy="146" r="14" fill="#0050D7"/>
      <text x="28" y="150" class="text-white" font-size="12" text-anchor="middle">&#127760;</text>
      <text x="52" y="138" class="text-dark" font-size="13" font-weight="500">monsite.example.com</text>
      <text x="52" y="154" class="text-muted" font-size="11">Performance 1</text>
      <rect x="210" y="134" width="46" height="18" rx="9" fill="#DEF7EC"/>
      <text x="233" y="147" fill="#03543F" font-size="10" text-anchor="middle">Actif</text>

      <!-- Service 2 -->
      <rect x="6" y="180" width="268" height="56" rx="6" fill="#FFFFFF"/>
      <circle cx="28" cy="208" r="14" fill="#0050D7"/>
      <text x="28" y="212" class="text-white" font-size="12" text-anchor="middle">&#127760;</text>
      <text x="52" y="200" class="text-dark" font-size="13" font-weight="500">blog.example.com</text>
      <text x="52" y="216" class="text-muted" font-size="11">Pro</text>
      <rect x="210" y="196" width="46" height="18" rx="9" fill="#DEF7EC"/>
      <text x="233" y="209" fill="#03543F" font-size="10" text-anchor="middle">Actif</text>

      <!-- Service 3 -->
      <rect x="6" y="242" width="268" height="56" rx="6" fill="#FFFFFF"/>
      <circle cx="28" cy="270" r="14" fill="#0050D7"/>
      <text x="28" y="274" class="text-white" font-size="12" text-anchor="middle">&#127760;</text>
      <text x="52" y="262" class="text-dark" font-size="13" font-weight="500">shop.example.com</text>
      <text x="52" y="278" class="text-muted" font-size="11">Performance 2</text>
      <rect x="210" y="258" width="46" height="18" rx="9" fill="#DEF7EC"/>
      <text x="233" y="271" fill="#03543F" font-size="10" text-anchor="middle">Actif</text>

      <!-- Pagination -->
      <g transform="translate(12, 720)">
        <text x="0" y="16" class="text-muted" font-size="11">Page 1/1</text>
        <rect x="180" y="0" width="28" height="26" rx="4" class="btn-disabled"/>
        <text x="194" y="17" class="text-muted" font-size="12" text-anchor="middle">&#8249;</text>
        <rect x="212" y="0" width="28" height="26" rx="4" class="bg-primary"/>
        <text x="226" y="17" class="text-white" font-size="11" text-anchor="middle">1</text>
        <rect x="244" y="0" width="28" height="26" rx="4" class="btn-disabled"/>
        <text x="258" y="17" class="text-muted" font-size="12" text-anchor="middle">&#8250;</text>
      </g>

    </g>

    <g transform="translate(320, 0)">

      <!-- RIGHT PANEL (1096px x 765px) -->
      <rect x="0" y="0" width="1096" height="765" rx="8" class="bg-white"/>
      <rect x="0" y="0" width="1096" height="765" rx="8" class="border"/>

      <g transform="translate(20, 0)">
        <!-- HEADER PAGE (y=0 a y=35) -->
        <text x="0" y="28" class="text-dark" font-size="18" font-weight="600">monsite.example.com</text>

        <!-- Boutons actions -->
        <rect x="900" y="8" width="32" height="32" rx="4" class="btn-outline"/>
        <text x="916" y="30" class="text-primary" font-size="14" text-anchor="middle">&#8635;</text>
        <rect x="940" y="8" width="120" height="32" rx="4" class="btn-primary"/>
        <text x="1000" y="29" class="text-white" font-size="12" text-anchor="middle">+ Commander</text>

        <!-- NAV4 FONCTION - TABS (y=46) -->
        <g transform="translate(0, 46)">
          <rect x="0" y="0" width="70" height="28" rx="4" fill="#0050D7"/>
          <text x="35" y="18" fill="#FFFFFF" font-size="12" text-anchor="middle">General</text>

          <rect x="78" y="0" width="90" height="28" rx="4" fill="#FFFFFF" stroke="#0050D7"/>
          <text x="123" y="18" fill="#0050D7" font-size="12" text-anchor="middle">Statistiques</text>

          <rect x="176" y="0" width="55" height="28" rx="4" fill="#FFFFFF" stroke="#0050D7"/>
          <text x="203" y="18" fill="#0050D7" font-size="12" text-anchor="middle">Logs</text>

          <rect x="239" y="0" width="70" height="28" rx="4" fill="#FFFFFF" stroke="#0050D7"/>
          <text x="274" y="18" fill="#0050D7" font-size="12" text-anchor="middle">Modules</text>

          <rect x="317" y="0" width="50" height="28" rx="4" fill="#FFFFFF" stroke="#0050D7"/>
          <text x="342" y="18" fill="#0050D7" font-size="12" text-anchor="middle">SEO</text>
        </g>

        <!-- CONTENU (y=90) -->
        <g transform="translate(0, 90)">

          <!-- Bloc Informations generales -->
          <rect x="0" y="0" width="520" height="280" rx="8" class="border" fill="#FFFFFF"/>
          <text x="16" y="28" class="text-dark" font-size="15" font-weight="700">Informations generales</text>

          <text x="16" y="60" class="text-muted" font-size="11">Etat du service</text>
          <rect x="16" y="68" width="46" height="18" rx="9" fill="#DEF7EC"/>
          <text x="39" y="81" fill="#03543F" font-size="10" text-anchor="middle">Actif</text>

          <text x="16" y="110" class="text-muted" font-size="11">Adresse IPv4</text>
          <text x="16" y="126" class="text-dark" font-size="11">213.186.33.5</text>
          <text x="130" y="126" class="text-primary" font-size="12">&#128203;</text>

          <text x="180" y="110" class="text-muted" font-size="11">Adresse IPv6</text>
          <text x="180" y="126" class="text-dark" font-size="11">2001:41d0:1:1b00::5</text>
          <text x="330" y="126" class="text-primary" font-size="12">&#128203;</text>

          <text x="16" y="158" class="text-muted" font-size="11">Espace disque</text>
          <rect x="16" y="166" width="480" height="8" rx="4" fill="#E5E7EB"/>
          <rect x="16" y="166" width="168" height="8" rx="4" fill="#10B981"/>
          <text x="16" y="190" class="text-dark" font-size="11">3,5 Go / 10 Go (35%)</text>

          <text x="16" y="218" class="text-muted" font-size="11">Datacenter</text>
          <text x="16" y="234" class="text-dark" font-size="11">Gravelines (gra3)</text>

          <text x="180" y="218" class="text-muted" font-size="11">Cluster</text>
          <text x="180" y="234" class="text-dark" font-size="11">cluster027.hosting.ovh.net</text>

          <text x="16" y="262" class="text-muted" font-size="11">Date de creation</text>
          <text x="16" y="278" class="text-dark" font-size="11">15 janvier 2023</text>

          <!-- Bloc Configuration -->
          <rect x="536" y="0" width="520" height="280" rx="8" class="border" fill="#FFFFFF"/>
          <text x="552" y="28" class="text-dark" font-size="15" font-weight="700">Configuration</text>

          <text x="552" y="60" class="text-muted" font-size="11">Version PHP</text>
          <text x="552" y="76" class="text-dark" font-size="11">8.2</text>
          <circle cx="582" cy="72" r="5" fill="#10B981"/>
          <text x="1020" y="68" class="text-primary" font-size="12">&#9998;</text>

          <text x="552" y="110" class="text-muted" font-size="11">Certificat SSL</text>
          <text x="552" y="126" class="text-dark" font-size="11">Let's Encrypt - Actif</text>
          <text x="1020" y="118" class="text-primary" font-size="12">&#9998;</text>

          <text x="552" y="158" class="text-muted" font-size="11">Offre email</text>
          <text x="552" y="174" class="text-dark" font-size="11">Active - 5 comptes</text>
          <text x="1020" y="166" class="text-primary" font-size="12">&#9998;</text>

          <text x="552" y="206" class="text-muted" font-size="11">CDN</text>
          <text x="552" y="222" class="text-dark" font-size="11">CDN Basic - Actif</text>
          <text x="1020" y="214" class="text-primary" font-size="12">&#9998;</text>

          <text x="552" y="254" class="text-muted" font-size="11">Boost</text>
          <text x="552" y="270" class="text-dark" font-size="11">Desactive</text>
          <text x="1020" y="262" class="text-primary" font-size="12">&#9998;</text>

          <!-- Bloc Abonnement -->
          <rect x="0" y="296" width="520" height="200" rx="8" class="border" fill="#FFFFFF"/>
          <text x="16" y="324" class="text-dark" font-size="15" font-weight="700">Abonnement</text>

          <text x="16" y="356" class="text-muted" font-size="11">Offre</text>
          <text x="16" y="372" class="text-dark" font-size="11" font-weight="500">Performance 1</text>
          <text x="490" y="364" class="text-primary" font-size="12">&#9998;</text>

          <text x="16" y="404" class="text-muted" font-size="11">Renouvellement</text>
          <text x="16" y="420" class="text-dark" font-size="11">Automatique - 15/01/2026</text>

          <text x="16" y="452" class="text-muted" font-size="11">Contacts</text>
          <text x="16" y="468" class="text-dark" font-size="11">ab12345-ovh : Admin, Technique, Facturation</text>
          <text x="490" y="460" class="text-primary" font-size="12">&#9998;</text>

          <!-- Bloc Liens utiles -->
          <rect x="536" y="296" width="520" height="200" rx="8" class="border" fill="#FFFFFF"/>
          <text x="552" y="324" class="text-dark" font-size="15" font-weight="700">Liens utiles</text>

          <text x="552" y="360" class="text-primary" font-size="12">&#8250; Statistiques de visites</text>
          <text x="552" y="388" class="text-primary" font-size="12">&#8250; Acces HTTP au cluster</text>
          <text x="552" y="416" class="text-primary" font-size="12">&#8250; Versions des langages disponibles</text>
          <text x="552" y="444" class="text-primary" font-size="12">&#8250; Gerer les taches en cours</text>
          <text x="552" y="472" class="text-primary" font-size="12">&#8250; Documentation OVH Hosting</text>

        </g>
      </g>

    </g>
  </g>
</svg>
