<svg xmlns="http://www.w3.org/2000/svg" viewBox="0 0 1440 900" width="1440" height="900">
  <defs>
    <style>
      .bg-header { fill: #000E9C; }
      .bg-main { fill: #F6F6F9; }
      .bg-white { fill: #FFFFFF; }
      .bg-primary { fill: #0050D7; }
      .bg-info { fill: #DBEAFE; }
      .border { stroke: #E5E7EB; stroke-width: 1; fill: none; }
      .divider { stroke: #E5E7EB; stroke-width: 1; }
      .row-selected { fill: #E8F0FE; }
      .text-white { fill: #FFFFFF; font-family: 'Source Sans Pro', sans-serif; }
      .text-dark { fill: #1F2937; font-family: 'Source Sans Pro', sans-serif; }
      .text-muted { fill: #6B7280; font-family: 'Source Sans Pro', sans-serif; }
      .text-primary { fill: #0050D7; font-family: 'Source Sans Pro', sans-serif; }
    </style>
  </defs>

  <!-- Background -->
  <rect width="1440" height="900" class="bg-main"/>

  <!-- NAV1 -->
  <rect width="1440" height="50" class="bg-header"/>
  <text x="40" y="32" class="text-white" font-size="14" opacity="0.7">Accueil</text>
  <text x="110" y="32" class="text-white" font-size="14" opacity="0.7">Public Cloud</text>
  <text x="210" y="32" class="text-white" font-size="14" opacity="0.7">Hosted Private Cloud</text>
  <text x="370" y="32" class="text-white" font-size="14" opacity="0.7">Bare Metal Cloud</text>
  <text x="510" y="32" class="text-white" font-size="14" font-weight="600">Web Cloud</text>
  <rect x="505" y="46" width="75" height="3" fill="#FFFFFF"/>
  <text x="620" y="32" class="text-white" font-size="14" opacity="0.7">Network</text>
  <text x="700" y="32" class="text-white" font-size="14" opacity="0.7">IAM / Securite</text>
  <text x="810" y="32" class="text-white" font-size="14" opacity="0.7">Licences</text>
  <rect x="1280" y="12" width="140" height="26" rx="13" fill="rgba(255,255,255,0.2)"/>
  <rect x="1285" y="15" width="26" height="20" rx="10" fill="#DEF7EC"/>
  <text x="1292" y="29" fill="#03543F" font-size="10" font-weight="600">OK</text>
  <text x="1320" y="29" class="text-white" font-size="12">ab12345-ovh</text>

  <!-- NAV2 -->
  <rect x="0" y="50" width="1440" height="40" class="bg-white"/>
  <line x1="0" y1="89" x2="1440" y2="89" stroke="#E5E7EB"/>
  <text x="40" y="75" class="text-muted" font-size="14">Accueil</text>
  <text x="110" y="75" class="text-muted" font-size="14">Domaines et DNS</text>
  <text x="240" y="75" class="text-primary" font-size="14" font-weight="600">Hebergement</text>
  <rect x="235" y="85" width="85" height="3" fill="#0050D7"/>
  <text x="345" y="75" class="text-muted" font-size="14">Wordpress</text>
  <text x="430" y="75" class="text-muted" font-size="14">Emails</text>
  <text x="500" y="75" class="text-muted" font-size="14">VoIP</text>
  <text x="550" y="75" class="text-muted" font-size="14">Acces</text>
  <text x="1350" y="75" class="text-primary" font-size="13">Guides</text>

  <!-- CONTENT AREA -->
  <g transform="translate(0, 105)">
    <!-- LEFT PANEL -->
    <g transform="translate(24, 0)">
      <rect x="0" y="0" width="280" height="765" rx="8" class="bg-white"/>
      <rect x="0" y="0" width="280" height="765" rx="8" class="border"/>

      <!-- NAV3 -->
      <rect x="0" y="0" width="280" height="44" rx="8" fill="#F9FAFB"/>
      <rect x="8" y="10" width="62" height="24" rx="4" fill="#FFFFFF" stroke="#E5E7EB"/>
      <text x="39" y="26" class="text-muted" font-size="11" text-anchor="middle">Général</text>
      <rect x="74" y="10" width="62" height="24" rx="4" fill="#FFFFFF" stroke="#E5E7EB"/>
      <text x="105" y="26" class="text-muted" font-size="11" text-anchor="middle">Sites</text>
      <rect x="140" y="10" width="62" height="24" rx="4" fill="#FFFFFF" stroke="#E5E7EB"/>
      <text x="171" y="26" class="text-muted" font-size="11" text-anchor="middle">Offre</text>
      <rect x="206" y="10" width="62" height="24" rx="4" fill="#0050D7"/>
      <text x="237" y="26" class="text-white" font-size="11" text-anchor="middle">Expert</text>
      <line x1="0" y1="44" x2="280" y2="44" class="divider"/>

      <rect x="12" y="56" width="256" height="34" rx="4" fill="#F9FAFB" stroke="#E5E7EB"/>
      <text x="26" y="78" class="text-muted" font-size="12">Rechercher...</text>

      <text x="12" y="112" class="text-muted" font-size="11">3 services</text>

      <rect x="6" y="124" width="268" height="56" rx="6" class="row-selected"/>
      <circle cx="28" cy="152" r="14" fill="#0050D7"/>
      <text x="28" y="156" class="text-white" font-size="12" text-anchor="middle">M</text>
      <text x="52" y="144" class="text-dark" font-size="13" font-weight="500">monsite.example.com</text>
      <text x="52" y="160" class="text-muted" font-size="11">Performance 1</text>
      <rect x="210" y="140" width="46" height="18" rx="9" fill="#DEF7EC"/>
      <text x="233" y="153" fill="#03543F" font-size="10" text-anchor="middle">Actif</text>
    </g>

    <!-- RIGHT PANEL -->
    <g transform="translate(320, 0)">
      <rect x="0" y="0" width="1096" height="765" rx="8" class="bg-white"/>
      <rect x="0" y="0" width="1096" height="765" rx="8" class="border"/>

      <g transform="translate(20, 0)">
        <text x="0" y="24" class="text-dark" font-size="18" font-weight="600">monsite.example.com</text>

        <!-- NAV4 - Expert tabs -->
        <g transform="translate(0, 38)">
          <rect x="0" y="0" width="60" height="26" rx="4" fill="#FFFFFF" stroke="#0050D7"/>
          <text x="30" y="17" class="text-primary" font-size="11" text-anchor="middle">General</text>
          <rect x="64" y="0" width="55" height="26" rx="4" fill="#FFFFFF" stroke="#0050D7"/>
          <text x="91" y="17" class="text-primary" font-size="11" text-anchor="middle">Boost</text>
          <rect x="123" y="0" width="45" height="26" rx="4" fill="#FFFFFF" stroke="#0050D7"/>
          <text x="145" y="17" class="text-primary" font-size="11" text-anchor="middle">Indy</text>
          <rect x="172" y="0" width="55" height="26" rx="4" fill="#FFFFFF" stroke="#0050D7"/>
          <text x="199" y="17" class="text-primary" font-size="11" text-anchor="middle">Emails</text>
          <rect x="231" y="0" width="65" height="26" rx="4" fill="#FFFFFF" stroke="#0050D7"/>
          <text x="263" y="17" class="text-primary" font-size="11" text-anchor="middle">Variables</text>
          <rect x="300" y="0" width="75" height="26" rx="4" fill="#FFFFFF" stroke="#0050D7"/>
          <text x="337" y="17" class="text-primary" font-size="11" text-anchor="middle">OvhConfig</text>
          <rect x="379" y="0" width="70" height="26" rx="4" fill="#FFFFFF" stroke="#0050D7"/>
          <text x="414" y="17" class="text-primary" font-size="11" text-anchor="middle">Runtimes</text>
          <rect x="453" y="0" width="50" height="26" rx="4" fill="#FFFFFF" stroke="#0050D7"/>
          <text x="478" y="17" class="text-primary" font-size="11" text-anchor="middle">Cron</text>
          <rect x="507" y="0" width="55" height="26" rx="4" fill="#FFFFFF" stroke="#0050D7"/>
          <text x="534" y="17" class="text-primary" font-size="11" text-anchor="middle">Taches</text>
          <rect x="566" y="0" width="65" height="26" rx="4" fill="#0050D7"/>
          <text x="598" y="17" class="text-white" font-size="11" text-anchor="middle">CloudDb</text>
        </g>

        <!-- Contenu CloudDb -->
        <g transform="translate(0, 80)">
          <!-- Banniere info -->
          <rect x="0" y="0" width="1040" height="55" rx="6" fill="#DBEAFE"/>
          <text x="20" y="20" class="text-primary" font-size="12" font-weight="600">CloudDb - Base de donnees privee</text>
          <text x="20" y="40" class="text-primary" font-size="11">Gerez votre serveur de base de donnees dedie avec plus de ressources et de controle.</text>

          <!-- Toolbar -->
          <g transform="translate(0, 70)">
            <rect x="0" y="0" width="28" height="28" rx="4" fill="#FFFFFF" stroke="#0050D7"/>
            <text x="14" y="19" class="text-primary" font-size="12" text-anchor="middle">↻</text>

            <rect x="860" y="0" width="180" height="28" rx="4" fill="#0050D7"/>
            <text x="950" y="18" class="text-white" font-size="11" text-anchor="middle">+ Commander CloudDb</text>
          </g>

          <!-- Bloc CloudDb lie -->
          <g transform="translate(0, 115)">
            <rect x="0" y="0" width="1040" height="200" rx="8" fill="#FFFFFF" stroke="#E5E7EB"/>
            <text x="20" y="30" class="text-dark" font-size="13" font-weight="600">CloudDb associe</text>

            <g transform="translate(20, 55)">
              <!-- Info serveur -->
              <rect x="0" y="0" width="480" height="120" rx="6" fill="#F9FAFB"/>

              <text x="15" y="25" class="text-muted" font-size="10">Serveur</text>
              <text x="15" y="42" class="text-dark" font-size="12" font-weight="500">clouddb-abc123.ovh.net</text>

              <text x="15" y="65" class="text-muted" font-size="10">Type</text>
              <text x="15" y="82" class="text-dark" font-size="11">MySQL 8.0</text>

              <text x="250" y="25" class="text-muted" font-size="10">Port</text>
              <text x="250" y="42" class="text-dark" font-size="11">35123</text>

              <text x="250" y="65" class="text-muted" font-size="10">RAM</text>
              <text x="250" y="82" class="text-dark" font-size="11">512 Mo</text>

              <text x="380" y="25" class="text-muted" font-size="10">Statut</text>
              <rect x="380" y="32" width="46" height="18" rx="9" fill="#DEF7EC"/>
              <text x="403" y="45" fill="#03543F" font-size="10" text-anchor="middle">Actif</text>
            </g>

            <!-- Actions -->
            <g transform="translate(520, 55)">
              <rect x="0" y="0" width="150" height="32" rx="4" fill="#FFFFFF" stroke="#0050D7"/>
              <text x="75" y="21" class="text-primary" font-size="11" text-anchor="middle">Statistiques</text>

              <rect x="0" y="42" width="150" height="32" rx="4" fill="#FFFFFF" stroke="#0050D7"/>
              <text x="75" y="63" class="text-primary" font-size="11" text-anchor="middle">Configuration</text>

              <rect x="0" y="84" width="150" height="32" rx="4" fill="#FFFFFF" stroke="#E5E7EB"/>
              <text x="75" y="105" class="text-muted" font-size="11" text-anchor="middle">Gerer les BDD</text>
            </g>
          </g>

          <!-- Bloc Bases de donnees -->
          <g transform="translate(0, 335)">
            <rect x="0" y="0" width="1040" height="220" rx="8" fill="#FFFFFF" stroke="#E5E7EB"/>
            <text x="20" y="30" class="text-dark" font-size="13" font-weight="600">Bases de donnees sur CloudDb</text>

            <!-- Table -->
            <g transform="translate(20, 50)">
              <rect x="0" y="0" width="1000" height="30" fill="#F9FAFB"/>
              <text x="15" y="20" class="text-muted" font-size="11" font-weight="600">Nom</text>
              <text x="250" y="20" class="text-muted" font-size="11" font-weight="600">Taille</text>
              <text x="400" y="20" class="text-muted" font-size="11" font-weight="600">Utilisateur</text>
              <text x="600" y="20" class="text-muted" font-size="11" font-weight="600">Dernier backup</text>
              <text x="800" y="20" class="text-muted" font-size="11" font-weight="600">Actions</text>
            </g>

            <g transform="translate(20, 80)">
              <rect x="0" y="0" width="1000" height="40" class="row-selected"/>
              <text x="15" y="26" class="text-dark" font-size="11" font-weight="500">prod_database</text>
              <text x="250" y="26" class="text-dark" font-size="11">1.2 Go</text>
              <text x="400" y="26" class="text-muted" font-size="11">dbuser_prod</text>
              <text x="600" y="26" class="text-muted" font-size="11">02/01/2026 03:00</text>
              <text x="800" y="26" class="text-primary" font-size="11">✎</text>
              <text x="830" y="26" class="text-primary" font-size="11">📥</text>
              <text x="860" y="26" fill="#DC2626" font-size="11">×</text>
            </g>

            <g transform="translate(20, 120)">
              <line x1="0" y1="0" x2="1000" y2="0" stroke="#E5E7EB"/>
              <text x="15" y="26" class="text-dark" font-size="11" font-weight="500">staging_database</text>
              <text x="250" y="26" class="text-dark" font-size="11">450 Mo</text>
              <text x="400" y="26" class="text-muted" font-size="11">dbuser_staging</text>
              <text x="600" y="26" class="text-muted" font-size="11">02/01/2026 03:00</text>
              <text x="800" y="26" class="text-primary" font-size="11">✎</text>
              <text x="830" y="26" class="text-primary" font-size="11">📥</text>
              <text x="860" y="26" fill="#DC2626" font-size="11">×</text>
            </g>

            <g transform="translate(20, 170)">
              <text x="0" y="16" class="text-muted" font-size="11">Espace utilise: 1.65 Go / 10 Go</text>
              <rect x="200" y="4" width="200" height="12" rx="6" fill="#E5E7EB"/>
              <rect x="200" y="4" width="33" height="12" rx="6" fill="#0050D7"/>
            </g>
          </g>
        </g>
      </g>
    </g>
  </g>
</svg>
