<svg xmlns="http://www.w3.org/2000/svg" viewBox="0 0 1440 900" width="1440" height="900">
  <defs>
    <style>
      .bg-header { fill: #000E9C; }
      .bg-main { fill: #F6F6F9; }
      .bg-white { fill: #FFFFFF; }
      .bg-primary { fill: #0050D7; }
      .bg-error { fill: #FEE2E2; }
      .border { stroke: #E5E7EB; stroke-width: 1; fill: none; }
      .divider { stroke: #E5E7EB; stroke-width: 1; }
      .row-selected { fill: #E8F0FE; }
      .text-white { fill: #FFFFFF; font-family: 'Source Sans Pro', sans-serif; }
      .text-dark { fill: #1F2937; font-family: 'Source Sans Pro', sans-serif; }
      .text-muted { fill: #6B7280; font-family: 'Source Sans Pro', sans-serif; }
      .text-primary { fill: #0050D7; font-family: 'Source Sans Pro', sans-serif; }
      .text-error { fill: #DC2626; font-family: 'Source Sans Pro', sans-serif; }
    </style>
  </defs>

  <!-- Background -->
  <rect width="1440" height="900" class="bg-main"/>

  <!-- NAV1 -->
  <rect width="1440" height="50" class="bg-header"/>
  <text x="40" y="32" class="text-white" font-size="14" opacity="0.7">Accueil</text>
  <text x="110" y="32" class="text-white" font-size="14" opacity="0.7">Public Cloud</text>
  <text x="210" y="32" class="text-white" font-size="14" opacity="0.7">Hosted Private Cloud</text>
  <text x="370" y="32" class="text-white" font-size="14" opacity="0.7">Bare Metal Cloud</text>
  <text x="510" y="32" class="text-white" font-size="14" font-weight="600">Web Cloud</text>
  <rect x="505" y="46" width="75" height="3" fill="#FFFFFF"/>
  <text x="620" y="32" class="text-white" font-size="14" opacity="0.7">Network</text>
  <text x="700" y="32" class="text-white" font-size="14" opacity="0.7">IAM / Securite</text>
  <text x="810" y="32" class="text-white" font-size="14" opacity="0.7">Licences</text>
  <rect x="1280" y="12" width="140" height="26" rx="13" fill="rgba(255,255,255,0.2)"/>
  <rect x="1285" y="15" width="26" height="20" rx="10" fill="#DEF7EC"/>
  <text x="1292" y="29" fill="#03543F" font-size="10" font-weight="600">OK</text>
  <text x="1320" y="29" class="text-white" font-size="12">ab12345-ovh</text>

  <!-- NAV2 -->
  <rect x="0" y="50" width="1440" height="40" class="bg-white"/>
  <line x1="0" y1="89" x2="1440" y2="89" stroke="#E5E7EB"/>
  <text x="40" y="75" class="text-muted" font-size="14">Accueil</text>
  <text x="110" y="75" class="text-muted" font-size="14">Domaines et DNS</text>
  <text x="240" y="75" class="text-primary" font-size="14" font-weight="600">Hebergement</text>
  <rect x="235" y="85" width="85" height="3" fill="#0050D7"/>
  <text x="345" y="75" class="text-muted" font-size="14">Wordpress</text>
  <text x="430" y="75" class="text-muted" font-size="14">Emails</text>
  <text x="500" y="75" class="text-muted" font-size="14">VoIP</text>
  <text x="550" y="75" class="text-muted" font-size="14">Acces</text>
  <text x="1350" y="75" class="text-primary" font-size="13">Guides</text>

  <!-- CONTENT AREA -->
  <g transform="translate(0, 105)">
    <!-- LEFT PANEL -->
    <g transform="translate(24, 0)">
      <rect x="0" y="0" width="280" height="765" rx="8" class="bg-white"/>
      <rect x="0" y="0" width="280" height="765" rx="8" class="border"/>

      <!-- NAV3 -->
      <rect x="0" y="0" width="280" height="44" rx="8" fill="#F9FAFB"/>
      <rect x="8" y="10" width="62" height="24" rx="4" fill="#FFFFFF" stroke="#E5E7EB"/>
      <text x="39" y="26" class="text-muted" font-size="11" text-anchor="middle">Général</text>
      <rect x="74" y="10" width="62" height="24" rx="4" fill="#FFFFFF" stroke="#E5E7EB"/>
      <text x="105" y="26" class="text-muted" font-size="11" text-anchor="middle">Sites</text>
      <rect x="140" y="10" width="62" height="24" rx="4" fill="#0050D7"/>
      <text x="171" y="26" class="text-white" font-size="11" text-anchor="middle">Offre</text>
      <rect x="206" y="10" width="62" height="24" rx="4" fill="#FFFFFF" stroke="#E5E7EB"/>
      <text x="237" y="26" class="text-muted" font-size="11" text-anchor="middle">Expert</text>
      <line x1="0" y1="44" x2="280" y2="44" class="divider"/>

      <rect x="12" y="56" width="256" height="34" rx="4" fill="#F9FAFB" stroke="#E5E7EB"/>
      <text x="26" y="78" class="text-muted" font-size="12">Rechercher...</text>

      <text x="12" y="112" class="text-muted" font-size="11">3 services</text>

      <rect x="6" y="124" width="268" height="56" rx="6" class="row-selected"/>
      <circle cx="28" cy="152" r="14" fill="#0050D7"/>
      <text x="28" y="156" class="text-white" font-size="12" text-anchor="middle">M</text>
      <text x="52" y="144" class="text-dark" font-size="13" font-weight="500">monsite.example.com</text>
      <text x="52" y="160" class="text-muted" font-size="11">Performance 1</text>
      <rect x="210" y="140" width="46" height="18" rx="9" fill="#DEF7EC"/>
      <text x="233" y="153" fill="#03543F" font-size="10" text-anchor="middle">Actif</text>
    </g>

    <!-- RIGHT PANEL -->
    <g transform="translate(320, 0)">
      <rect x="0" y="0" width="1096" height="765" rx="8" class="bg-white"/>
      <rect x="0" y="0" width="1096" height="765" rx="8" class="border"/>

      <g transform="translate(20, 0)">
        <text x="0" y="24" class="text-dark" font-size="18" font-weight="600">monsite.example.com</text>

        <!-- NAV4 -->
        <g transform="translate(0, 38)">
          <rect x="0" y="0" width="55" height="26" rx="4" fill="#FFFFFF" stroke="#0050D7"/>
          <text x="27" y="17" class="text-primary" font-size="11" text-anchor="middle">Offre</text>
          <rect x="59" y="0" width="85" height="26" rx="4" fill="#FFFFFF" stroke="#0050D7"/>
          <text x="101" y="17" class="text-primary" font-size="11" text-anchor="middle">Changement</text>
          <rect x="148" y="0" width="75" height="26" rx="4" fill="#FFFFFF" stroke="#0050D7"/>
          <text x="185" y="17" class="text-primary" font-size="11" text-anchor="middle">Migration</text>
          <rect x="227" y="0" width="80" height="26" rx="4" fill="#DC2626"/>
          <text x="267" y="17" class="text-white" font-size="11" text-anchor="middle">Resiliation</text>
        </g>

        <!-- Contenu Resiliation -->
        <g transform="translate(0, 80)">
          <!-- Banniere error -->
          <rect x="0" y="0" width="1040" height="60" rx="6" class="bg-error"/>
          <text x="20" y="22" class="text-error" font-size="12" font-weight="600">Attention - Resiliation definitive</text>
          <text x="20" y="42" class="text-error" font-size="11">La resiliation entrainera la suppression definitive de toutes vos donnees. Cette action est irreversible.</text>

          <!-- Bloc Informations service -->
          <g transform="translate(0, 80)">
            <rect x="0" y="0" width="1040" height="160" rx="8" fill="#FFFFFF" stroke="#E5E7EB"/>
            <text x="20" y="30" class="text-dark" font-size="13" font-weight="600">Informations du service a resilier</text>

            <g transform="translate(20, 55)">
              <text x="0" y="16" class="text-muted" font-size="11">Service</text>
              <text x="180" y="16" class="text-dark" font-size="11" font-weight="500">monsite.example.com</text>

              <text x="0" y="42" class="text-muted" font-size="11">Formule</text>
              <text x="180" y="42" class="text-dark" font-size="11">Performance 1</text>

              <text x="0" y="68" class="text-muted" font-size="11">Date d'expiration</text>
              <text x="180" y="68" class="text-dark" font-size="11">01/02/2026</text>

              <text x="0" y="94" class="text-muted" font-size="11">Type de resiliation</text>
              <text x="180" y="94" class="text-dark" font-size="11">A echeance (fin de periode)</text>

              <text x="500" y="16" class="text-muted" font-size="11">Espace utilise</text>
              <text x="650" y="16" class="text-dark" font-size="11">45 Go</text>

              <text x="500" y="42" class="text-muted" font-size="11">Bases de donnees</text>
              <text x="650" y="42" class="text-dark" font-size="11">3</text>

              <text x="500" y="68" class="text-muted" font-size="11">Domaines associes</text>
              <text x="650" y="68" class="text-dark" font-size="11">5</text>

              <text x="500" y="94" class="text-muted" font-size="11">Comptes email</text>
              <text x="650" y="94" class="text-dark" font-size="11">2</text>
            </g>
          </g>

          <!-- Bloc Consequences -->
          <g transform="translate(0, 260)">
            <rect x="0" y="0" width="1040" height="180" rx="8" fill="#FFFFFF" stroke="#DC2626"/>
            <text x="20" y="30" class="text-error" font-size="13" font-weight="600">Consequences de la resiliation</text>

            <g transform="translate(20, 55)">
              <text x="0" y="16" class="text-error" font-size="11">• Tous les fichiers de votre hebergement seront supprimes definitivement</text>
              <text x="0" y="38" class="text-error" font-size="11">• Toutes les bases de donnees seront supprimees definitivement</text>
              <text x="0" y="60" class="text-error" font-size="11">• Les comptes email associes seront supprimes avec tous les emails</text>
              <text x="0" y="82" class="text-error" font-size="11">• Les domaines associes ne pointeront plus vers votre hebergement</text>
              <text x="0" y="104" class="text-error" font-size="11">• Le certificat SSL sera revoque</text>
              <text x="0" y="126" class="text-error" font-size="11">• Cette action est IRREVERSIBLE - aucune recuperation possible</text>
            </g>
          </g>

          <!-- Bloc Confirmation -->
          <g transform="translate(0, 460)">
            <rect x="0" y="0" width="1040" height="150" rx="8" fill="#FFFFFF" stroke="#E5E7EB"/>
            <text x="20" y="30" class="text-dark" font-size="13" font-weight="600">Confirmation de resiliation</text>

            <g transform="translate(20, 55)">
              <rect x="0" y="0" width="16" height="16" rx="2" fill="#FFFFFF" stroke="#E5E7EB"/>
              <text x="26" y="13" class="text-dark" font-size="11">J'ai sauvegarde toutes mes donnees importantes</text>

              <rect x="0" y="30" width="16" height="16" rx="2" fill="#FFFFFF" stroke="#E5E7EB"/>
              <text x="26" y="43" class="text-dark" font-size="11">Je comprends que cette action est irreversible</text>

              <rect x="0" y="60" width="16" height="16" rx="2" fill="#FFFFFF" stroke="#E5E7EB"/>
              <text x="26" y="73" class="text-dark" font-size="11">Je confirme vouloir resilier ce service a echeance</text>
            </g>

            <g transform="translate(700, 50)">
              <rect x="0" y="0" width="180" height="40" rx="4" fill="#E5E7EB"/>
              <text x="90" y="26" class="text-muted" font-size="11" text-anchor="middle">Confirmer la resiliation</text>

              <rect x="190" y="0" width="120" height="40" rx="4" fill="#0050D7"/>
              <text x="250" y="26" class="text-white" font-size="11" text-anchor="middle">Annuler</text>
            </g>
          </g>
        </g>
      </g>
    </g>
  </g>
</svg>
