<svg xmlns="http://www.w3.org/2000/svg" viewBox="0 0 1440 900" width="1440" height="900">
  <defs>
    <style>
      .bg-header { fill: #000E9C; }
      .bg-main { fill: #F6F6F9; }
      .bg-white { fill: #FFFFFF; }
      .bg-primary { fill: #0050D7; }
      .border { stroke: #E5E7EB; stroke-width: 1; fill: none; }
      .divider { stroke: #E5E7EB; stroke-width: 1; }
      .btn-outline { stroke: #0050D7; stroke-width: 1; fill: #FFFFFF; }
      .btn-primary { fill: #0050D7; }
      .text-white { fill: #FFFFFF; font-family: 'Source Sans Pro', sans-serif; }
      .text-dark { fill: #1F2937; font-family: 'Source Sans Pro', sans-serif; }
      .text-muted { fill: #6B7280; font-family: 'Source Sans Pro', sans-serif; }
      .text-primary { fill: #0050D7; font-family: 'Source Sans Pro', sans-serif; }
      .text-success { fill: #059669; font-family: 'Source Sans Pro', sans-serif; }
      .bg-success { fill: #DEF7EC; }
    </style>
  </defs>

  <!-- Background -->
  <rect width="1440" height="900" class="bg-main"/>

  <!-- NAV1 - Header OVH (Web Cloud actif) -->
  <rect width="1440" height="50" class="bg-header"/>
  <text x="40" y="32" class="text-white" font-size="14" opacity="0.7">Accueil</text>
  <text x="110" y="32" class="text-white" font-size="14" opacity="0.7">Public Cloud</text>
  <text x="210" y="32" class="text-white" font-size="14" opacity="0.7">Hosted Private Cloud</text>
  <text x="370" y="32" class="text-white" font-size="14" opacity="0.7">Bare Metal Cloud</text>
  <text x="510" y="32" class="text-white" font-size="14" font-weight="600">Web Cloud</text>
  <rect x="505" y="46" width="75" height="3" fill="#FFFFFF"/>
  <text x="620" y="32" class="text-white" font-size="14" opacity="0.7">Network</text>
  <text x="700" y="32" class="text-white" font-size="14" opacity="0.7">IAM / Securite</text>
  <text x="810" y="32" class="text-white" font-size="14" opacity="0.7">Licences</text>
  <!-- Badge utilisateur -->
  <rect x="1280" y="12" width="140" height="26" rx="13" fill="rgba(255,255,255,0.2)"/>
  <rect x="1285" y="15" width="26" height="20" rx="10" fill="#DEF7EC"/>
  <text x="1292" y="29" fill="#03543F" font-size="10" font-weight="600">OK</text>
  <text x="1320" y="29" class="text-white" font-size="12">ab12345-ovh</text>

  <!-- NAV2 - Web Cloud (Hébergement actif) -->
  <rect x="0" y="50" width="1440" height="40" class="bg-white"/>
  <line x1="0" y1="89" x2="1440" y2="89" class="divider"/>
  <text x="40" y="75" class="text-muted" font-size="14">Accueil</text>
  <text x="110" y="75" class="text-muted" font-size="14">Domaines et DNS</text>
  <text x="240" y="75" class="text-primary" font-size="14" font-weight="600">Hébergement</text>
  <rect x="235" y="85" width="85" height="3" class="bg-primary"/>
  <text x="345" y="75" class="text-muted" font-size="14">Wordpress</text>
  <text x="430" y="75" class="text-muted" font-size="14">Emails</text>
  <text x="500" y="75" class="text-muted" font-size="14">VoIP</text>
  <text x="550" y="75" class="text-muted" font-size="14">Accès</text>
  <text x="1350" y="75" class="text-primary" font-size="13">Guides</text>

  <!-- CONTENT AREA -->
  <g transform="translate(0, 105)">
    <g transform="translate(24, 0)">

      <!-- LEFT PANEL (280px x 765px) -->
      <rect x="0" y="0" width="280" height="765" rx="8" class="bg-white"/>
      <rect x="0" y="0" width="280" height="765" rx="8" class="border"/>

      <!-- NAV3 Groupement (au-dessus de recherche) -->
      <rect x="0" y="0" width="280" height="44" rx="8" fill="#F9FAFB"/>
      <rect x="8" y="10" width="64" height="24" rx="4" fill="#0050D7"/>
      <text x="40" y="26" class="text-white" font-size="11" text-anchor="middle">Général</text>
      <rect x="76" y="10" width="56" height="24" rx="4" fill="#FFFFFF" stroke="#E5E7EB"/>
      <text x="104" y="26" class="text-muted" font-size="11" text-anchor="middle">Sites</text>
      <rect x="136" y="10" width="56" height="24" rx="4" fill="#FFFFFF" stroke="#E5E7EB"/>
      <text x="164" y="26" class="text-muted" font-size="11" text-anchor="middle">Offre</text>
      <rect x="196" y="10" width="56" height="24" rx="4" fill="#FFFFFF" stroke="#E5E7EB"/>
      <text x="224" y="26" class="text-muted" font-size="11" text-anchor="middle">Expert</text>
      <line x1="0" y1="44" x2="280" y2="44" class="divider"/>

      <!-- Recherche (y=56) -->
      <rect x="12" y="56" width="256" height="34" rx="4" fill="#F9FAFB" stroke="#E5E7EB"/>
      <text x="26" y="78" class="text-muted" font-size="12">🔍 Rechercher...</text>

      <!-- Compteur -->
      <text x="12" y="112" class="text-muted" font-size="11">1 service</text>

      <!-- Service sélectionné -->
      <rect x="0" y="124" width="280" height="52" fill="#E8F0FE"/>
      <text x="16" y="146" class="text-primary" font-size="13" font-weight="600">monsiteweb.com</text>
      <text x="16" y="164" class="text-muted" font-size="11">Performance</text>
      <rect x="220" y="138" width="46" height="18" rx="9" fill="#DEF7EC"/>
      <text x="243" y="151" fill="#03543F" font-size="10" text-anchor="middle">Actif</text>
    </g>

    <g transform="translate(320, 0)">

      <!-- RIGHT PANEL (1096px x 765px) -->
      <rect x="0" y="0" width="1096" height="765" rx="8" class="bg-white"/>
      <rect x="0" y="0" width="1096" height="765" rx="8" class="border"/>

      <g transform="translate(20, 0)">
        <!-- HEADER PAGE -->
        <text x="0" y="28" class="text-dark" font-size="18" font-weight="600">monsiteweb.com</text>
        <text x="0" y="48" class="text-muted" font-size="12">Performance - cluster027.hosting.ovh.net</text>

        <!-- NAV4 - Fonction (Général: General, Statistiques, Logs, Modules, SEO) -->
        <g transform="translate(0, 60)">
          <rect x="0" y="0" width="60" height="26" rx="4" fill="#FFFFFF" stroke="#0050D7"/>
          <text x="30" y="17" class="text-primary" font-size="12" text-anchor="middle">General</text>
          <rect x="68" y="0" width="85" height="26" rx="4" fill="#0050D7"/>
          <text x="110" y="17" class="text-white" font-size="12" text-anchor="middle">Statistiques</text>
          <rect x="161" y="0" width="50" height="26" rx="4" fill="#FFFFFF" stroke="#0050D7"/>
          <text x="186" y="17" class="text-primary" font-size="12" text-anchor="middle">Logs</text>
          <rect x="219" y="0" width="70" height="26" rx="4" fill="#FFFFFF" stroke="#0050D7"/>
          <text x="254" y="17" class="text-primary" font-size="12" text-anchor="middle">Modules</text>
          <rect x="297" y="0" width="50" height="26" rx="4" fill="#FFFFFF" stroke="#0050D7"/>
          <text x="322" y="17" class="text-primary" font-size="12" text-anchor="middle">SEO</text>
        </g>

        <!-- CONTENU PAGE - Statistiques -->
        <g transform="translate(0, 100)">
          <!-- TOOLBAR -->
          <rect x="0" y="0" width="32" height="32" rx="4" class="btn-outline"/>
          <text x="16" y="22" class="text-primary" font-size="14" text-anchor="middle">↻</text>

          <text x="50" y="22" class="text-muted" font-size="12">Période:</text>
          <rect x="100" y="2" width="120" height="28" rx="4" fill="#F9FAFB" stroke="#E5E7EB"/>
          <text x="110" y="21" class="text-dark" font-size="11">7 derniers jours</text>
          <text x="200" y="21" class="text-muted" font-size="10">▼</text>

          <rect x="900" y="0" width="156" height="32" rx="4" class="btn-outline"/>
          <text x="978" y="21" class="text-primary" font-size="12" text-anchor="middle">📥 Exporter CSV</text>

          <!-- KPI CARDS -->
          <g transform="translate(0, 50)">
            <rect x="0" y="0" width="250" height="90" rx="8" class="bg-white"/>
            <rect x="0" y="0" width="250" height="90" rx="8" class="border"/>
            <text x="20" y="30" class="text-muted" font-size="11">Visiteurs uniques</text>
            <text x="20" y="60" class="text-dark" font-size="24" font-weight="600">12,458</text>
            <text x="20" y="78" class="text-success" font-size="11">↑ +15.3% vs semaine précédente</text>

            <rect x="266" y="0" width="250" height="90" rx="8" class="bg-white"/>
            <rect x="266" y="0" width="250" height="90" rx="8" class="border"/>
            <text x="286" y="30" class="text-muted" font-size="11">Pages vues</text>
            <text x="286" y="60" class="text-dark" font-size="24" font-weight="600">45,892</text>
            <text x="286" y="78" class="text-success" font-size="11">↑ +8.7% vs semaine précédente</text>

            <rect x="532" y="0" width="250" height="90" rx="8" class="bg-white"/>
            <rect x="532" y="0" width="250" height="90" rx="8" class="border"/>
            <text x="552" y="30" class="text-muted" font-size="11">Bande passante</text>
            <text x="552" y="60" class="text-dark" font-size="24" font-weight="600">2.4 Go</text>
            <text x="552" y="78" class="text-muted" font-size="11">sur 100 Go disponibles</text>

            <rect x="798" y="0" width="258" height="90" rx="8" class="bg-white"/>
            <rect x="798" y="0" width="258" height="90" rx="8" class="border"/>
            <text x="818" y="30" class="text-muted" font-size="11">Temps de réponse moyen</text>
            <text x="818" y="60" class="text-dark" font-size="24" font-weight="600">145 ms</text>
            <text x="818" y="78" class="text-success" font-size="11">Excellent</text>
          </g>

          <!-- GRAPHIQUE TRAFIC -->
          <text x="0" y="175" class="text-dark" font-size="13" font-weight="600">Trafic sur la période</text>

          <g transform="translate(0, 195)">
            <rect x="0" y="0" width="1056" height="200" rx="8" class="bg-white"/>
            <rect x="0" y="0" width="1056" height="200" rx="8" class="border"/>

            <!-- Axes -->
            <line x1="60" y1="20" x2="60" y2="170" stroke="#E5E7EB"/>
            <line x1="60" y1="170" x2="1030" y2="170" stroke="#E5E7EB"/>

            <!-- Légendes Y -->
            <text x="50" y="30" class="text-muted" font-size="9" text-anchor="end">3k</text>
            <text x="50" y="70" class="text-muted" font-size="9" text-anchor="end">2k</text>
            <text x="50" y="110" class="text-muted" font-size="9" text-anchor="end">1k</text>
            <text x="50" y="150" class="text-muted" font-size="9" text-anchor="end">0</text>

            <!-- Légendes X -->
            <text x="140" y="185" class="text-muted" font-size="9" text-anchor="middle">Lun</text>
            <text x="280" y="185" class="text-muted" font-size="9" text-anchor="middle">Mar</text>
            <text x="420" y="185" class="text-muted" font-size="9" text-anchor="middle">Mer</text>
            <text x="560" y="185" class="text-muted" font-size="9" text-anchor="middle">Jeu</text>
            <text x="700" y="185" class="text-muted" font-size="9" text-anchor="middle">Ven</text>
            <text x="840" y="185" class="text-muted" font-size="9" text-anchor="middle">Sam</text>
            <text x="980" y="185" class="text-muted" font-size="9" text-anchor="middle">Dim</text>

            <!-- Courbe (approximation) -->
            <path d="M140,100 L280,80 L420,60 L560,90 L700,70 L840,110 L980,85"
                  fill="none" stroke="#0050D7" stroke-width="2"/>
            <circle cx="140" cy="100" r="4" fill="#0050D7"/>
            <circle cx="280" cy="80" r="4" fill="#0050D7"/>
            <circle cx="420" cy="60" r="4" fill="#0050D7"/>
            <circle cx="560" cy="90" r="4" fill="#0050D7"/>
            <circle cx="700" cy="70" r="4" fill="#0050D7"/>
            <circle cx="840" cy="110" r="4" fill="#0050D7"/>
            <circle cx="980" cy="85" r="4" fill="#0050D7"/>
          </g>

          <!-- TOP PAGES -->
          <text x="0" y="425" class="text-dark" font-size="13" font-weight="600">Pages les plus visitées</text>

          <g transform="translate(0, 445)">
            <rect x="0" y="0" width="520" height="170" rx="8" class="bg-white"/>
            <rect x="0" y="0" width="520" height="170" rx="8" class="border"/>

            <text x="20" y="30" class="text-muted" font-size="10" font-weight="600">Page</text>
            <text x="400" y="30" class="text-muted" font-size="10" font-weight="600">Vues</text>
            <line x1="20" y1="40" x2="500" y2="40" class="divider"/>

            <text x="20" y="60" class="text-dark" font-size="11">/</text>
            <text x="400" y="60" class="text-dark" font-size="11">8,542</text>
            <text x="20" y="85" class="text-dark" font-size="11">/produits</text>
            <text x="400" y="85" class="text-dark" font-size="11">5,234</text>
            <text x="20" y="110" class="text-dark" font-size="11">/contact</text>
            <text x="400" y="110" class="text-dark" font-size="11">3,876</text>
            <text x="20" y="135" class="text-dark" font-size="11">/blog</text>
            <text x="400" y="135" class="text-dark" font-size="11">2,156</text>
            <text x="20" y="160" class="text-dark" font-size="11">/a-propos</text>
            <text x="400" y="160" class="text-dark" font-size="11">1,845</text>
          </g>

          <!-- PROVENANCE -->
          <g transform="translate(536, 445)">
            <rect x="0" y="0" width="520" height="170" rx="8" class="bg-white"/>
            <rect x="0" y="0" width="520" height="170" rx="8" class="border"/>

            <text x="20" y="30" class="text-muted" font-size="10" font-weight="600">Provenance</text>
            <text x="400" y="30" class="text-muted" font-size="10" font-weight="600">%</text>
            <line x1="20" y1="40" x2="500" y2="40" class="divider"/>

            <text x="20" y="60" class="text-dark" font-size="11">🔍 Google</text>
            <text x="400" y="60" class="text-dark" font-size="11">45%</text>
            <text x="20" y="85" class="text-dark" font-size="11">🔗 Direct</text>
            <text x="400" y="85" class="text-dark" font-size="11">28%</text>
            <text x="20" y="110" class="text-dark" font-size="11">📱 Facebook</text>
            <text x="400" y="110" class="text-dark" font-size="11">12%</text>
            <text x="20" y="135" class="text-dark" font-size="11">🐦 Twitter</text>
            <text x="400" y="135" class="text-dark" font-size="11">8%</text>
            <text x="20" y="160" class="text-dark" font-size="11">📧 Email</text>
            <text x="400" y="160" class="text-dark" font-size="11">7%</text>
          </g>
        </g>
      </g>
    </g>
  </g>
</svg>
