<svg xmlns="http://www.w3.org/2000/svg" viewBox="0 0 1440 900" width="1440" height="900">
  <defs>
    <style>
      .bg-header { fill: #000E9C; }
      .bg-main { fill: #F6F6F9; }
      .bg-white { fill: #FFFFFF; }
      .bg-primary { fill: #0050D7; }
      .bg-info { fill: #DBEAFE; }
      .bg-warning { fill: #FEF3C7; }
      .border { stroke: #E5E7EB; stroke-width: 1; fill: none; }
      .divider { stroke: #E5E7EB; stroke-width: 1; }
      .row-selected { fill: #E8F0FE; }
      .text-white { fill: #FFFFFF; font-family: 'Source Sans Pro', sans-serif; }
      .text-dark { fill: #1F2937; font-family: 'Source Sans Pro', sans-serif; }
      .text-muted { fill: #6B7280; font-family: 'Source Sans Pro', sans-serif; }
      .text-primary { fill: #0050D7; font-family: 'Source Sans Pro', sans-serif; }
      .text-success { fill: #059669; font-family: 'Source Sans Pro', sans-serif; }
      .text-warning { fill: #D97706; font-family: 'Source Sans Pro', sans-serif; }
    </style>
  </defs>

  <!-- Background -->
  <rect width="1440" height="900" class="bg-main"/>

  <!-- NAV1 -->
  <rect width="1440" height="50" class="bg-header"/>
  <text x="40" y="32" class="text-white" font-size="14" opacity="0.7">Accueil</text>
  <text x="110" y="32" class="text-white" font-size="14" opacity="0.7">Public Cloud</text>
  <text x="210" y="32" class="text-white" font-size="14" opacity="0.7">Hosted Private Cloud</text>
  <text x="370" y="32" class="text-white" font-size="14" opacity="0.7">Bare Metal Cloud</text>
  <text x="510" y="32" class="text-white" font-size="14" font-weight="600">Web Cloud</text>
  <rect x="505" y="46" width="75" height="3" fill="#FFFFFF"/>
  <text x="620" y="32" class="text-white" font-size="14" opacity="0.7">Network</text>
  <text x="700" y="32" class="text-white" font-size="14" opacity="0.7">IAM / Securite</text>
  <text x="810" y="32" class="text-white" font-size="14" opacity="0.7">Licences</text>
  <rect x="1280" y="12" width="140" height="26" rx="13" fill="rgba(255,255,255,0.2)"/>
  <rect x="1285" y="15" width="26" height="20" rx="10" fill="#DEF7EC"/>
  <text x="1292" y="29" fill="#03543F" font-size="10" font-weight="600">OK</text>
  <text x="1320" y="29" class="text-white" font-size="12">ab12345-ovh</text>

  <!-- NAV2 -->
  <rect x="0" y="50" width="1440" height="40" class="bg-white"/>
  <line x1="0" y1="89" x2="1440" y2="89" stroke="#E5E7EB"/>
  <text x="40" y="75" class="text-muted" font-size="14">Accueil</text>
  <text x="110" y="75" class="text-muted" font-size="14">Domaines et DNS</text>
  <text x="240" y="75" class="text-primary" font-size="14" font-weight="600">Hebergement</text>
  <rect x="235" y="85" width="85" height="3" fill="#0050D7"/>
  <text x="345" y="75" class="text-muted" font-size="14">Wordpress</text>
  <text x="430" y="75" class="text-muted" font-size="14">Emails</text>
  <text x="500" y="75" class="text-muted" font-size="14">VoIP</text>
  <text x="550" y="75" class="text-muted" font-size="14">Acces</text>
  <text x="1350" y="75" class="text-primary" font-size="13">Guides</text>

  <!-- CONTENT AREA -->
  <g transform="translate(0, 105)">
    <!-- LEFT PANEL -->
    <g transform="translate(24, 0)">
      <rect x="0" y="0" width="280" height="765" rx="8" class="bg-white"/>
      <rect x="0" y="0" width="280" height="765" rx="8" class="border"/>

      <!-- NAV3 -->
      <rect x="0" y="0" width="280" height="44" rx="8" fill="#F9FAFB"/>
      <rect x="8" y="10" width="62" height="24" rx="4" fill="#FFFFFF" stroke="#E5E7EB"/>
      <text x="39" y="26" class="text-muted" font-size="11" text-anchor="middle">General</text>
      <rect x="74" y="10" width="62" height="24" rx="4" fill="#FFFFFF" stroke="#E5E7EB"/>
      <text x="105" y="26" class="text-muted" font-size="11" text-anchor="middle">Sites</text>
      <rect x="140" y="10" width="62" height="24" rx="4" fill="#FFFFFF" stroke="#E5E7EB"/>
      <text x="171" y="26" class="text-muted" font-size="11" text-anchor="middle">Offre</text>
      <rect x="206" y="10" width="62" height="24" rx="4" fill="#0050D7"/>
      <text x="237" y="26" class="text-white" font-size="11" text-anchor="middle">Expert</text>
      <line x1="0" y1="44" x2="280" y2="44" class="divider"/>

      <rect x="12" y="56" width="256" height="34" rx="4" fill="#F9FAFB" stroke="#E5E7EB"/>
      <text x="26" y="78" class="text-muted" font-size="12">Rechercher...</text>

      <text x="12" y="112" class="text-muted" font-size="11">3 services</text>

      <rect x="6" y="124" width="268" height="56" rx="6" class="row-selected"/>
      <circle cx="28" cy="152" r="14" fill="#0050D7"/>
      <text x="28" y="156" class="text-white" font-size="12" text-anchor="middle">M</text>
      <text x="52" y="144" class="text-dark" font-size="13" font-weight="500">monsite.example.com</text>
      <text x="52" y="160" class="text-muted" font-size="11">Performance 1</text>
      <rect x="210" y="140" width="46" height="18" rx="9" fill="#DEF7EC"/>
      <text x="233" y="153" fill="#03543F" font-size="10" text-anchor="middle">Actif</text>
    </g>

    <!-- RIGHT PANEL -->
    <g transform="translate(320, 0)">
      <rect x="0" y="0" width="1096" height="765" rx="8" class="bg-white"/>
      <rect x="0" y="0" width="1096" height="765" rx="8" class="border"/>

      <g transform="translate(20, 0)">
        <text x="0" y="24" class="text-dark" font-size="18" font-weight="600">monsite.example.com</text>

        <!-- NAV4 - Expert tabs -->
        <g transform="translate(0, 38)">
          <rect x="0" y="0" width="60" height="26" rx="4" fill="#FFFFFF" stroke="#0050D7"/>
          <text x="30" y="17" class="text-primary" font-size="11" text-anchor="middle">General</text>
          <rect x="64" y="0" width="55" height="26" rx="4" fill="#FFFFFF" stroke="#0050D7"/>
          <text x="91" y="17" class="text-primary" font-size="11" text-anchor="middle">Boost</text>
          <rect x="123" y="0" width="45" height="26" rx="4" fill="#FFFFFF" stroke="#0050D7"/>
          <text x="145" y="17" class="text-primary" font-size="11" text-anchor="middle">Indy</text>
          <rect x="172" y="0" width="55" height="26" rx="4" fill="#0050D7"/>
          <text x="199" y="17" class="text-white" font-size="11" text-anchor="middle">Emails</text>
          <rect x="231" y="0" width="65" height="26" rx="4" fill="#FFFFFF" stroke="#0050D7"/>
          <text x="263" y="17" class="text-primary" font-size="11" text-anchor="middle">Variables</text>
          <rect x="300" y="0" width="75" height="26" rx="4" fill="#FFFFFF" stroke="#0050D7"/>
          <text x="337" y="17" class="text-primary" font-size="11" text-anchor="middle">OvhConfig</text>
          <rect x="379" y="0" width="70" height="26" rx="4" fill="#FFFFFF" stroke="#0050D7"/>
          <text x="414" y="17" class="text-primary" font-size="11" text-anchor="middle">Runtimes</text>
          <rect x="453" y="0" width="50" height="26" rx="4" fill="#FFFFFF" stroke="#0050D7"/>
          <text x="478" y="17" class="text-primary" font-size="11" text-anchor="middle">Cron</text>
          <text x="520" y="17" class="text-muted" font-size="11">+2</text>
        </g>

        <!-- Contenu Emails -->
        <g transform="translate(0, 80)">
          <!-- Bloc Configuration SMTP -->
          <g transform="translate(0, 0)">
            <rect x="0" y="0" width="1040" height="180" rx="8" fill="#FFFFFF" stroke="#E5E7EB"/>
            <text x="20" y="30" class="text-dark" font-size="13" font-weight="600">Configuration SMTP (envoi d'emails)</text>

            <g transform="translate(20, 55)">
              <text x="0" y="16" class="text-muted" font-size="11">Statut envoi</text>
              <rect x="150" y="0" width="46" height="18" rx="9" fill="#DEF7EC"/>
              <text x="173" y="13" fill="#03543F" font-size="10" text-anchor="middle">Actif</text>

              <text x="0" y="46" class="text-muted" font-size="11">Serveur SMTP</text>
              <rect x="150" y="30" width="280" height="26" rx="4" fill="#F3F4F6"/>
              <text x="160" y="47" class="text-dark" font-size="10">ssl0.ovh.net</text>
              <text x="410" y="47" class="text-primary" font-size="11">📋</text>

              <text x="0" y="76" class="text-muted" font-size="11">Port SMTP</text>
              <rect x="150" y="60" width="80" height="26" rx="4" fill="#F3F4F6"/>
              <text x="160" y="77" class="text-dark" font-size="11">465 (SSL)</text>

              <text x="0" y="106" class="text-muted" font-size="11">Quota journalier</text>
              <text x="150" y="106" class="text-dark" font-size="11">200 / 200 emails</text>

              <text x="500" y="16" class="text-muted" font-size="11">Emails envoyes aujourd'hui</text>
              <text x="680" y="16" class="text-dark" font-size="11">45</text>

              <text x="500" y="46" class="text-muted" font-size="11">Emails bloques</text>
              <text x="680" y="46" class="text-dark" font-size="11">2</text>

              <text x="500" y="76" class="text-muted" font-size="11">Reputation</text>
              <text x="680" y="76" class="text-success" font-size="11">● Bonne</text>
            </g>
          </g>

          <!-- Banniere warning si blocage -->
          <g transform="translate(0, 200)">
            <rect x="0" y="0" width="1040" height="50" rx="6" class="bg-warning"/>
            <text x="20" y="20" class="text-warning" font-size="11" font-weight="600">2 emails bloques detectes</text>
            <text x="20" y="38" class="text-warning" font-size="10">Certains emails n'ont pas pu etre envoyes. Verifiez la configuration de vos scripts et la validite des adresses destinataires.</text>
            <text x="900" y="28" class="text-warning" font-size="11" font-weight="500">Voir details →</text>
          </g>

          <!-- Bloc Actions -->
          <g transform="translate(0, 270)">
            <rect x="0" y="0" width="1040" height="100" rx="8" fill="#FFFFFF" stroke="#E5E7EB"/>
            <text x="20" y="30" class="text-dark" font-size="13" font-weight="600">Actions</text>

            <g transform="translate(20, 55)">
              <rect x="0" y="0" width="140" height="32" rx="4" fill="#FFFFFF" stroke="#DC2626"/>
              <text x="70" y="21" fill="#DC2626" font-size="11" text-anchor="middle">Bloquer envoi</text>

              <rect x="160" y="0" width="140" height="32" rx="4" fill="#FFFFFF" stroke="#0050D7"/>
              <text x="230" y="21" class="text-primary" font-size="11" text-anchor="middle">Purger file</text>

              <rect x="320" y="0" width="180" height="32" rx="4" fill="#FFFFFF" stroke="#0050D7"/>
              <text x="410" y="21" class="text-primary" font-size="11" text-anchor="middle">Reinitialiser quota</text>
            </g>
          </g>

          <!-- Bloc Historique -->
          <g transform="translate(0, 390)">
            <rect x="0" y="0" width="1040" height="220" rx="8" fill="#FFFFFF" stroke="#E5E7EB"/>
            <text x="20" y="30" class="text-dark" font-size="13" font-weight="600">Historique des envois (7 derniers jours)</text>

            <!-- Toolbar -->
            <g transform="translate(20, 50)">
              <rect x="0" y="0" width="28" height="28" rx="4" fill="#FFFFFF" stroke="#0050D7"/>
              <text x="14" y="19" class="text-primary" font-size="12" text-anchor="middle">↻</text>

              <rect x="36" y="0" width="180" height="28" rx="4" fill="#F9FAFB" stroke="#E5E7EB"/>
              <text x="48" y="18" class="text-muted" font-size="11">Rechercher...</text>
            </g>

            <!-- Table header -->
            <g transform="translate(0, 95)">
              <rect x="0" y="0" width="1040" height="30" fill="#F9FAFB"/>
              <text x="20" y="20" class="text-muted" font-size="11" font-weight="600">Date</text>
              <text x="180" y="20" class="text-muted" font-size="11" font-weight="600">Destinataire</text>
              <text x="450" y="20" class="text-muted" font-size="11" font-weight="600">Sujet</text>
              <text x="750" y="20" class="text-muted" font-size="11" font-weight="600">Statut</text>
              <text x="900" y="20" class="text-muted" font-size="11" font-weight="600">Actions</text>
            </g>

            <!-- Rows -->
            <g transform="translate(0, 125)">
              <line x1="0" y1="0" x2="1040" y2="0" stroke="#E5E7EB"/>
              <text x="20" y="28" class="text-muted" font-size="10">02/01 14:32</text>
              <text x="180" y="28" class="text-dark" font-size="10">client@example.com</text>
              <text x="450" y="28" class="text-dark" font-size="10">Confirmation commande #1234</text>
              <rect x="750" y="12" width="46" height="18" rx="9" fill="#DEF7EC"/>
              <text x="773" y="25" fill="#03543F" font-size="9" text-anchor="middle">Envoye</text>
              <text x="900" y="28" class="text-primary" font-size="10">Details</text>
            </g>

            <g transform="translate(0, 165)">
              <line x1="0" y1="0" x2="1040" y2="0" stroke="#E5E7EB"/>
              <text x="20" y="28" class="text-muted" font-size="10">02/01 10:15</text>
              <text x="180" y="28" class="text-dark" font-size="10">invalid@nodomain</text>
              <text x="450" y="28" class="text-dark" font-size="10">Newsletter Janvier</text>
              <rect x="750" y="12" width="46" height="18" rx="9" fill="#FEE2E2"/>
              <text x="773" y="25" fill="#DC2626" font-size="9" text-anchor="middle">Bloque</text>
              <text x="900" y="28" class="text-primary" font-size="10">Details</text>
            </g>
          </g>
        </g>
      </g>
    </g>
  </g>
</svg>
