<svg xmlns="http://www.w3.org/2000/svg" viewBox="0 0 1440 900" width="1440" height="900">
  <defs>
    <style>
      .bg-header { fill: #000E9C; }
      .bg-main { fill: #F6F6F9; }
      .bg-white { fill: #FFFFFF; }
      .bg-primary { fill: #0050D7; }
      .bg-info { fill: #DBEAFE; }
      .border { stroke: #E5E7EB; stroke-width: 1; fill: none; }
      .divider { stroke: #E5E7EB; stroke-width: 1; }
      .row-selected { fill: #E8F0FE; }
      .text-white { fill: #FFFFFF; font-family: 'Source Sans Pro', sans-serif; }
      .text-dark { fill: #1F2937; font-family: 'Source Sans Pro', sans-serif; }
      .text-muted { fill: #6B7280; font-family: 'Source Sans Pro', sans-serif; }
      .text-primary { fill: #0050D7; font-family: 'Source Sans Pro', sans-serif; }
      .text-success { fill: #059669; font-family: 'Source Sans Pro', sans-serif; }
    </style>
  </defs>

  <!-- Background -->
  <rect width="1440" height="900" class="bg-main"/>

  <!-- NAV1 -->
  <rect width="1440" height="50" class="bg-header"/>
  <text x="40" y="32" class="text-white" font-size="14" opacity="0.7">Accueil</text>
  <text x="110" y="32" class="text-white" font-size="14" opacity="0.7">Public Cloud</text>
  <text x="210" y="32" class="text-white" font-size="14" opacity="0.7">Hosted Private Cloud</text>
  <text x="370" y="32" class="text-white" font-size="14" opacity="0.7">Bare Metal Cloud</text>
  <text x="510" y="32" class="text-white" font-size="14" font-weight="600">Web Cloud</text>
  <rect x="505" y="46" width="75" height="3" fill="#FFFFFF"/>
  <text x="620" y="32" class="text-white" font-size="14" opacity="0.7">Network</text>
  <text x="700" y="32" class="text-white" font-size="14" opacity="0.7">IAM / Securite</text>
  <text x="810" y="32" class="text-white" font-size="14" opacity="0.7">Licences</text>
  <rect x="1280" y="12" width="140" height="26" rx="13" fill="rgba(255,255,255,0.2)"/>
  <rect x="1285" y="15" width="26" height="20" rx="10" fill="#DEF7EC"/>
  <text x="1292" y="29" fill="#03543F" font-size="10" font-weight="600">OK</text>
  <text x="1320" y="29" class="text-white" font-size="12">ab12345-ovh</text>

  <!-- NAV2 -->
  <rect x="0" y="50" width="1440" height="40" class="bg-white"/>
  <line x1="0" y1="89" x2="1440" y2="89" stroke="#E5E7EB"/>
  <text x="40" y="75" class="text-muted" font-size="14">Accueil</text>
  <text x="110" y="75" class="text-muted" font-size="14">Domaines et DNS</text>
  <text x="240" y="75" class="text-primary" font-size="14" font-weight="600">Hebergement</text>
  <rect x="235" y="85" width="85" height="3" fill="#0050D7"/>
  <text x="345" y="75" class="text-muted" font-size="14">Wordpress</text>
  <text x="430" y="75" class="text-muted" font-size="14">Emails</text>
  <text x="500" y="75" class="text-muted" font-size="14">VoIP</text>
  <text x="550" y="75" class="text-muted" font-size="14">Acces</text>
  <text x="1350" y="75" class="text-primary" font-size="13">Guides</text>

  <!-- CONTENT AREA -->
  <g transform="translate(0, 105)">
    <!-- LEFT PANEL -->
    <g transform="translate(24, 0)">
      <rect x="0" y="0" width="280" height="765" rx="8" class="bg-white"/>
      <rect x="0" y="0" width="280" height="765" rx="8" class="border"/>

      <!-- NAV3 -->
      <rect x="0" y="0" width="280" height="44" rx="8" fill="#F9FAFB"/>
      <rect x="8" y="10" width="62" height="24" rx="4" fill="#FFFFFF" stroke="#E5E7EB"/>
      <text x="39" y="26" class="text-muted" font-size="11" text-anchor="middle">Général</text>
      <rect x="74" y="10" width="62" height="24" rx="4" fill="#0050D7"/>
      <text x="105" y="26" class="text-white" font-size="11" text-anchor="middle">Sites</text>
      <rect x="140" y="10" width="62" height="24" rx="4" fill="#FFFFFF" stroke="#E5E7EB"/>
      <text x="171" y="26" class="text-muted" font-size="11" text-anchor="middle">Offre</text>
      <rect x="206" y="10" width="62" height="24" rx="4" fill="#FFFFFF" stroke="#E5E7EB"/>
      <text x="237" y="26" class="text-muted" font-size="11" text-anchor="middle">Expert</text>
      <line x1="0" y1="44" x2="280" y2="44" class="divider"/>

      <rect x="12" y="56" width="256" height="34" rx="4" fill="#F9FAFB" stroke="#E5E7EB"/>
      <text x="26" y="78" class="text-muted" font-size="12">Rechercher...</text>

      <text x="12" y="112" class="text-muted" font-size="11">3 services</text>

      <rect x="6" y="124" width="268" height="56" rx="6" class="row-selected"/>
      <circle cx="28" cy="152" r="14" fill="#0050D7"/>
      <text x="28" y="156" class="text-white" font-size="12" text-anchor="middle">M</text>
      <text x="52" y="144" class="text-dark" font-size="13" font-weight="500">monsite.example.com</text>
      <text x="52" y="160" class="text-muted" font-size="11">Performance 1</text>
      <rect x="210" y="140" width="46" height="18" rx="9" fill="#DEF7EC"/>
      <text x="233" y="153" fill="#03543F" font-size="10" text-anchor="middle">Actif</text>
    </g>

    <!-- RIGHT PANEL -->
    <g transform="translate(320, 0)">
      <rect x="0" y="0" width="1096" height="765" rx="8" class="bg-white"/>
      <rect x="0" y="0" width="1096" height="765" rx="8" class="border"/>

      <g transform="translate(20, 0)">
        <text x="0" y="24" class="text-dark" font-size="18" font-weight="600">monsite.example.com</text>

        <!-- NAV4 -->
        <g transform="translate(0, 38)">
          <rect x="0" y="0" width="65" height="26" rx="4" fill="#FFFFFF" stroke="#0050D7"/>
          <text x="32" y="17" class="text-primary" font-size="11" text-anchor="middle">Multisite</text>
          <rect x="69" y="0" width="45" height="26" rx="4" fill="#FFFFFF" stroke="#0050D7"/>
          <text x="91" y="17" class="text-primary" font-size="11" text-anchor="middle">SSL</text>
          <rect x="118" y="0" width="60" height="26" rx="4" fill="#FFFFFF" stroke="#0050D7"/>
          <text x="148" y="17" class="text-primary" font-size="11" text-anchor="middle">FTP-SSH</text>
          <rect x="182" y="0" width="45" height="26" rx="4" fill="#0050D7"/>
          <text x="204" y="17" class="text-white" font-size="11" text-anchor="middle">BDD</text>
          <rect x="231" y="0" width="45" height="26" rx="4" fill="#FFFFFF" stroke="#0050D7"/>
          <text x="253" y="17" class="text-primary" font-size="11" text-anchor="middle">CDN</text>
        </g>

        <!-- Contenu BDD -->
        <g transform="translate(0, 80)">
          <!-- Banniere info -->
          <rect x="0" y="0" width="1040" height="45" rx="6" fill="#DBEAFE"/>
          <text x="20" y="18" class="text-primary" font-size="12" font-weight="600">Bases de donnees</text>
          <text x="20" y="35" class="text-primary" font-size="11">Gerez vos bases de donnees MySQL incluses dans votre hebergement.</text>

          <!-- Toolbar -->
          <g transform="translate(0, 60)">
            <rect x="0" y="0" width="28" height="28" rx="4" fill="#FFFFFF" stroke="#0050D7"/>
            <text x="14" y="19" class="text-primary" font-size="12" text-anchor="middle">↻</text>

            <rect x="36" y="0" width="180" height="28" rx="4" fill="#F9FAFB" stroke="#E5E7EB"/>
            <text x="48" y="18" class="text-muted" font-size="11">Rechercher une base...</text>

            <rect x="860" y="0" width="180" height="28" rx="4" fill="#0050D7"/>
            <text x="950" y="18" class="text-white" font-size="11" text-anchor="middle">+ Creer une base</text>
          </g>

          <!-- Table databases -->
          <g transform="translate(0, 105)">
            <rect x="0" y="0" width="1040" height="35" fill="#F9FAFB"/>
            <text x="20" y="23" class="text-muted" font-size="11" font-weight="600">Nom</text>
            <text x="200" y="23" class="text-muted" font-size="11" font-weight="600">Serveur</text>
            <text x="420" y="23" class="text-muted" font-size="11" font-weight="600">Version</text>
            <text x="520" y="23" class="text-muted" font-size="11" font-weight="600">Quota</text>
            <text x="650" y="23" class="text-muted" font-size="11" font-weight="600">Utilisation</text>
            <text x="780" y="23" class="text-muted" font-size="11" font-weight="600">Statut</text>
            <text x="880" y="23" class="text-muted" font-size="11" font-weight="600">Actions</text>
          </g>

          <!-- Rows -->
          <g transform="translate(0, 140)">
            <rect x="0" y="0" width="1040" height="45" class="row-selected"/>
            <text x="20" y="28" class="text-dark" font-size="11">monsite_db1</text>
            <text x="200" y="28" class="text-muted" font-size="10">mysql51-123.hosting.ovh.net</text>
            <text x="420" y="28" class="text-dark" font-size="11">MySQL 8.0</text>
            <text x="520" y="28" class="text-dark" font-size="11">400 Mo</text>
            <!-- Progress bar -->
            <rect x="650" y="16" width="100" height="8" rx="4" fill="#E5E7EB"/>
            <rect x="650" y="16" width="45" height="8" rx="4" fill="#059669"/>
            <text x="760" y="24" class="text-muted" font-size="10">45%</text>
            <rect x="780" y="12" width="46" height="18" rx="9" fill="#DEF7EC"/>
            <text x="803" y="25" fill="#03543F" font-size="10" text-anchor="middle">Actif</text>
            <text x="880" y="28" class="text-primary" font-size="11">phpMyAdmin</text>
            <text x="965" y="28" class="text-primary" font-size="11">🔑</text>
            <text x="995" y="28" fill="#DC2626" font-size="11">×</text>
          </g>

          <g transform="translate(0, 185)">
            <line x1="0" y1="0" x2="1040" y2="0" stroke="#E5E7EB"/>
            <text x="20" y="28" class="text-dark" font-size="11">monsite_db2</text>
            <text x="200" y="28" class="text-muted" font-size="10">mysql51-123.hosting.ovh.net</text>
            <text x="420" y="28" class="text-dark" font-size="11">MySQL 8.0</text>
            <text x="520" y="28" class="text-dark" font-size="11">400 Mo</text>
            <rect x="650" y="16" width="100" height="8" rx="4" fill="#E5E7EB"/>
            <rect x="650" y="16" width="78" height="8" rx="4" fill="#D97706"/>
            <text x="760" y="24" class="text-muted" font-size="10">78%</text>
            <rect x="780" y="12" width="46" height="18" rx="9" fill="#DEF7EC"/>
            <text x="803" y="25" fill="#03543F" font-size="10" text-anchor="middle">Actif</text>
            <text x="880" y="28" class="text-primary" font-size="11">phpMyAdmin</text>
            <text x="965" y="28" class="text-primary" font-size="11">🔑</text>
            <text x="995" y="28" fill="#DC2626" font-size="11">×</text>
          </g>

          <g transform="translate(0, 230)">
            <line x1="0" y1="0" x2="1040" y2="0" stroke="#E5E7EB"/>
            <text x="20" y="28" class="text-dark" font-size="11">wordpress_db</text>
            <text x="200" y="28" class="text-muted" font-size="10">mysql51-123.hosting.ovh.net</text>
            <text x="420" y="28" class="text-dark" font-size="11">MySQL 8.0</text>
            <text x="520" y="28" class="text-dark" font-size="11">400 Mo</text>
            <rect x="650" y="16" width="100" height="8" rx="4" fill="#E5E7EB"/>
            <rect x="650" y="16" width="23" height="8" rx="4" fill="#059669"/>
            <text x="760" y="24" class="text-muted" font-size="10">23%</text>
            <rect x="780" y="12" width="46" height="18" rx="9" fill="#DEF7EC"/>
            <text x="803" y="25" fill="#03543F" font-size="10" text-anchor="middle">Actif</text>
            <text x="880" y="28" class="text-primary" font-size="11">phpMyAdmin</text>
            <text x="965" y="28" class="text-primary" font-size="11">🔑</text>
            <text x="995" y="28" fill="#DC2626" font-size="11">×</text>
          </g>

          <!-- Pagination -->
          <g transform="translate(0, 295)">
            <text x="0" y="16" class="text-muted" font-size="11">Affichage 1-3 sur 3</text>
            <text x="250" y="16" class="text-muted" font-size="11">Par page:</text>
            <rect x="300" y="0" width="50" height="26" rx="4" stroke="#E5E7EB" fill="#FFFFFF"/>
            <text x="318" y="17" class="text-dark" font-size="11">10</text>
            <text x="340" y="17" class="text-muted" font-size="10">▼</text>
          </g>

          <!-- Bloc Quota -->
          <g transform="translate(0, 350)">
            <rect x="0" y="0" width="1040" height="120" rx="8" fill="#FFFFFF" stroke="#E5E7EB"/>
            <text x="20" y="30" class="text-dark" font-size="13" font-weight="600">Quota bases de donnees</text>

            <g transform="translate(20, 55)">
              <text x="0" y="16" class="text-muted" font-size="11">Bases utilisees</text>
              <text x="150" y="16" class="text-dark" font-size="11">3 / 5</text>

              <text x="0" y="46" class="text-muted" font-size="11">Espace total utilise</text>
              <text x="150" y="46" class="text-dark" font-size="11">584 Mo / 2000 Mo</text>

              <rect x="300" y="30" width="200" height="10" rx="5" fill="#E5E7EB"/>
              <rect x="300" y="30" width="58" height="10" rx="5" fill="#059669"/>
              <text x="510" y="40" class="text-muted" font-size="10">29%</text>
            </g>

            <g transform="translate(700, 50)">
              <rect x="0" y="0" width="180" height="32" rx="4" fill="#FFFFFF" stroke="#0050D7"/>
              <text x="90" y="21" class="text-primary" font-size="11" text-anchor="middle">Commander Cloud DB</text>
            </g>
          </g>

          <!-- Bloc Infos connexion -->
          <g transform="translate(0, 490)">
            <rect x="0" y="0" width="1040" height="100" rx="8" fill="#FFFFFF" stroke="#E5E7EB"/>
            <text x="20" y="30" class="text-dark" font-size="13" font-weight="600">Informations de connexion</text>

            <g transform="translate(20, 50)">
              <text x="0" y="16" class="text-muted" font-size="11">Serveur</text>
              <rect x="100" y="0" width="280" height="26" rx="4" fill="#F3F4F6"/>
              <text x="110" y="17" class="text-dark" font-size="10">mysql51-123.hosting.ovh.net</text>
              <text x="360" y="17" class="text-primary" font-size="11">📋</text>

              <text x="450" y="16" class="text-muted" font-size="11">Port</text>
              <rect x="500" y="0" width="60" height="26" rx="4" fill="#F3F4F6"/>
              <text x="510" y="17" class="text-dark" font-size="11">3306</text>
              <text x="545" y="17" class="text-primary" font-size="11">📋</text>
            </g>
          </g>
        </g>
      </g>
    </g>
  </g>
</svg>
