<svg xmlns="http://www.w3.org/2000/svg" viewBox="0 0 1440 900" width="1440" height="900">
  <defs>
    <style>
      .bg-header { fill: #000E9C; }
      .bg-main { fill: #F6F6F9; }
      .bg-white { fill: #FFFFFF; }
      .bg-primary { fill: #0050D7; }
      .bg-neutral-100 { fill: #F3F4F6; }
      .bg-info { fill: #DBEAFE; }
      .bg-success { fill: #DEF7EC; }
      .bg-error { fill: #FEE2E2; }
      .bg-warning { fill: #FEF3C7; }
      .border { stroke: #E5E7EB; stroke-width: 1; fill: none; }
      .divider { stroke: #E5E7EB; stroke-width: 1; }
      .btn-outline { stroke: #0050D7; stroke-width: 1; fill: #FFFFFF; }
      .btn-primary { fill: #0050D7; }
      .table-header { fill: #F9FAFB; }
      .text-white { fill: #FFFFFF; font-family: 'Source Sans Pro', sans-serif; }
      .text-dark { fill: #1F2937; font-family: 'Source Sans Pro', sans-serif; }
      .text-muted { fill: #6B7280; font-family: 'Source Sans Pro', sans-serif; }
      .text-primary { fill: #0050D7; font-family: 'Source Sans Pro', sans-serif; }
      .text-success { fill: #059669; font-family: 'Source Sans Pro', sans-serif; }
      .text-error { fill: #DC2626; font-family: 'Source Sans Pro', sans-serif; }
      .text-warning { fill: #D97706; font-family: 'Source Sans Pro', sans-serif; }
    </style>
  </defs>

  <rect width="1440" height="900" class="bg-main"/>

  <!-- NAV1 : Header OVH -->
  <rect width="1440" height="50" class="bg-header"/>
  <text x="40" y="30" class="text-white" font-size="14">Accueil</text>
  <text x="110" y="30" class="text-white" font-size="14">Public Cloud</text>
  <text x="210" y="30" class="text-white" font-size="14">Hosted Private Cloud</text>
  <text x="370" y="30" class="text-white" font-size="14">Bare Metal Cloud</text>
  <text x="510" y="30" class="text-white" font-size="14" font-weight="600">Web Cloud</text>
  <rect x="510" y="46" width="70" height="3" fill="#FFFFFF"/>
  <text x="620" y="30" class="text-white" font-size="14">Network</text>
  <text x="700" y="30" class="text-white" font-size="14">IAM / Sécurité</text>
  <text x="810" y="30" class="text-white" font-size="14">Licences</text>

  <!-- NAV2 : Sous-navigation Web Cloud -->
  <rect y="50" width="1440" height="40" class="bg-white"/>
  <line x1="0" y1="90" x2="1440" y2="90" class="divider"/>
  <text x="40" y="75" class="text-muted" font-size="14">Noms de domaine</text>
  <text x="170" y="75" class="text-muted" font-size="14">E-mails</text>
  <text x="240" y="75" class="text-primary" font-size="14" font-weight="600">Hébergement</text>
  <rect x="240" y="86" width="80" height="3" class="bg-primary"/>
  <text x="350" y="75" class="text-muted" font-size="14">Bases de données</text>
  <text x="480" y="75" class="text-muted" font-size="14">WordPress</text>

  <!-- MAIN CONTENT -->
  <g transform="translate(0, 105)">
    <g transform="translate(24, 0)">

      <!-- LEFT PANEL -->
      <rect x="0" y="0" width="280" height="780" rx="8" class="bg-white"/>
      <rect x="0" y="0" width="280" height="780" rx="8" class="border"/>

      <!-- Search -->
      <rect x="16" y="16" width="248" height="36" rx="4" fill="#F9FAFB" stroke="#E5E7EB"/>
      <text x="32" y="39" class="text-muted" font-size="12">Rechercher...</text>

      <!-- Service List -->
      <rect x="0" y="68" width="280" height="40" fill="#E8F0FE"/>
      <text x="16" y="93" class="text-primary" font-size="13" font-weight="600">monsiteweb.com</text>

      <text x="16" y="133" class="text-dark" font-size="13">autresite.fr</text>
      <line x1="16" y1="148" x2="264" y2="148" class="divider"/>
      <text x="16" y="173" class="text-dark" font-size="13">monblog.net</text>
      <line x1="16" y1="188" x2="264" y2="188" class="divider"/>

      <!-- RIGHT PANEL -->
      <rect x="296" y="0" width="1096" height="780" rx="8" class="bg-white"/>
      <rect x="296" y="0" width="1096" height="780" rx="8" class="border"/>

      <g transform="translate(316, 0)">
        <!-- HEADER PAGE -->
        <text x="0" y="35" class="text-dark" font-size="18" font-weight="600">monsiteweb.com</text>
        <text x="0" y="55" class="text-muted" font-size="12">Performance - cluster027.hosting.ovh.net</text>

        <!-- NAV3 TABS (16 tabs) -->
        <g transform="translate(0, 75)">
          <text x="0" y="12" class="text-muted" font-size="9">Home</text>
          <text x="45" y="12" class="text-muted" font-size="9">Multisite</text>
          <text x="95" y="12" class="text-muted" font-size="9">FTP-SSH</text>
          <text x="145" y="12" class="text-muted" font-size="9">Modules</text>
          <text x="195" y="12" class="text-muted" font-size="9">Taches</text>
          <text x="245" y="12" class="text-muted" font-size="9">Emails</text>
          <text x="295" y="12" class="text-primary" font-size="9" font-weight="600">Variables</text>
          <rect x="295" y="18" width="45" height="2" class="bg-primary"/>
          <text x="355" y="12" class="text-muted" font-size="9">Runtimes</text>
          <text x="415" y="12" class="text-muted" font-size="9">SSL</text>
          <text x="450" y="12" class="text-muted" font-size="9">CDN</text>
          <text x="485" y="12" class="text-muted" font-size="9">Boost</text>
          <text x="525" y="12" class="text-muted" font-size="9">Logs</text>
          <text x="560" y="12" class="text-muted" font-size="9">BDD</text>
          <text x="595" y="12" class="text-muted" font-size="9">BDD Cloud</text>
          <text x="660" y="12" class="text-muted" font-size="9">Cron</text>
          <text x="700" y="12" class="text-muted" font-size="9">SEO</text>
          <line x1="0" y1="22" x2="1056" y2="22" class="divider"/>
        </g>

        <!-- CONTENU PAGE -->
        <g transform="translate(0, 115)">
          <!-- TOOLBAR -->
          <rect x="0" y="0" width="32" height="32" rx="4" class="btn-outline"/>
          <text x="16" y="22" class="text-primary" font-size="14" text-anchor="middle">↻</text>

          <rect x="40" y="0" width="180" height="32" rx="4" fill="#F9FAFB" stroke="#E5E7EB"/>
          <text x="52" y="21" class="text-muted" font-size="11">Rechercher une variable...</text>

          <rect x="900" y="0" width="156" height="32" rx="4" class="btn-primary"/>
          <text x="978" y="21" class="text-white" font-size="11" text-anchor="middle">+ Ajouter variable</text>

          <!-- TABLE VARIABLES -->
          <g transform="translate(0, 50)">
            <!-- Header -->
            <rect x="0" y="0" width="1056" height="40" class="table-header"/>
            <text x="20" y="25" class="text-muted" font-size="11" font-weight="600">Clé</text>
            <text x="250" y="25" class="text-muted" font-size="11" font-weight="600">Type</text>
            <text x="360" y="25" class="text-muted" font-size="11" font-weight="600">Valeur</text>
            <text x="700" y="25" class="text-muted" font-size="11" font-weight="600">Statut</text>
            <text x="820" y="25" class="text-muted" font-size="11" font-weight="600">Actions</text>

            <!-- Row 1 -->
            <rect x="0" y="40" width="1056" height="45" class="bg-white"/>
            <line x1="0" y1="40" x2="1056" y2="40" class="divider"/>
            <text x="20" y="68" class="text-dark" font-size="11" font-weight="600">DATABASE_URL</text>
            <rect x="250" y="55" width="55" height="20" rx="4" fill="#F3F4F6"/>
            <text x="277" y="69" class="text-muted" font-size="10" text-anchor="middle">string</text>
            <text x="360" y="68" class="text-dark" font-size="11">mysql://user:***@monsitec.mysql.db/dbname</text>
            <rect x="700" y="55" width="50" height="20" rx="10" fill="#DEF7EC"/>
            <text x="725" y="69" fill="#03543F" font-size="10" text-anchor="middle">Créée</text>
            <text x="830" y="68" class="text-muted" font-size="14">⋮</text>

            <!-- Row 2 -->
            <rect x="0" y="85" width="1056" height="45" class="bg-white"/>
            <line x1="0" y1="85" x2="1056" y2="85" class="divider"/>
            <text x="20" y="113" class="text-dark" font-size="11" font-weight="600">APP_ENV</text>
            <rect x="250" y="100" width="55" height="20" rx="4" fill="#F3F4F6"/>
            <text x="277" y="114" class="text-muted" font-size="10" text-anchor="middle">string</text>
            <text x="360" y="113" class="text-dark" font-size="11">production</text>
            <rect x="700" y="100" width="50" height="20" rx="10" fill="#DEF7EC"/>
            <text x="725" y="114" fill="#03543F" font-size="10" text-anchor="middle">Créée</text>
            <text x="830" y="113" class="text-muted" font-size="14">⋮</text>

            <!-- Row 3 -->
            <rect x="0" y="130" width="1056" height="45" class="bg-white"/>
            <line x1="0" y1="130" x2="1056" y2="130" class="divider"/>
            <text x="20" y="158" class="text-dark" font-size="11" font-weight="600">API_KEY</text>
            <rect x="250" y="145" width="70" height="20" rx="4" fill="#FEF3C7"/>
            <text x="285" y="159" class="text-warning" font-size="10" text-anchor="middle">password</text>
            <text x="360" y="158" class="text-muted" font-size="11">••••••••••••••••</text>
            <rect x="700" y="145" width="50" height="20" rx="10" fill="#DEF7EC"/>
            <text x="725" y="159" fill="#03543F" font-size="10" text-anchor="middle">Créée</text>
            <text x="830" y="158" class="text-muted" font-size="14">⋮</text>

            <!-- Row 4 -->
            <rect x="0" y="175" width="1056" height="45" class="bg-white"/>
            <line x1="0" y1="175" x2="1056" y2="175" class="divider"/>
            <text x="20" y="203" class="text-dark" font-size="11" font-weight="600">DEBUG_MODE</text>
            <rect x="250" y="190" width="60" height="20" rx="4" fill="#DBEAFE"/>
            <text x="280" y="204" class="text-info" font-size="10" text-anchor="middle">boolean</text>
            <text x="360" y="203" class="text-dark" font-size="11">false</text>
            <rect x="700" y="190" width="80" height="20" rx="10" fill="#FEF3C7"/>
            <text x="740" y="204" fill="#D97706" font-size="10" text-anchor="middle">En création</text>
            <text x="830" y="203" class="text-muted" font-size="14">⋮</text>

            <!-- Row 5 -->
            <rect x="0" y="220" width="1056" height="45" class="bg-white"/>
            <line x1="0" y1="220" x2="1056" y2="220" class="divider"/>
            <text x="20" y="248" class="text-dark" font-size="11" font-weight="600">SMTP_HOST</text>
            <rect x="250" y="235" width="55" height="20" rx="4" fill="#F3F4F6"/>
            <text x="277" y="249" class="text-muted" font-size="10" text-anchor="middle">string</text>
            <text x="360" y="248" class="text-dark" font-size="11">ssl0.ovh.net</text>
            <rect x="700" y="235" width="50" height="20" rx="10" fill="#DEF7EC"/>
            <text x="725" y="249" fill="#03543F" font-size="10" text-anchor="middle">Créée</text>
            <text x="830" y="248" class="text-muted" font-size="14">⋮</text>

            <line x1="0" y1="265" x2="1056" y2="265" class="divider"/>
          </g>

          <!-- PAGINATION -->
          <g transform="translate(0, 340)">
            <text x="0" y="15" class="text-muted" font-size="11">5 variables</text>
            <g transform="translate(950, 0)">
              <rect x="0" y="0" width="28" height="28" rx="4" fill="#F3F4F6"/>
              <text x="14" y="18" class="text-muted" font-size="11" text-anchor="middle">‹</text>
              <rect x="32" y="0" width="28" height="28" rx="4" class="bg-primary"/>
              <text x="46" y="18" class="text-white" font-size="11" text-anchor="middle">1</text>
              <rect x="64" y="0" width="28" height="28" rx="4" fill="#F3F4F6"/>
              <text x="78" y="18" class="text-muted" font-size="11" text-anchor="middle">›</text>
            </g>
          </g>

          <!-- BANNIÈRE INFO -->
          <rect x="0" y="400" width="1056" height="50" rx="6" class="bg-info"/>
          <text x="20" y="30" class="text-info" font-size="12" transform="translate(0, 400)">ℹ️ Les variables d'environnement permettent de stocker des données de configuration de manière sécurisée. Les variables de type "password" sont masquées.</text>
        </g>
      </g>
    </g>
  </g>
</svg>
