<svg xmlns="http://www.w3.org/2000/svg" viewBox="0 0 1440 900" width="1440" height="900">
  <defs>
    <style>
      .bg-header { fill: #000E9C; }
      .bg-main { fill: #F6F6F9; }
      .bg-white { fill: #FFFFFF; }
      .bg-primary { fill: #0050D7; }
      .bg-neutral-100 { fill: #F3F4F6; }
      .bg-info { fill: #DBEAFE; }
      .bg-success { fill: #DEF7EC; }
      .bg-error { fill: #FEE2E2; }
      .border { stroke: #E5E7EB; stroke-width: 1; fill: none; }
      .divider { stroke: #E5E7EB; stroke-width: 1; }
      .btn-outline { stroke: #0050D7; stroke-width: 1; fill: #FFFFFF; }
      .btn-primary { fill: #0050D7; }
      .table-header { fill: #F9FAFB; }
      .text-white { fill: #FFFFFF; font-family: 'Source Sans Pro', sans-serif; }
      .text-dark { fill: #1F2937; font-family: 'Source Sans Pro', sans-serif; }
      .text-muted { fill: #6B7280; font-family: 'Source Sans Pro', sans-serif; }
      .text-primary { fill: #0050D7; font-family: 'Source Sans Pro', sans-serif; }
      .text-success { fill: #059669; font-family: 'Source Sans Pro', sans-serif; }
      .text-error { fill: #DC2626; font-family: 'Source Sans Pro', sans-serif; }
      .text-info { fill: #1E40AF; font-family: 'Source Sans Pro', sans-serif; }
    </style>
  </defs>

  <!-- Background -->
  <rect width="1440" height="900" class="bg-main"/>

  <!-- NAV1 - Header OVH (Web Cloud actif) -->
  <rect width="1440" height="50" class="bg-header"/>
  <text x="40" y="32" class="text-white" font-size="14" opacity="0.7">Accueil</text>
  <text x="110" y="32" class="text-white" font-size="14" opacity="0.7">Public Cloud</text>
  <text x="210" y="32" class="text-white" font-size="14" opacity="0.7">Hosted Private Cloud</text>
  <text x="370" y="32" class="text-white" font-size="14" opacity="0.7">Bare Metal Cloud</text>
  <text x="510" y="32" class="text-white" font-size="14" font-weight="600">Web Cloud</text>
  <rect x="505" y="46" width="75" height="3" fill="#FFFFFF"/>
  <text x="620" y="32" class="text-white" font-size="14" opacity="0.7">Network</text>
  <text x="700" y="32" class="text-white" font-size="14" opacity="0.7">IAM / Securite</text>
  <text x="810" y="32" class="text-white" font-size="14" opacity="0.7">Licences</text>
  <!-- Badge utilisateur -->
  <rect x="1280" y="12" width="140" height="26" rx="13" fill="rgba(255,255,255,0.2)"/>
  <rect x="1285" y="15" width="26" height="20" rx="10" fill="#DEF7EC"/>
  <text x="1292" y="29" fill="#03543F" font-size="10" font-weight="600">OK</text>
  <text x="1320" y="29" class="text-white" font-size="12">ab12345-ovh</text>

  <!-- NAV2 - Web Cloud (Hébergement actif) -->
  <rect x="0" y="50" width="1440" height="40" class="bg-white"/>
  <line x1="0" y1="89" x2="1440" y2="89" class="divider"/>
  <text x="40" y="75" class="text-muted" font-size="14">Accueil</text>
  <text x="110" y="75" class="text-muted" font-size="14">Domaines et DNS</text>
  <text x="240" y="75" class="text-primary" font-size="14" font-weight="600">Hébergement</text>
  <rect x="235" y="85" width="85" height="3" class="bg-primary"/>
  <text x="345" y="75" class="text-muted" font-size="14">Wordpress</text>
  <text x="430" y="75" class="text-muted" font-size="14">Emails</text>
  <text x="500" y="75" class="text-muted" font-size="14">VoIP</text>
  <text x="550" y="75" class="text-muted" font-size="14">Accès</text>
  <text x="1350" y="75" class="text-primary" font-size="13">Guides</text>

  <!-- CONTENT AREA -->
  <g transform="translate(0, 105)">
    <g transform="translate(24, 0)">

      <!-- LEFT PANEL (280px x 765px) -->
      <rect x="0" y="0" width="280" height="765" rx="8" class="bg-white"/>
      <rect x="0" y="0" width="280" height="765" rx="8" class="border"/>

      <!-- NAV3 Groupement (au-dessus de recherche) -->
      <rect x="0" y="0" width="280" height="44" rx="8" fill="#F9FAFB"/>
      <rect x="8" y="10" width="64" height="24" rx="4" fill="#FFFFFF" stroke="#E5E7EB"/>
      <text x="40" y="26" class="text-muted" font-size="11" text-anchor="middle">Général</text>
      <rect x="76" y="10" width="56" height="24" rx="4" fill="#0050D7"/>
      <text x="104" y="26" class="text-white" font-size="11" text-anchor="middle">Sites</text>
      <rect x="136" y="10" width="56" height="24" rx="4" fill="#FFFFFF" stroke="#E5E7EB"/>
      <text x="164" y="26" class="text-muted" font-size="11" text-anchor="middle">Offre</text>
      <rect x="196" y="10" width="56" height="24" rx="4" fill="#FFFFFF" stroke="#E5E7EB"/>
      <text x="224" y="26" class="text-muted" font-size="11" text-anchor="middle">Expert</text>
      <line x1="0" y1="44" x2="280" y2="44" class="divider"/>

      <!-- Recherche (y=56) -->
      <rect x="12" y="56" width="256" height="34" rx="4" fill="#F9FAFB" stroke="#E5E7EB"/>
      <text x="26" y="78" class="text-muted" font-size="12">🔍 Rechercher...</text>

      <!-- Compteur -->
      <text x="12" y="112" class="text-muted" font-size="11">3 services</text>

      <!-- Service sélectionné -->
      <rect x="0" y="124" width="280" height="52" fill="#E8F0FE"/>
      <text x="16" y="146" class="text-primary" font-size="13" font-weight="600">monsiteweb.com</text>
      <text x="16" y="164" class="text-muted" font-size="11">Performance</text>
      <rect x="220" y="138" width="46" height="18" rx="9" fill="#DEF7EC"/>
      <text x="243" y="151" fill="#03543F" font-size="10" text-anchor="middle">Actif</text>

      <!-- Autres services -->
      <rect x="0" y="176" width="280" height="52" fill="#FFFFFF"/>
      <text x="16" y="198" class="text-dark" font-size="13">monblog.fr</text>
      <text x="16" y="216" class="text-muted" font-size="11">Perso</text>
      <rect x="220" y="190" width="46" height="18" rx="9" fill="#DEF7EC"/>
      <text x="243" y="203" fill="#03543F" font-size="10" text-anchor="middle">Actif</text>
      <line x1="12" y1="228" x2="268" y2="228" class="divider"/>

      <rect x="0" y="228" width="280" height="52" fill="#FFFFFF"/>
      <text x="16" y="250" class="text-dark" font-size="13">boutique.shop</text>
      <text x="16" y="268" class="text-muted" font-size="11">Pro</text>
      <rect x="220" y="242" width="46" height="18" rx="9" fill="#DEF7EC"/>
      <text x="243" y="255" fill="#03543F" font-size="10" text-anchor="middle">Actif</text>
    </g>

    <g transform="translate(320, 0)">

      <!-- RIGHT PANEL (1096px x 765px) -->
      <rect x="0" y="0" width="1096" height="765" rx="8" class="bg-white"/>
      <rect x="0" y="0" width="1096" height="765" rx="8" class="border"/>

      <g transform="translate(20, 0)">
        <!-- HEADER PAGE -->
        <text x="0" y="28" class="text-dark" font-size="18" font-weight="600">monsiteweb.com</text>
        <text x="0" y="48" class="text-muted" font-size="12">Performance - cluster027.hosting.ovh.net</text>

        <!-- NAV4 - Fonction (Sites: Multisite, SSL, FTP-SSH, BDD, CDN) -->
        <g transform="translate(0, 60)">
          <rect x="0" y="0" width="70" height="26" rx="4" fill="#FFFFFF" stroke="#0050D7"/>
          <text x="35" y="17" class="text-primary" font-size="12" text-anchor="middle">Multisite</text>
          <rect x="78" y="0" width="50" height="26" rx="4" fill="#FFFFFF" stroke="#0050D7"/>
          <text x="103" y="17" class="text-primary" font-size="12" text-anchor="middle">SSL</text>
          <rect x="136" y="0" width="70" height="26" rx="4" fill="#FFFFFF" stroke="#0050D7"/>
          <text x="171" y="17" class="text-primary" font-size="12" text-anchor="middle">FTP-SSH</text>
          <rect x="214" y="0" width="50" height="26" rx="4" fill="#FFFFFF" stroke="#0050D7"/>
          <text x="239" y="17" class="text-primary" font-size="12" text-anchor="middle">BDD</text>
          <rect x="272" y="0" width="50" height="26" rx="4" fill="#0050D7"/>
          <text x="297" y="17" class="text-white" font-size="12" text-anchor="middle">CDN</text>
        </g>

        <!-- NAV5 - Sous-tabs CDN (État | Paramètres) -->
        <g transform="translate(0, 96)">
          <text x="0" y="14" class="text-muted" font-size="12">État</text>
          <text x="50" y="14" class="text-primary" font-size="12" font-weight="500">Paramètres</text>
          <rect x="50" y="18" width="70" height="2" class="bg-primary"/>
          <line x1="0" y1="24" x2="1056" y2="24" class="divider"/>
        </g>

        <!-- CONTENU PAGE -->
        <g transform="translate(0, 130)">
          <!-- TITRE -->
          <text x="0" y="20" class="text-dark" font-size="15" font-weight="700">Paramètres CDN - www.monsiteweb.com</text>
          <text x="0" y="40" class="text-muted" font-size="11">Configuration du CDN pour votre domaine</text>

          <!-- BANDEAU INFO -->
          <rect x="0" y="55" width="1056" height="40" rx="6" class="bg-info"/>
          <text x="20" y="80" class="text-info" font-size="11">ℹ️ Les modifications peuvent prendre jusqu'à 5 minutes pour être propagées sur le réseau CDN.</text>
          <text x="920" y="80" class="text-primary" font-size="11">Documentation ↗</text>

          <!-- OPTIONS DE PERFORMANCE -->
          <text x="0" y="125" class="text-dark" font-size="12" font-weight="600">Options de performance</text>

          <g transform="translate(0, 140)">
            <!-- Card 1: Always Online -->
            <rect x="0" y="0" width="255" height="80" rx="6" class="bg-white"/>
            <rect x="0" y="0" width="255" height="80" rx="6" class="border"/>
            <text x="16" y="25" class="text-dark" font-size="11" font-weight="600">Always Online</text>
            <text x="16" y="45" class="text-muted" font-size="10">Affiche une version en cache si</text>
            <text x="16" y="58" class="text-muted" font-size="10">votre serveur est indisponible</text>
            <!-- Toggle ON -->
            <rect x="200" y="15" width="40" height="20" rx="10" fill="#0050D7"/>
            <circle cx="227" cy="25" r="8" fill="#FFFFFF"/>

            <!-- Card 2: HTTP/2 -->
            <rect x="267" y="0" width="255" height="80" rx="6" class="bg-white"/>
            <rect x="267" y="0" width="255" height="80" rx="6" class="border"/>
            <text x="283" y="25" class="text-dark" font-size="11" font-weight="600">HTTP/2</text>
            <text x="283" y="45" class="text-muted" font-size="10">Améliore les performances avec</text>
            <text x="283" y="58" class="text-muted" font-size="10">le protocole HTTP/2</text>
            <rect x="467" y="15" width="40" height="20" rx="10" fill="#0050D7"/>
            <circle cx="494" cy="25" r="8" fill="#FFFFFF"/>

            <!-- Card 3: Compression Brotli -->
            <rect x="534" y="0" width="255" height="80" rx="6" class="bg-white"/>
            <rect x="534" y="0" width="255" height="80" rx="6" class="border"/>
            <text x="550" y="25" class="text-dark" font-size="11" font-weight="600">Compression Brotli</text>
            <text x="550" y="45" class="text-muted" font-size="10">Compresse les ressources pour</text>
            <text x="550" y="58" class="text-muted" font-size="10">un chargement plus rapide</text>
            <rect x="734" y="15" width="40" height="20" rx="10" fill="#0050D7"/>
            <circle cx="761" cy="25" r="8" fill="#FFFFFF"/>

            <!-- Card 4: Géolocalisation -->
            <rect x="801" y="0" width="255" height="80" rx="6" class="bg-white"/>
            <rect x="801" y="0" width="255" height="80" rx="6" class="border"/>
            <text x="817" y="25" class="text-dark" font-size="11" font-weight="600">En-têtes géolocalisation</text>
            <text x="817" y="45" class="text-muted" font-size="10">Ajoute des en-têtes HTTP avec</text>
            <text x="817" y="58" class="text-muted" font-size="10">la localisation du visiteur</text>
            <!-- Toggle OFF -->
            <rect x="1001" y="15" width="40" height="20" rx="10" fill="#E5E7EB"/>
            <circle cx="1014" cy="25" r="8" fill="#FFFFFF"/>
          </g>

          <!-- OPTIONS DE SÉCURITÉ -->
          <text x="0" y="245" class="text-dark" font-size="12" font-weight="600">Options de sécurité</text>

          <g transform="translate(0, 260)">
            <!-- Card 1: HSTS -->
            <rect x="0" y="0" width="350" height="80" rx="6" class="bg-white"/>
            <rect x="0" y="0" width="350" height="80" rx="6" class="border"/>
            <text x="16" y="25" class="text-dark" font-size="11" font-weight="600">HSTS (HTTP Strict Transport Security)</text>
            <text x="16" y="45" class="text-muted" font-size="10">Force les connexions HTTPS pour plus de sécurité</text>
            <rect x="295" y="15" width="40" height="20" rx="10" fill="#0050D7"/>
            <circle cx="322" cy="25" r="8" fill="#FFFFFF"/>

            <!-- Card 2: Mixed Content -->
            <rect x="362" y="0" width="350" height="80" rx="6" class="bg-white"/>
            <rect x="362" y="0" width="350" height="80" rx="6" class="border"/>
            <text x="378" y="25" class="text-dark" font-size="11" font-weight="600">Mixed Content</text>
            <text x="378" y="45" class="text-muted" font-size="10">Réécriture automatique des URLs HTTP en HTTPS</text>
            <rect x="657" y="15" width="40" height="20" rx="10" fill="#E5E7EB"/>
            <circle cx="670" cy="25" r="8" fill="#FFFFFF"/>
          </g>

          <!-- RÈGLES DE CACHE -->
          <text x="0" y="370" class="text-dark" font-size="12" font-weight="600">Règles de cache personnalisées</text>
          <rect x="900" y="355" width="156" height="28" rx="4" class="btn-primary"/>
          <text x="978" y="374" class="text-white" font-size="11" text-anchor="middle">+ Ajouter une règle</text>

          <g transform="translate(0, 390)">
            <!-- Header -->
            <rect x="0" y="0" width="1056" height="35" class="table-header"/>
            <text x="20" y="22" class="text-muted" font-size="10" font-weight="600">Nom</text>
            <text x="200" y="22" class="text-muted" font-size="10" font-weight="600">Type</text>
            <text x="320" y="22" class="text-muted" font-size="10" font-weight="600">Pattern</text>
            <text x="620" y="22" class="text-muted" font-size="10" font-weight="600">TTL</text>
            <text x="750" y="22" class="text-muted" font-size="10" font-weight="600">Actions</text>

            <!-- Row 1 -->
            <line x1="0" y1="35" x2="1056" y2="35" class="divider"/>
            <text x="20" y="57" class="text-dark" font-size="11">static-assets</text>
            <rect x="200" y="43" width="65" height="20" rx="4" fill="#F3F4F6"/>
            <text x="232" y="57" class="text-muted" font-size="10" text-anchor="middle">Extension</text>
            <text x="320" y="57" class="text-dark" font-size="11">.css, .js, .png, .jpg</text>
            <text x="620" y="57" class="text-dark" font-size="11">7 jours</text>
            <text x="750" y="57" class="text-primary" font-size="11">Modifier</text>
            <text x="820" y="57" class="text-error" font-size="11">Supprimer</text>

            <!-- Row 2 -->
            <line x1="0" y1="70" x2="1056" y2="70" class="divider"/>
            <text x="20" y="92" class="text-dark" font-size="11">api-cache</text>
            <rect x="200" y="78" width="40" height="20" rx="4" fill="#DBEAFE"/>
            <text x="220" y="92" class="text-info" font-size="10" text-anchor="middle">URI</text>
            <text x="320" y="92" class="text-dark" font-size="11">/api/v1/*</text>
            <text x="620" y="92" class="text-dark" font-size="11">5 minutes</text>
            <text x="750" y="92" class="text-primary" font-size="11">Modifier</text>
            <text x="820" y="92" class="text-error" font-size="11">Supprimer</text>

            <line x1="0" y1="105" x2="1056" y2="105" class="divider"/>
          </g>
        </g>
      </g>
    </g>
  </g>
</svg>
