<svg xmlns="http://www.w3.org/2000/svg" viewBox="0 0 1440 900" width="1440" height="900">
  <defs>
    <style>
      .bg-header { fill: #000E9C; }
      .bg-main { fill: #F6F6F9; }
      .bg-white { fill: #FFFFFF; }
      .bg-primary { fill: #0050D7; }
      .bg-neutral-100 { fill: #F3F4F6; }
      .bg-info { fill: #DBEAFE; }
      .bg-success { fill: #DEF7EC; }
      .border { stroke: #E5E7EB; stroke-width: 1; fill: none; }
      .divider { stroke: #E5E7EB; stroke-width: 1; }
      .btn-outline { stroke: #0050D7; stroke-width: 1; fill: #FFFFFF; }
      .btn-primary { fill: #0050D7; }
      .table-header { fill: #F9FAFB; }
      .text-white { fill: #FFFFFF; font-family: 'Source Sans Pro', sans-serif; }
      .text-dark { fill: #1F2937; font-family: 'Source Sans Pro', sans-serif; }
      .text-muted { fill: #6B7280; font-family: 'Source Sans Pro', sans-serif; }
      .text-primary { fill: #0050D7; font-family: 'Source Sans Pro', sans-serif; }
      .text-success { fill: #059669; font-family: 'Source Sans Pro', sans-serif; }
      .text-info { fill: #1E40AF; font-family: 'Source Sans Pro', sans-serif; }
    </style>
  </defs>

  <!-- Background -->
  <rect width="1440" height="900" class="bg-main"/>

  <!-- NAV1 - Header OVH (Web Cloud actif) -->
  <rect width="1440" height="50" class="bg-header"/>
  <text x="40" y="32" class="text-white" font-size="14" opacity="0.7">Accueil</text>
  <text x="110" y="32" class="text-white" font-size="14" opacity="0.7">Public Cloud</text>
  <text x="210" y="32" class="text-white" font-size="14" opacity="0.7">Hosted Private Cloud</text>
  <text x="370" y="32" class="text-white" font-size="14" opacity="0.7">Bare Metal Cloud</text>
  <text x="510" y="32" class="text-white" font-size="14" font-weight="600">Web Cloud</text>
  <rect x="505" y="46" width="75" height="3" fill="#FFFFFF"/>
  <text x="620" y="32" class="text-white" font-size="14" opacity="0.7">Network</text>
  <text x="700" y="32" class="text-white" font-size="14" opacity="0.7">IAM / Securite</text>
  <text x="810" y="32" class="text-white" font-size="14" opacity="0.7">Licences</text>
  <!-- Badge utilisateur -->
  <rect x="1280" y="12" width="140" height="26" rx="13" fill="rgba(255,255,255,0.2)"/>
  <rect x="1285" y="15" width="26" height="20" rx="10" fill="#DEF7EC"/>
  <text x="1292" y="29" fill="#03543F" font-size="10" font-weight="600">OK</text>
  <text x="1320" y="29" class="text-white" font-size="12">ab12345-ovh</text>

  <!-- NAV2 - Web Cloud (Hébergement actif) -->
  <rect x="0" y="50" width="1440" height="40" class="bg-white"/>
  <line x1="0" y1="89" x2="1440" y2="89" class="divider"/>
  <text x="40" y="75" class="text-muted" font-size="14">Accueil</text>
  <text x="110" y="75" class="text-muted" font-size="14">Domaines et DNS</text>
  <text x="240" y="75" class="text-primary" font-size="14" font-weight="600">Hébergement</text>
  <rect x="235" y="85" width="85" height="3" class="bg-primary"/>
  <text x="345" y="75" class="text-muted" font-size="14">Wordpress</text>
  <text x="430" y="75" class="text-muted" font-size="14">Emails</text>
  <text x="500" y="75" class="text-muted" font-size="14">VoIP</text>
  <text x="550" y="75" class="text-muted" font-size="14">Accès</text>
  <text x="1350" y="75" class="text-primary" font-size="13">Guides</text>

  <!-- CONTENT AREA -->
  <g transform="translate(0, 105)">
    <g transform="translate(24, 0)">

      <!-- LEFT PANEL (280px x 765px) -->
      <rect x="0" y="0" width="280" height="765" rx="8" class="bg-white"/>
      <rect x="0" y="0" width="280" height="765" rx="8" class="border"/>

      <!-- NAV3 Groupement (au-dessus de recherche) -->
      <rect x="0" y="0" width="280" height="44" rx="8" fill="#F9FAFB"/>
      <rect x="8" y="10" width="64" height="24" rx="4" fill="#FFFFFF" stroke="#E5E7EB"/>
      <text x="40" y="26" class="text-muted" font-size="11" text-anchor="middle">Général</text>
      <rect x="76" y="10" width="56" height="24" rx="4" fill="#FFFFFF" stroke="#E5E7EB"/>
      <text x="104" y="26" class="text-muted" font-size="11" text-anchor="middle">Sites</text>
      <rect x="136" y="10" width="56" height="24" rx="4" fill="#0050D7"/>
      <text x="164" y="26" class="text-white" font-size="11" text-anchor="middle">Offre</text>
      <rect x="196" y="10" width="56" height="24" rx="4" fill="#FFFFFF" stroke="#E5E7EB"/>
      <text x="224" y="26" class="text-muted" font-size="11" text-anchor="middle">Expert</text>
      <line x1="0" y1="44" x2="280" y2="44" class="divider"/>

      <!-- Recherche (y=56) -->
      <rect x="12" y="56" width="256" height="34" rx="4" fill="#F9FAFB" stroke="#E5E7EB"/>
      <text x="26" y="78" class="text-muted" font-size="12">🔍 Rechercher...</text>

      <!-- Compteur -->
      <text x="12" y="112" class="text-muted" font-size="11">1 service</text>

      <!-- Service sélectionné -->
      <rect x="0" y="124" width="280" height="52" fill="#E8F0FE"/>
      <text x="16" y="146" class="text-primary" font-size="13" font-weight="600">monsiteweb.com</text>
      <text x="16" y="164" class="text-muted" font-size="11">Perso</text>
      <rect x="220" y="138" width="46" height="18" rx="9" fill="#DEF7EC"/>
      <text x="243" y="151" fill="#03543F" font-size="10" text-anchor="middle">Actif</text>
    </g>

    <g transform="translate(320, 0)">

      <!-- RIGHT PANEL (1096px x 765px) -->
      <rect x="0" y="0" width="1096" height="765" rx="8" class="bg-white"/>
      <rect x="0" y="0" width="1096" height="765" rx="8" class="border"/>

      <g transform="translate(20, 0)">
        <!-- HEADER PAGE -->
        <text x="0" y="28" class="text-dark" font-size="18" font-weight="600">monsiteweb.com</text>
        <text x="0" y="48" class="text-muted" font-size="12">Perso - cluster027.hosting.ovh.net</text>

        <!-- NAV4 - Fonction (Offre: Offre, Changement, Migration, Résiliation) -->
        <g transform="translate(0, 60)">
          <rect x="0" y="0" width="55" height="26" rx="4" fill="#0050D7"/>
          <text x="27" y="17" class="text-white" font-size="12" text-anchor="middle">Offre</text>
          <rect x="63" y="0" width="90" height="26" rx="4" fill="#FFFFFF" stroke="#0050D7"/>
          <text x="108" y="17" class="text-primary" font-size="12" text-anchor="middle">Changement</text>
          <rect x="161" y="0" width="80" height="26" rx="4" fill="#FFFFFF" stroke="#0050D7"/>
          <text x="201" y="17" class="text-primary" font-size="12" text-anchor="middle">Migration</text>
          <rect x="249" y="0" width="85" height="26" rx="4" fill="#FFFFFF" stroke="#0050D7"/>
          <text x="291" y="17" class="text-primary" font-size="12" text-anchor="middle">Résiliation</text>
        </g>

        <!-- CONTENU PAGE - Détails de l'offre -->
        <g transform="translate(0, 100)">
          <!-- BLOC OFFRE ACTUELLE -->
          <rect x="0" y="0" width="520" height="200" rx="8" class="bg-white"/>
          <rect x="0" y="0" width="520" height="200" rx="8" class="border"/>
          <text x="20" y="30" class="text-dark" font-size="13" font-weight="600">Offre actuelle</text>
          <line x1="20" y1="45" x2="500" y2="45" class="divider"/>

          <text x="20" y="75" class="text-muted" font-size="11">Offre</text>
          <text x="200" y="75" class="text-dark" font-size="11" font-weight="600">Perso</text>
          <rect x="250" y="62" width="46" height="18" rx="9" fill="#DEF7EC"/>
          <text x="273" y="75" fill="#03543F" font-size="10" text-anchor="middle">Actif</text>

          <text x="20" y="100" class="text-muted" font-size="11">Espace disque</text>
          <text x="200" y="100" class="text-dark" font-size="11">100 Go</text>

          <text x="20" y="125" class="text-muted" font-size="11">Bases de données</text>
          <text x="200" y="125" class="text-dark" font-size="11">10 (MySQL 8.0)</text>

          <text x="20" y="150" class="text-muted" font-size="11">Comptes email</text>
          <text x="200" y="150" class="text-dark" font-size="11">100</text>

          <text x="20" y="175" class="text-muted" font-size="11">Sites web</text>
          <text x="200" y="175" class="text-dark" font-size="11">5</text>

          <!-- BLOC FACTURATION -->
          <rect x="536" y="0" width="520" height="200" rx="8" class="bg-white"/>
          <rect x="536" y="0" width="520" height="200" rx="8" class="border"/>
          <text x="556" y="30" class="text-dark" font-size="13" font-weight="600">Facturation</text>
          <line x1="556" y1="45" x2="1036" y2="45" class="divider"/>

          <text x="556" y="75" class="text-muted" font-size="11">Date de création</text>
          <text x="736" y="75" class="text-dark" font-size="11">15/01/2024</text>

          <text x="556" y="100" class="text-muted" font-size="11">Prochaine facture</text>
          <text x="736" y="100" class="text-dark" font-size="11">15/01/2027</text>

          <text x="556" y="125" class="text-muted" font-size="11">Cycle de facturation</text>
          <text x="736" y="125" class="text-dark" font-size="11">Annuel</text>

          <text x="556" y="150" class="text-muted" font-size="11">Montant HT</text>
          <text x="736" y="150" class="text-dark" font-size="11" font-weight="600">47,88 € / an</text>

          <text x="556" y="175" class="text-muted" font-size="11">Renouvellement</text>
          <rect x="736" y="162" width="80" height="18" rx="9" fill="#DEF7EC"/>
          <text x="776" y="175" fill="#03543F" font-size="10" text-anchor="middle">Automatique</text>

          <!-- BLOC RESSOURCES UTILISÉES -->
          <text x="0" y="235" class="text-dark" font-size="13" font-weight="600">Utilisation des ressources</text>

          <g transform="translate(0, 255)">
            <!-- Espace disque -->
            <rect x="0" y="0" width="340" height="80" rx="8" class="bg-white"/>
            <rect x="0" y="0" width="340" height="80" rx="8" class="border"/>
            <text x="20" y="25" class="text-muted" font-size="11">Espace disque</text>
            <text x="280" y="25" class="text-dark" font-size="11" font-weight="600">32.5 / 100 Go</text>
            <rect x="20" y="40" width="300" height="8" rx="4" fill="#E5E7EB"/>
            <rect x="20" y="40" width="97" height="8" rx="4" fill="#059669"/>
            <text x="20" y="65" class="text-success" font-size="10">32.5% utilisé</text>

            <!-- Bases de données -->
            <rect x="356" y="0" width="340" height="80" rx="8" class="bg-white"/>
            <rect x="356" y="0" width="340" height="80" rx="8" class="border"/>
            <text x="376" y="25" class="text-muted" font-size="11">Bases de données</text>
            <text x="636" y="25" class="text-dark" font-size="11" font-weight="600">3 / 10</text>
            <rect x="376" y="40" width="300" height="8" rx="4" fill="#E5E7EB"/>
            <rect x="376" y="40" width="90" height="8" rx="4" fill="#059669"/>
            <text x="376" y="65" class="text-success" font-size="10">30% utilisé</text>

            <!-- Comptes email -->
            <rect x="712" y="0" width="344" height="80" rx="8" class="bg-white"/>
            <rect x="712" y="0" width="344" height="80" rx="8" class="border"/>
            <text x="732" y="25" class="text-muted" font-size="11">Comptes email</text>
            <text x="996" y="25" class="text-dark" font-size="11" font-weight="600">12 / 100</text>
            <rect x="732" y="40" width="304" height="8" rx="4" fill="#E5E7EB"/>
            <rect x="732" y="40" width="36" height="8" rx="4" fill="#059669"/>
            <text x="732" y="65" class="text-success" font-size="10">12% utilisé</text>
          </g>

          <!-- SERVICES ASSOCIÉS -->
          <text x="0" y="370" class="text-dark" font-size="13" font-weight="600">Services associés</text>

          <g transform="translate(0, 390)">
            <!-- Header -->
            <rect x="0" y="0" width="1056" height="35" class="table-header"/>
            <text x="20" y="22" class="text-muted" font-size="10" font-weight="600">Service</text>
            <text x="300" y="22" class="text-muted" font-size="10" font-weight="600">Type</text>
            <text x="500" y="22" class="text-muted" font-size="10" font-weight="600">Statut</text>
            <text x="700" y="22" class="text-muted" font-size="10" font-weight="600">Actions</text>

            <!-- Row 1 -->
            <line x1="0" y1="35" x2="1056" y2="35" class="divider"/>
            <text x="20" y="57" class="text-dark" font-size="11">Certificat SSL Let's Encrypt</text>
            <text x="300" y="57" class="text-muted" font-size="11">SSL</text>
            <rect x="500" y="43" width="46" height="18" rx="9" fill="#DEF7EC"/>
            <text x="523" y="56" fill="#03543F" font-size="10" text-anchor="middle">Actif</text>
            <text x="700" y="57" class="text-primary" font-size="11">Gérer</text>

            <!-- Row 2 -->
            <line x1="0" y1="70" x2="1056" y2="70" class="divider"/>
            <text x="20" y="92" class="text-dark" font-size="11">CDN Basic</text>
            <text x="300" y="92" class="text-muted" font-size="11">CDN</text>
            <rect x="500" y="78" width="46" height="18" rx="9" fill="#DEF7EC"/>
            <text x="523" y="91" fill="#03543F" font-size="10" text-anchor="middle">Actif</text>
            <text x="700" y="92" class="text-primary" font-size="11">Gérer</text>

            <line x1="0" y1="105" x2="1056" y2="105" class="divider"/>
          </g>

          <!-- BOUTONS -->
          <rect x="0" y="520" width="150" height="36" rx="4" class="btn-primary"/>
          <text x="75" y="543" class="text-white" font-size="12" text-anchor="middle">↑ Changer d'offre</text>

          <rect x="166" y="520" width="150" height="36" rx="4" class="btn-outline"/>
          <text x="241" y="543" class="text-primary" font-size="12" text-anchor="middle">↻ Renouveler</text>
        </g>
      </g>
    </g>
  </g>
</svg>
