<svg xmlns="http://www.w3.org/2000/svg" viewBox="0 0 1440 900" width="1440" height="900">
  <defs>
    <style>
      .bg-header { fill: #000E9C; }
      .bg-main { fill: #F6F6F9; }
      .bg-white { fill: #FFFFFF; }
      .bg-primary { fill: #0050D7; }
      .border { stroke: #E5E7EB; stroke-width: 1; fill: none; }
      .font-base { font-family: 'Source Sans Pro', sans-serif; }
      .text-white { fill: #FFFFFF; font-family: 'Source Sans Pro', sans-serif; }
      .text-muted { fill: #6B7280; font-family: 'Source Sans Pro', sans-serif; }
      .text-primary { fill: #0050D7; font-family: 'Source Sans Pro', sans-serif; }
      .text-dark { fill: #1F2937; font-family: 'Source Sans Pro', sans-serif; }
      .text-danger { fill: #DC2626; font-family: 'Source Sans Pro', sans-serif; }
      .row-selected { fill: #E8F0FE; }
      .btn-outline { stroke: #0050D7; stroke-width: 1; fill: #FFFFFF; }
      .btn-primary { fill: #0050D7; }
      .badge-ok { fill: #DEF7EC; }
      .badge-info { fill: #DBEAFE; }
      .badge-warning-bg { fill: #FEF3C7; }
      .table-header { fill: #F3F4F6; }
    </style>
  </defs>

  <rect width="1440" height="900" class="bg-main"/>

  <!-- NAV1 -->
  <rect width="1440" height="50" class="bg-header"/>
  <text x="40" y="32" class="text-white" font-size="14" opacity="0.7">Accueil</text>
  <text x="110" y="32" class="text-white" font-size="14" opacity="0.7">Public Cloud</text>
  <text x="210" y="32" class="text-white" font-size="14" opacity="0.7">Hosted Private Cloud</text>
  <text x="370" y="32" class="text-white" font-size="14" opacity="0.7">Bare Metal Cloud</text>
  <text x="510" y="32" class="text-white" font-size="14" font-weight="600">Web Cloud</text>
  <rect x="505" y="46" width="75" height="3" fill="#FFFFFF"/>
  <text x="620" y="32" class="text-white" font-size="14" opacity="0.7">Network</text>
  <text x="700" y="32" class="text-white" font-size="14" opacity="0.7">IAM / Securite</text>
  <text x="810" y="32" class="text-white" font-size="14" opacity="0.7">Licences</text>
  <rect x="1280" y="12" width="140" height="26" rx="13" fill="rgba(255,255,255,0.2)"/>
  <rect x="1285" y="15" width="26" height="20" rx="10" fill="#DEF7EC"/>
  <text x="1292" y="29" fill="#03543F" font-size="10" font-weight="600">OK</text>
  <text x="1320" y="29" class="text-white" font-size="12">ko51027-ovh</text>

  <!-- NAV2 -->
  <rect x="0" y="50" width="1440" height="40" class="bg-white"/>
  <line x1="0" y1="89" x2="1440" y2="89" stroke="#E5E7EB"/>
  <text x="40" y="75" class="text-muted" font-size="14">Accueil</text>
  <text x="110" y="75" class="text-muted" font-size="14">Domaines et DNS</text>
  <text x="240" y="75" class="text-primary" font-size="14" font-weight="600">Hebergement</text>
  <rect x="235" y="85" width="95" height="3" fill="#0050D7"/>
  <text x="360" y="75" class="text-muted" font-size="14">Emails et Collab</text>
  <text x="480" y="75" class="text-muted" font-size="14">VoIP</text>
  <text x="530" y="75" class="text-muted" font-size="14">Acces</text>
  <text x="1350" y="75" class="text-primary" font-size="13">Guides</text>

  <!-- MAIN -->
  <g transform="translate(0, 90)">
    <g transform="translate(24, 15)">
      
      <!-- LEFT PANEL -->
      <rect x="0" y="0" width="280" height="780" rx="8" class="bg-white"/>
      <rect x="0" y="0" width="280" height="780" rx="8" class="border"/>
      <rect x="12" y="12" width="256" height="34" rx="4" fill="#F9FAFB" stroke="#E5E7EB"/>
      <text x="26" y="34" class="text-muted" font-size="12">Rechercher...</text>
      <text x="12" y="68" class="text-muted" font-size="11">Filtrer par statut</text>
      <text x="240" y="68" class="text-muted" font-size="11" text-anchor="end">12 services</text>
      
      <rect x="6" y="80" width="268" height="56" rx="6" class="row-selected"/>
      <circle cx="28" cy="108" r="14" fill="#0050D7"/>
      <text x="28" y="112" class="text-white" font-size="10" text-anchor="middle">W</text>
      <text x="52" y="100" class="text-dark" font-size="13" font-weight="500">mon-site.fr</text>
      <text x="52" y="116" class="text-muted" font-size="11">Performance 1</text>
      <rect x="210" y="96" width="46" height="18" rx="9" class="badge-ok"/>
      <text x="233" y="109" fill="#03543F" font-size="10" text-anchor="middle">Actif</text>
      
      <rect x="6" y="142" width="268" height="56" rx="6" fill="transparent"/>
      <circle cx="28" cy="170" r="14" fill="#6B7280"/>
      <text x="28" y="174" class="text-white" font-size="10" text-anchor="middle">W</text>
      <text x="52" y="162" class="text-dark" font-size="13" font-weight="500">blog.exemple.com</text>
      <text x="52" y="178" class="text-muted" font-size="11">Pro 2024</text>
      <rect x="210" y="158" width="46" height="18" rx="9" class="badge-ok"/>
      <text x="233" y="171" fill="#03543F" font-size="10" text-anchor="middle">Actif</text>

      <g transform="translate(12, 720)">
        <text x="0" y="18" class="text-muted" font-size="11">Page 1/2</text>
        <g transform="translate(120, 0)">
          <rect x="0" y="3" width="26" height="26" rx="4" stroke="#E5E7EB" fill="#FFFFFF"/>
          <text x="13" y="21" class="text-muted" font-size="11" text-anchor="middle">‹</text>
          <rect x="30" y="3" width="26" height="26" rx="4" class="bg-primary"/>
          <text x="43" y="21" class="text-white" font-size="11" text-anchor="middle">1</text>
          <rect x="60" y="3" width="26" height="26" rx="4" stroke="#E5E7EB" fill="#FFFFFF"/>
          <text x="73" y="21" class="text-muted" font-size="11" text-anchor="middle">2</text>
          <rect x="90" y="3" width="26" height="26" rx="4" stroke="#E5E7EB" fill="#FFFFFF"/>
          <text x="103" y="21" class="text-muted" font-size="11" text-anchor="middle">›</text>
        </g>
      </g>

      <!-- RIGHT PANEL -->
      <rect x="296" y="0" width="1096" height="780" rx="8" class="bg-white"/>
      <rect x="296" y="0" width="1096" height="780" rx="8" class="border"/>
      
      <!-- 1) NOM DU DOMAINE -->
      <text x="316" y="28" class="text-dark" font-size="18" font-weight="600">mon-site.fr</text>
      
      <!-- 2) NAV3 - SSL ACTIF -->
      <g transform="translate(316, 40)">
        <rect x="0" y="0" width="68" height="30" rx="4" class="btn-outline"/>
        <text x="34" y="20" class="text-primary" font-size="10" text-anchor="middle">Home</text>
        <rect x="70" y="0" width="68" height="30" rx="4" class="btn-outline"/>
        <text x="104" y="20" class="text-primary" font-size="10" text-anchor="middle">Multisite</text>
        <rect x="140" y="0" width="68" height="30" rx="4" class="btn-outline"/>
        <text x="174" y="20" class="text-primary" font-size="10" text-anchor="middle">FTP-SSH</text>
        <rect x="210" y="0" width="68" height="30" rx="4" class="btn-outline"/>
        <text x="244" y="20" class="text-primary" font-size="10" text-anchor="middle">Modules</text>
        <rect x="280" y="0" width="68" height="30" rx="4" class="btn-outline"/>
        <text x="314" y="20" class="text-primary" font-size="10" text-anchor="middle">Taches</text>
        <rect x="350" y="0" width="68" height="30" rx="4" class="btn-outline"/>
        <text x="384" y="20" class="text-primary" font-size="10" text-anchor="middle">Emails</text>
        <rect x="420" y="0" width="68" height="30" rx="4" class="btn-outline"/>
        <text x="454" y="20" class="text-primary" font-size="10" text-anchor="middle">Variables</text>
        <rect x="490" y="0" width="68" height="30" rx="4" class="btn-outline"/>
        <text x="524" y="20" class="text-primary" font-size="10" text-anchor="middle">Runtimes</text>
        <!-- SSL ACTIF -->
        <rect x="560" y="0" width="68" height="30" rx="4" class="bg-primary"/>
        <text x="594" y="20" class="text-white" font-size="10" text-anchor="middle">SSL</text>
        <rect x="630" y="0" width="68" height="30" rx="4" class="btn-outline"/>
        <text x="664" y="20" class="text-primary" font-size="10" text-anchor="middle">CDN</text>
        <rect x="700" y="0" width="68" height="30" rx="4" class="btn-outline"/>
        <text x="734" y="20" class="text-primary" font-size="10" text-anchor="middle">Boost</text>
        <rect x="770" y="0" width="68" height="30" rx="4" class="btn-outline"/>
        <text x="804" y="20" class="text-primary" font-size="10" text-anchor="middle">Logs</text>
        <rect x="840" y="0" width="68" height="30" rx="4" class="btn-outline"/>
        <text x="874" y="20" class="text-primary" font-size="10" text-anchor="middle">Plus</text>
      </g>
      
      <line x1="296" y1="80" x2="1392" y2="80" stroke="#E5E7EB"/>

      <!-- TAB CONTENT: SSL -->
      <g transform="translate(316, 95)">
        
        <!-- 3) BARRE D'ACTIONS -->
        <g transform="translate(0, 0)">
          <rect x="0" y="0" width="36" height="32" rx="4" stroke="#E5E7EB" fill="#FFFFFF"/>
          <text x="18" y="24" class="text-dark font-base" font-size="21" text-anchor="middle">↻</text>
          
          <rect x="46" y="0" width="220" height="32" rx="4" fill="#F9FAFB" stroke="#E5E7EB"/>
          <text x="60" y="21" class="text-muted font-base" font-size="11">Rechercher le nom de domaine...</text>
          
          <rect x="280" y="0" width="130" height="32" rx="4" class="btn-outline"/>
          <text x="300" y="21" class="text-primary font-base" font-size="11">Exporter en CSV</text>
          <text x="390" y="21" class="text-primary font-base" font-size="11">↓</text>
        </g>

        <!-- TABLEAU SSL -->
        <g transform="translate(0, 50)">
          <rect x="0" y="0" width="1052" height="340" rx="8" class="bg-white"/>
          <rect x="0" y="0" width="1052" height="340" rx="8" class="border"/>
          
          <!-- Header tableau -->
          <rect x="1" y="1" width="1050" height="40" rx="8" class="table-header"/>
          <text x="20" y="26" class="text-dark font-base" font-size="11" font-weight="600">Domaine principal</text>
          <text x="200" y="26" class="text-dark font-base" font-size="11" font-weight="600">Domaine suppl. (SAN)</text>
          <text x="380" y="26" class="text-dark font-base" font-size="11" font-weight="600">Type de certificat</text>
          <text x="580" y="26" class="text-dark font-base" font-size="11" font-weight="600">state</text>
          <text x="680" y="26" class="text-dark font-base" font-size="11" font-weight="600">creationDate</text>
          <text x="820" y="26" class="text-dark font-base" font-size="11" font-weight="600">expirationDate</text>
          <text x="960" y="26" class="text-dark font-base" font-size="11" font-weight="600">desactiver</text>
          <line x1="0" y1="41" x2="1052" y2="41" stroke="#E5E7EB"/>
          
          <!-- Row 1: www.jezby-ventures.com -->
          <g transform="translate(0, 41)">
            <rect x="1" y="0" width="1050" height="50" fill="#FFFFFF"/>
            <text x="20" y="30" class="text-primary font-base" font-size="12">www.jezby-ventures.com</text>
            <text x="200" y="30" class="text-muted font-base" font-size="12">-</text>
            <!-- Badge Let's Encrypt + icones sans bordure, bleu - ⟳ à 28px (+100%) -->
            <rect x="380" y="14" width="90" height="22" rx="4" class="badge-info"/>
            <text x="425" y="29" fill="#1E40AF" font-size="11" font-family="Source Sans Pro, sans-serif" text-anchor="middle">Let's Encrypt</text>
            <text x="485" y="34" class="text-primary font-base" font-size="28">⟳</text>
            <text x="520" y="30" class="text-primary font-base" font-size="14">↑</text>
            <!-- Badge Actif -->
            <rect x="580" y="14" width="50" height="22" rx="4" class="badge-ok"/>
            <text x="605" y="29" fill="#03543F" font-size="11" font-family="Source Sans Pro, sans-serif" text-anchor="middle">Actif</text>
            <text x="680" y="30" class="text-dark font-base" font-size="12">30/10/2025</text>
            <text x="820" y="30" class="text-dark font-base" font-size="12">28/01/2026</text>
            <!-- X desactiver bleu sans bordure -->
            <text x="985" y="30" class="text-primary font-base" font-size="14">✕</text>
            <line x1="0" y1="50" x2="1052" y2="50" stroke="#E5E7EB"/>
          </g>
          
          <!-- Row 2: jezby-ventures.com -->
          <g transform="translate(0, 91)">
            <rect x="1" y="0" width="1050" height="50" fill="#FFFFFF"/>
            <text x="20" y="30" class="text-primary font-base" font-size="12">jezby-ventures.com</text>
            <text x="200" y="30" class="text-muted font-base" font-size="12">-</text>
            <!-- Badge Let's Encrypt + icones sans bordure, bleu - ⟳ à 28px (+100%) -->
            <rect x="380" y="14" width="90" height="22" rx="4" class="badge-info"/>
            <text x="425" y="29" fill="#1E40AF" font-size="11" font-family="Source Sans Pro, sans-serif" text-anchor="middle">Let's Encrypt</text>
            <text x="485" y="34" class="text-primary font-base" font-size="28">⟳</text>
            <text x="520" y="30" class="text-primary font-base" font-size="14">↑</text>
            <!-- Badge Actif -->
            <rect x="580" y="14" width="50" height="22" rx="4" class="badge-ok"/>
            <text x="605" y="29" fill="#03543F" font-size="11" font-family="Source Sans Pro, sans-serif" text-anchor="middle">Actif</text>
            <text x="680" y="30" class="text-dark font-base" font-size="12">30/10/2025</text>
            <text x="820" y="30" class="text-dark font-base" font-size="12">28/01/2026</text>
            <!-- X desactiver bleu sans bordure -->
            <text x="985" y="30" class="text-primary font-base" font-size="14">✕</text>
            <line x1="0" y1="50" x2="1052" y2="50" stroke="#E5E7EB"/>
          </g>
          
          <!-- Row 3: blog.mon-site.fr -->
          <g transform="translate(0, 141)">
            <rect x="1" y="0" width="1050" height="50" fill="#FFFFFF"/>
            <text x="20" y="30" class="text-primary font-base" font-size="12">blog.mon-site.fr</text>
            <text x="200" y="30" class="text-muted font-base" font-size="12">-</text>
            <!-- Badge Let's Encrypt + icones sans bordure, bleu - ⟳ à 28px (+100%) -->
            <rect x="380" y="14" width="90" height="22" rx="4" class="badge-info"/>
            <text x="425" y="29" fill="#1E40AF" font-size="11" font-family="Source Sans Pro, sans-serif" text-anchor="middle">Let's Encrypt</text>
            <text x="485" y="34" class="text-primary font-base" font-size="28">⟳</text>
            <text x="520" y="30" class="text-primary font-base" font-size="14">↑</text>
            <!-- Badge Actif -->
            <rect x="580" y="14" width="50" height="22" rx="4" class="badge-ok"/>
            <text x="605" y="29" fill="#03543F" font-size="11" font-family="Source Sans Pro, sans-serif" text-anchor="middle">Actif</text>
            <text x="680" y="30" class="text-dark font-base" font-size="12">30/10/2025</text>
            <text x="820" y="30" class="text-dark font-base" font-size="12">28/01/2026</text>
            <!-- X desactiver bleu sans bordure -->
            <text x="985" y="30" class="text-primary font-base" font-size="14">✕</text>
            <line x1="0" y1="50" x2="1052" y2="50" stroke="#E5E7EB"/>
          </g>
        </g>

        <!-- Warning box -->
        <g transform="translate(0, 420)">
          <rect x="0" y="0" width="1052" height="55" rx="8" class="badge-warning-bg"/>
          <text x="20" y="22" fill="#92400E" font-size="12" font-family="Source Sans Pro, sans-serif">⚠️ Si vous avez ajoute des hebergements multisites il y a moins de deux heures,</text>
          <text x="20" y="42" fill="#92400E" font-size="12" font-family="Source Sans Pro, sans-serif">il est possible qu'ils ne soient pas inclus dans votre certificat SSL.</text>
        </g>

      </g>
    </g>
  </g>
</svg>
