<svg xmlns="http://www.w3.org/2000/svg" viewBox="0 0 1440 900" width="1440" height="900">
  <defs>
    <style>
      .bg-header { fill: #000E9C; }
      .bg-main { fill: #F6F6F9; }
      .bg-white { fill: #FFFFFF; }
      .bg-primary { fill: #0050D7; }
      .bg-info { fill: #DBEAFE; }
      .bg-success { fill: #DEF7EC; }
      .bg-warning { fill: #FEF3C7; }
      .border { stroke: #E5E7EB; stroke-width: 1; fill: none; }
      .divider { stroke: #E5E7EB; stroke-width: 1; }
      .btn-outline { stroke: #0050D7; stroke-width: 1; fill: #FFFFFF; }
      .btn-primary { fill: #0050D7; }
      .table-header { fill: #F9FAFB; }
      .row-hover { fill: #F9FAFB; }
      .text-white { fill: #FFFFFF; font-family: 'Source Sans Pro', sans-serif; }
      .text-dark { fill: #1F2937; font-family: 'Source Sans Pro', sans-serif; }
      .text-muted { fill: #6B7280; font-family: 'Source Sans Pro', sans-serif; }
      .text-primary { fill: #0050D7; font-family: 'Source Sans Pro', sans-serif; }
      .text-info { fill: #1E40AF; font-family: 'Source Sans Pro', sans-serif; }
      .text-success { fill: #03543F; font-family: 'Source Sans Pro', sans-serif; }
      .text-warning { fill: #92400E; font-family: 'Source Sans Pro', sans-serif; }
    </style>
  </defs>

  <rect width="1440" height="900" class="bg-main"/>

  <!-- NAV1 -->
  <rect width="1440" height="50" class="bg-header"/>
  <text x="40" y="30" class="text-white" font-size="14">Accueil</text>
  <text x="110" y="30" class="text-white" font-size="14">Public Cloud</text>
  <text x="210" y="30" class="text-white" font-size="14">Hosted Private Cloud</text>
  <text x="370" y="30" class="text-white" font-size="14">Bare Metal Cloud</text>
  <text x="510" y="30" class="text-white" font-size="14" font-weight="600">Web Cloud</text>
  <rect x="510" y="46" width="70" height="3" fill="#FFFFFF"/>
  <text x="620" y="30" class="text-white" font-size="14">Network</text>
  <text x="700" y="30" class="text-white" font-size="14">IAM / Sécurité</text>
  <text x="810" y="30" class="text-white" font-size="14">Licences</text>

  <!-- NAV2 -->
  <rect y="50" width="1440" height="40" class="bg-white"/>
  <line x1="0" y1="90" x2="1440" y2="90" class="divider"/>
  <text x="40" y="75" class="text-muted" font-size="14">Noms de domaine</text>
  <text x="170" y="75" class="text-muted" font-size="14">E-mails</text>
  <text x="240" y="75" class="text-primary" font-size="14" font-weight="600">Hébergement</text>
  <rect x="240" y="86" width="80" height="3" class="bg-primary"/>
  <text x="350" y="75" class="text-muted" font-size="14">Bases de données</text>
  <text x="480" y="75" class="text-muted" font-size="14">WordPress</text>

  <!-- MAIN CONTENT -->
  <g transform="translate(0, 105)">
    <g transform="translate(24, 0)">

      <!-- LEFT PANEL -->
      <rect x="0" y="0" width="280" height="780" rx="8" class="bg-white"/>
      <rect x="0" y="0" width="280" height="780" rx="8" class="border"/>
      <rect x="16" y="16" width="248" height="36" rx="4" fill="#F9FAFB" stroke="#E5E7EB"/>
      <text x="32" y="39" class="text-muted" font-size="12">Rechercher...</text>
      <rect x="0" y="68" width="280" height="40" fill="#E8F0FE"/>
      <text x="16" y="93" class="text-primary" font-size="13" font-weight="600">monsiteweb.com</text>

      <!-- RIGHT PANEL -->
      <rect x="296" y="0" width="1096" height="780" rx="8" class="bg-white"/>
      <rect x="296" y="0" width="1096" height="780" rx="8" class="border"/>

      <g transform="translate(316, 0)">
        <!-- HEADER -->
        <text x="0" y="35" class="text-dark" font-size="18" font-weight="600">Sauvegardes de la base mydatabase_db1</text>
        <text x="0" y="55" class="text-muted" font-size="12">monsiteweb.com</text>

        <!-- NAV3 TABS -->
        <g transform="translate(0, 75)">
          <text x="0" y="12" class="text-muted" font-size="9">Home</text>
          <text x="40" y="12" class="text-muted" font-size="9">Multisite</text>
          <text x="90" y="12" class="text-muted" font-size="9">FTP-SSH</text>
          <text x="140" y="12" class="text-muted" font-size="9">Modules</text>
          <text x="188" y="12" class="text-muted" font-size="9">Tâches</text>
          <text x="230" y="12" class="text-muted" font-size="9">Emails</text>
          <text x="275" y="12" class="text-muted" font-size="9">Variables</text>
          <text x="330" y="12" class="text-muted" font-size="9">Runtimes</text>
          <text x="385" y="12" class="text-muted" font-size="9">SSL</text>
          <text x="410" y="12" class="text-muted" font-size="9">CDN</text>
          <text x="440" y="12" class="text-muted" font-size="9">Boost</text>
          <text x="475" y="12" class="text-muted" font-size="9">Logs</text>
          <text x="505" y="12" class="text-primary" font-size="9" font-weight="600">BDD</text>
          <rect x="505" y="16" width="25" height="2" class="bg-primary"/>
          <text x="545" y="12" class="text-muted" font-size="9">BDD Cloud</text>
          <text x="605" y="12" class="text-muted" font-size="9">Cron</text>
          <text x="640" y="12" class="text-muted" font-size="9">SEO</text>
        </g>

        <line x1="0" y1="95" x2="1056" y2="95" class="divider"/>

        <!-- BANDEAU INFO -->
        <rect x="0" y="110" width="1056" height="50" rx="6" class="bg-info"/>
        <text x="20" y="133" class="text-info" font-size="11">Les sauvegardes automatiques sont conservées pendant 30 jours.</text>
        <text x="20" y="148" class="text-info" font-size="11">Vous pouvez également créer des sauvegardes manuelles à tout moment.</text>

        <!-- TOOLBAR -->
        <g transform="translate(0, 180)">
          <rect x="0" y="0" width="180" height="32" rx="4" class="btn-primary"/>
          <text x="90" y="21" class="text-white" font-size="11" text-anchor="middle">+ Créer une sauvegarde</text>
        </g>

        <!-- TABLE HEADER -->
        <g transform="translate(0, 230)">
          <rect x="0" y="0" width="1056" height="40" class="table-header"/>
          <text x="20" y="25" class="text-muted" font-size="11" font-weight="600">Date de création</text>
          <text x="220" y="25" class="text-muted" font-size="11" font-weight="600">Type</text>
          <text x="350" y="25" class="text-muted" font-size="11" font-weight="600">Taille</text>
          <text x="460" y="25" class="text-muted" font-size="11" font-weight="600">Statut</text>
          <text x="580" y="25" class="text-muted" font-size="11" font-weight="600">Expiration</text>
          <text x="720" y="25" class="text-muted" font-size="11" font-weight="600">Actions</text>
        </g>

        <!-- TABLE ROWS -->
        <g transform="translate(0, 270)">
          <!-- Row 1 -->
          <line x1="0" y1="0" x2="1056" y2="0" class="divider"/>
          <text x="20" y="28" class="text-dark" font-size="11">27 déc. 2025 - 03:00</text>
          <rect x="220" y="12" width="75" height="20" rx="4" class="bg-info"/>
          <text x="258" y="26" class="text-info" font-size="10" text-anchor="middle">Automatique</text>
          <text x="350" y="28" class="text-dark" font-size="11">45.2 Mo</text>
          <rect x="460" y="12" width="65" height="20" rx="4" class="bg-success"/>
          <text x="493" y="26" class="text-success" font-size="10" text-anchor="middle">Disponible</text>
          <text x="580" y="28" class="text-muted" font-size="11">26 janv. 2026</text>
          <text x="720" y="28" class="text-primary" font-size="11">Restaurer</text>
          <text x="800" y="28" class="text-primary" font-size="11">Télécharger</text>
          <text x="920" y="28" class="text-muted" font-size="14">⋮</text>

          <!-- Row 2 -->
          <g transform="translate(0, 45)">
            <line x1="0" y1="0" x2="1056" y2="0" class="divider"/>
            <text x="20" y="28" class="text-dark" font-size="11">26 déc. 2025 - 03:00</text>
            <rect x="220" y="12" width="75" height="20" rx="4" class="bg-info"/>
            <text x="258" y="26" class="text-info" font-size="10" text-anchor="middle">Automatique</text>
            <text x="350" y="28" class="text-dark" font-size="11">44.8 Mo</text>
            <rect x="460" y="12" width="65" height="20" rx="4" class="bg-success"/>
            <text x="493" y="26" class="text-success" font-size="10" text-anchor="middle">Disponible</text>
            <text x="580" y="28" class="text-muted" font-size="11">25 janv. 2026</text>
            <text x="720" y="28" class="text-primary" font-size="11">Restaurer</text>
            <text x="800" y="28" class="text-primary" font-size="11">Télécharger</text>
            <text x="920" y="28" class="text-muted" font-size="14">⋮</text>
          </g>

          <!-- Row 3 (Manuel) -->
          <g transform="translate(0, 90)">
            <line x1="0" y1="0" x2="1056" y2="0" class="divider"/>
            <text x="20" y="28" class="text-dark" font-size="11">24 déc. 2025 - 14:32</text>
            <rect x="220" y="12" width="55" height="20" rx="4" class="bg-warning"/>
            <text x="248" y="26" class="text-warning" font-size="10" text-anchor="middle">Manuel</text>
            <text x="350" y="28" class="text-dark" font-size="11">44.5 Mo</text>
            <rect x="460" y="12" width="65" height="20" rx="4" class="bg-success"/>
            <text x="493" y="26" class="text-success" font-size="10" text-anchor="middle">Disponible</text>
            <text x="580" y="28" class="text-muted" font-size="11">-</text>
            <text x="720" y="28" class="text-primary" font-size="11">Restaurer</text>
            <text x="800" y="28" class="text-primary" font-size="11">Télécharger</text>
            <text x="920" y="28" class="text-muted" font-size="14">⋮</text>
          </g>

          <!-- Row 4 -->
          <g transform="translate(0, 135)">
            <line x1="0" y1="0" x2="1056" y2="0" class="divider"/>
            <text x="20" y="28" class="text-dark" font-size="11">23 déc. 2025 - 03:00</text>
            <rect x="220" y="12" width="75" height="20" rx="4" class="bg-info"/>
            <text x="258" y="26" class="text-info" font-size="10" text-anchor="middle">Automatique</text>
            <text x="350" y="28" class="text-dark" font-size="11">43.9 Mo</text>
            <rect x="460" y="12" width="65" height="20" rx="4" class="bg-success"/>
            <text x="493" y="26" class="text-success" font-size="10" text-anchor="middle">Disponible</text>
            <text x="580" y="28" class="text-muted" font-size="11">22 janv. 2026</text>
            <text x="720" y="28" class="text-primary" font-size="11">Restaurer</text>
            <text x="800" y="28" class="text-primary" font-size="11">Télécharger</text>
            <text x="920" y="28" class="text-muted" font-size="14">⋮</text>
          </g>

          <!-- Row 5 -->
          <g transform="translate(0, 180)">
            <line x1="0" y1="0" x2="1056" y2="0" class="divider"/>
            <text x="20" y="28" class="text-dark" font-size="11">22 déc. 2025 - 03:00</text>
            <rect x="220" y="12" width="75" height="20" rx="4" class="bg-info"/>
            <text x="258" y="26" class="text-info" font-size="10" text-anchor="middle">Automatique</text>
            <text x="350" y="28" class="text-dark" font-size="11">43.5 Mo</text>
            <rect x="460" y="12" width="65" height="20" rx="4" class="bg-success"/>
            <text x="493" y="26" class="text-success" font-size="10" text-anchor="middle">Disponible</text>
            <text x="580" y="28" class="text-muted" font-size="11">21 janv. 2026</text>
            <text x="720" y="28" class="text-primary" font-size="11">Restaurer</text>
            <text x="800" y="28" class="text-primary" font-size="11">Télécharger</text>
            <text x="920" y="28" class="text-muted" font-size="14">⋮</text>
          </g>

          <line x1="0" y1="225" x2="1056" y2="225" class="divider"/>
        </g>

        <!-- PAGINATION -->
        <g transform="translate(0, 520)">
          <text x="0" y="15" class="text-muted" font-size="11">Affichage de 1 à 5 sur 30 sauvegardes</text>
          <g transform="translate(900, 0)">
            <rect x="0" y="0" width="32" height="28" rx="4" fill="#F9FAFB" stroke="#E5E7EB"/>
            <text x="16" y="19" class="text-muted" font-size="11" text-anchor="middle">‹</text>
            <rect x="40" y="0" width="32" height="28" rx="4" class="btn-primary"/>
            <text x="56" y="19" class="text-white" font-size="11" text-anchor="middle">1</text>
            <rect x="80" y="0" width="32" height="28" rx="4" fill="#F9FAFB" stroke="#E5E7EB"/>
            <text x="96" y="19" class="text-dark" font-size="11" text-anchor="middle">2</text>
            <rect x="120" y="0" width="32" height="28" rx="4" fill="#F9FAFB" stroke="#E5E7EB"/>
            <text x="136" y="19" class="text-muted" font-size="11" text-anchor="middle">›</text>
          </g>
        </g>
      </g>
    </g>
  </g>
</svg>
