<svg xmlns="http://www.w3.org/2000/svg" viewBox="0 0 1440 900" width="1440" height="900">
  <defs>
    <style>
      .bg-header { fill: #000E9C; }
      .bg-muted { fill: #F9FAFB; }
      .bg-white { fill: #FFFFFF; }
      .bg-primary { fill: #0050D7; }
      .bg-primary-light { fill: #E8F0FE; }
      .border { stroke: #E5E7EB; stroke-width: 1; fill: none; }
      .text-white { font-family: 'Source Sans Pro', sans-serif; fill: #FFFFFF; }
      .text-body { font-family: 'Source Sans Pro', sans-serif; font-size: 14px; fill: #1F2937; }
      .text-muted { font-family: 'Source Sans Pro', sans-serif; font-size: 13px; fill: #6B7280; }
      .text-mono { font-family: 'Consolas', monospace; font-size: 13px; fill: #1F2937; }
      .text-link { font-family: 'Source Sans Pro', sans-serif; font-size: 14px; fill: #0050D7; }
      .text-title { font-family: 'Source Sans Pro', sans-serif; font-size: 18px; font-weight: 600; fill: #1F2937; }
      .text-section { font-family: 'Source Sans Pro', sans-serif; font-size: 16px; font-weight: 600; fill: #1F2937; }
      .text-label { font-family: 'Source Sans Pro', sans-serif; font-size: 12px; fill: #6B7280; }
      .badge-success { fill: #DEF7EC; }
      .badge-success-text { font-family: 'Source Sans Pro', sans-serif; font-size: 12px; fill: #03543F; }
      .badge-info { fill: #E8F0FE; }
      .badge-info-text { font-family: 'Source Sans Pro', sans-serif; font-size: 12px; fill: #0050D7; }
      .badge-count { fill: #E5E7EB; }
      .badge-count-text { font-family: 'Source Sans Pro', sans-serif; font-size: 12px; fill: #1F2937; }
      .dot-running { fill: #10B981; }
      .dot-stopped { fill: #EF4444; }
      .btn-primary { fill: #0050D7; }
      .btn-secondary { fill: #FFFFFF; stroke: #E5E7EB; }
      .tab-active { fill: #0050D7; }
      .tab-inactive { fill: transparent; }
      .sidebar-item-active { fill: #E8F0FE; }
    </style>
  </defs>
  <rect width="1440" height="900" class="bg-muted"/>
  <rect width="1440" height="60" class="bg-header"/>
  <text x="24" y="38" class="text-white" font-size="20" font-weight="bold">OVHcloud</text>
  <text x="140" y="38" class="text-white" font-size="14">Manager</text>
  <rect x="0" y="60" width="280" height="840" class="bg-white"/>
  <line x1="280" y1="60" x2="280" y2="900" stroke="#E5E7EB" stroke-width="1"/>
  <text x="20" y="100" class="text-title">Serveurs dédiés</text>
  <rect x="160" y="86" width="28" height="20" rx="10" class="badge-count"/>
  <text x="174" y="100" class="badge-count-text" text-anchor="middle">3</text>
  <rect x="20" y="116" width="240" height="36" rx="4" class="bg-white"/>
  <rect x="20" y="116" width="240" height="36" rx="4" class="border"/>
  <text x="36" y="139" class="text-muted">Rechercher un serveur...</text>
  <rect x="12" y="164" width="256" height="56" rx="4" class="sidebar-item-active"/>
  <circle cx="28" cy="192" r="5" class="dot-running"/>
  <text x="44" y="187" class="text-body" font-weight="500">ns1234567.ip-12-34-56.eu</text>
  <text x="44" y="203" class="text-muted" font-size="12">Advance-1 | rbx1</text>
  <rect x="12" y="228" width="256" height="56" rx="4" fill="transparent"/>
  <circle cx="28" cy="256" r="5" class="dot-running"/>
  <text x="44" y="251" class="text-body">ns7654321.ip-98-76-54.eu</text>
  <text x="44" y="267" class="text-muted" font-size="12">Rise-1 | gra3</text>
  <rect x="12" y="292" width="256" height="56" rx="4" fill="transparent"/>
  <circle cx="28" cy="320" r="5" class="dot-stopped"/>
  <text x="44" y="315" class="text-body">ns9999999.ip-11-22-33.eu</text>
  <text x="44" y="331" class="text-muted" font-size="12">Scale-3 | sbg5</text>
  <g transform="translate(280, 60)">
    <rect width="1160" height="80" class="bg-white"/>
    <line x1="0" y1="80" x2="1160" y2="80" stroke="#E5E7EB" stroke-width="1"/>
    <text x="40" y="35" class="text-title" font-size="20">ns1234567.ip-12-34-56.eu</text>
    <text x="40" y="58" class="text-muted">Advance-1 | rbx1 | </text>
    <text x="168" y="58" class="badge-success-text">poweron</text>
    <rect x="980" y="20" width="100" height="36" rx="4" class="btn-primary"/>
    <text x="1030" y="43" class="text-white" font-size="14" text-anchor="middle">Redémarrer</text>
    <rect x="1092" y="20" width="36" height="36" rx="4" class="btn-secondary"/>
    <text x="1110" y="44" class="text-body" text-anchor="middle">↻</text>
    <g transform="translate(0, 80)">
      <rect width="1160" height="48" class="bg-white"/>
      <line x1="0" y1="48" x2="1160" y2="48" stroke="#E5E7EB" stroke-width="1"/>
      <text x="40" y="30" class="text-link" font-weight="500">Informations</text>
      <rect x="40" y="44" width="90" height="3" class="tab-active"/>
      <text x="160" y="30" class="text-muted">Réseau</text>
      <text x="240" y="30" class="text-muted">IPMI / KVM</text>
      <text x="340" y="30" class="text-muted">Interventions</text>
      <text x="460" y="30" class="text-muted">Opérations</text>
    </g>
    <g transform="translate(40, 148)">
      <text x="0" y="24" class="text-section">Informations générales</text>
      <g transform="translate(0, 44)">
        <text x="0" y="0" class="text-label">Nom</text>
        <text x="0" y="18" class="text-mono">ns1234567.ip-12-34-56.eu</text>
        <text x="280" y="0" class="text-label">IP principale</text>
        <text x="280" y="18" class="text-mono">12.34.56.78</text>
        <text x="560" y="0" class="text-label">Reverse</text>
        <text x="560" y="18" class="text-mono">ns1234567.ip-12-34-56.eu</text>
        <text x="0" y="50" class="text-label">Datacenter</text>
        <text x="0" y="68" class="text-body">rbx1</text>
        <text x="280" y="50" class="text-label">Baie</text>
        <text x="280" y="68" class="text-body">A42</text>
        <text x="560" y="50" class="text-label">Gamme</text>
        <text x="560" y="68" class="text-body">Advance-1</text>
        <text x="0" y="100" class="text-label">OS</text>
        <text x="0" y="118" class="text-body">Debian 12</text>
        <text x="280" y="100" class="text-label">État</text>
        <rect x="280" y="104" width="32" height="20" rx="4" class="badge-success"/>
        <text x="286" y="118" class="badge-success-text">ok</text>
        <text x="560" y="100" class="text-label">Alimentation</text>
        <rect x="560" y="104" width="64" height="20" rx="4" class="badge-success"/>
        <text x="566" y="118" class="badge-success-text">poweron</text>
        <text x="0" y="150" class="text-label">Support</text>
        <rect x="0" y="154" width="56" height="20" rx="4" class="badge-info"/>
        <text x="6" y="168" class="badge-info-text">standard</text>
        <text x="280" y="150" class="text-label">Monitoring</text>
        <rect x="280" y="154" width="24" height="20" rx="4" class="badge-success"/>
        <text x="286" y="168" class="badge-success-text">✓</text>
      </g>
      <text x="0" y="240" class="text-section">Matériel</text>
      <g transform="translate(0, 260)">
        <text x="0" y="0" class="text-label">Processeur</text>
        <text x="0" y="18" class="text-body">Intel Xeon E-2386G</text>
        <text x="280" y="0" class="text-label">Cœurs</text>
        <text x="280" y="18" class="text-body">1 x 6 cores (12 threads)</text>
        <text x="560" y="0" class="text-label">Architecture</text>
        <text x="560" y="18" class="text-body">x86_64</text>
        <text x="0" y="50" class="text-label">Mémoire</text>
        <text x="0" y="68" class="text-body">64 GB</text>
        <text x="280" y="50" class="text-label">Carte mère</text>
        <text x="280" y="68" class="text-body">X12STH-SYS</text>
        <text x="560" y="50" class="text-label">Mode boot</text>
        <text x="560" y="68" class="text-body">uefi</text>
        <text x="0" y="100" class="text-label">Disques</text>
        <text x="0" y="118" class="text-body">2x 512 GB SSD NVMe</text>
      </g>
      <text x="0" y="400" class="text-section">Service</text>
      <g transform="translate(0, 420)">
        <text x="0" y="0" class="text-label">Création</text>
        <text x="0" y="18" class="text-body">15/03/2024</text>
        <text x="280" y="0" class="text-label">Expiration</text>
        <text x="280" y="18" class="text-body">15/03/2025</text>
        <text x="560" y="0" class="text-label">Renouvellement auto</text>
        <rect x="560" y="4" width="24" height="20" rx="4" class="badge-success"/>
        <text x="566" y="18" class="badge-success-text">✓</text>
      </g>
    </g>
  </g>
</svg>
