<?xml version="1.0" encoding="UTF-8"?>
<svg width="1100" height="500" viewBox="0 0 1100 500" fill="none" xmlns="http://www.w3.org/2000/svg">
  <title>Dedicated Server - Secondary DNS</title>

  <!-- Background -->
  <rect width="1100" height="500" fill="#F9FAFB"/>

  <!-- Header -->
  <g transform="translate(30, 30)">
    <text x="0" y="0" fill="#1F2937" font-family="system-ui, sans-serif" font-size="22" font-weight="600">DNS Secondaire</text>
    <text x="0" y="30" fill="#6B7280" font-family="system-ui, sans-serif" font-size="13">Gérez les serveurs DNS secondaires pour vos domaines.</text>
  </g>

  <!-- Add button -->
  <g transform="translate(30, 100)">
    <rect x="0" y="0" width="200" height="40" rx="4" fill="#0050D7"/>
    <text x="25" y="27" fill="white" font-family="system-ui, sans-serif" font-size="14">+ Ajouter un domaine</text>
  </g>

  <!-- Table -->
  <g transform="translate(30, 170)">
    <rect x="0" y="0" width="1040" height="280" rx="8" fill="white" stroke="#E5E7EB"/>

    <!-- Table Header -->
    <g transform="translate(0, 0)">
      <rect x="0" y="0" width="1040" height="45" rx="8" fill="#F9FAFB"/>
      <text x="20" y="28" fill="#6B7280" font-family="system-ui, sans-serif" font-size="12" font-weight="500">Domaine</text>
      <text x="350" y="28" fill="#6B7280" font-family="system-ui, sans-serif" font-size="12" font-weight="500">IP du serveur DNS</text>
      <text x="600" y="28" fill="#6B7280" font-family="system-ui, sans-serif" font-size="12" font-weight="500">Date de création</text>
      <text x="850" y="28" fill="#6B7280" font-family="system-ui, sans-serif" font-size="12" font-weight="500">Actions</text>
    </g>

    <!-- Row 1 -->
    <g transform="translate(0, 50)">
      <line x1="0" y1="0" x2="1040" y2="0" stroke="#E5E7EB"/>
      <text x="20" y="35" fill="#1F2937" font-family="system-ui, sans-serif" font-size="13">example.com</text>
      <text x="350" y="35" fill="#1F2937" font-family="system-ui, sans-serif" font-size="13">203.0.113.10</text>
      <text x="600" y="35" fill="#1F2937" font-family="system-ui, sans-serif" font-size="13">15/06/2024</text>
      <!-- Action menu -->
      <g transform="translate(850, 15)">
        <rect x="0" y="0" width="80" height="32" rx="4" fill="white" stroke="#DC2626"/>
        <text x="15" y="22" fill="#DC2626" font-family="system-ui, sans-serif" font-size="12">Supprimer</text>
      </g>
    </g>

    <!-- Row 2 -->
    <g transform="translate(0, 110)">
      <line x1="0" y1="0" x2="1040" y2="0" stroke="#E5E7EB"/>
      <text x="20" y="35" fill="#1F2937" font-family="system-ui, sans-serif" font-size="13">sub.example.com</text>
      <text x="350" y="35" fill="#1F2937" font-family="system-ui, sans-serif" font-size="13">203.0.113.10</text>
      <text x="600" y="35" fill="#1F2937" font-family="system-ui, sans-serif" font-size="13">20/09/2024</text>
      <!-- Action menu -->
      <g transform="translate(850, 15)">
        <rect x="0" y="0" width="80" height="32" rx="4" fill="white" stroke="#DC2626"/>
        <text x="15" y="22" fill="#DC2626" font-family="system-ui, sans-serif" font-size="12">Supprimer</text>
      </g>
    </g>

    <!-- Row 3 -->
    <g transform="translate(0, 170)">
      <line x1="0" y1="0" x2="1040" y2="0" stroke="#E5E7EB"/>
      <text x="20" y="35" fill="#1F2937" font-family="system-ui, sans-serif" font-size="13">mysite.org</text>
      <text x="350" y="35" fill="#1F2937" font-family="system-ui, sans-serif" font-size="13">203.0.113.20</text>
      <text x="600" y="35" fill="#1F2937" font-family="system-ui, sans-serif" font-size="13">01/12/2024</text>
      <!-- Action menu -->
      <g transform="translate(850, 15)">
        <rect x="0" y="0" width="80" height="32" rx="4" fill="white" stroke="#DC2626"/>
        <text x="15" y="22" fill="#DC2626" font-family="system-ui, sans-serif" font-size="12">Supprimer</text>
      </g>
    </g>
  </g>

  <!-- Pagination -->
  <g transform="translate(30, 470)">
    <text x="0" y="0" fill="#6B7280" font-family="system-ui, sans-serif" font-size="12">1 - 3 sur 3</text>
  </g>
</svg>
