<svg xmlns="http://www.w3.org/2000/svg" viewBox="0 0 1100 400" width="1100" height="400">
  <defs>
    <style>
      .bg-page { fill: #F9FAFB; }
      .bg-white { fill: #FFFFFF; }
      .bg-header { fill: #000E9C; }
      .text-white { fill: #FFFFFF; font-family: 'Source Sans Pro', sans-serif; }
      .text-body { fill: #1F2937; font-family: 'Source Sans Pro', sans-serif; font-size: 14px; }
      .text-muted { fill: #6B7280; font-family: 'Source Sans Pro', sans-serif; font-size: 13px; }
      .text-link { fill: #0050D7; font-family: 'Source Sans Pro', sans-serif; font-size: 14px; }
      .border { stroke: #E5E7EB; stroke-width: 1; fill: none; }
      .table-header { fill: #F3F4F6; }
    </style>
  </defs>

  <!-- Background -->
  <rect width="1100" height="400" class="bg-page"/>

  <!-- Header OVHcloud -->
  <rect width="1100" height="56" class="bg-header"/>
  <text x="20" y="35" class="text-white" font-size="18" font-weight="bold">OVHcloud</text>

  <!-- Title -->
  <g transform="translate(40, 80)">
    <text class="text-body" font-size="20" font-weight="600">Flux de donnees</text>
    <text y="25" class="text-muted" font-size="13">Configurez les exports de logs vers Logs Data Platform</text>
  </g>

  <!-- Table container -->
  <g transform="translate(40, 135)">
    <rect width="1020" height="230" rx="8" class="bg-white"/>
    <rect width="1020" height="230" rx="8" class="border"/>

    <!-- Table header -->
    <g transform="translate(0, 0)">
      <rect width="1020" height="40" rx="8 8 0 0" class="table-header"/>
      <text x="25" y="26" class="text-body" font-size="13" font-weight="500">Nom</text>
      <text x="300" y="26" class="text-body" font-size="13" font-weight="500">Type</text>
      <text x="500" y="26" class="text-body" font-size="13" font-weight="500">Compte LDP</text>
      <text x="750" y="26" class="text-body" font-size="13" font-weight="500">Statut</text>
      <text x="920" y="26" class="text-body" font-size="13" font-weight="500">Actions</text>
    </g>

    <!-- Row 1 -->
    <g transform="translate(0, 40)">
      <line x1="0" y1="0" x2="1020" y2="0" class="border"/>
      <text x="25" y="30" class="text-link">iplb-access-logs</text>
      <text x="300" y="30" class="text-body" font-size="13">HTTP</text>
      <text x="500" y="30" class="text-body" font-size="13">logs-123abc</text>
      <rect x="750" y="15" width="60" height="22" rx="4" fill="#DCFCE7"/>
      <text x="780" y="30" text-anchor="middle" fill="#16A34A" font-size="11">Actif</text>
      <text x="920" y="30" class="text-muted" font-size="16">⋮</text>
    </g>

    <!-- Row 2 -->
    <g transform="translate(0, 95)">
      <line x1="0" y1="0" x2="1020" y2="0" class="border"/>
      <text x="25" y="30" class="text-link">iplb-error-logs</text>
      <text x="300" y="30" class="text-body" font-size="13">TCP</text>
      <text x="500" y="30" class="text-body" font-size="13">logs-456def</text>
      <rect x="750" y="15" width="60" height="22" rx="4" fill="#DCFCE7"/>
      <text x="780" y="30" text-anchor="middle" fill="#16A34A" font-size="11">Actif</text>
      <text x="920" y="30" class="text-muted" font-size="16">⋮</text>
    </g>

    <!-- Row 3 -->
    <g transform="translate(0, 150)">
      <line x1="0" y1="0" x2="1020" y2="0" class="border"/>
      <text x="25" y="30" class="text-link">iplb-health-logs</text>
      <text x="300" y="30" class="text-body" font-size="13">HTTP</text>
      <text x="500" y="30" class="text-body" font-size="13">logs-789ghi</text>
      <rect x="750" y="15" width="70" height="22" rx="4" fill="#FEF3C7"/>
      <text x="785" y="30" text-anchor="middle" fill="#92400E" font-size="11">En pause</text>
      <text x="920" y="30" class="text-muted" font-size="16">⋮</text>
    </g>
  </g>
</svg>
