<svg xmlns="http://www.w3.org/2000/svg" viewBox="0 0 1100 480" width="1100" height="480">
  <defs>
    <style>
      .bg-page { fill: #F9FAFB; }
      .bg-white { fill: #FFFFFF; }
      .bg-header { fill: #000E9C; }
      .text-white { fill: #FFFFFF; font-family: 'Source Sans Pro', sans-serif; }
      .text-body { fill: #1F2937; font-family: 'Source Sans Pro', sans-serif; font-size: 14px; }
      .text-muted { fill: #6B7280; font-family: 'Source Sans Pro', sans-serif; font-size: 13px; }
      .text-link { fill: #0050D7; font-family: 'Source Sans Pro', sans-serif; font-size: 14px; }
      .border { stroke: #E5E7EB; stroke-width: 1; fill: none; }
      .table-header { fill: #F3F4F6; }
    </style>
  </defs>

  <!-- Background -->
  <rect width="1100" height="480" class="bg-page"/>

  <!-- Header OVHcloud -->
  <rect width="1100" height="56" class="bg-header"/>
  <text x="20" y="35" class="text-white" font-size="18" font-weight="bold">OVHcloud</text>

  <!-- Title -->
  <g transform="translate(40, 80)">
    <text class="text-body" font-size="18" font-weight="600">Frontends</text>
    <text y="25" class="text-muted" font-size="13">Gerez les points d'entree de votre Load Balancer</text>
  </g>

  <!-- Add button -->
  <g transform="translate(40, 130)">
    <rect width="140" height="36" rx="4" fill="#FFFFFF" stroke="#E5E7EB"/>
    <text x="70" y="23" text-anchor="middle" class="text-body" font-size="13">Ajouter un frontend</text>
  </g>

  <!-- Table container -->
  <g transform="translate(40, 180)">
    <rect width="1020" height="270" rx="8" class="bg-white"/>
    <rect width="1020" height="270" rx="8" class="border"/>

    <!-- Table header -->
    <g transform="translate(0, 0)">
      <rect width="1020" height="45" rx="8 8 0 0" class="table-header"/>
      <text x="25" y="29" class="text-body" font-size="13" font-weight="500">Frontend</text>
      <text x="220" y="29" class="text-body" font-size="13" font-weight="500">Protocole</text>
      <text x="380" y="29" class="text-body" font-size="13" font-weight="500">Datacenter</text>
      <text x="560" y="29" class="text-body" font-size="13" font-weight="500">Ferme par defaut</text>
      <text x="760" y="29" class="text-body" font-size="13" font-weight="500">Actif</text>
      <text x="920" y="29" class="text-body" font-size="13" font-weight="500">Actions</text>
    </g>

    <!-- Row 1 -->
    <g transform="translate(0, 45)">
      <line x1="0" y1="0" x2="1020" y2="0" class="border"/>
      <text x="25" y="35" class="text-link">frontend-https (654321)</text>
      <text x="220" y="35" class="text-body" font-size="13">HTTPS: 443</text>
      <text x="380" y="35" class="text-body" font-size="13">GRA (Gravelines)</text>
      <text x="560" y="35" class="text-body" font-size="13">farm-backend-prod</text>
      <!-- Toggle switch ON -->
      <g transform="translate(760, 18)">
        <rect width="40" height="22" rx="11" fill="#0050D7"/>
        <circle cx="29" cy="11" r="8" fill="white"/>
      </g>
      <!-- Action menu OPEN -->
      <g transform="translate(920, 15)">
        <text class="text-muted" font-size="16">⋮</text>
        <g transform="translate(-80, 25)">
          <rect width="120" height="95" rx="4" fill="#FFFFFF" stroke="#E5E7EB" filter="drop-shadow(0 2px 4px rgba(0,0,0,0.1))"/>
          <text x="15" y="25" class="text-body" font-size="12">Voir l'apercu</text>
          <line x1="0" y1="35" x2="120" y2="35" stroke="#E5E7EB"/>
          <text x="15" y="55" class="text-body" font-size="12">Modifier</text>
          <text x="15" y="80" fill="#DC2626" font-family="Source Sans Pro" font-size="12">Supprimer</text>
        </g>
      </g>
    </g>

    <!-- Row 2 -->
    <g transform="translate(0, 105)">
      <line x1="0" y1="0" x2="1020" y2="0" class="border"/>
      <text x="25" y="35" class="text-link">frontend-http (654322)</text>
      <text x="220" y="35" class="text-body" font-size="13">HTTP: 80</text>
      <text x="380" y="35" class="text-body" font-size="13">SBG (Strasbourg)</text>
      <text x="560" y="35" class="text-body" font-size="13">farm-backend-staging</text>
      <!-- Toggle switch OFF -->
      <g transform="translate(760, 18)">
        <rect width="40" height="22" rx="11" fill="#E5E7EB"/>
        <circle cx="11" cy="11" r="8" fill="white"/>
      </g>
      <text x="920" y="35" class="text-muted" font-size="16">⋮</text>
    </g>

    <!-- Row 3 -->
    <g transform="translate(0, 165)">
      <line x1="0" y1="0" x2="1020" y2="0" class="border"/>
      <text x="25" y="35" class="text-link">frontend-tcp (654323)</text>
      <text x="220" y="35" class="text-body" font-size="13">TCP: 8080</text>
      <text x="380" y="35" class="text-body" font-size="13">RBX (Roubaix)</text>
      <text x="560" y="35" class="text-body" font-size="13">-</text>
      <!-- Toggle switch ON -->
      <g transform="translate(760, 18)">
        <rect width="40" height="22" rx="11" fill="#0050D7"/>
        <circle cx="29" cy="11" r="8" fill="white"/>
      </g>
      <text x="920" y="35" class="text-muted" font-size="16">⋮</text>
    </g>
  </g>
</svg>
