<svg xmlns="http://www.w3.org/2000/svg" viewBox="0 0 1200 550" width="1200" height="550">
  <defs>
    <style>
      .bg-page { fill: #F9FAFB; }
      .bg-white { fill: #FFFFFF; }
      .bg-header { fill: #000E9C; }
      .text-white { fill: #FFFFFF; font-family: 'Source Sans Pro', sans-serif; }
      .text-body { fill: #1F2937; font-family: 'Source Sans Pro', sans-serif; font-size: 14px; }
      .text-muted { fill: #6B7280; font-family: 'Source Sans Pro', sans-serif; font-size: 13px; }
      .text-link { fill: #0050D7; font-family: 'Source Sans Pro', sans-serif; font-size: 14px; }
      .border { stroke: #E5E7EB; stroke-width: 1; fill: none; }
    </style>
  </defs>

  <!-- Background -->
  <rect width="1200" height="550" class="bg-page"/>

  <!-- Header OVHcloud -->
  <rect width="1200" height="56" class="bg-header"/>
  <text x="20" y="35" class="text-white" font-size="18" font-weight="bold">OVHcloud</text>

  <!-- Title -->
  <g transform="translate(40, 80)">
    <text class="text-body" font-size="22" font-weight="600">Frontends</text>
    <text y="25" class="text-muted" font-size="13">Configurez les points d'entree de votre Load Balancer</text>
  </g>

  <!-- Add button -->
  <g transform="translate(40, 140)">
    <rect width="160" height="36" rx="4" class="bg-white"/>
    <rect width="160" height="36" rx="4" class="border"/>
    <text x="80" y="23" text-anchor="middle" class="text-link" font-size="13">+ Ajouter un frontend</text>
  </g>

  <!-- Datagrid -->
  <g transform="translate(40, 195)">
    <rect width="1120" height="320" rx="8" class="bg-white"/>
    <rect width="1120" height="320" rx="8" class="border"/>

    <!-- Table header -->
    <g transform="translate(0, 0)">
      <rect width="1120" height="45" rx="8 8 0 0" fill="#F9FAFB"/>
      <line x1="0" y1="45" x2="1120" y2="45" class="border"/>
      
      <text x="30" y="28" class="text-body" font-size="12" font-weight="600">Frontend</text>
      <text x="250" y="28" class="text-body" font-size="12" font-weight="600">Protocole</text>
      <text x="420" y="28" class="text-body" font-size="12" font-weight="600">Datacenter</text>
      <text x="600" y="28" class="text-body" font-size="12" font-weight="600">Farm par defaut</text>
      <text x="800" y="28" class="text-body" font-size="12" font-weight="600">Actif</text>
      <text x="1050" y="28" class="text-body" font-size="12" font-weight="600">⋮</text>
    </g>

    <!-- Row 1 -->
    <g transform="translate(0, 45)">
      <rect width="1120" height="55" class="bg-white"/>
      <line x1="0" y1="55" x2="1120" y2="55" class="border"/>
      
      <text x="30" y="32" class="text-link" font-size="13">frontend-https (12345)</text>
      <text x="250" y="32" class="text-body" font-size="13">HTTPS : 443</text>
      <text x="420" y="32" class="text-body" font-size="13">Gravelines (GRA)</text>
      <text x="600" y="32" class="text-body" font-size="13">farm-web-prod</text>
      <!-- Toggle ON -->
      <g transform="translate(800, 18)">
        <rect width="40" height="20" rx="10" fill="#0050D7"/>
        <circle cx="27" cy="10" r="7" fill="white"/>
      </g>
      <text x="1050" y="32" class="text-muted" font-size="16">⋮</text>
    </g>

    <!-- Row 2 -->
    <g transform="translate(0, 100)">
      <rect width="1120" height="55" class="bg-white"/>
      <line x1="0" y1="55" x2="1120" y2="55" class="border"/>
      
      <text x="30" y="32" class="text-link" font-size="13">frontend-http (12346)</text>
      <text x="250" y="32" class="text-body" font-size="13">HTTP : 80</text>
      <text x="420" y="32" class="text-body" font-size="13">Gravelines (GRA)</text>
      <text x="600" y="32" class="text-body" font-size="13">farm-web-prod</text>
      <!-- Toggle ON -->
      <g transform="translate(800, 18)">
        <rect width="40" height="20" rx="10" fill="#0050D7"/>
        <circle cx="27" cy="10" r="7" fill="white"/>
      </g>
      <text x="1050" y="32" class="text-muted" font-size="16">⋮</text>
    </g>

    <!-- Row 3 -->
    <g transform="translate(0, 155)">
      <rect width="1120" height="55" class="bg-white"/>
      <line x1="0" y1="55" x2="1120" y2="55" class="border"/>
      
      <text x="30" y="32" class="text-link" font-size="13">frontend-api (12347)</text>
      <text x="250" y="32" class="text-body" font-size="13">TCP : 8080</text>
      <text x="420" y="32" class="text-body" font-size="13">Roubaix (RBX)</text>
      <text x="600" y="32" class="text-body" font-size="13">farm-api</text>
      <!-- Toggle OFF -->
      <g transform="translate(800, 18)">
        <rect width="40" height="20" rx="10" fill="#E5E7EB"/>
        <circle cx="13" cy="10" r="7" fill="white"/>
      </g>
      <text x="1050" y="32" class="text-muted" font-size="16">⋮</text>
    </g>

    <!-- Pagination -->
    <g transform="translate(30, 280)">
      <text class="text-muted" font-size="12">Affichage 1-3 sur 3 frontends</text>
    </g>
  </g>
</svg>
