<svg xmlns="http://www.w3.org/2000/svg" viewBox="0 0 1440 900" width="1440" height="900">
  <defs>
    <style>
      .bg-muted { fill: #F9FAFB; }
      .bg-white { fill: #FFFFFF; }
      .bg-header { fill: #000E9C; }
      .bg-primary { fill: #0050D7; }
      .text-body { font-family: 'Source Sans Pro', sans-serif; font-size: 14px; fill: #1F2937; }
      .text-muted { font-family: 'Source Sans Pro', sans-serif; font-size: 14px; fill: #6B7280; }
      .text-white { font-family: 'Source Sans Pro', sans-serif; fill: #FFFFFF; }
      .text-primary { font-family: 'Source Sans Pro', sans-serif; fill: #0050D7; }
      .border { stroke: #E5E7EB; stroke-width: 1; fill: none; }
      .badge-count { fill: #DBEAFE; }
      .badge-count-text { font-family: 'Source Sans Pro', sans-serif; font-size: 12px; fill: #1E40AF; }
      .lb-item { fill: #FFFFFF; }
      .lb-item-active { fill: #E8F0FE; }
      .status-dot-ok { fill: #10B981; }
      .status-dot-warning { fill: #F59E0B; }
    </style>
  </defs>
  <rect width="1440" height="900" class="bg-muted"/>
  <rect width="1440" height="60" class="bg-header"/>
  <text x="80" y="38" class="text-white" font-size="20" font-weight="bold">OVHcloud</text>
  <rect x="0" y="60" width="240" height="840" class="bg-white"/>
  <rect x="240" y="60" width="1" height="840" fill="#E5E7EB"/>
  <text x="20" y="100" class="text-muted" font-size="12" font-weight="600">NETWORK</text>
  <text x="20" y="130" class="text-body" font-size="14">IP</text>
  <text x="20" y="160" class="text-body" font-size="14">vRack</text>
  <rect x="0" y="175" width="240" height="40" fill="#E8F0FE"/>
  <text x="20" y="200" class="text-primary" font-size="14">⚖️ Load Balancer</text>
  <g transform="translate(240, 60)">
    <rect x="0" y="0" width="300" height="840" class="bg-white"/>
    <rect x="300" y="0" width="1" height="840" fill="#E5E7EB"/>
    <g transform="translate(20, 20)">
      <text x="0" y="20" class="text-body" font-size="16" font-weight="600">Load Balancers</text>
      <rect x="130" y="5" width="28" height="24" rx="12" class="badge-count"/>
      <text x="138" y="21" class="badge-count-text">4</text>
    </g>
    <rect x="20" y="60" width="260" height="40" rx="6" fill="#F9FAFB" stroke="#E5E7EB"/>
    <text x="40" y="85" class="text-muted" font-size="13">🔍 Rechercher...</text>
    <rect x="0" y="115" width="300" height="70" class="lb-item-active"/>
    <circle cx="30" cy="150" r="6" class="status-dot-ok"/>
    <text x="50" y="145" class="text-body" font-size="14" font-weight="500">Production LB</text>
    <text x="50" y="165" class="text-muted" font-size="12">gra, rbx | Business</text>
    <rect x="0" y="185" width="300" height="70" class="lb-item"/>
    <line x1="0" y1="255" x2="300" y2="255" stroke="#E5E7EB"/>
    <circle cx="30" cy="220" r="6" class="status-dot-ok"/>
    <text x="50" y="215" class="text-body" font-size="14" font-weight="500">Staging LB</text>
    <text x="50" y="235" class="text-muted" font-size="12">gra | Standard</text>
    <rect x="0" y="255" width="300" height="70" class="lb-item"/>
    <line x1="0" y1="325" x2="300" y2="325" stroke="#E5E7EB"/>
    <circle cx="30" cy="290" r="6" class="status-dot-warning"/>
    <text x="50" y="285" class="text-body" font-size="14" font-weight="500">Dev LB</text>
    <text x="50" y="305" class="text-muted" font-size="12">rbx | Standard</text>
    <rect x="0" y="325" width="300" height="70" class="lb-item"/>
    <circle cx="30" cy="360" r="6" class="status-dot-ok"/>
    <text x="50" y="355" class="text-body" font-size="14" font-weight="500">API Gateway LB</text>
    <text x="50" y="375" class="text-muted" font-size="12">gra, sbg | Enterprise</text>
    <g transform="translate(300, 0)">
      <rect x="0" y="0" width="900" height="840" class="bg-muted"/>
      <rect x="0" y="0" width="900" height="120" class="bg-white"/>
      <text x="40" y="50" class="text-body" font-size="24" font-weight="bold">Production LB</text>
      <text x="40" y="80" class="text-muted" font-size="14">IP: 51.210.xxx.xxx | Zones: gra, rbx | </text>
      <text x="295" y="80" fill="#10B981" font-size="14">ok</text>
      <rect x="750" y="35" width="110" height="40" rx="6" fill="#FFFFFF" stroke="#E5E7EB"/>
      <text x="775" y="60" class="text-body" font-size="13">↻ Rafraîchir</text>
      <rect x="0" y="120" width="900" height="50" class="bg-white"/>
      <text x="60" y="150" class="text-primary" font-size="14" font-weight="600">Farms</text>
      <rect x="45" y="166" width="55" height="3" class="bg-primary"/>
      <text x="140" y="150" class="text-muted" font-size="14">Frontends</text>
      <rect x="20" y="190" width="860" height="600" rx="8" class="bg-white"/>
      <rect x="20" y="190" width="860" height="600" rx="8" class="border"/>
      <text x="40" y="235" class="text-body" font-size="18" font-weight="600">Farms</text>
      <rect x="95" y="218" width="24" height="24" rx="12" class="badge-count"/>
      <text x="103" y="234" class="badge-count-text">3</text>
      <rect x="40" y="260" width="820" height="60" rx="6" fill="#F9FAFB" stroke="#E5E7EB"/>
      <text x="70" y="295" class="text-body" font-size="14" font-weight="500">Web Backend</text>
      <text x="200" y="295" class="text-muted" font-size="12">gra-rbx | roundrobin | :80</text>
      <rect x="40" y="335" width="820" height="60" rx="6" fill="#F9FAFB" stroke="#E5E7EB"/>
      <text x="70" y="370" class="text-body" font-size="14" font-weight="500">API Backend</text>
      <text x="180" y="370" class="text-muted" font-size="12">gra | leastconn | :443</text>
      <rect x="40" y="410" width="820" height="60" rx="6" fill="#F9FAFB" stroke="#E5E7EB"/>
      <text x="70" y="445" class="text-body" font-size="14" font-weight="500">WebSocket Backend</text>
      <text x="230" y="445" class="text-muted" font-size="12">rbx | source | :8443</text>
    </g>
  </g>
</svg>
