<svg xmlns="http://www.w3.org/2000/svg" viewBox="0 0 1440 950" width="1440" height="950">
  <defs>
    <style>
      .bg-muted { fill: #F9FAFB; }
      .bg-white { fill: #FFFFFF; }
      .bg-header { fill: #000E9C; }
      .text-body { font-family: 'Source Sans Pro', sans-serif; font-size: 14px; fill: #1F2937; }
      .text-muted { font-family: 'Source Sans Pro', sans-serif; font-size: 14px; fill: #6B7280; }
      .text-white { font-family: 'Source Sans Pro', sans-serif; fill: #FFFFFF; }
      .text-link { font-family: 'Source Sans Pro', sans-serif; font-size: 14px; fill: #0050D7; }
      .text-h1 { font-family: 'Source Sans Pro', sans-serif; font-size: 24px; font-weight: 600; fill: #1F2937; }
      .text-h2 { font-family: 'Source Sans Pro', sans-serif; font-size: 16px; font-weight: 600; fill: #1F2937; }
      .text-small { font-family: 'Source Sans Pro', sans-serif; font-size: 12px; fill: #6B7280; }
      .border { stroke: #E5E7EB; stroke-width: 1; fill: none; }
      .tab-border { stroke: #0050D7; stroke-width: 2; }
      .bg-table-header { fill: #F3F4F6; }
      .btn-primary { fill: #0050D7; }
      .btn-icon { fill: #F3F4F6; }
      .warning-bg { fill: #FEF3C7; }
      .warning-border { stroke: #F59E0B; }
      .warning-text { font-family: 'Source Sans Pro', sans-serif; font-size: 13px; fill: #92400E; }
    </style>
  </defs>
  
  <!-- Background -->
  <rect width="1440" height="950" class="bg-muted"/>
  
  <!-- Header OVHcloud -->
  <rect width="1440" height="60" class="bg-header"/>
  <text x="80" y="38" class="text-white" font-size="20" font-weight="bold">OVHcloud</text>
  <text x="200" y="38" class="text-white" font-size="14">Bare Metal Cloud</text>
  
  <!-- Sidebar -->
  <rect x="0" y="60" width="240" height="890" class="bg-white"/>
  <rect x="240" y="60" width="1" height="890" fill="#E5E7EB"/>
  <text x="20" y="100" class="text-muted" font-size="12" font-weight="600">STOCKAGE ET SAUVEGARDE</text>
  <rect x="0" y="110" width="240" height="40" fill="#E8F0FE"/>
  <text x="20" y="136" class="text-link" font-weight="600">NAS-HA</text>
  
  <!-- Main Content -->
  <g transform="translate(280, 80)">
    <!-- Breadcrumb -->
    <text x="0" y="20" class="text-muted" font-size="13">Bare Metal Cloud / NAS-HA / zpool-123456 /</text>
    <text x="260" y="20" class="text-body" font-size="13">partition_prod</text>
    
    <!-- Title -->
    <text x="0" y="60" class="text-h1">partition_prod</text>
    <text x="0" y="85" class="text-muted">zpool-123456</text>
    
    <!-- Tabs -->
    <g transform="translate(0, 100)">
      <text x="0" y="20" class="text-body">Informations générales</text>
      <text x="180" y="20" class="text-link" font-weight="600">Snapshot policies</text>
      <line x1="180" y1="30" x2="295" y2="30" class="tab-border"/>
      <text x="330" y="20" class="text-body">Contrôle d'accès (ACL)</text>
    </g>
    
    <!-- Page Header -->
    <g transform="translate(0, 150)">
      <text x="0" y="0" class="text-h2">Gérer les Snapshot policies</text>
      <text x="0" y="25" class="text-muted" font-size="13">Créez et gérez facilement vos règles de snapshots, en matière de périodicité ou de durée de rétention.</text>
      <text x="0" y="45" class="text-muted" font-size="13">Les snapshots utilisent la capacité de stockage de votre solution NAS-HA.</text>
    </g>
    
    <!-- Warning banner -->
    <g transform="translate(0, 210)">
      <rect x="0" y="0" width="1100" height="60" rx="6" class="warning-bg"/>
      <rect x="0" y="0" width="1100" height="60" rx="6" class="warning-border" fill="none"/>
      <text x="20" y="25" class="warning-text">⚠ 20% d'espace additionnel vous est fourni pour vos snapshots.</text>
      <text x="20" y="45" class="warning-text">Dans le cas où vous dépasseriez cet espace, les snapshots seront stockés sur votre espace de stockage primaire.</text>
      <text x="1060" y="30" class="text-muted" font-size="16">✕</text>
    </g>
    
    <!-- Snapshot count -->
    <g transform="translate(0, 290)">
      <text x="0" y="0" class="text-body" font-weight="600">Nombre de snapshots</text>
      <text x="0" y="20" class="text-body">12 (maximum: 100)</text>
    </g>
    
    <!-- Create button -->
    <rect x="0" y="330" width="200" height="36" rx="4" class="btn-primary"/>
    <text x="20" y="353" class="text-white" font-size="14">+ Créer un Snapshot manuel</text>
    
    <!-- Subtitle -->
    <text x="0" y="400" class="text-h2">Détails des Snapshot policies</text>
    
    <!-- Table -->
    <g transform="translate(0, 420)">
      <rect x="0" y="0" width="1100" height="300" rx="8" class="bg-white"/>
      <rect x="0" y="0" width="1100" height="300" rx="8" class="border"/>
      
      <!-- Table Header -->
      <rect x="1" y="1" width="1098" height="44" rx="7" class="bg-table-header"/>
      <text x="20" y="28" class="text-body" font-weight="600">Type</text>
      <text x="300" y="28" class="text-body" font-weight="600">Nom</text>
      <text x="600" y="28" class="text-body" font-weight="600">Options</text>
      
      <!-- Row 1: Fréquences -->
      <line x1="1" y1="45" x2="1099" y2="45" stroke="#E5E7EB"/>
      <text x="20" y="80" class="text-body">Fréquences</text>
      <text x="300" y="80" class="text-body">-</text>
      
      <!-- Dropdown for frequencies -->
      <rect x="600" y="60" width="300" height="32" rx="4" class="bg-white"/>
      <rect x="600" y="60" width="300" height="32" rx="4" class="border"/>
      <text x="615" y="81" class="text-body">Toutes les heures, Tous les jours</text>
      <text x="880" y="81" class="text-muted">▼</text>
      
      <!-- Action buttons -->
      <rect x="920" y="62" width="32" height="28" rx="4" class="btn-icon"/>
      <text x="930" y="81" class="text-link">✓</text>
      <rect x="960" y="62" width="32" height="28" rx="4" class="btn-icon"/>
      <text x="970" y="81" class="text-muted">✕</text>
      
      <!-- Row 2: Snapshot manuel 1 -->
      <line x1="1" y1="105" x2="1099" y2="105" stroke="#E5E7EB"/>
      <text x="20" y="140" class="text-body">Snapshot manuel</text>
      <text x="300" y="140" class="text-body">partition_prod-snap-backup-2024</text>
      <rect x="1040" y="122" width="32" height="28" rx="4" class="btn-icon"/>
      <text x="1050" y="141" class="text-muted">🗑</text>
      
      <!-- Row 3: Snapshot manuel 2 -->
      <line x1="1" y1="160" x2="1099" y2="160" stroke="#E5E7EB"/>
      <text x="20" y="195" class="text-body">Snapshot manuel</text>
      <text x="300" y="195" class="text-body">partition_prod-snap-before-migration</text>
      <rect x="1040" y="177" width="32" height="28" rx="4" class="btn-icon"/>
      <text x="1050" y="196" class="text-muted">🗑</text>
      
      <!-- Row 4: Snapshot manuel 3 -->
      <line x1="1" y1="215" x2="1099" y2="215" stroke="#E5E7EB"/>
      <text x="20" y="250" class="text-body">Snapshot manuel</text>
      <text x="300" y="250" class="text-body">partition_prod-snap-test</text>
      <rect x="1040" y="232" width="32" height="28" rx="4" class="btn-icon"/>
      <text x="1050" y="251" class="text-muted">🗑</text>
    </g>
  </g>
</svg>
