<?xml version="1.0" encoding="UTF-8"?>
<svg width="500" height="340" viewBox="0 0 500 340" fill="none" xmlns="http://www.w3.org/2000/svg">
  <title>IAM - Delete Group Modal</title>
  <rect width="500" height="340" fill="black" fill-opacity="0.5"/>
  <rect x="50" y="40" width="400" height="260" rx="8" fill="white"/>
  <g transform="translate(50, 40)"><rect x="0" y="0" width="400" height="55" rx="8" fill="#FEE2E2"/><text x="25" y="35" fill="#DC2626" font-family="system-ui, sans-serif" font-size="16" font-weight="600">Supprimer le groupe</text><text x="370" y="35" fill="#DC2626" font-family="system-ui, sans-serif" font-size="18" cursor="pointer">×</text></g>
  <g transform="translate(75, 115)">
    <text x="0" y="0" fill="#1F2937" font-family="system-ui, sans-serif" font-size="14">Êtes-vous sûr de vouloir supprimer ce groupe ?</text>
    <g transform="translate(0, 25)">
      <rect x="0" y="0" width="350" height="55" rx="4" fill="#F9FAFB"/>
      <g transform="translate(15, 10)">
        <rect x="0" y="0" width="35" height="35" rx="6" fill="#7C3AED"/>
        <text x="17" y="24" fill="white" font-family="system-ui, sans-serif" font-size="12" font-weight="600" text-anchor="middle">D</text>
        <text x="50" y="15" fill="#1F2937" font-family="system-ui, sans-serif" font-size="13" font-weight="500">Developers</text>
        <text x="50" y="32" fill="#6B7280" font-family="system-ui, sans-serif" font-size="11">8 membres • 3 politiques</text>
      </g>
    </g>
    <g transform="translate(0, 95)">
      <rect x="0" y="0" width="350" height="40" rx="4" fill="#FEF3C7"/>
      <text x="15" y="25" fill="#92400E" font-family="system-ui, sans-serif" font-size="11">⚠️ Les membres perdront les permissions du groupe.</text>
    </g>
  </g>
  <g transform="translate(75, 265)"><rect x="0" y="0" width="100" height="36" rx="4" fill="white" stroke="#E5E7EB"/><text x="25" y="24" fill="#6B7280" font-family="system-ui, sans-serif" font-size="13">Annuler</text><rect x="250" y="0" width="100" height="36" rx="4" fill="#DC2626"/><text x="268" y="24" fill="white" font-family="system-ui, sans-serif" font-size="13">Supprimer</text></g>
</svg>
