<?xml version="1.0" encoding="UTF-8"?>
<svg width="600" height="500" viewBox="0 0 600 500" fill="none" xmlns="http://www.w3.org/2000/svg">
  <title>IAM - Add Group Members Modal</title>
  <rect width="600" height="500" fill="black" fill-opacity="0.5"/>
  <rect x="50" y="30" width="500" height="440" rx="8" fill="white"/>
  <g transform="translate(50, 30)"><rect x="0" y="0" width="500" height="55" rx="8" fill="#F9FAFB"/><text x="25" y="35" fill="#1F2937" font-family="system-ui, sans-serif" font-size="16" font-weight="600">Ajouter des membres - Developers</text><text x="470" y="35" fill="#6B7280" font-family="system-ui, sans-serif" font-size="18" cursor="pointer">×</text></g>
  <g transform="translate(75, 105)">
    <rect x="0" y="0" width="450" height="40" rx="4" fill="white" stroke="#E5E7EB"/>
    <text x="15" y="26" fill="#9CA3AF" font-family="system-ui, sans-serif" font-size="13">🔍 Rechercher un utilisateur...</text>
  </g>
  <g transform="translate(75, 165)">
    <text x="0" y="0" fill="#1F2937" font-family="system-ui, sans-serif" font-size="13" font-weight="500">Utilisateurs disponibles</text>
    <g transform="translate(0, 25)">
      <g transform="translate(0, 0)">
        <rect x="0" y="0" width="18" height="18" rx="3" fill="#0050D7"/>
        <text x="6" y="14" fill="white" font-family="system-ui, sans-serif" font-size="12">✓</text>
        <g transform="translate(30, -3)"><circle cx="12" cy="12" r="12" fill="#16A34A"/><text x="12" y="17" fill="white" font-family="system-ui, sans-serif" font-size="9" font-weight="600" text-anchor="middle">NB</text></g>
        <text x="60" y="14" fill="#1F2937" font-family="system-ui, sans-serif" font-size="12" font-weight="500">Nicolas Bernard</text>
        <text x="200" y="14" fill="#6B7280" font-family="system-ui, sans-serif" font-size="11">nicolas.bernard@...</text>
      </g>
      <g transform="translate(0, 35)">
        <rect x="0" y="0" width="18" height="18" rx="3" fill="#0050D7"/>
        <text x="6" y="14" fill="white" font-family="system-ui, sans-serif" font-size="12">✓</text>
        <g transform="translate(30, -3)"><circle cx="12" cy="12" r="12" fill="#F59E0B"/><text x="12" y="17" fill="white" font-family="system-ui, sans-serif" font-size="9" font-weight="600" text-anchor="middle">LM</text></g>
        <text x="60" y="14" fill="#1F2937" font-family="system-ui, sans-serif" font-size="12" font-weight="500">Laura Martin</text>
        <text x="200" y="14" fill="#6B7280" font-family="system-ui, sans-serif" font-size="11">laura.martin@...</text>
      </g>
      <g transform="translate(0, 70)">
        <rect x="0" y="0" width="18" height="18" rx="3" fill="white" stroke="#E5E7EB"/>
        <g transform="translate(30, -3)"><circle cx="12" cy="12" r="12" fill="#DC2626"/><text x="12" y="17" fill="white" font-family="system-ui, sans-serif" font-size="9" font-weight="600" text-anchor="middle">YD</text></g>
        <text x="60" y="14" fill="#1F2937" font-family="system-ui, sans-serif" font-size="12" font-weight="500">Yann Dupont</text>
        <text x="200" y="14" fill="#6B7280" font-family="system-ui, sans-serif" font-size="11">yann.dupont@...</text>
      </g>
      <g transform="translate(0, 105)">
        <rect x="0" y="0" width="18" height="18" rx="3" fill="white" stroke="#E5E7EB"/>
        <g transform="translate(30, -3)"><circle cx="12" cy="12" r="12" fill="#7C3AED"/><text x="12" y="17" fill="white" font-family="system-ui, sans-serif" font-size="9" font-weight="600" text-anchor="middle">SR</text></g>
        <text x="60" y="14" fill="#1F2937" font-family="system-ui, sans-serif" font-size="12" font-weight="500">Sophie Robert</text>
        <text x="200" y="14" fill="#6B7280" font-family="system-ui, sans-serif" font-size="11">sophie.robert@...</text>
      </g>
      <g transform="translate(0, 140)">
        <rect x="0" y="0" width="18" height="18" rx="3" fill="white" stroke="#E5E7EB"/>
        <g transform="translate(30, -3)"><circle cx="12" cy="12" r="12" fill="#0050D7"/><text x="12" y="17" fill="white" font-family="system-ui, sans-serif" font-size="9" font-weight="600" text-anchor="middle">JL</text></g>
        <text x="60" y="14" fill="#1F2937" font-family="system-ui, sans-serif" font-size="12" font-weight="500">Julie Leroy</text>
        <text x="200" y="14" fill="#6B7280" font-family="system-ui, sans-serif" font-size="11">julie.leroy@...</text>
      </g>
    </g>
  </g>
  <g transform="translate(75, 405)">
    <text x="0" y="0" fill="#6B7280" font-family="system-ui, sans-serif" font-size="12">2 utilisateurs sélectionnés</text>
  </g>
  <g transform="translate(75, 430)"><rect x="0" y="0" width="100" height="36" rx="4" fill="white" stroke="#E5E7EB"/><text x="25" y="24" fill="#6B7280" font-family="system-ui, sans-serif" font-size="13">Annuler</text><rect x="350" y="0" width="100" height="36" rx="4" fill="#0050D7"/><text x="375" y="24" fill="white" font-family="system-ui, sans-serif" font-size="13">Ajouter</text></g>
</svg>
