<?xml version="1.0" encoding="UTF-8"?>
<svg width="1100" height="650" viewBox="0 0 1100 650" fill="none" xmlns="http://www.w3.org/2000/svg">
  <title>Private Cloud - NSX Edges</title>
  <rect width="1100" height="650" fill="#F9FAFB"/>

  <!-- Header -->
  <g transform="translate(30, 30)">
    <text x="0" y="0" fill="#1F2937" font-family="system-ui, sans-serif" font-size="22" font-weight="600">NSX Edges</text>
    <text x="0" y="28" fill="#6B7280" font-family="system-ui, sans-serif" font-size="13">Gérez vos passerelles réseau NSX</text>
  </g>

  <!-- Add Edge button -->
  <g transform="translate(30, 80)">
    <rect x="0" y="0" width="160" height="40" rx="4" fill="#0050D7"/>
    <text x="20" y="26" fill="white" font-family="system-ui, sans-serif" font-size="13" font-weight="500">+ Ajouter un Edge</text>
  </g>

  <!-- Datagrid -->
  <g transform="translate(30, 140)">
    <rect x="0" y="0" width="1040" height="480" rx="8" fill="white" stroke="#E5E7EB"/>

    <!-- Header -->
    <rect x="0" y="0" width="1040" height="45" rx="8" fill="#F3F4F6"/>
    <text x="20" y="28" fill="#1F2937" font-family="system-ui, sans-serif" font-size="12" font-weight="600">Nom</text>
    <text x="180" y="28" fill="#1F2937" font-family="system-ui, sans-serif" font-size="12" font-weight="600">Taille</text>
    <text x="280" y="28" fill="#1F2937" font-family="system-ui, sans-serif" font-size="12" font-weight="600">Datacenter</text>
    <text x="420" y="28" fill="#1F2937" font-family="system-ui, sans-serif" font-size="12" font-weight="600">IP publique</text>
    <text x="560" y="28" fill="#1F2937" font-family="system-ui, sans-serif" font-size="12" font-weight="600">Services</text>
    <text x="750" y="28" fill="#1F2937" font-family="system-ui, sans-serif" font-size="12" font-weight="600">Statut</text>
    <text x="870" y="28" fill="#1F2937" font-family="system-ui, sans-serif" font-size="12" font-weight="600">Facturation</text>
    <text x="1000" y="28" fill="#6B7280" font-family="system-ui, sans-serif" font-size="12">⋮</text>

    <!-- Row 1 -->
    <line x1="0" y1="45" x2="1040" y2="45" stroke="#E5E7EB"/>
    <text x="20" y="78" fill="#0050D7" font-family="system-ui, sans-serif" font-size="13">edge-prod-01</text>
    <text x="180" y="78" fill="#1F2937" font-family="system-ui, sans-serif" font-size="13">Large</text>
    <text x="280" y="78" fill="#1F2937" font-family="system-ui, sans-serif" font-size="13">DC1-Paris</text>
    <text x="420" y="78" fill="#1F2937" font-family="system-ui, sans-serif" font-size="13">51.91.xxx.xxx</text>
    <g transform="translate(560, 62)">
      <rect x="0" y="0" width="35" height="22" rx="3" fill="#EFF6FF"/>
      <text x="8" y="15" fill="#0050D7" font-family="system-ui, sans-serif" font-size="10">NAT</text>
      <rect x="40" y="0" width="35" height="22" rx="3" fill="#EFF6FF"/>
      <text x="48" y="15" fill="#0050D7" font-family="system-ui, sans-serif" font-size="10">FW</text>
      <rect x="80" y="0" width="40" height="22" rx="3" fill="#EFF6FF"/>
      <text x="88" y="15" fill="#0050D7" font-family="system-ui, sans-serif" font-size="10">VPN</text>
      <rect x="125" y="0" width="35" height="22" rx="3" fill="#EFF6FF"/>
      <text x="133" y="15" fill="#0050D7" font-family="system-ui, sans-serif" font-size="10">LB</text>
    </g>
    <rect x="750" y="62" width="70" height="24" rx="4" fill="#DCFCE7"/>
    <text x="765" y="79" fill="#16A34A" font-family="system-ui, sans-serif" font-size="11">Actif</text>
    <text x="870" y="78" fill="#1F2937" font-family="system-ui, sans-serif" font-size="13">Mensuel</text>
    <text x="1000" y="78" fill="#6B7280" font-family="system-ui, sans-serif" font-size="16">⋮</text>

    <!-- Row 2 -->
    <line x1="0" y1="100" x2="1040" y2="100" stroke="#E5E7EB"/>
    <text x="20" y="133" fill="#0050D7" font-family="system-ui, sans-serif" font-size="13">edge-dev-01</text>
    <text x="180" y="133" fill="#1F2937" font-family="system-ui, sans-serif" font-size="13">Medium</text>
    <text x="280" y="133" fill="#1F2937" font-family="system-ui, sans-serif" font-size="13">DC1-Paris</text>
    <text x="420" y="133" fill="#1F2937" font-family="system-ui, sans-serif" font-size="13">51.91.xxx.xxx</text>
    <g transform="translate(560, 117)">
      <rect x="0" y="0" width="35" height="22" rx="3" fill="#EFF6FF"/>
      <text x="8" y="15" fill="#0050D7" font-family="system-ui, sans-serif" font-size="10">NAT</text>
      <rect x="40" y="0" width="35" height="22" rx="3" fill="#EFF6FF"/>
      <text x="48" y="15" fill="#0050D7" font-family="system-ui, sans-serif" font-size="10">FW</text>
    </g>
    <rect x="750" y="117" width="70" height="24" rx="4" fill="#DCFCE7"/>
    <text x="765" y="134" fill="#16A34A" font-family="system-ui, sans-serif" font-size="11">Actif</text>
    <text x="870" y="133" fill="#1F2937" font-family="system-ui, sans-serif" font-size="13">Horaire</text>

    <!-- Action menu open -->
    <g transform="translate(930, 105)">
      <text x="70" y="28" fill="#6B7280" font-family="system-ui, sans-serif" font-size="16">⋮</text>
      <rect x="-30" y="40" width="180" height="150" rx="4" fill="white" stroke="#E5E7EB" filter="url(#shadow)"/>
      <text x="-15" y="65" fill="#1F2937" font-family="system-ui, sans-serif" font-size="13">Configurer NAT</text>
      <line x1="-30" y1="80" x2="150" y2="80" stroke="#E5E7EB"/>
      <text x="-15" y="100" fill="#1F2937" font-family="system-ui, sans-serif" font-size="13">Configurer Firewall</text>
      <line x1="-30" y1="115" x2="150" y2="115" stroke="#E5E7EB"/>
      <text x="-15" y="135" fill="#1F2937" font-family="system-ui, sans-serif" font-size="13">Passer en mensuel</text>
      <line x1="-30" y1="150" x2="150" y2="150" stroke="#E5E7EB"/>
      <text x="-15" y="170" fill="#DC2626" font-family="system-ui, sans-serif" font-size="13">Supprimer</text>
    </g>

    <!-- Row 3 -->
    <line x1="0" y1="155" x2="1040" y2="155" stroke="#E5E7EB"/>
    <text x="20" y="188" fill="#0050D7" font-family="system-ui, sans-serif" font-size="13">edge-dmz-01</text>
    <text x="180" y="188" fill="#1F2937" font-family="system-ui, sans-serif" font-size="13">Large</text>
    <text x="280" y="188" fill="#1F2937" font-family="system-ui, sans-serif" font-size="13">DC2-Londres</text>
    <text x="420" y="188" fill="#1F2937" font-family="system-ui, sans-serif" font-size="13">141.94.xxx.xxx</text>
    <g transform="translate(560, 172)">
      <rect x="0" y="0" width="35" height="22" rx="3" fill="#EFF6FF"/>
      <text x="8" y="15" fill="#0050D7" font-family="system-ui, sans-serif" font-size="10">NAT</text>
      <rect x="40" y="0" width="35" height="22" rx="3" fill="#EFF6FF"/>
      <text x="48" y="15" fill="#0050D7" font-family="system-ui, sans-serif" font-size="10">FW</text>
      <rect x="80" y="0" width="40" height="22" rx="3" fill="#EFF6FF"/>
      <text x="88" y="15" fill="#0050D7" font-family="system-ui, sans-serif" font-size="10">VPN</text>
    </g>
    <rect x="750" y="172" width="70" height="24" rx="4" fill="#DCFCE7"/>
    <text x="765" y="189" fill="#16A34A" font-family="system-ui, sans-serif" font-size="11">Actif</text>
    <text x="870" y="188" fill="#1F2937" font-family="system-ui, sans-serif" font-size="13">Mensuel</text>
    <text x="1000" y="188" fill="#6B7280" font-family="system-ui, sans-serif" font-size="16">⋮</text>
  </g>

  <defs>
    <filter id="shadow" x="-20%" y="-20%" width="140%" height="140%">
      <feDropShadow dx="0" dy="4" stdDeviation="6" flood-opacity="0.1"/>
    </filter>
  </defs>
</svg>
