<?xml version="1.0" encoding="UTF-8"?>
<svg width="1100" height="550" viewBox="0 0 1100 550" fill="none" xmlns="http://www.w3.org/2000/svg">
  <title>Private Cloud - Events</title>
  <rect width="1100" height="550" fill="#F9FAFB"/>
  <g transform="translate(30, 30)"><text x="0" y="0" fill="#1F2937" font-family="system-ui, sans-serif" font-size="22" font-weight="600">Événements</text><text x="0" y="30" fill="#6B7280" font-family="system-ui, sans-serif" font-size="13">Journal des événements de votre infrastructure.</text></g>
  <g transform="translate(30, 90)"><rect x="0" y="0" width="300" height="40" rx="4" fill="white" stroke="#E5E7EB"/><text x="15" y="26" fill="#6B7280" font-family="system-ui, sans-serif" font-size="13">🔍 Rechercher...</text></g>
  <g transform="translate(30, 160)">
    <rect x="0" y="0" width="1040" height="360" rx="8" fill="white" stroke="#E5E7EB"/>
    <g transform="translate(0, 0)"><rect x="0" y="0" width="1040" height="45" rx="8" fill="#F9FAFB"/><text x="20" y="28" fill="#6B7280" font-family="system-ui, sans-serif" font-size="12" font-weight="500">Date/Heure</text><text x="180" y="28" fill="#6B7280" font-family="system-ui, sans-serif" font-size="12" font-weight="500">Type</text><text x="280" y="28" fill="#6B7280" font-family="system-ui, sans-serif" font-size="12" font-weight="500">Message</text><text x="750" y="28" fill="#6B7280" font-family="system-ui, sans-serif" font-size="12" font-weight="500">Utilisateur</text><text x="900" y="28" fill="#6B7280" font-family="system-ui, sans-serif" font-size="12" font-weight="500">Objet</text></g>
    <g transform="translate(0, 50)"><line x1="0" y1="0" x2="1040" y2="0" stroke="#E5E7EB"/><text x="20" y="35" fill="#6B7280" font-family="system-ui, sans-serif" font-size="12">29/12 14:32</text><g transform="translate(180, 18)"><rect x="0" y="0" width="60" height="22" rx="4" fill="#EFF6FF"/><text x="15" y="15" fill="#0050D7" font-family="system-ui, sans-serif" font-size="11">Info</text></g><text x="280" y="35" fill="#1F2937" font-family="system-ui, sans-serif" font-size="12">Migration vMotion démarrée</text><text x="750" y="35" fill="#1F2937" font-family="system-ui, sans-serif" font-size="12">admin</text><text x="900" y="35" fill="#1F2937" font-family="system-ui, sans-serif" font-size="12">db-master</text></g>
    <g transform="translate(0, 115)"><line x1="0" y1="0" x2="1040" y2="0" stroke="#E5E7EB"/><text x="20" y="35" fill="#6B7280" font-family="system-ui, sans-serif" font-size="12">29/12 14:28</text><g transform="translate(180, 18)"><rect x="0" y="0" width="60" height="22" rx="4" fill="#DCFCE7"/><text x="10" y="15" fill="#16A34A" font-family="system-ui, sans-serif" font-size="11">Succès</text></g><text x="280" y="35" fill="#1F2937" font-family="system-ui, sans-serif" font-size="12">Snapshot créé avec succès</text><text x="750" y="35" fill="#1F2937" font-family="system-ui, sans-serif" font-size="12">admin</text><text x="900" y="35" fill="#1F2937" font-family="system-ui, sans-serif" font-size="12">web-server-01</text></g>
    <g transform="translate(0, 180)"><line x1="0" y1="0" x2="1040" y2="0" stroke="#E5E7EB"/><text x="20" y="35" fill="#6B7280" font-family="system-ui, sans-serif" font-size="12">29/12 09:45</text><g transform="translate(180, 18)"><rect x="0" y="0" width="60" height="22" rx="4" fill="#FEF3C7"/><text x="10" y="15" fill="#92400E" font-family="system-ui, sans-serif" font-size="11">Warning</text></g><text x="280" y="35" fill="#1F2937" font-family="system-ui, sans-serif" font-size="12">CPU utilization exceeded 90%</text><text x="750" y="35" fill="#1F2937" font-family="system-ui, sans-serif" font-size="12">system</text><text x="900" y="35" fill="#1F2937" font-family="system-ui, sans-serif" font-size="12">esxi-host-03</text></g>
    <g transform="translate(0, 245)"><line x1="0" y1="0" x2="1040" y2="0" stroke="#E5E7EB"/><text x="20" y="35" fill="#6B7280" font-family="system-ui, sans-serif" font-size="12">28/12 22:15</text><g transform="translate(180, 18)"><rect x="0" y="0" width="60" height="22" rx="4" fill="#FEE2E2"/><text x="12" y="15" fill="#DC2626" font-family="system-ui, sans-serif" font-size="11">Erreur</text></g><text x="280" y="35" fill="#1F2937" font-family="system-ui, sans-serif" font-size="12">Network connectivity lost temporarily</text><text x="750" y="35" fill="#1F2937" font-family="system-ui, sans-serif" font-size="12">system</text><text x="900" y="35" fill="#1F2937" font-family="system-ui, sans-serif" font-size="12">VLAN-100</text></g>
  </g>
</svg>
