<?xml version="1.0" encoding="UTF-8"?>
<svg width="650" height="550" viewBox="0 0 650 550" fill="none" xmlns="http://www.w3.org/2000/svg">
  <title>Network - Add Frontend Modal</title>
  <rect width="650" height="550" fill="black" fill-opacity="0.5"/>
  <rect x="50" y="20" width="550" height="510" rx="8" fill="white"/>
  <g transform="translate(50, 20)"><rect x="0" y="0" width="550" height="55" rx="8" fill="#F9FAFB"/><text x="25" y="35" fill="#1F2937" font-family="system-ui, sans-serif" font-size="16" font-weight="600">Ajouter un frontend</text><text x="520" y="35" fill="#6B7280" font-family="system-ui, sans-serif" font-size="18" cursor="pointer">×</text></g>
  <g transform="translate(75, 95)">
    <text x="0" y="0" fill="#1F2937" font-family="system-ui, sans-serif" font-size="13" font-weight="500">Nom du frontend</text>
    <g transform="translate(0, 15)"><rect x="0" y="0" width="500" height="40" rx="4" fill="white" stroke="#E5E7EB"/><text x="15" y="26" fill="#9CA3AF" font-family="system-ui, sans-serif" font-size="13">https-frontend</text></g>
  </g>
  <g transform="translate(75, 170)">
    <text x="0" y="0" fill="#1F2937" font-family="system-ui, sans-serif" font-size="13" font-weight="500">Protocole</text>
    <g transform="translate(0, 20)">
      <rect x="0" y="0" width="120" height="45" rx="4" fill="white" stroke="#0050D7" stroke-width="2"/>
      <text x="20" y="28" fill="#1F2937" font-family="system-ui, sans-serif" font-size="12" font-weight="500">HTTPS</text>
    </g>
    <g transform="translate(135, 20)">
      <rect x="0" y="0" width="120" height="45" rx="4" fill="white" stroke="#E5E7EB"/>
      <text x="20" y="28" fill="#6B7280" font-family="system-ui, sans-serif" font-size="12" font-weight="500">HTTP</text>
    </g>
    <g transform="translate(270, 20)">
      <rect x="0" y="0" width="120" height="45" rx="4" fill="white" stroke="#E5E7EB"/>
      <text x="20" y="28" fill="#6B7280" font-family="system-ui, sans-serif" font-size="12" font-weight="500">TCP</text>
    </g>
  </g>
  <g transform="translate(75, 260)">
    <text x="0" y="0" fill="#1F2937" font-family="system-ui, sans-serif" font-size="13" font-weight="500">Port d'écoute</text>
    <g transform="translate(0, 15)"><rect x="0" y="0" width="150" height="40" rx="4" fill="white" stroke="#E5E7EB"/><text x="15" y="26" fill="#1F2937" font-family="system-ui, sans-serif" font-size="13">443</text></g>
  </g>
  <g transform="translate(75, 335)">
    <text x="0" y="0" fill="#1F2937" font-family="system-ui, sans-serif" font-size="13" font-weight="500">Backend par défaut</text>
    <g transform="translate(0, 15)"><rect x="0" y="0" width="500" height="40" rx="4" fill="white" stroke="#E5E7EB"/><text x="15" y="26" fill="#1F2937" font-family="system-ui, sans-serif" font-size="13">web-backend (4 serveurs)</text><text x="475" y="26" fill="#6B7280" font-family="system-ui, sans-serif" font-size="10">▼</text></g>
  </g>
  <g transform="translate(75, 410)">
    <text x="0" y="0" fill="#1F2937" font-family="system-ui, sans-serif" font-size="13" font-weight="500">Certificat SSL</text>
    <g transform="translate(0, 15)"><rect x="0" y="0" width="500" height="40" rx="4" fill="white" stroke="#E5E7EB"/><text x="15" y="26" fill="#1F2937" font-family="system-ui, sans-serif" font-size="13">example.com (Let's Encrypt)</text><text x="475" y="26" fill="#6B7280" font-family="system-ui, sans-serif" font-size="10">▼</text></g>
  </g>
  <g transform="translate(75, 485)"><rect x="0" y="0" width="100" height="36" rx="4" fill="white" stroke="#E5E7EB"/><text x="25" y="24" fill="#6B7280" font-family="system-ui, sans-serif" font-size="13">Annuler</text><rect x="400" y="0" width="100" height="36" rx="4" fill="#0050D7"/><text x="425" y="24" fill="white" font-family="system-ui, sans-serif" font-size="13">Ajouter</text></g>
</svg>
