<?xml version="1.0" encoding="UTF-8"?>
<svg width="1100" height="600" viewBox="0 0 1100 600" fill="none" xmlns="http://www.w3.org/2000/svg">
  <title>Network - Load Balancer Metrics</title>
  <rect width="1100" height="600" fill="#F9FAFB"/>
  <g transform="translate(30, 30)"><text x="0" y="0" fill="#1F2937" font-family="system-ui, sans-serif" font-size="22" font-weight="600">Métriques</text><text x="0" y="30" fill="#6B7280" font-family="system-ui, sans-serif" font-size="13">lb-production-web - Performance et trafic</text></g>
  <g transform="translate(800, 30)">
    <rect x="0" y="0" width="150" height="36" rx="4" fill="white" stroke="#E5E7EB"/>
    <text x="15" y="24" fill="#1F2937" font-family="system-ui, sans-serif" font-size="12">Dernières 24h</text>
    <text x="125" y="24" fill="#6B7280" font-family="system-ui, sans-serif" font-size="12">▼</text>
  </g>
  <g transform="translate(30, 90)">
    <g transform="translate(0, 0)"><rect x="0" y="0" width="200" height="80" rx="8" fill="white" stroke="#E5E7EB"/><text x="20" y="28" fill="#6B7280" font-family="system-ui, sans-serif" font-size="12">Requests/s</text><text x="20" y="55" fill="#1F2937" font-family="system-ui, sans-serif" font-size="22" font-weight="600">12,450</text></g>
    <g transform="translate(220, 0)"><rect x="0" y="0" width="200" height="80" rx="8" fill="white" stroke="#E5E7EB"/><text x="20" y="28" fill="#6B7280" font-family="system-ui, sans-serif" font-size="12">Connexions actives</text><text x="20" y="55" fill="#1F2937" font-family="system-ui, sans-serif" font-size="22" font-weight="600">8,234</text></g>
    <g transform="translate(440, 0)"><rect x="0" y="0" width="200" height="80" rx="8" fill="white" stroke="#E5E7EB"/><text x="20" y="28" fill="#6B7280" font-family="system-ui, sans-serif" font-size="12">Latence moyenne</text><text x="20" y="55" fill="#16A34A" font-family="system-ui, sans-serif" font-size="22" font-weight="600">12ms</text></g>
    <g transform="translate(660, 0)"><rect x="0" y="0" width="200" height="80" rx="8" fill="white" stroke="#E5E7EB"/><text x="20" y="28" fill="#6B7280" font-family="system-ui, sans-serif" font-size="12">Erreurs 5xx</text><text x="20" y="55" fill="#DC2626" font-family="system-ui, sans-serif" font-size="22" font-weight="600">23</text><text x="60" y="55" fill="#6B7280" font-family="system-ui, sans-serif" font-size="12">(0.02%)</text></g>
    <g transform="translate(880, 0)"><rect x="0" y="0" width="160" height="80" rx="8" fill="white" stroke="#E5E7EB"/><text x="20" y="28" fill="#6B7280" font-family="system-ui, sans-serif" font-size="12">Bande passante</text><text x="20" y="55" fill="#1F2937" font-family="system-ui, sans-serif" font-size="22" font-weight="600">450 Mbps</text></g>
  </g>
  <g transform="translate(30, 200)">
    <rect x="0" y="0" width="510" height="180" rx="8" fill="white" stroke="#E5E7EB"/>
    <text x="20" y="30" fill="#1F2937" font-family="system-ui, sans-serif" font-size="14" font-weight="600">Requêtes par seconde</text>
    <g transform="translate(20, 50)">
      <line x1="30" y1="0" x2="470" y2="0" stroke="#E5E7EB" stroke-dasharray="4"/>
      <line x1="30" y1="40" x2="470" y2="40" stroke="#E5E7EB" stroke-dasharray="4"/>
      <line x1="30" y1="80" x2="470" y2="80" stroke="#E5E7EB"/>
      <polyline points="30,60 80,55 130,48 180,52 230,35 280,38 330,30 380,25 430,20 470,18" fill="none" stroke="#0050D7" stroke-width="2"/>
      <text x="0" y="5" fill="#6B7280" font-family="system-ui, sans-serif" font-size="9">15K</text>
      <text x="0" y="45" fill="#6B7280" font-family="system-ui, sans-serif" font-size="9">10K</text>
      <text x="0" y="85" fill="#6B7280" font-family="system-ui, sans-serif" font-size="9">5K</text>
    </g>
  </g>
  <g transform="translate(560, 200)">
    <rect x="0" y="0" width="510" height="180" rx="8" fill="white" stroke="#E5E7EB"/>
    <text x="20" y="30" fill="#1F2937" font-family="system-ui, sans-serif" font-size="14" font-weight="600">Latence (p50, p95, p99)</text>
    <g transform="translate(20, 50)">
      <line x1="30" y1="0" x2="470" y2="0" stroke="#E5E7EB" stroke-dasharray="4"/>
      <line x1="30" y1="40" x2="470" y2="40" stroke="#E5E7EB" stroke-dasharray="4"/>
      <line x1="30" y1="80" x2="470" y2="80" stroke="#E5E7EB"/>
      <polyline points="30,70 80,68 130,72 180,65 230,68 280,62 330,65 380,60 430,58 470,55" fill="none" stroke="#16A34A" stroke-width="2"/>
      <polyline points="30,50 80,48 130,52 180,45 230,48 280,42 330,45 380,40 430,38 470,35" fill="none" stroke="#F59E0B" stroke-width="2"/>
      <polyline points="30,30 80,28 130,35 180,25 230,28 280,22 330,28 380,20 430,18 470,15" fill="none" stroke="#DC2626" stroke-width="2"/>
      <text x="0" y="5" fill="#6B7280" font-family="system-ui, sans-serif" font-size="9">100ms</text>
      <text x="0" y="45" fill="#6B7280" font-family="system-ui, sans-serif" font-size="9">50ms</text>
      <text x="0" y="85" fill="#6B7280" font-family="system-ui, sans-serif" font-size="9">0ms</text>
    </g>
    <g transform="translate(20, 145)"><circle cx="6" cy="6" r="4" fill="#16A34A"/><text x="14" y="10" fill="#6B7280" font-family="system-ui, sans-serif" font-size="9">p50</text><circle cx="60" cy="6" r="4" fill="#F59E0B"/><text x="68" y="10" fill="#6B7280" font-family="system-ui, sans-serif" font-size="9">p95</text><circle cx="110" cy="6" r="4" fill="#DC2626"/><text x="118" y="10" fill="#6B7280" font-family="system-ui, sans-serif" font-size="9">p99</text></g>
  </g>
  <g transform="translate(30, 410)">
    <rect x="0" y="0" width="1040" height="160" rx="8" fill="white" stroke="#E5E7EB"/>
    <text x="20" y="30" fill="#1F2937" font-family="system-ui, sans-serif" font-size="14" font-weight="600">Codes de réponse HTTP</text>
    <g transform="translate(20, 60)">
      <g transform="translate(0, 0)"><rect x="0" y="0" width="200" height="30" rx="4" fill="#DCFCE7"/><text x="10" y="20" fill="#16A34A" font-family="system-ui, sans-serif" font-size="12">2xx Success: 98.5%</text></g>
      <g transform="translate(220, 0)"><rect x="0" y="0" width="200" height="30" rx="4" fill="#DBEAFE"/><text x="10" y="20" fill="#1E40AF" font-family="system-ui, sans-serif" font-size="12">3xx Redirect: 0.8%</text></g>
      <g transform="translate(440, 0)"><rect x="0" y="0" width="200" height="30" rx="4" fill="#FEF3C7"/><text x="10" y="20" fill="#92400E" font-family="system-ui, sans-serif" font-size="12">4xx Client: 0.65%</text></g>
      <g transform="translate(660, 0)"><rect x="0" y="0" width="200" height="30" rx="4" fill="#FEE2E2"/><text x="10" y="20" fill="#DC2626" font-family="system-ui, sans-serif" font-size="12">5xx Server: 0.05%</text></g>
    </g>
  </g>
</svg>
