<?xml version="1.0" encoding="UTF-8"?>
<svg width="1100" height="550" viewBox="0 0 1100 550" fill="none" xmlns="http://www.w3.org/2000/svg">
  <title>Network - Load Balancer Health Checks</title>
  <rect width="1100" height="550" fill="#F9FAFB"/>
  <g transform="translate(30, 30)"><text x="0" y="0" fill="#1F2937" font-family="system-ui, sans-serif" font-size="22" font-weight="600">Health Checks</text><text x="0" y="30" fill="#6B7280" font-family="system-ui, sans-serif" font-size="13">lb-production-web - Configuration des sondes de santé.</text></g>
  <g transform="translate(30, 90)"><rect x="0" y="0" width="180" height="40" rx="4" fill="#0050D7"/><text x="25" y="26" fill="white" font-family="system-ui, sans-serif" font-size="13">+ Ajouter health check</text></g>
  <g transform="translate(30, 160)">
    <rect x="0" y="0" width="500" height="360" rx="8" fill="white" stroke="#E5E7EB"/>
    <text x="20" y="30" fill="#1F2937" font-family="system-ui, sans-serif" font-size="15" font-weight="600">HTTP Health Check - api-backend</text>
    <g transform="translate(380, 15)"><rect x="0" y="0" width="100" height="28" rx="4" fill="#DCFCE7"/><text x="15" y="18" fill="#16A34A" font-family="system-ui, sans-serif" font-size="11">4/4 Healthy</text></g>
    <g transform="translate(20, 55)">
      <text x="0" y="15" fill="#6B7280" font-family="system-ui, sans-serif" font-size="12">Type</text>
      <g transform="translate(0, 25)"><rect x="0" y="0" width="220" height="36" rx="4" fill="white" stroke="#E5E7EB"/><text x="15" y="24" fill="#1F2937" font-family="system-ui, sans-serif" font-size="12">HTTP</text><text x="195" y="24" fill="#6B7280" font-family="system-ui, sans-serif" font-size="10">▼</text></g>
      <g transform="translate(240, 0)">
        <text x="0" y="15" fill="#6B7280" font-family="system-ui, sans-serif" font-size="12">Port</text>
        <g transform="translate(0, 25)"><rect x="0" y="0" width="100" height="36" rx="4" fill="white" stroke="#E5E7EB"/><text x="15" y="24" fill="#1F2937" font-family="system-ui, sans-serif" font-size="12">8080</text></g>
      </g>
    </g>
    <g transform="translate(20, 135)">
      <text x="0" y="15" fill="#6B7280" font-family="system-ui, sans-serif" font-size="12">URL Path</text>
      <g transform="translate(0, 25)"><rect x="0" y="0" width="340" height="36" rx="4" fill="white" stroke="#E5E7EB"/><text x="15" y="24" fill="#1F2937" font-family="system-ui, sans-serif" font-size="12">/health</text></g>
    </g>
    <g transform="translate(20, 215)">
      <text x="0" y="15" fill="#6B7280" font-family="system-ui, sans-serif" font-size="12">Intervalle</text>
      <g transform="translate(0, 25)"><rect x="0" y="0" width="150" height="36" rx="4" fill="white" stroke="#E5E7EB"/><text x="15" y="24" fill="#1F2937" font-family="system-ui, sans-serif" font-size="12">30 secondes</text><text x="125" y="24" fill="#6B7280" font-family="system-ui, sans-serif" font-size="10">▼</text></g>
      <g transform="translate(170, 0)">
        <text x="0" y="15" fill="#6B7280" font-family="system-ui, sans-serif" font-size="12">Timeout</text>
        <g transform="translate(0, 25)"><rect x="0" y="0" width="120" height="36" rx="4" fill="white" stroke="#E5E7EB"/><text x="15" y="24" fill="#1F2937" font-family="system-ui, sans-serif" font-size="12">5 secondes</text></g>
      </g>
    </g>
    <g transform="translate(20, 295)">
      <text x="0" y="15" fill="#6B7280" font-family="system-ui, sans-serif" font-size="12">Seuils</text>
      <g transform="translate(0, 25)">
        <text x="0" y="15" fill="#1F2937" font-family="system-ui, sans-serif" font-size="12">Healthy après</text>
        <g transform="translate(100, 0)"><rect x="0" y="0" width="50" height="24" rx="4" fill="#F9FAFB"/><text x="18" y="16" fill="#1F2937" font-family="system-ui, sans-serif" font-size="12">2</text></g>
        <text x="160" y="15" fill="#6B7280" font-family="system-ui, sans-serif" font-size="12">checks OK</text>
        <text x="250" y="15" fill="#1F2937" font-family="system-ui, sans-serif" font-size="12">Unhealthy après</text>
        <g transform="translate(370, 0)"><rect x="0" y="0" width="50" height="24" rx="4" fill="#F9FAFB"/><text x="18" y="16" fill="#1F2937" font-family="system-ui, sans-serif" font-size="12">3</text></g>
        <text x="430" y="15" fill="#6B7280" font-family="system-ui, sans-serif" font-size="12">échecs</text>
      </g>
    </g>
  </g>
  <g transform="translate(560, 160)">
    <rect x="0" y="0" width="510" height="360" rx="8" fill="white" stroke="#E5E7EB"/>
    <text x="20" y="30" fill="#1F2937" font-family="system-ui, sans-serif" font-size="15" font-weight="600">TCP Health Check - db-backend</text>
    <g transform="translate(380, 15)"><rect x="0" y="0" width="100" height="28" rx="4" fill="#FEF3C7"/><text x="15" y="18" fill="#92400E" font-family="system-ui, sans-serif" font-size="11">1/2 Healthy</text></g>
    <g transform="translate(20, 55)">
      <text x="0" y="15" fill="#6B7280" font-family="system-ui, sans-serif" font-size="12">Type</text>
      <g transform="translate(0, 25)"><rect x="0" y="0" width="220" height="36" rx="4" fill="white" stroke="#E5E7EB"/><text x="15" y="24" fill="#1F2937" font-family="system-ui, sans-serif" font-size="12">TCP</text><text x="195" y="24" fill="#6B7280" font-family="system-ui, sans-serif" font-size="10">▼</text></g>
      <g transform="translate(240, 0)">
        <text x="0" y="15" fill="#6B7280" font-family="system-ui, sans-serif" font-size="12">Port</text>
        <g transform="translate(0, 25)"><rect x="0" y="0" width="100" height="36" rx="4" fill="white" stroke="#E5E7EB"/><text x="15" y="24" fill="#1F2937" font-family="system-ui, sans-serif" font-size="12">5432</text></g>
      </g>
    </g>
    <g transform="translate(20, 135)">
      <text x="0" y="15" fill="#6B7280" font-family="system-ui, sans-serif" font-size="12">État des backends</text>
      <g transform="translate(0, 30)">
        <rect x="0" y="0" width="470" height="45" rx="4" fill="#DCFCE7"/>
        <circle cx="20" cy="22" r="6" fill="#16A34A"/>
        <text x="35" y="27" fill="#16A34A" font-family="system-ui, sans-serif" font-size="12" font-weight="500">db-primary (10.0.0.10:5432)</text>
        <text x="350" y="27" fill="#16A34A" font-family="system-ui, sans-serif" font-size="11">Healthy - 45ms</text>
      </g>
      <g transform="translate(0, 85)">
        <rect x="0" y="0" width="470" height="45" rx="4" fill="#FEE2E2"/>
        <circle cx="20" cy="22" r="6" fill="#DC2626"/>
        <text x="35" y="27" fill="#DC2626" font-family="system-ui, sans-serif" font-size="12" font-weight="500">db-replica (10.0.0.11:5432)</text>
        <text x="350" y="27" fill="#DC2626" font-family="system-ui, sans-serif" font-size="11">Timeout - 3 fails</text>
      </g>
    </g>
  </g>
</svg>
