<svg xmlns="http://www.w3.org/2000/svg" viewBox="0 0 1440 550" width="1440" height="550">
  <defs>
    <style>
      .bg-header { fill: #000E9C; }
      .bg-white { fill: #FFFFFF; }
      .bg-muted { fill: #F9FAFB; }
      .text-dark { font-family: 'Source Sans Pro', sans-serif; font-size: 14px; fill: #1F2937; }
      .text-muted { font-family: 'Source Sans Pro', sans-serif; font-size: 13px; fill: #6B7280; }
      .text-white { font-family: 'Source Sans Pro', sans-serif; fill: #FFFFFF; }
      .text-title { font-family: 'Source Sans Pro', sans-serif; font-size: 24px; font-weight: 600; fill: #1F2937; }
      .border { stroke: #E5E7EB; stroke-width: 1; fill: none; }
      .text-link { fill: #0050D7; font-family: 'Source Sans Pro', sans-serif; font-size: 14px; }
      .btn-secondary { fill: #FFFFFF; stroke: #D1D5DB; }
    </style>
  </defs>

  <!-- Background -->
  <rect width="1440" height="550" class="bg-muted"/>

  <!-- Header -->
  <rect width="1440" height="60" class="bg-header"/>
  <text x="80" y="38" class="text-white" font-size="18" font-weight="600">OVHcloud</text>
  <text x="200" y="38" class="text-white" font-size="14">Telecom</text>

  <!-- Main content -->
  <g transform="translate(80, 80)">
    <!-- Page header -->
    <g transform="translate(0, 0)">
      <text x="0" y="30" class="text-title">OverTheBox</text>
      <g transform="translate(1150, 5)">
        <rect x="0" y="0" width="120" height="36" rx="4" class="btn-secondary"/>
        <text x="60" y="24" text-anchor="middle" class="text-dark">Changelog</text>
      </g>
    </g>

    <!-- Datagrid container -->
    <g transform="translate(0, 60)">
      <rect x="0" y="0" width="1280" height="370" rx="8" class="bg-white" stroke="#E5E7EB"/>

      <!-- Topbar with order button -->
      <g transform="translate(25, 20)">
        <rect x="0" y="0" width="180" height="40" rx="4" class="btn-secondary"/>
        <text x="90" y="26" text-anchor="middle" class="text-dark">+ Commander</text>
      </g>

      <!-- Table header -->
      <g transform="translate(25, 80)">
        <rect x="0" y="0" width="1230" height="45" fill="#F9FAFB"/>
        <text x="20" y="28" class="text-muted" font-weight="600">Nom</text>
        <text x="400" y="28" class="text-muted" font-weight="600">Description</text>
        <text x="800" y="28" class="text-muted" font-weight="600">Statut</text>
        <text x="1050" y="28" class="text-muted" font-weight="600">Actions</text>
      </g>

      <!-- Row 1 -->
      <g transform="translate(25, 125)">
        <rect x="0" y="0" width="1230" height="60" class="bg-white"/>
        <line x1="0" y1="60" x2="1230" y2="60" stroke="#E5E7EB"/>

        <text x="20" y="35" class="text-link">otb-xxx123</text>
        <text x="400" y="35" class="text-dark">Bureau principal</text>

        <g transform="translate(800, 18)">
          <rect x="0" y="0" width="70" height="24" rx="4" fill="#D1FAE5"/>
          <text x="35" y="16" text-anchor="middle" fill="#065F46" font-size="12">Actif</text>
        </g>

        <g transform="translate(1050, 18)">
          <rect x="0" y="0" width="32" height="32" rx="4" fill="#FFFFFF" stroke="#D1D5DB"/>
          <text x="16" y="22" text-anchor="middle" class="text-muted">⋮</text>
        </g>
      </g>

      <!-- Row 2 -->
      <g transform="translate(25, 185)">
        <rect x="0" y="0" width="1230" height="60" class="bg-white"/>
        <line x1="0" y1="60" x2="1230" y2="60" stroke="#E5E7EB"/>

        <text x="20" y="35" class="text-link">otb-xxx456</text>
        <text x="400" y="35" class="text-dark">Maison secondaire</text>

        <g transform="translate(800, 18)">
          <rect x="0" y="0" width="70" height="24" rx="4" fill="#D1FAE5"/>
          <text x="35" y="16" text-anchor="middle" fill="#065F46" font-size="12">Actif</text>
        </g>

        <g transform="translate(1050, 18)">
          <rect x="0" y="0" width="32" height="32" rx="4" fill="#FFFFFF" stroke="#D1D5DB"/>
          <text x="16" y="22" text-anchor="middle" class="text-muted">⋮</text>
        </g>
      </g>

      <!-- Row 3 -->
      <g transform="translate(25, 245)">
        <rect x="0" y="0" width="1230" height="60" class="bg-white"/>
        <line x1="0" y1="60" x2="1230" y2="60" stroke="#E5E7EB"/>

        <text x="20" y="35" class="text-link">otb-xxx789</text>
        <text x="400" y="35" class="text-muted">(non défini)</text>

        <g transform="translate(800, 18)">
          <rect x="0" y="0" width="80" height="24" rx="4" fill="#FEF3C7"/>
          <text x="40" y="16" text-anchor="middle" fill="#92400E" font-size="12">Création</text>
        </g>

        <g transform="translate(1050, 18)">
          <rect x="0" y="0" width="32" height="32" rx="4" fill="#FFFFFF" stroke="#D1D5DB"/>
          <text x="16" y="22" text-anchor="middle" class="text-muted">⋮</text>
        </g>
      </g>

      <!-- Pagination -->
      <g transform="translate(1050, 330)">
        <text x="0" y="15" class="text-muted">1 - 3 sur 3</text>
        <rect x="100" y="0" width="30" height="30" rx="4" fill="#FFFFFF" stroke="#D1D5DB"/>
        <text x="115" y="20" text-anchor="middle" class="text-muted">‹</text>
        <rect x="135" y="0" width="30" height="30" rx="4" fill="#FFFFFF" stroke="#D1D5DB"/>
        <text x="150" y="20" text-anchor="middle" class="text-muted">›</text>
      </g>
    </g>
  </g>
</svg>
